<svg id="Layer_1" data-name="Layer 1" xmlns="http://www.w3.org/2000/svg" xmlns:xlink="http://www.w3.org/1999/xlink" viewBox="0 0 1790 576"><defs><style>.cls-1,.cls-125{fill:none;}.cls-2{clip-path:url(#clip-path);}.cls-3{fill:url(#linear-gradient);}.cls-4{fill:url(#linear-gradient-2);}.cls-5{fill:url(#linear-gradient-3);}.cls-6{fill:url(#linear-gradient-4);}.cls-7{fill:url(#linear-gradient-5);}.cls-8{fill:url(#linear-gradient-6);}.cls-9{fill:url(#linear-gradient-7);}.cls-10{fill:url(#linear-gradient-8);}.cls-11{fill:url(#linear-gradient-9);}.cls-12{fill:url(#linear-gradient-10);}.cls-13{fill:url(#linear-gradient-11);}.cls-14{fill:url(#linear-gradient-12);}.cls-15{fill:url(#linear-gradient-13);}.cls-16{fill:url(#linear-gradient-14);}.cls-17{fill:url(#linear-gradient-15);}.cls-18{fill:url(#linear-gradient-16);}.cls-19{fill:url(#linear-gradient-17);}.cls-20{fill:url(#linear-gradient-18);}.cls-21{fill:url(#linear-gradient-19);}.cls-22{fill:url(#linear-gradient-20);}.cls-23{fill:url(#linear-gradient-21);}.cls-24{fill:url(#linear-gradient-22);}.cls-25{fill:url(#linear-gradient-23);}.cls-26{fill:url(#linear-gradient-24);}.cls-27{fill:url(#linear-gradient-25);}.cls-28{fill:url(#linear-gradient-26);}.cls-29{fill:url(#linear-gradient-27);}.cls-30{fill:url(#linear-gradient-28);}.cls-31{fill:url(#linear-gradient-29);}.cls-32{fill:url(#linear-gradient-30);}.cls-33{fill:url(#linear-gradient-31);}.cls-34{fill:url(#linear-gradient-32);}.cls-35{fill:url(#linear-gradient-33);}.cls-36{fill:url(#linear-gradient-34);}.cls-37{fill:url(#linear-gradient-35);}.cls-38{fill:url(#linear-gradient-36);}.cls-39{fill:url(#linear-gradient-37);}.cls-40{fill:url(#linear-gradient-38);}.cls-41{fill:url(#linear-gradient-39);}.cls-42{fill:url(#linear-gradient-40);}.cls-43{fill:url(#linear-gradient-41);}.cls-44{fill:url(#linear-gradient-42);}.cls-45{fill:url(#linear-gradient-43);}.cls-46{fill:url(#linear-gradient-44);}.cls-47{fill:url(#linear-gradient-45);}.cls-48{fill:url(#linear-gradient-46);}.cls-49{fill:url(#linear-gradient-47);}.cls-50{fill:url(#linear-gradient-48);}.cls-51{fill:url(#linear-gradient-49);}.cls-52{fill:url(#linear-gradient-50);}.cls-53{fill:url(#linear-gradient-51);}.cls-54{fill:url(#linear-gradient-52);}.cls-55{fill:url(#linear-gradient-53);}.cls-56{fill:url(#linear-gradient-54);}.cls-57{fill:url(#linear-gradient-55);}.cls-58{fill:url(#linear-gradient-56);}.cls-59{fill:url(#linear-gradient-57);}.cls-60{fill:url(#linear-gradient-58);}.cls-61{fill:url(#linear-gradient-59);}.cls-62{fill:url(#linear-gradient-60);}.cls-63{fill:url(#linear-gradient-61);}.cls-64{fill:url(#linear-gradient-62);}.cls-65{fill:url(#linear-gradient-63);}.cls-66{fill:url(#linear-gradient-64);}.cls-67{fill:url(#linear-gradient-65);}.cls-68{fill:url(#linear-gradient-66);}.cls-69{fill:url(#linear-gradient-67);}.cls-70{fill:url(#linear-gradient-68);}.cls-71{fill:url(#linear-gradient-69);}.cls-72{fill:url(#linear-gradient-70);}.cls-73{fill:url(#linear-gradient-71);}.cls-74{fill:url(#linear-gradient-72);}.cls-75{fill:url(#linear-gradient-73);}.cls-76{fill:url(#linear-gradient-74);}.cls-77{fill:url(#linear-gradient-75);}.cls-78{fill:url(#linear-gradient-76);}.cls-79{fill:url(#linear-gradient-77);}.cls-80{fill:url(#linear-gradient-78);}.cls-81{fill:url(#linear-gradient-79);}.cls-82{fill:url(#linear-gradient-80);}.cls-83{fill:url(#linear-gradient-81);}.cls-84{fill:url(#linear-gradient-82);}.cls-85{fill:url(#linear-gradient-83);}.cls-86{fill:url(#linear-gradient-84);}.cls-87{fill:url(#linear-gradient-85);}.cls-88{fill:url(#linear-gradient-86);}.cls-89{fill:url(#linear-gradient-87);}.cls-90{fill:url(#linear-gradient-88);}.cls-91{fill:url(#linear-gradient-89);}.cls-92{fill:url(#linear-gradient-90);}.cls-93{fill:url(#linear-gradient-91);}.cls-94{fill:url(#linear-gradient-92);}.cls-95{fill:url(#linear-gradient-93);}.cls-96{fill:url(#linear-gradient-94);}.cls-97{fill:url(#linear-gradient-95);}.cls-98{fill:url(#linear-gradient-96);}.cls-99{fill:url(#linear-gradient-97);}.cls-100{fill:url(#linear-gradient-98);}.cls-101{fill:url(#linear-gradient-99);}.cls-102{fill:url(#linear-gradient-100);}.cls-103{fill:url(#linear-gradient-101);}.cls-104{fill:url(#linear-gradient-102);}.cls-105{fill:url(#linear-gradient-103);}.cls-106{fill:url(#linear-gradient-104);}.cls-107{fill:url(#linear-gradient-105);}.cls-108{fill:url(#linear-gradient-106);}.cls-109{fill:url(#linear-gradient-107);}.cls-110{fill:url(#linear-gradient-108);}.cls-111{fill:url(#linear-gradient-109);}.cls-112{fill:url(#linear-gradient-110);}.cls-113{fill:url(#linear-gradient-111);}.cls-114{fill:url(#linear-gradient-112);}.cls-115{fill:url(#linear-gradient-113);}.cls-116{fill:url(#linear-gradient-114);}.cls-117{fill:url(#linear-gradient-115);}.cls-118{fill:url(#linear-gradient-116);}.cls-119{fill:url(#linear-gradient-117);}.cls-120{stroke:#231f20;fill:url(#linear-gradient-118);}.cls-120,.cls-125,.cls-128{stroke-miterlimit:10;}.cls-121{fill:url(#New_Pattern_Swatch_1);}.cls-122{fill:url(#radial-gradient);}.cls-123{fill:#323232;}.cls-124{fill:#969696;}.cls-125{stroke:#969696;stroke-width:10px;}.cls-126{fill:url(#radial-gradient-2);}.cls-127{fill:url(#radial-gradient-3);}.cls-128{font-size:193.21px;fill:#fff;stroke:#000;stroke-width:4.97px;font-family:GillSans-Bold, Gill Sans;font-weight:700;}.cls-129{letter-spacing:-0.04em;}.cls-130{letter-spacing:0em;}</style><clipPath id="clip-path"><rect class="cls-1" width="360" height="240"/></clipPath><linearGradient id="linear-gradient" x1="-32336.77" y1="31500.55" x2="-32336.77" y2="31520.55" gradientTransform="translate(32516.65 -31500.55)" gradientUnits="userSpaceOnUse"><stop offset="0.01" stop-opacity="0"/><stop offset="0.77" stop-opacity="0"/><stop offset="0.9" stop-opacity="0"/><stop offset="0.9" stop-opacity="0.34"/><stop offset="0.9" stop-opacity="0.4"/><stop offset="1" stop-opacity="0.4"/></linearGradient><linearGradient id="linear-gradient-2" x1="-32336.77" y1="31520.6" x2="-32336.77" y2="31540.6" xlink:href="#linear-gradient"/><linearGradient id="linear-gradient-3" x1="-32336.77" y1="31540.64" x2="-32336.77" y2="31560.64" xlink:href="#linear-gradient"/><linearGradient id="linear-gradient-4" x1="-32336.77" y1="31560.69" x2="-32336.77" y2="31580.69" xlink:href="#linear-gradient"/><linearGradient id="linear-gradient-5" x1="-32336.77" y1="31580.73" x2="-32336.77" y2="31600.73" xlink:href="#linear-gradient"/><linearGradient id="linear-gradient-6" x1="-32336.77" y1="31600.78" x2="-32336.77" y2="31620.78" xlink:href="#linear-gradient"/><linearGradient id="linear-gradient-7" x1="-32336.77" y1="31620.82" x2="-32336.77" y2="31640.82" xlink:href="#linear-gradient"/><linearGradient id="linear-gradient-8" x1="-32336.77" y1="31640.87" x2="-32336.77" y2="31660.87" xlink:href="#linear-gradient"/><linearGradient id="linear-gradient-9" x1="-32336.77" y1="31660.91" x2="-32336.77" y2="31680.91" xlink:href="#linear-gradient"/><linearGradient id="linear-gradient-10" x1="-32336.77" y1="31680.96" x2="-32336.77" y2="31700.96" xlink:href="#linear-gradient"/><linearGradient id="linear-gradient-11" x1="-32336.77" y1="31701" x2="-32336.77" y2="31721" xlink:href="#linear-gradient"/><linearGradient id="linear-gradient-12" x1="-32336.77" y1="31721.05" x2="-32336.77" y2="31741.05" xlink:href="#linear-gradient"/><linearGradient id="linear-gradient-13" x1="-32276.65" y1="31670.91" x2="-32176.65" y2="31670.91" gradientTransform="translate(32516.65 -31500.55)" gradientUnits="userSpaceOnUse"><stop offset="0" stop-opacity="0.4"/><stop offset="0.5" stop-opacity="0"/><stop offset="1" stop-opacity="0.4"/></linearGradient><linearGradient id="linear-gradient-14" x1="-32296.65" y1="31690.96" x2="-32196.65" y2="31690.96" xlink:href="#linear-gradient-13"/><linearGradient id="linear-gradient-15" x1="-32456.65" y1="31690.96" x2="-32356.65" y2="31690.96" xlink:href="#linear-gradient-13"/><linearGradient id="linear-gradient-16" x1="-32476.65" y1="31570.69" x2="-32376.65" y2="31570.69" xlink:href="#linear-gradient-13"/><linearGradient id="linear-gradient-17" x1="-32456.65" y1="31550.64" x2="-32356.65" y2="31550.64" xlink:href="#linear-gradient-13"/><linearGradient id="linear-gradient-18" x1="-32276.65" y1="31570.69" x2="-32176.65" y2="31570.69" xlink:href="#linear-gradient-13"/><linearGradient id="linear-gradient-19" x1="-32316.65" y1="31530.6" x2="-32216.65" y2="31530.6" xlink:href="#linear-gradient-13"/><linearGradient id="linear-gradient-20" x1="-32236.65" y1="31610.78" x2="-32156.77" y2="31610.78" xlink:href="#linear-gradient-13"/><linearGradient id="linear-gradient-21" x1="-32356.65" y1="31610.78" x2="-32296.65" y2="31610.78" xlink:href="#linear-gradient-13"/><linearGradient id="linear-gradient-22" x1="-32476.65" y1="31670.91" x2="-32376.65" y2="31670.91" xlink:href="#linear-gradient-13"/><linearGradient id="linear-gradient-23" x1="-32496.65" y1="31650.87" x2="-32396.65" y2="31650.87" xlink:href="#linear-gradient-13"/><linearGradient id="linear-gradient-24" x1="-32296.65" y1="31550.64" x2="-32196.65" y2="31550.64" xlink:href="#linear-gradient-13"/><linearGradient id="linear-gradient-25" x1="-32356.65" y1="31630.82" x2="-32296.65" y2="31630.82" xlink:href="#linear-gradient-13"/><linearGradient id="linear-gradient-26" x1="-32436.65" y1="31530.6" x2="-32336.65" y2="31530.6" xlink:href="#linear-gradient-13"/><linearGradient id="linear-gradient-27" x1="-32336.65" y1="31600.64" x2="-32316.65" y2="31600.64" xlink:href="#linear-gradient-13"/><linearGradient id="linear-gradient-28" x1="-32336.65" y1="31650.71" x2="-32316.65" y2="31650.71" xlink:href="#linear-gradient-13"/><linearGradient id="linear-gradient-29" x1="-32516.77" y1="31610.78" x2="-32416.65" y2="31610.78" xlink:href="#linear-gradient-13"/><linearGradient id="linear-gradient-30" x1="-32236.65" y1="31630.82" x2="-32056.65" y2="31630.82" xlink:href="#linear-gradient-13"/><linearGradient id="linear-gradient-31" x1="-32596.65" y1="31630.82" x2="-32416.65" y2="31630.82" xlink:href="#linear-gradient-13"/><linearGradient id="linear-gradient-32" x1="-32516.77" y1="31570.69" x2="-32516.65" y2="31570.69" xlink:href="#linear-gradient-13"/><linearGradient id="linear-gradient-33" x1="-32516.77" y1="31650.87" x2="-32516.65" y2="31650.87" xlink:href="#linear-gradient-13"/><linearGradient id="linear-gradient-34" x1="-32516.77" y1="31590.73" x2="-32516.65" y2="31590.73" xlink:href="#linear-gradient-13"/><linearGradient id="linear-gradient-35" x1="-32516.77" y1="31670.91" x2="-32516.65" y2="31670.91" xlink:href="#linear-gradient-13"/><linearGradient id="linear-gradient-36" x1="-32516.77" y1="31711" x2="-32496.65" y2="31711" xlink:href="#linear-gradient-13"/><linearGradient id="linear-gradient-37" x1="-32516.77" y1="31690.96" x2="-32516.65" y2="31690.96" xlink:href="#linear-gradient-13"/><linearGradient id="linear-gradient-38" x1="-32436.65" y1="31711" x2="-32336.65" y2="31711" xlink:href="#linear-gradient-13"/><linearGradient id="linear-gradient-39" x1="-32256.65" y1="31590.73" x2="-32156.77" y2="31590.73" xlink:href="#linear-gradient-13"/><linearGradient id="linear-gradient-40" x1="-32316.65" y1="31711" x2="-32216.65" y2="31711" xlink:href="#linear-gradient-13"/><linearGradient id="linear-gradient-41" x1="-32256.65" y1="31650.87" x2="-32156.77" y2="31650.87" xlink:href="#linear-gradient-13"/><linearGradient id="linear-gradient-42" x1="-32496.65" y1="31590.73" x2="-32396.65" y2="31590.73" xlink:href="#linear-gradient-13"/><linearGradient id="linear-gradient-43" x1="-32516.77" y1="31530.6" x2="-32496.65" y2="31530.6" xlink:href="#linear-gradient-13"/><linearGradient id="linear-gradient-44" x1="-32516.77" y1="31550.64" x2="-32516.65" y2="31550.64" xlink:href="#linear-gradient-13"/><linearGradient id="linear-gradient-45" x1="-32536.65" y1="31510.55" x2="-32476.65" y2="31510.55" xlink:href="#linear-gradient-13"/><linearGradient id="linear-gradient-46" x1="-32177.15" y1="31510.05" x2="-32117.15" y2="31510.05" xlink:href="#linear-gradient-13"/><linearGradient id="linear-gradient-47" x1="-32396.65" y1="31510.55" x2="-32256.65" y2="31510.55" xlink:href="#linear-gradient-13"/><linearGradient id="linear-gradient-48" x1="-32516.77" y1="31731.05" x2="-32156.77" y2="31731.05" xlink:href="#linear-gradient-13"/><linearGradient id="linear-gradient-49" x1="-32516.77" y1="31731.05" x2="-32496.65" y2="31731.05" xlink:href="#linear-gradient-13"/><linearGradient id="linear-gradient-50" x1="-32176.65" y1="31700.55" x2="-32156.65" y2="31700.55" gradientTransform="translate(32516.65 -31500.55)" gradientUnits="userSpaceOnUse"><stop offset="0" stop-color="#ca7"/><stop offset="0.9" stop-color="#ca7"/><stop offset="0.91" stop-color="#8c6239"/><stop offset="1" stop-color="#8c6239"/></linearGradient><linearGradient id="linear-gradient-51" x1="-32176.65" y1="31560.55" x2="-32156.65" y2="31560.55" xlink:href="#linear-gradient-50"/><linearGradient id="linear-gradient-52" x1="-32196.65" y1="31750.55" x2="-32176.65" y2="31750.55" xlink:href="#linear-gradient-50"/><linearGradient id="linear-gradient-53" x1="-32196.65" y1="31510.55" x2="-32176.65" y2="31510.55" xlink:href="#linear-gradient-50"/><linearGradient id="linear-gradient-54" x1="-32216.65" y1="31750.55" x2="-32196.65" y2="31750.55" xlink:href="#linear-gradient-50"/><linearGradient id="linear-gradient-55" x1="-32216.65" y1="31510.55" x2="-32196.65" y2="31510.55" xlink:href="#linear-gradient-50"/><linearGradient id="linear-gradient-56" x1="-32236.65" y1="31630.55" x2="-32216.65" y2="31630.55" xlink:href="#linear-gradient-50"/><linearGradient id="linear-gradient-57" x1="-32236.65" y1="31750.55" x2="-32216.65" y2="31750.55" xlink:href="#linear-gradient-50"/><linearGradient id="linear-gradient-58" x1="-32236.65" y1="31510.55" x2="-32216.65" y2="31510.55" xlink:href="#linear-gradient-50"/><linearGradient id="linear-gradient-59" x1="-32256.65" y1="31630.55" x2="-32236.65" y2="31630.55" xlink:href="#linear-gradient-50"/><linearGradient id="linear-gradient-60" x1="-32256.65" y1="31510.55" x2="-32236.65" y2="31510.55" xlink:href="#linear-gradient-50"/><linearGradient id="linear-gradient-61" x1="-32276.65" y1="31630.55" x2="-32256.65" y2="31630.55" xlink:href="#linear-gradient-50"/><linearGradient id="linear-gradient-62" x1="-32296.65" y1="31630.55" x2="-32276.65" y2="31630.55" xlink:href="#linear-gradient-50"/><linearGradient id="linear-gradient-63" x1="-32316.65" y1="31680.55" x2="-32296.65" y2="31680.55" xlink:href="#linear-gradient-50"/><linearGradient id="linear-gradient-64" x1="-32316.65" y1="31580.55" x2="-32296.65" y2="31580.55" xlink:href="#linear-gradient-50"/><linearGradient id="linear-gradient-65" x1="-32336.65" y1="31700.55" x2="-32316.65" y2="31700.55" xlink:href="#linear-gradient-50"/><linearGradient id="linear-gradient-66" x1="-32336.65" y1="31560.55" x2="-32316.65" y2="31560.55" xlink:href="#linear-gradient-50"/><linearGradient id="linear-gradient-67" x1="-32356.65" y1="31680.55" x2="-32336.65" y2="31680.55" xlink:href="#linear-gradient-50"/><linearGradient id="linear-gradient-68" x1="-32356.65" y1="31580.55" x2="-32336.65" y2="31580.55" xlink:href="#linear-gradient-50"/><linearGradient id="linear-gradient-69" x1="-32376.65" y1="31630.55" x2="-32356.65" y2="31630.55" xlink:href="#linear-gradient-50"/><linearGradient id="linear-gradient-70" x1="-32396.65" y1="31630.55" x2="-32376.65" y2="31630.55" xlink:href="#linear-gradient-50"/><linearGradient id="linear-gradient-71" x1="-32416.65" y1="31630.55" x2="-32396.65" y2="31630.55" xlink:href="#linear-gradient-50"/><linearGradient id="linear-gradient-72" x1="-32416.65" y1="31510.55" x2="-32396.65" y2="31510.55" xlink:href="#linear-gradient-50"/><linearGradient id="linear-gradient-73" x1="-32436.65" y1="31630.55" x2="-32416.65" y2="31630.55" xlink:href="#linear-gradient-50"/><linearGradient id="linear-gradient-74" x1="-32436.65" y1="31750.55" x2="-32416.65" y2="31750.55" xlink:href="#linear-gradient-50"/><linearGradient id="linear-gradient-75" x1="-32436.65" y1="31510.55" x2="-32416.65" y2="31510.55" xlink:href="#linear-gradient-50"/><linearGradient id="linear-gradient-76" x1="-32456.65" y1="31750.55" x2="-32436.65" y2="31750.55" xlink:href="#linear-gradient-50"/><linearGradient id="linear-gradient-77" x1="-32456.65" y1="31510.55" x2="-32436.65" y2="31510.55" xlink:href="#linear-gradient-50"/><linearGradient id="linear-gradient-78" x1="-32476.65" y1="31750.55" x2="-32456.65" y2="31750.55" xlink:href="#linear-gradient-50"/><linearGradient id="linear-gradient-79" x1="-32476.65" y1="31510.55" x2="-32456.65" y2="31510.55" xlink:href="#linear-gradient-50"/><linearGradient id="linear-gradient-80" x1="-32496.65" y1="31700.55" x2="-32476.65" y2="31700.55" xlink:href="#linear-gradient-50"/><linearGradient id="linear-gradient-81" x1="-32496.65" y1="31560.55" x2="-32476.65" y2="31560.55" xlink:href="#linear-gradient-50"/><linearGradient id="linear-gradient-82" x1="-32516.65" y1="31680.55" x2="-32496.65" y2="31680.55" xlink:href="#linear-gradient-50"/><linearGradient id="linear-gradient-83" x1="-32516.65" y1="31580.55" x2="-32496.65" y2="31580.55" xlink:href="#linear-gradient-50"/><linearGradient id="linear-gradient-84" x1="-32166.65" y1="31660.55" x2="-32166.65" y2="31740.55" gradientTransform="translate(32516.65 -31500.55)" gradientUnits="userSpaceOnUse"><stop offset="0" stop-opacity="0.2"/><stop offset="0.5" stop-opacity="0"/><stop offset="1" stop-opacity="0.2"/></linearGradient><linearGradient id="linear-gradient-85" x1="-32166.65" y1="31520.55" x2="-32166.65" y2="31600.55" xlink:href="#linear-gradient-84"/><linearGradient id="linear-gradient-86" x1="-32186.65" y1="31680.55" x2="-32186.65" y2="31820.55" xlink:href="#linear-gradient-84"/><linearGradient id="linear-gradient-87" x1="-32186.65" y1="31440.55" x2="-32186.65" y2="31580.55" xlink:href="#linear-gradient-84"/><linearGradient id="linear-gradient-88" x1="-32206.65" y1="31700.55" x2="-32206.65" y2="31800.55" xlink:href="#linear-gradient-84"/><linearGradient id="linear-gradient-89" x1="-32206.65" y1="31460.55" x2="-32206.65" y2="31560.55" xlink:href="#linear-gradient-84"/><linearGradient id="linear-gradient-90" x1="-32226.65" y1="31620.55" x2="-32226.65" y2="31640.55" xlink:href="#linear-gradient-84"/><linearGradient id="linear-gradient-91" x1="-32226.65" y1="31720.55" x2="-32226.65" y2="31780.55" xlink:href="#linear-gradient-84"/><linearGradient id="linear-gradient-92" x1="-32226.65" y1="31480.55" x2="-32226.65" y2="31540.55" xlink:href="#linear-gradient-84"/><linearGradient id="linear-gradient-93" x1="-32246.65" y1="31600.55" x2="-32246.65" y2="31660.55" xlink:href="#linear-gradient-84"/><linearGradient id="linear-gradient-94" x1="-32246.65" y1="31500.55" x2="-32246.65" y2="31520.55" xlink:href="#linear-gradient-84"/><linearGradient id="linear-gradient-95" x1="-32266.65" y1="31580.55" x2="-32266.65" y2="31680.55" xlink:href="#linear-gradient-84"/><linearGradient id="linear-gradient-96" x1="-32286.65" y1="31560.55" x2="-32286.65" y2="31700.55" xlink:href="#linear-gradient-84"/><linearGradient id="linear-gradient-97" x1="-32306.65" y1="31640.55" x2="-32306.65" y2="31720.55" xlink:href="#linear-gradient-84"/><linearGradient id="linear-gradient-98" x1="-32306.65" y1="31540.55" x2="-32306.65" y2="31620.55" xlink:href="#linear-gradient-84"/><linearGradient id="linear-gradient-99" x1="-32326.65" y1="31660.55" x2="-32326.65" y2="31740.55" xlink:href="#linear-gradient-84"/><linearGradient id="linear-gradient-100" x1="-32326.65" y1="31520.55" x2="-32326.65" y2="31600.55" xlink:href="#linear-gradient-84"/><linearGradient id="linear-gradient-101" x1="-32346.65" y1="31640.55" x2="-32346.65" y2="31720.55" xlink:href="#linear-gradient-84"/><linearGradient id="linear-gradient-102" x1="-32346.65" y1="31540.55" x2="-32346.65" y2="31620.55" xlink:href="#linear-gradient-84"/><linearGradient id="linear-gradient-103" x1="-32366.65" y1="31560.55" x2="-32366.65" y2="31700.55" xlink:href="#linear-gradient-84"/><linearGradient id="linear-gradient-104" x1="-32386.65" y1="31580.55" x2="-32386.65" y2="31680.55" xlink:href="#linear-gradient-84"/><linearGradient id="linear-gradient-105" x1="-32406.65" y1="31600.55" x2="-32406.65" y2="31660.55" xlink:href="#linear-gradient-84"/><linearGradient id="linear-gradient-106" x1="-32406.65" y1="31500.55" x2="-32406.65" y2="31520.55" xlink:href="#linear-gradient-84"/><linearGradient id="linear-gradient-107" x1="-32426.65" y1="31620.55" x2="-32426.65" y2="31640.55" xlink:href="#linear-gradient-84"/><linearGradient id="linear-gradient-108" x1="-32426.65" y1="31720.55" x2="-32426.65" y2="31780.55" xlink:href="#linear-gradient-84"/><linearGradient id="linear-gradient-109" x1="-32426.65" y1="31480.55" x2="-32426.65" y2="31540.55" xlink:href="#linear-gradient-84"/><linearGradient id="linear-gradient-110" x1="-32446.65" y1="31700.55" x2="-32446.65" y2="31800.55" xlink:href="#linear-gradient-84"/><linearGradient id="linear-gradient-111" x1="-32446.65" y1="31460.55" x2="-32446.65" y2="31560.55" xlink:href="#linear-gradient-84"/><linearGradient id="linear-gradient-112" x1="-32466.65" y1="31680.55" x2="-32466.65" y2="31820.55" xlink:href="#linear-gradient-84"/><linearGradient id="linear-gradient-113" x1="-32466.65" y1="31440.55" x2="-32466.65" y2="31580.55" xlink:href="#linear-gradient-84"/><linearGradient id="linear-gradient-114" x1="-32486.65" y1="31660.55" x2="-32486.65" y2="31740.55" xlink:href="#linear-gradient-84"/><linearGradient id="linear-gradient-115" x1="-32486.65" y1="31520.55" x2="-32486.65" y2="31600.55" xlink:href="#linear-gradient-84"/><linearGradient id="linear-gradient-116" x1="-32506.65" y1="31640.55" x2="-32506.65" y2="31720.55" xlink:href="#linear-gradient-84"/><linearGradient id="linear-gradient-117" x1="-32506.65" y1="31540.55" x2="-32506.65" y2="31620.55" xlink:href="#linear-gradient-84"/><linearGradient id="linear-gradient-118" y1="288" x2="1790" y2="288" gradientUnits="userSpaceOnUse"><stop offset="0.15" stop-color="#1300ce"/><stop offset="0.33" stop-color="#ed0024"/><stop offset="0.5" stop-color="#f0b43f"/><stop offset="0.68" stop-color="#ed0024"/><stop offset="0.85" stop-color="#00d"/></linearGradient><pattern id="New_Pattern_Swatch_1" data-name="New Pattern Swatch 1" width="360" height="240" patternTransform="translate(51)" patternUnits="userSpaceOnUse" viewBox="0 0 360 240"><rect class="cls-1" width="360" height="240"/><g class="cls-2"><path class="cls-3" d="M-.12,20h360V0H-.12Z"/><path class="cls-4" d="M-.12,40.05h360v-20H-.12Z"/><path class="cls-5" d="M-.12,60.09h360v-20H-.12Z"/><path class="cls-6" d="M-.12,80.14h360v-20H-.12Z"/><path class="cls-7" d="M-.12,100.18h360v-20H-.12Z"/><path class="cls-8" d="M-.12,120.23h360v-20H-.12Z"/><path class="cls-9" d="M-.12,140.27h360v-20H-.12Z"/><path class="cls-10" d="M-.12,160.32h360v-20H-.12Z"/><path class="cls-11" d="M-.12,180.36h360v-20H-.12Z"/><path class="cls-12" d="M-.12,200.41h360v-20H-.12Z"/><path class="cls-13" d="M-.12,220.45h360v-20H-.12Z"/><path class="cls-14" d="M-.12,240.5h360v-20H-.12Z"/><path class="cls-15" d="M260,160.36h80V180H320v.36H240V180h20Z"/><path class="cls-16" d="M300,200.41H220V200h20V180.41h80V200H300Z"/><path class="cls-17" d="M80,200.41V200H60V180.41h80V200h20v.41Z"/><path class="cls-18" d="M40,80.14V80H60V60.14h80V80H120v.14Z"/><path class="cls-19" d="M80,40.09h80V60H140v.09H60V60H80Z"/><path class="cls-20" d="M260,80.14V80H240V60.14h80V80h20v.14Z"/><path class="cls-21" d="M280,20.05V40h20v0H220v0H200V20.05Z"/><path class="cls-22" d="M359.88,120.23H300V120H280V100.23h79.88Z"/><path class="cls-23" d="M160,120.23V120h20V100.23h20V120h20v.23Z"/><path class="cls-24" d="M60,180H40V160.36h80V180h20v.36H60Z"/><path class="cls-25" d="M40,160H20V140.32h80V160h20v.32H40Z"/><path class="cls-26" d="M300,40.09V60h20v.09H240V60H220V40.09Z"/><path class="cls-27" d="M180,140H160V120.27h60V140H200v.27H180Z"/><path class="cls-28" d="M100,20.05h80V40H160v0H80v0h20Z"/><path class="cls-29" d="M180,100.18h20V100H180Z"/><path class="cls-30" d="M180,160h20V140.32H180Z"/><path class="cls-31" d="M80,120.23H-.12v-20H0V120H20V100.23h80V120H80Z"/><path class="cls-32" d="M460,140v.27H380V140H360v.27H280V140h20V120.27H440V140Z"/><path class="cls-33" d="M100,140v.27H20V140H0v.27H-80V140h20V120.27H80V140Z"/><path class="cls-34" d="M0,80.14H-.12v-20H0v20Z"/><path class="cls-35" d="M0,160.32H-.12v-20H0v20Z"/><path class="cls-36" d="M0,100.18H-.12v-20H0v20Z"/><path class="cls-37" d="M0,180.36H-.12v-20H0v20Z"/><path class="cls-38" d="M20,220.45H-.12v-20H0V220H20Z"/><path class="cls-39" d="M0,200.41H-.12v-20H0v20Z"/><path class="cls-40" d="M100,220.45V220H80V200.45h80V220h20v.45Z"/><path class="cls-41" d="M359.88,100v.18H280V100H260V80.18h80V100Z"/><path class="cls-42" d="M280,220.45H200V220h20V200.45h80V220H280Z"/><path class="cls-43" d="M359.88,140.32V160H340v.32H260V160h20V140.32Z"/><path class="cls-44" d="M20,100.18V100H40V80.18h80V100H100v.18Z"/><path class="cls-45" d="M0,40.05H-.12v-20H20V40H0Z"/><path class="cls-46" d="M0,60.09H-.12v-20H0v20Z"/><path class="cls-47" d="M40,0V20H-20V0H40Z"/><path class="cls-48" d="M399.5-.5v20h-60V-.5h60Z"/><path class="cls-49" d="M120,20V0H260V20H120Z"/><path class="cls-50" d="M359.88,240.5H27.5V240H100V220.5h80V240h20V220.5h80V240h79.88Z"/><path class="cls-51" d="M-.12,240.5H20v-20H-.12Z"/><path class="cls-52" d="M360,160v80H340V160Z"/><path class="cls-53" d="M360,20v80H340V20Z"/><path class="cls-54" d="M340,180V320H320V180Z"/><path class="cls-55" d="M340-60V80H320V-60Z"/><path class="cls-56" d="M320,200V300H300V200Z"/><path class="cls-57" d="M320-40V60H300V-40Z"/><path class="cls-58" d="M280,140h20V120H280Z"/><path class="cls-59" d="M300,220v60H280V220Z"/><path class="cls-60" d="M300-20V40H280V-20Z"/><path class="cls-61" d="M280,100v60H260V100Z"/><path class="cls-62" d="M260,20h20V0H260Z"/><path class="cls-63" d="M260,80V180H240V80Z"/><path class="cls-64" d="M240,60V200H220V60Z"/><path class="cls-65" d="M220,140v80H200V140Z"/><path class="cls-66" d="M220,40v80H200V40Z"/><path class="cls-67" d="M200,160v80H180V160Z"/><path class="cls-68" d="M200,20v80H180V20Z"/><path class="cls-69" d="M180,140v80H160V140Z"/><path class="cls-70" d="M180,40v80H160V40Z"/><path class="cls-71" d="M160,60V200H140V60Z"/><path class="cls-72" d="M140,80V180H120V80Z"/><path class="cls-73" d="M120,100v60H100V100Z"/><path class="cls-74" d="M100,20h20V0H100Z"/><path class="cls-75" d="M80,140h20V120H80Z"/><path class="cls-76" d="M100,220v60H80V220Z"/><path class="cls-77" d="M100-20V40H80V-20Z"/><path class="cls-78" d="M80,200V300H60V200Z"/><path class="cls-79" d="M80-40V60H60V-40Z"/><path class="cls-80" d="M60,180V320H40V180Z"/><path class="cls-81" d="M60-60V80H40V-60Z"/><path class="cls-82" d="M40,160v80H20V160Z"/><path class="cls-83" d="M40,20v80H20V20Z"/><path class="cls-84" d="M20,140v80H0V140Z"/><path class="cls-85" d="M20,40v80H0V40Z"/><path class="cls-86" d="M360,160v80H340V160Z"/><path class="cls-87" d="M360,20v80H340V20Z"/><path class="cls-88" d="M340,180V320H320V180Z"/><path class="cls-89" d="M340-60V80H320V-60Z"/><path class="cls-90" d="M320,200V300H300V200Z"/><path class="cls-91" d="M320-40V60H300V-40Z"/><path class="cls-92" d="M280,140h20V120H280Z"/><path class="cls-93" d="M300,220v60H280V220Z"/><path class="cls-94" d="M300-20V40H280V-20Z"/><path class="cls-95" d="M280,100v60H260V100Z"/><path class="cls-96" d="M260,20h20V0H260Z"/><path class="cls-97" d="M260,80V180H240V80Z"/><path class="cls-98" d="M240,60V200H220V60Z"/><path class="cls-99" d="M220,140v80H200V140Z"/><path class="cls-100" d="M220,40v80H200V40Z"/><path class="cls-101" d="M200,160v80H180V160Z"/><path class="cls-102" d="M200,20v80H180V20Z"/><path class="cls-103" d="M180,140v80H160V140Z"/><path class="cls-104" d="M180,40v80H160V40Z"/><path class="cls-105" d="M160,60V200H140V60Z"/><path class="cls-106" d="M140,80V180H120V80Z"/><path class="cls-107" d="M120,100v60H100V100Z"/><path class="cls-108" d="M100,20h20V0H100Z"/><path class="cls-109" d="M80,140h20V120H80Z"/><path class="cls-110" d="M100,220v60H80V220Z"/><path class="cls-111" d="M100-20V40H80V-20Z"/><path class="cls-112" d="M80,200V300H60V200Z"/><path class="cls-113" d="M80-40V60H60V-40Z"/><path class="cls-114" d="M60,180V320H40V180Z"/><path class="cls-115" d="M60-60V80H40V-60Z"/><path class="cls-116" d="M40,160v80H20V160Z"/><path class="cls-117" d="M40,20v80H20V20Z"/><path class="cls-118" d="M20,140v80H0V140Z"/><path class="cls-119" d="M20,40v80H0V40Z"/></g></pattern><radialGradient id="radial-gradient" cx="895" cy="288" r="664.82" gradientTransform="translate(-552.45 106.27) rotate(-45) scale(1 4)" gradientUnits="userSpaceOnUse"><stop offset="0" stop-opacity="0"/><stop offset="1" stop-opacity="0.6"/></radialGradient><radialGradient id="radial-gradient-2" cx="3356.67" cy="288" fx="3272.106859283888" r="210.34" gradientTransform="translate(-3282.23 -576) scale(1 3)" gradientUnits="userSpaceOnUse"><stop offset="0" stop-opacity="0"/><stop offset="1" stop-opacity="0.8"/></radialGradient><radialGradient id="radial-gradient-3" cx="1715.56" fx="1630.99228095441" r="210.34" gradientTransform="translate(0 -576) scale(1 3)" xlink:href="#radial-gradient-2"/></defs><rect class="cls-120" width="1790" height="576"/><rect class="cls-121" width="1790" height="576"/><rect class="cls-122" width="1790" height="576"/><rect class="cls-123" width="148.89" height="576"/><polygon class="cls-124" points="74.44 144 38.44 72 74.44 0 110.44 72 74.44 144"/><polygon class="cls-124" points="74.44 288 38.44 216 74.44 144 110.44 216 74.44 288"/><polygon class="cls-124" points="74.44 432 38.44 360 74.44 288 110.44 360 74.44 432"/><polygon class="cls-124" points="74.44 576 38.44 504 74.44 432 110.44 504 74.44 576"/><line class="cls-125" x1="125.96" x2="125.96" y2="576"/><line class="cls-125" x1="24.09" x2="24.09" y2="576"/><rect class="cls-126" width="148.89" height="576" transform="translate(148.89 576) rotate(180)"/><rect class="cls-123" x="1641.11" width="148.89" height="576"/><polygon class="cls-124" points="1715.56 144 1679.56 72 1715.56 0 1751.56 72 1715.56 144"/><polygon class="cls-124" points="1715.56 288 1679.56 216 1715.56 144 1751.56 216 1715.56 288"/><polygon class="cls-124" points="1715.56 432 1679.56 360 1715.56 288 1751.56 360 1715.56 432"/><polygon class="cls-124" points="1715.56 576 1679.56 504 1715.56 432 1751.56 504 1715.56 576"/><line class="cls-125" x1="1767.07" x2="1767.07" y2="576"/><line class="cls-125" x1="1665.21" x2="1665.21" y2="576"/><rect class="cls-127" x="1641.11" width="148.89" height="576"/><text class="cls-128" transform="translate(300.62 356) scale(0.71 1)">A<tspan class="cls-129" x="160.95" y="0">R</tspan><tspan class="cls-130" x="297.17" y="0">TS &amp; CRAFTS</tspan></text></svg>