<svg id="Layer_1" data-name="Layer 1" xmlns="http://www.w3.org/2000/svg" xmlns:xlink="http://www.w3.org/1999/xlink" viewBox="0 0 1790 576"><defs><style>.cls-1{stroke:#231f20;fill:url(#radial-gradient);}.cls-1,.cls-4,.cls-6{stroke-miterlimit:10;}.cls-2{fill:#323232;}.cls-3{fill:#969696;}.cls-4,.cls-6{fill:none;}.cls-4{stroke:#969696;stroke-width:10px;}.cls-5{fill:#fff;}.cls-6{stroke:#000;stroke-width:4.97px;}</style><radialGradient id="radial-gradient" cx="895" cy="288" r="664.82" gradientTransform="translate(0 144) scale(1 0.5)" gradientUnits="userSpaceOnUse"><stop offset="0.05" stop-color="#f03a40"/><stop offset="0.63" stop-color="#ed0024"/><stop offset="1" stop-color="#9d0b0f"/></radialGradient></defs><rect class="cls-1" width="1790" height="576"/><rect class="cls-2" width="148.89" height="576"/><polygon class="cls-3" points="74.44 144 38.44 72 74.44 0 110.44 72 74.44 144"/><polygon class="cls-3" points="74.44 288 38.44 216 74.44 144 110.44 216 74.44 288"/><polygon class="cls-3" points="74.44 432 38.44 360 74.44 288 110.44 360 74.44 432"/><polygon class="cls-3" points="74.44 576 38.44 504 74.44 432 110.44 504 74.44 576"/><line class="cls-4" x1="125.96" x2="125.96" y2="576"/><line class="cls-4" x1="24.09" x2="24.09" y2="576"/><rect class="cls-2" x="1641.11" width="148.89" height="576"/><polygon class="cls-3" points="1715.56 144 1679.56 72 1715.56 0 1751.56 72 1715.56 144"/><polygon class="cls-3" points="1715.56 288 1679.56 216 1715.56 144 1751.56 216 1715.56 288"/><polygon class="cls-3" points="1715.56 432 1679.56 360 1715.56 288 1751.56 360 1715.56 432"/><polygon class="cls-3" points="1715.56 576 1679.56 504 1715.56 432 1751.56 504 1715.56 576"/><line class="cls-4" x1="1767.07" x2="1767.07" y2="576"/><line class="cls-4" x1="1665.21" x2="1665.21" y2="576"/><path class="cls-5" d="M1788,2V574H2V2H1788m2-2H0V576H1790V0Z"/><path class="cls-5" d="M414.29,356H385.6L378,329.49H337.68L330,356H301.29l41.09-130.76h31ZM371.6,306.75,358,259l-13.74,47.73Z"/><path class="cls-5" d="M516.55,356H486.46l-7.3-23.21q-4-12.74-7.24-18.63t-6.27-7.55a16.44,16.44,0,0,0-7.87-1.65h-3.15v51h-28V225.24h47.65q11.52,0,18.89,6.61a37.65,37.65,0,0,1,10.63,16A55.27,55.27,0,0,1,507,265.81a45.55,45.55,0,0,1-2.72,16.75q-2.71,6.84-5.73,9.95a57.28,57.28,0,0,1-6.77,5.94,31.4,31.4,0,0,1,7.41,8.73q2.91,5,7.94,20.42Zm-38.06-89.44q0-9-4.22-12.64t-13.74-3.58h-5.9v31.51h6q10.26,0,14-3.16T478.49,266.56Z"/><path class="cls-5" d="M612.45,257h-34v99H550.46V257h-34v-31.8h96Z"/><path class="cls-5" d="M693.75,318q0,12.27-4.46,21.23a32.28,32.28,0,0,1-12.43,13.72,35,35,0,0,1-18.3,4.77,60.37,60.37,0,0,1-7.07-.52,59.13,59.13,0,0,1-11.12-2.88,71.62,71.62,0,0,1-14.44-7V315.24a96.08,96.08,0,0,0,13.83,10.19,28,28,0,0,0,14.58,4.06q7.17,0,9.28-3.35a11.86,11.86,0,0,0,2.11-6.27,12.13,12.13,0,0,0-3.62-8.92,48.4,48.4,0,0,0-10.52-7.5,78.61,78.61,0,0,1-13.4-9.86,41.16,41.16,0,0,1-9.42-13.35,45.45,45.45,0,0,1-3.65-19,47.67,47.67,0,0,1,3.69-19.1,30.76,30.76,0,0,1,11.26-13.64q7.56-5.08,18.49-5.09a46.92,46.92,0,0,1,14.38,2.12,50.55,50.55,0,0,1,10.89,4.77,40.69,40.69,0,0,1,5.9,4.15v30.66A75.24,75.24,0,0,0,677,254.87a27.11,27.11,0,0,0-15-4.53c-3.49,0-6,.94-7.58,2.83a10.57,10.57,0,0,0-2.34,7,10.19,10.19,0,0,0,2.34,6.7,41.55,41.55,0,0,0,8.38,6.88A160.17,160.17,0,0,1,680,286.47a41.92,41.92,0,0,1,10.08,13.07Q693.75,306.94,693.75,318Z"/><path class="cls-5" d="M846.48,356H814.91l-6-8.68a34.76,34.76,0,0,1-13.27,7.93,48,48,0,0,1-14.95,2.45q-15.81,0-24.19-9.91a38,38,0,0,1-4.15-41.22q4.22-7.65,16.35-19.34a83,83,0,0,1-5.76-9.82,44.45,44.45,0,0,1-3.39-9.19,39.68,39.68,0,0,1-1.11-9.39,41.25,41.25,0,0,1,3.76-17.5,30.84,30.84,0,0,1,11-13,29.68,29.68,0,0,1,16.95-4.86,26.05,26.05,0,0,1,12.8,3.11,28,28,0,0,1,9.19,8A36.2,36.2,0,0,1,817.49,245a35.29,35.29,0,0,1,1.78,10.7,37.1,37.1,0,0,1-4.86,18.59,44.26,44.26,0,0,1-13.1,14.43l12.46,18.78a75.76,75.76,0,0,0,10.33-18.78h22.38q-8.58,23.11-20,37.74Zm-49.73-27.08L780.4,304.77q-8.91,8-8.91,15.85a17,17,0,0,0,3.15,9.39,10.36,10.36,0,0,0,9.24,4.76A17.27,17.27,0,0,0,796.75,328.92Zm3.89-72.45a15.38,15.38,0,0,0-1-5.28,9.69,9.69,0,0,0-3.22-4.39,8.66,8.66,0,0,0-5.46-1.75,7.78,7.78,0,0,0-6.9,3.35,12.47,12.47,0,0,0-2.28,7.13,13.13,13.13,0,0,0,1.2,5.28,42,42,0,0,0,3.25,5.85c1.37,2.07,2.72,4.09,4.06,6Q800.64,266.37,800.64,256.47Z"/><path class="cls-5" d="M990.43,346.19A57.89,57.89,0,0,1,978.64,353a56.22,56.22,0,0,1-12.17,3.63,72.05,72.05,0,0,1-12.7,1.09A48.79,48.79,0,0,1,932,353a47.1,47.1,0,0,1-16.69-13.91,63.82,63.82,0,0,1-10.59-21.51,98.36,98.36,0,0,1-3.52-27q0-16.89,4.16-29.58A58.53,58.53,0,0,1,917,239.87a47,47,0,0,1,17-12.41,51.53,51.53,0,0,1,20.14-4q15.81,0,35.85,9.91v34.71a93.6,93.6,0,0,0-13.64-10,30.33,30.33,0,0,0-15.85-4,27.46,27.46,0,0,0-15.14,4.53,32.47,32.47,0,0,0-11.33,12.92,42.59,42.59,0,0,0-4.29,19.62,43.21,43.21,0,0,0,3.76,18.16A32.37,32.37,0,0,0,944,322.37a24.9,24.9,0,0,0,15,4.86,35.48,35.48,0,0,0,12.8-2.31A49.25,49.25,0,0,0,982,319.77a87.75,87.75,0,0,0,8.47-6.69Z"/><path class="cls-5" d="M1099.2,356h-30.09l-7.3-23.21q-4-12.74-7.24-18.63t-6.27-7.55a16.47,16.47,0,0,0-7.87-1.65h-3.15v51h-28V225.24h47.65q11.53,0,18.9,6.61a37.54,37.54,0,0,1,10.62,16,55,55,0,0,1,3.26,17.93,45.55,45.55,0,0,1-2.72,16.75q-2.71,6.84-5.73,9.95a58.09,58.09,0,0,1-6.77,5.94,31.74,31.74,0,0,1,7.41,8.73q2.91,5,7.94,20.42Zm-38.06-89.44q0-9-4.23-12.64t-13.74-3.58h-5.89v31.51h6q10.25,0,14-3.16T1061.14,266.56Z"/><path class="cls-5" d="M1213.93,356h-28.68l-7.57-26.51h-40.35l-7.7,26.51h-28.69L1142,225.24h31Zm-42.68-49.25L1157.64,259l-13.74,47.73Z"/><path class="cls-5" d="M1292.81,303.07h-38.53V356h-28V225.24h66.54v26.23h-38.53v25.28h38.53Z"/><path class="cls-5" d="M1400.71,257h-34v99h-28V257h-34v-31.8h96Z"/><path class="cls-5" d="M1482,318q0,12.27-4.45,21.23a32.28,32.28,0,0,1-12.43,13.72,35,35,0,0,1-18.3,4.77,60.37,60.37,0,0,1-7.07-.52,59.39,59.39,0,0,1-11.13-2.88,72.13,72.13,0,0,1-14.44-7V315.24A96.14,96.14,0,0,0,1428,325.43a27.94,27.94,0,0,0,14.58,4.06q7.17,0,9.28-3.35a11.86,11.86,0,0,0,2.11-6.27,12.17,12.17,0,0,0-3.62-8.92,48.4,48.4,0,0,0-10.52-7.5,78.61,78.61,0,0,1-13.4-9.86,41,41,0,0,1-9.42-13.35,45.3,45.3,0,0,1-3.65-19,47.84,47.84,0,0,1,3.68-19.1,30.83,30.83,0,0,1,11.26-13.64q7.58-5.08,18.5-5.09a47,47,0,0,1,14.38,2.12,50.23,50.23,0,0,1,10.88,4.77,40.12,40.12,0,0,1,5.9,4.15v30.66a74.84,74.84,0,0,0-12.7-10.28,27.09,27.09,0,0,0-15-4.53c-3.48,0-6,.94-7.57,2.83a10.57,10.57,0,0,0-2.34,7,10.19,10.19,0,0,0,2.34,6.7,41.26,41.26,0,0,0,8.38,6.88,160.17,160.17,0,0,1,17.16,12.74,42.07,42.07,0,0,1,10.08,13.07Q1482,306.94,1482,318Z"/><path class="cls-6" d="M414.29,356H385.6L378,329.49H337.68L330,356H301.29l41.09-130.76h31ZM371.6,306.75,358,259l-13.74,47.73Z"/><path class="cls-6" d="M516.55,356H486.46l-7.3-23.21q-4-12.74-7.24-18.63t-6.27-7.55a16.44,16.44,0,0,0-7.87-1.65h-3.15v51h-28V225.24h47.65q11.52,0,18.89,6.61a37.65,37.65,0,0,1,10.63,16A55.27,55.27,0,0,1,507,265.81a45.55,45.55,0,0,1-2.72,16.75q-2.71,6.84-5.73,9.95a57.28,57.28,0,0,1-6.77,5.94,31.4,31.4,0,0,1,7.41,8.73q2.91,5,7.94,20.42Zm-38.06-89.44q0-9-4.22-12.64t-13.74-3.58h-5.9v31.51h6q10.26,0,14-3.16T478.49,266.56Z"/><path class="cls-6" d="M612.45,257h-34v99H550.46V257h-34v-31.8h96Z"/><path class="cls-6" d="M693.75,318q0,12.27-4.46,21.23a32.28,32.28,0,0,1-12.43,13.72,35,35,0,0,1-18.3,4.77,60.37,60.37,0,0,1-7.07-.52,59.13,59.13,0,0,1-11.12-2.88,71.62,71.62,0,0,1-14.44-7V315.24a96.08,96.08,0,0,0,13.83,10.19,28,28,0,0,0,14.58,4.06q7.17,0,9.28-3.35a11.86,11.86,0,0,0,2.11-6.27,12.13,12.13,0,0,0-3.62-8.92,48.4,48.4,0,0,0-10.52-7.5,78.61,78.61,0,0,1-13.4-9.86,41.16,41.16,0,0,1-9.42-13.35,45.45,45.45,0,0,1-3.65-19,47.67,47.67,0,0,1,3.69-19.1,30.76,30.76,0,0,1,11.26-13.64q7.56-5.08,18.49-5.09a46.92,46.92,0,0,1,14.38,2.12,50.55,50.55,0,0,1,10.89,4.77,40.69,40.69,0,0,1,5.9,4.15v30.66A75.24,75.24,0,0,0,677,254.87a27.11,27.11,0,0,0-15-4.53c-3.49,0-6,.94-7.58,2.83a10.57,10.57,0,0,0-2.34,7,10.19,10.19,0,0,0,2.34,6.7,41.55,41.55,0,0,0,8.38,6.88A160.17,160.17,0,0,1,680,286.47a41.92,41.92,0,0,1,10.08,13.07Q693.75,306.94,693.75,318Z"/><path class="cls-6" d="M846.48,356H814.91l-6-8.68a34.76,34.76,0,0,1-13.27,7.93,48,48,0,0,1-14.95,2.45q-15.81,0-24.19-9.91a38,38,0,0,1-4.15-41.22q4.22-7.65,16.35-19.34a83,83,0,0,1-5.76-9.82,44.45,44.45,0,0,1-3.39-9.19,39.68,39.68,0,0,1-1.11-9.39,41.25,41.25,0,0,1,3.76-17.5,30.84,30.84,0,0,1,11-13,29.68,29.68,0,0,1,16.95-4.86,26.05,26.05,0,0,1,12.8,3.11,28,28,0,0,1,9.19,8A36.2,36.2,0,0,1,817.49,245a35.29,35.29,0,0,1,1.78,10.7,37.1,37.1,0,0,1-4.86,18.59,44.26,44.26,0,0,1-13.1,14.43l12.46,18.78a75.76,75.76,0,0,0,10.33-18.78h22.38q-8.58,23.11-20,37.74Zm-49.73-27.08L780.4,304.77q-8.91,8-8.91,15.85a17,17,0,0,0,3.15,9.39,10.36,10.36,0,0,0,9.24,4.76A17.27,17.27,0,0,0,796.75,328.92Zm3.89-72.45a15.38,15.38,0,0,0-1-5.28,9.69,9.69,0,0,0-3.22-4.39,8.66,8.66,0,0,0-5.46-1.75,7.78,7.78,0,0,0-6.9,3.35,12.47,12.47,0,0,0-2.28,7.13,13.13,13.13,0,0,0,1.2,5.28,42,42,0,0,0,3.25,5.85c1.37,2.07,2.72,4.09,4.06,6Q800.64,266.37,800.64,256.47Z"/><path class="cls-6" d="M990.43,346.19A57.89,57.89,0,0,1,978.64,353a56.22,56.22,0,0,1-12.17,3.63,72.05,72.05,0,0,1-12.7,1.09A48.79,48.79,0,0,1,932,353a47.1,47.1,0,0,1-16.69-13.91,63.82,63.82,0,0,1-10.59-21.51,98.36,98.36,0,0,1-3.52-27q0-16.89,4.16-29.58A58.53,58.53,0,0,1,917,239.87a47,47,0,0,1,17-12.41,51.53,51.53,0,0,1,20.14-4q15.81,0,35.85,9.91v34.71a93.6,93.6,0,0,0-13.64-10,30.33,30.33,0,0,0-15.85-4,27.46,27.46,0,0,0-15.14,4.53,32.47,32.47,0,0,0-11.33,12.92,42.59,42.59,0,0,0-4.29,19.62,43.21,43.21,0,0,0,3.76,18.16A32.37,32.37,0,0,0,944,322.37a24.9,24.9,0,0,0,15,4.86,35.48,35.48,0,0,0,12.8-2.31A49.25,49.25,0,0,0,982,319.77a87.75,87.75,0,0,0,8.47-6.69Z"/><path class="cls-6" d="M1099.2,356h-30.09l-7.3-23.21q-4-12.74-7.24-18.63t-6.27-7.55a16.47,16.47,0,0,0-7.87-1.65h-3.15v51h-28V225.24h47.65q11.53,0,18.9,6.61a37.54,37.54,0,0,1,10.62,16,55,55,0,0,1,3.26,17.93,45.55,45.55,0,0,1-2.72,16.75q-2.71,6.84-5.73,9.95a58.09,58.09,0,0,1-6.77,5.94,31.74,31.74,0,0,1,7.41,8.73q2.91,5,7.94,20.42Zm-38.06-89.44q0-9-4.23-12.64t-13.74-3.58h-5.89v31.51h6q10.25,0,14-3.16T1061.14,266.56Z"/><path class="cls-6" d="M1213.93,356h-28.68l-7.57-26.51h-40.35l-7.7,26.51h-28.69L1142,225.24h31Zm-42.68-49.25L1157.64,259l-13.74,47.73Z"/><path class="cls-6" d="M1292.81,303.07h-38.53V356h-28V225.24h66.54v26.23h-38.53v25.28h38.53Z"/><path class="cls-6" d="M1400.71,257h-34v99h-28V257h-34v-31.8h96Z"/><path class="cls-6" d="M1482,318q0,12.27-4.45,21.23a32.28,32.28,0,0,1-12.43,13.72,35,35,0,0,1-18.3,4.77,60.37,60.37,0,0,1-7.07-.52,59.39,59.39,0,0,1-11.13-2.88,72.13,72.13,0,0,1-14.44-7V315.24A96.14,96.14,0,0,0,1428,325.43a27.94,27.94,0,0,0,14.58,4.06q7.17,0,9.28-3.35a11.86,11.86,0,0,0,2.11-6.27,12.17,12.17,0,0,0-3.62-8.92,48.4,48.4,0,0,0-10.52-7.5,78.61,78.61,0,0,1-13.4-9.86,41,41,0,0,1-9.42-13.35,45.3,45.3,0,0,1-3.65-19,47.84,47.84,0,0,1,3.68-19.1,30.83,30.83,0,0,1,11.26-13.64q7.58-5.08,18.5-5.09a47,47,0,0,1,14.38,2.12,50.23,50.23,0,0,1,10.88,4.77,40.12,40.12,0,0,1,5.9,4.15v30.66a74.84,74.84,0,0,0-12.7-10.28,27.09,27.09,0,0,0-15-4.53c-3.48,0-6,.94-7.57,2.83a10.57,10.57,0,0,0-2.34,7,10.19,10.19,0,0,0,2.34,6.7,41.26,41.26,0,0,0,8.38,6.88,160.17,160.17,0,0,1,17.16,12.74,42.07,42.07,0,0,1,10.08,13.07Q1482,306.94,1482,318Z"/></svg>