<svg id="Layer_1" data-name="Layer 1" xmlns="http://www.w3.org/2000/svg" xmlns:xlink="http://www.w3.org/1999/xlink" viewBox="0 0 1790 576"><defs><style>.cls-1{stroke:#231f20;fill:url(#radial-gradient);}.cls-1,.cls-4,.cls-6{stroke-miterlimit:10;}.cls-2{fill:#323232;}.cls-3{fill:#969696;}.cls-4{fill:none;stroke:#969696;stroke-width:10px;}.cls-5,.cls-6{fill:#fff;}.cls-6{font-size:193.21px;stroke:#000;stroke-width:4.97px;font-family:GillSans-Bold, Gill Sans;font-weight:700;}.cls-7{letter-spacing:-0.04em;}.cls-8{letter-spacing:0em;}</style><radialGradient id="radial-gradient" cx="895" cy="288" r="664.82" gradientTransform="translate(0 144) scale(1 0.5)" gradientUnits="userSpaceOnUse"><stop offset="0.05" stop-color="#f03a40"/><stop offset="0.63" stop-color="#ed0024"/><stop offset="1" stop-color="#9d0b0f"/></radialGradient></defs><rect class="cls-1" width="1790" height="576"/><rect class="cls-2" width="148.89" height="576"/><polygon class="cls-3" points="74.44 144 38.44 72 74.44 0 110.44 72 74.44 144"/><polygon class="cls-3" points="74.44 288 38.44 216 74.44 144 110.44 216 74.44 288"/><polygon class="cls-3" points="74.44 432 38.44 360 74.44 288 110.44 360 74.44 432"/><polygon class="cls-3" points="74.44 576 38.44 504 74.44 432 110.44 504 74.44 576"/><line class="cls-4" x1="125.96" x2="125.96" y2="576"/><line class="cls-4" x1="24.09" x2="24.09" y2="576"/><rect class="cls-2" x="1641.11" width="148.89" height="576"/><polygon class="cls-3" points="1715.56 144 1679.56 72 1715.56 0 1751.56 72 1715.56 144"/><polygon class="cls-3" points="1715.56 288 1679.56 216 1715.56 144 1751.56 216 1715.56 288"/><polygon class="cls-3" points="1715.56 432 1679.56 360 1715.56 288 1751.56 360 1715.56 432"/><polygon class="cls-3" points="1715.56 576 1679.56 504 1715.56 432 1751.56 504 1715.56 576"/><line class="cls-4" x1="1767.07" x2="1767.07" y2="576"/><line class="cls-4" x1="1665.21" x2="1665.21" y2="576"/><path class="cls-5" d="M1788,2V574H2V2H1788m2-2H0V576H1790V0Z"/><text class="cls-6" transform="translate(300.62 356) scale(0.71 1)">A<tspan class="cls-7" x="160.95" y="0">R</tspan><tspan class="cls-8" x="297.17" y="0">TS &amp; CRAFTS</tspan></text></svg>