<svg xmlns="http://www.w3.org/2000/svg" xmlns:xlink="http://www.w3.org/1999/xlink" id="Layer_1" data-name="Layer 1" viewBox="0 0 1790 510"><defs><style>.cls-1{opacity:.4}.cls-2{fill:url(#linear-gradient)}.cls-3{fill:url(#linear-gradient-2)}.cls-4{fill:#4d4d4d}.cls-5{fill:#fff}.cls-6{fill:#fbac00}.cls-7{fill:#fc0202}.cls-8{fill:#fe6000}.cls-9{fill:url(#linear-gradient-3)}.cls-10{fill:url(#linear-gradient-4)}.cls-11{fill:url(#linear-gradient-5)}.cls-12{fill:url(#linear-gradient-6)}.cls-13{fill:url(#linear-gradient-7)}.cls-14{fill:url(#linear-gradient-8)}.cls-15{fill:url(#linear-gradient-9)}.cls-16{fill:gray}.cls-17{fill:#ccc}.cls-18{fill:#f2f2f2}.cls-19{fill:#e6e6e6}.cls-20{fill:url(#New_Gradient_Swatch)}</style><linearGradient id="linear-gradient" x1="269.65" x2="269.65" y1="502.36" y2="341.19" gradientUnits="userSpaceOnUse"><stop offset="0" stop-opacity=".2"/><stop offset=".28"/></linearGradient><linearGradient id="linear-gradient-2" x1="992.77" x2="992.77" y1="506.73" y2="334.73" xlink:href="#linear-gradient"/><linearGradient id="linear-gradient-3" x1="163.5" x2="163.5" y1="36" y2="75" gradientUnits="userSpaceOnUse"><stop offset="0" stop-color="#fe6000"/><stop offset="1" stop-color="#fbac00"/></linearGradient><linearGradient id="linear-gradient-4" x1="743.5" x2="743.5" xlink:href="#linear-gradient-3"/><linearGradient id="linear-gradient-5" x1="1321.5" x2="1321.5" xlink:href="#linear-gradient-3"/><linearGradient id="linear-gradient-6" x1="459" x2="459" y1="22" y2="87" xlink:href="#linear-gradient-3"/><linearGradient id="linear-gradient-7" x1="1039" x2="1039" y1="22" y2="87" xlink:href="#linear-gradient-3"/><linearGradient id="linear-gradient-8" x1="1617" x2="1617" y1="22" y2="87" xlink:href="#linear-gradient-3"/><linearGradient id="linear-gradient-9" x1="895" x2="895" y1="348.5" y2="406.5" gradientUnits="userSpaceOnUse"><stop offset="0" stop-color="#fbc800"/><stop offset="1" stop-color="#fe6000"/></linearGradient><linearGradient id="New_Gradient_Swatch" x1="894.81" x2="894.81" y1="354.73" y2="486.73" gradientUnits="userSpaceOnUse"><stop offset="0" stop-color="#12d6df"/><stop offset="1" stop-color="#f70fff"/></linearGradient></defs><g class="cls-1"><path d="M364.15,462.08c-2.51-5.21-5.26-11-8.38-17.68-3.54-7.56-7.17-15.25-10.81-22.85s-7.17-15.11-10.63-22.57-6.47-14.09-9.05-19.83c-1.4-3.12-2.63-5.87-3.72-8.28a19.88,19.88,0,0,0,1.23-6.92v-2.76a20,20,0,0,0-20-20h-69.2a20,20,0,0,0-20,20V364a19.9,19.9,0,0,0,1.42,7.41l-1.64,3.78c-2.07,4.81-4.44,10.23-7.23,16.57s-5.65,12.88-8.4,19.24-5.54,12.68-8.38,19-5.4,12-7.7,17.2c-2.4,5.36-4.28,9.69-5.76,13.21-.26.64-.5,1.21-.71,1.71a20,20,0,0,0-10.38,17.53v2.77a20,20,0,0,0,20,20h46.93a20,20,0,0,0,20-20v-2.77a20,20,0,0,0-.31-3.49h31.14a19.12,19.12,0,0,0-.31,3.49v2.77a20,20,0,0,0,20,20h52.23a20,20,0,0,0,20-20v-2.77A20,20,0,0,0,364.15,462.08Z" class="cls-2"/><path d="M1616.21,413.81a54.32,54.32,0,0,0-10.89-11.16l14.73-25.78a20,20,0,0,0-11.32-29l-2.92-.93a20,20,0,0,0-16.2,1.84l-1-.23c-4.35-1.07-9.53-2.21-15.88-3.52s-13.92-2.52-22.15-3.58a219.74,219.74,0,0,0-27.74-1.66,133.72,133.72,0,0,0-31.2,3.44,91.48,91.48,0,0,0-26,10.29,59.7,59.7,0,0,0-19.38,18.41c-.26.39-.51.79-.75,1.18V354.73a20,20,0,0,0-20-20h-3.18a20,20,0,0,0-14.71,6.46H1285.33a19.89,19.89,0,0,0-11.7,3.78,20,20,0,0,0-17.46-10.24H1253a20,20,0,0,0-14.71,6.46h-111.1a20,20,0,0,0-14.71-6.46h-3.18a20,20,0,0,0-18.15,11.6,19.94,19.94,0,0,0-13.4-5.14h-54.62a19.93,19.93,0,0,0-15.5,7.37,20,20,0,0,0-15.51-7.37h-45.6a20,20,0,0,0-20,20V364a19.89,19.89,0,0,0,.81,5.65c-.14.25-.27.51-.41.77-2.64,4.9-6.34,11.92-11,20.85-.44.86-.9,1.74-1.38,2.65l-2-3.66-10.71-19.94a20.07,20.07,0,0,0,1-6.32v-2.76a20,20,0,0,0-20-20H828.53a19.94,19.94,0,0,0-15.38,7.21,20,20,0,0,0-15.38-7.21H743.15a19.93,19.93,0,0,0-13.77,5.49,20,20,0,0,0-18.31-11.95h-3.18a20,20,0,0,0-14.71,6.46H582.09a20,20,0,0,0-14.71-6.46h-3.19a20,20,0,0,0-19,13.73l-.25-.06-2.91-.69a20.17,20.17,0,0,0-4.62-.54,19.86,19.86,0,0,0-6.14,1c-3-.86-6.79-1.83-11.45-2.95l-.17,0c-6-1.39-13-2.59-21.42-3.68a236.33,236.33,0,0,0-30-1.67,149.78,149.78,0,0,0-36.4,4.52,118.93,118.93,0,0,0-33.77,14,84.55,84.55,0,0,0-26.31,25.34c-7.3,11-11,23.85-11,38.09s3.71,27.07,11,38.11a84.6,84.6,0,0,0,26.31,25.32A112.06,112.06,0,0,0,432.22,499a161.83,161.83,0,0,0,36,4.07,209.47,209.47,0,0,0,29.64-1.93c8.57-1.25,16.22-2.69,22.74-4.3,6.19-1.52,11.26-3,15.46-4.4A20.08,20.08,0,0,0,550.43,491l3.18-1.62a20,20,0,0,0,6.93-29.89l-27.31-36.17a19.69,19.69,0,0,0-2.85-3.05,19.51,19.51,0,0,0,3-3.75l11-17.58a20,20,0,0,0,19.74,16.81h3.19a20,20,0,0,0,14.71-6.45h15.66V464a20,20,0,0,0-7.42,15.55v2.77a20,20,0,0,0,20,20h54.61a20,20,0,0,0,20-20v-2.77A20,20,0,0,0,677.52,464V409.29h15.66a20,20,0,0,0,14.71,6.45h3.18a20,20,0,0,0,19.5-15.54V464a20,20,0,0,0-7.42,15.55v2.77a20,20,0,0,0,20,20h54.62a20,20,0,0,0,20-20v-2.77A20,20,0,0,0,810.34,464V379.5a19.82,19.82,0,0,0,2.81-2.76,20,20,0,0,0,4.1,3.73c.76,1.61,1.81,3.79,3.21,6.7,1.88,3.89,4.21,8.58,6.94,13.94s5.66,11.09,8.82,17.19c3.06,5.91,6.16,12.06,9.22,18.28,3.2,6.52,6.34,12.76,9.32,18.55s5.47,10.78,7.57,15.15q1.17,2.46,2.18,4.54a20.29,20.29,0,0,0-.57,4.77v2.77a20,20,0,0,0,20,20h54.61a20,20,0,0,0,20-20v-3a19.82,19.82,0,0,0-.65-5.08q1.23-2.62,2.76-5.76c2.62-5.41,5.37-11,8.17-16.73,3-6,6.07-12.33,9.52-19.3,3.11-6.28,6.26-12.7,9.61-19.6,3-6.28,5.88-12.1,8.45-17.32s4.67-9.49,6.42-13c.51-1,.94-1.89,1.32-2.66a20.71,20.71,0,0,0,3.47-3.34,19.73,19.73,0,0,0,2.93,2.92V464a20,20,0,0,0-7.43,15.55v2.77a20,20,0,0,0,20,20h54.62a20,20,0,0,0,20-20v-2.77a20,20,0,0,0-7.42-15.55v-62a20,20,0,0,0,19,13.66h3.18a19.94,19.94,0,0,0,14.71-6.45h15.67V464a20,20,0,0,0-7.43,15.55v2.77a20,20,0,0,0,20,20H1210a20,20,0,0,0,20-20v-2.77a20,20,0,0,0-7.42-15.55V409.29h15.66a19.94,19.94,0,0,0,14.71,6.45h3.18a20,20,0,0,0,16.59-8.82V464a20,20,0,0,0-7.43,15.55v2.77a20,20,0,0,0,20,20h124.58a20,20,0,0,0,12.49,4.37h3.18A20,20,0,0,0,1444.21,494a19.29,19.29,0,0,0,3.11.95l3.18.69a19.75,19.75,0,0,0,4.25.46,20,20,0,0,0,8.24-1.78c3.57,1.1,7.93,2.23,13.26,3.46a207.1,207.1,0,0,0,22.75,3.72,279.28,279.28,0,0,0,31,1.51c16,0,29.3-1.31,40.57-4,12.14-2.9,21.84-6.91,29.69-12.26,8.64-5.89,15-13,18.92-21a53.82,53.82,0,0,0,5.59-23.71C1624.81,431.16,1621.92,421.66,1616.21,413.81Zm-1113.63,7A20,20,0,0,0,496,429c-1.18.34-2.42.67-3.7,1a125.08,125.08,0,0,1-12.8,2.49,70,70,0,0,1-8.1.84,72.35,72.35,0,0,1-13.07-1.28,39.14,39.14,0,0,1-10.66-3.48,14.08,14.08,0,0,1-5-4,7,7,0,0,1,0-5.53,14.32,14.32,0,0,1,5-4,39.88,39.88,0,0,1,10.65-3.48,72.8,72.8,0,0,1,13.08-1.28,101.38,101.38,0,0,1,13.5.86,104.59,104.59,0,0,1,10.95,2A20,20,0,0,0,502.58,420.81Zm923,6.53h-3.18a19.94,19.94,0,0,0-9.43,2.36V412.46a19.94,19.94,0,0,0,9.43,2.36h3.18a19.93,19.93,0,0,0,14-5.73,39.63,39.63,0,0,0,11.8,20.38l-6.34,13.26A20,20,0,0,0,1425.58,427.34Z" class="cls-3"/></g><rect width="1785" height="426" x="2.5" y="3" class="cls-4"/><path d="M1787.5,3V429H2.5V3h1785m0-3H2.5a3,3,0,0,0-3,3V429a3,3,0,0,0,3,3h1785a3,3,0,0,0,3-3V3a3,3,0,0,0-3-3Z" class="cls-5"/><path d="M197,176.81l34.88-13.36a6,6,0,0,0,3.46-7.75l-3.92-10.23a6,6,0,0,0-7.75-3.45L188.6,155.47a14.38,14.38,0,0,0-13.33-9h-63a14.37,14.37,0,0,0-13.36,9.08L49.64,280.11a14.37,14.37,0,0,0,9.5,19.13l54,15.06a14.35,14.35,0,0,0,17.65-9.83l4.56-15.65h16.46l4,15.29a14.37,14.37,0,0,0,17.71,10.2l54.75-15.06a14.37,14.37,0,0,0,9.56-19.14Z" class="cls-6"/><path d="M716.75,174.72a14.37,14.37,0,0,0-13.36-9.09H649a14.37,14.37,0,0,0-13.37,9.09L593.16,282.18a14.36,14.36,0,0,0,9.51,19.13l46.61,13a14.35,14.35,0,0,0,17.65-9.83l3.52-12.08h11.2l3.08,11.72a14.37,14.37,0,0,0,17.71,10.2l47.24-13a14.36,14.36,0,0,0,9.55-19.14Z" class="cls-6"/><path d="M1038.91,165.63H989.64a14.34,14.34,0,0,0-6.87,1.75,14.71,14.71,0,0,0-.79-2,14.41,14.41,0,0,0-9.1-7.47l-55.43-15A14.35,14.35,0,0,0,900,152.34L889.12,186.2l-10.29-33.67a14.39,14.39,0,0,0-17.39-9.7L804,157.89a14.36,14.36,0,0,0-9.69,19.28L845.12,303.1a14.39,14.39,0,0,0,13.33,9h60a14.37,14.37,0,0,0,13.33-9L975.27,195V297.71a14.37,14.37,0,0,0,14.37,14.38h49.27a14.38,14.38,0,0,0,14.38-14.38V180A14.38,14.38,0,0,0,1038.91,165.63Z" class="cls-6"/><path d="M457.39,306.78a14.28,14.28,0,0,0,3.23-9.07V180a14.37,14.37,0,0,0-14.37-14.37H397a14.38,14.38,0,0,0-14,11.17,14.7,14.7,0,0,0-2.67-1.06l-44.24-12.32a14.38,14.38,0,0,0-16.47,7L313.8,181l-5.36-10.31A14.38,14.38,0,0,0,292,163.37l-46.54,12.32a14.36,14.36,0,0,0-8.75,21.1l37.77,65.13.18,34.5a14.38,14.38,0,0,0,14.38,14.3h47.7a14.37,14.37,0,0,0,14.37-14.37V260.59l31.48-53.2v90.32a14.28,14.28,0,0,0,3.23,9.07,6,6,0,0,0-5.81,6v11a6,6,0,0,0,6,6H457.2a6,6,0,0,0,6-6v-11A6,6,0,0,0,457.39,306.78Z" class="cls-6"/><path d="M592.63,186.76C568.1,163,519.9,164.47,491.1,165.37c-4.55.14-8.49.26-11.62.26a14.39,14.39,0,0,0-10.19,4.23c-4.21,4.22-4.24,8.1-4.3,15.14,0,3.23,0,7.82-.05,13.32,0,10.94,0,25.48,0,40,.05,29,.14,58,.14,58a14.38,14.38,0,0,0,14.38,14.33h46.77a14.37,14.37,0,0,0,14.37-14.37V283.51c2.73-.31,5.7-.73,8.83-1.31,18.11-3.34,32.36-10,42.38-19.78,10.33-10.09,15.79-23.47,15.79-38.69C607.62,208.84,602.58,196.4,592.63,186.76Z" class="cls-6"/><path d="M1717.1,254.4a14.31,14.31,0,0,0,.44-3.54V226.54a14.7,14.7,0,0,0-.58-4.06,14.35,14.35,0,0,0,2.6-8.26V180a14.37,14.37,0,0,0-14.37-14.37H1604.25A14.38,14.38,0,0,0,1589.88,180V297.71a14.38,14.38,0,0,0,14.37,14.38h102.31a14.37,14.37,0,0,0,14.37-14.38V264.17A14.29,14.29,0,0,0,1717.1,254.4Z" class="cls-6"/><path d="M1582.13,223.39a14.45,14.45,0,0,0,1-7.84l-5.8-39a14.39,14.39,0,0,0-13.47-12.24,208.49,208.49,0,0,0-36.46,2c-27.76,4-49.08,12.86-63.37,26.42-13.23,12.56-19.94,28.55-19.94,47.52a73.94,73.94,0,0,0,.75,10.53l-30.06-76a14.37,14.37,0,0,0-13.37-9.09H1347.1a14.37,14.37,0,0,0-13.37,9.09L1304.36,249a14.32,14.32,0,0,0-10.86-5h-34.9V180a14.38,14.38,0,0,0-14.37-14.37H1195A14.37,14.37,0,0,0,1180.58,180v68.31a14.34,14.34,0,0,0-10.27-4.32h-34.9V180A14.37,14.37,0,0,0,1121,165.63h-49.28A14.38,14.38,0,0,0,1057.39,180V297.71a14.38,14.38,0,0,0,14.37,14.38h98.55a14.34,14.34,0,0,0,12.32-7,14.34,14.34,0,0,0,12.32,7h98.55a14.36,14.36,0,0,0,13.35-9.08l40.48,11.29a14.36,14.36,0,0,0,17.66-9.83l3.52-12.08h11.2l3.08,11.72a14.37,14.37,0,0,0,17.71,10.2l47.24-13a14.36,14.36,0,0,0,9.55-19.14l-1.34-3.39a65.49,65.49,0,0,0,13,13.44c22.45,17.53,56.06,22,80.79,22,13.41,0,24.21-1.31,29.21-2.56a14.38,14.38,0,0,0,10.88-14V236.12A14.36,14.36,0,0,0,1582.13,223.39Z" class="cls-6"/><path d="M109,156.05,56.59,288.58l63.71,17.76,7.89-27.1h31l7.13,27.12,64.57-17.76-52.4-132.55Zm30.31,82.12,4.16-14.91,3.72,14.91Z" class="cls-5"/><path d="M645.78,175.21,600.11,290.65l56.3,15.69,6.85-23.53H689l6.19,23.55,57.06-15.69L706.64,175.21Zm27.46,70.85,2.69-9.63,2.4,9.63Z" class="cls-5"/><path d="M1343.84,175.21l-45.55,115.14V253.57H1249V175.21h-58.86v127.3h108.13V290.68l56.18,15.66,6.85-23.53h25.77l6.2,23.55,57.06-15.69L1404.7,175.21Zm27.46,70.85,2.69-9.63,2.4,9.63Z" class="cls-5"/><polygon points="329.82 171.63 313.59 201.31 298.17 171.65 241.86 186.56 284.06 259.32 284.28 301.14 341.54 301.14 341.54 257.96 383.75 186.65 329.82 171.63" class="cls-5"/><rect width="58.86" height="127.29" x="392.18" y="175.21" class="cls-5"/><rect width="58.86" height="127.29" x="984.85" y="175.21" class="cls-5"/><polygon points="1125.83 175.21 1066.97 175.21 1066.97 302.51 1175.1 302.51 1175.1 253.57 1125.83 253.57 1125.83 175.21" class="cls-5"/><path d="M491.4,174.94c-4.64.15-8.64.27-11.92.27h-2l-1.4,1.41c-1.45,1.46-1.45,1.85-1.5,8.45,0,3.22-.05,7.79-.05,13.26,0,10.93,0,25.47,0,40,0,29.05.15,58,.15,58v4.78H531V274.69c11-.47,37.87-3.28,54.09-19.12C593.7,247.2,598,236.49,598,223.73c0-12.2-4.06-22.32-12.08-30.09C564.34,172.67,518.68,174.09,491.4,174.94Zm44.2,62.36a12.23,12.23,0,0,1-6.54,2.55V217.63a12.23,12.23,0,0,1,6.54,2.55c2.06,1.81,3.07,4.61,3.07,8.56S537.66,235.49,535.6,237.3Z" class="cls-5"/><polygon points="888.89 218.24 868.32 150.94 801.12 168.54 855.22 302.51 921.67 302.51 975.56 168.58 910.52 150.91 888.89 218.24" class="cls-5"/><polygon points="1654.16 259.38 1654.16 255.65 1707.96 255.65 1707.96 221.75 1654.16 221.75 1654.16 219.01 1709.98 219.01 1709.98 175.21 1599.46 175.21 1599.46 302.51 1711.35 302.51 1711.35 259.38 1654.16 259.38" class="cls-5"/><path d="M1525.5,260a25.18,25.18,0,0,1-4-1.94c-5.63-3.44-8.37-8.37-8.37-15.08a11.89,11.89,0,0,1,4-8.88c11-10.59,41-12,51.65-11.63l5.75.19-7.23-48.59-3.91-.2a196.49,196.49,0,0,0-34.6,1.93c-25.76,3.68-45.32,11.72-58.13,23.87-11.26,10.69-17,24.34-17,40.58,0,18.54,7.11,33.49,21.14,44.45,20.41,15.93,51.94,20,75,20,12.41,0,22.35-1.17,26.79-2.28l3.63-.9V231.33H1525.5Z" class="cls-5"/><path d="M228.66,146.55a3,3,0,0,0-3.88-1.73l-36.53,14a3,3,0,0,0-1.73,3.87l3.92,10.23a3,3,0,0,0,1.58,1.66,2.88,2.88,0,0,0,1.22.26,3,3,0,0,0,1.07-.19l36.54-14a3,3,0,0,0,1.66-1.58,3,3,0,0,0,.06-2.3Z" class="cls-5"/><rect width="77.17" height="16.95" x="383.02" y="309.77" class="cls-5" rx="3"/><path d="M112.27,160.84h63L224.51,285.4l-54.75,15.05-6.84-26H124.59l-7.57,26L63,285.4ZM133,243h20.32l-9.58-38.48Z" class="cls-7"/><path d="M649,180h54.35l42.48,107.46-47.24,13L692.73,278H659.66l-6.53,22.43-46.6-13Zm17.89,70.86h17.53l-8.26-33.2Z" class="cls-7"/><path d="M1347.1,180h54.34l42.49,107.46-47.24,13-5.9-22.43h-33.07l-6.53,22.43-46.61-13ZM1365,250.86h17.53l-8.26-33.2Z" class="cls-7"/><polygon points="249.15 189.58 295.69 177.27 313.48 211.48 332.2 177.27 376.44 189.58 336.75 256.65 336.75 296.35 289.05 296.35 288.84 258.02 249.15 189.58" class="cls-7"/><rect width="49.27" height="117.71" x="396.97" y="180" class="cls-7"/><rect width="49.27" height="117.71" x="989.64" y="180" class="cls-7"/><polygon points="1170.31 297.71 1071.76 297.71 1071.76 180 1121.04 180 1121.04 258.36 1170.31 258.36 1170.31 297.71" class="cls-7"/><polygon points="1293.5 297.71 1194.95 297.71 1194.95 180 1244.22 180 1244.22 258.36 1293.5 258.36 1293.5 297.71" class="cls-7"/><rect width="71.17" height="10.95" x="386.02" y="312.77" class="cls-7"/><rect width="39.12" height="10.95" x="189.99" y="154.26" class="cls-7" transform="translate(-43.28 85.56) rotate(-20.97)"/><path d="M593.25,223.73c0,47.83-67,46.25-67,46.25v26.37H479.48S479.1,180,479.48,180C508.6,180,593.25,170.42,593.25,223.73Zm-69-10.88v31.78s19.19,2.73,19.19-15.89S524.27,212.85,524.27,212.85Z" class="cls-7"/><polygon points="865.08 156.74 888.78 234.26 913.68 156.74 969.11 171.79 918.43 297.71 858.45 297.71 807.6 171.79 865.08 156.74" class="cls-7"/><polygon points="1705.19 180 1604.25 180 1604.25 297.71 1706.56 297.71 1706.56 264.17 1649.37 264.17 1649.37 250.86 1703.17 250.86 1703.17 226.54 1649.37 226.54 1649.37 214.22 1705.19 214.22 1705.19 180" class="cls-7"/><path d="M1563.14,178.63l5.8,39s-60.55-2.07-60.55,25.31c0,20.53,21.9,23.26,21.9,23.26V236.12h45.17v61.6c-16.42,4.1-117,9.58-117-57.49S1563.14,178.63,1563.14,178.63Z" class="cls-7"/><g class="cls-1"><path d="M173.23,163.84l47.26,119.55-48.6,13.37-6.07-23.08-.59-2.23H122.34l-.63,2.16L115,296.77,67,283.4l47.29-119.56h58.92M129.07,246h28.11l-.93-3.73-9.58-38.48-2.75-11-3,10.94-10.74,38.48L129.07,246m46.2-85.13h-63L63,285.4l54,15.05,7.57-26h38.33l6.84,26,54.75-15.05L175.27,160.84ZM133,243l10.74-38.48L153.34,243Z"/><path d="M701.35,183l40.5,102.46-41.09,11.3-5.13-19.51L695,275H657.41l-.63,2.16-5.7,19.59-40.54-11.3L651.08,183h50.27M663,253.86H688.3l-.93-3.73-8.26-33.2-2.75-11-3.05,10.94L664,250.05,663,253.86M703.39,180H649L606.53,287.46l46.6,13L659.66,278h33.07l5.9,22.43,47.24-13L703.39,180Zm-36.46,70.86,9.27-33.2,8.26,33.2Z"/><path d="M1399.4,183l40.51,102.46-41.09,11.3-5.13-19.51-.59-2.23h-37.63l-.63,2.16-5.7,19.59-40.54-11.3L1349.14,183h50.26M1361,253.86h25.32l-.93-3.73-8.26-33.2-2.75-11-3.05,10.94-9.27,33.2-1.06,3.81m40.4-73.86H1347.1l-42.52,107.46,46.61,13,6.53-22.43h33.07l5.9,22.43,47.24-13L1401.44,180ZM1365,250.86l9.27-33.2,8.26,33.2Z"/><path d="M294.13,180.78l16.69,32.09,2.59,5,2.7-4.94,17.58-32.13,38.18,10.63-37.7,63.7-.42.71v37.52H292L291.84,258v-.8l-.4-.69-37.72-65,40.41-10.7m38.07-3.51-18.72,34.21-17.79-34.21-46.54,12.31L288.84,258l.21,38.33h47.7v-39.7l39.69-67.07L332.2,177.27Z"/><path d="M443.25,183V294.72H400V183h43.28m3-3H397V297.72h49.28V180Z"/><path d="M1035.91,183V294.72H992.64V183h43.27m3-3H989.64V297.72h49.27V180Z"/><path d="M1118,183v78.36h49.27v33.36h-92.55V183H1118m3-3h-49.28V297.72h98.55V258.36H1121V180Z"/><path d="M1241.23,183v78.36h49.27v33.36H1198V183h43.28m3-3H1195V297.72h98.55V258.36h-49.27V180Z"/><path d="M454.2,315.77v5H389v-5H454.2m3-3H386v11H457.2v-11Z"/><path d="M224.13,151.49l1.77,4.63L195,168l-1.77-4.62,30.93-11.86m1.72-3.87-36.53,14,3.92,10.22,36.53-14-3.92-10.22Z"/><path d="M511.64,182.33c53.63,0,78.61,13.16,78.61,41.4,0,17.46-9.57,30-28.45,37.15-15.28,5.81-31.68,6.1-34.81,6.1h-.67l-3.07-.07v26.44H482.47c-.13-40.49-.24-97.37-.09-110.37,2.75,0,5.84-.14,9.27-.25,6-.19,12.77-.4,20-.4h0m15.15,65.44c12.31,0,19.67-7.12,19.67-19s-7.36-19-19.67-19a24.45,24.45,0,0,0-2.95.17l-2.57.37v37l2.57.37a24.45,24.45,0,0,0,2.95.17m-15.16-68.44c-12.87,0-24.45.67-32.15.67-.38,0,0,116.35,0,116.35h46.77V270H527c7.31,0,66.26-1.39,66.26-46.25,0-39.21-45.8-44.4-81.62-44.4Zm15.16,65.44a19.89,19.89,0,0,1-2.52-.14V212.85a19.89,19.89,0,0,1,2.52-.14c5.21,0,16.67,1.64,16.67,16s-11.47,16-16.67,16Z"/><path d="M863.06,160.37l22.85,74.76,2.8,9.16,2.93-9.11,24-74.8,49.4,13.42L916.41,294.72H860.47L811.65,173.83l51.41-13.46m50.62-3.64-24.9,77.53-23.7-77.53L807.6,171.79l50.85,125.93h60l50.68-125.93-55.43-15.06Z"/><path d="M1702.19,183v28.22h-55.82v18.32h53.8v18.32h-53.8v19.31h57.19v27.55h-96.31V183h94.94m3-3H1604.25V297.72h102.31V264.17h-57.19V250.86h53.8V226.54h-53.8V214.22h55.82V180Z"/><path d="M1557.54,178.53v3h0l3,0,4.92,33.08c-6.2,0-20.58.49-33.48,3.84-12.13,3.16-26.59,10-26.59,24.5a24.32,24.32,0,0,0,12.42,21.91,34.56,34.56,0,0,0,12.11,4.33l3.37.42V239.12h39.17v56.16a144.35,144.35,0,0,1-22.9,1.62c-30.1,0-48.93-6.77-57.48-10.81-20.3-9.59-30.59-25-30.59-45.86,0-23.2,13.26-39.91,39.43-49.66,21.89-8.16,46.89-9,56.62-9v-3m0,0c-21.72,0-99,4-99,61.7,0,50,55.81,59.67,91.07,59.67,12.06,0,21.71-1.14,25.9-2.18v-61.6h-45.17v30.11s-21.9-2.73-21.9-23.26c0-23.79,45.7-25.35,57.69-25.35,1.82,0,2.86,0,2.86,0l-5.8-39s-2.06-.1-5.6-.1Z"/></g><rect width="71.17" height="10.95" x="386.02" y="312.77" class="cls-7"/><rect width="39.12" height="10.95" x="189.99" y="154.26" class="cls-7" transform="translate(-43.28 85.56) rotate(-20.97)"/><path d="M1616.24,105c-37,0-55.7-14.5-73.79-28.52C1524.21,62.35,1507,49,1471.71,49S1419.22,62.35,1401,76.48c-18.09,14-36.8,28.52-73.79,28.52s-55.7-14.5-73.79-28.52S1217.94,49,1182.67,49s-52.5,13.35-70.73,27.48S1075.13,105,1038.15,105s-55.7-14.5-73.8-28.52S928.9,49,893.62,49,841.13,62.35,822.9,76.48,786.09,105,749.1,105s-55.69-14.5-73.79-28.52S639.86,49,604.59,49s-52.5,13.35-70.73,27.48S497.05,105,460.06,105s-55.69-14.5-73.79-28.52S350.82,49,315.54,49s-52.49,13.35-70.73,27.48C226.72,90.5,208,105,171,105s-55.7-14.5-73.79-28.52S61.77,49,26.5,49V44c37,0,55.7,14.5,73.79,28.52S135.75,100,171,100s52.5-13.35,70.73-27.48S278.56,44,315.54,44s55.7,14.5,73.79,28.52C407.57,86.65,424.79,100,460.06,100s52.5-13.35,70.73-27.48S567.6,44,604.59,44s55.69,14.5,73.79,28.52S713.83,100,749.1,100s52.5-13.35,70.73-27.48S856.64,44,893.62,44s55.7,14.5,73.8,28.52S1002.87,100,1038.15,100s52.49-13.35,70.73-27.48C1127,58.5,1145.68,44,1182.67,44s55.7,14.5,73.79,28.52S1291.92,100,1327.19,100s52.5-13.35,70.73-27.48S1434.73,44,1471.71,44s55.71,14.5,73.8,28.52S1581,100,1616.24,100s52.5-13.35,70.74-27.48c18.09-14,36.81-28.52,73.79-28.52v5c-35.27,0-52.5,13.35-70.73,27.48S1653.23,105,1616.24,105Z" class="cls-7"/><path d="M1616.24,125c-37,0-55.7-14.5-73.79-28.52C1524.21,82.35,1507,69,1471.71,69S1419.22,82.35,1401,96.48c-18.09,14-36.8,28.52-73.79,28.52s-55.7-14.5-73.79-28.52S1217.94,69,1182.67,69s-52.5,13.35-70.73,27.48S1075.13,125,1038.15,125s-55.7-14.5-73.8-28.52S928.9,69,893.62,69,841.13,82.35,822.9,96.48,786.09,125,749.1,125s-55.69-14.5-73.79-28.52S639.86,69,604.59,69s-52.5,13.35-70.73,27.48S497.05,125,460.06,125s-55.69-14.5-73.79-28.52S350.82,69,315.54,69s-52.49,13.35-70.73,27.48C226.72,110.5,208,125,171,125s-55.7-14.5-73.79-28.52S61.77,69,26.5,69V64c37,0,55.7,14.5,73.79,28.52S135.75,120,171,120s52.5-13.35,70.73-27.48S278.56,64,315.54,64s55.7,14.5,73.79,28.52C407.57,106.65,424.79,120,460.06,120s52.5-13.35,70.73-27.48S567.6,64,604.59,64s55.69,14.5,73.79,28.52S713.83,120,749.1,120s52.5-13.35,70.73-27.48S856.64,64,893.62,64s55.7,14.5,73.8,28.52S1002.87,120,1038.15,120s52.49-13.35,70.73-27.48C1127,78.5,1145.68,64,1182.67,64s55.7,14.5,73.79,28.52S1291.92,120,1327.19,120s52.5-13.35,70.73-27.48S1434.73,64,1471.71,64s55.71,14.5,73.8,28.52S1581,120,1616.24,120s52.5-13.35,70.74-27.48c18.09-14,36.81-28.52,73.79-28.52v5c-35.27,0-52.5,13.35-70.73,27.48S1653.23,125,1616.24,125Z" class="cls-8"/><circle cx="163.5" cy="55.5" r="19.5" class="cls-9"/><circle cx="743.5" cy="55.5" r="19.5" class="cls-10"/><circle cx="1321.5" cy="55.5" r="19.5" class="cls-11"/><polygon points="443 22 460 40 475.88 22 499 32 483 54 501 76 476 86 457 68 442 87 417 76 436 53 418 33 443 22" class="cls-12"/><polygon points="1023 22 1040 40 1055.88 22 1079 32 1063 54 1081 76 1056 86 1037 68 1022 87 997 76 1016 53 998 33 1023 22" class="cls-13"/><polygon points="1601 22 1618 40 1633.88 22 1657 32 1641 54 1659 76 1634 86 1615 68 1600 87 1575 76 1594 53 1576 33 1601 22" class="cls-14"/><path d="M163.5,38A17.5,17.5,0,1,1,146,55.5,17.52,17.52,0,0,1,163.5,38m0-2A19.5,19.5,0,1,0,183,55.5,19.5,19.5,0,0,0,163.5,36Z" class="cls-5"/><path d="M743.5,38A17.5,17.5,0,1,1,726,55.5,17.52,17.52,0,0,1,743.5,38m0-2A19.5,19.5,0,1,0,763,55.5,19.5,19.5,0,0,0,743.5,36Z" class="cls-5"/><path d="M1321.5,38A17.5,17.5,0,1,1,1304,55.5,17.52,17.52,0,0,1,1321.5,38m0-2A19.5,19.5,0,1,0,1341,55.5,19.5,19.5,0,0,0,1321.5,36Z" class="cls-5"/><path d="M475.88,22,499,32,483,54l18,22L476,86,457,68,442,87,417,76l19-23L418,33l25-11,17,18,15.88-18m-.54-2.41-1,1.09L460,37l-15.5-16.4-1-1-1.3.57-25,11-2.53,1.11,1.85,2.06,16.85,18.72-17.9,21.67-1.69,2,2.42,1.06,25,11,1.42.62,1-1.21L457.21,71l17.41,16.49.93.88,1.19-.47,25-10,2.53-1-1.72-2.11-17-20.8,15.09-20.75,1.47-2-2.3-1-23.12-10-1.33-.57Z" class="cls-5"/><path d="M1055.88,22,1079,32l-16,22,18,22-25,10-19-18-15,19L997,76l19-23L998,33l25-11,17,18,15.88-18m-.54-2.41-1,1.09L1040,37l-15.5-16.4-1-1-1.3.57-25,11-2.53,1.11,1.85,2.06,16.85,18.72-17.9,21.67-1.69,2,2.42,1.06,25,11,1.42.62,1-1.21L1037.21,71l17.41,16.49.93.88,1.19-.47,25-10,2.53-1-1.72-2.11-17-20.8,15.09-20.75,1.47-2-2.3-1-23.12-10-1.33-.57Z" class="cls-5"/><path d="M1633.88,22,1657,32l-16,22,18,22-25,10-19-18-15,19-25-11,19-23-18-20,25-11,17,18,15.88-18m-.54-2.41-1,1.09L1618,37l-15.5-16.4-1-1-1.3.57-25,11-2.53,1.11,1.85,2.06,16.85,18.72-17.9,21.67-1.69,2,2.42,1.06,25,11,1.42.62,1-1.21L1615.21,71l17.41,16.49.93.88,1.19-.47,25-10,2.53-1-1.72-2.11-17-20.8,15.09-20.75,1.47-2-2.3-1-23.12-10-1.33-.57Z" class="cls-5"/><rect width="1704.5" height="58" x="42.75" y="348.5" class="cls-15"/><polygon points="1747.25 406.5 1740.18 403 1737.24 403 1720.68 379.55 1720.68 386.18 1735.02 406.5 1747.25 406.5" class="cls-16"/><polygon points="1701.24 352 1694.12 348.5 1714.63 377.59 1719.3 377.59 1701.24 352" class="cls-16"/><polygon points="1740.16 351.98 1722.18 377.59 1726.86 377.59 1747.24 348.5 1740.16 351.98" class="cls-17"/><polygon points="1704.13 403 1706.35 406.5 1720.68 386.18 1720.68 379.55 1704.13 403" class="cls-17"/><polygon points="1706.35 348.5 1694.12 348.5 1701.18 352 1704.13 352 1720.68 375.45 1720.68 368.82 1706.35 348.5" class="cls-18"/><polygon points="1704.13 403 1701.18 403 1694.12 406.5 1706.35 406.5 1704.13 403" class="cls-16"/><polygon points="1694.12 406.5 1701.24 403 1719.17 377.59 1714.5 377.59 1694.12 406.5" class="cls-17"/><polygon points="1747.25 406.5 1726.86 377.59 1722.19 377.59 1740.13 403 1747.25 406.5" class="cls-18"/><polygon points="1735.02 348.5 1720.68 368.82 1720.68 375.45 1737.24 352 1735.02 348.5" class="cls-17"/><polygon points="1735.02 348.5 1737.24 352 1740.18 352 1747.25 348.5 1735.02 348.5" class="cls-18"/><polygon points="1701.18 352 1704.13 352 1720.68 375.45 1737.24 352 1740.18 352 1722.19 377.59 1740.13 403 1737.24 403 1720.68 379.55 1704.13 403 1701.24 403 1719.17 377.59 1701.18 352" class="cls-19"/><polygon points="1693.98 406.5 1686.91 403 1683.97 403 1667.41 379.55 1667.41 386.18 1681.74 406.5 1693.98 406.5" class="cls-16"/><polygon points="1647.97 352 1640.85 348.5 1661.36 377.59 1666.03 377.59 1647.97 352" class="cls-16"/><polygon points="1686.89 351.98 1668.91 377.59 1673.59 377.59 1693.98 348.5 1686.89 351.98" class="cls-17"/><polygon points="1650.86 403 1653.08 406.5 1667.41 386.18 1667.41 379.55 1650.86 403" class="cls-17"/><polygon points="1653.08 348.5 1640.85 348.5 1647.91 352 1650.86 352 1667.41 375.45 1667.41 368.82 1653.08 348.5" class="cls-18"/><polygon points="1650.86 403 1647.91 403 1640.85 406.5 1653.08 406.5 1650.86 403" class="cls-16"/><polygon points="1640.85 406.5 1647.97 403 1665.9 377.59 1661.23 377.59 1640.85 406.5" class="cls-17"/><polygon points="1693.98 406.5 1673.59 377.59 1668.92 377.59 1686.86 403 1693.98 406.5" class="cls-18"/><polygon points="1681.74 348.5 1667.41 368.82 1667.41 375.45 1683.97 352 1681.74 348.5" class="cls-17"/><polygon points="1681.74 348.5 1683.97 352 1686.91 352 1693.98 348.5 1681.74 348.5" class="cls-18"/><polygon points="1647.91 352 1650.86 352 1667.41 375.45 1683.97 352 1686.91 352 1668.92 377.59 1686.86 403 1683.97 403 1667.41 379.55 1650.86 403 1647.97 403 1665.9 377.59 1647.91 352" class="cls-19"/><polygon points="1640.71 406.5 1633.64 403 1630.7 403 1614.14 379.55 1614.14 386.18 1628.47 406.5 1640.71 406.5" class="cls-16"/><polygon points="1594.7 352 1587.58 348.5 1608.09 377.59 1612.76 377.59 1594.7 352" class="cls-16"/><polygon points="1633.62 351.98 1615.64 377.59 1620.32 377.59 1640.71 348.5 1633.62 351.98" class="cls-17"/><polygon points="1597.59 403 1599.81 406.5 1614.14 386.18 1614.14 379.55 1597.59 403" class="cls-17"/><polygon points="1599.81 348.5 1587.58 348.5 1594.65 352 1597.59 352 1614.14 375.45 1614.14 368.82 1599.81 348.5" class="cls-18"/><polygon points="1597.59 403 1594.65 403 1587.58 406.5 1599.81 406.5 1597.59 403" class="cls-16"/><polygon points="1587.58 406.5 1594.7 403 1612.63 377.59 1607.96 377.59 1587.58 406.5" class="cls-17"/><polygon points="1640.71 406.5 1620.32 377.59 1615.65 377.59 1633.59 403 1640.71 406.5" class="cls-18"/><polygon points="1628.47 348.5 1614.14 368.82 1614.14 375.45 1630.7 352 1628.47 348.5" class="cls-17"/><polygon points="1628.47 348.5 1630.7 352 1633.64 352 1640.71 348.5 1628.47 348.5" class="cls-18"/><polygon points="1594.65 352 1597.59 352 1614.14 375.45 1630.7 352 1633.64 352 1615.65 377.59 1633.59 403 1630.7 403 1614.14 379.55 1597.59 403 1594.7 403 1612.63 377.59 1594.65 352" class="cls-19"/><polygon points="1587.44 406.5 1580.37 403 1577.43 403 1560.87 379.55 1560.87 386.18 1575.2 406.5 1587.44 406.5" class="cls-16"/><polygon points="1541.43 352 1534.31 348.5 1554.82 377.59 1559.49 377.59 1541.43 352" class="cls-16"/><polygon points="1580.35 351.98 1562.38 377.59 1567.05 377.59 1587.44 348.5 1580.35 351.98" class="cls-17"/><polygon points="1544.32 403 1546.54 406.5 1560.87 386.18 1560.87 379.55 1544.32 403" class="cls-17"/><polygon points="1546.54 348.5 1534.31 348.5 1541.38 352 1544.32 352 1560.87 375.45 1560.87 368.82 1546.54 348.5" class="cls-18"/><polygon points="1544.32 403 1541.38 403 1534.31 406.5 1546.54 406.5 1544.32 403" class="cls-16"/><polygon points="1534.31 406.5 1541.43 403 1559.36 377.59 1554.69 377.59 1534.31 406.5" class="cls-17"/><polygon points="1587.44 406.5 1567.05 377.59 1562.38 377.59 1580.32 403 1587.44 406.5" class="cls-18"/><polygon points="1575.2 348.5 1560.87 368.82 1560.87 375.45 1577.43 352 1575.2 348.5" class="cls-17"/><polygon points="1575.2 348.5 1577.43 352 1580.37 352 1587.44 348.5 1575.2 348.5" class="cls-18"/><polygon points="1541.38 352 1544.32 352 1560.87 375.45 1577.43 352 1580.37 352 1562.38 377.59 1580.32 403 1577.43 403 1560.87 379.55 1544.32 403 1541.43 403 1559.36 377.59 1541.38 352" class="cls-19"/><polygon points="1534.17 406.5 1527.1 403 1524.16 403 1507.6 379.55 1507.6 386.18 1521.93 406.5 1534.17 406.5" class="cls-16"/><polygon points="1488.16 352 1481.04 348.5 1501.55 377.59 1506.22 377.59 1488.16 352" class="cls-16"/><polygon points="1527.08 351.98 1509.11 377.59 1513.78 377.59 1534.17 348.5 1527.08 351.98" class="cls-17"/><polygon points="1491.05 403 1493.27 406.5 1507.6 386.18 1507.6 379.55 1491.05 403" class="cls-17"/><polygon points="1493.27 348.5 1481.04 348.5 1488.11 352 1491.05 352 1507.6 375.45 1507.6 368.82 1493.27 348.5" class="cls-18"/><polygon points="1491.05 403 1488.11 403 1481.04 406.5 1493.27 406.5 1491.05 403" class="cls-16"/><polygon points="1481.04 406.5 1488.16 403 1506.1 377.59 1501.42 377.59 1481.04 406.5" class="cls-17"/><polygon points="1534.17 406.5 1513.78 377.59 1509.11 377.59 1527.05 403 1534.17 406.5" class="cls-18"/><polygon points="1521.93 348.5 1507.6 368.82 1507.6 375.45 1524.16 352 1521.93 348.5" class="cls-17"/><polygon points="1521.93 348.5 1524.16 352 1527.1 352 1534.17 348.5 1521.93 348.5" class="cls-18"/><polygon points="1488.11 352 1491.05 352 1507.6 375.45 1524.16 352 1527.1 352 1509.11 377.59 1527.05 403 1524.16 403 1507.6 379.55 1491.05 403 1488.16 403 1506.1 377.59 1488.11 352" class="cls-19"/><polygon points="1480.9 406.5 1473.83 403 1470.89 403 1454.33 379.55 1454.33 386.18 1468.66 406.5 1480.9 406.5" class="cls-16"/><polygon points="1434.89 352 1427.77 348.5 1448.28 377.59 1452.95 377.59 1434.89 352" class="cls-16"/><polygon points="1473.81 351.98 1455.84 377.59 1460.51 377.59 1480.9 348.5 1473.81 351.98" class="cls-17"/><polygon points="1437.78 403 1440 406.5 1454.33 386.18 1454.33 379.55 1437.78 403" class="cls-17"/><polygon points="1440 348.5 1427.77 348.5 1434.84 352 1437.78 352 1454.33 375.45 1454.33 368.82 1440 348.5" class="cls-18"/><polygon points="1437.78 403 1434.84 403 1427.77 406.5 1440 406.5 1437.78 403" class="cls-16"/><polygon points="1427.77 406.5 1434.89 403 1452.83 377.59 1448.15 377.59 1427.77 406.5" class="cls-17"/><polygon points="1480.9 406.5 1460.51 377.59 1455.84 377.59 1473.78 403 1480.9 406.5" class="cls-18"/><polygon points="1468.66 348.5 1454.33 368.82 1454.33 375.45 1470.89 352 1468.66 348.5" class="cls-17"/><polygon points="1468.66 348.5 1470.89 352 1473.83 352 1480.9 348.5 1468.66 348.5" class="cls-18"/><polygon points="1434.84 352 1437.78 352 1454.33 375.45 1470.89 352 1473.83 352 1455.84 377.59 1473.78 403 1470.89 403 1454.33 379.55 1437.78 403 1434.89 403 1452.83 377.59 1434.84 352" class="cls-19"/><polygon points="1427.63 406.5 1420.56 403 1417.62 403 1401.06 379.55 1401.06 386.18 1415.4 406.5 1427.63 406.5" class="cls-16"/><polygon points="1381.62 352 1374.5 348.5 1395.01 377.59 1399.68 377.59 1381.62 352" class="cls-16"/><polygon points="1420.54 351.98 1402.57 377.59 1407.24 377.59 1427.63 348.5 1420.54 351.98" class="cls-17"/><polygon points="1384.51 403 1386.73 406.5 1401.06 386.18 1401.06 379.55 1384.51 403" class="cls-17"/><polygon points="1386.73 348.5 1374.5 348.5 1381.57 352 1384.51 352 1401.06 375.45 1401.06 368.82 1386.73 348.5" class="cls-18"/><polygon points="1384.51 403 1381.57 403 1374.5 406.5 1386.73 406.5 1384.51 403" class="cls-16"/><polygon points="1374.5 406.5 1381.62 403 1399.56 377.59 1394.88 377.59 1374.5 406.5" class="cls-17"/><polygon points="1427.63 406.5 1407.24 377.59 1402.57 377.59 1420.51 403 1427.63 406.5" class="cls-18"/><polygon points="1415.4 348.5 1401.06 368.82 1401.06 375.45 1417.62 352 1415.4 348.5" class="cls-17"/><polygon points="1415.4 348.5 1417.62 352 1420.56 352 1427.63 348.5 1415.4 348.5" class="cls-18"/><polygon points="1381.57 352 1384.51 352 1401.06 375.45 1417.62 352 1420.56 352 1402.57 377.59 1420.51 403 1417.62 403 1401.06 379.55 1384.51 403 1381.62 403 1399.56 377.59 1381.57 352" class="cls-19"/><polygon points="1374.36 406.5 1367.29 403 1364.35 403 1347.79 379.55 1347.79 386.18 1362.13 406.5 1374.36 406.5" class="cls-16"/><polygon points="1328.35 352 1321.23 348.5 1341.74 377.59 1346.41 377.59 1328.35 352" class="cls-16"/><polygon points="1367.27 351.98 1349.3 377.59 1353.97 377.59 1374.36 348.5 1367.27 351.98" class="cls-17"/><polygon points="1331.24 403 1333.46 406.5 1347.79 386.18 1347.79 379.55 1331.24 403" class="cls-17"/><polygon points="1333.46 348.5 1321.23 348.5 1328.3 352 1331.24 352 1347.79 375.45 1347.79 368.82 1333.46 348.5" class="cls-18"/><polygon points="1331.24 403 1328.3 403 1321.23 406.5 1333.46 406.5 1331.24 403" class="cls-16"/><polygon points="1321.23 406.5 1328.35 403 1346.29 377.59 1341.61 377.59 1321.23 406.5" class="cls-17"/><polygon points="1374.36 406.5 1353.97 377.59 1349.3 377.59 1367.24 403 1374.36 406.5" class="cls-18"/><polygon points="1362.13 348.5 1347.79 368.82 1347.79 375.45 1364.35 352 1362.13 348.5" class="cls-17"/><polygon points="1362.13 348.5 1364.35 352 1367.29 352 1374.36 348.5 1362.13 348.5" class="cls-18"/><polygon points="1328.3 352 1331.24 352 1347.79 375.45 1364.35 352 1367.29 352 1349.3 377.59 1367.24 403 1364.35 403 1347.79 379.55 1331.24 403 1328.35 403 1346.29 377.59 1328.3 352" class="cls-19"/><polygon points="1321.09 406.5 1314.02 403 1311.08 403 1294.52 379.55 1294.52 386.18 1308.86 406.5 1321.09 406.5" class="cls-16"/><polygon points="1275.08 352 1267.96 348.5 1288.47 377.59 1293.14 377.59 1275.08 352" class="cls-16"/><polygon points="1314 351.98 1296.03 377.59 1300.7 377.59 1321.09 348.5 1314 351.98" class="cls-17"/><polygon points="1277.97 403 1280.19 406.5 1294.52 386.18 1294.52 379.55 1277.97 403" class="cls-17"/><polygon points="1280.19 348.5 1267.96 348.5 1275.03 352 1277.97 352 1294.52 375.45 1294.52 368.82 1280.19 348.5" class="cls-18"/><polygon points="1277.97 403 1275.03 403 1267.96 406.5 1280.19 406.5 1277.97 403" class="cls-16"/><polygon points="1267.96 406.5 1275.08 403 1293.02 377.59 1288.34 377.59 1267.96 406.5" class="cls-17"/><polygon points="1321.09 406.5 1300.7 377.59 1296.03 377.59 1313.97 403 1321.09 406.5" class="cls-18"/><polygon points="1308.86 348.5 1294.52 368.82 1294.52 375.45 1311.08 352 1308.86 348.5" class="cls-17"/><polygon points="1308.86 348.5 1311.08 352 1314.02 352 1321.09 348.5 1308.86 348.5" class="cls-18"/><polygon points="1275.03 352 1277.97 352 1294.52 375.45 1311.08 352 1314.02 352 1296.03 377.59 1313.97 403 1311.08 403 1294.52 379.55 1277.97 403 1275.08 403 1293.02 377.59 1275.03 352" class="cls-19"/><polygon points="1267.82 406.5 1260.75 403 1257.81 403 1241.25 379.55 1241.25 386.18 1255.59 406.5 1267.82 406.5" class="cls-16"/><polygon points="1221.81 352 1214.69 348.5 1235.2 377.59 1239.87 377.59 1221.81 352" class="cls-16"/><polygon points="1260.73 351.98 1242.76 377.59 1247.43 377.59 1267.82 348.5 1260.73 351.98" class="cls-17"/><polygon points="1224.7 403 1226.92 406.5 1241.25 386.18 1241.25 379.55 1224.7 403" class="cls-17"/><polygon points="1226.92 348.5 1214.69 348.5 1221.76 352 1224.7 352 1241.25 375.45 1241.25 368.82 1226.92 348.5" class="cls-18"/><polygon points="1224.7 403 1221.76 403 1214.69 406.5 1226.92 406.5 1224.7 403" class="cls-16"/><polygon points="1214.69 406.5 1221.81 403 1239.74 377.59 1235.07 377.59 1214.69 406.5" class="cls-17"/><polygon points="1267.82 406.5 1247.43 377.59 1242.76 377.59 1260.7 403 1267.82 406.5" class="cls-18"/><polygon points="1255.59 348.5 1241.25 368.82 1241.25 375.45 1257.81 352 1255.59 348.5" class="cls-17"/><polygon points="1255.59 348.5 1257.81 352 1260.75 352 1267.82 348.5 1255.59 348.5" class="cls-18"/><polygon points="1221.76 352 1224.7 352 1241.25 375.45 1257.81 352 1260.75 352 1242.76 377.59 1260.7 403 1257.81 403 1241.25 379.55 1224.7 403 1221.81 403 1239.74 377.59 1221.76 352" class="cls-19"/><polygon points="1214.55 406.5 1207.48 403 1204.54 403 1187.98 379.55 1187.98 386.18 1202.32 406.5 1214.55 406.5" class="cls-16"/><polygon points="1168.54 352 1161.42 348.5 1181.93 377.59 1186.6 377.59 1168.54 352" class="cls-16"/><polygon points="1207.46 351.98 1189.49 377.59 1194.16 377.59 1214.55 348.5 1207.46 351.98" class="cls-17"/><polygon points="1171.43 403 1173.65 406.5 1187.98 386.18 1187.98 379.55 1171.43 403" class="cls-17"/><polygon points="1173.65 348.5 1161.42 348.5 1168.49 352 1171.43 352 1187.98 375.45 1187.98 368.82 1173.65 348.5" class="cls-18"/><polygon points="1171.43 403 1168.49 403 1161.42 406.5 1173.65 406.5 1171.43 403" class="cls-16"/><polygon points="1161.42 406.5 1168.54 403 1186.48 377.59 1181.81 377.59 1161.42 406.5" class="cls-17"/><polygon points="1214.55 406.5 1194.16 377.59 1189.49 377.59 1207.43 403 1214.55 406.5" class="cls-18"/><polygon points="1202.32 348.5 1187.98 368.82 1187.98 375.45 1204.54 352 1202.32 348.5" class="cls-17"/><polygon points="1202.32 348.5 1204.54 352 1207.48 352 1214.55 348.5 1202.32 348.5" class="cls-18"/><polygon points="1168.49 352 1171.43 352 1187.98 375.45 1204.54 352 1207.48 352 1189.49 377.59 1207.43 403 1204.54 403 1187.98 379.55 1171.43 403 1168.54 403 1186.48 377.59 1168.49 352" class="cls-19"/><polygon points="1161.28 406.5 1154.21 403 1151.27 403 1134.71 379.55 1134.71 386.18 1149.05 406.5 1161.28 406.5" class="cls-16"/><polygon points="1115.27 352 1108.15 348.5 1128.66 377.59 1133.33 377.59 1115.27 352" class="cls-16"/><polygon points="1154.19 351.98 1136.22 377.59 1140.89 377.59 1161.28 348.5 1154.19 351.98" class="cls-17"/><polygon points="1118.16 403 1120.38 406.5 1134.71 386.18 1134.71 379.55 1118.16 403" class="cls-17"/><polygon points="1120.38 348.5 1108.15 348.5 1115.22 352 1118.16 352 1134.71 375.45 1134.71 368.82 1120.38 348.5" class="cls-18"/><polygon points="1118.16 403 1115.22 403 1108.15 406.5 1120.38 406.5 1118.16 403" class="cls-16"/><polygon points="1108.15 406.5 1115.27 403 1133.21 377.59 1128.54 377.59 1108.15 406.5" class="cls-17"/><polygon points="1161.28 406.5 1140.89 377.59 1136.22 377.59 1154.16 403 1161.28 406.5" class="cls-18"/><polygon points="1149.05 348.5 1134.71 368.82 1134.71 375.45 1151.27 352 1149.05 348.5" class="cls-17"/><polygon points="1149.05 348.5 1151.27 352 1154.21 352 1161.28 348.5 1149.05 348.5" class="cls-18"/><polygon points="1115.22 352 1118.16 352 1134.71 375.45 1151.27 352 1154.21 352 1136.22 377.59 1154.16 403 1151.27 403 1134.71 379.55 1118.16 403 1115.27 403 1133.21 377.59 1115.22 352" class="cls-19"/><polygon points="1108.01 406.5 1100.94 403 1098 403 1081.44 379.55 1081.44 386.18 1095.78 406.5 1108.01 406.5" class="cls-16"/><polygon points="1062 352 1054.88 348.5 1075.39 377.59 1080.06 377.59 1062 352" class="cls-16"/><polygon points="1100.92 351.98 1082.95 377.59 1087.62 377.59 1108.01 348.5 1100.92 351.98" class="cls-17"/><polygon points="1064.89 403 1067.11 406.5 1081.44 386.18 1081.44 379.55 1064.89 403" class="cls-17"/><polygon points="1067.11 348.5 1054.88 348.5 1061.95 352 1064.89 352 1081.44 375.45 1081.44 368.82 1067.11 348.5" class="cls-18"/><polygon points="1064.89 403 1061.95 403 1054.88 406.5 1067.11 406.5 1064.89 403" class="cls-16"/><polygon points="1054.88 406.5 1062 403 1079.94 377.59 1075.27 377.59 1054.88 406.5" class="cls-17"/><polygon points="1108.01 406.5 1087.62 377.59 1082.95 377.59 1100.89 403 1108.01 406.5" class="cls-18"/><polygon points="1095.78 348.5 1081.44 368.82 1081.44 375.45 1098 352 1095.78 348.5" class="cls-17"/><polygon points="1095.78 348.5 1098 352 1100.94 352 1108.01 348.5 1095.78 348.5" class="cls-18"/><polygon points="1061.95 352 1064.89 352 1081.44 375.45 1098 352 1100.94 352 1082.95 377.59 1100.89 403 1098 403 1081.44 379.55 1064.89 403 1062 403 1079.94 377.59 1061.95 352" class="cls-19"/><polygon points="1054.74 406.5 1047.67 403 1044.73 403 1028.17 379.55 1028.17 386.18 1042.51 406.5 1054.74 406.5" class="cls-16"/><polygon points="1008.73 352 1001.61 348.5 1022.12 377.59 1026.79 377.59 1008.73 352" class="cls-16"/><polygon points="1047.65 351.98 1029.68 377.59 1034.35 377.59 1054.74 348.5 1047.65 351.98" class="cls-17"/><polygon points="1011.62 403 1013.84 406.5 1028.17 386.18 1028.17 379.55 1011.62 403" class="cls-17"/><polygon points="1013.84 348.5 1001.61 348.5 1008.68 352 1011.62 352 1028.17 375.45 1028.17 368.82 1013.84 348.5" class="cls-18"/><polygon points="1011.62 403 1008.68 403 1001.61 406.5 1013.84 406.5 1011.62 403" class="cls-16"/><polygon points="1001.61 406.5 1008.73 403 1026.67 377.59 1022 377.59 1001.61 406.5" class="cls-17"/><polygon points="1054.74 406.5 1034.35 377.59 1029.68 377.59 1047.62 403 1054.74 406.5" class="cls-18"/><polygon points="1042.51 348.5 1028.17 368.82 1028.17 375.45 1044.73 352 1042.51 348.5" class="cls-17"/><polygon points="1042.51 348.5 1044.73 352 1047.67 352 1054.74 348.5 1042.51 348.5" class="cls-18"/><polygon points="1008.68 352 1011.62 352 1028.17 375.45 1044.73 352 1047.67 352 1029.68 377.59 1047.62 403 1044.73 403 1028.17 379.55 1011.62 403 1008.73 403 1026.67 377.59 1008.68 352" class="cls-19"/><polygon points="1001.47 406.5 994.4 403 991.46 403 974.9 379.55 974.9 386.18 989.24 406.5 1001.47 406.5" class="cls-16"/><polygon points="955.46 352 948.34 348.5 968.85 377.59 973.52 377.59 955.46 352" class="cls-16"/><polygon points="994.38 351.98 976.41 377.59 981.08 377.59 1001.47 348.5 994.38 351.98" class="cls-17"/><polygon points="958.35 403 960.57 406.5 974.9 386.18 974.9 379.55 958.35 403" class="cls-17"/><polygon points="960.57 348.5 948.34 348.5 955.41 352 958.35 352 974.9 375.45 974.9 368.82 960.57 348.5" class="cls-18"/><polygon points="958.35 403 955.41 403 948.34 406.5 960.57 406.5 958.35 403" class="cls-16"/><polygon points="948.34 406.5 955.46 403 973.4 377.59 968.73 377.59 948.34 406.5" class="cls-17"/><polygon points="1001.47 406.5 981.08 377.59 976.41 377.59 994.35 403 1001.47 406.5" class="cls-18"/><polygon points="989.24 348.5 974.9 368.82 974.9 375.45 991.46 352 989.24 348.5" class="cls-17"/><polygon points="989.24 348.5 991.46 352 994.4 352 1001.47 348.5 989.24 348.5" class="cls-18"/><polygon points="955.41 352 958.35 352 974.9 375.45 991.46 352 994.4 352 976.41 377.59 994.35 403 991.46 403 974.9 379.55 958.35 403 955.46 403 973.4 377.59 955.41 352" class="cls-19"/><polygon points="948.2 406.5 941.13 403 938.19 403 921.63 379.55 921.63 386.18 935.97 406.5 948.2 406.5" class="cls-16"/><polygon points="902.19 352 895.07 348.5 915.58 377.59 920.25 377.59 902.19 352" class="cls-16"/><polygon points="941.11 351.98 923.14 377.59 927.81 377.59 948.2 348.5 941.11 351.98" class="cls-17"/><polygon points="905.08 403 907.3 406.5 921.63 386.18 921.63 379.55 905.08 403" class="cls-17"/><polygon points="907.3 348.5 895.07 348.5 902.14 352 905.08 352 921.63 375.45 921.63 368.82 907.3 348.5" class="cls-18"/><polygon points="905.08 403 902.14 403 895.07 406.5 907.3 406.5 905.08 403" class="cls-16"/><polygon points="895.07 406.5 902.19 403 920.13 377.59 915.46 377.59 895.07 406.5" class="cls-17"/><polygon points="948.2 406.5 927.81 377.59 923.14 377.59 941.08 403 948.2 406.5" class="cls-18"/><polygon points="935.97 348.5 921.63 368.82 921.63 375.45 938.19 352 935.97 348.5" class="cls-17"/><polygon points="935.97 348.5 938.19 352 941.13 352 948.2 348.5 935.97 348.5" class="cls-18"/><polygon points="902.14 352 905.08 352 921.63 375.45 938.19 352 941.13 352 923.14 377.59 941.08 403 938.19 403 921.63 379.55 905.08 403 902.19 403 920.13 377.59 902.14 352" class="cls-19"/><polygon points="894.93 406.5 887.86 403 884.92 403 868.37 379.55 868.37 386.18 882.7 406.5 894.93 406.5" class="cls-16"/><polygon points="848.92 352 841.8 348.5 862.31 377.59 866.98 377.59 848.92 352" class="cls-16"/><polygon points="887.84 351.98 869.87 377.59 874.54 377.59 894.93 348.5 887.84 351.98" class="cls-17"/><polygon points="851.81 403 854.03 406.5 868.37 386.18 868.37 379.55 851.81 403" class="cls-17"/><polygon points="854.03 348.5 841.8 348.5 848.87 352 851.81 352 868.37 375.45 868.37 368.82 854.03 348.5" class="cls-18"/><polygon points="851.81 403 848.87 403 841.8 406.5 854.03 406.5 851.81 403" class="cls-16"/><polygon points="841.8 406.5 848.92 403 866.86 377.59 862.19 377.59 841.8 406.5" class="cls-17"/><polygon points="894.93 406.5 874.54 377.59 869.87 377.59 887.81 403 894.93 406.5" class="cls-18"/><polygon points="882.7 348.5 868.37 368.82 868.37 375.45 884.92 352 882.7 348.5" class="cls-17"/><polygon points="882.7 348.5 884.92 352 887.86 352 894.93 348.5 882.7 348.5" class="cls-18"/><polygon points="848.87 352 851.81 352 868.37 375.45 884.92 352 887.86 352 869.87 377.59 887.81 403 884.92 403 868.37 379.55 851.81 403 848.92 403 866.86 377.59 848.87 352" class="cls-19"/><polygon points="841.66 406.5 834.59 403 831.65 403 815.1 379.55 815.1 386.18 829.43 406.5 841.66 406.5" class="cls-16"/><polygon points="795.65 352 788.53 348.5 809.04 377.59 813.71 377.59 795.65 352" class="cls-16"/><polygon points="834.57 351.98 816.6 377.59 821.27 377.59 841.66 348.5 834.57 351.98" class="cls-17"/><polygon points="798.54 403 800.76 406.5 815.1 386.18 815.1 379.55 798.54 403" class="cls-17"/><polygon points="800.76 348.5 788.53 348.5 795.6 352 798.54 352 815.1 375.45 815.1 368.82 800.76 348.5" class="cls-18"/><polygon points="798.54 403 795.6 403 788.53 406.5 800.76 406.5 798.54 403" class="cls-16"/><polygon points="788.53 406.5 795.65 403 813.59 377.59 808.92 377.59 788.53 406.5" class="cls-17"/><polygon points="841.66 406.5 821.27 377.59 816.6 377.59 834.54 403 841.66 406.5" class="cls-18"/><polygon points="829.43 348.5 815.1 368.82 815.1 375.45 831.65 352 829.43 348.5" class="cls-17"/><polygon points="829.43 348.5 831.65 352 834.59 352 841.66 348.5 829.43 348.5" class="cls-18"/><polygon points="795.6 352 798.54 352 815.1 375.45 831.65 352 834.59 352 816.6 377.59 834.54 403 831.65 403 815.1 379.55 798.54 403 795.65 403 813.59 377.59 795.6 352" class="cls-19"/><polygon points="788.39 406.5 781.32 403 778.38 403 761.83 379.55 761.83 386.18 776.16 406.5 788.39 406.5" class="cls-16"/><polygon points="742.38 352 735.26 348.5 755.77 377.59 760.44 377.59 742.38 352" class="cls-16"/><polygon points="781.3 351.98 763.33 377.59 768 377.59 788.39 348.5 781.3 351.98" class="cls-17"/><polygon points="745.27 403 747.49 406.5 761.83 386.18 761.83 379.55 745.27 403" class="cls-17"/><polygon points="747.49 348.5 735.26 348.5 742.33 352 745.27 352 761.83 375.45 761.83 368.82 747.49 348.5" class="cls-18"/><polygon points="745.27 403 742.33 403 735.26 406.5 747.49 406.5 745.27 403" class="cls-16"/><polygon points="735.26 406.5 742.38 403 760.32 377.59 755.65 377.59 735.26 406.5" class="cls-17"/><polygon points="788.39 406.5 768 377.59 763.33 377.59 781.27 403 788.39 406.5" class="cls-18"/><polygon points="776.16 348.5 761.83 368.82 761.83 375.45 778.38 352 776.16 348.5" class="cls-17"/><polygon points="776.16 348.5 778.38 352 781.32 352 788.39 348.5 776.16 348.5" class="cls-18"/><polygon points="742.33 352 745.27 352 761.83 375.45 778.38 352 781.32 352 763.33 377.59 781.27 403 778.38 403 761.83 379.55 745.27 403 742.38 403 760.32 377.59 742.33 352" class="cls-19"/><polygon points="735.12 406.5 728.05 403 725.11 403 708.56 379.55 708.56 386.18 722.89 406.5 735.12 406.5" class="cls-16"/><polygon points="689.11 352 681.99 348.5 702.5 377.59 707.17 377.59 689.11 352" class="cls-16"/><polygon points="728.03 351.98 710.06 377.59 714.73 377.59 735.12 348.5 728.03 351.98" class="cls-17"/><polygon points="692 403 694.22 406.5 708.56 386.18 708.56 379.55 692 403" class="cls-17"/><polygon points="694.22 348.5 681.99 348.5 689.06 352 692 352 708.56 375.45 708.56 368.82 694.22 348.5" class="cls-18"/><polygon points="692 403 689.06 403 681.99 406.5 694.22 406.5 692 403" class="cls-16"/><polygon points="681.99 406.5 689.11 403 707.05 377.59 702.38 377.59 681.99 406.5" class="cls-17"/><polygon points="735.12 406.5 714.74 377.59 710.06 377.59 728 403 735.12 406.5" class="cls-18"/><polygon points="722.89 348.5 708.56 368.82 708.56 375.45 725.11 352 722.89 348.5" class="cls-17"/><polygon points="722.89 348.5 725.11 352 728.05 352 735.12 348.5 722.89 348.5" class="cls-18"/><polygon points="689.06 352 692 352 708.56 375.45 725.11 352 728.05 352 710.06 377.59 728 403 725.11 403 708.56 379.55 692 403 689.11 403 707.05 377.59 689.06 352" class="cls-19"/><polygon points="681.85 406.5 674.78 403 671.84 403 655.29 379.55 655.29 386.18 669.62 406.5 681.85 406.5" class="cls-16"/><polygon points="635.84 352 628.72 348.5 649.23 377.59 653.9 377.59 635.84 352" class="cls-16"/><polygon points="674.76 351.98 656.79 377.59 661.46 377.59 681.85 348.5 674.76 351.98" class="cls-17"/><polygon points="638.73 403 640.95 406.5 655.29 386.18 655.29 379.55 638.73 403" class="cls-17"/><polygon points="640.95 348.5 628.72 348.5 635.79 352 638.73 352 655.29 375.45 655.29 368.82 640.95 348.5" class="cls-18"/><polygon points="638.73 403 635.79 403 628.72 406.5 640.95 406.5 638.73 403" class="cls-16"/><polygon points="628.72 406.5 635.84 403 653.78 377.59 649.11 377.59 628.72 406.5" class="cls-17"/><polygon points="681.85 406.5 661.47 377.59 656.79 377.59 674.73 403 681.85 406.5" class="cls-18"/><polygon points="669.62 348.5 655.29 368.82 655.29 375.45 671.84 352 669.62 348.5" class="cls-17"/><polygon points="669.62 348.5 671.84 352 674.78 352 681.85 348.5 669.62 348.5" class="cls-18"/><polygon points="635.79 352 638.73 352 655.29 375.45 671.84 352 674.78 352 656.79 377.59 674.73 403 671.84 403 655.29 379.55 638.73 403 635.84 403 653.78 377.59 635.79 352" class="cls-19"/><polygon points="628.58 406.5 621.51 403 618.57 403 602.02 379.55 602.02 386.18 616.35 406.5 628.58 406.5" class="cls-16"/><polygon points="582.57 352 575.45 348.5 595.96 377.59 600.63 377.59 582.57 352" class="cls-16"/><polygon points="621.49 351.98 603.52 377.59 608.19 377.59 628.58 348.5 621.49 351.98" class="cls-17"/><polygon points="585.46 403 587.68 406.5 602.02 386.18 602.02 379.55 585.46 403" class="cls-17"/><polygon points="587.68 348.5 575.45 348.5 582.52 352 585.46 352 602.02 375.45 602.02 368.82 587.68 348.5" class="cls-18"/><polygon points="585.46 403 582.52 403 575.45 406.5 587.68 406.5 585.46 403" class="cls-16"/><polygon points="575.45 406.5 582.57 403 600.51 377.59 595.84 377.59 575.45 406.5" class="cls-17"/><polygon points="628.58 406.5 608.2 377.59 603.52 377.59 621.46 403 628.58 406.5" class="cls-18"/><polygon points="616.35 348.5 602.02 368.82 602.02 375.45 618.57 352 616.35 348.5" class="cls-17"/><polygon points="616.35 348.5 618.57 352 621.51 352 628.58 348.5 616.35 348.5" class="cls-18"/><polygon points="582.52 352 585.46 352 602.02 375.45 618.57 352 621.51 352 603.52 377.59 621.46 403 618.57 403 602.02 379.55 585.46 403 582.57 403 600.51 377.59 582.52 352" class="cls-19"/><polygon points="575.31 406.5 568.24 403 565.3 403 548.75 379.55 548.75 386.18 563.08 406.5 575.31 406.5" class="cls-16"/><polygon points="529.3 352 522.18 348.5 542.69 377.59 547.36 377.59 529.3 352" class="cls-16"/><polygon points="568.22 351.98 550.25 377.59 554.92 377.59 575.31 348.5 568.22 351.98" class="cls-17"/><polygon points="532.19 403 534.41 406.5 548.75 386.18 548.75 379.55 532.19 403" class="cls-17"/><polygon points="534.41 348.5 522.18 348.5 529.25 352 532.19 352 548.75 375.45 548.75 368.82 534.41 348.5" class="cls-18"/><polygon points="532.19 403 529.25 403 522.18 406.5 534.41 406.5 532.19 403" class="cls-16"/><polygon points="522.18 406.5 529.3 403 547.24 377.59 542.57 377.59 522.18 406.5" class="cls-17"/><polygon points="575.31 406.5 554.93 377.59 550.25 377.59 568.19 403 575.31 406.5" class="cls-18"/><polygon points="563.08 348.5 548.75 368.82 548.75 375.45 565.3 352 563.08 348.5" class="cls-17"/><polygon points="563.08 348.5 565.3 352 568.24 352 575.31 348.5 563.08 348.5" class="cls-18"/><polygon points="529.25 352 532.19 352 548.75 375.45 565.3 352 568.24 352 550.25 377.59 568.19 403 565.3 403 548.75 379.55 532.19 403 529.3 403 547.24 377.59 529.25 352" class="cls-19"/><polygon points="522.04 406.5 514.97 403 512.03 403 495.48 379.55 495.48 386.18 509.81 406.5 522.04 406.5" class="cls-16"/><polygon points="476.03 352 468.91 348.5 489.42 377.59 494.09 377.59 476.03 352" class="cls-16"/><polygon points="514.95 351.98 496.98 377.59 501.65 377.59 522.04 348.5 514.95 351.98" class="cls-17"/><polygon points="478.92 403 481.14 406.5 495.48 386.18 495.48 379.55 478.92 403" class="cls-17"/><polygon points="481.14 348.5 468.91 348.5 475.98 352 478.92 352 495.48 375.45 495.48 368.82 481.14 348.5" class="cls-18"/><polygon points="478.92 403 475.98 403 468.91 406.5 481.14 406.5 478.92 403" class="cls-16"/><polygon points="468.91 406.5 476.03 403 493.97 377.59 489.3 377.59 468.91 406.5" class="cls-17"/><polygon points="522.04 406.5 501.66 377.59 496.99 377.59 514.92 403 522.04 406.5" class="cls-18"/><polygon points="509.81 348.5 495.48 368.82 495.48 375.45 512.03 352 509.81 348.5" class="cls-17"/><polygon points="509.81 348.5 512.03 352 514.97 352 522.04 348.5 509.81 348.5" class="cls-18"/><polygon points="475.98 352 478.92 352 495.48 375.45 512.03 352 514.97 352 496.99 377.59 514.92 403 512.03 403 495.48 379.55 478.92 403 476.03 403 493.97 377.59 475.98 352" class="cls-19"/><polygon points="468.77 406.5 461.7 403 458.76 403 442.21 379.55 442.21 386.18 456.54 406.5 468.77 406.5" class="cls-16"/><polygon points="422.76 352 415.64 348.5 436.15 377.59 440.82 377.59 422.76 352" class="cls-16"/><polygon points="461.68 351.98 443.71 377.59 448.38 377.59 468.77 348.5 461.68 351.98" class="cls-17"/><polygon points="425.65 403 427.87 406.5 442.21 386.18 442.21 379.55 425.65 403" class="cls-17"/><polygon points="427.87 348.5 415.64 348.5 422.71 352 425.65 352 442.21 375.45 442.21 368.82 427.87 348.5" class="cls-18"/><polygon points="425.65 403 422.71 403 415.64 406.5 427.87 406.5 425.65 403" class="cls-16"/><polygon points="415.64 406.5 422.76 403 440.7 377.59 436.03 377.59 415.64 406.5" class="cls-17"/><polygon points="468.77 406.5 448.39 377.59 443.71 377.59 461.65 403 468.77 406.5" class="cls-18"/><polygon points="456.54 348.5 442.21 368.82 442.21 375.45 458.76 352 456.54 348.5" class="cls-17"/><polygon points="456.54 348.5 458.76 352 461.7 352 468.77 348.5 456.54 348.5" class="cls-18"/><polygon points="422.71 352 425.65 352 442.21 375.45 458.76 352 461.7 352 443.71 377.59 461.65 403 458.76 403 442.21 379.55 425.65 403 422.76 403 440.7 377.59 422.71 352" class="cls-19"/><polygon points="415.5 406.5 408.43 403 405.49 403 388.94 379.55 388.94 386.18 403.27 406.5 415.5 406.5" class="cls-16"/><polygon points="369.49 352 362.37 348.5 382.88 377.59 387.55 377.59 369.49 352" class="cls-16"/><polygon points="408.41 351.98 390.44 377.59 395.11 377.59 415.5 348.5 408.41 351.98" class="cls-17"/><polygon points="372.38 403 374.6 406.5 388.94 386.18 388.94 379.55 372.38 403" class="cls-17"/><polygon points="374.6 348.5 362.37 348.5 369.44 352 372.38 352 388.94 375.45 388.94 368.82 374.6 348.5" class="cls-18"/><polygon points="372.38 403 369.44 403 362.37 406.5 374.6 406.5 372.38 403" class="cls-16"/><polygon points="362.37 406.5 369.49 403 387.43 377.59 382.76 377.59 362.37 406.5" class="cls-17"/><polygon points="415.5 406.5 395.12 377.59 390.44 377.59 408.38 403 415.5 406.5" class="cls-18"/><polygon points="403.27 348.5 388.94 368.82 388.94 375.45 405.49 352 403.27 348.5" class="cls-17"/><polygon points="403.27 348.5 405.49 352 408.43 352 415.5 348.5 403.27 348.5" class="cls-18"/><polygon points="369.44 352 372.38 352 388.94 375.45 405.49 352 408.43 352 390.44 377.59 408.38 403 405.49 403 388.94 379.55 372.38 403 369.49 403 387.43 377.59 369.44 352" class="cls-19"/><polygon points="362.23 406.5 355.16 403 352.22 403 335.67 379.55 335.67 386.18 350 406.5 362.23 406.5" class="cls-16"/><polygon points="316.22 352 309.1 348.5 329.61 377.59 334.28 377.59 316.22 352" class="cls-16"/><polygon points="355.14 351.98 337.17 377.59 341.84 377.59 362.23 348.5 355.14 351.98" class="cls-17"/><polygon points="319.11 403 321.33 406.5 335.67 386.18 335.67 379.55 319.11 403" class="cls-17"/><polygon points="321.33 348.5 309.1 348.5 316.17 352 319.11 352 335.67 375.45 335.67 368.82 321.33 348.5" class="cls-18"/><polygon points="319.11 403 316.17 403 309.1 406.5 321.33 406.5 319.11 403" class="cls-16"/><polygon points="309.1 406.5 316.22 403 334.16 377.59 329.49 377.59 309.1 406.5" class="cls-17"/><polygon points="362.23 406.5 341.85 377.59 337.18 377.59 355.11 403 362.23 406.5" class="cls-18"/><polygon points="350 348.5 335.67 368.82 335.67 375.45 352.22 352 350 348.5" class="cls-17"/><polygon points="350 348.5 352.22 352 355.16 352 362.23 348.5 350 348.5" class="cls-18"/><polygon points="316.17 352 319.11 352 335.67 375.45 352.22 352 355.16 352 337.18 377.59 355.11 403 352.22 403 335.67 379.55 319.11 403 316.22 403 334.16 377.59 316.17 352" class="cls-19"/><polygon points="308.96 406.5 301.89 403 298.95 403 282.4 379.55 282.4 386.18 296.73 406.5 308.96 406.5" class="cls-16"/><polygon points="262.95 352 255.83 348.5 276.34 377.59 281.01 377.59 262.95 352" class="cls-16"/><polygon points="301.87 351.98 283.9 377.59 288.57 377.59 308.96 348.5 301.87 351.98" class="cls-17"/><polygon points="265.84 403 268.06 406.5 282.4 386.18 282.4 379.55 265.84 403" class="cls-17"/><polygon points="268.06 348.5 255.83 348.5 262.9 352 265.84 352 282.4 375.45 282.4 368.82 268.06 348.5" class="cls-18"/><polygon points="265.84 403 262.9 403 255.83 406.5 268.06 406.5 265.84 403" class="cls-16"/><polygon points="255.83 406.5 262.95 403 280.89 377.59 276.22 377.59 255.83 406.5" class="cls-17"/><polygon points="308.96 406.5 288.58 377.59 283.9 377.59 301.84 403 308.96 406.5" class="cls-18"/><polygon points="296.73 348.5 282.4 368.82 282.4 375.45 298.95 352 296.73 348.5" class="cls-17"/><polygon points="296.73 348.5 298.95 352 301.89 352 308.96 348.5 296.73 348.5" class="cls-18"/><polygon points="262.9 352 265.84 352 282.4 375.45 298.95 352 301.89 352 283.9 377.59 301.84 403 298.95 403 282.4 379.55 265.84 403 262.95 403 280.89 377.59 262.9 352" class="cls-19"/><polygon points="255.69 406.5 248.62 403 245.68 403 229.13 379.55 229.13 386.18 243.46 406.5 255.69 406.5" class="cls-16"/><polygon points="209.68 352 202.56 348.5 223.07 377.59 227.74 377.59 209.68 352" class="cls-16"/><polygon points="248.6 351.98 230.63 377.59 235.3 377.59 255.69 348.5 248.6 351.98" class="cls-17"/><polygon points="212.57 403 214.79 406.5 229.13 386.18 229.13 379.55 212.57 403" class="cls-17"/><polygon points="214.79 348.5 202.56 348.5 209.63 352 212.57 352 229.13 375.45 229.13 368.82 214.79 348.5" class="cls-18"/><polygon points="212.57 403 209.63 403 202.56 406.5 214.79 406.5 212.57 403" class="cls-16"/><polygon points="202.56 406.5 209.68 403 227.62 377.59 222.95 377.59 202.56 406.5" class="cls-17"/><polygon points="255.69 406.5 235.31 377.59 230.64 377.59 248.57 403 255.69 406.5" class="cls-18"/><polygon points="243.46 348.5 229.13 368.82 229.13 375.45 245.68 352 243.46 348.5" class="cls-17"/><polygon points="243.46 348.5 245.68 352 248.62 352 255.69 348.5 243.46 348.5" class="cls-18"/><polygon points="209.63 352 212.57 352 229.13 375.45 245.68 352 248.62 352 230.64 377.59 248.57 403 245.68 403 229.13 379.55 212.57 403 209.68 403 227.62 377.59 209.63 352" class="cls-19"/><polygon points="202.43 406.5 195.35 403 192.41 403 175.86 379.55 175.86 386.18 190.19 406.5 202.43 406.5" class="cls-16"/><polygon points="156.41 352 149.29 348.5 169.8 377.59 174.47 377.59 156.41 352" class="cls-16"/><polygon points="195.33 351.98 177.36 377.59 182.03 377.59 202.42 348.5 195.33 351.98" class="cls-17"/><polygon points="159.3 403 161.53 406.5 175.86 386.18 175.86 379.55 159.3 403" class="cls-17"/><polygon points="161.53 348.5 149.29 348.5 156.36 352 159.3 352 175.86 375.45 175.86 368.82 161.53 348.5" class="cls-18"/><polygon points="159.3 403 156.36 403 149.29 406.5 161.53 406.5 159.3 403" class="cls-16"/><polygon points="149.29 406.5 156.41 403 174.35 377.59 169.68 377.59 149.29 406.5" class="cls-17"/><polygon points="202.43 406.5 182.04 377.59 177.37 377.59 195.3 403 202.43 406.5" class="cls-18"/><polygon points="190.19 348.5 175.86 368.82 175.86 375.45 192.41 352 190.19 348.5" class="cls-17"/><polygon points="190.19 348.5 192.41 352 195.35 352 202.43 348.5 190.19 348.5" class="cls-18"/><polygon points="156.36 352 159.3 352 175.86 375.45 192.41 352 195.35 352 177.37 377.59 195.3 403 192.41 403 175.86 379.55 159.3 403 156.41 403 174.35 377.59 156.36 352" class="cls-19"/><polygon points="149.16 406.5 142.09 403 139.14 403 122.59 379.55 122.59 386.18 136.92 406.5 149.16 406.5" class="cls-16"/><polygon points="103.14 352 96.02 348.5 116.53 377.59 121.2 377.59 103.14 352" class="cls-16"/><polygon points="142.06 351.98 124.09 377.59 128.76 377.59 149.15 348.5 142.06 351.98" class="cls-17"/><polygon points="106.03 403 108.25 406.5 122.59 386.18 122.59 379.55 106.03 403" class="cls-17"/><polygon points="108.25 348.5 96.02 348.5 103.09 352 106.03 352 122.59 375.45 122.59 368.82 108.25 348.5" class="cls-18"/><polygon points="106.03 403 103.09 403 96.02 406.5 108.25 406.5 106.03 403" class="cls-16"/><polygon points="96.02 406.5 103.14 403 121.08 377.59 116.41 377.59 96.02 406.5" class="cls-17"/><polygon points="149.16 406.5 128.77 377.59 124.1 377.59 142.03 403 149.16 406.5" class="cls-18"/><polygon points="136.92 348.5 122.59 368.82 122.59 375.45 139.14 352 136.92 348.5" class="cls-17"/><polygon points="136.92 348.5 139.14 352 142.09 352 149.16 348.5 136.92 348.5" class="cls-18"/><polygon points="103.09 352 106.03 352 122.59 375.45 139.14 352 142.09 352 124.1 377.59 142.03 403 139.14 403 122.59 379.55 106.03 403 103.14 403 121.08 377.59 103.09 352" class="cls-19"/><polygon points="95.89 406.5 88.81 403 85.87 403 69.32 379.55 69.32 386.18 83.65 406.5 95.89 406.5" class="cls-16"/><polygon points="49.87 352 42.75 348.5 63.26 377.59 67.93 377.59 49.87 352" class="cls-16"/><polygon points="88.79 351.98 70.82 377.59 75.49 377.59 95.88 348.5 88.79 351.98" class="cls-17"/><polygon points="52.76 403 54.98 406.5 69.32 386.18 69.32 379.55 52.76 403" class="cls-17"/><polygon points="54.98 348.5 42.75 348.5 49.82 352 52.76 352 69.32 375.45 69.32 368.82 54.98 348.5" class="cls-18"/><polygon points="52.76 403 49.82 403 42.75 406.5 54.98 406.5 52.76 403" class="cls-16"/><polygon points="42.75 406.5 49.87 403 67.81 377.59 63.14 377.59 42.75 406.5" class="cls-17"/><polygon points="95.89 406.5 75.5 377.59 70.83 377.59 88.76 403 95.89 406.5" class="cls-18"/><polygon points="83.65 348.5 69.32 368.82 69.32 375.45 85.87 352 83.65 348.5" class="cls-17"/><polygon points="83.65 348.5 85.87 352 88.81 352 95.89 348.5 83.65 348.5" class="cls-18"/><polygon points="49.82 352 52.76 352 69.32 375.45 85.87 352 88.81 352 70.83 377.59 88.76 403 85.87 403 69.32 379.55 52.76 403 49.87 403 67.81 377.59 49.82 352" class="cls-19"/><path d="M227,477.29a1.9,1.9,0,0,0,.93,1.73,8.45,8.45,0,0,0,3.85.57v2.77H184.81v-2.77a9.35,9.35,0,0,0,4.24-1.49,11,11,0,0,0,2.65-3.8c.35-.77,1.24-2.85,2.65-6.23s3.27-7.63,5.57-12.78,4.86-10.86,7.69-17.16,5.65-12.71,8.48-19.24,5.61-12.9,8.35-19.12,5.17-11.78,7.3-16.7,3.84-8.91,5.17-12,2-4.68,2-4.84c0-.77-.57-1.3-1.72-1.61a25.75,25.75,0,0,0-3.58-.69v-2.76h69.2V364a15.7,15.7,0,0,0-3.45.69,2.14,2.14,0,0,0-1.32,2.3,47.35,47.35,0,0,0,2.52,6q2.5,5.54,6.49,14.4t9.15,20q5.18,11.17,10.74,22.81t10.74,22.69q5.16,11.06,9.41,19.81a22,22,0,0,0,3.57,5.53,5.38,5.38,0,0,0,3.85,1.38v2.77H302.26v-2.77q5-.22,5-2.76a27.28,27.28,0,0,0-1.33-3.11q-1.34-2.88-2.91-6.45c-1.06-2.38-2.09-4.64-3.06-6.8a30,30,0,0,1-1.72-4.37H235.45q-2.65,6.21-4.25,10.13c-1,2.61-1.9,4.69-2.51,6.22s-1.06,2.65-1.33,3.34A5,5,0,0,0,227,477.29Zm64.43-39.62-25.72-54.83-23.6,54.83Zm222.43-33.4a7.77,7.77,0,0,0,.4-1.51,11.84,11.84,0,0,0,.14-1.95c0-1.23-1.2-2.46-3.58-3.69a46.19,46.19,0,0,0-9.55-3.34,125,125,0,0,0-13.65-2.53,119.65,119.65,0,0,0-16.17-1,92.74,92.74,0,0,0-16.71,1.61,59.19,59.19,0,0,0-16,5.3,34.08,34.08,0,0,0-11.93,9.79,26.12,26.12,0,0,0,0,29.72,33.86,33.86,0,0,0,11.93,9.79,58.85,58.85,0,0,0,16,5.3,91.84,91.84,0,0,0,16.71,1.61,86.32,86.32,0,0,0,10.86-1,141.36,141.36,0,0,0,14.85-2.88,98.78,98.78,0,0,0,13.13-4.14c3.8-1.53,5.7-3.15,5.7-4.84a3,3,0,0,0-.53-1.84,13.62,13.62,0,0,1-1.06-1.61l2.91-1.62,27.31,36.17-3.18,1.61a2.67,2.67,0,0,0-1.46-1.49,6.48,6.48,0,0,0-2.25-.35c-1.24,0-3.71.66-7.43,2s-8.53,2.69-14.44,4.14S503,480.17,495,481.32a188.25,188.25,0,0,1-26.78,1.73,141.41,141.41,0,0,1-31.55-3.57,91.54,91.54,0,0,1-28.1-11.29,64.22,64.22,0,0,1-20.15-19.35q-7.69-11.62-7.69-27.07t7.69-27.07a64.44,64.44,0,0,1,20.15-19.35,98.45,98.45,0,0,1,28.1-11.63,129.53,129.53,0,0,1,31.55-3.92,216.19,216.19,0,0,1,27.44,1.5q11.55,1.5,19.49,3.34,7.68,1.85,11.93,3.11a24.51,24.51,0,0,0,6.37,1.27,5,5,0,0,0,4-1.85l2.92.69-23.87,38Zm96.51,75.32q5-.45,6.23-1.49a3.37,3.37,0,0,0,1.19-2.65V389.29h-45.6a3.93,3.93,0,0,0-3.18,1.26q-1.07,1.27-1.59,5.19h-3.19v-41h3.19c.35,2.62.88,4.34,1.59,5.19a3.91,3.91,0,0,0,3.18,1.27h131a3.94,3.94,0,0,0,3.18-1.27c.71-.85,1.24-2.57,1.59-5.19h3.18v41h-3.18q-.52-3.92-1.59-5.19a4,4,0,0,0-3.18-1.26h-45.6v86.16a3.37,3.37,0,0,0,1.19,2.65c.8.69,2.87,1.19,6.23,1.49v2.77H610.33Zm132.82,0q5-.45,6.23-1.49a3.34,3.34,0,0,0,1.19-2.65V368.09a3.32,3.32,0,0,0-1.19-2.64q-1.18-1-6.23-1.5v-2.76h54.62V364q-5,.46-6.23,1.5a3.33,3.33,0,0,0-1.2,2.64V475.45a3.35,3.35,0,0,0,1.2,2.65q1.19,1,6.23,1.49v2.77H743.15Zm140.79,0a11.44,11.44,0,0,0,3.18-.92,1.33,1.33,0,0,0,.8-1.15,30.23,30.23,0,0,0-2.13-4.72q-2.12-4.26-5.43-11.18T872.54,446q-4.51-8.74-9.15-18.2T854,409.1q-4.77-9.21-8.75-17t-6.76-13.6c-1.86-3.83-3.14-6.53-3.85-8.06a24.09,24.09,0,0,0-2.91-5.07,4.85,4.85,0,0,0-3.18-1.38v-2.76h54.35V364a10.07,10.07,0,0,0-4.25.92,2.13,2.13,0,0,0-1.06,1.84,8.45,8.45,0,0,0,1.2,2.88l5,9.33,11.13,20.74q7.29,13.59,19.75,37.09,11.94-22.81,19-36.29t10.87-20.61q3.84-7.16,4.9-9.8a12.17,12.17,0,0,0,1.06-3.57,2,2,0,0,0-.79-1.72,7,7,0,0,0-3.18-.81v-2.76h45.6V364a15.71,15.71,0,0,0-2.52.92,3.31,3.31,0,0,0-1.46,2.07q-.52,1.38-3.18,6.68t-6.49,13.13q-3.86,7.85-8.49,17.4t-9.54,19.46q-4.92,9.92-9.55,19.35t-8.22,16.82q-3.57,7.38-5.7,12.21a39.67,39.67,0,0,0-2.12,5.3c0,1.38,1.24,2.07,3.71,2.07v3H883.94Zm139.18,0q5-.45,6.24-1.49a3.37,3.37,0,0,0,1.19-2.65V368.09a3.35,3.35,0,0,0-1.19-2.64q-1.2-1-6.24-1.5v-2.76h54.62V364c-3.36.31-5.43.81-6.23,1.5a3.35,3.35,0,0,0-1.19,2.64V475.45a3.37,3.37,0,0,0,1.19,2.65c.8.69,2.87,1.19,6.23,1.49v2.77h-54.62Zm132.3,0q5-.45,6.23-1.49a3.35,3.35,0,0,0,1.2-2.65V389.29h-45.6a4,4,0,0,0-3.19,1.26c-.71.85-1.23,2.58-1.59,5.19h-3.18v-41h3.18c.36,2.62.88,4.34,1.59,5.19a3.94,3.94,0,0,0,3.19,1.27h131a3.94,3.94,0,0,0,3.18-1.27c.7-.85,1.23-2.57,1.59-5.19h3.18v41H1253q-.54-3.92-1.59-5.19a4,4,0,0,0-3.18-1.26h-45.6v86.16a3.34,3.34,0,0,0,1.19,2.65q1.18,1,6.23,1.49v2.77h-54.62Zm234.37-41.46a7,7,0,0,0-2.25-3.8q-1.72-1.5-5.7-1.5h-49.31v21.42h85.1a3.93,3.93,0,0,0,3.18-1.26q1.07-1.28,1.59-5.65h3.18v39.39h-3.18c-.35-2-.88-3.22-1.59-3.68a5.91,5.91,0,0,0-3.18-.69h-132.3v-2.77q5-.45,6.23-1.49a3.35,3.35,0,0,0,1.2-2.65V368.09a3.33,3.33,0,0,0-1.2-2.64q-1.18-1-6.23-1.5v-2.76h132.3a3.94,3.94,0,0,0,3.18-1.27c.71-.85,1.24-2.57,1.59-5.19h3.18v40.09h-3.18q-.53-3.92-1.59-5.19a3.93,3.93,0,0,0-3.18-1.26h-85.1v19.12h49.31q4,0,5.7-1.5a7,7,0,0,0,2.25-3.8H1393v35.94Zm84-2.54a14.93,14.93,0,0,0-.54,4.84q0,2.31,4.91,5.18a64.44,64.44,0,0,0,12.73,5.42,128.6,128.6,0,0,0,17.89,4.26,120.87,120.87,0,0,0,20.42,1.73q19.88,0,29.16-4t9.28-11.64q0-4.14-8.08-5.87a168,168,0,0,0-20.29-2.77q-12.19-1-26.25-2.3a149.42,149.42,0,0,1-26.24-4.61,56.75,56.75,0,0,1-20.29-9.67q-8.08-6.33-8.08-17.4a28.5,28.5,0,0,1,4.64-15.89,39.64,39.64,0,0,1,13-12.21,71.05,71.05,0,0,1,20.28-7.95,113.11,113.11,0,0,1,26.51-2.88,198,198,0,0,1,25.19,1.5q11.65,1.5,20.68,3.34t15.11,3.34a42.37,42.37,0,0,0,8.75,1.5,7.67,7.67,0,0,0,4.24-1,16.13,16.13,0,0,0,2.92-2.42l2.92.92-18.3,32-3.18-1.38v-2.53q0-2.07-5.17-4.26a75.12,75.12,0,0,0-13.12-3.92q-8-1.72-17.77-2.88a163,163,0,0,0-19.08-1.15q-17.25,0-24.13,3.46t-6.89,7.37q0,3.91,4.77,5.87a48.33,48.33,0,0,0,12.46,2.88q7.68.91,17.5,1.5c6.53.38,13.26,1,20.15,1.72s13.61,1.85,20.15,3.23a67.83,67.83,0,0,1,17.49,6.1,35.65,35.65,0,0,1,12.46,10.6q4.79,6.57,4.78,16.47a33.91,33.91,0,0,1-3.58,15q-3.59,7.38-12.2,13.24T1566,479.59q-14.46,3.46-35.93,3.46a257.56,257.56,0,0,1-28.76-1.38,189.33,189.33,0,0,1-20.55-3.34q-8.49-2-13.39-3.58a26.4,26.4,0,0,0-7.29-1.61,4.43,4.43,0,0,0-2.78.92c-.8.62-1.64,1.31-2.52,2.08l-3.19-.69,19.63-41Z" class="cls-20"/><path d="M1425.58,354.73v40.09h-3.18q-.53-3.92-1.59-5.19a3.93,3.93,0,0,0-3.18-1.26h-85.1v19.12h49.31q4,0,5.7-1.5a7,7,0,0,0,2.25-3.8H1393v35.94h-3.18a7,7,0,0,0-2.25-3.8q-1.72-1.5-5.7-1.5h-49.31v21.42h85.1a3.93,3.93,0,0,0,3.18-1.26q1.07-1.28,1.59-5.65h3.18v39.39h-3.18c-.35-2-.88-3.22-1.59-3.68a5.91,5.91,0,0,0-3.18-.69h-132.3v-2.77q5-.45,6.23-1.49a3.35,3.35,0,0,0,1.2-2.65V368.09a3.33,3.33,0,0,0-1.2-2.64q-1.18-1-6.23-1.5v-2.76h132.3a3.94,3.94,0,0,0,3.18-1.27c.71-.85,1.24-2.57,1.59-5.19h3.18m-169.41,0v41H1253q-.54-3.92-1.59-5.19a4,4,0,0,0-3.18-1.26h-45.6v86.16a3.34,3.34,0,0,0,1.19,2.65q1.18,1,6.23,1.49v2.77h-54.62v-2.77q5-.45,6.23-1.49a3.35,3.35,0,0,0,1.2-2.65V389.29h-45.6a4,4,0,0,0-3.19,1.26c-.71.85-1.23,2.58-1.59,5.19h-3.18v-41h3.18c.36,2.62.88,4.34,1.59,5.19a3.94,3.94,0,0,0,3.19,1.27h131a3.94,3.94,0,0,0,3.18-1.27c.7-.85,1.23-2.57,1.59-5.19h3.18m-545.1,0v41h-3.18q-.52-3.92-1.59-5.19a4,4,0,0,0-3.18-1.26h-45.6v86.16a3.37,3.37,0,0,0,1.19,2.65c.8.69,2.87,1.19,6.23,1.49v2.77H610.33v-2.77q5-.45,6.23-1.49a3.37,3.37,0,0,0,1.19-2.65V389.29h-45.6a3.93,3.93,0,0,0-3.18,1.26q-1.07,1.27-1.59,5.19h-3.19v-41h3.19c.35,2.62.88,4.34,1.59,5.19a3.91,3.91,0,0,0,3.18,1.27h131a3.92,3.92,0,0,0,3.18-1.27c.71-.85,1.24-2.57,1.59-5.19h3.18m811.81,5.07a198,198,0,0,1,25.19,1.5q11.65,1.5,20.68,3.34t15.11,3.34a42.37,42.37,0,0,0,8.75,1.5,7.67,7.67,0,0,0,4.24-1,16.13,16.13,0,0,0,2.92-2.42l2.92.92-18.3,32-3.18-1.38v-2.53q0-2.07-5.17-4.26a75.12,75.12,0,0,0-13.12-3.92q-8-1.72-17.77-2.88a163,163,0,0,0-19.08-1.15q-17.25,0-24.13,3.46t-6.89,7.37q0,3.91,4.77,5.87a48.33,48.33,0,0,0,12.46,2.88q7.68.91,17.5,1.5c6.53.38,13.26,1,20.15,1.72s13.61,1.85,20.15,3.23a67.83,67.83,0,0,1,17.49,6.1,35.65,35.65,0,0,1,12.46,10.6q4.79,6.57,4.78,16.47a33.91,33.91,0,0,1-3.58,15q-3.59,7.38-12.2,13.24T1566,479.59q-14.46,3.46-35.93,3.46a257.56,257.56,0,0,1-28.76-1.38,189.33,189.33,0,0,1-20.55-3.34q-8.49-2-13.39-3.58a26.4,26.4,0,0,0-7.29-1.61,4.43,4.43,0,0,0-2.78.92c-.8.62-1.64,1.31-2.52,2.08l-3.19-.69,19.63-41,2.65,1.15a14.93,14.93,0,0,0-.54,4.84q0,2.31,4.91,5.18a64.44,64.44,0,0,0,12.73,5.42,128.6,128.6,0,0,0,17.89,4.26,120.87,120.87,0,0,0,20.42,1.73q19.88,0,29.16-4t9.28-11.64q0-4.14-8.08-5.87a168,168,0,0,0-20.29-2.77q-12.19-1-26.25-2.3a149.42,149.42,0,0,1-26.24-4.61,56.75,56.75,0,0,1-20.29-9.67q-8.08-6.33-8.08-17.4a28.5,28.5,0,0,1,4.64-15.89,39.64,39.64,0,0,1,13-12.21,71.05,71.05,0,0,1,20.28-7.95,113.11,113.11,0,0,1,26.51-2.88m-1054.66,0a216.19,216.19,0,0,1,27.44,1.5q11.55,1.5,19.49,3.34,7.68,1.85,11.93,3.11a24.51,24.51,0,0,0,6.37,1.27,5,5,0,0,0,4-1.85l2.92.69-23.87,38-2.65-1.61a7.77,7.77,0,0,0,.4-1.51,11.84,11.84,0,0,0,.14-1.95c0-1.23-1.2-2.46-3.58-3.69a46.19,46.19,0,0,0-9.55-3.34,125,125,0,0,0-13.65-2.53,119.65,119.65,0,0,0-16.17-1,92.74,92.74,0,0,0-16.71,1.61,59.53,59.53,0,0,0-16,5.3,34.08,34.08,0,0,0-11.93,9.79,26.12,26.12,0,0,0,0,29.72,33.86,33.86,0,0,0,11.93,9.79,58.85,58.85,0,0,0,16,5.3,91.84,91.84,0,0,0,16.71,1.61,86.32,86.32,0,0,0,10.86-1,141.36,141.36,0,0,0,14.85-2.88,98.78,98.78,0,0,0,13.13-4.14c3.8-1.53,5.7-3.15,5.7-4.84a3,3,0,0,0-.53-1.84,13.62,13.62,0,0,1-1.06-1.61l2.91-1.62,27.31,36.17-3.18,1.61a2.67,2.67,0,0,0-1.46-1.49,6.48,6.48,0,0,0-2.25-.35c-1.24,0-3.71.66-7.43,2s-8.53,2.69-14.44,4.14S503,480.17,495,481.32a188.25,188.25,0,0,1-26.78,1.73,141.41,141.41,0,0,1-31.55-3.57,91.54,91.54,0,0,1-28.1-11.29,64.22,64.22,0,0,1-20.15-19.35q-7.69-11.62-7.69-27.07t7.69-27.07a64.44,64.44,0,0,1,20.15-19.35,98.45,98.45,0,0,1,28.1-11.63,129.53,129.53,0,0,1,31.55-3.92m609.52,1.39V364c-3.36.31-5.43.81-6.23,1.5a3.35,3.35,0,0,0-1.19,2.64V475.45a3.37,3.37,0,0,0,1.19,2.65c.8.69,2.87,1.19,6.23,1.49v2.77h-54.62v-2.77q5-.45,6.24-1.49a3.37,3.37,0,0,0,1.19-2.65V368.09a3.35,3.35,0,0,0-1.19-2.64q-1.2-1-6.24-1.5v-2.76h54.62m-85.63,0V364a15.71,15.71,0,0,0-2.52.92,3.31,3.31,0,0,0-1.46,2.07q-.52,1.38-3.18,6.68t-6.49,13.13q-3.86,7.85-8.49,17.4t-9.54,19.46q-4.92,9.92-9.55,19.35t-8.22,16.82q-3.57,7.38-5.7,12.21a39.67,39.67,0,0,0-2.12,5.3c0,1.38,1.24,2.07,3.71,2.07v3H883.94v-2.77a11.44,11.44,0,0,0,3.18-.92,1.33,1.33,0,0,0,.8-1.15,29.13,29.13,0,0,0-2.13-4.72q-2.12-4.26-5.43-11.18T872.54,446q-4.51-8.74-9.15-18.2T854,409.1q-4.77-9.21-8.75-17t-6.76-13.6c-1.86-3.83-3.14-6.53-3.85-8.06a24.09,24.09,0,0,0-2.91-5.07,4.85,4.85,0,0,0-3.18-1.38v-2.76h54.35V364a10.07,10.07,0,0,0-4.25.92,2.13,2.13,0,0,0-1.06,1.84,8.45,8.45,0,0,0,1.2,2.88l5,9.33,11.13,20.74q7.29,13.59,19.75,37.09,11.94-22.81,19-36.29t10.87-20.61q3.84-7.16,4.9-9.8a12.17,12.17,0,0,0,1.06-3.57,2,2,0,0,0-.79-1.72,7,7,0,0,0-3.18-.81v-2.76h45.6m-194.34,0V364q-5,.46-6.23,1.5a3.33,3.33,0,0,0-1.2,2.64V475.45a3.35,3.35,0,0,0,1.2,2.65q1.19,1,6.23,1.49v2.77H743.15v-2.77q5-.45,6.23-1.49a3.34,3.34,0,0,0,1.19-2.65V368.09a3.32,3.32,0,0,0-1.19-2.64q-1.18-1-6.23-1.5v-2.76h54.62m-495,0V364a15.7,15.7,0,0,0-3.45.69,2.14,2.14,0,0,0-1.32,2.3,47.35,47.35,0,0,0,2.52,6q2.5,5.54,6.49,14.4t9.15,20q5.18,11.17,10.74,22.81t10.74,22.69q5.16,11.06,9.41,19.81a22,22,0,0,0,3.57,5.53,5.38,5.38,0,0,0,3.85,1.38v2.77H302.26v-2.77q5-.22,5-2.76a27.28,27.28,0,0,0-1.33-3.11q-1.34-2.88-2.91-6.45c-1.06-2.38-2.09-4.64-3.05-6.8a29.29,29.29,0,0,1-1.73-4.37H235.45q-2.65,6.21-4.25,10.13c-1,2.61-1.9,4.69-2.51,6.22s-1.06,2.65-1.33,3.34a5,5,0,0,0-.4,1.5,1.9,1.9,0,0,0,.93,1.73,8.31,8.31,0,0,0,3.85.57v2.77H184.81v-2.77a9.35,9.35,0,0,0,4.24-1.49,11,11,0,0,0,2.65-3.8c.35-.77,1.24-2.85,2.65-6.23s3.27-7.63,5.57-12.78,4.86-10.86,7.69-17.16,5.65-12.71,8.48-19.24,5.61-12.9,8.35-19.12,5.17-11.78,7.3-16.7,3.84-8.91,5.17-12,2-4.68,2-4.84c0-.77-.57-1.3-1.72-1.61a25.75,25.75,0,0,0-3.58-.69v-2.76h69.2m-60.72,76.48h49.32l-25.72-54.83-23.6,54.83M1425.58,348h-3.18a6.75,6.75,0,0,0-6.68,5.84c0,.23-.06.43-.09.62h-130.3a6.74,6.74,0,0,0-6.74,6.74V364a6.73,6.73,0,0,0,6.13,6.71l1.3.14V472.74c-.38.05-.81.1-1.3.14a6.75,6.75,0,0,0-6.13,6.71v2.77a6.74,6.74,0,0,0,6.74,6.74h130.76a6.75,6.75,0,0,0,6.31,4.38h3.18a6.74,6.74,0,0,0,6.74-6.75V447.34a6.74,6.74,0,0,0-6.74-6.74h-3.18a6.74,6.74,0,0,0-6.69,5.93c0,.37-.09.7-.13,1h-76.31v-7.94h42.57a8.35,8.35,0,0,1,1.39.09h0a6.74,6.74,0,0,0,6.56,5.21H1393a6.74,6.74,0,0,0,6.74-6.74V402.19a6.74,6.74,0,0,0-6.74-6.74h-3.18a6.74,6.74,0,0,0-6.56,5.21,9.63,9.63,0,0,1-1.39.09h-42.57v-5.64h76.36c0,.18.06.39.09.61a6.75,6.75,0,0,0,6.68,5.84h3.18a6.74,6.74,0,0,0,6.74-6.74V354.73a6.74,6.74,0,0,0-6.74-6.74Zm-169.41,0H1253a6.74,6.74,0,0,0-6.68,5.84c0,.23-.06.43-.09.62h-127c0-.19-.06-.39-.09-.62a6.74,6.74,0,0,0-6.68-5.84h-3.18a6.74,6.74,0,0,0-6.74,6.74v41a6.74,6.74,0,0,0,6.74,6.74h3.18a6.73,6.73,0,0,0,6.68-5.84c0-.22.06-.42.09-.61h36.87v76.71c-.37.05-.8.1-1.3.14a6.75,6.75,0,0,0-6.13,6.71v2.77a6.74,6.74,0,0,0,6.74,6.74H1210a6.74,6.74,0,0,0,6.74-6.74v-2.77a6.75,6.75,0,0,0-6.13-6.71c-.49,0-.92-.09-1.29-.14V396h36.86c0,.19.06.39.09.61a6.73,6.73,0,0,0,6.68,5.84h3.18a6.74,6.74,0,0,0,6.74-6.74v-41a6.74,6.74,0,0,0-6.74-6.74Zm-545.1,0h-3.18a6.75,6.75,0,0,0-6.68,5.84c0,.23-.06.43-.09.62h-127c0-.19-.06-.39-.09-.62a6.75,6.75,0,0,0-6.68-5.84h-3.19a6.74,6.74,0,0,0-6.74,6.74v41a6.74,6.74,0,0,0,6.74,6.74h3.19a6.75,6.75,0,0,0,6.68-5.84c0-.22.06-.42.09-.61H611v76.71c-.37.05-.8.1-1.3.14a6.74,6.74,0,0,0-6.12,6.71v2.77a6.74,6.74,0,0,0,6.74,6.74h54.61a6.74,6.74,0,0,0,6.74-6.74v-2.77a6.74,6.74,0,0,0-6.12-6.71c-.5,0-.93-.09-1.3-.14V396h36.86c0,.19.06.39.09.61a6.74,6.74,0,0,0,6.68,5.84h3.18a6.74,6.74,0,0,0,6.74-6.74v-41a6.74,6.74,0,0,0-6.74-6.74Zm811.81,5.07a120.16,120.16,0,0,0-28.09,3.07,78.06,78.06,0,0,0-22.2,8.74,46.41,46.41,0,0,0-15.14,14.3,35.23,35.23,0,0,0-5.73,19.56c0,9.39,3.69,17.24,10.67,22.71a56,56,0,0,0,10.84,6.58,6.53,6.53,0,0,0-2-.32,6.76,6.76,0,0,0-6.09,3.83l-19.62,41a6.74,6.74,0,0,0,4.65,9.49l3.19.69a6.27,6.27,0,0,0,1.43.16,6.79,6.79,0,0,0,4.42-1.65c.51-.45,1-.88,1.52-1.28a29.79,29.79,0,0,1,4.55,1.21c3.48,1.15,8.06,2.37,14,3.73a192.64,192.64,0,0,0,21.29,3.47,264.28,264.28,0,0,0,29.53,1.43c14.77,0,27.38-1.23,37.49-3.64,10.39-2.48,18.9-6,25.3-10.32,6.7-4.57,11.57-9.91,14.46-15.87a40.68,40.68,0,0,0,4.26-17.92c0-8-2-14.9-6.06-20.43a42.39,42.39,0,0,0-14.78-12.6,67.39,67.39,0,0,0-7.9-3.49,7,7,0,0,0,1.58.19,6.73,6.73,0,0,0,5.85-3.4l18.3-32a6.73,6.73,0,0,0-3.82-9.77l-2.91-.93a6.83,6.83,0,0,0-2-.31,6.74,6.74,0,0,0-4.87,2.08,8.87,8.87,0,0,1-1.56,1.32,3.94,3.94,0,0,1-.73.06,35.56,35.56,0,0,1-7.13-1.3c-4.11-1-9.28-2.16-15.37-3.41s-13.27-2.4-21.18-3.42a206.11,206.11,0,0,0-26-1.55Zm-20,40.45a18,18,0,0,1,2.07-1.19c2-1,7.49-2.74,21.11-2.74a158.8,158.8,0,0,1,18.3,1.1c6.32.75,12.08,1.68,17.12,2.78a69.92,69.92,0,0,1,11.92,3.53c.43.18.78.34,1.06.49v.1a6.74,6.74,0,0,0,4,6.18l2.88,1.25a81.41,81.41,0,0,0-9.93-2.73c-6.68-1.42-13.67-2.54-20.79-3.33s-13.9-1.37-20.5-1.76c-6.32-.37-12.07-.86-17.1-1.46a44.9,44.9,0,0,1-10.19-2.22Zm-22.7,44.33a6.74,6.74,0,0,0-3.22-8.21,77.26,77.26,0,0,0,8.08,2.67,156.37,156.37,0,0,0,27.42,4.82c8.83.8,17.67,1.58,26.28,2.31a160.39,160.39,0,0,1,19.45,2.64,17.5,17.5,0,0,1,2.52.71c-.42,1.1-1.61,2.56-5,4-3.65,1.59-11.2,3.48-26.48,3.48a114.64,114.64,0,0,1-19.28-1.63,123.69,123.69,0,0,1-17-4,58.59,58.59,0,0,1-11.4-4.82,17.63,17.63,0,0,1-1.53-1,8,8,0,0,1,.1-1Zm-1012-84.78A136.87,136.87,0,0,0,435,357.18a105.61,105.61,0,0,0-30,12.44A71.41,71.41,0,0,0,382.8,391C377,399.82,374,410.18,374,421.77s3,22,8.81,30.79A71.38,71.38,0,0,0,405,473.92a98.86,98.86,0,0,0,30.15,12.13,148.56,148.56,0,0,0,33.05,3.74A194.54,194.54,0,0,0,496,488c8.14-1.18,15.36-2.54,21.47-4s11.19-3,15.08-4.34c2.29-.8,3.67-1.2,4.45-1.39a7,7,0,0,0,2.22,1.29,6.81,6.81,0,0,0,5.26-.35l3.18-1.62A6.74,6.74,0,0,0,550,467.47L522.65,431.3a6.72,6.72,0,0,0-8.64-1.83l-2.92,1.61a6.73,6.73,0,0,0-3.18,7.86l-.18.07a91.49,91.49,0,0,1-12.23,3.86,136.55,136.55,0,0,1-14.16,2.75,80.2,80.2,0,0,1-9.93,1,85.24,85.24,0,0,1-15.48-1.5,52.75,52.75,0,0,1-14.23-4.68,27.07,27.07,0,0,1-9.6-7.86,19.4,19.4,0,0,1,0-21.56,27,27,0,0,1,9.6-7.85,52.42,52.42,0,0,1,14.23-4.69,86.57,86.57,0,0,1,15.48-1.5,114.4,114.4,0,0,1,15.27,1,117.61,117.61,0,0,1,12.91,2.39,41.91,41.91,0,0,1,7.64,2.56,6.73,6.73,0,0,0,3.09,7.14l2.65,1.62a6.74,6.74,0,0,0,9.21-2.18l23.87-38a6.75,6.75,0,0,0-4.16-10.14l-2.91-.69a6.4,6.4,0,0,0-1.56-.19,6.77,6.77,0,0,0-4.57,1.79,26.62,26.62,0,0,1-3.83-.93c-3-.88-7.09-2-12.29-3.21h-.06c-5.5-1.27-12.28-2.43-20.14-3.45a224.4,224.4,0,0,0-28.31-1.56Zm609.52,1.39h-54.62a6.74,6.74,0,0,0-6.74,6.74V364a6.73,6.73,0,0,0,6.13,6.71c.5,0,.93.09,1.3.14V472.74c-.37.05-.8.1-1.3.14a6.75,6.75,0,0,0-6.13,6.71v2.77a6.74,6.74,0,0,0,6.74,6.74h54.62a6.74,6.74,0,0,0,6.74-6.74v-2.77a6.74,6.74,0,0,0-6.13-6.71c-.49,0-.92-.09-1.29-.14V370.8l1.29-.14a6.72,6.72,0,0,0,6.13-6.71v-2.76a6.74,6.74,0,0,0-6.74-6.74Zm-85.63,0h-45.6a6.73,6.73,0,0,0-6.74,6.74V364a6.72,6.72,0,0,0,2.62,5.34c-.68,1.41-1.84,3.7-3.81,7.36-2.61,4.85-6.28,11.81-10.91,20.7q-5.17,9.93-13,24.94c-5.37-10.11-10-18.76-13.77-25.82l-11.14-20.74-.65-1.21-2.62-4.86a6.75,6.75,0,0,0,3.15-5.71v-2.76a6.74,6.74,0,0,0-6.74-6.74H828.53a6.73,6.73,0,0,0-6.74,6.74V364a6.73,6.73,0,0,0,5.34,6.59c.3.53.76,1.39,1.39,2.71.7,1.54,1.94,4.13,3.88,8.15,1.85,3.83,4.15,8.44,6.82,13.71s5.62,11,8.78,17.09,6.24,12.22,9.34,18.53,6.26,12.6,9.21,18.32,5.58,11,7.73,15.49c2,4.2,3.64,7.56,5,10.22a6.72,6.72,0,0,0-2,4.83v2.77a6.74,6.74,0,0,0,6.74,6.74h54.61a6.74,6.74,0,0,0,6.74-6.74v-3a6.71,6.71,0,0,0-2.07-4.86c1.35-3.08,3.16-6.93,5.51-11.77,2.63-5.42,5.39-11.07,8.2-16.79,3-6,6.08-12.35,9.54-19.34,3.1-6.27,6.23-12.65,9.57-19.51,3.05-6.3,5.9-12.14,8.47-17.36s4.7-9.56,6.47-13.09c1.69-3.38,2.54-5.18,3-6.21h0a6.74,6.74,0,0,0,4.87-6.47v-2.76a6.74,6.74,0,0,0-6.74-6.74Zm-194.34,0H743.15a6.74,6.74,0,0,0-6.74,6.74V364a6.73,6.73,0,0,0,6.13,6.71l1.29.14V472.74c-.37.05-.8.1-1.29.14a6.75,6.75,0,0,0-6.13,6.71v2.77a6.74,6.74,0,0,0,6.74,6.74h54.62a6.74,6.74,0,0,0,6.74-6.74v-2.77a6.75,6.75,0,0,0-6.13-6.71c-.49,0-.92-.09-1.3-.14V370.8l1.3-.14a6.73,6.73,0,0,0,6.13-6.71v-2.76a6.74,6.74,0,0,0-6.74-6.74Zm-495,0h-69.2a6.74,6.74,0,0,0-6.74,6.74V364a6.73,6.73,0,0,0,3.3,5.79q-1.86,4.32-4.6,10.66c-2.07,4.79-4.52,10.4-7.27,16.65s-5.62,12.81-8.37,19.17-5.59,12.78-8.45,19.15-5.4,12-7.69,17.17-4.22,9.55-5.64,12.93c-1.65,3.95-2.29,5.43-2.53,6a11.1,11.1,0,0,1-.7,1.26,8.89,8.89,0,0,1-1.14.25,6.73,6.73,0,0,0-5.69,6.65v2.77a6.74,6.74,0,0,0,6.74,6.74h46.93a6.74,6.74,0,0,0,6.74-6.74v-2.77a6.73,6.73,0,0,0-3.12-5.68c.48-1.17,1-2.58,1.72-4.23l.37-.91c.7-1.72,1.52-3.71,2.46-5.93h53.77l.19.42.35.79c.86,1.9,1.75,3.88,2.68,6l1.74,3.89a6.75,6.75,0,0,0-3.12,5.69v2.77a6.74,6.74,0,0,0,6.74,6.74h52.23a6.74,6.74,0,0,0,6.74-6.74v-2.77a6.74,6.74,0,0,0-6.29-6.72,28.55,28.55,0,0,1-1.84-3.19c-2.77-5.73-5.83-12.16-9.34-19.66s-7.13-15.15-10.76-22.75-7.23-15.21-10.7-22.73-6.52-14.16-9.12-20c-2.78-6.2-4.91-10.92-6.51-14.43-.08-.18-.16-.35-.23-.52a6.74,6.74,0,0,0,3.09-5.67v-2.76a6.74,6.74,0,0,0-6.74-6.74Zm-50.48,76.48,13.63-31.66,14.84,31.66Z" class="cls-5"/><g class="cls-1"><path d="M708.07,362.4v25.67a7,7,0,0,0-5-1.78h-48.6v89.16a6.37,6.37,0,0,0,1.28,3.91H619.47a6.37,6.37,0,0,0,1.28-3.91V386.29h-48.6a7,7,0,0,0-5,1.78V362.4a7,7,0,0,0,5,1.79h131a7,7,0,0,0,5-1.79m714.51,0v24.75a7,7,0,0,0-4.95-1.78h-88.1v25.12h52.31c3.43,0,5.94-.73,7.67-2.23l.46-.44V432.5l-.47-.44c-1.73-1.5-4.24-2.23-7.66-2.23h-52.31v27.42h88.1a7,7,0,0,0,4.95-1.78v25.16l-.13-.09a8.56,8.56,0,0,0-4.82-1.18H1294.47a6.31,6.31,0,0,0,1.29-3.91V368.09a6.26,6.26,0,0,0-1.29-3.9h123.16a7,7,0,0,0,4.95-1.79m-169.41,0v25.67a7,7,0,0,0-5-1.78h-48.6v89.16a6.37,6.37,0,0,0,1.28,3.91h-36.34a6.31,6.31,0,0,0,1.29-3.91V386.29h-48.6a7,7,0,0,0-5,1.78V362.4a7,7,0,0,0,5,1.79h131a7,7,0,0,0,5-1.79m269.71.4a195.78,195.78,0,0,1,24.81,1.48c7.67,1,14.56,2.09,20.46,3.3s11,2.34,15,3.31a43.7,43.7,0,0,0,9.46,1.59,12.3,12.3,0,0,0,3.77-.54L1584,393.61c-.87-2.77-4.19-4.49-6.78-5.58a78,78,0,0,0-13.65-4.09c-5.35-1.16-11.42-2.15-18.06-2.93a167.08,167.08,0,0,0-19.43-1.17c-12.09,0-20.42,1.23-25.47,3.77-5.68,2.84-8.55,6.23-8.55,10.06,0,2.7,1.15,6.4,6.63,8.65a52,52,0,0,0,13.24,3.08c5.23.62,11.18,1.13,17.68,1.51s13.17,1,20,1.71,13.49,1.84,19.87,3.19a64.78,64.78,0,0,1,16.72,5.82,32.69,32.69,0,0,1,11.43,9.71c2.78,3.83,4.2,8.78,4.2,14.7a31.06,31.06,0,0,1-3.28,13.67c-2.14,4.41-5.91,8.47-11.19,12.07s-12.84,6.69-22.07,8.9-21.22,3.37-35.23,3.37a256.74,256.74,0,0,1-28.42-1.36,186,186,0,0,1-20.22-3.29c-5.54-1.27-10-2.45-13.13-3.5a28.26,28.26,0,0,0-8.22-1.76,7.61,7.61,0,0,0-2.88.55l13.52-28.26c1,2.57,3.79,4.48,6,5.77a67.7,67.7,0,0,0,13.32,5.68,130.39,130.39,0,0,0,18.31,4.36,123.8,123.8,0,0,0,20.93,1.78c13.8,0,23.73-1.4,30.35-4.28,9.17-4,11.09-10,11.09-14.39s-3.52-7.32-10.46-8.81a171.69,171.69,0,0,0-20.65-2.82c-8.67-.73-17.5-1.51-26.24-2.3a147.72,147.72,0,0,1-25.72-4.51,54.09,54.09,0,0,1-19.23-9.15c-4.67-3.65-6.93-8.56-6.93-15a25.48,25.48,0,0,1,4.15-14.26,37,37,0,0,1,12-11.28,68.61,68.61,0,0,1,19.42-7.59,110.53,110.53,0,0,1,25.81-2.8m-1054.66,0a214.21,214.21,0,0,1,27.06,1.48c7.55,1,14,2.08,19.17,3.27s9,2.25,11.77,3.07a26.9,26.9,0,0,0,7.23,1.4c.25,0,.51,0,.76,0L517.1,399.23c-.89-2.67-3.86-4.21-5-4.77A47.76,47.76,0,0,0,502,390.87a129.47,129.47,0,0,0-14-2.6,125.55,125.55,0,0,0-16.57-1.06,96.17,96.17,0,0,0-17.25,1.66,62.06,62.06,0,0,0-16.85,5.58,37,37,0,0,0-13,10.65,29.09,29.09,0,0,0,0,33.34,37,37,0,0,0,13,10.66,62.27,62.27,0,0,0,16.85,5.57,95.65,95.65,0,0,0,17.25,1.66,91,91,0,0,0,11.28-1.06,149.94,149.94,0,0,0,15.15-2.94,103.28,103.28,0,0,0,13.53-4.28c1.62-.65,6.09-2.46,7.28-5.88l19.75,26.15-.71,0c-1.1,0-3,.24-8.43,2.13-3.59,1.27-8.35,2.63-14.16,4.06s-12.71,2.73-20.53,3.86a185.46,185.46,0,0,1-26.35,1.7,138.67,138.67,0,0,1-30.88-3.5,88.77,88.77,0,0,1-27.19-10.91,61.65,61.65,0,0,1-19.23-18.46c-4.77-7.2-7.19-15.75-7.19-25.41s2.42-18.2,7.19-25.41a61.87,61.87,0,0,1,19.23-18.46,95.8,95.8,0,0,1,27.25-11.27,127,127,0,0,1,30.82-3.83m600.38,1.39a6.32,6.32,0,0,0-1.28,3.9V475.45a6.37,6.37,0,0,0,1.28,3.91h-36.33a6.37,6.37,0,0,0,1.28-3.91V368.09a6.32,6.32,0,0,0-1.28-3.9h36.33m-82.49,0a8.39,8.39,0,0,0-.8,1.73c-.22.55-.9,2.08-3,6.36-1.76,3.52-3.95,8-6.51,13.15s-5.43,11.11-8.49,17.41c-3.33,6.86-6.45,13.22-9.53,19.44-3.46,7-6.58,13.31-9.55,19.36-2.81,5.72-5.58,11.38-8.22,16.83-2.46,5.07-4.35,9.1-5.75,12.32-2.38,5.4-2.38,5.82-2.38,6.5a5.13,5.13,0,0,0,.45,2.07H890.48a4,4,0,0,0,.44-1.84c0-.82-.1-1.34-2.44-6.06-1.38-2.76-3.15-6.4-5.42-11.13-2.19-4.57-4.83-9.87-7.86-15.75-2.92-5.66-6-11.77-9.12-18.14s-6.3-12.67-9.44-18.72-6.08-11.8-8.74-17-4.91-9.77-6.73-13.54c-1.9-3.93-3.15-6.55-3.84-8.05a33.29,33.29,0,0,0-2.71-4.92h40.61a5,5,0,0,0-.66,2.52c0,1.05.44,2.26,1.56,4.31q1.07,2,4.18,7.74l.85,1.58,11.14,20.73c5.11,9.55,11.76,22,19.74,37.08l2.67,5,2.64-5q11.94-22.81,19-36.29c4.61-8.85,8.26-15.77,10.85-20.58s4.28-8.2,5.05-10.1a13.71,13.71,0,0,0,1.27-4.69,5.37,5.37,0,0,0-.49-2.29h33.12m-197.48,0a6.26,6.26,0,0,0-1.29,3.9V475.45a6.31,6.31,0,0,0,1.29,3.91H752.29a6.31,6.31,0,0,0,1.28-3.91V368.09a6.26,6.26,0,0,0-1.28-3.9h36.34m-493,0a6.1,6.1,0,0,0-.59,2.75c0,.75,0,1.12,2.79,7.23,1.59,3.52,3.66,8.09,6.49,14.39,2.61,5.84,5.61,12.4,9.16,20.07s7.11,15.24,10.75,22.85,7.23,15.19,10.73,22.66,6.63,14.07,9.43,19.85v.06a31.73,31.73,0,0,0,3.25,5.31h-38a5.24,5.24,0,0,0,.63-2.53c0-.75-.12-1.14-1.61-4.37-.86-1.87-1.83-4-2.89-6.41-.95-2.13-1.87-4.16-2.75-6.11l-.31-.7a25.62,25.62,0,0,1-1.53-3.8l-.53-2.34H233.46l-.77,1.82c-1.7,4-3.13,7.4-4.27,10.19l-.42,1q-1.29,3.19-2.1,5.18c-.63,1.56-1.07,2.68-1.34,3.39a7.26,7.26,0,0,0-.6,2.57,5.24,5.24,0,0,0,.42,2.07H192a16.5,16.5,0,0,0,2.36-3.76l0,0v0c.36-.79,1.22-2.79,2.69-6.31,1.38-3.31,3.25-7.59,5.54-12.72s4.86-10.85,7.69-17.15,5.73-12.9,8.5-19.28,5.53-12.73,8.34-19.1,5.2-11.85,7.3-16.72,3.85-8.91,5.17-12c2.23-5.18,2.23-5.31,2.23-6a4.37,4.37,0,0,0-.53-2.06h54.25m-58.09,76.48h58.59l-2-4.28-25.72-54.82-2.84-6.05-2.63,6.13-23.6,54.83-1.8,4.19m1188.06-85.94h-3.18c-.35,2.62-.88,4.34-1.59,5.19a3.94,3.94,0,0,1-3.18,1.27h-132.3V364q5,.46,6.23,1.5a3.33,3.33,0,0,1,1.2,2.64V475.45a3.35,3.35,0,0,1-1.2,2.65q-1.18,1-6.23,1.49v2.77h132.3a5.91,5.91,0,0,1,3.18.69c.71.46,1.24,1.69,1.59,3.68h3.18V447.34h-3.18q-.53,4.38-1.59,5.65a3.93,3.93,0,0,1-3.18,1.26h-85.1V432.83h49.31q4,0,5.7,1.5a7,7,0,0,1,2.25,3.8H1393V402.19h-3.18a7,7,0,0,1-2.25,3.8q-1.72,1.5-5.7,1.5h-49.31V388.37h85.1a3.93,3.93,0,0,1,3.18,1.26q1.07,1.28,1.59,5.19h3.18V354.73Zm-169.41,0H1253c-.36,2.62-.89,4.34-1.59,5.19a3.94,3.94,0,0,1-3.18,1.27h-131a3.94,3.94,0,0,1-3.19-1.27c-.71-.85-1.23-2.57-1.59-5.19h-3.18v41h3.18c.36-2.61.88-4.34,1.59-5.19a4,4,0,0,1,3.19-1.26h45.6v86.16a3.35,3.35,0,0,1-1.2,2.65q-1.19,1-6.23,1.49v2.77H1210v-2.77q-5-.45-6.23-1.49a3.34,3.34,0,0,1-1.19-2.65V389.29h45.6a4,4,0,0,1,3.18,1.26q1,1.27,1.59,5.19h3.18v-41Zm-545.1,0h-3.18c-.35,2.62-.88,4.34-1.59,5.19a3.94,3.94,0,0,1-3.18,1.27h-131a3.91,3.91,0,0,1-3.18-1.27c-.71-.85-1.24-2.57-1.59-5.19h-3.19v41h3.19q.52-3.92,1.59-5.19a3.93,3.93,0,0,1,3.18-1.26h45.6v86.16a3.37,3.37,0,0,1-1.19,2.65q-1.2,1-6.23,1.49v2.77h54.61v-2.77c-3.36-.3-5.43-.8-6.23-1.49a3.37,3.37,0,0,1-1.19-2.65V389.29h45.6a4,4,0,0,1,3.18,1.26q1.07,1.27,1.59,5.19h3.18v-41Zm811.81,5.07a113.11,113.11,0,0,0-26.51,2.88,71.05,71.05,0,0,0-20.28,7.95,39.64,39.64,0,0,0-13,12.21,28.5,28.5,0,0,0-4.64,15.89q0,11.07,8.08,17.4a56.75,56.75,0,0,0,20.29,9.67,149.42,149.42,0,0,0,26.24,4.61q14.06,1.27,26.25,2.3a168,168,0,0,1,20.29,2.77q8.07,1.72,8.08,5.87,0,7.61-9.28,11.64t-29.16,4a120.87,120.87,0,0,1-20.42-1.73,128.6,128.6,0,0,1-17.89-4.26,64.44,64.44,0,0,1-12.73-5.42q-4.9-2.87-4.91-5.18a14.93,14.93,0,0,1,.54-4.84l-2.65-1.15-19.63,41,3.19.69c.88-.77,1.72-1.46,2.52-2.08a4.43,4.43,0,0,1,2.78-.92,26.4,26.4,0,0,1,7.29,1.61q4.9,1.62,13.39,3.58a189.33,189.33,0,0,0,20.55,3.34,257.56,257.56,0,0,0,28.76,1.38q21.48,0,35.93-3.46t23.06-9.33q8.63-5.86,12.2-13.24a33.91,33.91,0,0,0,3.58-15q0-9.9-4.78-16.47a35.65,35.65,0,0,0-12.46-10.6,67.83,67.83,0,0,0-17.49-6.1q-9.81-2.07-20.15-3.23c-6.89-.76-13.62-1.34-20.15-1.72s-12.38-.89-17.5-1.5a48.33,48.33,0,0,1-12.46-2.88q-4.77-1.95-4.77-5.87t6.89-7.37q6.88-3.46,24.13-3.46a163,163,0,0,1,19.08,1.15q9.81,1.15,17.77,2.88a75.12,75.12,0,0,1,13.12,3.92q5.18,2.19,5.17,4.26v2.53l3.18,1.38,18.3-32-2.92-.92a16.13,16.13,0,0,1-2.92,2.42,7.67,7.67,0,0,1-4.24,1,42.37,42.37,0,0,1-8.75-1.5q-6.09-1.5-15.11-3.34t-20.68-3.34a198,198,0,0,0-25.19-1.5Zm-1054.66,0a129.53,129.53,0,0,0-31.55,3.92,98.45,98.45,0,0,0-28.1,11.63,64.44,64.44,0,0,0-20.15,19.35q-7.69,11.64-7.69,27.07t7.69,27.07a64.22,64.22,0,0,0,20.15,19.35,91.54,91.54,0,0,0,28.1,11.29,141.41,141.41,0,0,0,31.55,3.57A188.25,188.25,0,0,0,495,481.32q11.92-1.72,20.82-3.92t14.44-4.14c3.72-1.3,6.19-2,7.43-2a6.48,6.48,0,0,1,2.25.35,2.67,2.67,0,0,1,1.46,1.49l3.18-1.61-27.31-36.17L514.36,437a13.62,13.62,0,0,0,1.06,1.61,3,3,0,0,1,.53,1.84c0,1.69-1.9,3.31-5.7,4.84a98.78,98.78,0,0,1-13.13,4.14,141.36,141.36,0,0,1-14.85,2.88,86.32,86.32,0,0,1-10.86,1,91.84,91.84,0,0,1-16.71-1.61,58.85,58.85,0,0,1-16-5.3,33.86,33.86,0,0,1-11.93-9.79,26.12,26.12,0,0,1,0-29.72,34.08,34.08,0,0,1,11.93-9.79,59.53,59.53,0,0,1,16-5.3,92.74,92.74,0,0,1,16.71-1.61,119.65,119.65,0,0,1,16.17,1,125,125,0,0,1,13.65,2.53,46.19,46.19,0,0,1,9.55,3.34c2.38,1.23,3.58,2.46,3.58,3.69a11.84,11.84,0,0,1-.14,1.95,7.77,7.77,0,0,1-.4,1.51l2.65,1.61,23.87-38-2.92-.69a5,5,0,0,1-4,1.85,24.51,24.51,0,0,1-6.37-1.27q-4.25-1.26-11.93-3.11-7.95-1.84-19.49-3.34a216.19,216.19,0,0,0-27.44-1.5Zm609.52,1.39h-54.62V364q5,.46,6.24,1.5a3.35,3.35,0,0,1,1.19,2.64V475.45a3.37,3.37,0,0,1-1.19,2.65q-1.2,1-6.24,1.49v2.77h54.62v-2.77c-3.36-.3-5.43-.8-6.23-1.49a3.37,3.37,0,0,1-1.19-2.65V368.09a3.35,3.35,0,0,1,1.19-2.64c.8-.69,2.87-1.19,6.23-1.5v-2.76Zm-85.63,0h-45.6V364a7,7,0,0,1,3.18.81,2,2,0,0,1,.79,1.72,12.17,12.17,0,0,1-1.06,3.57q-1.06,2.65-4.9,9.8t-10.87,20.61q-7,13.49-19,36.29-12.47-23.5-19.75-37.09l-11.13-20.74-5-9.33a8.45,8.45,0,0,1-1.2-2.88,2.13,2.13,0,0,1,1.06-1.84,10.07,10.07,0,0,1,4.25-.92v-2.76H828.53V364a4.85,4.85,0,0,1,3.18,1.38,24.09,24.09,0,0,1,2.91,5.07c.71,1.53,2,4.23,3.85,8.06s4.11,8.38,6.76,13.6,5.57,10.9,8.75,17,6.32,12.37,9.41,18.66,6.14,12.37,9.15,18.2,5.61,11.06,7.82,15.66,4,8.34,5.43,11.18a29.13,29.13,0,0,1,2.13,4.72,1.33,1.33,0,0,1-.8,1.15,11.44,11.44,0,0,1-3.18.92v2.77h54.61v-3c-2.47,0-3.71-.69-3.71-2.07A39.67,39.67,0,0,1,937,472q2.13-4.83,5.7-12.21T950.88,443q4.64-9.43,9.55-19.35T970,404.15q4.63-9.56,8.49-17.4T985,373.62q2.65-5.3,3.18-6.68a3.31,3.31,0,0,1,1.46-2.07,15.71,15.71,0,0,1,2.52-.92v-2.76Zm-194.34,0H743.15V364q5,.46,6.23,1.5a3.32,3.32,0,0,1,1.19,2.64V475.45a3.34,3.34,0,0,1-1.19,2.65q-1.18,1-6.23,1.49v2.77h54.62v-2.77q-5-.45-6.23-1.49a3.35,3.35,0,0,1-1.2-2.65V368.09a3.33,3.33,0,0,1,1.2-2.64q1.19-1,6.23-1.5v-2.76Zm-495,0h-69.2V364a27.31,27.31,0,0,1,3.58.69c1.15.31,1.72.84,1.72,1.61q0,.24-2,4.84t-5.17,12q-3.19,7.38-7.3,16.7t-8.35,19.12q-4.25,9.8-8.48,19.24t-7.69,17.16q-3.45,7.72-5.57,12.78c-1.41,3.38-2.3,5.46-2.65,6.23a11,11,0,0,1-2.65,3.8,9.35,9.35,0,0,1-4.24,1.49v2.77h46.93v-2.77a8.31,8.31,0,0,1-3.85-.57,1.9,1.9,0,0,1-.93-1.73,5,5,0,0,1,.4-1.5c.27-.69.7-1.8,1.33-3.34s1.46-3.61,2.51-6.22,2.48-6,4.25-10.13h62.83a30,30,0,0,0,1.72,4.37c1,2.16,2,4.42,3.06,6.8s2,4.53,2.91,6.45a27.28,27.28,0,0,1,1.33,3.11q0,2.54-5,2.76v2.77h52.23v-2.77a5.38,5.38,0,0,1-3.85-1.38,22,22,0,0,1-3.57-5.53q-4.24-8.74-9.41-19.81t-10.74-22.69q-5.58-11.62-10.74-22.81t-9.15-20q-4-8.86-6.49-14.4a47.35,47.35,0,0,1-2.52-6,2.14,2.14,0,0,1,1.32-2.3,16.31,16.31,0,0,1,3.45-.69v-2.76Zm-60.72,76.48,23.6-54.83,25.72,54.83Z"/></g></svg>