<svg viewBox="0 0 1790 525" xmlns="http://www.w3.org/2000/svg" xmlns:xlink="http://www.w3.org/1999/xlink"><linearGradient id="a" gradientUnits="userSpaceOnUse" x1="269.65" x2="269.65" y1="502.36" y2="341.19"><stop offset="0" stop-opacity=".2"/><stop offset=".28"/></linearGradient><linearGradient id="b" x1="992.77" x2="992.77" xlink:href="#a" y1="506.73" y2="334.73"/><linearGradient id="c" gradientUnits="userSpaceOnUse" x1="163.5" x2="163.5" y1="36" y2="75"><stop offset="0" stop-color="#fe6000"/><stop offset="1" stop-color="#fbac00"/></linearGradient><linearGradient id="d" x1="743.5" x2="743.5" xlink:href="#c"/><linearGradient id="e" x1="1321.5" x2="1321.5" xlink:href="#c"/><linearGradient id="f" x1="459" x2="459" xlink:href="#c" y1="22" y2="87"/><linearGradient id="g" x1="1039" x2="1039" xlink:href="#c" y1="22" y2="87"/><linearGradient id="h" x1="1617" x2="1617" xlink:href="#c" y1="22" y2="87"/><linearGradient id="i" gradientUnits="userSpaceOnUse" x1="895" x2="895" y1="348.5" y2="406.5"><stop offset="0" stop-color="#fbc800"/><stop offset="1" stop-color="#fe6000"/></linearGradient><linearGradient id="j" gradientUnits="userSpaceOnUse" x1="894.81" x2="894.81" y1="354.73" y2="486.73"><stop offset="0" stop-color="#12d6df"/><stop offset="1" stop-color="#f70fff"/></linearGradient><g opacity=".4"><path d="m364.15 462.08c-2.51-5.21-5.26-11-8.38-17.68-3.54-7.56-7.17-15.25-10.81-22.85s-7.17-15.11-10.63-22.57-6.47-14.09-9.05-19.83c-1.4-3.12-2.63-5.87-3.72-8.28a19.88 19.88 0 0 0 1.23-6.92v-2.76a20 20 0 0 0 -20-20h-69.2a20 20 0 0 0 -20 20v2.81a19.9 19.9 0 0 0 1.42 7.41l-1.64 3.78c-2.07 4.81-4.44 10.23-7.23 16.57s-5.65 12.88-8.4 19.24-5.54 12.68-8.38 19-5.4 12-7.7 17.2c-2.4 5.36-4.28 9.69-5.76 13.21-.26.64-.5 1.21-.71 1.71a20 20 0 0 0 -10.38 17.53v2.77a20 20 0 0 0 20 20h46.93a20 20 0 0 0 20-20v-2.77a20 20 0 0 0 -.31-3.49h31.14a19.12 19.12 0 0 0 -.31 3.49v2.77a20 20 0 0 0 20 20h52.23a20 20 0 0 0 20-20v-2.77a20 20 0 0 0 -10.34-17.57z" fill="url(#a)"/><path d="m1616.21 413.81a54.32 54.32 0 0 0 -10.89-11.16l14.73-25.78a20 20 0 0 0 -11.32-29l-2.92-.93a20 20 0 0 0 -16.2 1.84l-1-.23c-4.35-1.07-9.53-2.21-15.88-3.52s-13.92-2.52-22.15-3.58a219.74 219.74 0 0 0 -27.74-1.66 133.72 133.72 0 0 0 -31.2 3.44 91.48 91.48 0 0 0 -26 10.29 59.7 59.7 0 0 0 -19.38 18.41c-.26.39-.51.79-.75 1.18v-18.38a20 20 0 0 0 -20-20h-3.18a20 20 0 0 0 -14.71 6.46h-122.29a19.89 19.89 0 0 0 -11.7 3.78 20 20 0 0 0 -17.46-10.24h-3.17a20 20 0 0 0 -14.71 6.46h-111.1a20 20 0 0 0 -14.71-6.46h-3.18a20 20 0 0 0 -18.15 11.6 19.94 19.94 0 0 0 -13.4-5.14h-54.62a19.93 19.93 0 0 0 -15.5 7.37 20 20 0 0 0 -15.51-7.37h-45.6a20 20 0 0 0 -20 20v2.81a19.89 19.89 0 0 0 .81 5.65c-.14.25-.27.51-.41.77-2.64 4.9-6.34 11.92-11 20.85-.44.86-.9 1.74-1.38 2.65l-2-3.66-10.71-19.94a20.07 20.07 0 0 0 1-6.32v-2.76a20 20 0 0 0 -20-20h-54.3a19.94 19.94 0 0 0 -15.38 7.21 20 20 0 0 0 -15.38-7.21h-54.62a19.93 19.93 0 0 0 -13.77 5.49 20 20 0 0 0 -18.31-11.95h-3.18a20 20 0 0 0 -14.71 6.46h-111.09a20 20 0 0 0 -14.71-6.46h-3.19a20 20 0 0 0 -19 13.73l-.25-.06-2.91-.69a20.17 20.17 0 0 0 -4.62-.54 19.86 19.86 0 0 0 -6.14 1c-3-.86-6.79-1.83-11.45-2.95h-.17c-6-1.39-13-2.59-21.42-3.68a236.33 236.33 0 0 0 -30-1.67 149.78 149.78 0 0 0 -36.4 4.52 118.93 118.93 0 0 0 -33.77 14 84.55 84.55 0 0 0 -26.31 25.34c-7.3 11-11 23.85-11 38.09s3.71 27.07 11 38.11a84.6 84.6 0 0 0 26.31 25.32 112.06 112.06 0 0 0 34.16 13.7 161.83 161.83 0 0 0 36 4.07 209.47 209.47 0 0 0 29.64-1.93c8.57-1.25 16.22-2.69 22.74-4.3 6.19-1.52 11.26-3 15.46-4.4a20.08 20.08 0 0 0 14.37-1.44l3.18-1.62a20 20 0 0 0 6.93-29.89l-27.31-36.17a19.69 19.69 0 0 0 -2.85-3.05 19.51 19.51 0 0 0 3-3.75l11-17.58a20 20 0 0 0 19.74 16.81h3.19a20 20 0 0 0 14.71-6.45h15.66v54.7a20 20 0 0 0 -7.42 15.55v2.77a20 20 0 0 0 20 20h54.61a20 20 0 0 0 20-20v-2.77a20 20 0 0 0 -7.35-15.55v-54.71h15.66a20 20 0 0 0 14.71 6.45h3.18a20 20 0 0 0 19.5-15.54v63.8a20 20 0 0 0 -7.42 15.55v2.77a20 20 0 0 0 20 20h54.62a20 20 0 0 0 20-20v-2.77a20 20 0 0 0 -7.43-15.55v-84.5a19.82 19.82 0 0 0 2.81-2.76 20 20 0 0 0 4.1 3.73c.76 1.61 1.81 3.79 3.21 6.7 1.88 3.89 4.21 8.58 6.94 13.94s5.66 11.09 8.82 17.19c3.06 5.91 6.16 12.06 9.22 18.28 3.2 6.52 6.34 12.76 9.32 18.55s5.47 10.78 7.57 15.15q1.17 2.46 2.18 4.54a20.29 20.29 0 0 0 -.57 4.77v2.77a20 20 0 0 0 20 20h54.61a20 20 0 0 0 20-20v-3a19.82 19.82 0 0 0 -.65-5.08q1.23-2.62 2.76-5.76c2.62-5.41 5.37-11 8.17-16.73 3-6 6.07-12.33 9.52-19.3 3.11-6.28 6.26-12.7 9.61-19.6 3-6.28 5.88-12.1 8.45-17.32s4.67-9.49 6.42-13c.51-1 .94-1.89 1.32-2.66a20.71 20.71 0 0 0 3.47-3.34 19.73 19.73 0 0 0 2.93 2.92v84.51a20 20 0 0 0 -7.43 15.55v2.77a20 20 0 0 0 20 20h54.62a20 20 0 0 0 20-20v-2.77a20 20 0 0 0 -7.42-15.55v-62a20 20 0 0 0 19 13.66h3.18a19.94 19.94 0 0 0 14.71-6.45h15.67v54.79a20 20 0 0 0 -7.43 15.55v2.77a20 20 0 0 0 20 20h54.55a20 20 0 0 0 20-20v-2.77a20 20 0 0 0 -7.42-15.55v-54.71h15.66a19.94 19.94 0 0 0 14.71 6.45h3.18a20 20 0 0 0 16.59-8.82v57.08a20 20 0 0 0 -7.43 15.55v2.77a20 20 0 0 0 20 20h124.58a20 20 0 0 0 12.49 4.37h3.18a20 20 0 0 0 18.67-12.69 19.29 19.29 0 0 0 3.11.95l3.18.69a19.75 19.75 0 0 0 4.25.46 20 20 0 0 0 8.24-1.78c3.57 1.1 7.93 2.23 13.26 3.46a207.1 207.1 0 0 0 22.75 3.72 279.28 279.28 0 0 0 31 1.51c16 0 29.3-1.31 40.57-4 12.14-2.9 21.84-6.91 29.69-12.26 8.64-5.89 15-13 18.92-21a53.82 53.82 0 0 0 5.59-23.71c.04-10.88-2.85-20.38-8.56-28.23zm-1113.63 7a20 20 0 0 0 -6.58 8.19c-1.18.34-2.42.67-3.7 1a125.08 125.08 0 0 1 -12.8 2.49 70 70 0 0 1 -8.1.84 72.35 72.35 0 0 1 -13.07-1.28 39.14 39.14 0 0 1 -10.66-3.48 14.08 14.08 0 0 1 -5-4 7 7 0 0 1 0-5.53 14.32 14.32 0 0 1 5-4 39.88 39.88 0 0 1 10.65-3.48 72.8 72.8 0 0 1 13.08-1.28 101.38 101.38 0 0 1 13.5.86 104.59 104.59 0 0 1 10.95 2 20 20 0 0 0 6.73 7.67zm923 6.53h-3.18a19.94 19.94 0 0 0 -9.43 2.36v-17.24a19.94 19.94 0 0 0 9.43 2.36h3.18a19.93 19.93 0 0 0 14-5.73 39.63 39.63 0 0 0 11.8 20.38l-6.34 13.26a20 20 0 0 0 -19.46-15.39z" fill="url(#b)"/></g><path d="m2.5 3h1785v426h-1785z" fill="#4d4d4d"/><path d="m197 176.81 34.88-13.36a6 6 0 0 0 3.46-7.75l-3.92-10.23a6 6 0 0 0 -7.75-3.45l-35.07 13.45a14.38 14.38 0 0 0 -13.33-9h-63a14.37 14.37 0 0 0 -13.36 9.08l-49.27 124.56a14.37 14.37 0 0 0 9.5 19.13l54 15.06a14.35 14.35 0 0 0 17.65-9.83l4.56-15.65h16.46l4 15.29a14.37 14.37 0 0 0 17.71 10.2l54.75-15.06a14.37 14.37 0 0 0 9.56-19.14z" fill="#fbac00"/><path d="m716.75 174.72a14.37 14.37 0 0 0 -13.36-9.09h-54.39a14.37 14.37 0 0 0 -13.37 9.09l-42.47 107.46a14.36 14.36 0 0 0 9.51 19.13l46.61 13a14.35 14.35 0 0 0 17.65-9.83l3.52-12.08h11.2l3.08 11.72a14.37 14.37 0 0 0 17.71 10.2l47.24-13a14.36 14.36 0 0 0 9.55-19.14z" fill="#fbac00"/><path d="m1038.91 165.63h-49.27a14.34 14.34 0 0 0 -6.87 1.75 14.71 14.71 0 0 0 -.79-2 14.41 14.41 0 0 0 -9.1-7.47l-55.43-15a14.35 14.35 0 0 0 -17.45 9.43l-10.88 33.86-10.29-33.67a14.39 14.39 0 0 0 -17.39-9.7l-57.44 15.06a14.36 14.36 0 0 0 -9.69 19.28l50.81 125.93a14.39 14.39 0 0 0 13.33 9h60a14.37 14.37 0 0 0 13.33-9l43.49-108.1v102.71a14.37 14.37 0 0 0 14.37 14.38h49.27a14.38 14.38 0 0 0 14.38-14.38v-117.71a14.38 14.38 0 0 0 -14.38-14.37z" fill="#fbac00"/><path d="m457.39 306.78a14.28 14.28 0 0 0 3.23-9.07v-117.71a14.37 14.37 0 0 0 -14.37-14.37h-49.25a14.38 14.38 0 0 0 -14 11.17 14.7 14.7 0 0 0 -2.67-1.06l-44.24-12.32a14.38 14.38 0 0 0 -16.47 7l-5.82 10.58-5.36-10.31a14.38 14.38 0 0 0 -16.44-7.32l-46.54 12.32a14.36 14.36 0 0 0 -8.75 21.1l37.77 65.13.18 34.5a14.38 14.38 0 0 0 14.38 14.3h47.7a14.37 14.37 0 0 0 14.37-14.37v-35.76l31.48-53.2v90.32a14.28 14.28 0 0 0 3.23 9.07 6 6 0 0 0 -5.81 6v11a6 6 0 0 0 6 6h71.19a6 6 0 0 0 6-6v-11a6 6 0 0 0 -5.81-6z" fill="#fbac00"/><path d="m592.63 186.76c-24.53-23.76-72.73-22.29-101.53-21.39-4.55.14-8.49.26-11.62.26a14.39 14.39 0 0 0 -10.19 4.23c-4.21 4.22-4.24 8.1-4.3 15.14 0 3.23 0 7.82-.05 13.32v40c.05 29 .14 58 .14 58a14.38 14.38 0 0 0 14.38 14.33h46.77a14.37 14.37 0 0 0 14.37-14.37v-12.77c2.73-.31 5.7-.73 8.83-1.31 18.11-3.34 32.36-10 42.38-19.78 10.33-10.09 15.79-23.47 15.79-38.69.02-14.89-5.02-27.33-14.97-36.97z" fill="#fbac00"/><path d="m1717.1 254.4a14.31 14.31 0 0 0 .44-3.54v-24.32a14.7 14.7 0 0 0 -.58-4.06 14.35 14.35 0 0 0 2.6-8.26v-34.22a14.37 14.37 0 0 0 -14.37-14.37h-100.94a14.38 14.38 0 0 0 -14.37 14.37v117.71a14.38 14.38 0 0 0 14.37 14.38h102.31a14.37 14.37 0 0 0 14.37-14.38v-33.54a14.29 14.29 0 0 0 -3.83-9.77z" fill="#fbac00"/><path d="m1582.13 223.39a14.45 14.45 0 0 0 1-7.84l-5.8-39a14.39 14.39 0 0 0 -13.47-12.24 208.49 208.49 0 0 0 -36.46 2c-27.76 4-49.08 12.86-63.37 26.42-13.23 12.56-19.94 28.55-19.94 47.52a73.94 73.94 0 0 0 .75 10.53l-30.06-76a14.37 14.37 0 0 0 -13.37-9.09h-54.31a14.37 14.37 0 0 0 -13.37 9.09l-29.37 74.22a14.32 14.32 0 0 0 -10.86-5h-34.9v-64a14.38 14.38 0 0 0 -14.37-14.37h-49.23a14.37 14.37 0 0 0 -14.42 14.37v68.31a14.34 14.34 0 0 0 -10.27-4.32h-34.9v-63.99a14.37 14.37 0 0 0 -14.41-14.37h-49.28a14.38 14.38 0 0 0 -14.33 14.37v117.71a14.38 14.38 0 0 0 14.37 14.38h98.55a14.34 14.34 0 0 0 12.32-7 14.34 14.34 0 0 0 12.32 7h98.55a14.36 14.36 0 0 0 13.35-9.08l40.48 11.29a14.36 14.36 0 0 0 17.66-9.83l3.52-12.08h11.2l3.08 11.72a14.37 14.37 0 0 0 17.71 10.2l47.24-13a14.36 14.36 0 0 0 9.55-19.14l-1.34-3.39a65.49 65.49 0 0 0 13 13.44c22.45 17.53 56.06 22 80.79 22 13.41 0 24.21-1.31 29.21-2.56a14.38 14.38 0 0 0 10.88-14v-61.54a14.36 14.36 0 0 0 -7.7-12.73z" fill="#fbac00"/><path d="m109 156.05-52.41 132.53 63.71 17.76 7.89-27.1h31l7.13 27.12 64.57-17.76-52.4-132.55zm30.31 82.12 4.16-14.91 3.72 14.91z" fill="#fff"/><path d="m645.78 175.21-45.67 115.44 56.3 15.69 6.85-23.53h25.74l6.19 23.55 57.06-15.69-45.61-115.46zm27.46 70.85 2.69-9.63 2.4 9.63z" fill="#fff"/><path d="m1343.84 175.21-45.55 115.14v-36.78h-49.29v-78.36h-58.86v127.3h108.13v-11.83l56.18 15.66 6.85-23.53h25.77l6.2 23.55 57.06-15.69-45.63-115.46zm27.46 70.85 2.69-9.63 2.4 9.63z" fill="#fff"/><path d="m329.82 171.63-16.23 29.68-15.42-29.66-56.31 14.91 42.2 72.76.22 41.82h57.26v-43.18l42.21-71.31z" fill="#fff"/><path d="m392.18 175.21h58.86v127.29h-58.86z" fill="#fff"/><path d="m984.85 175.21h58.86v127.29h-58.86z" fill="#fff"/><path d="m1125.83 175.21h-58.86v127.3h108.13v-48.94h-49.27z" fill="#fff"/><path d="m491.4 174.94c-4.64.15-8.64.27-11.92.27h-2l-1.4 1.41c-1.45 1.46-1.45 1.85-1.5 8.45 0 3.22-.05 7.79-.05 13.26v40c0 29.05.15 58 .15 58v4.78h56.32v-26.42c11-.47 37.87-3.28 54.09-19.12 8.61-8.37 12.91-19.08 12.91-31.84 0-12.2-4.06-22.32-12.08-30.09-21.58-20.97-67.24-19.55-94.52-18.7zm44.2 62.36a12.23 12.23 0 0 1 -6.54 2.55v-22.22a12.23 12.23 0 0 1 6.54 2.55c2.06 1.81 3.07 4.61 3.07 8.56s-1.01 6.75-3.07 8.56z" fill="#fff"/><path d="m888.89 218.24-20.57-67.3-67.2 17.6 54.1 133.97h66.45l53.89-133.93-65.04-17.67z" fill="#fff"/><path d="m1654.16 259.38v-3.73h53.8v-33.9h-53.8v-2.74h55.82v-43.8h-110.52v127.3h111.89v-43.13z" fill="#fff"/><path d="m1525.5 260a25.18 25.18 0 0 1 -4-1.94c-5.63-3.44-8.37-8.37-8.37-15.08a11.89 11.89 0 0 1 4-8.88c11-10.59 41-12 51.65-11.63l5.75.19-7.23-48.59-3.91-.2a196.49 196.49 0 0 0 -34.6 1.93c-25.76 3.68-45.32 11.72-58.13 23.87-11.26 10.69-17 24.34-17 40.58 0 18.54 7.11 33.49 21.14 44.45 20.41 15.93 51.94 20 75 20 12.41 0 22.35-1.17 26.79-2.28l3.63-.9v-70.19h-54.72z" fill="#fff"/><path d="m228.66 146.55a3 3 0 0 0 -3.88-1.73l-36.53 14a3 3 0 0 0 -1.73 3.87l3.92 10.23a3 3 0 0 0 1.58 1.66 2.88 2.88 0 0 0 1.22.26 3 3 0 0 0 1.07-.19l36.54-14a3 3 0 0 0 1.66-1.58 3 3 0 0 0 .06-2.3z" fill="#fff"/><rect fill="#fff" height="16.95" rx="3" width="77.17" x="383.02" y="309.77"/><g fill="#fc0202"><path d="m112.27 160.84h63l49.24 124.56-54.75 15.05-6.84-26h-38.33l-7.57 26-54.02-15.05zm20.73 82.16h20.32l-9.58-38.48z"/><path d="m649 180h54.35l42.48 107.46-47.24 13-5.86-22.46h-33.07l-6.53 22.43-46.6-13zm17.89 70.86h17.53l-8.26-33.2z"/><path d="m1347.1 180h54.34l42.49 107.46-47.24 13-5.9-22.43h-33.07l-6.53 22.43-46.61-13zm17.9 70.86h17.53l-8.26-33.2z"/><path d="m249.15 189.58 46.54-12.31 17.79 34.21 18.72-34.21 44.24 12.31-39.69 67.07v39.7h-47.7l-.21-38.33z"/><path d="m396.97 180h49.27v117.71h-49.27z"/><path d="m989.64 180h49.27v117.71h-49.27z"/><path d="m1170.31 297.71h-98.55v-117.71h49.28v78.36h49.27z"/><path d="m1293.5 297.71h-98.55v-117.71h49.27v78.36h49.28z"/><path d="m386.02 312.77h71.17v10.95h-71.17z"/><path d="m189.99 154.26h39.12v10.95h-39.12z" transform="matrix(.93376794 -.35787908 .35787908 .93376794 -43.28 85.56)"/><path d="m593.25 223.73c0 47.83-67 46.25-67 46.25v26.37h-46.77s-.38-116.35 0-116.35c29.12 0 113.77-9.58 113.77 43.73zm-69-10.88v31.78s19.19 2.73 19.19-15.89-19.17-15.89-19.17-15.89z"/><path d="m865.08 156.74 23.7 77.52 24.9-77.52 55.43 15.05-50.68 125.92h-59.98l-50.85-125.92z"/><path d="m1705.19 180h-100.94v117.71h102.31v-33.54h-57.19v-13.31h53.8v-24.32h-53.8v-12.32h55.82z"/><path d="m1563.14 178.63 5.8 39s-60.55-2.07-60.55 25.31c0 20.53 21.9 23.26 21.9 23.26v-30.08h45.17v61.6c-16.42 4.1-117 9.58-117-57.49s104.68-61.6 104.68-61.6z"/></g><g opacity=".4"><path d="m173.23 163.84 47.26 119.55-48.6 13.37-6.07-23.08-.59-2.23h-42.89l-.63 2.16-6.71 23.16-48-13.37 47.29-119.56h58.92m-44.14 82.16h28.11l-.93-3.73-9.58-38.48-2.75-11-3 10.94-10.74 38.48zm46.2-85.13h-63l-49.27 124.53 54 15.05 7.57-26h38.33l6.84 26 54.75-15.05-49.22-124.56zm-42.27 82.13 10.74-38.48 9.6 38.48z"/><path d="m701.35 183 40.5 102.46-41.09 11.3-5.13-19.51-.63-2.25h-37.59l-.63 2.16-5.7 19.59-40.54-11.3 40.54-102.45zm-38.35 70.86h25.3l-.93-3.73-8.26-33.2-2.75-11-3.05 10.94-9.31 33.18zm40.39-73.86h-54.39l-42.47 107.46 46.6 13 6.53-22.46h33.07l5.9 22.43 47.24-13zm-36.46 70.86 9.27-33.2 8.26 33.2z"/><path d="m1399.4 183 40.51 102.46-41.09 11.3-5.13-19.51-.59-2.23h-37.63l-.63 2.16-5.7 19.59-40.54-11.3 40.54-102.47zm-38.4 70.86h25.32l-.93-3.73-8.26-33.2-2.75-11-3.05 10.94-9.27 33.2-1.06 3.81m40.4-73.86h-54.3l-42.52 107.46 46.61 13 6.53-22.43h33.07l5.9 22.43 47.24-13-42.49-107.48zm-36.4 70.84 9.27-33.2 8.26 33.2z"/><path d="m294.13 180.78 16.69 32.09 2.59 5 2.7-4.94 17.58-32.13 38.18 10.63-37.7 63.7-.42.71v37.52h-41.75l-.16-35.36v-.8l-.4-.69-37.72-65 40.41-10.7m38.07-3.51-18.72 34.21-17.79-34.21-46.54 12.31 39.69 68.39.21 38.33h47.7v-39.7l39.69-67.07-44.24-12.29z"/><path d="m443.25 183v111.72h-43.25v-111.72h43.28m3-3h-49.28v117.72h49.28z"/><path d="m1035.91 183v111.72h-43.27v-111.72zm3-3h-49.27v117.72h49.27z"/><path d="m1118 183v78.36h49.27v33.36h-92.55v-111.72zm3-3h-49.28v117.72h98.55v-39.36h-49.27z"/><path d="m1241.23 183v78.36h49.27v33.36h-92.5v-111.72h43.28m3-3h-49.28v117.72h98.55v-39.36h-49.27z"/><path d="m454.2 315.77v5h-65.2v-5zm3-3h-71.2v11h71.2z"/><path d="m224.13 151.49 1.77 4.63-30.9 11.88-1.77-4.62 30.93-11.86m1.72-3.87-36.53 14 3.92 10.22 36.53-14z"/><path d="m511.64 182.33c53.63 0 78.61 13.16 78.61 41.4 0 17.46-9.57 30-28.45 37.15-15.28 5.81-31.68 6.1-34.81 6.1h-.67l-3.07-.07v26.44h-40.78c-.13-40.49-.24-97.37-.09-110.37 2.75 0 5.84-.14 9.27-.25 6-.19 12.77-.4 20-.4m15.15 65.44c12.31 0 19.67-7.12 19.67-19s-7.36-19-19.67-19a24.45 24.45 0 0 0 -2.95.17l-2.57.37v37l2.57.37a24.45 24.45 0 0 0 2.95.17m-15.16-68.44c-12.87 0-24.45.67-32.15.67-.38 0 0 116.35 0 116.35h46.77v-26.43h.74c7.31 0 66.26-1.39 66.26-46.25 0-39.21-45.8-44.4-81.62-44.4zm15.16 65.44a19.89 19.89 0 0 1 -2.52-.14v-31.86a19.89 19.89 0 0 1 2.52-.14c5.21 0 16.67 1.64 16.67 16s-11.47 16-16.67 16z"/><path d="m863.06 160.37 22.85 74.76 2.8 9.16 2.93-9.11 24-74.8 49.4 13.42-48.63 120.92h-55.94l-48.82-120.89zm50.62-3.64-24.9 77.53-23.7-77.53-57.48 15.06 50.85 125.93h60l50.68-125.93-55.43-15.06z"/><path d="m1702.19 183v28.22h-55.82v18.32h53.8v18.32h-53.8v19.31h57.19v27.55h-96.31v-111.72zm3-3h-100.94v117.72h102.31v-33.55h-57.19v-13.31h53.8v-24.32h-53.8v-12.32h55.82z"/><path d="m1557.54 178.53v3h3l4.92 33.08c-6.2 0-20.58.49-33.48 3.84-12.13 3.16-26.59 10-26.59 24.5a24.32 24.32 0 0 0 12.42 21.91 34.56 34.56 0 0 0 12.11 4.33l3.37.42v-30.49h39.17v56.16a144.35 144.35 0 0 1 -22.9 1.62c-30.1 0-48.93-6.77-57.48-10.81-20.3-9.59-30.59-25-30.59-45.86 0-23.2 13.26-39.91 39.43-49.66 21.89-8.16 46.89-9 56.62-9v-3m0 0c-21.72 0-99 4-99 61.7 0 50 55.81 59.67 91.07 59.67 12.06 0 21.71-1.14 25.9-2.18v-61.6h-45.17v30.11s-21.9-2.73-21.9-23.26c0-23.79 45.7-25.35 57.69-25.35h2.86l-5.8-39s-2.06-.1-5.6-.1z"/></g><path d="m386.02 312.77h71.17v10.95h-71.17z" fill="#fc0202"/><path d="m189.99 154.26h39.12v10.95h-39.12z" fill="#fc0202" transform="matrix(.93376794 -.35787908 .35787908 .93376794 -43.28 85.56)"/><path d="m1616.24 105c-37 0-55.7-14.5-73.79-28.52-18.24-14.13-35.45-27.48-70.74-27.48s-52.49 13.35-70.71 27.48c-18.09 14-36.8 28.52-73.79 28.52s-55.7-14.5-73.79-28.52-35.48-27.48-70.75-27.48-52.5 13.35-70.73 27.48-36.81 28.52-73.79 28.52-55.7-14.5-73.8-28.52-35.45-27.48-70.73-27.48-52.49 13.35-70.72 27.48-36.81 28.52-73.8 28.52-55.69-14.5-73.79-28.52-35.45-27.48-70.72-27.48-52.5 13.35-70.73 27.48-36.81 28.52-73.8 28.52-55.69-14.5-73.79-28.52-35.45-27.48-70.73-27.48-52.49 13.35-70.73 27.48c-18.09 14.02-36.81 28.52-73.81 28.52s-55.7-14.5-73.79-28.52-35.44-27.48-70.71-27.48v-5c37 0 55.7 14.5 73.79 28.52s35.46 27.48 70.71 27.48 52.5-13.35 70.73-27.48 36.83-28.52 73.81-28.52 55.7 14.5 73.79 28.52c18.24 14.13 35.46 27.48 70.73 27.48s52.5-13.35 70.73-27.48 36.81-28.52 73.8-28.52 55.69 14.5 73.79 28.52 35.45 27.48 70.72 27.48 52.5-13.35 70.73-27.48 36.81-28.52 73.79-28.52 55.7 14.5 73.8 28.52 35.45 27.48 70.73 27.48 52.49-13.35 70.73-27.48c18.12-14.02 36.8-28.52 73.79-28.52s55.7 14.5 73.79 28.52 35.46 27.48 70.73 27.48 52.5-13.35 70.73-27.48 36.81-28.52 73.79-28.52 55.71 14.5 73.8 28.52 35.49 27.48 70.73 27.48 52.5-13.35 70.74-27.48c18.09-14 36.81-28.52 73.79-28.52v5c-35.27 0-52.5 13.35-70.73 27.48s-36.81 28.52-73.8 28.52z" fill="#fc0202"/><path d="m1616.24 125c-37 0-55.7-14.5-73.79-28.52-18.24-14.13-35.45-27.48-70.74-27.48s-52.49 13.35-70.71 27.48c-18.09 14-36.8 28.52-73.79 28.52s-55.7-14.5-73.79-28.52-35.48-27.48-70.75-27.48-52.5 13.35-70.73 27.48-36.81 28.52-73.79 28.52-55.7-14.5-73.8-28.52-35.45-27.48-70.73-27.48-52.49 13.35-70.72 27.48-36.81 28.52-73.8 28.52-55.69-14.5-73.79-28.52-35.45-27.48-70.72-27.48-52.5 13.35-70.73 27.48-36.81 28.52-73.8 28.52-55.69-14.5-73.79-28.52-35.45-27.48-70.73-27.48-52.49 13.35-70.73 27.48c-18.09 14.02-36.81 28.52-73.81 28.52s-55.7-14.5-73.79-28.52-35.44-27.48-70.71-27.48v-5c37 0 55.7 14.5 73.79 28.52s35.46 27.48 70.71 27.48 52.5-13.35 70.73-27.48 36.83-28.52 73.81-28.52 55.7 14.5 73.79 28.52c18.24 14.13 35.46 27.48 70.73 27.48s52.5-13.35 70.73-27.48 36.81-28.52 73.8-28.52 55.69 14.5 73.79 28.52 35.45 27.48 70.72 27.48 52.5-13.35 70.73-27.48 36.81-28.52 73.79-28.52 55.7 14.5 73.8 28.52 35.45 27.48 70.73 27.48 52.49-13.35 70.73-27.48c18.12-14.02 36.8-28.52 73.79-28.52s55.7 14.5 73.79 28.52 35.46 27.48 70.73 27.48 52.5-13.35 70.73-27.48 36.81-28.52 73.79-28.52 55.71 14.5 73.8 28.52 35.49 27.48 70.73 27.48 52.5-13.35 70.74-27.48c18.09-14 36.81-28.52 73.79-28.52v5c-35.27 0-52.5 13.35-70.73 27.48s-36.81 28.52-73.8 28.52z" fill="#fe6000"/><circle cx="163.5" cy="55.5" fill="url(#c)" r="19.5"/><circle cx="743.5" cy="55.5" fill="url(#d)" r="19.5"/><circle cx="1321.5" cy="55.5" fill="url(#e)" r="19.5"/><path d="m443 22 17 18 15.88-18 23.12 10-16 22 18 22-25 10-19-18-15 19-25-11 19-23-18-20z" fill="url(#f)"/><path d="m1023 22 17 18 15.88-18 23.12 10-16 22 18 22-25 10-19-18-15 19-25-11 19-23-18-20z" fill="url(#g)"/><path d="m1601 22 17 18 15.88-18 23.12 10-16 22 18 22-25 10-19-18-15 19-25-11 19-23-18-20z" fill="url(#h)"/><path d="m163.5 38a17.5 17.5 0 1 1 -17.5 17.5 17.52 17.52 0 0 1 17.5-17.5m0-2a19.5 19.5 0 1 0 19.5 19.5 19.5 19.5 0 0 0 -19.5-19.5z" fill="#fff"/><path d="m743.5 38a17.5 17.5 0 1 1 -17.5 17.5 17.52 17.52 0 0 1 17.5-17.5m0-2a19.5 19.5 0 1 0 19.5 19.5 19.5 19.5 0 0 0 -19.5-19.5z" fill="#fff"/><path d="m1321.5 38a17.5 17.5 0 1 1 -17.5 17.5 17.52 17.52 0 0 1 17.5-17.5m0-2a19.5 19.5 0 1 0 19.5 19.5 19.5 19.5 0 0 0 -19.5-19.5z" fill="#fff"/><path d="m475.88 22 23.12 10-16 22 18 22-25 10-19-18-15 19-25-11 19-23-18-20 25-11 17 18zm-.54-2.41-1 1.09-14.34 16.32-15.5-16.4-1-1-1.3.57-25 11-2.53 1.11 1.85 2.06 16.85 18.72-17.9 21.67-1.69 2 2.42 1.06 25 11 1.42.62 1-1.21 13.59-17.2 17.41 16.49.93.88 1.19-.47 25-10 2.53-1-1.72-2.11-17-20.8 15.09-20.75 1.47-2-2.3-1-23.12-10-1.33-.57z" fill="#fff"/><path d="m1055.88 22 23.12 10-16 22 18 22-25 10-19-18-15 19-25-11 19-23-18-20 25-11 17 18zm-.54-2.41-1 1.09-14.34 16.32-15.5-16.4-1-1-1.3.57-25 11-2.53 1.11 1.85 2.06 16.85 18.72-17.9 21.67-1.69 2 2.42 1.06 25 11 1.42.62 1-1.21 13.59-17.2 17.41 16.49.93.88 1.19-.47 25-10 2.53-1-1.72-2.11-17-20.8 15.09-20.75 1.47-2-2.3-1-23.12-10-1.33-.57z" fill="#fff"/><path d="m1633.88 22 23.12 10-16 22 18 22-25 10-19-18-15 19-25-11 19-23-18-20 25-11 17 18zm-.54-2.41-1 1.09-14.34 16.32-15.5-16.4-1-1-1.3.57-25 11-2.53 1.11 1.85 2.06 16.85 18.72-17.9 21.67-1.69 2 2.42 1.06 25 11 1.42.62 1-1.21 13.59-17.2 17.41 16.49.93.88 1.19-.47 25-10 2.53-1-1.72-2.11-17-20.8 15.09-20.75 1.47-2-2.3-1-23.12-10-1.33-.57z" fill="#fff"/><path d="m42.75 348.5h1704.5v58h-1704.5z" fill="url(#i)"/><path d="m1747.25 406.5-7.07-3.5h-2.94l-16.56-23.45v6.63l14.34 20.32z" fill="#808080"/><path d="m1701.24 352-7.12-3.5 20.51 29.09h4.67z" fill="#808080"/><path d="m1740.16 351.98-17.98 25.61h4.68l20.38-29.09z" fill="#ccc"/><path d="m1704.13 403 2.22 3.5 14.33-20.32v-6.63z" fill="#ccc"/><path d="m1706.35 348.5h-12.23l7.06 3.5h2.95l16.55 23.45v-6.63z" fill="#f2f2f2"/><path d="m1704.13 403h-2.95l-7.06 3.5h12.23z" fill="#808080"/><path d="m1694.12 406.5 7.12-3.5 17.93-25.41h-4.67z" fill="#ccc"/><path d="m1747.25 406.5-20.39-28.91h-4.67l17.94 25.41z" fill="#f2f2f2"/><path d="m1735.02 348.5-14.34 20.32v6.63l16.56-23.45z" fill="#ccc"/><path d="m1735.02 348.5 2.22 3.5h2.94l7.07-3.5z" fill="#f2f2f2"/><path d="m1701.18 352h2.95l16.55 23.45 16.56-23.45h2.94l-17.99 25.59 17.94 25.41h-2.89l-16.56-23.45-16.55 23.45h-2.89l17.93-25.41z" fill="#e6e6e6"/><path d="m1693.98 406.5-7.07-3.5h-2.94l-16.56-23.45v6.63l14.33 20.32z" fill="#808080"/><path d="m1647.97 352-7.12-3.5 20.51 29.09h4.67z" fill="#808080"/><path d="m1686.89 351.98-17.98 25.61h4.68l20.39-29.09z" fill="#ccc"/><path d="m1650.86 403 2.22 3.5 14.33-20.32v-6.63z" fill="#ccc"/><path d="m1653.08 348.5h-12.23l7.06 3.5h2.95l16.55 23.45v-6.63z" fill="#f2f2f2"/><path d="m1650.86 403h-2.95l-7.06 3.5h12.23z" fill="#808080"/><path d="m1640.85 406.5 7.12-3.5 17.93-25.41h-4.67z" fill="#ccc"/><path d="m1693.98 406.5-20.39-28.91h-4.67l17.94 25.41z" fill="#f2f2f2"/><path d="m1681.74 348.5-14.33 20.32v6.63l16.56-23.45z" fill="#ccc"/><path d="m1681.74 348.5 2.23 3.5h2.94l7.07-3.5z" fill="#f2f2f2"/><path d="m1647.91 352h2.95l16.55 23.45 16.56-23.45h2.94l-17.99 25.59 17.94 25.41h-2.89l-16.56-23.45-16.55 23.45h-2.89l17.93-25.41z" fill="#e6e6e6"/><path d="m1640.71 406.5-7.07-3.5h-2.94l-16.56-23.45v6.63l14.33 20.32z" fill="#808080"/><path d="m1594.7 352-7.12-3.5 20.51 29.09h4.67z" fill="#808080"/><path d="m1633.62 351.98-17.98 25.61h4.68l20.39-29.09z" fill="#ccc"/><path d="m1597.59 403 2.22 3.5 14.33-20.32v-6.63z" fill="#ccc"/><path d="m1599.81 348.5h-12.23l7.07 3.5h2.94l16.55 23.45v-6.63z" fill="#f2f2f2"/><path d="m1597.59 403h-2.94l-7.07 3.5h12.23z" fill="#808080"/><path d="m1587.58 406.5 7.12-3.5 17.93-25.41h-4.67z" fill="#ccc"/><path d="m1640.71 406.5-20.39-28.91h-4.67l17.94 25.41z" fill="#f2f2f2"/><path d="m1628.47 348.5-14.33 20.32v6.63l16.56-23.45z" fill="#ccc"/><path d="m1628.47 348.5 2.23 3.5h2.94l7.07-3.5z" fill="#f2f2f2"/><path d="m1594.65 352h2.94l16.55 23.45 16.56-23.45h2.94l-17.99 25.59 17.94 25.41h-2.89l-16.56-23.45-16.55 23.45h-2.89l17.93-25.41z" fill="#e6e6e6"/><path d="m1587.44 406.5-7.07-3.5h-2.94l-16.56-23.45v6.63l14.33 20.32z" fill="#808080"/><path d="m1541.43 352-7.12-3.5 20.51 29.09h4.67z" fill="#808080"/><path d="m1580.35 351.98-17.97 25.61h4.67l20.39-29.09z" fill="#ccc"/><path d="m1544.32 403 2.22 3.5 14.33-20.32v-6.63z" fill="#ccc"/><path d="m1546.54 348.5h-12.23l7.07 3.5h2.94l16.55 23.45v-6.63z" fill="#f2f2f2"/><path d="m1544.32 403h-2.94l-7.07 3.5h12.23z" fill="#808080"/><path d="m1534.31 406.5 7.12-3.5 17.93-25.41h-4.67z" fill="#ccc"/><path d="m1587.44 406.5-20.39-28.91h-4.67l17.94 25.41z" fill="#f2f2f2"/><path d="m1575.2 348.5-14.33 20.32v6.63l16.56-23.45z" fill="#ccc"/><path d="m1575.2 348.5 2.23 3.5h2.94l7.07-3.5z" fill="#f2f2f2"/><path d="m1541.38 352h2.94l16.55 23.45 16.56-23.45h2.94l-17.99 25.59 17.94 25.41h-2.89l-16.56-23.45-16.55 23.45h-2.89l17.93-25.41z" fill="#e6e6e6"/><path d="m1534.17 406.5-7.07-3.5h-2.94l-16.56-23.45v6.63l14.33 20.32z" fill="#808080"/><path d="m1488.16 352-7.12-3.5 20.51 29.09h4.67z" fill="#808080"/><path d="m1527.08 351.98-17.97 25.61h4.67l20.39-29.09z" fill="#ccc"/><path d="m1491.05 403 2.22 3.5 14.33-20.32v-6.63z" fill="#ccc"/><path d="m1493.27 348.5h-12.23l7.07 3.5h2.94l16.55 23.45v-6.63z" fill="#f2f2f2"/><path d="m1491.05 403h-2.94l-7.07 3.5h12.23z" fill="#808080"/><path d="m1481.04 406.5 7.12-3.5 17.94-25.41h-4.68z" fill="#ccc"/><path d="m1534.17 406.5-20.39-28.91h-4.67l17.94 25.41z" fill="#f2f2f2"/><path d="m1521.93 348.5-14.33 20.32v6.63l16.56-23.45z" fill="#ccc"/><path d="m1521.93 348.5 2.23 3.5h2.94l7.07-3.5z" fill="#f2f2f2"/><path d="m1488.11 352h2.94l16.55 23.45 16.56-23.45h2.94l-17.99 25.59 17.94 25.41h-2.89l-16.56-23.45-16.55 23.45h-2.89l17.94-25.41z" fill="#e6e6e6"/><path d="m1480.9 406.5-7.07-3.5h-2.94l-16.56-23.45v6.63l14.33 20.32z" fill="#808080"/><path d="m1434.89 352-7.12-3.5 20.51 29.09h4.67z" fill="#808080"/><path d="m1473.81 351.98-17.97 25.61h4.67l20.39-29.09z" fill="#ccc"/><path d="m1437.78 403 2.22 3.5 14.33-20.32v-6.63z" fill="#ccc"/><path d="m1440 348.5h-12.23l7.07 3.5h2.94l16.55 23.45v-6.63z" fill="#f2f2f2"/><path d="m1437.78 403h-2.94l-7.07 3.5h12.23z" fill="#808080"/><path d="m1427.77 406.5 7.12-3.5 17.94-25.41h-4.68z" fill="#ccc"/><path d="m1480.9 406.5-20.39-28.91h-4.67l17.94 25.41z" fill="#f2f2f2"/><path d="m1468.66 348.5-14.33 20.32v6.63l16.56-23.45z" fill="#ccc"/><path d="m1468.66 348.5 2.23 3.5h2.94l7.07-3.5z" fill="#f2f2f2"/><path d="m1434.84 352h2.94l16.55 23.45 16.56-23.45h2.94l-17.99 25.59 17.94 25.41h-2.89l-16.56-23.45-16.55 23.45h-2.89l17.94-25.41z" fill="#e6e6e6"/><path d="m1427.63 406.5-7.07-3.5h-2.94l-16.56-23.45v6.63l14.34 20.32z" fill="#808080"/><path d="m1381.62 352-7.12-3.5 20.51 29.09h4.67z" fill="#808080"/><path d="m1420.54 351.98-17.97 25.61h4.67l20.39-29.09z" fill="#ccc"/><path d="m1384.51 403 2.22 3.5 14.33-20.32v-6.63z" fill="#ccc"/><path d="m1386.73 348.5h-12.23l7.07 3.5h2.94l16.55 23.45v-6.63z" fill="#f2f2f2"/><path d="m1384.51 403h-2.94l-7.07 3.5h12.23z" fill="#808080"/><path d="m1374.5 406.5 7.12-3.5 17.94-25.41h-4.68z" fill="#ccc"/><path d="m1427.63 406.5-20.39-28.91h-4.67l17.94 25.41z" fill="#f2f2f2"/><path d="m1415.4 348.5-14.34 20.32v6.63l16.56-23.45z" fill="#ccc"/><path d="m1415.4 348.5 2.22 3.5h2.94l7.07-3.5z" fill="#f2f2f2"/><path d="m1381.57 352h2.94l16.55 23.45 16.56-23.45h2.94l-17.99 25.59 17.94 25.41h-2.89l-16.56-23.45-16.55 23.45h-2.89l17.94-25.41z" fill="#e6e6e6"/><path d="m1374.36 406.5-7.07-3.5h-2.94l-16.56-23.45v6.63l14.34 20.32z" fill="#808080"/><path d="m1328.35 352-7.12-3.5 20.51 29.09h4.67z" fill="#808080"/><path d="m1367.27 351.98-17.97 25.61h4.67l20.39-29.09z" fill="#ccc"/><path d="m1331.24 403 2.22 3.5 14.33-20.32v-6.63z" fill="#ccc"/><path d="m1333.46 348.5h-12.23l7.07 3.5h2.94l16.55 23.45v-6.63z" fill="#f2f2f2"/><path d="m1331.24 403h-2.94l-7.07 3.5h12.23z" fill="#808080"/><path d="m1321.23 406.5 7.12-3.5 17.94-25.41h-4.68z" fill="#ccc"/><path d="m1374.36 406.5-20.39-28.91h-4.67l17.94 25.41z" fill="#f2f2f2"/><path d="m1362.13 348.5-14.34 20.32v6.63l16.56-23.45z" fill="#ccc"/><path d="m1362.13 348.5 2.22 3.5h2.94l7.07-3.5z" fill="#f2f2f2"/><path d="m1328.3 352h2.94l16.55 23.45 16.56-23.45h2.94l-17.99 25.59 17.94 25.41h-2.89l-16.56-23.45-16.55 23.45h-2.89l17.94-25.41z" fill="#e6e6e6"/><path d="m1321.09 406.5-7.07-3.5h-2.94l-16.56-23.45v6.63l14.34 20.32z" fill="#808080"/><path d="m1275.08 352-7.12-3.5 20.51 29.09h4.67z" fill="#808080"/><path d="m1314 351.98-17.97 25.61h4.67l20.39-29.09z" fill="#ccc"/><path d="m1277.97 403 2.22 3.5 14.33-20.32v-6.63z" fill="#ccc"/><path d="m1280.19 348.5h-12.23l7.07 3.5h2.94l16.55 23.45v-6.63z" fill="#f2f2f2"/><path d="m1277.97 403h-2.94l-7.07 3.5h12.23z" fill="#808080"/><path d="m1267.96 406.5 7.12-3.5 17.94-25.41h-4.68z" fill="#ccc"/><path d="m1321.09 406.5-20.39-28.91h-4.67l17.94 25.41z" fill="#f2f2f2"/><path d="m1308.86 348.5-14.34 20.32v6.63l16.56-23.45z" fill="#ccc"/><path d="m1308.86 348.5 2.22 3.5h2.94l7.07-3.5z" fill="#f2f2f2"/><path d="m1275.03 352h2.94l16.55 23.45 16.56-23.45h2.94l-17.99 25.59 17.94 25.41h-2.89l-16.56-23.45-16.55 23.45h-2.89l17.94-25.41z" fill="#e6e6e6"/><path d="m1267.82 406.5-7.07-3.5h-2.94l-16.56-23.45v6.63l14.34 20.32z" fill="#808080"/><path d="m1221.81 352-7.12-3.5 20.51 29.09h4.67z" fill="#808080"/><path d="m1260.73 351.98-17.97 25.61h4.67l20.39-29.09z" fill="#ccc"/><path d="m1224.7 403 2.22 3.5 14.33-20.32v-6.63z" fill="#ccc"/><path d="m1226.92 348.5h-12.23l7.07 3.5h2.94l16.55 23.45v-6.63z" fill="#f2f2f2"/><path d="m1224.7 403h-2.94l-7.07 3.5h12.23z" fill="#808080"/><path d="m1214.69 406.5 7.12-3.5 17.93-25.41h-4.67z" fill="#ccc"/><path d="m1267.82 406.5-20.39-28.91h-4.67l17.94 25.41z" fill="#f2f2f2"/><path d="m1255.59 348.5-14.34 20.32v6.63l16.56-23.45z" fill="#ccc"/><path d="m1255.59 348.5 2.22 3.5h2.94l7.07-3.5z" fill="#f2f2f2"/><path d="m1221.76 352h2.94l16.55 23.45 16.56-23.45h2.94l-17.99 25.59 17.94 25.41h-2.89l-16.56-23.45-16.55 23.45h-2.89l17.93-25.41z" fill="#e6e6e6"/><path d="m1214.55 406.5-7.07-3.5h-2.94l-16.56-23.45v6.63l14.34 20.32z" fill="#808080"/><path d="m1168.54 352-7.12-3.5 20.51 29.09h4.67z" fill="#808080"/><path d="m1207.46 351.98-17.97 25.61h4.67l20.39-29.09z" fill="#ccc"/><path d="m1171.43 403 2.22 3.5 14.33-20.32v-6.63z" fill="#ccc"/><path d="m1173.65 348.5h-12.23l7.07 3.5h2.94l16.55 23.45v-6.63z" fill="#f2f2f2"/><path d="m1171.43 403h-2.94l-7.07 3.5h12.23z" fill="#808080"/><path d="m1161.42 406.5 7.12-3.5 17.94-25.41h-4.67z" fill="#ccc"/><path d="m1214.55 406.5-20.39-28.91h-4.67l17.94 25.41z" fill="#f2f2f2"/><path d="m1202.32 348.5-14.34 20.32v6.63l16.56-23.45z" fill="#ccc"/><path d="m1202.32 348.5 2.22 3.5h2.94l7.07-3.5z" fill="#f2f2f2"/><path d="m1168.49 352h2.94l16.55 23.45 16.56-23.45h2.94l-17.99 25.59 17.94 25.41h-2.89l-16.56-23.45-16.55 23.45h-2.89l17.94-25.41z" fill="#e6e6e6"/><path d="m1161.28 406.5-7.07-3.5h-2.94l-16.56-23.45v6.63l14.34 20.32z" fill="#808080"/><path d="m1115.27 352-7.12-3.5 20.51 29.09h4.67z" fill="#808080"/><path d="m1154.19 351.98-17.97 25.61h4.67l20.39-29.09z" fill="#ccc"/><path d="m1118.16 403 2.22 3.5 14.33-20.32v-6.63z" fill="#ccc"/><path d="m1120.38 348.5h-12.23l7.07 3.5h2.94l16.55 23.45v-6.63z" fill="#f2f2f2"/><path d="m1118.16 403h-2.94l-7.07 3.5h12.23z" fill="#808080"/><path d="m1108.15 406.5 7.12-3.5 17.94-25.41h-4.67z" fill="#ccc"/><path d="m1161.28 406.5-20.39-28.91h-4.67l17.94 25.41z" fill="#f2f2f2"/><path d="m1149.05 348.5-14.34 20.32v6.63l16.56-23.45z" fill="#ccc"/><path d="m1149.05 348.5 2.22 3.5h2.94l7.07-3.5z" fill="#f2f2f2"/><path d="m1115.22 352h2.94l16.55 23.45 16.56-23.45h2.94l-17.99 25.59 17.94 25.41h-2.89l-16.56-23.45-16.55 23.45h-2.89l17.94-25.41z" fill="#e6e6e6"/><path d="m1108.01 406.5-7.07-3.5h-2.94l-16.56-23.45v6.63l14.34 20.32z" fill="#808080"/><path d="m1062 352-7.12-3.5 20.51 29.09h4.67z" fill="#808080"/><path d="m1100.92 351.98-17.97 25.61h4.67l20.39-29.09z" fill="#ccc"/><path d="m1064.89 403 2.22 3.5 14.33-20.32v-6.63z" fill="#ccc"/><path d="m1067.11 348.5h-12.23l7.07 3.5h2.94l16.55 23.45v-6.63z" fill="#f2f2f2"/><path d="m1064.89 403h-2.94l-7.07 3.5h12.23z" fill="#808080"/><path d="m1054.88 406.5 7.12-3.5 17.94-25.41h-4.67z" fill="#ccc"/><path d="m1108.01 406.5-20.39-28.91h-4.67l17.94 25.41z" fill="#f2f2f2"/><path d="m1095.78 348.5-14.34 20.32v6.63l16.56-23.45z" fill="#ccc"/><path d="m1095.78 348.5 2.22 3.5h2.94l7.07-3.5z" fill="#f2f2f2"/><path d="m1061.95 352h2.94l16.55 23.45 16.56-23.45h2.94l-17.99 25.59 17.94 25.41h-2.89l-16.56-23.45-16.55 23.45h-2.89l17.94-25.41z" fill="#e6e6e6"/><path d="m1054.74 406.5-7.07-3.5h-2.94l-16.56-23.45v6.63l14.34 20.32z" fill="#808080"/><path d="m1008.73 352-7.12-3.5 20.51 29.09h4.67z" fill="#808080"/><path d="m1047.65 351.98-17.97 25.61h4.67l20.39-29.09z" fill="#ccc"/><path d="m1011.62 403 2.22 3.5 14.33-20.32v-6.63z" fill="#ccc"/><path d="m1013.84 348.5h-12.23l7.07 3.5h2.94l16.55 23.45v-6.63z" fill="#f2f2f2"/><path d="m1011.62 403h-2.94l-7.07 3.5h12.23z" fill="#808080"/><path d="m1001.61 406.5 7.12-3.5 17.94-25.41h-4.67z" fill="#ccc"/><path d="m1054.74 406.5-20.39-28.91h-4.67l17.94 25.41z" fill="#f2f2f2"/><path d="m1042.51 348.5-14.34 20.32v6.63l16.56-23.45z" fill="#ccc"/><path d="m1042.51 348.5 2.22 3.5h2.94l7.07-3.5z" fill="#f2f2f2"/><path d="m1008.68 352h2.94l16.55 23.45 16.56-23.45h2.94l-17.99 25.59 17.94 25.41h-2.89l-16.56-23.45-16.55 23.45h-2.89l17.94-25.41z" fill="#e6e6e6"/><path d="m1001.47 406.5-7.07-3.5h-2.94l-16.56-23.45v6.63l14.34 20.32z" fill="#808080"/><path d="m955.46 352-7.12-3.5 20.51 29.09h4.67z" fill="#808080"/><path d="m994.38 351.98-17.97 25.61h4.67l20.39-29.09z" fill="#ccc"/><path d="m958.35 403 2.22 3.5 14.33-20.32v-6.63z" fill="#ccc"/><path d="m960.57 348.5h-12.23l7.07 3.5h2.94l16.55 23.45v-6.63z" fill="#f2f2f2"/><path d="m958.35 403h-2.94l-7.07 3.5h12.23z" fill="#808080"/><path d="m948.34 406.5 7.12-3.5 17.94-25.41h-4.67z" fill="#ccc"/><path d="m1001.47 406.5-20.39-28.91h-4.67l17.94 25.41z" fill="#f2f2f2"/><path d="m989.24 348.5-14.34 20.32v6.63l16.56-23.45z" fill="#ccc"/><path d="m989.24 348.5 2.22 3.5h2.94l7.07-3.5z" fill="#f2f2f2"/><path d="m955.41 352h2.94l16.55 23.45 16.56-23.45h2.94l-17.99 25.59 17.94 25.41h-2.89l-16.56-23.45-16.55 23.45h-2.89l17.94-25.41z" fill="#e6e6e6"/><path d="m948.2 406.5-7.07-3.5h-2.94l-16.56-23.45v6.63l14.34 20.32z" fill="#808080"/><path d="m902.19 352-7.12-3.5 20.51 29.09h4.67z" fill="#808080"/><path d="m941.11 351.98-17.97 25.61h4.67l20.39-29.09z" fill="#ccc"/><path d="m905.08 403 2.22 3.5 14.33-20.32v-6.63z" fill="#ccc"/><path d="m907.3 348.5h-12.23l7.07 3.5h2.94l16.55 23.45v-6.63z" fill="#f2f2f2"/><path d="m905.08 403h-2.94l-7.07 3.5h12.23z" fill="#808080"/><path d="m895.07 406.5 7.12-3.5 17.94-25.41h-4.67z" fill="#ccc"/><path d="m948.2 406.5-20.39-28.91h-4.67l17.94 25.41z" fill="#f2f2f2"/><path d="m935.97 348.5-14.34 20.32v6.63l16.56-23.45z" fill="#ccc"/><path d="m935.97 348.5 2.22 3.5h2.94l7.07-3.5z" fill="#f2f2f2"/><path d="m902.14 352h2.94l16.55 23.45 16.56-23.45h2.94l-17.99 25.59 17.94 25.41h-2.89l-16.56-23.45-16.55 23.45h-2.89l17.94-25.41z" fill="#e6e6e6"/><path d="m894.93 406.5-7.07-3.5h-2.94l-16.55-23.45v6.63l14.33 20.32z" fill="#808080"/><path d="m848.92 352-7.12-3.5 20.51 29.09h4.67z" fill="#808080"/><path d="m887.84 351.98-17.97 25.61h4.67l20.39-29.09z" fill="#ccc"/><path d="m851.81 403 2.22 3.5 14.34-20.32v-6.63z" fill="#ccc"/><path d="m854.03 348.5h-12.23l7.07 3.5h2.94l16.56 23.45v-6.63z" fill="#f2f2f2"/><path d="m851.81 403h-2.94l-7.07 3.5h12.23z" fill="#808080"/><path d="m841.8 406.5 7.12-3.5 17.94-25.41h-4.67z" fill="#ccc"/><path d="m894.93 406.5-20.39-28.91h-4.67l17.94 25.41z" fill="#f2f2f2"/><path d="m882.7 348.5-14.33 20.32v6.63l16.55-23.45z" fill="#ccc"/><path d="m882.7 348.5 2.22 3.5h2.94l7.07-3.5z" fill="#f2f2f2"/><path d="m848.87 352h2.94l16.56 23.45 16.55-23.45h2.94l-17.99 25.59 17.94 25.41h-2.89l-16.55-23.45-16.56 23.45h-2.89l17.94-25.41z" fill="#e6e6e6"/><path d="m841.66 406.5-7.07-3.5h-2.94l-16.55-23.45v6.63l14.33 20.32z" fill="#808080"/><path d="m795.65 352-7.12-3.5 20.51 29.09h4.67z" fill="#808080"/><path d="m834.57 351.98-17.97 25.61h4.67l20.39-29.09z" fill="#ccc"/><path d="m798.54 403 2.22 3.5 14.34-20.32v-6.63z" fill="#ccc"/><path d="m800.76 348.5h-12.23l7.07 3.5h2.94l16.56 23.45v-6.63z" fill="#f2f2f2"/><path d="m798.54 403h-2.94l-7.07 3.5h12.23z" fill="#808080"/><path d="m788.53 406.5 7.12-3.5 17.94-25.41h-4.67z" fill="#ccc"/><path d="m841.66 406.5-20.39-28.91h-4.67l17.94 25.41z" fill="#f2f2f2"/><path d="m829.43 348.5-14.33 20.32v6.63l16.55-23.45z" fill="#ccc"/><path d="m829.43 348.5 2.22 3.5h2.94l7.07-3.5z" fill="#f2f2f2"/><path d="m795.6 352h2.94l16.56 23.45 16.55-23.45h2.94l-17.99 25.59 17.94 25.41h-2.89l-16.55-23.45-16.56 23.45h-2.89l17.94-25.41z" fill="#e6e6e6"/><path d="m788.39 406.5-7.07-3.5h-2.94l-16.55-23.45v6.63l14.33 20.32z" fill="#808080"/><path d="m742.38 352-7.12-3.5 20.51 29.09h4.67z" fill="#808080"/><path d="m781.3 351.98-17.97 25.61h4.67l20.39-29.09z" fill="#ccc"/><path d="m745.27 403 2.22 3.5 14.34-20.32v-6.63z" fill="#ccc"/><path d="m747.49 348.5h-12.23l7.07 3.5h2.94l16.56 23.45v-6.63z" fill="#f2f2f2"/><path d="m745.27 403h-2.94l-7.07 3.5h12.23z" fill="#808080"/><path d="m735.26 406.5 7.12-3.5 17.94-25.41h-4.67z" fill="#ccc"/><path d="m788.39 406.5-20.39-28.91h-4.67l17.94 25.41z" fill="#f2f2f2"/><path d="m776.16 348.5-14.33 20.32v6.63l16.55-23.45z" fill="#ccc"/><path d="m776.16 348.5 2.22 3.5h2.94l7.07-3.5z" fill="#f2f2f2"/><path d="m742.33 352h2.94l16.56 23.45 16.55-23.45h2.94l-17.99 25.59 17.94 25.41h-2.89l-16.55-23.45-16.56 23.45h-2.89l17.94-25.41z" fill="#e6e6e6"/><path d="m735.12 406.5-7.07-3.5h-2.94l-16.55-23.45v6.63l14.33 20.32z" fill="#808080"/><path d="m689.11 352-7.12-3.5 20.51 29.09h4.67z" fill="#808080"/><path d="m728.03 351.98-17.97 25.61h4.67l20.39-29.09z" fill="#ccc"/><path d="m692 403 2.22 3.5 14.34-20.32v-6.63z" fill="#ccc"/><path d="m694.22 348.5h-12.23l7.07 3.5h2.94l16.56 23.45v-6.63z" fill="#f2f2f2"/><path d="m692 403h-2.94l-7.07 3.5h12.23z" fill="#808080"/><path d="m681.99 406.5 7.12-3.5 17.94-25.41h-4.67z" fill="#ccc"/><path d="m735.12 406.5-20.38-28.91h-4.68l17.94 25.41z" fill="#f2f2f2"/><path d="m722.89 348.5-14.33 20.32v6.63l16.55-23.45z" fill="#ccc"/><path d="m722.89 348.5 2.22 3.5h2.94l7.07-3.5z" fill="#f2f2f2"/><path d="m689.06 352h2.94l16.56 23.45 16.55-23.45h2.94l-17.99 25.59 17.94 25.41h-2.89l-16.55-23.45-16.56 23.45h-2.89l17.94-25.41z" fill="#e6e6e6"/><path d="m681.85 406.5-7.07-3.5h-2.94l-16.55-23.45v6.63l14.33 20.32z" fill="#808080"/><path d="m635.84 352-7.12-3.5 20.51 29.09h4.67z" fill="#808080"/><path d="m674.76 351.98-17.97 25.61h4.67l20.39-29.09z" fill="#ccc"/><path d="m638.73 403 2.22 3.5 14.34-20.32v-6.63z" fill="#ccc"/><path d="m640.95 348.5h-12.23l7.07 3.5h2.94l16.56 23.45v-6.63z" fill="#f2f2f2"/><path d="m638.73 403h-2.94l-7.07 3.5h12.23z" fill="#808080"/><path d="m628.72 406.5 7.12-3.5 17.94-25.41h-4.67z" fill="#ccc"/><path d="m681.85 406.5-20.38-28.91h-4.68l17.94 25.41z" fill="#f2f2f2"/><path d="m669.62 348.5-14.33 20.32v6.63l16.55-23.45z" fill="#ccc"/><path d="m669.62 348.5 2.22 3.5h2.94l7.07-3.5z" fill="#f2f2f2"/><path d="m635.79 352h2.94l16.56 23.45 16.55-23.45h2.94l-17.99 25.59 17.94 25.41h-2.89l-16.55-23.45-16.56 23.45h-2.89l17.94-25.41z" fill="#e6e6e6"/><path d="m628.58 406.5-7.07-3.5h-2.94l-16.55-23.45v6.63l14.33 20.32z" fill="#808080"/><path d="m582.57 352-7.12-3.5 20.51 29.09h4.67z" fill="#808080"/><path d="m621.49 351.98-17.97 25.61h4.67l20.39-29.09z" fill="#ccc"/><path d="m585.46 403 2.22 3.5 14.34-20.32v-6.63z" fill="#ccc"/><path d="m587.68 348.5h-12.23l7.07 3.5h2.94l16.56 23.45v-6.63z" fill="#f2f2f2"/><path d="m585.46 403h-2.94l-7.07 3.5h12.23z" fill="#808080"/><path d="m575.45 406.5 7.12-3.5 17.94-25.41h-4.67z" fill="#ccc"/><path d="m628.58 406.5-20.38-28.91h-4.68l17.94 25.41z" fill="#f2f2f2"/><path d="m616.35 348.5-14.33 20.32v6.63l16.55-23.45z" fill="#ccc"/><path d="m616.35 348.5 2.22 3.5h2.94l7.07-3.5z" fill="#f2f2f2"/><path d="m582.52 352h2.94l16.56 23.45 16.55-23.45h2.94l-17.99 25.59 17.94 25.41h-2.89l-16.55-23.45-16.56 23.45h-2.89l17.94-25.41z" fill="#e6e6e6"/><path d="m575.31 406.5-7.07-3.5h-2.94l-16.55-23.45v6.63l14.33 20.32z" fill="#808080"/><path d="m529.3 352-7.12-3.5 20.51 29.09h4.67z" fill="#808080"/><path d="m568.22 351.98-17.97 25.61h4.67l20.39-29.09z" fill="#ccc"/><path d="m532.19 403 2.22 3.5 14.34-20.32v-6.63z" fill="#ccc"/><path d="m534.41 348.5h-12.23l7.07 3.5h2.94l16.56 23.45v-6.63z" fill="#f2f2f2"/><path d="m532.19 403h-2.94l-7.07 3.5h12.23z" fill="#808080"/><path d="m522.18 406.5 7.12-3.5 17.94-25.41h-4.67z" fill="#ccc"/><path d="m575.31 406.5-20.38-28.91h-4.68l17.94 25.41z" fill="#f2f2f2"/><path d="m563.08 348.5-14.33 20.32v6.63l16.55-23.45z" fill="#ccc"/><path d="m563.08 348.5 2.22 3.5h2.94l7.07-3.5z" fill="#f2f2f2"/><path d="m529.25 352h2.94l16.56 23.45 16.55-23.45h2.94l-17.99 25.59 17.94 25.41h-2.89l-16.55-23.45-16.56 23.45h-2.89l17.94-25.41z" fill="#e6e6e6"/><path d="m522.04 406.5-7.07-3.5h-2.94l-16.55-23.45v6.63l14.33 20.32z" fill="#808080"/><path d="m476.03 352-7.12-3.5 20.51 29.09h4.67z" fill="#808080"/><path d="m514.95 351.98-17.97 25.61h4.67l20.39-29.09z" fill="#ccc"/><path d="m478.92 403 2.22 3.5 14.34-20.32v-6.63z" fill="#ccc"/><path d="m481.14 348.5h-12.23l7.07 3.5h2.94l16.56 23.45v-6.63z" fill="#f2f2f2"/><path d="m478.92 403h-2.94l-7.07 3.5h12.23z" fill="#808080"/><path d="m468.91 406.5 7.12-3.5 17.94-25.41h-4.67z" fill="#ccc"/><path d="m522.04 406.5-20.38-28.91h-4.67l17.93 25.41z" fill="#f2f2f2"/><path d="m509.81 348.5-14.33 20.32v6.63l16.55-23.45z" fill="#ccc"/><path d="m509.81 348.5 2.22 3.5h2.94l7.07-3.5z" fill="#f2f2f2"/><path d="m475.98 352h2.94l16.56 23.45 16.55-23.45h2.94l-17.98 25.59 17.93 25.41h-2.89l-16.55-23.45-16.56 23.45h-2.89l17.94-25.41z" fill="#e6e6e6"/><path d="m468.77 406.5-7.07-3.5h-2.94l-16.55-23.45v6.63l14.33 20.32z" fill="#808080"/><path d="m422.76 352-7.12-3.5 20.51 29.09h4.67z" fill="#808080"/><path d="m461.68 351.98-17.97 25.61h4.67l20.39-29.09z" fill="#ccc"/><path d="m425.65 403 2.22 3.5 14.34-20.32v-6.63z" fill="#ccc"/><path d="m427.87 348.5h-12.23l7.07 3.5h2.94l16.56 23.45v-6.63z" fill="#f2f2f2"/><path d="m425.65 403h-2.94l-7.07 3.5h12.23z" fill="#808080"/><path d="m415.64 406.5 7.12-3.5 17.94-25.41h-4.67z" fill="#ccc"/><path d="m468.77 406.5-20.38-28.91h-4.68l17.94 25.41z" fill="#f2f2f2"/><path d="m456.54 348.5-14.33 20.32v6.63l16.55-23.45z" fill="#ccc"/><path d="m456.54 348.5 2.22 3.5h2.94l7.07-3.5z" fill="#f2f2f2"/><path d="m422.71 352h2.94l16.56 23.45 16.55-23.45h2.94l-17.99 25.59 17.94 25.41h-2.89l-16.55-23.45-16.56 23.45h-2.89l17.94-25.41z" fill="#e6e6e6"/><path d="m415.5 406.5-7.07-3.5h-2.94l-16.55-23.45v6.63l14.33 20.32z" fill="#808080"/><path d="m369.49 352-7.12-3.5 20.51 29.09h4.67z" fill="#808080"/><path d="m408.41 351.98-17.97 25.61h4.67l20.39-29.09z" fill="#ccc"/><path d="m372.38 403 2.22 3.5 14.34-20.32v-6.63z" fill="#ccc"/><path d="m374.6 348.5h-12.23l7.07 3.5h2.94l16.56 23.45v-6.63z" fill="#f2f2f2"/><path d="m372.38 403h-2.94l-7.07 3.5h12.23z" fill="#808080"/><path d="m362.37 406.5 7.12-3.5 17.94-25.41h-4.67z" fill="#ccc"/><path d="m415.5 406.5-20.38-28.91h-4.68l17.94 25.41z" fill="#f2f2f2"/><path d="m403.27 348.5-14.33 20.32v6.63l16.55-23.45z" fill="#ccc"/><path d="m403.27 348.5 2.22 3.5h2.94l7.07-3.5z" fill="#f2f2f2"/><path d="m369.44 352h2.94l16.56 23.45 16.55-23.45h2.94l-17.99 25.59 17.94 25.41h-2.89l-16.55-23.45-16.56 23.45h-2.89l17.94-25.41z" fill="#e6e6e6"/><path d="m362.23 406.5-7.07-3.5h-2.94l-16.55-23.45v6.63l14.33 20.32z" fill="#808080"/><path d="m316.22 352-7.12-3.5 20.51 29.09h4.67z" fill="#808080"/><path d="m355.14 351.98-17.97 25.61h4.67l20.39-29.09z" fill="#ccc"/><path d="m319.11 403 2.22 3.5 14.34-20.32v-6.63z" fill="#ccc"/><path d="m321.33 348.5h-12.23l7.07 3.5h2.94l16.56 23.45v-6.63z" fill="#f2f2f2"/><path d="m319.11 403h-2.94l-7.07 3.5h12.23z" fill="#808080"/><path d="m309.1 406.5 7.12-3.5 17.94-25.41h-4.67z" fill="#ccc"/><path d="m362.23 406.5-20.38-28.91h-4.67l17.93 25.41z" fill="#f2f2f2"/><path d="m350 348.5-14.33 20.32v6.63l16.55-23.45z" fill="#ccc"/><path d="m350 348.5 2.22 3.5h2.94l7.07-3.5z" fill="#f2f2f2"/><path d="m316.17 352h2.94l16.56 23.45 16.55-23.45h2.94l-17.98 25.59 17.93 25.41h-2.89l-16.55-23.45-16.56 23.45h-2.89l17.94-25.41z" fill="#e6e6e6"/><path d="m308.96 406.5-7.07-3.5h-2.94l-16.55-23.45v6.63l14.33 20.32z" fill="#808080"/><path d="m262.95 352-7.12-3.5 20.51 29.09h4.67z" fill="#808080"/><path d="m301.87 351.98-17.97 25.61h4.67l20.39-29.09z" fill="#ccc"/><path d="m265.84 403 2.22 3.5 14.34-20.32v-6.63z" fill="#ccc"/><path d="m268.06 348.5h-12.23l7.07 3.5h2.94l16.56 23.45v-6.63z" fill="#f2f2f2"/><path d="m265.84 403h-2.94l-7.07 3.5h12.23z" fill="#808080"/><path d="m255.83 406.5 7.12-3.5 17.94-25.41h-4.67z" fill="#ccc"/><path d="m308.96 406.5-20.38-28.91h-4.68l17.94 25.41z" fill="#f2f2f2"/><path d="m296.73 348.5-14.33 20.32v6.63l16.55-23.45z" fill="#ccc"/><path d="m296.73 348.5 2.22 3.5h2.94l7.07-3.5z" fill="#f2f2f2"/><path d="m262.9 352h2.94l16.56 23.45 16.55-23.45h2.94l-17.99 25.59 17.94 25.41h-2.89l-16.55-23.45-16.56 23.45h-2.89l17.94-25.41z" fill="#e6e6e6"/><path d="m255.69 406.5-7.07-3.5h-2.94l-16.55-23.45v6.63l14.33 20.32z" fill="#808080"/><path d="m209.68 352-7.12-3.5 20.51 29.09h4.67z" fill="#808080"/><path d="m248.6 351.98-17.97 25.61h4.67l20.39-29.09z" fill="#ccc"/><path d="m212.57 403 2.22 3.5 14.34-20.32v-6.63z" fill="#ccc"/><path d="m214.79 348.5h-12.23l7.07 3.5h2.94l16.56 23.45v-6.63z" fill="#f2f2f2"/><path d="m212.57 403h-2.94l-7.07 3.5h12.23z" fill="#808080"/><path d="m202.56 406.5 7.12-3.5 17.94-25.41h-4.67z" fill="#ccc"/><path d="m255.69 406.5-20.38-28.91h-4.67l17.93 25.41z" fill="#f2f2f2"/><path d="m243.46 348.5-14.33 20.32v6.63l16.55-23.45z" fill="#ccc"/><path d="m243.46 348.5 2.22 3.5h2.94l7.07-3.5z" fill="#f2f2f2"/><path d="m209.63 352h2.94l16.56 23.45 16.55-23.45h2.94l-17.98 25.59 17.93 25.41h-2.89l-16.55-23.45-16.56 23.45h-2.89l17.94-25.41z" fill="#e6e6e6"/><path d="m202.43 406.5-7.08-3.5h-2.94l-16.55-23.45v6.63l14.33 20.32z" fill="#808080"/><path d="m156.41 352-7.12-3.5 20.51 29.09h4.67z" fill="#808080"/><path d="m195.33 351.98-17.97 25.61h4.67l20.39-29.09z" fill="#ccc"/><path d="m159.3 403 2.23 3.5 14.33-20.32v-6.63z" fill="#ccc"/><path d="m161.53 348.5h-12.24l7.07 3.5h2.94l16.56 23.45v-6.63z" fill="#f2f2f2"/><path d="m159.3 403h-2.94l-7.07 3.5h12.24z" fill="#808080"/><path d="m149.29 406.5 7.12-3.5 17.94-25.41h-4.67z" fill="#ccc"/><path d="m202.43 406.5-20.39-28.91h-4.67l17.93 25.41z" fill="#f2f2f2"/><path d="m190.19 348.5-14.33 20.32v6.63l16.55-23.45z" fill="#ccc"/><path d="m190.19 348.5 2.22 3.5h2.94l7.08-3.5z" fill="#f2f2f2"/><path d="m156.36 352h2.94l16.56 23.45 16.55-23.45h2.94l-17.98 25.59 17.93 25.41h-2.89l-16.55-23.45-16.56 23.45h-2.89l17.94-25.41z" fill="#e6e6e6"/><path d="m149.16 406.5-7.07-3.5h-2.95l-16.55-23.45v6.63l14.33 20.32z" fill="#808080"/><path d="m103.14 352-7.12-3.5 20.51 29.09h4.67z" fill="#808080"/><path d="m142.06 351.98-17.97 25.61h4.67l20.39-29.09z" fill="#ccc"/><path d="m106.03 403 2.22 3.5 14.34-20.32v-6.63z" fill="#ccc"/><path d="m108.25 348.5h-12.23l7.07 3.5h2.94l16.56 23.45v-6.63z" fill="#f2f2f2"/><path d="m106.03 403h-2.94l-7.07 3.5h12.23z" fill="#808080"/><path d="m96.02 406.5 7.12-3.5 17.94-25.41h-4.67z" fill="#ccc"/><path d="m149.16 406.5-20.39-28.91h-4.67l17.93 25.41z" fill="#f2f2f2"/><path d="m136.92 348.5-14.33 20.32v6.63l16.55-23.45z" fill="#ccc"/><path d="m136.92 348.5 2.22 3.5h2.95l7.07-3.5z" fill="#f2f2f2"/><path d="m103.09 352h2.94l16.56 23.45 16.55-23.45h2.95l-17.99 25.59 17.93 25.41h-2.89l-16.55-23.45-16.56 23.45h-2.89l17.94-25.41z" fill="#e6e6e6"/><path d="m95.89 406.5-7.08-3.5h-2.94l-16.55-23.45v6.63l14.33 20.32z" fill="#808080"/><path d="m49.87 352-7.12-3.5 20.51 29.09h4.67z" fill="#808080"/><path d="m88.79 351.98-17.97 25.61h4.67l20.39-29.09z" fill="#ccc"/><path d="m52.76 403 2.22 3.5 14.34-20.32v-6.63z" fill="#ccc"/><path d="m54.98 348.5h-12.23l7.07 3.5h2.94l16.56 23.45v-6.63z" fill="#f2f2f2"/><path d="m52.76 403h-2.94l-7.07 3.5h12.23z" fill="#808080"/><path d="m42.75 406.5 7.12-3.5 17.94-25.41h-4.67z" fill="#ccc"/><path d="m95.89 406.5-20.39-28.91h-4.67l17.93 25.41z" fill="#f2f2f2"/><path d="m83.65 348.5-14.33 20.32v6.63l16.55-23.45z" fill="#ccc"/><path d="m83.65 348.5 2.22 3.5h2.94l7.08-3.5z" fill="#f2f2f2"/><path d="m49.82 352h2.94l16.56 23.45 16.55-23.45h2.94l-17.98 25.59 17.93 25.41h-2.89l-16.55-23.45-16.56 23.45h-2.89l17.94-25.41z" fill="#e6e6e6"/><path d="m227 477.29a1.9 1.9 0 0 0 .93 1.73 8.45 8.45 0 0 0 3.85.57v2.77h-46.97v-2.77a9.35 9.35 0 0 0 4.24-1.49 11 11 0 0 0 2.65-3.8c.35-.77 1.24-2.85 2.65-6.23s3.27-7.63 5.57-12.78 4.86-10.86 7.69-17.16 5.65-12.71 8.48-19.24 5.61-12.9 8.35-19.12 5.17-11.78 7.3-16.7 3.84-8.91 5.17-12 2-4.68 2-4.84c0-.77-.57-1.3-1.72-1.61a25.75 25.75 0 0 0 -3.58-.69v-2.76h69.2v2.83a15.7 15.7 0 0 0 -3.45.69 2.14 2.14 0 0 0 -1.32 2.3 47.35 47.35 0 0 0 2.52 6q2.5 5.54 6.49 14.4t9.15 20q5.18 11.17 10.74 22.81t10.74 22.69q5.16 11.06 9.41 19.81a22 22 0 0 0 3.57 5.53 5.38 5.38 0 0 0 3.85 1.38v2.77h-52.25v-2.77q5-.22 5-2.76a27.28 27.28 0 0 0 -1.33-3.11q-1.34-2.88-2.91-6.45c-1.06-2.38-2.09-4.64-3.06-6.8a30 30 0 0 1 -1.72-4.37h-62.79q-2.65 6.21-4.25 10.13c-1 2.61-1.9 4.69-2.51 6.22s-1.06 2.65-1.33 3.34a5 5 0 0 0 -.36 1.48zm64.43-39.62-25.72-54.83-23.6 54.83zm222.43-33.4a7.77 7.77 0 0 0 .4-1.51 11.84 11.84 0 0 0 .14-1.95c0-1.23-1.2-2.46-3.58-3.69a46.19 46.19 0 0 0 -9.55-3.34 125 125 0 0 0 -13.65-2.53 119.65 119.65 0 0 0 -16.17-1 92.74 92.74 0 0 0 -16.71 1.61 59.19 59.19 0 0 0 -16 5.3 34.08 34.08 0 0 0 -11.93 9.79 26.12 26.12 0 0 0 0 29.72 33.86 33.86 0 0 0 11.93 9.79 58.85 58.85 0 0 0 16 5.3 91.84 91.84 0 0 0 16.71 1.61 86.32 86.32 0 0 0 10.86-1 141.36 141.36 0 0 0 14.85-2.88 98.78 98.78 0 0 0 13.13-4.14c3.8-1.53 5.7-3.15 5.7-4.84a3 3 0 0 0 -.53-1.84 13.62 13.62 0 0 1 -1.06-1.61l2.91-1.62 27.31 36.17-3.18 1.61a2.67 2.67 0 0 0 -1.46-1.49 6.48 6.48 0 0 0 -2.25-.35c-1.24 0-3.71.66-7.43 2s-8.53 2.69-14.44 4.14-12.86 2.65-20.86 3.8a188.25 188.25 0 0 1 -26.78 1.73 141.41 141.41 0 0 1 -31.55-3.57 91.54 91.54 0 0 1 -28.1-11.29 64.22 64.22 0 0 1 -20.15-19.35q-7.69-11.62-7.69-27.07t7.69-27.07a64.44 64.44 0 0 1 20.15-19.35 98.45 98.45 0 0 1 28.1-11.63 129.53 129.53 0 0 1 31.55-3.92 216.19 216.19 0 0 1 27.44 1.5q11.55 1.5 19.49 3.34 7.68 1.85 11.93 3.11a24.51 24.51 0 0 0 6.37 1.27 5 5 0 0 0 4-1.85l2.92.69-23.87 38zm96.51 75.32q5-.45 6.23-1.49a3.37 3.37 0 0 0 1.19-2.65v-86.16h-45.6a3.93 3.93 0 0 0 -3.18 1.26q-1.07 1.27-1.59 5.19h-3.19v-41h3.19c.35 2.62.88 4.34 1.59 5.19a3.91 3.91 0 0 0 3.18 1.27h131a3.94 3.94 0 0 0 3.18-1.27c.71-.85 1.24-2.57 1.59-5.19h3.18v41h-3.18q-.52-3.92-1.59-5.19a4 4 0 0 0 -3.18-1.26h-45.6v86.16a3.37 3.37 0 0 0 1.19 2.65c.8.69 2.87 1.19 6.23 1.49v2.77h-54.68zm132.82 0q5-.45 6.23-1.49a3.34 3.34 0 0 0 1.19-2.65v-107.36a3.32 3.32 0 0 0 -1.19-2.64q-1.18-1-6.23-1.5v-2.76h54.62v2.81q-5 .46-6.23 1.5a3.33 3.33 0 0 0 -1.2 2.64v107.31a3.35 3.35 0 0 0 1.2 2.65q1.19 1 6.23 1.49v2.77h-54.66zm140.79 0a11.44 11.44 0 0 0 3.18-.92 1.33 1.33 0 0 0 .8-1.15 30.23 30.23 0 0 0 -2.13-4.72q-2.12-4.26-5.43-11.18t-7.86-15.62q-4.51-8.74-9.15-18.2t-9.39-18.7q-4.77-9.21-8.75-17t-6.76-13.6c-1.86-3.83-3.14-6.53-3.85-8.06a24.09 24.09 0 0 0 -2.91-5.07 4.85 4.85 0 0 0 -3.18-1.38v-2.76h54.35v2.77a10.07 10.07 0 0 0 -4.25.92 2.13 2.13 0 0 0 -1.06 1.84 8.45 8.45 0 0 0 1.2 2.88l5 9.33 11.13 20.74q7.29 13.59 19.75 37.09 11.94-22.81 19-36.29t10.87-20.61q3.84-7.16 4.9-9.8a12.17 12.17 0 0 0 1.06-3.57 2 2 0 0 0 -.79-1.72 7 7 0 0 0 -3.18-.81v-2.76h45.6v2.76a15.71 15.71 0 0 0 -2.52.92 3.31 3.31 0 0 0 -1.46 2.07q-.52 1.38-3.18 6.68t-6.49 13.13q-3.86 7.85-8.49 17.4t-9.54 19.46q-4.92 9.92-9.55 19.35t-8.22 16.82q-3.57 7.38-5.7 12.21a39.67 39.67 0 0 0 -2.12 5.3c0 1.38 1.24 2.07 3.71 2.07v3h-54.63zm139.18 0q5-.45 6.24-1.49a3.37 3.37 0 0 0 1.19-2.65v-107.36a3.35 3.35 0 0 0 -1.19-2.64q-1.2-1-6.24-1.5v-2.76h54.62v2.81c-3.36.31-5.43.81-6.23 1.5a3.35 3.35 0 0 0 -1.19 2.64v107.31a3.37 3.37 0 0 0 1.19 2.65c.8.69 2.87 1.19 6.23 1.49v2.77h-54.62zm132.3 0q5-.45 6.23-1.49a3.35 3.35 0 0 0 1.2-2.65v-86.16h-45.6a4 4 0 0 0 -3.19 1.26c-.71.85-1.23 2.58-1.59 5.19h-3.18v-41h3.18c.36 2.62.88 4.34 1.59 5.19a3.94 3.94 0 0 0 3.19 1.27h131a3.94 3.94 0 0 0 3.18-1.27c.7-.85 1.23-2.57 1.59-5.19h3.18v41h-3.24q-.54-3.92-1.59-5.19a4 4 0 0 0 -3.18-1.26h-45.6v86.16a3.34 3.34 0 0 0 1.19 2.65q1.18 1 6.23 1.49v2.77h-54.62zm234.37-41.46a7 7 0 0 0 -2.25-3.8q-1.72-1.5-5.7-1.5h-49.31v21.42h85.1a3.93 3.93 0 0 0 3.18-1.26q1.07-1.28 1.59-5.65h3.18v39.39h-3.18c-.35-2-.88-3.22-1.59-3.68a5.91 5.91 0 0 0 -3.18-.69h-132.3v-2.77q5-.45 6.23-1.49a3.35 3.35 0 0 0 1.2-2.65v-107.36a3.33 3.33 0 0 0 -1.2-2.64q-1.18-1-6.23-1.5v-2.76h132.3a3.94 3.94 0 0 0 3.18-1.27c.71-.85 1.24-2.57 1.59-5.19h3.18v40.09h-3.18q-.53-3.92-1.59-5.19a3.93 3.93 0 0 0 -3.18-1.26h-85.1v19.12h49.31q4 0 5.7-1.5a7 7 0 0 0 2.25-3.8h3.17v35.94zm84-2.54a14.93 14.93 0 0 0 -.54 4.84q0 2.31 4.91 5.18a64.44 64.44 0 0 0 12.73 5.42 128.6 128.6 0 0 0 17.89 4.26 120.87 120.87 0 0 0 20.42 1.73q19.88 0 29.16-4t9.28-11.64q0-4.14-8.08-5.87a168 168 0 0 0 -20.29-2.77q-12.19-1-26.25-2.3a149.42 149.42 0 0 1 -26.24-4.61 56.75 56.75 0 0 1 -20.29-9.67q-8.08-6.33-8.08-17.4a28.5 28.5 0 0 1 4.64-15.89 39.64 39.64 0 0 1 13-12.21 71.05 71.05 0 0 1 20.28-7.95 113.11 113.11 0 0 1 26.51-2.88 198 198 0 0 1 25.19 1.5q11.65 1.5 20.68 3.34t15.11 3.34a42.37 42.37 0 0 0 8.75 1.5 7.67 7.67 0 0 0 4.24-1 16.13 16.13 0 0 0 2.92-2.42l2.92.92-18.3 32-3.18-1.38v-2.53q0-2.07-5.17-4.26a75.12 75.12 0 0 0 -13.12-3.92q-8-1.72-17.77-2.88a163 163 0 0 0 -19.08-1.15q-17.25 0-24.13 3.46t-6.89 7.37q0 3.91 4.77 5.87a48.33 48.33 0 0 0 12.46 2.88q7.68.91 17.5 1.5c6.53.38 13.26 1 20.15 1.72s13.61 1.85 20.15 3.23a67.83 67.83 0 0 1 17.49 6.1 35.65 35.65 0 0 1 12.46 10.6q4.79 6.57 4.78 16.47a33.91 33.91 0 0 1 -3.58 15q-3.59 7.38-12.2 13.24t-23.03 9.26q-14.46 3.46-35.93 3.46a257.56 257.56 0 0 1 -28.76-1.38 189.33 189.33 0 0 1 -20.55-3.34q-8.49-2-13.39-3.58a26.4 26.4 0 0 0 -7.29-1.61 4.43 4.43 0 0 0 -2.78.92c-.8.62-1.64 1.31-2.52 2.08l-3.19-.69 19.63-41z" fill="url(#j)"/><path d="m1425.58 354.73v40.09h-3.18q-.53-3.92-1.59-5.19a3.93 3.93 0 0 0 -3.18-1.26h-85.1v19.12h49.31q4 0 5.7-1.5a7 7 0 0 0 2.25-3.8h3.21v35.94h-3.18a7 7 0 0 0 -2.25-3.8q-1.72-1.5-5.7-1.5h-49.31v21.42h85.1a3.93 3.93 0 0 0 3.18-1.26q1.07-1.28 1.59-5.65h3.18v39.39h-3.18c-.35-2-.88-3.22-1.59-3.68a5.91 5.91 0 0 0 -3.18-.69h-132.3v-2.77q5-.45 6.23-1.49a3.35 3.35 0 0 0 1.2-2.65v-107.36a3.33 3.33 0 0 0 -1.2-2.64q-1.18-1-6.23-1.5v-2.76h132.3a3.94 3.94 0 0 0 3.18-1.27c.71-.85 1.24-2.57 1.59-5.19h3.18m-169.41 0v41h-3.2q-.54-3.92-1.59-5.19a4 4 0 0 0 -3.18-1.26h-45.6v86.16a3.34 3.34 0 0 0 1.19 2.65q1.18 1 6.23 1.49v2.77h-54.62v-2.77q5-.45 6.23-1.49a3.35 3.35 0 0 0 1.2-2.65v-86.15h-45.6a4 4 0 0 0 -3.19 1.26c-.71.85-1.23 2.58-1.59 5.19h-3.18v-41h3.18c.36 2.62.88 4.34 1.59 5.19a3.94 3.94 0 0 0 3.19 1.27h131a3.94 3.94 0 0 0 3.18-1.27c.7-.85 1.23-2.57 1.59-5.19h3.18m-545.1 0v41h-3.18q-.52-3.92-1.59-5.19a4 4 0 0 0 -3.18-1.26h-45.6v86.16a3.37 3.37 0 0 0 1.19 2.65c.8.69 2.87 1.19 6.23 1.49v2.77h-54.65v-2.77q5-.45 6.23-1.49a3.37 3.37 0 0 0 1.19-2.65v-86.16h-45.6a3.93 3.93 0 0 0 -3.18 1.26q-1.07 1.27-1.59 5.19h-3.19v-41h3.19c.35 2.62.88 4.34 1.59 5.19a3.91 3.91 0 0 0 3.18 1.27h131a3.92 3.92 0 0 0 3.18-1.27c.71-.85 1.24-2.57 1.59-5.19h3.18m811.81 5.07a198 198 0 0 1 25.19 1.5q11.65 1.5 20.68 3.34t15.11 3.34a42.37 42.37 0 0 0 8.75 1.5 7.67 7.67 0 0 0 4.24-1 16.13 16.13 0 0 0 2.92-2.42l2.92.92-18.3 32-3.18-1.38v-2.53q0-2.07-5.17-4.26a75.12 75.12 0 0 0 -13.12-3.92q-8-1.72-17.77-2.88a163 163 0 0 0 -19.08-1.15q-17.25 0-24.13 3.46t-6.89 7.37q0 3.91 4.77 5.87a48.33 48.33 0 0 0 12.46 2.88q7.68.91 17.5 1.5c6.53.38 13.26 1 20.15 1.72s13.61 1.85 20.15 3.23a67.83 67.83 0 0 1 17.49 6.1 35.65 35.65 0 0 1 12.46 10.6q4.79 6.57 4.78 16.47a33.91 33.91 0 0 1 -3.58 15q-3.59 7.38-12.2 13.24t-23.06 9.28q-14.46 3.46-35.93 3.46a257.56 257.56 0 0 1 -28.76-1.38 189.33 189.33 0 0 1 -20.55-3.34q-8.49-2-13.39-3.58a26.4 26.4 0 0 0 -7.29-1.61 4.43 4.43 0 0 0 -2.78.92c-.8.62-1.64 1.31-2.52 2.08l-3.19-.69 19.63-41 2.65 1.15a14.93 14.93 0 0 0 -.54 4.84q0 2.31 4.91 5.18a64.44 64.44 0 0 0 12.73 5.42 128.6 128.6 0 0 0 17.89 4.26 120.87 120.87 0 0 0 20.42 1.73q19.88 0 29.16-4t9.28-11.64q0-4.14-8.08-5.87a168 168 0 0 0 -20.29-2.77q-12.19-1-26.25-2.3a149.42 149.42 0 0 1 -26.24-4.61 56.75 56.75 0 0 1 -20.29-9.67q-8.08-6.33-8.08-17.4a28.5 28.5 0 0 1 4.64-15.89 39.64 39.64 0 0 1 13-12.21 71.05 71.05 0 0 1 20.28-7.95 113.11 113.11 0 0 1 26.51-2.88m-1054.66 0a216.19 216.19 0 0 1 27.44 1.5q11.55 1.5 19.49 3.34 7.68 1.85 11.93 3.11a24.51 24.51 0 0 0 6.37 1.27 5 5 0 0 0 4-1.85l2.92.69-23.87 38-2.65-1.61a7.77 7.77 0 0 0 .4-1.51 11.84 11.84 0 0 0 .14-1.95c0-1.23-1.2-2.46-3.58-3.69a46.19 46.19 0 0 0 -9.55-3.34 125 125 0 0 0 -13.65-2.53 119.65 119.65 0 0 0 -16.17-1 92.74 92.74 0 0 0 -16.71 1.61 59.53 59.53 0 0 0 -16 5.3 34.08 34.08 0 0 0 -11.93 9.79 26.12 26.12 0 0 0 0 29.72 33.86 33.86 0 0 0 11.93 9.79 58.85 58.85 0 0 0 16 5.3 91.84 91.84 0 0 0 16.71 1.61 86.32 86.32 0 0 0 10.86-1 141.36 141.36 0 0 0 14.85-2.88 98.78 98.78 0 0 0 13.13-4.14c3.8-1.53 5.7-3.15 5.7-4.84a3 3 0 0 0 -.53-1.84 13.62 13.62 0 0 1 -1.06-1.61l2.91-1.62 27.31 36.17-3.18 1.61a2.67 2.67 0 0 0 -1.46-1.49 6.48 6.48 0 0 0 -2.25-.35c-1.24 0-3.71.66-7.43 2s-8.53 2.69-14.44 4.14-12.89 2.63-20.89 3.78a188.25 188.25 0 0 1 -26.78 1.73 141.41 141.41 0 0 1 -31.55-3.57 91.54 91.54 0 0 1 -28.1-11.29 64.22 64.22 0 0 1 -20.15-19.35q-7.69-11.62-7.69-27.07t7.69-27.07a64.44 64.44 0 0 1 20.15-19.35 98.45 98.45 0 0 1 28.1-11.63 129.53 129.53 0 0 1 31.55-3.92m609.52 1.39v2.81c-3.36.31-5.43.81-6.23 1.5a3.35 3.35 0 0 0 -1.19 2.64v107.31a3.37 3.37 0 0 0 1.19 2.65c.8.69 2.87 1.19 6.23 1.49v2.77h-54.62v-2.77q5-.45 6.24-1.49a3.37 3.37 0 0 0 1.19-2.65v-107.36a3.35 3.35 0 0 0 -1.19-2.64q-1.2-1-6.24-1.5v-2.76zm-85.63 0v2.81a15.71 15.71 0 0 0 -2.52.92 3.31 3.31 0 0 0 -1.46 2.07q-.52 1.38-3.18 6.68t-6.49 13.13q-3.86 7.85-8.49 17.4t-9.54 19.46q-4.92 9.92-9.55 19.35t-8.22 16.82q-3.57 7.38-5.7 12.21a39.67 39.67 0 0 0 -2.12 5.3c0 1.38 1.24 2.07 3.71 2.07v3h-54.61v-2.77a11.44 11.44 0 0 0 3.18-.92 1.33 1.33 0 0 0 .8-1.15 29.13 29.13 0 0 0 -2.13-4.72q-2.12-4.26-5.43-11.18t-7.82-15.67q-4.51-8.74-9.15-18.2t-9.39-18.7q-4.77-9.21-8.75-17t-6.76-13.6c-1.86-3.83-3.14-6.53-3.85-8.06a24.09 24.09 0 0 0 -2.91-5.07 4.85 4.85 0 0 0 -3.18-1.38v-2.76h54.35v2.77a10.07 10.07 0 0 0 -4.25.92 2.13 2.13 0 0 0 -1.06 1.84 8.45 8.45 0 0 0 1.2 2.88l5 9.33 11.13 20.74q7.29 13.59 19.75 37.09 11.94-22.81 19-36.29t10.87-20.61q3.84-7.16 4.9-9.8a12.17 12.17 0 0 0 1.06-3.57 2 2 0 0 0 -.79-1.72 7 7 0 0 0 -3.18-.81v-2.76h45.6m-194.34 0v2.76q-5 .46-6.23 1.5a3.33 3.33 0 0 0 -1.2 2.64v107.31a3.35 3.35 0 0 0 1.2 2.65q1.19 1 6.23 1.49v2.77h-54.64v-2.77q5-.45 6.23-1.49a3.34 3.34 0 0 0 1.19-2.65v-107.36a3.32 3.32 0 0 0 -1.19-2.64q-1.18-1-6.23-1.5v-2.76h54.62m-495 0v2.81a15.7 15.7 0 0 0 -3.45.69 2.14 2.14 0 0 0 -1.32 2.3 47.35 47.35 0 0 0 2.52 6q2.5 5.54 6.49 14.4t9.15 20q5.18 11.17 10.74 22.81t10.74 22.69q5.16 11.06 9.41 19.81a22 22 0 0 0 3.57 5.53 5.38 5.38 0 0 0 3.85 1.38v2.77h-52.21v-2.77q5-.22 5-2.76a27.28 27.28 0 0 0 -1.33-3.11q-1.34-2.88-2.91-6.45c-1.06-2.38-2.09-4.64-3.05-6.8a29.29 29.29 0 0 1 -1.73-4.37h-62.79q-2.65 6.21-4.25 10.13c-1 2.61-1.9 4.69-2.51 6.22s-1.06 2.65-1.33 3.34a5 5 0 0 0 -.4 1.5 1.9 1.9 0 0 0 .93 1.73 8.31 8.31 0 0 0 3.85.57v2.77h-46.93v-2.77a9.35 9.35 0 0 0 4.24-1.49 11 11 0 0 0 2.65-3.8c.35-.77 1.24-2.85 2.65-6.23s3.27-7.63 5.57-12.78 4.86-10.86 7.69-17.16 5.65-12.71 8.48-19.24 5.61-12.9 8.35-19.12 5.17-11.78 7.3-16.7 3.84-8.91 5.17-12 2-4.68 2-4.84c0-.77-.57-1.3-1.72-1.61a25.75 25.75 0 0 0 -3.58-.69v-2.76h69.2m-60.72 76.48h49.32l-25.72-54.83zm1183.49-89.67h-3.18a6.75 6.75 0 0 0 -6.68 5.84c0 .23-.06.43-.09.62h-130.3a6.74 6.74 0 0 0 -6.74 6.74v2.8a6.73 6.73 0 0 0 6.13 6.71l1.3.14v101.89c-.38.05-.81.1-1.3.14a6.75 6.75 0 0 0 -6.13 6.71v2.77a6.74 6.74 0 0 0 6.74 6.74h130.76a6.75 6.75 0 0 0 6.31 4.38h3.18a6.74 6.74 0 0 0 6.74-6.75v-39.39a6.74 6.74 0 0 0 -6.74-6.74h-3.18a6.74 6.74 0 0 0 -6.69 5.93c0 .37-.09.7-.13 1h-76.31v-7.94h42.57a8.35 8.35 0 0 1 1.39.09 6.74 6.74 0 0 0 6.56 5.21h3.21a6.74 6.74 0 0 0 6.74-6.74v-35.96a6.74 6.74 0 0 0 -6.74-6.74h-3.18a6.74 6.74 0 0 0 -6.56 5.21 9.63 9.63 0 0 1 -1.39.09h-42.57v-5.64h76.36c0 .18.06.39.09.61a6.75 6.75 0 0 0 6.68 5.84h3.18a6.74 6.74 0 0 0 6.74-6.74v-40.09a6.74 6.74 0 0 0 -6.74-6.74zm-169.41 0h-3.17a6.74 6.74 0 0 0 -6.68 5.84c0 .23-.06.43-.09.62h-127c0-.19-.06-.39-.09-.62a6.74 6.74 0 0 0 -6.68-5.84h-3.18a6.74 6.74 0 0 0 -6.74 6.74v41a6.74 6.74 0 0 0 6.74 6.74h3.18a6.73 6.73 0 0 0 6.68-5.84c0-.22.06-.42.09-.61h36.87v76.71c-.37.05-.8.1-1.3.14a6.75 6.75 0 0 0 -6.13 6.71v2.77a6.74 6.74 0 0 0 6.74 6.74h54.59a6.74 6.74 0 0 0 6.74-6.74v-2.77a6.75 6.75 0 0 0 -6.13-6.71c-.49 0-.92-.09-1.29-.14v-76.74h36.86c0 .19.06.39.09.61a6.73 6.73 0 0 0 6.68 5.84h3.18a6.74 6.74 0 0 0 6.74-6.74v-41a6.74 6.74 0 0 0 -6.74-6.74zm-545.1 0h-3.18a6.75 6.75 0 0 0 -6.68 5.84c0 .23-.06.43-.09.62h-127c0-.19-.06-.39-.09-.62a6.75 6.75 0 0 0 -6.68-5.84h-3.19a6.74 6.74 0 0 0 -6.74 6.74v41a6.74 6.74 0 0 0 6.74 6.74h3.19a6.75 6.75 0 0 0 6.68-5.84c0-.22.06-.42.09-.61h36.88v76.71c-.37.05-.8.1-1.3.14a6.74 6.74 0 0 0 -6.12 6.71v2.77a6.74 6.74 0 0 0 6.74 6.74h54.61a6.74 6.74 0 0 0 6.74-6.74v-2.77a6.74 6.74 0 0 0 -6.12-6.71c-.5 0-.93-.09-1.3-.14v-76.74h36.86c0 .19.06.39.09.61a6.74 6.74 0 0 0 6.68 5.84h3.18a6.74 6.74 0 0 0 6.74-6.74v-41a6.74 6.74 0 0 0 -6.74-6.74zm811.81 5.07a120.16 120.16 0 0 0 -28.09 3.07 78.06 78.06 0 0 0 -22.2 8.74 46.41 46.41 0 0 0 -15.14 14.3 35.23 35.23 0 0 0 -5.73 19.56c0 9.39 3.69 17.24 10.67 22.71a56 56 0 0 0 10.84 6.58 6.53 6.53 0 0 0 -2-.32 6.76 6.76 0 0 0 -6.09 3.83l-19.62 41a6.74 6.74 0 0 0 4.65 9.49l3.19.69a6.27 6.27 0 0 0 1.43.16 6.79 6.79 0 0 0 4.42-1.65c.51-.45 1-.88 1.52-1.28a29.79 29.79 0 0 1 4.55 1.21c3.48 1.15 8.06 2.37 14 3.73a192.64 192.64 0 0 0 21.29 3.47 264.28 264.28 0 0 0 29.53 1.43c14.77 0 27.38-1.23 37.49-3.64 10.39-2.48 18.9-6 25.3-10.32 6.7-4.57 11.57-9.91 14.46-15.87a40.68 40.68 0 0 0 4.26-17.92c0-8-2-14.9-6.06-20.43a42.39 42.39 0 0 0 -14.78-12.6 67.39 67.39 0 0 0 -7.9-3.49 7 7 0 0 0 1.58.19 6.73 6.73 0 0 0 5.85-3.4l18.3-32a6.73 6.73 0 0 0 -3.82-9.77l-2.91-.93a6.83 6.83 0 0 0 -2-.31 6.74 6.74 0 0 0 -4.87 2.08 8.87 8.87 0 0 1 -1.56 1.32 3.94 3.94 0 0 1 -.73.06 35.56 35.56 0 0 1 -7.13-1.3c-4.11-1-9.28-2.16-15.37-3.41s-13.27-2.4-21.18-3.42a206.11 206.11 0 0 0 -26-1.55zm-20 40.45a18 18 0 0 1 2.07-1.19c2-1 7.49-2.74 21.11-2.74a158.8 158.8 0 0 1 18.3 1.1c6.32.75 12.08 1.68 17.12 2.78a69.92 69.92 0 0 1 11.92 3.53c.43.18.78.34 1.06.49v.1a6.74 6.74 0 0 0 4 6.18l2.88 1.25a81.41 81.41 0 0 0 -9.93-2.73c-6.68-1.42-13.67-2.54-20.79-3.33s-13.9-1.37-20.5-1.76c-6.32-.37-12.07-.86-17.1-1.46a44.9 44.9 0 0 1 -10.19-2.22zm-22.7 44.33a6.74 6.74 0 0 0 -3.22-8.21 77.26 77.26 0 0 0 8.08 2.67 156.37 156.37 0 0 0 27.42 4.82c8.83.8 17.67 1.58 26.28 2.31a160.39 160.39 0 0 1 19.45 2.64 17.5 17.5 0 0 1 2.52.71c-.42 1.1-1.61 2.56-5 4-3.65 1.59-11.2 3.48-26.48 3.48a114.64 114.64 0 0 1 -19.28-1.63 123.69 123.69 0 0 1 -17-4 58.59 58.59 0 0 1 -11.4-4.82 17.63 17.63 0 0 1 -1.53-1 8 8 0 0 1 .1-1zm-1012-84.78a136.87 136.87 0 0 0 -33.18 4.11 105.61 105.61 0 0 0 -30 12.44 71.41 71.41 0 0 0 -22.2 21.38c-5.8 8.82-8.8 19.18-8.8 30.77s3 22 8.81 30.79a71.38 71.38 0 0 0 22.19 21.36 98.86 98.86 0 0 0 30.15 12.13 148.56 148.56 0 0 0 33.05 3.74 194.54 194.54 0 0 0 27.8-1.79c8.14-1.18 15.36-2.54 21.47-4s11.19-3 15.08-4.34c2.29-.8 3.67-1.2 4.45-1.39a7 7 0 0 0 2.22 1.29 6.81 6.81 0 0 0 5.26-.35l3.18-1.62a6.74 6.74 0 0 0 2.34-10.12l-27.35-36.17a6.72 6.72 0 0 0 -8.64-1.83l-2.92 1.61a6.73 6.73 0 0 0 -3.18 7.86l-.18.07a91.49 91.49 0 0 1 -12.23 3.86 136.55 136.55 0 0 1 -14.16 2.75 80.2 80.2 0 0 1 -9.93 1 85.24 85.24 0 0 1 -15.48-1.5 52.75 52.75 0 0 1 -14.23-4.68 27.07 27.07 0 0 1 -9.6-7.86 19.4 19.4 0 0 1 0-21.56 27 27 0 0 1 9.6-7.85 52.42 52.42 0 0 1 14.23-4.69 86.57 86.57 0 0 1 15.48-1.5 114.4 114.4 0 0 1 15.27 1 117.61 117.61 0 0 1 12.91 2.39 41.91 41.91 0 0 1 7.64 2.56 6.73 6.73 0 0 0 3.09 7.14l2.65 1.62a6.74 6.74 0 0 0 9.21-2.18l23.87-38a6.75 6.75 0 0 0 -4.16-10.14l-2.91-.69a6.4 6.4 0 0 0 -1.56-.19 6.77 6.77 0 0 0 -4.57 1.79 26.62 26.62 0 0 1 -3.83-.93c-3-.88-7.09-2-12.29-3.21h-.06c-5.5-1.27-12.28-2.43-20.14-3.45a224.4 224.4 0 0 0 -28.31-1.56zm609.52 1.39h-54.62a6.74 6.74 0 0 0 -6.74 6.74v2.8a6.73 6.73 0 0 0 6.13 6.71c.5 0 .93.09 1.3.14v101.89c-.37.05-.8.1-1.3.14a6.75 6.75 0 0 0 -6.13 6.71v2.77a6.74 6.74 0 0 0 6.74 6.74h54.62a6.74 6.74 0 0 0 6.74-6.74v-2.77a6.74 6.74 0 0 0 -6.13-6.71c-.49 0-.92-.09-1.29-.14v-101.94l1.29-.14a6.72 6.72 0 0 0 6.13-6.71v-2.76a6.74 6.74 0 0 0 -6.74-6.74zm-85.63 0h-45.6a6.73 6.73 0 0 0 -6.74 6.74v2.8a6.72 6.72 0 0 0 2.62 5.34c-.68 1.41-1.84 3.7-3.81 7.36-2.61 4.85-6.28 11.81-10.91 20.7q-5.17 9.93-13 24.94c-5.37-10.11-10-18.76-13.77-25.82l-11.14-20.74-.65-1.21-2.62-4.86a6.75 6.75 0 0 0 3.15-5.71v-2.76a6.74 6.74 0 0 0 -6.74-6.74h-54.33a6.73 6.73 0 0 0 -6.74 6.74v2.76a6.73 6.73 0 0 0 5.34 6.59c.3.53.76 1.39 1.39 2.71.7 1.54 1.94 4.13 3.88 8.15 1.85 3.83 4.15 8.44 6.82 13.71s5.62 11 8.78 17.09 6.24 12.22 9.34 18.53 6.26 12.6 9.21 18.32 5.58 11 7.73 15.49c2 4.2 3.64 7.56 5 10.22a6.72 6.72 0 0 0 -2 4.83v2.77a6.74 6.74 0 0 0 6.74 6.74h54.61a6.74 6.74 0 0 0 6.74-6.74v-3a6.71 6.71 0 0 0 -2.07-4.86c1.35-3.08 3.16-6.93 5.51-11.77 2.63-5.42 5.39-11.07 8.2-16.79 3-6 6.08-12.35 9.54-19.34 3.1-6.27 6.23-12.65 9.57-19.51 3.05-6.3 5.9-12.14 8.47-17.36s4.7-9.56 6.47-13.09c1.69-3.38 2.54-5.18 3-6.21a6.74 6.74 0 0 0 4.87-6.47v-2.76a6.74 6.74 0 0 0 -6.74-6.74zm-194.34 0h-54.58a6.74 6.74 0 0 0 -6.74 6.74v2.8a6.73 6.73 0 0 0 6.13 6.71l1.29.14v101.89c-.37.05-.8.1-1.29.14a6.75 6.75 0 0 0 -6.13 6.71v2.77a6.74 6.74 0 0 0 6.74 6.74h54.62a6.74 6.74 0 0 0 6.74-6.74v-2.77a6.75 6.75 0 0 0 -6.13-6.71c-.49 0-.92-.09-1.3-.14v-101.94l1.3-.14a6.73 6.73 0 0 0 6.13-6.71v-2.76a6.74 6.74 0 0 0 -6.74-6.74zm-495 0h-69.2a6.74 6.74 0 0 0 -6.74 6.74v2.8a6.73 6.73 0 0 0 3.3 5.79q-1.86 4.32-4.6 10.66c-2.07 4.79-4.52 10.4-7.27 16.65s-5.62 12.81-8.37 19.17-5.59 12.78-8.45 19.15-5.4 12-7.69 17.17-4.22 9.55-5.64 12.93c-1.65 3.95-2.29 5.43-2.53 6a11.1 11.1 0 0 1 -.7 1.26 8.89 8.89 0 0 1 -1.14.25 6.73 6.73 0 0 0 -5.69 6.65v2.77a6.74 6.74 0 0 0 6.74 6.74h46.93a6.74 6.74 0 0 0 6.74-6.74v-2.77a6.73 6.73 0 0 0 -3.12-5.68c.48-1.17 1-2.58 1.72-4.23l.37-.91c.7-1.72 1.52-3.71 2.46-5.93h53.77l.19.42.35.79c.86 1.9 1.75 3.88 2.68 6l1.74 3.89a6.75 6.75 0 0 0 -3.12 5.69v2.77a6.74 6.74 0 0 0 6.74 6.74h52.23a6.74 6.74 0 0 0 6.74-6.74v-2.77a6.74 6.74 0 0 0 -6.29-6.72 28.55 28.55 0 0 1 -1.84-3.19c-2.77-5.73-5.83-12.16-9.34-19.66s-7.13-15.15-10.76-22.75-7.23-15.21-10.7-22.73-6.52-14.16-9.12-20c-2.78-6.2-4.91-10.92-6.51-14.43-.08-.18-.16-.35-.23-.52a6.74 6.74 0 0 0 3.09-5.67v-2.76a6.74 6.74 0 0 0 -6.74-6.74zm-50.48 76.48 13.63-31.66 14.84 31.66z" fill="#fff"/><path d="m708.07 362.4v25.67a7 7 0 0 0 -5-1.78h-48.6v89.16a6.37 6.37 0 0 0 1.28 3.91h-36.28a6.37 6.37 0 0 0 1.28-3.91v-89.16h-48.6a7 7 0 0 0 -5 1.78v-25.67a7 7 0 0 0 5 1.79h131a7 7 0 0 0 5-1.79m714.51 0v24.75a7 7 0 0 0 -4.95-1.78h-88.1v25.12h52.31c3.43 0 5.94-.73 7.67-2.23l.46-.44v24.68l-.47-.44c-1.73-1.5-4.24-2.23-7.66-2.23h-52.31v27.42h88.1a7 7 0 0 0 4.95-1.78v25.16l-.13-.09a8.56 8.56 0 0 0 -4.82-1.18h-123.24a6.31 6.31 0 0 0 1.29-3.91v-107.36a6.26 6.26 0 0 0 -1.29-3.9h123.16a7 7 0 0 0 4.95-1.79m-169.41 0v25.67a7 7 0 0 0 -5-1.78h-48.6v89.16a6.37 6.37 0 0 0 1.28 3.91h-36.34a6.31 6.31 0 0 0 1.29-3.91v-89.16h-48.6a7 7 0 0 0 -5 1.78v-25.67a7 7 0 0 0 5 1.79h131a7 7 0 0 0 5-1.79m269.71.4a195.78 195.78 0 0 1 24.81 1.48c7.67 1 14.56 2.09 20.46 3.3s11 2.34 15 3.31a43.7 43.7 0 0 0 9.46 1.59 12.3 12.3 0 0 0 3.77-.54l-12.41 21.67c-.87-2.77-4.19-4.49-6.78-5.58a78 78 0 0 0 -13.65-4.09c-5.35-1.16-11.42-2.15-18.06-2.93a167.08 167.08 0 0 0 -19.43-1.17c-12.09 0-20.42 1.23-25.47 3.77-5.68 2.84-8.55 6.23-8.55 10.06 0 2.7 1.15 6.4 6.63 8.65a52 52 0 0 0 13.24 3.08c5.23.62 11.18 1.13 17.68 1.51s13.17 1 20 1.71 13.49 1.84 19.87 3.19a64.78 64.78 0 0 1 16.72 5.82 32.69 32.69 0 0 1 11.43 9.71c2.78 3.83 4.2 8.78 4.2 14.7a31.06 31.06 0 0 1 -3.28 13.67c-2.14 4.41-5.91 8.47-11.19 12.07s-12.84 6.69-22.07 8.9-21.22 3.37-35.23 3.37a256.74 256.74 0 0 1 -28.42-1.36 186 186 0 0 1 -20.22-3.29c-5.54-1.27-10-2.45-13.13-3.5a28.26 28.26 0 0 0 -8.22-1.76 7.61 7.61 0 0 0 -2.88.55l13.52-28.26c1 2.57 3.79 4.48 6 5.77a67.7 67.7 0 0 0 13.32 5.68 130.39 130.39 0 0 0 18.31 4.36 123.8 123.8 0 0 0 20.93 1.78c13.8 0 23.73-1.4 30.35-4.28 9.17-4 11.09-10 11.09-14.39s-3.52-7.32-10.46-8.81a171.69 171.69 0 0 0 -20.65-2.82c-8.67-.73-17.5-1.51-26.24-2.3a147.72 147.72 0 0 1 -25.72-4.51 54.09 54.09 0 0 1 -19.23-9.15c-4.67-3.65-6.93-8.56-6.93-15a25.48 25.48 0 0 1 4.15-14.26 37 37 0 0 1 12-11.28 68.61 68.61 0 0 1 19.42-7.59 110.53 110.53 0 0 1 25.81-2.8m-1054.66 0a214.21 214.21 0 0 1 27.06 1.48c7.55 1 14 2.08 19.17 3.27s9 2.25 11.77 3.07a26.9 26.9 0 0 0 7.23 1.4h.76l-17.09 27.18c-.89-2.67-3.86-4.21-5-4.77a47.76 47.76 0 0 0 -10.1-3.59 129.47 129.47 0 0 0 -14-2.6 125.55 125.55 0 0 0 -16.57-1.06 96.17 96.17 0 0 0 -17.25 1.66 62.06 62.06 0 0 0 -16.85 5.58 37 37 0 0 0 -13 10.65 29.09 29.09 0 0 0 0 33.34 37 37 0 0 0 13 10.66 62.27 62.27 0 0 0 16.85 5.57 95.65 95.65 0 0 0 17.25 1.66 91 91 0 0 0 11.28-1.06 149.94 149.94 0 0 0 15.15-2.94 103.28 103.28 0 0 0 13.53-4.28c1.62-.65 6.09-2.46 7.28-5.88l19.75 26.15h-.71c-1.1 0-3 .24-8.43 2.13-3.59 1.27-8.35 2.63-14.16 4.06s-12.71 2.73-20.53 3.86a185.46 185.46 0 0 1 -26.35 1.7 138.67 138.67 0 0 1 -30.88-3.5 88.77 88.77 0 0 1 -27.19-10.91 61.65 61.65 0 0 1 -19.23-18.46c-4.77-7.2-7.19-15.75-7.19-25.41s2.42-18.2 7.19-25.41a61.87 61.87 0 0 1 19.23-18.46 95.8 95.8 0 0 1 27.25-11.27 127 127 0 0 1 30.82-3.83m600.38 1.39a6.32 6.32 0 0 0 -1.28 3.9v107.34a6.37 6.37 0 0 0 1.28 3.91h-36.33a6.37 6.37 0 0 0 1.28-3.91v-107.36a6.32 6.32 0 0 0 -1.28-3.9h36.33m-82.49 0a8.39 8.39 0 0 0 -.8 1.73c-.22.55-.9 2.08-3 6.36-1.76 3.52-3.95 8-6.51 13.15s-5.43 11.11-8.49 17.41c-3.33 6.86-6.45 13.22-9.53 19.44-3.46 7-6.58 13.31-9.55 19.36-2.81 5.72-5.58 11.38-8.22 16.83-2.46 5.07-4.35 9.1-5.75 12.32-2.38 5.4-2.38 5.82-2.38 6.5a5.13 5.13 0 0 0 .45 2.07h-41.87a4 4 0 0 0 .44-1.84c0-.82-.1-1.34-2.44-6.06-1.38-2.76-3.15-6.4-5.42-11.13-2.19-4.57-4.83-9.87-7.86-15.75-2.92-5.66-6-11.77-9.12-18.14s-6.3-12.67-9.44-18.72-6.08-11.8-8.74-17-4.91-9.77-6.73-13.54c-1.9-3.93-3.15-6.55-3.84-8.05a33.29 33.29 0 0 0 -2.71-4.92h40.61a5 5 0 0 0 -.66 2.52c0 1.05.44 2.26 1.56 4.31q1.07 2 4.18 7.74l.85 1.58 11.14 20.73c5.11 9.55 11.76 22 19.74 37.08l2.67 5 2.64-5q11.94-22.81 19-36.29c4.61-8.85 8.26-15.77 10.85-20.58s4.28-8.2 5.05-10.1a13.71 13.71 0 0 0 1.27-4.69 5.37 5.37 0 0 0 -.49-2.29h33.12m-197.48 0a6.26 6.26 0 0 0 -1.29 3.9v107.33a6.31 6.31 0 0 0 1.29 3.91h-36.38a6.31 6.31 0 0 0 1.28-3.91v-107.36a6.26 6.26 0 0 0 -1.28-3.9h36.34m-493 0a6.1 6.1 0 0 0 -.59 2.75c0 .75 0 1.12 2.79 7.23 1.59 3.52 3.66 8.09 6.49 14.39 2.61 5.84 5.61 12.4 9.16 20.07s7.11 15.24 10.75 22.85 7.23 15.19 10.73 22.66 6.63 14.07 9.43 19.85v.06a31.73 31.73 0 0 0 3.25 5.31h-38a5.24 5.24 0 0 0 .63-2.53c0-.75-.12-1.14-1.61-4.37-.86-1.87-1.83-4-2.89-6.41-.95-2.13-1.87-4.16-2.75-6.11l-.31-.7a25.62 25.62 0 0 1 -1.53-3.8l-.53-2.34h-67.19l-.77 1.82c-1.7 4-3.13 7.4-4.27 10.19l-.42 1q-1.29 3.19-2.1 5.18c-.63 1.56-1.07 2.68-1.34 3.39a7.26 7.26 0 0 0 -.6 2.57 5.24 5.24 0 0 0 .42 2.07h-32.38a16.5 16.5 0 0 0 2.36-3.76c.36-.79 1.22-2.79 2.69-6.31 1.38-3.31 3.25-7.59 5.54-12.72s4.86-10.85 7.69-17.15 5.73-12.9 8.5-19.28 5.53-12.73 8.34-19.1 5.2-11.85 7.3-16.72 3.85-8.91 5.17-12c2.23-5.18 2.23-5.31 2.23-6a4.37 4.37 0 0 0 -.53-2.06h54.25m-58.09 76.48h58.59l-2-4.28-25.72-54.82-2.84-6.05-2.63 6.13-23.6 54.83zm1188.06-85.94h-3.18c-.35 2.62-.88 4.34-1.59 5.19a3.94 3.94 0 0 1 -3.18 1.27h-132.3v2.78q5 .46 6.23 1.5a3.33 3.33 0 0 1 1.2 2.64v107.31a3.35 3.35 0 0 1 -1.2 2.65q-1.18 1-6.23 1.49v2.77h132.3a5.91 5.91 0 0 1 3.18.69c.71.46 1.24 1.69 1.59 3.68h3.18v-39.39h-3.18q-.53 4.38-1.59 5.65a3.93 3.93 0 0 1 -3.18 1.26h-85.1v-21.42h49.31q4 0 5.7 1.5a7 7 0 0 1 2.25 3.8h3.28v-35.94h-3.18a7 7 0 0 1 -2.25 3.8q-1.72 1.5-5.7 1.5h-49.31v-19.12h85.1a3.93 3.93 0 0 1 3.18 1.26q1.07 1.28 1.59 5.19h3.18v-40.09zm-169.41 0h-3.1c-.36 2.62-.89 4.34-1.59 5.19a3.94 3.94 0 0 1 -3.18 1.27h-131a3.94 3.94 0 0 1 -3.19-1.27c-.71-.85-1.23-2.57-1.59-5.19h-3.18v41h3.18c.36-2.61.88-4.34 1.59-5.19a4 4 0 0 1 3.19-1.26h45.6v86.16a3.35 3.35 0 0 1 -1.2 2.65q-1.19 1-6.23 1.49v2.77h54.6v-2.77q-5-.45-6.23-1.49a3.34 3.34 0 0 1 -1.19-2.65v-86.18h45.6a4 4 0 0 1 3.18 1.26q1 1.27 1.59 5.19h3.18v-41zm-545.1 0h-3.18c-.35 2.62-.88 4.34-1.59 5.19a3.94 3.94 0 0 1 -3.18 1.27h-131a3.91 3.91 0 0 1 -3.18-1.27c-.71-.85-1.24-2.57-1.59-5.19h-3.19v41h3.19q.52-3.92 1.59-5.19a3.93 3.93 0 0 1 3.18-1.26h45.6v86.16a3.37 3.37 0 0 1 -1.19 2.65q-1.2 1-6.23 1.49v2.77h54.61v-2.77c-3.36-.3-5.43-.8-6.23-1.49a3.37 3.37 0 0 1 -1.19-2.65v-86.18h45.6a4 4 0 0 1 3.18 1.26q1.07 1.27 1.59 5.19h3.18v-41zm811.81 5.07a113.11 113.11 0 0 0 -26.51 2.88 71.05 71.05 0 0 0 -20.28 7.95 39.64 39.64 0 0 0 -13 12.21 28.5 28.5 0 0 0 -4.64 15.89q0 11.07 8.08 17.4a56.75 56.75 0 0 0 20.29 9.67 149.42 149.42 0 0 0 26.24 4.61q14.06 1.27 26.25 2.3a168 168 0 0 1 20.29 2.77q8.07 1.72 8.08 5.87 0 7.61-9.28 11.64t-29.16 4a120.87 120.87 0 0 1 -20.42-1.73 128.6 128.6 0 0 1 -17.89-4.26 64.44 64.44 0 0 1 -12.73-5.42q-4.9-2.87-4.91-5.18a14.93 14.93 0 0 1 .54-4.84l-2.65-1.15-19.63 41 3.19.69c.88-.77 1.72-1.46 2.52-2.08a4.43 4.43 0 0 1 2.78-.92 26.4 26.4 0 0 1 7.29 1.61q4.9 1.62 13.39 3.58a189.33 189.33 0 0 0 20.55 3.34 257.56 257.56 0 0 0 28.76 1.38q21.48 0 35.93-3.46t23.06-9.33q8.63-5.86 12.2-13.24a33.91 33.91 0 0 0 3.58-15q0-9.9-4.78-16.47a35.65 35.65 0 0 0 -12.46-10.6 67.83 67.83 0 0 0 -17.49-6.1q-9.81-2.07-20.15-3.23c-6.89-.76-13.62-1.34-20.15-1.72s-12.38-.89-17.5-1.5a48.33 48.33 0 0 1 -12.46-2.88q-4.77-1.95-4.77-5.87t6.89-7.37q6.88-3.46 24.13-3.46a163 163 0 0 1 19.08 1.15q9.81 1.15 17.77 2.88a75.12 75.12 0 0 1 13.12 3.92q5.18 2.19 5.17 4.26v2.53l3.18 1.38 18.3-32-2.92-.92a16.13 16.13 0 0 1 -2.92 2.42 7.67 7.67 0 0 1 -4.24 1 42.37 42.37 0 0 1 -8.75-1.5q-6.09-1.5-15.11-3.34t-20.68-3.34a198 198 0 0 0 -25.19-1.5zm-1054.66 0a129.53 129.53 0 0 0 -31.55 3.92 98.45 98.45 0 0 0 -28.1 11.63 64.44 64.44 0 0 0 -20.15 19.35q-7.69 11.64-7.69 27.07t7.69 27.07a64.22 64.22 0 0 0 20.15 19.35 91.54 91.54 0 0 0 28.1 11.29 141.41 141.41 0 0 0 31.55 3.57 188.25 188.25 0 0 0 26.85-1.76q11.92-1.72 20.82-3.92t14.44-4.14c3.72-1.3 6.19-2 7.43-2a6.48 6.48 0 0 1 2.25.35 2.67 2.67 0 0 1 1.46 1.49l3.18-1.61-27.31-36.17-2.91 1.68a13.62 13.62 0 0 0 1.06 1.61 3 3 0 0 1 .53 1.84c0 1.69-1.9 3.31-5.7 4.84a98.78 98.78 0 0 1 -13.13 4.14 141.36 141.36 0 0 1 -14.85 2.88 86.32 86.32 0 0 1 -10.86 1 91.84 91.84 0 0 1 -16.71-1.61 58.85 58.85 0 0 1 -16-5.3 33.86 33.86 0 0 1 -11.93-9.79 26.12 26.12 0 0 1 0-29.72 34.08 34.08 0 0 1 11.93-9.79 59.53 59.53 0 0 1 16-5.3 92.74 92.74 0 0 1 16.71-1.61 119.65 119.65 0 0 1 16.17 1 125 125 0 0 1 13.65 2.53 46.19 46.19 0 0 1 9.55 3.34c2.38 1.23 3.58 2.46 3.58 3.69a11.84 11.84 0 0 1 -.14 1.95 7.77 7.77 0 0 1 -.4 1.51l2.65 1.61 23.87-38-2.92-.69a5 5 0 0 1 -4 1.85 24.51 24.51 0 0 1 -6.37-1.27q-4.25-1.26-11.93-3.11-7.95-1.84-19.49-3.34a216.19 216.19 0 0 0 -27.44-1.5zm609.52 1.39h-54.62v2.78q5 .46 6.24 1.5a3.35 3.35 0 0 1 1.19 2.64v107.31a3.37 3.37 0 0 1 -1.19 2.65q-1.2 1-6.24 1.49v2.77h54.62v-2.77c-3.36-.3-5.43-.8-6.23-1.49a3.37 3.37 0 0 1 -1.19-2.65v-107.36a3.35 3.35 0 0 1 1.19-2.64c.8-.69 2.87-1.19 6.23-1.5v-2.76zm-85.63 0h-45.6v2.78a7 7 0 0 1 3.18.81 2 2 0 0 1 .79 1.72 12.17 12.17 0 0 1 -1.06 3.57q-1.06 2.65-4.9 9.8t-10.87 20.61q-7 13.49-19 36.29-12.47-23.5-19.75-37.09l-11.13-20.74-5-9.33a8.45 8.45 0 0 1 -1.2-2.88 2.13 2.13 0 0 1 1.06-1.84 10.07 10.07 0 0 1 4.25-.92v-2.76h-54.28v2.76a4.85 4.85 0 0 1 3.18 1.38 24.09 24.09 0 0 1 2.91 5.07c.71 1.53 2 4.23 3.85 8.06s4.11 8.38 6.76 13.6 5.57 10.9 8.75 17 6.32 12.37 9.41 18.66 6.14 12.37 9.15 18.2 5.61 11.06 7.82 15.66 4 8.34 5.43 11.18a29.13 29.13 0 0 1 2.13 4.72 1.33 1.33 0 0 1 -.8 1.15 11.44 11.44 0 0 1 -3.18.92v2.77h54.61v-3c-2.47 0-3.71-.69-3.71-2.07a39.67 39.67 0 0 1 2.16-5.3q2.13-4.83 5.7-12.21t8.18-16.79q4.64-9.43 9.55-19.35t9.57-19.5q4.63-9.56 8.49-17.4t6.51-13.13q2.65-5.3 3.18-6.68a3.31 3.31 0 0 1 1.46-2.07 15.71 15.71 0 0 1 2.52-.92v-2.76zm-194.34 0h-54.55v2.78q5 .46 6.23 1.5a3.32 3.32 0 0 1 1.19 2.64v107.31a3.34 3.34 0 0 1 -1.19 2.65q-1.18 1-6.23 1.49v2.77h54.62v-2.77q-5-.45-6.23-1.49a3.35 3.35 0 0 1 -1.2-2.65v-107.36a3.33 3.33 0 0 1 1.2-2.64q1.19-1 6.23-1.5v-2.76zm-495 0h-69.2v2.78a27.31 27.31 0 0 1 3.58.69c1.15.31 1.72.84 1.72 1.61q0 .24-2 4.84t-5.17 12q-3.19 7.38-7.3 16.7t-8.35 19.12q-4.25 9.8-8.48 19.24t-7.69 17.16q-3.45 7.72-5.57 12.78c-1.41 3.38-2.3 5.46-2.65 6.23a11 11 0 0 1 -2.65 3.8 9.35 9.35 0 0 1 -4.24 1.49v2.77h46.93v-2.77a8.31 8.31 0 0 1 -3.85-.57 1.9 1.9 0 0 1 -.93-1.73 5 5 0 0 1 .4-1.5c.27-.69.7-1.8 1.33-3.34s1.46-3.61 2.51-6.22 2.48-6 4.25-10.13h62.83a30 30 0 0 0 1.72 4.37c1 2.16 2 4.42 3.06 6.8s2 4.53 2.91 6.45a27.28 27.28 0 0 1 1.33 3.11q0 2.54-5 2.76v2.77h52.23v-2.77a5.38 5.38 0 0 1 -3.85-1.38 22 22 0 0 1 -3.57-5.53q-4.24-8.74-9.41-19.81t-10.74-22.69q-5.58-11.62-10.74-22.81t-9.15-20q-4-8.86-6.49-14.4a47.35 47.35 0 0 1 -2.52-6 2.14 2.14 0 0 1 1.32-2.3 16.31 16.31 0 0 1 3.45-.69v-2.76zm-60.72 76.48 23.6-54.83 25.72 54.83z" opacity=".4"/></svg>