<svg xmlns="http://www.w3.org/2000/svg" xmlns:xlink="http://www.w3.org/1999/xlink" viewBox="0 0 371.43 371.43"><defs><style>.cls-1{fill:#37353c;}.cls-2{fill:#92864f;}.cls-3{fill:#231f20;}.cls-4{fill:url(#linear-gradient);}.cls-5{fill:url(#linear-gradient-2);}.cls-6{fill:url(#New_Gradient_Swatch_copy_2);}.cls-7{fill:url(#New_Gradient_Swatch_copy_2-2);}.cls-8{fill:url(#New_Gradient_Swatch_copy_2-3);}.cls-9{fill:url(#New_Gradient_Swatch_copy_2-4);}.cls-10{fill:url(#New_Gradient_Swatch_copy_2-5);}.cls-11{fill:url(#New_Gradient_Swatch_copy_2-6);}.cls-12{fill:url(#New_Gradient_Swatch_copy_2-7);}.cls-13{fill:url(#New_Gradient_Swatch_copy_2-8);}.cls-14{fill:url(#New_Gradient_Swatch_copy_2-9);}.cls-15{fill:url(#New_Gradient_Swatch_copy_2-10);}.cls-16{fill:url(#New_Gradient_Swatch_copy_2-11);}.cls-17{fill:url(#New_Gradient_Swatch_copy_2-12);}.cls-18{fill:none;stroke:#625b32;stroke-miterlimit:10;stroke-width:0.75px;}</style><linearGradient id="linear-gradient" x1="676.18" y1="1766.71" x2="883.11" y2="1559.79" gradientTransform="translate(1058.21 1941.82) rotate(180)" gradientUnits="userSpaceOnUse"><stop offset="0" stop-color="#c09d30"/><stop offset="0.35" stop-color="#d0a641"/><stop offset="0.5" stop-color="#fffac4"/><stop offset="0.65" stop-color="#d0a641"/><stop offset="1" stop-color="#c09d30"/></linearGradient><linearGradient id="linear-gradient-2" x1="861.89" y1="1952.43" x2="1068.82" y2="1745.5" xlink:href="#linear-gradient"/><linearGradient id="New_Gradient_Swatch_copy_2" x1="61.17" y1="153.89" x2="61.17" y2="217.54" gradientUnits="userSpaceOnUse"><stop offset="0.18" stop-color="#fffac4"/><stop offset="0.21" stop-color="#f9efb4"/><stop offset="0.25" stop-color="#eed893"/><stop offset="0.76" stop-color="#d6b55a"/><stop offset="0.84" stop-color="#d0a641"/><stop offset="0.95" stop-color="#b69238"/></linearGradient><linearGradient id="New_Gradient_Swatch_copy_2-2" x1="85.27" y1="162.37" x2="85.27" y2="217.54" xlink:href="#New_Gradient_Swatch_copy_2"/><linearGradient id="New_Gradient_Swatch_copy_2-3" x1="113.22" y1="162.37" x2="113.22" y2="217.54" xlink:href="#New_Gradient_Swatch_copy_2"/><linearGradient id="New_Gradient_Swatch_copy_2-4" x1="140.8" y1="162.37" x2="140.8" y2="217.54" xlink:href="#New_Gradient_Swatch_copy_2"/><linearGradient id="New_Gradient_Swatch_copy_2-5" x1="162.79" y1="162.37" x2="162.79" y2="217.54" xlink:href="#New_Gradient_Swatch_copy_2"/><linearGradient id="New_Gradient_Swatch_copy_2-6" x1="186.62" y1="162.37" x2="186.62" y2="217.54" xlink:href="#New_Gradient_Swatch_copy_2"/><linearGradient id="New_Gradient_Swatch_copy_2-7" x1="205.75" y1="162.37" x2="205.75" y2="217.54" xlink:href="#New_Gradient_Swatch_copy_2"/><linearGradient id="New_Gradient_Swatch_copy_2-8" x1="224.87" y1="162.37" x2="224.87" y2="217.54" xlink:href="#New_Gradient_Swatch_copy_2"/><linearGradient id="New_Gradient_Swatch_copy_2-9" x1="244" y1="162.37" x2="244" y2="217.54" xlink:href="#New_Gradient_Swatch_copy_2"/><linearGradient id="New_Gradient_Swatch_copy_2-10" x1="262.97" y1="162.37" x2="262.97" y2="217.54" xlink:href="#New_Gradient_Swatch_copy_2"/><linearGradient id="New_Gradient_Swatch_copy_2-11" x1="287.94" y1="162.37" x2="287.94" y2="217.54" xlink:href="#New_Gradient_Swatch_copy_2"/><linearGradient id="New_Gradient_Swatch_copy_2-12" x1="311.26" y1="162.37" x2="311.26" y2="217.54" xlink:href="#New_Gradient_Swatch_copy_2"/></defs><g id="Competitions"><rect class="cls-1" x="-0.36" width="371.43" height="371.43"/><g id="Competitions-2" data-name="Competitions"><polygon class="cls-1" points="164.5 371.43 0 371.43 0 206.93 206.93 0 371.43 0 371.43 164.5 164.5 371.43"/><polygon class="cls-2" points="35.72 335.71 119.28 119.28 335.71 35.72 252.15 252.15 35.72 335.71"/><polygon class="cls-3" points="214 371.43 371.43 214 371.43 157.43 157.43 371.43 214 371.43"/><polygon class="cls-3" points="157.43 0 0.59 156.84 0 214 214 0 157.43 0"/><polygon class="cls-4" points="206.93 371.43 371.43 206.93 371.43 164.5 164.5 371.43 206.93 371.43"/><polygon class="cls-5" points="164.5 0 0 164.5 0 206.93 206.93 0 164.5 0"/></g><path class="cls-3" d="M70.08,175.53c0,.43-.17.76-.51.76s-.59-.42-.68-.93c-1-7.13-3.48-17.23-7.8-17.23-3.74,0-4.42,8.07-4.42,26,0,25.46,1.87,29.2,5.69,29.2,4.67,0,6.45-15.62,6.45-16.38a.62.62,0,0,1,.68-.68c.42,0,.59.25.59.76,0,12.56-1.87,20.54-9.33,20.54-9.93,0-11-19.35-11-33.52,0-10.44.43-30.13,11-30.13a7,7,0,0,1,4.07,1.78,2.12,2.12,0,0,0,1.44.51,2.52,2.52,0,0,0,1.62-1c.5-.59,1.18-1.27,1.61-1.27s.59.59.59,1.44Z"/><path class="cls-3" d="M93.82,188.48c0,13.91-1,29.06-9.86,29.06s-9.78-15.15-9.78-29.06c0-10.59.95-26.11,9.78-26.11S93.82,177.89,93.82,188.48Zm-13.61.08c0,19.12,1.62,25.3,3.75,25.3s3.83-6.18,3.83-25.3c0-16.33-1.62-22.51-3.83-22.51S80.21,172.23,80.21,188.56Z"/><path class="cls-3" d="M106.17,162.37c.67,0,1,.52,1,1.25l4.86,31.85h.15l4.48-31.85c.08-.73.3-1.25.81-1.25h9.19a.42.42,0,0,1,.45.37c0,.29-.3.52-.52.74l-1.84,2.13a3.13,3.13,0,0,0-.59,2.06v44.57a3.11,3.11,0,0,0,.59,2.06l1.84,2.14c.22.22.52.44.52.73a.42.42,0,0,1-.45.37H116.4c-.37,0-.44-.22-.44-.37s.29-.51.51-.81l1.55-2a3.32,3.32,0,0,0,.51-2.14v-35.6h-.15L112.79,217c-.07.37-.22.59-.58.59h-1.62c-.22,0-.3-.3-.37-.66l-6-40.24h-.15v35.6a3.32,3.32,0,0,0,.52,2.14l1.54,2c.22.3.52.52.52.81a.41.41,0,0,1-.44.37h-9a.41.41,0,0,1-.44-.37c0-.29.37-.51.51-.73l1.84-2.14a3.14,3.14,0,0,0,.66-2.06V167.67a3.16,3.16,0,0,0-.66-2.06l-1.84-2.13c-.14-.22-.51-.45-.51-.74a.41.41,0,0,1,.44-.37Z"/><path class="cls-3" d="M132.28,167.67a2.67,2.67,0,0,0-.66-2.06l-2.2-2.13c-.15-.22-.52-.45-.52-.67a.42.42,0,0,1,.44-.44h11.11c5.74,0,9.71,3,9.71,14.27,0,9.49-3.09,15.23-9.71,15.23H138v20.37c0,.89.07,1.62.66,2.06l2.72,2.14c.22.22.52.44.52.66a.42.42,0,0,1-.44.44H129.34a.42.42,0,0,1-.44-.44c0-.22.37-.37.52-.66l2.2-2.14a2.66,2.66,0,0,0,.66-2.06ZM138,188.19h2.13c3.09,0,4-3.38,4-11.55s-1-10.59-4-10.59H138Z"/><path class="cls-3" d="M160.53,187.6h1.62a.81.81,0,0,0,.81-.51l2.57-5.15c.15-.3.22-.44.44-.44s.3.14.3.44v15.59c0,.22-.08.37-.3.37s-.37-.22-.51-.52L163,192a.81.81,0,0,0-.81-.52h-1.62v22.36h4.19a1.94,1.94,0,0,0,2-1.32l4-14.13a.53.53,0,0,1,.51-.44.41.41,0,0,1,.37.44v18.47a.6.6,0,0,1-.59.66H151.92a.42.42,0,0,1-.44-.44c0-.22.37-.37.52-.66l2.2-2.14a2.66,2.66,0,0,0,.66-2.06V167.67a2.67,2.67,0,0,0-.66-2.06l-2.2-2.13c-.15-.22-.52-.45-.52-.67a.42.42,0,0,1,.44-.44H171a.65.65,0,0,1,.59.66v18.32c0,.29-.15.44-.37.44a.62.62,0,0,1-.58-.51l-4-13.83a1.82,1.82,0,0,0-1.91-1.4h-4.19Z"/><path class="cls-3" d="M182.52,165.9H179.8c-.44,0-.66.37-.81.81l-3.83,14.64a.55.55,0,0,1-.58.44c-.3,0-.37-.15-.37-.51V162.67a.34.34,0,0,1,.37-.3h21.55a.34.34,0,0,1,.37.3v18.61c0,.36-.08.51-.37.51a.56.56,0,0,1-.59-.44l-3.83-14.64c-.14-.44-.36-.81-.8-.81h-2.73v46.34a2.67,2.67,0,0,0,.59,2.06l2.21,2.14c.22.22.51.44.51.66a.38.38,0,0,1-.44.44h-11.4a.38.38,0,0,1-.44-.44c0-.22.29-.44.51-.66l2.21-2.14a2.63,2.63,0,0,0,.59-2.06Z"/><path class="cls-3" d="M201.64,167.67a2.67,2.67,0,0,0-.66-2.06l-2.21-2.13c-.14-.22-.51-.45-.51-.67a.42.42,0,0,1,.44-.44h11.55a.42.42,0,0,1,.44.44c0,.22-.37.45-.51.67L208,165.61a2.67,2.67,0,0,0-.66,2.06v44.57a2.66,2.66,0,0,0,.66,2.06l2.21,2.14c.14.22.51.44.51.66a.42.42,0,0,1-.44.44H198.7a.42.42,0,0,1-.44-.44c0-.22.37-.44.51-.66L201,214.3a2.66,2.66,0,0,0,.66-2.06Z"/><path class="cls-3" d="M220.77,165.9H218c-.44,0-.66.37-.8.81l-3.83,14.64a.56.56,0,0,1-.59.44c-.29,0-.36-.15-.36-.51V162.67a.33.33,0,0,1,.36-.3h21.55a.34.34,0,0,1,.37.3v18.61c0,.36-.07.51-.37.51a.55.55,0,0,1-.58-.44L230,166.71c-.15-.44-.37-.81-.81-.81h-2.72v46.34a2.63,2.63,0,0,0,.59,2.06l2.21,2.14c.22.22.51.44.51.66a.38.38,0,0,1-.44.44H217.9a.38.38,0,0,1-.44-.44c0-.22.29-.44.51-.66l2.21-2.14a2.67,2.67,0,0,0,.59-2.06Z"/><path class="cls-3" d="M239.89,167.67a2.71,2.71,0,0,0-.66-2.06L237,163.48c-.15-.22-.51-.45-.51-.67a.42.42,0,0,1,.44-.44H248.5a.42.42,0,0,1,.44.44c0,.22-.37.45-.52.67l-2.2,2.13a2.67,2.67,0,0,0-.67,2.06v44.57a2.66,2.66,0,0,0,.67,2.06l2.2,2.14c.15.22.52.44.52.66a.42.42,0,0,1-.44.44H237a.42.42,0,0,1-.44-.44c0-.22.36-.44.51-.66l2.21-2.14a2.69,2.69,0,0,0,.66-2.06Z"/><path class="cls-3" d="M271.52,188.48c0,13.91-1,29.06-9.86,29.06s-9.78-15.15-9.78-29.06c0-10.59,1-26.11,9.78-26.11S271.52,177.89,271.52,188.48Zm-13.61.08c0,19.12,1.62,25.3,3.75,25.3s3.83-6.18,3.83-25.3c0-16.33-1.62-22.51-3.83-22.51S257.91,172.23,257.91,188.56Z"/><path class="cls-3" d="M277.47,167.67a3.16,3.16,0,0,0-.66-2.06L275,163.48c-.14-.22-.51-.45-.51-.74a.41.41,0,0,1,.44-.37h8.83c.51,0,.73.52.88,1.25l6.77,31.63h.14V167.67a2.52,2.52,0,0,0-.66-2l-2.06-2.2c-.15-.22-.51-.45-.51-.74a.41.41,0,0,1,.44-.37h9.71a.41.41,0,0,1,.44.37c0,.29-.3.52-.52.74l-1.84,2.13a3.16,3.16,0,0,0-.66,2.06v49.06c0,.51-.22.81-.73.81H292c-.66,0-1.25-.74-1.47-1.84L282,175.61h-.15v36.63a2.55,2.55,0,0,0,.74,2l2,2.21c.22.22.51.44.51.73a.41.41,0,0,1-.44.37H274.9a.41.41,0,0,1-.44-.37c0-.29.37-.51.51-.73l1.84-2.14a3.14,3.14,0,0,0,.66-2.06Z"/><path class="cls-3" d="M317.26,181.42c0,.22-.14.37-.44.37s-.36-.22-.44-.51c-1.17-6-4.71-15.23-8.09-15.23-1.84,0-2,1.54-2,3.46,0,3.6,1,7.21,6.4,18.75,5.15,10.89,5.74,13.32,5.74,19.13,0,7.79-4,10.15-6.77,10.15a6.91,6.91,0,0,1-4.11-1.4,4.2,4.2,0,0,0-1.47-.73c-.3,0-.89.51-2.36,1.61-.29.22-.59.52-.88.52s-.37-.15-.37-.37V198.64c0-.23.07-.52.37-.52s.37.29.44.52c1.32,5.88,3.6,15.22,7.94,15.22,1.4,0,2.14-1.54,2.14-3.82,0-4.93-2.21-10.3-6.4-19.13-4-8.38-5.45-14-5.45-19.34,0-7,3-9.2,6.77-9.2a7.3,7.3,0,0,1,4.12,1.69,2.59,2.59,0,0,0,1.1.45,4.12,4.12,0,0,0,1.7-1.18c.66-.59,1.1-1,1.54-1s.51.37.51.81Z"/><path class="cls-6" d="M71.35,175.53c0,.43-.17.76-.5.76s-.6-.42-.68-.93c-1-7.13-3.48-17.23-7.81-17.23-3.74,0-4.41,8.07-4.41,26,0,25.46,1.86,29.2,5.68,29.2,4.67,0,6.45-15.62,6.45-16.38a.63.63,0,0,1,.68-.68c.42,0,.59.25.59.76,0,12.56-1.86,20.54-9.33,20.54-9.93,0-11-19.35-11-33.52,0-10.44.42-30.13,11-30.13a6.94,6.94,0,0,1,4.07,1.78,2.13,2.13,0,0,0,1.45.51,2.53,2.53,0,0,0,1.61-1c.51-.59,1.19-1.27,1.61-1.27s.59.59.59,1.44Z"/><path class="cls-7" d="M95.09,188.48c0,13.91-1,29.06-9.86,29.06s-9.78-15.15-9.78-29.06c0-10.59,1-26.11,9.78-26.11S95.09,177.89,95.09,188.48Zm-13.61.08c0,19.12,1.62,25.3,3.75,25.3s3.83-6.18,3.83-25.3c0-16.33-1.62-22.51-3.83-22.51S81.48,172.23,81.48,188.56Z"/><path class="cls-8" d="M107.45,162.37c.66,0,1,.52,1,1.25l4.85,31.85h.15L118,163.62c.08-.73.3-1.25.81-1.25H128a.41.41,0,0,1,.44.37c0,.29-.29.52-.52.74l-1.83,2.13a3.07,3.07,0,0,0-.59,2.06v44.57a3.06,3.06,0,0,0,.59,2.06l1.83,2.14c.23.22.52.44.52.73a.41.41,0,0,1-.44.37h-10.3c-.37,0-.44-.22-.44-.37s.29-.51.51-.81l1.55-2a3.32,3.32,0,0,0,.51-2.14v-35.6h-.14L114.07,217c-.08.37-.22.59-.59.59h-1.62c-.22,0-.29-.3-.37-.66l-6-40.24h-.14v35.6a3.32,3.32,0,0,0,.51,2.14l1.55,2c.22.3.51.52.51.81a.41.41,0,0,1-.44.37h-9a.41.41,0,0,1-.44-.37c0-.29.37-.51.52-.73l1.84-2.14a3.14,3.14,0,0,0,.66-2.06V167.67a3.16,3.16,0,0,0-.66-2.06l-1.84-2.13c-.15-.22-.52-.45-.52-.74a.41.41,0,0,1,.44-.37Z"/><path class="cls-9" d="M133.56,167.67a2.71,2.71,0,0,0-.66-2.06l-2.21-2.13c-.15-.22-.52-.45-.52-.67a.42.42,0,0,1,.44-.44h11.11c5.74,0,9.71,3,9.71,14.27,0,9.49-3.09,15.23-9.71,15.23h-2.5v20.37c0,.89.07,1.62.66,2.06l2.72,2.14c.22.22.52.44.52.66a.42.42,0,0,1-.44.44H130.61a.42.42,0,0,1-.44-.44c0-.22.37-.37.52-.66l2.21-2.14a2.69,2.69,0,0,0,.66-2.06Zm5.66,20.52h2.13c3.09,0,4.05-3.38,4.05-11.55s-1-10.59-4.05-10.59h-2.13Z"/><path class="cls-10" d="M161.8,187.6h1.62a.8.8,0,0,0,.81-.51l2.57-5.15c.15-.3.22-.44.44-.44s.3.14.3.44v15.59c0,.22-.07.37-.3.37s-.36-.22-.51-.52l-2.5-5.36a.8.8,0,0,0-.81-.52H161.8v22.36H166a1.93,1.93,0,0,0,2-1.32l4-14.13a.55.55,0,0,1,.52-.44.41.41,0,0,1,.36.44v18.47a.6.6,0,0,1-.58.66H153.2a.43.43,0,0,1-.45-.44c0-.22.37-.37.52-.66l2.21-2.14a2.69,2.69,0,0,0,.66-2.06V167.67a2.71,2.71,0,0,0-.66-2.06l-2.21-2.13c-.15-.22-.52-.45-.52-.67a.43.43,0,0,1,.45-.44h19.05a.65.65,0,0,1,.58.66v18.32c0,.29-.14.44-.36.44a.62.62,0,0,1-.59-.51l-4-13.83a1.83,1.83,0,0,0-1.92-1.4H161.8Z"/><path class="cls-11" d="M183.79,165.9h-2.72c-.44,0-.66.37-.81.81l-3.82,14.64a.57.57,0,0,1-.59.44c-.29,0-.37-.15-.37-.51V162.67a.34.34,0,0,1,.37-.3H197.4a.34.34,0,0,1,.37.3v18.61c0,.36-.07.51-.37.51a.57.57,0,0,1-.59-.44L193,166.71c-.15-.44-.37-.81-.81-.81h-2.72v46.34a2.67,2.67,0,0,0,.58,2.06l2.21,2.14c.22.22.52.44.52.66a.39.39,0,0,1-.44.44H180.92a.39.39,0,0,1-.44-.44c0-.22.3-.44.52-.66l2.2-2.14a2.63,2.63,0,0,0,.59-2.06Z"/><path class="cls-12" d="M202.92,167.67a2.67,2.67,0,0,0-.67-2.06l-2.2-2.13c-.15-.22-.52-.45-.52-.67a.42.42,0,0,1,.44-.44h11.55a.42.42,0,0,1,.44.44c0,.22-.36.45-.51.67l-2.21,2.13a2.71,2.71,0,0,0-.66,2.06v44.57a2.69,2.69,0,0,0,.66,2.06l2.21,2.14c.15.22.51.44.51.66a.42.42,0,0,1-.44.44H200a.42.42,0,0,1-.44-.44c0-.22.37-.44.52-.66l2.2-2.14a2.66,2.66,0,0,0,.67-2.06Z"/><path class="cls-13" d="M222,165.9h-2.72c-.44,0-.66.37-.81.81l-3.83,14.64a.55.55,0,0,1-.58.44c-.3,0-.37-.15-.37-.51V162.67a.34.34,0,0,1,.37-.3h21.55a.33.33,0,0,1,.36.3v18.61c0,.36-.07.51-.36.51a.56.56,0,0,1-.59-.44l-3.83-14.64c-.14-.44-.36-.81-.81-.81H227.7v46.34a2.67,2.67,0,0,0,.59,2.06l2.21,2.14c.22.22.51.44.51.66a.38.38,0,0,1-.44.44h-11.4a.38.38,0,0,1-.44-.44c0-.22.29-.44.51-.66l2.21-2.14a2.63,2.63,0,0,0,.59-2.06Z"/><path class="cls-14" d="M241.16,167.67a2.67,2.67,0,0,0-.66-2.06l-2.21-2.13c-.14-.22-.51-.45-.51-.67a.42.42,0,0,1,.44-.44h11.55a.42.42,0,0,1,.44.44c0,.22-.37.45-.51.67l-2.21,2.13a2.67,2.67,0,0,0-.66,2.06v44.57a2.66,2.66,0,0,0,.66,2.06l2.21,2.14c.14.22.51.44.51.66a.42.42,0,0,1-.44.44H238.22a.42.42,0,0,1-.44-.44c0-.22.37-.44.51-.66l2.21-2.14a2.66,2.66,0,0,0,.66-2.06Z"/><path class="cls-15" d="M272.79,188.48c0,13.91-1,29.06-9.86,29.06s-9.78-15.15-9.78-29.06c0-10.59,1-26.11,9.78-26.11S272.79,177.89,272.79,188.48Zm-13.61.08c0,19.12,1.62,25.3,3.75,25.3s3.83-6.18,3.83-25.3c0-16.33-1.62-22.51-3.83-22.51S259.18,172.23,259.18,188.56Z"/><path class="cls-16" d="M278.75,167.67a3.16,3.16,0,0,0-.66-2.06l-1.84-2.13c-.15-.22-.52-.45-.52-.74a.41.41,0,0,1,.44-.37H285c.51,0,.73.52.88,1.25l6.77,31.63h.15V167.67a2.52,2.52,0,0,0-.67-2l-2.06-2.2c-.14-.22-.51-.45-.51-.74a.41.41,0,0,1,.44-.37h9.71a.41.41,0,0,1,.44.37c0,.29-.29.52-.51.74l-1.84,2.13a3.16,3.16,0,0,0-.66,2.06v49.06c0,.51-.22.81-.74.81h-3.09c-.66,0-1.25-.74-1.47-1.84l-8.61-40.09h-.14v36.63a2.58,2.58,0,0,0,.73,2l2,2.21c.22.22.51.44.51.73a.41.41,0,0,1-.44.37h-9.71a.41.41,0,0,1-.44-.37c0-.29.37-.51.52-.73l1.84-2.14a3.14,3.14,0,0,0,.66-2.06Z"/><path class="cls-17" d="M318.54,181.42c0,.22-.15.37-.44.37s-.37-.22-.45-.51c-1.17-6-4.7-15.23-8.09-15.23-1.84,0-2,1.54-2,3.46,0,3.6.95,7.21,6.4,18.75,5.15,10.89,5.73,13.32,5.73,19.13,0,7.79-4,10.15-6.76,10.15a6.92,6.92,0,0,1-4.12-1.4,4.12,4.12,0,0,0-1.47-.73c-.3,0-.88.51-2.36,1.61-.29.22-.58.52-.88.52s-.37-.15-.37-.37V198.64c0-.23.08-.52.37-.52s.37.29.44.52c1.33,5.88,3.61,15.22,7.95,15.22,1.39,0,2.13-1.54,2.13-3.82,0-4.93-2.21-10.3-6.4-19.13-4-8.38-5.44-14-5.44-19.34,0-7,3-9.2,6.76-9.2a7.3,7.3,0,0,1,4.12,1.69,2.57,2.57,0,0,0,1.11.45,4.11,4.11,0,0,0,1.69-1.18c.66-.59,1.1-1,1.54-1s.52.37.52.81Z"/><path class="cls-18" d="M71.35,175.53c0,.43-.17.76-.5.76s-.6-.42-.68-.93c-1-7.13-3.48-17.23-7.81-17.23-3.74,0-4.41,8.07-4.41,26,0,25.46,1.86,29.2,5.68,29.2,4.67,0,6.45-15.62,6.45-16.38a.63.63,0,0,1,.68-.68c.42,0,.59.25.59.76,0,12.56-1.86,20.54-9.33,20.54-9.93,0-11-19.35-11-33.52,0-10.44.42-30.13,11-30.13a6.94,6.94,0,0,1,4.07,1.78,2.13,2.13,0,0,0,1.45.51,2.53,2.53,0,0,0,1.61-1c.51-.59,1.19-1.27,1.61-1.27s.59.59.59,1.44Z"/><path class="cls-18" d="M95.09,188.48c0,13.91-1,29.06-9.86,29.06s-9.78-15.15-9.78-29.06c0-10.59,1-26.11,9.78-26.11S95.09,177.89,95.09,188.48Zm-13.61.08c0,19.12,1.62,25.3,3.75,25.3s3.83-6.18,3.83-25.3c0-16.33-1.62-22.51-3.83-22.51S81.48,172.23,81.48,188.56Z"/><path class="cls-18" d="M107.45,162.37c.66,0,1,.52,1,1.25l4.85,31.85h.15L118,163.62c.08-.73.3-1.25.81-1.25H128a.41.41,0,0,1,.44.37c0,.29-.29.52-.52.74l-1.83,2.13a3.07,3.07,0,0,0-.59,2.06v44.57a3.06,3.06,0,0,0,.59,2.06l1.83,2.14c.23.22.52.44.52.73a.41.41,0,0,1-.44.37h-10.3c-.37,0-.44-.22-.44-.37s.29-.51.51-.81l1.55-2a3.32,3.32,0,0,0,.51-2.14v-35.6h-.14L114.07,217c-.08.37-.22.59-.59.59h-1.62c-.22,0-.29-.3-.37-.66l-6-40.24h-.14v35.6a3.32,3.32,0,0,0,.51,2.14l1.55,2c.22.3.51.52.51.81a.41.41,0,0,1-.44.37h-9a.41.41,0,0,1-.44-.37c0-.29.37-.51.52-.73l1.84-2.14a3.14,3.14,0,0,0,.66-2.06V167.67a3.16,3.16,0,0,0-.66-2.06l-1.84-2.13c-.15-.22-.52-.45-.52-.74a.41.41,0,0,1,.44-.37Z"/><path class="cls-18" d="M133.56,167.67a2.71,2.71,0,0,0-.66-2.06l-2.21-2.13c-.15-.22-.52-.45-.52-.67a.42.42,0,0,1,.44-.44h11.11c5.74,0,9.71,3,9.71,14.27,0,9.49-3.09,15.23-9.71,15.23h-2.5v20.37c0,.89.07,1.62.66,2.06l2.72,2.14c.22.22.52.44.52.66a.42.42,0,0,1-.44.44H130.61a.42.42,0,0,1-.44-.44c0-.22.37-.37.52-.66l2.21-2.14a2.69,2.69,0,0,0,.66-2.06Zm5.66,20.52h2.13c3.09,0,4.05-3.38,4.05-11.55s-1-10.59-4.05-10.59h-2.13Z"/><path class="cls-18" d="M161.8,187.6h1.62a.8.8,0,0,0,.81-.51l2.57-5.15c.15-.3.22-.44.44-.44s.3.14.3.44v15.59c0,.22-.07.37-.3.37s-.36-.22-.51-.52l-2.5-5.36a.8.8,0,0,0-.81-.52H161.8v22.36H166a1.93,1.93,0,0,0,2-1.32l4-14.13a.55.55,0,0,1,.52-.44.41.41,0,0,1,.36.44v18.47a.6.6,0,0,1-.58.66H153.2a.43.43,0,0,1-.45-.44c0-.22.37-.37.52-.66l2.21-2.14a2.69,2.69,0,0,0,.66-2.06V167.67a2.71,2.71,0,0,0-.66-2.06l-2.21-2.13c-.15-.22-.52-.45-.52-.67a.43.43,0,0,1,.45-.44h19.05a.65.65,0,0,1,.58.66v18.32c0,.29-.14.44-.36.44a.62.62,0,0,1-.59-.51l-4-13.83a1.83,1.83,0,0,0-1.92-1.4H161.8Z"/><path class="cls-18" d="M183.79,165.9h-2.72c-.44,0-.66.37-.81.81l-3.82,14.64a.57.57,0,0,1-.59.44c-.29,0-.37-.15-.37-.51V162.67a.34.34,0,0,1,.37-.3H197.4a.34.34,0,0,1,.37.3v18.61c0,.36-.07.51-.37.51a.57.57,0,0,1-.59-.44L193,166.71c-.15-.44-.37-.81-.81-.81h-2.72v46.34a2.67,2.67,0,0,0,.58,2.06l2.21,2.14c.22.22.52.44.52.66a.39.39,0,0,1-.44.44H180.92a.39.39,0,0,1-.44-.44c0-.22.3-.44.52-.66l2.2-2.14a2.63,2.63,0,0,0,.59-2.06Z"/><path class="cls-18" d="M202.92,167.67a2.67,2.67,0,0,0-.67-2.06l-2.2-2.13c-.15-.22-.52-.45-.52-.67a.42.42,0,0,1,.44-.44h11.55a.42.42,0,0,1,.44.44c0,.22-.36.45-.51.67l-2.21,2.13a2.71,2.71,0,0,0-.66,2.06v44.57a2.69,2.69,0,0,0,.66,2.06l2.21,2.14c.15.22.51.44.51.66a.42.42,0,0,1-.44.44H200a.42.42,0,0,1-.44-.44c0-.22.37-.44.52-.66l2.2-2.14a2.66,2.66,0,0,0,.67-2.06Z"/><path class="cls-18" d="M222,165.9h-2.72c-.44,0-.66.37-.81.81l-3.83,14.64a.55.55,0,0,1-.58.44c-.3,0-.37-.15-.37-.51V162.67a.34.34,0,0,1,.37-.3h21.55a.33.33,0,0,1,.36.3v18.61c0,.36-.07.51-.36.51a.56.56,0,0,1-.59-.44l-3.83-14.64c-.14-.44-.36-.81-.81-.81H227.7v46.34a2.67,2.67,0,0,0,.59,2.06l2.21,2.14c.22.22.51.44.51.66a.38.38,0,0,1-.44.44h-11.4a.38.38,0,0,1-.44-.44c0-.22.29-.44.51-.66l2.21-2.14a2.63,2.63,0,0,0,.59-2.06Z"/><path class="cls-18" d="M241.16,167.67a2.67,2.67,0,0,0-.66-2.06l-2.21-2.13c-.14-.22-.51-.45-.51-.67a.42.42,0,0,1,.44-.44h11.55a.42.42,0,0,1,.44.44c0,.22-.37.45-.51.67l-2.21,2.13a2.67,2.67,0,0,0-.66,2.06v44.57a2.66,2.66,0,0,0,.66,2.06l2.21,2.14c.14.22.51.44.51.66a.42.42,0,0,1-.44.44H238.22a.42.42,0,0,1-.44-.44c0-.22.37-.44.51-.66l2.21-2.14a2.66,2.66,0,0,0,.66-2.06Z"/><path class="cls-18" d="M272.79,188.48c0,13.91-1,29.06-9.86,29.06s-9.78-15.15-9.78-29.06c0-10.59,1-26.11,9.78-26.11S272.79,177.89,272.79,188.48Zm-13.61.08c0,19.12,1.62,25.3,3.75,25.3s3.83-6.18,3.83-25.3c0-16.33-1.62-22.51-3.83-22.51S259.18,172.23,259.18,188.56Z"/><path class="cls-18" d="M278.75,167.67a3.16,3.16,0,0,0-.66-2.06l-1.84-2.13c-.15-.22-.52-.45-.52-.74a.41.41,0,0,1,.44-.37H285c.51,0,.73.52.88,1.25l6.77,31.63h.15V167.67a2.52,2.52,0,0,0-.67-2l-2.06-2.2c-.14-.22-.51-.45-.51-.74a.41.41,0,0,1,.44-.37h9.71a.41.41,0,0,1,.44.37c0,.29-.29.52-.51.74l-1.84,2.13a3.16,3.16,0,0,0-.66,2.06v49.06c0,.51-.22.81-.74.81h-3.09c-.66,0-1.25-.74-1.47-1.84l-8.61-40.09h-.14v36.63a2.58,2.58,0,0,0,.73,2l2,2.21c.22.22.51.44.51.73a.41.41,0,0,1-.44.37h-9.71a.41.41,0,0,1-.44-.37c0-.29.37-.51.52-.73l1.84-2.14a3.14,3.14,0,0,0,.66-2.06Z"/><path class="cls-18" d="M318.54,181.42c0,.22-.15.37-.44.37s-.37-.22-.45-.51c-1.17-6-4.7-15.23-8.09-15.23-1.84,0-2,1.54-2,3.46,0,3.6.95,7.21,6.4,18.75,5.15,10.89,5.73,13.32,5.73,19.13,0,7.79-4,10.15-6.76,10.15a6.92,6.92,0,0,1-4.12-1.4,4.12,4.12,0,0,0-1.47-.73c-.3,0-.88.51-2.36,1.61-.29.22-.58.52-.88.52s-.37-.15-.37-.37V198.64c0-.23.08-.52.37-.52s.37.29.44.52c1.33,5.88,3.61,15.22,7.95,15.22,1.39,0,2.13-1.54,2.13-3.82,0-4.93-2.21-10.3-6.4-19.13-4-8.38-5.44-14-5.44-19.34,0-7,3-9.2,6.76-9.2a7.3,7.3,0,0,1,4.12,1.69,2.57,2.57,0,0,0,1.11.45,4.11,4.11,0,0,0,1.69-1.18c.66-.59,1.1-1,1.54-1s.52.37.52.81Z"/></g></svg>