<svg xmlns="http://www.w3.org/2000/svg" xmlns:xlink="http://www.w3.org/1999/xlink" viewBox="0 0 371.43 371.43"><defs><style>.cls-1{fill:#37353c;}.cls-2{fill:#92864f;}.cls-3{fill:#231f20;}.cls-4{fill:url(#linear-gradient);}.cls-5{fill:url(#linear-gradient-2);}.cls-6{fill:url(#New_Gradient_Swatch_copy_2);}.cls-7{fill:url(#New_Gradient_Swatch_copy_2-2);}.cls-8{fill:url(#New_Gradient_Swatch_copy_2-3);}.cls-9{fill:url(#New_Gradient_Swatch_copy_2-4);}.cls-10{fill:url(#New_Gradient_Swatch_copy_2-5);}.cls-11{fill:url(#New_Gradient_Swatch_copy_2-6);}.cls-12{fill:url(#New_Gradient_Swatch_copy_2-7);}.cls-13{fill:url(#New_Gradient_Swatch_copy_2-8);}.cls-14{fill:url(#New_Gradient_Swatch_copy_2-9);}.cls-15{fill:url(#New_Gradient_Swatch_copy_2-10);}.cls-16{fill:url(#New_Gradient_Swatch_copy_2-11);}.cls-17{fill:url(#New_Gradient_Swatch_copy_2-12);}.cls-18{fill:none;stroke:#625b32;stroke-miterlimit:10;}</style><linearGradient id="linear-gradient" x1="676.18" y1="1766.71" x2="883.11" y2="1559.79" gradientTransform="translate(1058.21 1941.82) rotate(180)" gradientUnits="userSpaceOnUse"><stop offset="0" stop-color="#c09d30"/><stop offset="0.35" stop-color="#d0a641"/><stop offset="0.5" stop-color="#fffac4"/><stop offset="0.65" stop-color="#d0a641"/><stop offset="1" stop-color="#c09d30"/></linearGradient><linearGradient id="linear-gradient-2" x1="861.89" y1="1952.43" x2="1068.82" y2="1745.5" xlink:href="#linear-gradient"/><linearGradient id="New_Gradient_Swatch_copy_2" x1="64.02" y1="155.71" x2="64.02" y2="215.71" gradientUnits="userSpaceOnUse"><stop offset="0.18" stop-color="#fffac4"/><stop offset="0.21" stop-color="#f9efb4"/><stop offset="0.25" stop-color="#eed893"/><stop offset="0.76" stop-color="#d6b55a"/><stop offset="0.84" stop-color="#d0a641"/><stop offset="0.95" stop-color="#b69238"/></linearGradient><linearGradient id="New_Gradient_Swatch_copy_2-2" x1="92.09" y1="164.75" x2="92.09" y2="215.52" xlink:href="#New_Gradient_Swatch_copy_2"/><linearGradient id="New_Gradient_Swatch_copy_2-3" x1="121.43" y1="165.46" x2="121.43" y2="214.4" xlink:href="#New_Gradient_Swatch_copy_2"/><linearGradient id="New_Gradient_Swatch_copy_2-4" x1="147.84" y1="165.46" x2="147.84" y2="214.4" xlink:href="#New_Gradient_Swatch_copy_2"/><linearGradient id="New_Gradient_Swatch_copy_2-5" x1="169.29" y1="165.46" x2="169.29" y2="214.4" xlink:href="#New_Gradient_Swatch_copy_2"/><linearGradient id="New_Gradient_Swatch_copy_2-6" x1="192.47" y1="165.46" x2="192.47" y2="214.4" xlink:href="#New_Gradient_Swatch_copy_2"/><linearGradient id="New_Gradient_Swatch_copy_2-7" x1="210.44" y1="165.46" x2="210.44" y2="214.4" xlink:href="#New_Gradient_Swatch_copy_2"/><linearGradient id="New_Gradient_Swatch_copy_2-8" x1="228.5" y1="165.46" x2="228.5" y2="214.4" xlink:href="#New_Gradient_Swatch_copy_2"/><linearGradient id="New_Gradient_Swatch_copy_2-9" x1="246.47" y1="165.46" x2="246.47" y2="214.4" xlink:href="#New_Gradient_Swatch_copy_2"/><linearGradient id="New_Gradient_Swatch_copy_2-10" x1="266.48" y1="164.75" x2="266.48" y2="215.52" xlink:href="#New_Gradient_Swatch_copy_2"/><linearGradient id="New_Gradient_Swatch_copy_2-11" x1="291.86" y1="165.46" x2="291.86" y2="215.52" xlink:href="#New_Gradient_Swatch_copy_2"/><linearGradient id="New_Gradient_Swatch_copy_2-12" x1="314.02" y1="164.35" x2="314.02" y2="215.56" xlink:href="#New_Gradient_Swatch_copy_2"/></defs><g id="Competitions"><g id="Competitions-2" data-name="Competitions"><polygon class="cls-1" points="164.5 371.43 0 371.43 0 206.93 206.93 0 371.43 0 371.43 164.5 164.5 371.43"/><polygon class="cls-2" points="35.72 335.71 119.28 119.28 335.71 35.72 252.15 252.15 35.72 335.71"/><polygon class="cls-3" points="214 371.43 371.43 214 371.43 157.43 157.43 371.43 214 371.43"/><polygon class="cls-3" points="157.43 0 0.59 156.84 0 214 214 0 157.43 0"/><polygon class="cls-4" points="206.93 371.43 371.43 206.93 371.43 164.5 164.5 371.43 206.93 371.43"/><polygon class="cls-5" points="164.5 0 0 164.5 0 206.93 206.93 0 164.5 0"/></g><path class="cls-3" d="M74.61,155.71V175.6h-.77q-.86-7.78-3.2-11.93c-1.56-2.76-3.33-4.15-5.31-4.15q-2.47,0-4.55,3.09a21.94,21.94,0,0,0-3,8.08,75.49,75.49,0,0,0-1.23,14.22,100.08,100.08,0,0,0,.9,14q.9,6.33,2.81,9.56t5,3.24a6,6,0,0,0,4.58-2.37q2.08-2.37,4.39-8.17v5a22.63,22.63,0,0,1-4.64,7.3,8,8,0,0,1-5.64,2.26A9.88,9.88,0,0,1,56.35,212q-3.29-3.67-5.07-10.57a58.48,58.48,0,0,1-1.79-14.69,59.74,59.74,0,0,1,2-15.57q2-7.37,5.35-11.42c2.25-2.71,4.63-4.07,7.16-4.07q2.79,0,5.9,2.63c1.2,1,2,1.52,2.28,1.52s.78-.33,1.09-1a9.7,9.7,0,0,0,.59-3.16Z"/><path class="cls-3" d="M90,164.78q5.4-.43,8.77,6.82t3.37,18.15a49,49,0,0,1-2.51,16.39q-3.33,9.38-9.41,9.38t-9.43-9a48,48,0,0,1-2.63-16.78q0-10.9,3.42-18.17T90,164.78Zm.2,2.31c-2.07,0-3.64,2.28-4.71,6.86q-1.32,5.63-1.32,16.16,0,12.52,2,18.52,1.42,4.19,4,4.18A3.34,3.34,0,0,0,93,211a20.31,20.31,0,0,0,2.28-7.38,85.59,85.59,0,0,0,.82-13.23,93.4,93.4,0,0,0-.83-14.52,19.48,19.48,0,0,0-2.13-6.81A3.62,3.62,0,0,0,90.17,167.09Z"/><path class="cls-3" d="M119.59,197.73l6.13-32.27h9.19v1.34h-.73a1.92,1.92,0,0,0-1.6.76,4,4,0,0,0-.67,1.69,31.9,31.9,0,0,0-.18,4.52V206a34.86,34.86,0,0,0,.18,4.69,3.86,3.86,0,0,0,.75,1.64,1.86,1.86,0,0,0,1.52.71h.73v1.33H123.12v-1.33h.73a2,2,0,0,0,1.6-.76,4.1,4.1,0,0,0,.67-1.73,32.34,32.34,0,0,0,.18-4.55V169.76l-8.66,44.64h-.4l-8.8-44.32v34.47q0,3.62.09,4.44a6.84,6.84,0,0,0,.94,2.94,2.49,2.49,0,0,0,2.27,1.14v1.33H104v-1.33h.24a1.92,1.92,0,0,0,1.39-.53,3.37,3.37,0,0,0,1-1.49,12.31,12.31,0,0,0,.51-2.64c0-.26,0-1.49,0-3.68v-31a31.72,31.72,0,0,0-.19-4.64,3.65,3.65,0,0,0-.75-1.63,1.82,1.82,0,0,0-1.51-.7H104v-1.34h9.23Z"/><path class="cls-3" d="M144.74,192.24v13.57a31.8,31.8,0,0,0,.23,5,3.29,3.29,0,0,0,.8,1.64,2.82,2.82,0,0,0,2.1.62v1.33H136.4v-1.33a2.78,2.78,0,0,0,2.12-.63,3.63,3.63,0,0,0,.78-1.65,31.38,31.38,0,0,0,.23-5V174.05a31.73,31.73,0,0,0-.23-5,3.45,3.45,0,0,0-.79-1.65,2.83,2.83,0,0,0-2.11-.61v-1.34h9.84c3.24,0,5.57,1.26,7,3.76a18.89,18.89,0,0,1,2.12,9.38,21.84,21.84,0,0,1-1.37,8.16,8.42,8.42,0,0,1-3.77,4.62A12.49,12.49,0,0,1,144.74,192.24Zm0-24v21.15a6.49,6.49,0,0,0,.83.07c1.36,0,2.4-.87,3.14-2.62s1.1-4.44,1.1-8.1-.37-6.29-1.1-8-1.83-2.53-3.29-2.53Z"/><path class="cls-3" d="M165.66,168.28V188.2h.45c1.44,0,2.47-1,3.12-2.92a34.68,34.68,0,0,0,1.23-8.63h.63v25.63h-.63a37.53,37.53,0,0,0-.84-6.86,8.62,8.62,0,0,0-1.49-3.59,3.18,3.18,0,0,0-2.47-.92v13.78a43.86,43.86,0,0,0,.16,4.95,3.49,3.49,0,0,0,.59,1.48,1.66,1.66,0,0,0,1.4.58h1.35a5.73,5.73,0,0,0,5.07-3.18q1.92-3.18,2.74-9.67h.62l-1,15.55H157.05v-1.33h.75a1.92,1.92,0,0,0,1.58-.76,3.85,3.85,0,0,0,.67-1.73,32.34,32.34,0,0,0,.18-4.55V173.84c0-2.22,0-3.58-.08-4.08a4.71,4.71,0,0,0-.62-1.95,2,2,0,0,0-1.73-1h-.75v-1.34H176v14.48h-.63a32.38,32.38,0,0,0-1.36-7.62,6.88,6.88,0,0,0-2.48-3.39,6.58,6.58,0,0,0-3.49-.65Z"/><path class="cls-3" d="M200.65,165.46v13.25h-.6a37.59,37.59,0,0,0-1.19-6.59,8.14,8.14,0,0,0-1.78-3.19,3,3,0,0,0-2.21-.65h-1.69V206a31.9,31.9,0,0,0,.2,4.69,3.73,3.73,0,0,0,.74,1.64,1.86,1.86,0,0,0,1.53.71h.75v1.33H184.57v-1.33h.75a1.92,1.92,0,0,0,1.58-.76,4,4,0,0,0,.69-1.73,32.34,32.34,0,0,0,.18-4.55V168.28h-1.63a3.47,3.47,0,0,0-3.32,2.09,23,23,0,0,0-1.83,8.34h-.63V165.46Z"/><path class="cls-3" d="M214.37,213.07v1.33H202.56v-1.33h.75a1.92,1.92,0,0,0,1.58-.76,3.85,3.85,0,0,0,.67-1.73,32.34,32.34,0,0,0,.18-4.55V173.84a34.75,34.75,0,0,0-.18-4.69,3.77,3.77,0,0,0-.74-1.65,1.82,1.82,0,0,0-1.51-.7h-.75v-1.34h11.81v1.34h-.75a1.91,1.91,0,0,0-1.58.76,3.79,3.79,0,0,0-.68,1.73,30.07,30.07,0,0,0-.19,4.55V206a34.16,34.16,0,0,0,.19,4.69,3.86,3.86,0,0,0,.75,1.64,1.84,1.84,0,0,0,1.51.71Z"/><path class="cls-3" d="M236.68,165.46v13.25h-.6a38.81,38.81,0,0,0-1.18-6.59,8.28,8.28,0,0,0-1.79-3.19,3,3,0,0,0-2.21-.65h-1.69V206a31.9,31.9,0,0,0,.2,4.69,3.63,3.63,0,0,0,.75,1.64,1.84,1.84,0,0,0,1.52.71h.75v1.33H220.6v-1.33h.75a1.91,1.91,0,0,0,1.58-.76,4,4,0,0,0,.69-1.73,32.34,32.34,0,0,0,.18-4.55V168.28h-1.63a3.47,3.47,0,0,0-3.32,2.09,23.19,23.19,0,0,0-1.83,8.34h-.63V165.46Z"/><path class="cls-3" d="M250.4,213.07v1.33H238.59v-1.33h.75a2,2,0,0,0,1.59-.76,3.86,3.86,0,0,0,.66-1.73,32.34,32.34,0,0,0,.18-4.55V173.84a34.75,34.75,0,0,0-.18-4.69,3.77,3.77,0,0,0-.74-1.65,1.81,1.81,0,0,0-1.51-.7h-.75v-1.34H250.4v1.34h-.75a1.91,1.91,0,0,0-1.58.76,3.91,3.91,0,0,0-.68,1.73,32.24,32.24,0,0,0-.18,4.55V206a32.5,32.5,0,0,0,.19,4.69,3.63,3.63,0,0,0,.75,1.64,1.81,1.81,0,0,0,1.5.71Z"/><path class="cls-3" d="M264.36,164.78q5.4-.43,8.77,6.82t3.38,18.15A48.79,48.79,0,0,1,274,206.14q-3.33,9.38-9.41,9.38t-9.43-9a48.22,48.22,0,0,1-2.63-16.78q0-10.9,3.42-18.17T264.36,164.78Zm.2,2.31c-2.06,0-3.63,2.28-4.71,6.86q-1.32,5.63-1.32,16.16,0,12.52,2,18.52,1.41,4.19,4,4.18a3.37,3.37,0,0,0,2.87-1.8,20.71,20.71,0,0,0,2.28-7.38,87.05,87.05,0,0,0,.81-13.23,92.16,92.16,0,0,0-.83-14.52,19.3,19.3,0,0,0-2.12-6.81A3.63,3.63,0,0,0,264.56,167.09Z"/><path class="cls-3" d="M286.22,165.46l11.14,30.36v-21a19.88,19.88,0,0,0-.58-6,2.66,2.66,0,0,0-2.68-2v-1.34h7.46v1.34a3.59,3.59,0,0,0-1.92,1,4.84,4.84,0,0,0-.77,2.06,30.1,30.1,0,0,0-.27,4.89v40.74H298l-15.28-40.74v31.11q0,4.22.9,5.7a2.49,2.49,0,0,0,2,1.48h.53v1.33h-8v-1.33a2.68,2.68,0,0,0,2.59-1.66,14.68,14.68,0,0,0,.74-5.52V171.35l-.49-1.3a8.44,8.44,0,0,0-1.26-2.56,2.26,2.26,0,0,0-1.58-.69v-1.34Z"/><path class="cls-3" d="M318.39,164.35l.18,16.31h-.68a26.84,26.84,0,0,0-2.38-9.87q-1.89-3.73-4.09-3.74a3,3,0,0,0-2.69,2,9.94,9.94,0,0,0-1,4.53,11.05,11.05,0,0,0,.35,2.89,12.45,12.45,0,0,0,1.55,3.35,39.5,39.5,0,0,0,3.62,4.22,24.57,24.57,0,0,1,5.34,8,25.05,25.05,0,0,1,1.37,8.59,23.44,23.44,0,0,1-2.21,10.56c-1.47,2.94-3.34,4.42-5.6,4.42a4.51,4.51,0,0,1-2-.47,11.15,11.15,0,0,1-2.38-1.77,2.26,2.26,0,0,0-1.32-.72c-.29,0-.59.24-.91.72a6.12,6.12,0,0,0-.79,2.2h-.61V197h.61q.74,7.8,2.83,11.9t4.5,4.09a3.33,3.33,0,0,0,3-2.2,11.38,11.38,0,0,0,1.1-5.12,13.33,13.33,0,0,0-.42-3.36,11.91,11.91,0,0,0-1.29-3.09,24.2,24.2,0,0,0-3.07-3.8,33.62,33.62,0,0,1-4.43-5.6,19.76,19.76,0,0,1-2.07-5.16,25.12,25.12,0,0,1-.73-6.28,22.65,22.65,0,0,1,2-10q2-4.11,5-4.11a4.37,4.37,0,0,1,2.14.57,9,9,0,0,1,1.9,1.61c.75.78,1.28,1.17,1.58,1.17s.51-.19.68-.58a12.12,12.12,0,0,0,.47-2.77Z"/><path class="cls-6" d="M76.58,155.71V175.6h-.76c-.58-5.19-1.64-9.17-3.21-11.93s-3.33-4.15-5.31-4.15q-2.47,0-4.55,3.09a21.94,21.94,0,0,0-3,8.08,75.49,75.49,0,0,0-1.23,14.22,100.08,100.08,0,0,0,.9,14q.9,6.33,2.81,9.56t5,3.24a6,6,0,0,0,4.58-2.37q2.08-2.37,4.39-8.17v5a22.63,22.63,0,0,1-4.64,7.3,8,8,0,0,1-5.64,2.26A9.84,9.84,0,0,1,58.33,212q-3.3-3.67-5.08-10.57a58.48,58.48,0,0,1-1.79-14.69,59.74,59.74,0,0,1,2-15.57q2-7.37,5.35-11.42T66,155.71q2.79,0,5.9,2.63c1.2,1,2,1.52,2.29,1.52s.77-.33,1.08-1a9.65,9.65,0,0,0,.6-3.16Z"/><path class="cls-7" d="M91.94,164.78q5.4-.43,8.77,6.82t3.38,18.15a48.79,48.79,0,0,1-2.52,16.39q-3.33,9.38-9.41,9.38t-9.43-9a48,48,0,0,1-2.63-16.78q0-10.9,3.42-18.17T91.94,164.78Zm.2,2.31c-2.06,0-3.64,2.28-4.71,6.86q-1.32,5.63-1.32,16.16,0,12.52,2,18.52,1.42,4.19,4,4.18A3.34,3.34,0,0,0,95,211a20.49,20.49,0,0,0,2.29-7.38,87.05,87.05,0,0,0,.81-13.23,93.4,93.4,0,0,0-.83-14.52,19.27,19.27,0,0,0-2.13-6.81A3.62,3.62,0,0,0,92.14,167.09Z"/><path class="cls-8" d="M121.56,197.73l6.13-32.27h9.2v1.34h-.74a1.93,1.93,0,0,0-1.6.76,4,4,0,0,0-.66,1.69,29.75,29.75,0,0,0-.19,4.52V206a32.5,32.5,0,0,0,.19,4.69,3.63,3.63,0,0,0,.75,1.64,1.83,1.83,0,0,0,1.51.71h.74v1.33h-11.8v-1.33h.73a2,2,0,0,0,1.6-.76,4.1,4.1,0,0,0,.67-1.73,32.34,32.34,0,0,0,.18-4.55V169.76l-8.66,44.64h-.4l-8.79-44.32v34.47c0,2.41,0,3.89.08,4.44a7,7,0,0,0,.94,2.94,2.49,2.49,0,0,0,2.27,1.14v1.33H106v-1.33h.24a2,2,0,0,0,1.4-.53,3.44,3.44,0,0,0,1-1.49,12.86,12.86,0,0,0,.52-2.64c0-.26,0-1.49,0-3.68v-31a34,34,0,0,0-.18-4.64,3.87,3.87,0,0,0-.75-1.63,1.86,1.86,0,0,0-1.52-.7H106v-1.34h9.23Z"/><path class="cls-9" d="M146.71,192.24v13.57a31.8,31.8,0,0,0,.23,5,3.29,3.29,0,0,0,.8,1.64,2.82,2.82,0,0,0,2.1.62v1.33H138.37v-1.33a2.78,2.78,0,0,0,2.12-.63,3.63,3.63,0,0,0,.78-1.65,31.38,31.38,0,0,0,.23-5V174.05a31.73,31.73,0,0,0-.23-5,3.45,3.45,0,0,0-.79-1.65,2.83,2.83,0,0,0-2.11-.61v-1.34h9.84c3.24,0,5.57,1.26,7,3.76a18.89,18.89,0,0,1,2.12,9.38,21.84,21.84,0,0,1-1.37,8.16,8.4,8.4,0,0,1-3.76,4.62A12.57,12.57,0,0,1,146.71,192.24Zm0-24v21.15a6.62,6.62,0,0,0,.84.07c1.35,0,2.39-.87,3.13-2.62s1.1-4.44,1.1-8.1-.37-6.29-1.1-8-1.83-2.53-3.28-2.53Z"/><path class="cls-10" d="M167.64,168.28V188.2h.45q2.15,0,3.11-2.92a34.21,34.21,0,0,0,1.23-8.63h.64v25.63h-.64a37.53,37.53,0,0,0-.84-6.86,8.49,8.49,0,0,0-1.49-3.59,3.17,3.17,0,0,0-2.46-.92v13.78a45,45,0,0,0,.15,4.95,3.62,3.62,0,0,0,.59,1.48,1.66,1.66,0,0,0,1.4.58h1.35a5.76,5.76,0,0,0,5.08-3.18q1.9-3.18,2.74-9.67h.61l-1,15.55H159v-1.33h.75a1.94,1.94,0,0,0,1.59-.76,3.86,3.86,0,0,0,.66-1.73,32.34,32.34,0,0,0,.18-4.55V173.84c0-2.22,0-3.58-.08-4.08a4.57,4.57,0,0,0-.62-1.95,2,2,0,0,0-1.73-1H159v-1.34h18.91v14.48h-.63a32.38,32.38,0,0,0-1.36-7.62,6.87,6.87,0,0,0-2.47-3.39,6.65,6.65,0,0,0-3.5-.65Z"/><path class="cls-11" d="M202.62,165.46v13.25H202a38.81,38.81,0,0,0-1.18-6.59,8.28,8.28,0,0,0-1.79-3.19,3,3,0,0,0-2.21-.65h-1.68V206a32.5,32.5,0,0,0,.19,4.69,3.63,3.63,0,0,0,.75,1.64,1.84,1.84,0,0,0,1.52.71h.75v1.33H186.54v-1.33h.75a1.94,1.94,0,0,0,1.59-.76,4.09,4.09,0,0,0,.68-1.73,32.34,32.34,0,0,0,.18-4.55V168.28h-1.63a3.47,3.47,0,0,0-3.32,2.09,23.19,23.19,0,0,0-1.83,8.34h-.63V165.46Z"/><path class="cls-12" d="M216.34,213.07v1.33H204.53v-1.33h.75a1.94,1.94,0,0,0,1.59-.76,3.86,3.86,0,0,0,.66-1.73,32.34,32.34,0,0,0,.18-4.55V173.84a34.75,34.75,0,0,0-.18-4.69,3.77,3.77,0,0,0-.74-1.65,1.81,1.81,0,0,0-1.51-.7h-.75v-1.34h11.81v1.34h-.75a1.91,1.91,0,0,0-1.58.76,3.91,3.91,0,0,0-.68,1.73,32.24,32.24,0,0,0-.18,4.55V206a32.5,32.5,0,0,0,.19,4.69,3.63,3.63,0,0,0,.75,1.64,1.81,1.81,0,0,0,1.5.71Z"/><path class="cls-13" d="M238.65,165.46v13.25h-.6a38.81,38.81,0,0,0-1.18-6.59,8.4,8.4,0,0,0-1.78-3.19,3.08,3.08,0,0,0-2.22-.65h-1.68V206a32.5,32.5,0,0,0,.19,4.69,3.86,3.86,0,0,0,.75,1.64,1.84,1.84,0,0,0,1.52.71h.75v1.33H222.57v-1.33h.75a1.94,1.94,0,0,0,1.59-.76,4,4,0,0,0,.68-1.73,32.34,32.34,0,0,0,.18-4.55V168.28h-1.63a3.45,3.45,0,0,0-3.31,2.09,23,23,0,0,0-1.84,8.34h-.63V165.46Z"/><path class="cls-14" d="M252.37,213.07v1.33H240.56v-1.33h.75a1.94,1.94,0,0,0,1.59-.76,3.86,3.86,0,0,0,.66-1.73,30.17,30.17,0,0,0,.19-4.55V173.84a32.41,32.41,0,0,0-.19-4.69,3.77,3.77,0,0,0-.74-1.65,1.81,1.81,0,0,0-1.51-.7h-.75v-1.34h11.81v1.34h-.74a1.92,1.92,0,0,0-1.59.76,3.91,3.91,0,0,0-.68,1.73,32.24,32.24,0,0,0-.18,4.55V206a32.5,32.5,0,0,0,.19,4.69,3.86,3.86,0,0,0,.75,1.64,1.82,1.82,0,0,0,1.51.71Z"/><path class="cls-15" d="M266.34,164.78q5.39-.43,8.77,6.82t3.37,18.15A48.79,48.79,0,0,1,276,206.14q-3.33,9.38-9.41,9.38t-9.43-9a48.22,48.22,0,0,1-2.63-16.78q0-10.9,3.42-18.17C260.2,166.77,263,164.49,266.34,164.78Zm.2,2.31c-2.07,0-3.64,2.28-4.72,6.86q-1.32,5.63-1.32,16.16,0,12.52,2,18.52,1.41,4.19,4,4.18a3.35,3.35,0,0,0,2.87-1.8,20.71,20.71,0,0,0,2.28-7.38,86.86,86.86,0,0,0,.82-13.23,91.89,91.89,0,0,0-.84-14.52,19.3,19.3,0,0,0-2.12-6.81A3.62,3.62,0,0,0,266.54,167.09Z"/><path class="cls-16" d="M288.19,165.46l11.14,30.36v-21a19.88,19.88,0,0,0-.58-6,2.66,2.66,0,0,0-2.68-2v-1.34h7.46v1.34a3.64,3.64,0,0,0-1.92,1,5,5,0,0,0-.77,2.06,30.1,30.1,0,0,0-.27,4.89v40.74H300l-15.27-40.74v31.11c0,2.81.29,4.71.89,5.7a2.49,2.49,0,0,0,2,1.48h.53v1.33h-8v-1.33a2.7,2.7,0,0,0,2.6-1.66,14.94,14.94,0,0,0,.73-5.52V171.35l-.48-1.3a8.64,8.64,0,0,0-1.27-2.56,2.24,2.24,0,0,0-1.58-.69v-1.34Z"/><path class="cls-17" d="M320.36,164.35l.18,16.31h-.68a26.65,26.65,0,0,0-2.38-9.87q-1.89-3.73-4.09-3.74a3,3,0,0,0-2.69,2,9.94,9.94,0,0,0-1,4.53,11.05,11.05,0,0,0,.35,2.89,12.45,12.45,0,0,0,1.55,3.35,39.5,39.5,0,0,0,3.62,4.22,24.57,24.57,0,0,1,5.34,8,25.05,25.05,0,0,1,1.37,8.59,23.44,23.44,0,0,1-2.21,10.56c-1.47,2.94-3.34,4.42-5.6,4.42a4.57,4.57,0,0,1-2-.47,11.4,11.4,0,0,1-2.38-1.77,2.23,2.23,0,0,0-1.32-.72c-.28,0-.59.24-.91.72a6.31,6.31,0,0,0-.79,2.2h-.61V197h.61q.74,7.8,2.83,11.9T314,213a3.33,3.33,0,0,0,3-2.2,11.25,11.25,0,0,0,1.11-5.12,13.34,13.34,0,0,0-.43-3.36,11.91,11.91,0,0,0-1.29-3.09,24.2,24.2,0,0,0-3.07-3.8,33.62,33.62,0,0,1-4.43-5.6,19.76,19.76,0,0,1-2.07-5.16,25.59,25.59,0,0,1-.73-6.28,22.79,22.79,0,0,1,2-10q2-4.11,5-4.11a4.37,4.37,0,0,1,2.14.57,9,9,0,0,1,1.9,1.61c.75.78,1.28,1.17,1.58,1.17s.52-.19.68-.58a12.12,12.12,0,0,0,.47-2.77Z"/><path class="cls-18" d="M76.58,155.71V175.6h-.76c-.58-5.19-1.64-9.17-3.21-11.93s-3.33-4.15-5.31-4.15q-2.47,0-4.55,3.09a21.94,21.94,0,0,0-3,8.08,75.49,75.49,0,0,0-1.23,14.22,100.08,100.08,0,0,0,.9,14q.9,6.33,2.81,9.56t5,3.24a6,6,0,0,0,4.58-2.37q2.08-2.37,4.39-8.17v5a22.63,22.63,0,0,1-4.64,7.3,8,8,0,0,1-5.64,2.26A9.84,9.84,0,0,1,58.33,212q-3.3-3.67-5.08-10.57a58.48,58.48,0,0,1-1.79-14.69,59.74,59.74,0,0,1,2-15.57q2-7.37,5.35-11.42T66,155.71q2.79,0,5.9,2.63c1.2,1,2,1.52,2.29,1.52s.77-.33,1.08-1a9.65,9.65,0,0,0,.6-3.16Z"/><path class="cls-18" d="M91.94,164.78q5.4-.43,8.77,6.82t3.38,18.15a48.79,48.79,0,0,1-2.52,16.39q-3.33,9.38-9.41,9.38t-9.43-9a48,48,0,0,1-2.63-16.78q0-10.9,3.42-18.17T91.94,164.78Zm.2,2.31c-2.06,0-3.64,2.28-4.71,6.86q-1.32,5.63-1.32,16.16,0,12.52,2,18.52,1.42,4.19,4,4.18A3.34,3.34,0,0,0,95,211a20.49,20.49,0,0,0,2.29-7.38,87.05,87.05,0,0,0,.81-13.23,93.4,93.4,0,0,0-.83-14.52,19.27,19.27,0,0,0-2.13-6.81A3.62,3.62,0,0,0,92.14,167.09Z"/><path class="cls-18" d="M121.56,197.73l6.13-32.27h9.2v1.34h-.74a1.93,1.93,0,0,0-1.6.76,4,4,0,0,0-.66,1.69,29.75,29.75,0,0,0-.19,4.52V206a32.5,32.5,0,0,0,.19,4.69,3.63,3.63,0,0,0,.75,1.64,1.83,1.83,0,0,0,1.51.71h.74v1.33h-11.8v-1.33h.73a2,2,0,0,0,1.6-.76,4.1,4.1,0,0,0,.67-1.73,32.34,32.34,0,0,0,.18-4.55V169.76l-8.66,44.64h-.4l-8.79-44.32v34.47c0,2.41,0,3.89.08,4.44a7,7,0,0,0,.94,2.94,2.49,2.49,0,0,0,2.27,1.14v1.33H106v-1.33h.24a2,2,0,0,0,1.4-.53,3.44,3.44,0,0,0,1-1.49,12.86,12.86,0,0,0,.52-2.64c0-.26,0-1.49,0-3.68v-31a34,34,0,0,0-.18-4.64,3.87,3.87,0,0,0-.75-1.63,1.86,1.86,0,0,0-1.52-.7H106v-1.34h9.23Z"/><path class="cls-18" d="M146.71,192.24v13.57a31.8,31.8,0,0,0,.23,5,3.29,3.29,0,0,0,.8,1.64,2.82,2.82,0,0,0,2.1.62v1.33H138.37v-1.33a2.78,2.78,0,0,0,2.12-.63,3.63,3.63,0,0,0,.78-1.65,31.38,31.38,0,0,0,.23-5V174.05a31.73,31.73,0,0,0-.23-5,3.45,3.45,0,0,0-.79-1.65,2.83,2.83,0,0,0-2.11-.61v-1.34h9.84c3.24,0,5.57,1.26,7,3.76a18.89,18.89,0,0,1,2.12,9.38,21.84,21.84,0,0,1-1.37,8.16,8.4,8.4,0,0,1-3.76,4.62A12.57,12.57,0,0,1,146.71,192.24Zm0-24v21.15a6.62,6.62,0,0,0,.84.07c1.35,0,2.39-.87,3.13-2.62s1.1-4.44,1.1-8.1-.37-6.29-1.1-8-1.83-2.53-3.28-2.53Z"/><path class="cls-18" d="M167.64,168.28V188.2h.45q2.15,0,3.11-2.92a34.21,34.21,0,0,0,1.23-8.63h.64v25.63h-.64a37.53,37.53,0,0,0-.84-6.86,8.49,8.49,0,0,0-1.49-3.59,3.17,3.17,0,0,0-2.46-.92v13.78a45,45,0,0,0,.15,4.95,3.62,3.62,0,0,0,.59,1.48,1.66,1.66,0,0,0,1.4.58h1.35a5.76,5.76,0,0,0,5.08-3.18q1.9-3.18,2.74-9.67h.61l-1,15.55H159v-1.33h.75a1.94,1.94,0,0,0,1.59-.76,3.86,3.86,0,0,0,.66-1.73,32.34,32.34,0,0,0,.18-4.55V173.84c0-2.22,0-3.58-.08-4.08a4.57,4.57,0,0,0-.62-1.95,2,2,0,0,0-1.73-1H159v-1.34h18.91v14.48h-.63a32.38,32.38,0,0,0-1.36-7.62,6.87,6.87,0,0,0-2.47-3.39,6.65,6.65,0,0,0-3.5-.65Z"/><path class="cls-18" d="M202.62,165.46v13.25H202a38.81,38.81,0,0,0-1.18-6.59,8.28,8.28,0,0,0-1.79-3.19,3,3,0,0,0-2.21-.65h-1.68V206a32.5,32.5,0,0,0,.19,4.69,3.63,3.63,0,0,0,.75,1.64,1.84,1.84,0,0,0,1.52.71h.75v1.33H186.54v-1.33h.75a1.94,1.94,0,0,0,1.59-.76,4.09,4.09,0,0,0,.68-1.73,32.34,32.34,0,0,0,.18-4.55V168.28h-1.63a3.47,3.47,0,0,0-3.32,2.09,23.19,23.19,0,0,0-1.83,8.34h-.63V165.46Z"/><path class="cls-18" d="M216.34,213.07v1.33H204.53v-1.33h.75a1.94,1.94,0,0,0,1.59-.76,3.86,3.86,0,0,0,.66-1.73,32.34,32.34,0,0,0,.18-4.55V173.84a34.75,34.75,0,0,0-.18-4.69,3.77,3.77,0,0,0-.74-1.65,1.81,1.81,0,0,0-1.51-.7h-.75v-1.34h11.81v1.34h-.75a1.91,1.91,0,0,0-1.58.76,3.91,3.91,0,0,0-.68,1.73,32.24,32.24,0,0,0-.18,4.55V206a32.5,32.5,0,0,0,.19,4.69,3.63,3.63,0,0,0,.75,1.64,1.81,1.81,0,0,0,1.5.71Z"/><path class="cls-18" d="M238.65,165.46v13.25h-.6a38.81,38.81,0,0,0-1.18-6.59,8.4,8.4,0,0,0-1.78-3.19,3.08,3.08,0,0,0-2.22-.65h-1.68V206a32.5,32.5,0,0,0,.19,4.69,3.86,3.86,0,0,0,.75,1.64,1.84,1.84,0,0,0,1.52.71h.75v1.33H222.57v-1.33h.75a1.94,1.94,0,0,0,1.59-.76,4,4,0,0,0,.68-1.73,32.34,32.34,0,0,0,.18-4.55V168.28h-1.63a3.45,3.45,0,0,0-3.31,2.09,23,23,0,0,0-1.84,8.34h-.63V165.46Z"/><path class="cls-18" d="M252.37,213.07v1.33H240.56v-1.33h.75a1.94,1.94,0,0,0,1.59-.76,3.86,3.86,0,0,0,.66-1.73,30.17,30.17,0,0,0,.19-4.55V173.84a32.41,32.41,0,0,0-.19-4.69,3.77,3.77,0,0,0-.74-1.65,1.81,1.81,0,0,0-1.51-.7h-.75v-1.34h11.81v1.34h-.74a1.92,1.92,0,0,0-1.59.76,3.91,3.91,0,0,0-.68,1.73,32.24,32.24,0,0,0-.18,4.55V206a32.5,32.5,0,0,0,.19,4.69,3.86,3.86,0,0,0,.75,1.64,1.82,1.82,0,0,0,1.51.71Z"/><path class="cls-18" d="M266.34,164.78q5.39-.43,8.77,6.82t3.37,18.15A48.79,48.79,0,0,1,276,206.14q-3.33,9.38-9.41,9.38t-9.43-9a48.22,48.22,0,0,1-2.63-16.78q0-10.9,3.42-18.17C260.2,166.77,263,164.49,266.34,164.78Zm.2,2.31c-2.07,0-3.64,2.28-4.72,6.86q-1.32,5.63-1.32,16.16,0,12.52,2,18.52,1.41,4.19,4,4.18a3.35,3.35,0,0,0,2.87-1.8,20.71,20.71,0,0,0,2.28-7.38,86.86,86.86,0,0,0,.82-13.23,91.89,91.89,0,0,0-.84-14.52,19.3,19.3,0,0,0-2.12-6.81A3.62,3.62,0,0,0,266.54,167.09Z"/><path class="cls-18" d="M288.19,165.46l11.14,30.36v-21a19.88,19.88,0,0,0-.58-6,2.66,2.66,0,0,0-2.68-2v-1.34h7.46v1.34a3.64,3.64,0,0,0-1.92,1,5,5,0,0,0-.77,2.06,30.1,30.1,0,0,0-.27,4.89v40.74H300l-15.27-40.74v31.11c0,2.81.29,4.71.89,5.7a2.49,2.49,0,0,0,2,1.48h.53v1.33h-8v-1.33a2.7,2.7,0,0,0,2.6-1.66,14.94,14.94,0,0,0,.73-5.52V171.35l-.48-1.3a8.64,8.64,0,0,0-1.27-2.56,2.24,2.24,0,0,0-1.58-.69v-1.34Z"/><path class="cls-18" d="M320.36,164.35l.18,16.31h-.68a26.65,26.65,0,0,0-2.38-9.87q-1.89-3.73-4.09-3.74a3,3,0,0,0-2.69,2,9.94,9.94,0,0,0-1,4.53,11.05,11.05,0,0,0,.35,2.89,12.45,12.45,0,0,0,1.55,3.35,39.5,39.5,0,0,0,3.62,4.22,24.57,24.57,0,0,1,5.34,8,25.05,25.05,0,0,1,1.37,8.59,23.44,23.44,0,0,1-2.21,10.56c-1.47,2.94-3.34,4.42-5.6,4.42a4.57,4.57,0,0,1-2-.47,11.4,11.4,0,0,1-2.38-1.77,2.23,2.23,0,0,0-1.32-.72c-.28,0-.59.24-.91.72a6.31,6.31,0,0,0-.79,2.2h-.61V197h.61q.74,7.8,2.83,11.9T314,213a3.33,3.33,0,0,0,3-2.2,11.25,11.25,0,0,0,1.11-5.12,13.34,13.34,0,0,0-.43-3.36,11.91,11.91,0,0,0-1.29-3.09,24.2,24.2,0,0,0-3.07-3.8,33.62,33.62,0,0,1-4.43-5.6,19.76,19.76,0,0,1-2.07-5.16,25.59,25.59,0,0,1-.73-6.28,22.79,22.79,0,0,1,2-10q2-4.11,5-4.11a4.37,4.37,0,0,1,2.14.57,9,9,0,0,1,1.9,1.61c.75.78,1.28,1.17,1.58,1.17s.52-.19.68-.58a12.12,12.12,0,0,0,.47-2.77Z"/></g></svg>