<svg xmlns="http://www.w3.org/2000/svg" xmlns:xlink="http://www.w3.org/1999/xlink" viewBox="0 0 371.43 371.43"><defs><style>.cls-1{fill:#37353c}.cls-2{fill:#92864f}.cls-3{fill:#231f20}.cls-4{fill:url(#linear-gradient)}.cls-5{fill:url(#linear-gradient-2)}.cls-6{fill:url(#New_Gradient_Swatch_copy_2)}.cls-7{fill:url(#New_Gradient_Swatch_copy_2-2)}.cls-8{fill:url(#New_Gradient_Swatch_copy_2-3)}.cls-9{fill:url(#New_Gradient_Swatch_copy_2-4)}.cls-10{fill:url(#New_Gradient_Swatch_copy_2-5)}.cls-11{fill:url(#New_Gradient_Swatch_copy_2-6)}.cls-12{fill:url(#New_Gradient_Swatch_copy_2-7)}.cls-13{fill:none;stroke:#625b32;stroke-miterlimit:10}</style><linearGradient id="linear-gradient" x1="3024.75" x2="3231.68" y1="1766.71" y2="1559.79" gradientTransform="translate(-1570.39 3406.79) rotate(-90)" gradientUnits="userSpaceOnUse"><stop offset="0" stop-color="#c09d30"/><stop offset=".35" stop-color="#d0a641"/><stop offset=".5" stop-color="#fffac4"/><stop offset=".65" stop-color="#d0a641"/><stop offset="1" stop-color="#c09d30"/></linearGradient><linearGradient id="linear-gradient-2" x1="3210.47" x2="3417.4" y1="1952.43" y2="1745.5" xlink:href="#linear-gradient"/><linearGradient id="New_Gradient_Swatch_copy_2" x1="79.62" x2="79.62" y1="137.35" y2="234.08" gradientUnits="userSpaceOnUse"><stop offset=".18" stop-color="#fffac4"/><stop offset=".21" stop-color="#f9efb4"/><stop offset=".25" stop-color="#eed893"/><stop offset=".76" stop-color="#d6b55a"/><stop offset=".84" stop-color="#d0a641"/><stop offset=".95" stop-color="#b69238"/></linearGradient><linearGradient id="New_Gradient_Swatch_copy_2-2" x1="116.75" x2="116.75" y1="150.24" y2="234.08" xlink:href="#New_Gradient_Swatch_copy_2"/><linearGradient id="New_Gradient_Swatch_copy_2-3" x1="151.29" x2="151.29" y1="150.24" y2="234.08" xlink:href="#New_Gradient_Swatch_copy_2"/><linearGradient id="New_Gradient_Swatch_copy_2-4" x1="181.97" x2="181.97" y1="150.24" y2="234.08" xlink:href="#New_Gradient_Swatch_copy_2"/><linearGradient id="New_Gradient_Swatch_copy_2-5" x1="218.8" x2="218.8" y1="150.24" y2="234.08" xlink:href="#New_Gradient_Swatch_copy_2"/><linearGradient id="New_Gradient_Swatch_copy_2-6" x1="257.03" x2="257.03" y1="150.24" y2="234.08" xlink:href="#New_Gradient_Swatch_copy_2"/><linearGradient id="New_Gradient_Swatch_copy_2-7" x1="291.96" x2="291.96" y1="150.24" y2="234.08" xlink:href="#New_Gradient_Swatch_copy_2"/></defs><g id="Culture"><rect width="371.43" height="371.43" class="cls-1"/><g id="Culture-2" data-name="Culture"><polygon points="0 164.5 0 0 164.5 0 371.43 206.93 371.43 371.43 206.93 371.43 0 164.5" class="cls-1"/><polygon points="35.72 35.72 252.15 119.28 335.71 335.71 119.28 252.15 35.72 35.72" class="cls-2"/><polygon points="0 214 157.43 371.43 214 371.43 0 157.43 0 214" class="cls-3"/><polygon points="371.43 157.43 214.59 .59 157.43 0 371.43 214 371.43 157.43" class="cls-3"/><polygon points="0 206.93 164.5 371.43 206.93 371.43 0 164.5 0 206.93" class="cls-4"/><polygon points="371.43 164.5 206.93 0 164.5 0 371.43 206.93 371.43 164.5" class="cls-5"/></g><path d="M93.17,170.24c0,.64-.26,1.16-.78,1.16s-.9-.65-1-1.42c-1.55-10.83-5.29-26.18-11.86-26.18-5.68,0-6.71,12.25-6.71,39.46,0,38.69,2.84,44.37,8.64,44.37,7.09,0,9.8-23.73,9.8-24.89a1,1,0,0,1,1-1c.65,0,.91.38.91,1.16,0,19.08-2.84,31.21-14.19,31.21-15.09,0-16.77-29.41-16.77-50.94,0-15.87.65-45.79,16.77-45.79,2.06,0,4.26,1.16,6.19,2.71a3.22,3.22,0,0,0,2.19.77,3.78,3.78,0,0,0,2.45-1.54c.78-.91,1.81-1.94,2.45-1.94s.91.9.91,2.19Z" class="cls-3"/><path d="M101.63,158.29a4.38,4.38,0,0,0-.9-3.13l-3.46-3.24a1.53,1.53,0,0,1-.56-1,.64.64,0,0,1,.67-.67h17.1a.64.64,0,0,1,.67.67,1.53,1.53,0,0,1-.56,1l-3.46,3.24a5,5,0,0,0-.9,3.13V219.1c0,4.92.45,9.39,5.71,9.39,4.13,0,5.25-4.47,5.25-9.39V158.29a4.33,4.33,0,0,0-.9-3.13l-3.46-3.24a1.53,1.53,0,0,1-.56-1,.64.64,0,0,1,.67-.67h15.32a.65.65,0,0,1,.67.67,1.58,1.58,0,0,1-.56,1l-3.47,3.24a5,5,0,0,0-.89,3.13V222c0,6.93-5.37,12.07-13,12.07-8.83,0-13.41-5.14-13.41-12.07Z" class="cls-3"/><path d="M139.85,158.29a4.09,4.09,0,0,0-1-3.13l-3.36-3.24c-.22-.34-.78-.67-.78-1a.65.65,0,0,1,.67-.67h17.55a.64.64,0,0,1,.67.67c0,.34-.56.67-.78,1l-3.35,3.24a4.06,4.06,0,0,0-1,3.13v70.2h4.47c1.34,0,2.46-.34,2.91-1.68l6.93-21.68c.22-.45.22-.79.67-.79s.56.34.56.79v27.38c0,1-.34,1.57-1.23,1.57H135.38a.65.65,0,0,1-.67-.67c0-.34.56-.56.78-1l3.36-3.24a4.09,4.09,0,0,0,1-3.13Z" class="cls-3"/><path d="M175.73,155.61H171.6c-.67,0-1,.56-1.23,1.23l-5.81,22.24a.86.86,0,0,1-.9.67c-.45,0-.56-.22-.56-.78V150.69a.52.52,0,0,1,.56-.45h32.75a.51.51,0,0,1,.56.45V179c0,.56-.11.78-.56.78a.85.85,0,0,1-.89-.67l-5.81-22.24c-.23-.67-.56-1.23-1.23-1.23h-4.14V226a4.06,4.06,0,0,0,.89,3.13l3.36,3.24c.33.34.78.67.78,1a.59.59,0,0,1-.67.67H171.37a.59.59,0,0,1-.67-.67c0-.34.45-.67.79-1l3.35-3.24a4.06,4.06,0,0,0,.89-3.13Z" class="cls-3"/><path d="M203.68,158.29a4.38,4.38,0,0,0-.9-3.13l-3.46-3.24a1.53,1.53,0,0,1-.56-1,.64.64,0,0,1,.67-.67h17.1a.64.64,0,0,1,.67.67,1.53,1.53,0,0,1-.56,1l-3.46,3.24a5,5,0,0,0-.9,3.13V219.1c0,4.92.45,9.39,5.7,9.39,4.14,0,5.26-4.47,5.26-9.39V158.29a4.33,4.33,0,0,0-.9-3.13l-3.46-3.24a1.53,1.53,0,0,1-.56-1,.64.64,0,0,1,.67-.67H234.3a.65.65,0,0,1,.68.67,1.58,1.58,0,0,1-.56,1L231,155.16a5,5,0,0,0-.89,3.13V222c0,6.93-5.37,12.07-13,12.07-8.83,0-13.41-5.14-13.41-12.07Z" class="cls-3"/><path d="M250.51,226a4.06,4.06,0,0,0,1,3.13l3.35,3.24c.22.34.78.67.78,1a.64.64,0,0,1-.67.67H237.43a.64.64,0,0,1-.67-.67c0-.34.56-.67.78-1l3.36-3.24a4.09,4.09,0,0,0,1-3.13V158.29a4.09,4.09,0,0,0-1-3.13l-3.36-3.24c-.22-.34-.78-.67-.78-1a.64.64,0,0,1,.67-.67h14c11.63,0,17.67,6.15,17.67,20.68,0,12.41-4.36,17.44-8.28,19.9A13.87,13.87,0,0,1,268,203.34V226.7a2.91,2.91,0,0,0,1,2l3.58,3.8c.45.45.89.9.89,1.23s-.55.34-1.11.34h-5.82c-5.14,0-7.15-3.36-7.15-7.16v-24c0-4.92-3-8.61-6.93-8.61h-1.9Zm0-37.34h1.68c5.47,0,7.71-4.35,7.71-17.77,0-11.4-2.24-15.09-7.71-15.09h-1.68Z" class="cls-3"/><path d="M288.51,188.58H291a1.2,1.2,0,0,0,1.23-.78l3.91-7.82c.23-.45.34-.67.67-.67s.45.22.45.67v23.69c0,.34-.11.56-.45.56s-.55-.33-.78-.78l-3.8-8.16a1.2,1.2,0,0,0-1.23-.78h-2.46v34h6.37a2.92,2.92,0,0,0,3-2l6-21.47a.82.82,0,0,1,.78-.67.63.63,0,0,1,.56.67v28.06a.92.92,0,0,1-.89,1h-29a.65.65,0,0,1-.67-.67c0-.34.56-.56.79-1l3.35-3.24a4.1,4.1,0,0,0,1-3.13V158.29a4.1,4.1,0,0,0-1-3.13l-3.35-3.24c-.23-.34-.79-.67-.79-1a.65.65,0,0,1,.67-.67h29a1,1,0,0,1,.89,1v27.83c0,.45-.22.67-.56.67a.93.93,0,0,1-.89-.78l-6-21a2.78,2.78,0,0,0-2.91-2.13h-6.37Z" class="cls-3"/><path d="M95.1,170.24c0,.64-.26,1.16-.77,1.16s-.91-.65-1-1.42C91.75,159.15,88,143.8,81.43,143.8c-5.67,0-6.71,12.25-6.71,39.46,0,38.69,2.84,44.37,8.64,44.37,7.1,0,9.81-23.73,9.81-24.89a.94.94,0,0,1,1-1c.64,0,.9.38.9,1.16,0,19.08-2.84,31.21-14.19,31.21-15.08,0-16.76-29.41-16.76-50.94,0-15.87.64-45.79,16.76-45.79,2.07,0,4.26,1.16,6.19,2.71a3.25,3.25,0,0,0,2.2.77,3.8,3.8,0,0,0,2.45-1.54c.77-.91,1.8-1.94,2.45-1.94s.9.9.9,2.19Z" class="cls-6"/><path d="M103.56,158.29a4.37,4.37,0,0,0-.89-3.13l-3.47-3.24a1.58,1.58,0,0,1-.56-1,.65.65,0,0,1,.67-.67h17.11a.65.65,0,0,1,.67.67,1.58,1.58,0,0,1-.56,1l-3.47,3.24a5,5,0,0,0-.89,3.13V219.1c0,4.92.45,9.39,5.7,9.39,4.14,0,5.25-4.47,5.25-9.39V158.29a4.37,4.37,0,0,0-.89-3.13l-3.47-3.24a1.58,1.58,0,0,1-.56-1,.65.65,0,0,1,.68-.67h15.31a.64.64,0,0,1,.67.67,1.53,1.53,0,0,1-.56,1l-3.46,3.24a5,5,0,0,0-.9,3.13V222c0,6.93-5.36,12.07-13,12.07-8.84,0-13.42-5.14-13.42-12.07Z" class="cls-7"/><path d="M141.79,158.29a4.1,4.1,0,0,0-1-3.13l-3.35-3.24c-.23-.34-.78-.67-.78-1a.64.64,0,0,1,.67-.67h17.55a.65.65,0,0,1,.67.67c0,.34-.56.67-.79,1l-3.35,3.24a4.09,4.09,0,0,0-1,3.13v70.2h4.47c1.34,0,2.46-.34,2.9-1.68l6.93-21.68c.23-.45.23-.79.67-.79s.56.34.56.79v27.38c0,1-.33,1.57-1.23,1.57H137.32a.64.64,0,0,1-.67-.67c0-.34.55-.56.78-1l3.35-3.24a4.1,4.1,0,0,0,1-3.13Z" class="cls-8"/><path d="M177.67,155.61h-4.14c-.67,0-1,.56-1.23,1.23l-5.81,22.24a.85.85,0,0,1-.89.67c-.45,0-.56-.22-.56-.78V150.69a.51.51,0,0,1,.56-.45h32.75a.52.52,0,0,1,.56.45V179c0,.56-.12.78-.56.78a.85.85,0,0,1-.9-.67l-5.81-22.24c-.22-.67-.56-1.23-1.23-1.23h-4.14V226a4.06,4.06,0,0,0,.9,3.13l3.35,3.24c.34.34.79.67.79,1a.6.6,0,0,1-.68.67H173.31a.59.59,0,0,1-.67-.67c0-.34.44-.67.78-1l3.35-3.24a4,4,0,0,0,.9-3.13Z" class="cls-9"/><path d="M205.61,158.29a4.37,4.37,0,0,0-.89-3.13l-3.47-3.24a1.58,1.58,0,0,1-.56-1,.65.65,0,0,1,.67-.67h17.11a.65.65,0,0,1,.67.67,1.58,1.58,0,0,1-.56,1l-3.47,3.24a5,5,0,0,0-.89,3.13V219.1c0,4.92.45,9.39,5.7,9.39,4.14,0,5.25-4.47,5.25-9.39V158.29a4.37,4.37,0,0,0-.89-3.13l-3.47-3.24a1.58,1.58,0,0,1-.56-1,.65.65,0,0,1,.68-.67h15.31a.64.64,0,0,1,.67.67,1.53,1.53,0,0,1-.56,1l-3.46,3.24a5,5,0,0,0-.9,3.13V222c0,6.93-5.36,12.07-13,12.07-8.83,0-13.41-5.14-13.41-12.07Z" class="cls-10"/><path d="M252.44,226a4.1,4.1,0,0,0,1,3.13l3.35,3.24c.23.34.79.67.79,1a.65.65,0,0,1-.67.67H239.37a.64.64,0,0,1-.67-.67c0-.34.55-.67.78-1l3.35-3.24a4.1,4.1,0,0,0,1-3.13V158.29a4.1,4.1,0,0,0-1-3.13l-3.35-3.24c-.23-.34-.78-.67-.78-1a.64.64,0,0,1,.67-.67h14c11.62,0,17.66,6.15,17.66,20.68,0,12.41-4.36,17.44-8.27,19.9a13.86,13.86,0,0,1,7.15,12.52V226.7a2.93,2.93,0,0,0,1,2l3.58,3.8c.44.45.89.9.89,1.23s-.56.34-1.12.34h-5.81c-5.14,0-7.15-3.36-7.15-7.16v-24c0-4.92-3-8.61-6.94-8.61h-1.9Zm0-37.34h1.68c5.48,0,7.71-4.35,7.71-17.77,0-11.4-2.23-15.09-7.71-15.09h-1.68Z" class="cls-11"/><path d="M290.45,188.58h2.46a1.21,1.21,0,0,0,1.23-.78l3.91-7.82c.22-.45.33-.67.67-.67s.45.22.45.67v23.69c0,.34-.12.56-.45.56s-.56-.33-.78-.78l-3.8-8.16a1.21,1.21,0,0,0-1.23-.78h-2.46v34h6.37a2.94,2.94,0,0,0,3-2l6-21.47a.83.83,0,0,1,.79-.67.63.63,0,0,1,.55.67v28.06a.91.91,0,0,1-.89,1H277.37a.64.64,0,0,1-.67-.67c0-.34.56-.56.78-1l3.35-3.24a4.06,4.06,0,0,0,1-3.13V158.29a4.06,4.06,0,0,0-1-3.13l-3.35-3.24c-.22-.34-.78-.67-.78-1a.64.64,0,0,1,.67-.67h28.95a1,1,0,0,1,.89,1v27.83c0,.45-.22.67-.55.67a1,1,0,0,1-.9-.78l-6-21a2.76,2.76,0,0,0-2.9-2.13h-6.37Z" class="cls-12"/><path d="M95.1,170.24c0,.64-.26,1.16-.77,1.16s-.91-.65-1-1.42C91.75,159.15,88,143.8,81.43,143.8c-5.67,0-6.71,12.25-6.71,39.46,0,38.69,2.84,44.37,8.64,44.37,7.1,0,9.81-23.73,9.81-24.89a.94.94,0,0,1,1-1c.64,0,.9.38.9,1.16,0,19.08-2.84,31.21-14.19,31.21-15.08,0-16.76-29.41-16.76-50.94,0-15.87.64-45.79,16.76-45.79,2.07,0,4.26,1.16,6.19,2.71a3.25,3.25,0,0,0,2.2.77,3.8,3.8,0,0,0,2.45-1.54c.77-.91,1.8-1.94,2.45-1.94s.9.9.9,2.19Z" class="cls-13"/><path d="M103.56,158.29a4.37,4.37,0,0,0-.89-3.13l-3.47-3.24a1.58,1.58,0,0,1-.56-1,.65.65,0,0,1,.67-.67h17.11a.65.65,0,0,1,.67.67,1.58,1.58,0,0,1-.56,1l-3.47,3.24a5,5,0,0,0-.89,3.13V219.1c0,4.92.45,9.39,5.7,9.39,4.14,0,5.25-4.47,5.25-9.39V158.29a4.37,4.37,0,0,0-.89-3.13l-3.47-3.24a1.58,1.58,0,0,1-.56-1,.65.65,0,0,1,.68-.67h15.31a.64.64,0,0,1,.67.67,1.53,1.53,0,0,1-.56,1l-3.46,3.24a5,5,0,0,0-.9,3.13V222c0,6.93-5.36,12.07-13,12.07-8.84,0-13.42-5.14-13.42-12.07Z" class="cls-13"/><path d="M141.79,158.29a4.1,4.1,0,0,0-1-3.13l-3.35-3.24c-.23-.34-.78-.67-.78-1a.64.64,0,0,1,.67-.67h17.55a.65.65,0,0,1,.67.67c0,.34-.56.67-.79,1l-3.35,3.24a4.09,4.09,0,0,0-1,3.13v70.2h4.47c1.34,0,2.46-.34,2.9-1.68l6.93-21.68c.23-.45.23-.79.67-.79s.56.34.56.79v27.38c0,1-.33,1.57-1.23,1.57H137.32a.64.64,0,0,1-.67-.67c0-.34.55-.56.78-1l3.35-3.24a4.1,4.1,0,0,0,1-3.13Z" class="cls-13"/><path d="M177.67,155.61h-4.14c-.67,0-1,.56-1.23,1.23l-5.81,22.24a.85.85,0,0,1-.89.67c-.45,0-.56-.22-.56-.78V150.69a.51.51,0,0,1,.56-.45h32.75a.52.52,0,0,1,.56.45V179c0,.56-.12.78-.56.78a.85.85,0,0,1-.9-.67l-5.81-22.24c-.22-.67-.56-1.23-1.23-1.23h-4.14V226a4.06,4.06,0,0,0,.9,3.13l3.35,3.24c.34.34.79.67.79,1a.6.6,0,0,1-.68.67H173.31a.59.59,0,0,1-.67-.67c0-.34.44-.67.78-1l3.35-3.24a4,4,0,0,0,.9-3.13Z" class="cls-13"/><path d="M205.61,158.29a4.37,4.37,0,0,0-.89-3.13l-3.47-3.24a1.58,1.58,0,0,1-.56-1,.65.65,0,0,1,.67-.67h17.11a.65.65,0,0,1,.67.67,1.58,1.58,0,0,1-.56,1l-3.47,3.24a5,5,0,0,0-.89,3.13V219.1c0,4.92.45,9.39,5.7,9.39,4.14,0,5.25-4.47,5.25-9.39V158.29a4.37,4.37,0,0,0-.89-3.13l-3.47-3.24a1.58,1.58,0,0,1-.56-1,.65.65,0,0,1,.68-.67h15.31a.64.64,0,0,1,.67.67,1.53,1.53,0,0,1-.56,1l-3.46,3.24a5,5,0,0,0-.9,3.13V222c0,6.93-5.36,12.07-13,12.07-8.83,0-13.41-5.14-13.41-12.07Z" class="cls-13"/><path d="M252.44,226a4.1,4.1,0,0,0,1,3.13l3.35,3.24c.23.34.79.67.79,1a.65.65,0,0,1-.67.67H239.37a.64.64,0,0,1-.67-.67c0-.34.55-.67.78-1l3.35-3.24a4.1,4.1,0,0,0,1-3.13V158.29a4.1,4.1,0,0,0-1-3.13l-3.35-3.24c-.23-.34-.78-.67-.78-1a.64.64,0,0,1,.67-.67h14c11.62,0,17.66,6.15,17.66,20.68,0,12.41-4.36,17.44-8.27,19.9a13.86,13.86,0,0,1,7.15,12.52V226.7a2.93,2.93,0,0,0,1,2l3.58,3.8c.44.45.89.9.89,1.23s-.56.34-1.12.34h-5.81c-5.14,0-7.15-3.36-7.15-7.16v-24c0-4.92-3-8.61-6.94-8.61h-1.9Zm0-37.34h1.68c5.48,0,7.71-4.35,7.71-17.77,0-11.4-2.23-15.09-7.71-15.09h-1.68Z" class="cls-13"/><path d="M290.45,188.58h2.46a1.21,1.21,0,0,0,1.23-.78l3.91-7.82c.22-.45.33-.67.67-.67s.45.22.45.67v23.69c0,.34-.12.56-.45.56s-.56-.33-.78-.78l-3.8-8.16a1.21,1.21,0,0,0-1.23-.78h-2.46v34h6.37a2.94,2.94,0,0,0,3-2l6-21.47a.83.83,0,0,1,.79-.67.63.63,0,0,1,.55.67v28.06a.91.91,0,0,1-.89,1H277.37a.64.64,0,0,1-.67-.67c0-.34.56-.56.78-1l3.35-3.24a4.06,4.06,0,0,0,1-3.13V158.29a4.06,4.06,0,0,0-1-3.13l-3.35-3.24c-.22-.34-.78-.67-.78-1a.64.64,0,0,1,.67-.67h28.95a1,1,0,0,1,.89,1v27.83c0,.45-.22.67-.55.67a1,1,0,0,1-.9-.78l-6-21a2.76,2.76,0,0,0-2.9-2.13h-6.37Z" class="cls-13"/></g></svg>