<svg xmlns="http://www.w3.org/2000/svg" xmlns:xlink="http://www.w3.org/1999/xlink" viewBox="0 0 1080 1080"><defs><style>.cls-1{fill:url(#radial-gradient);}.cls-2{fill:#666;}.cls-3{fill:#fff;}.cls-4{fill:#f4901e;}.cls-5{fill:red;}.cls-6{fill:maroon;}.cls-7{opacity:0.5;}.cls-8{stroke:#000;stroke-width:10px;}.cls-8,.cls-9{stroke-linejoin:round;}.cls-9{fill:#bf6f13;stroke:#bf6f13;stroke-width:6px;}.cls-10{fill:url(#linear-gradient);}.cls-11{fill:url(#linear-gradient-2);}.cls-12{fill:url(#linear-gradient-3);}.cls-13{fill:url(#linear-gradient-4);}.cls-14{fill:url(#linear-gradient-5);}.cls-15{fill:url(#linear-gradient-6);}.cls-16{fill:url(#linear-gradient-7);}.cls-17{fill:url(#linear-gradient-8);}.cls-18{fill:url(#linear-gradient-9);}.cls-19{fill:url(#linear-gradient-10);}.cls-20{fill:url(#linear-gradient-11);}.cls-21{fill:url(#linear-gradient-12);}.cls-22{fill:url(#linear-gradient-13);}.cls-23{fill:url(#linear-gradient-14);}.cls-24{fill:url(#linear-gradient-15);}.cls-25{fill:url(#linear-gradient-16);}.cls-26{fill:url(#linear-gradient-17);}.cls-27{fill:url(#linear-gradient-18);}.cls-28{fill:url(#linear-gradient-19);}.cls-29{fill:url(#linear-gradient-20);}.cls-30{fill:url(#linear-gradient-21);}</style><radialGradient id="radial-gradient" cx="551.19" cy="697.35" r="539.77" gradientUnits="userSpaceOnUse"><stop offset="0" stop-color="#fff"/><stop offset="1" stop-color="#00cc89"/></radialGradient><linearGradient id="linear-gradient" x1="535.69" y1="155.1" x2="535.69" y2="89.73" gradientUnits="userSpaceOnUse"><stop offset="0" stop-color="#ecb38d"/><stop offset="0.31" stop-color="#f7e0d1"/><stop offset="0.5" stop-color="#fff"/><stop offset="0.63" stop-color="#fffdfc"/><stop offset="0.72" stop-color="#fdf7f3"/><stop offset="0.8" stop-color="#faede4"/><stop offset="0.87" stop-color="#f7dece"/><stop offset="0.93" stop-color="#f2ccb2"/><stop offset="1" stop-color="#edb590"/><stop offset="1" stop-color="#ecb38d"/></linearGradient><linearGradient id="linear-gradient-2" x1="579.24" y1="155.1" x2="579.24" y2="91.04" xlink:href="#linear-gradient"/><linearGradient id="linear-gradient-3" x1="617.33" y1="153.78" x2="617.33" y2="91.04" xlink:href="#linear-gradient"/><linearGradient id="linear-gradient-4" x1="643.74" y1="153.78" x2="643.74" y2="91.04" xlink:href="#linear-gradient"/><linearGradient id="linear-gradient-5" x1="683.71" y1="155.1" x2="683.71" y2="91.04" xlink:href="#linear-gradient"/><linearGradient id="linear-gradient-6" x1="726.9" y1="153.78" x2="726.9" y2="91.04" xlink:href="#linear-gradient"/><linearGradient id="linear-gradient-7" x1="768.34" y1="153.78" x2="768.34" y2="91.04" xlink:href="#linear-gradient"/><linearGradient id="linear-gradient-8" x1="804.84" y1="153.78" x2="804.84" y2="91.04" xlink:href="#linear-gradient"/><linearGradient id="linear-gradient-9" x1="853.44" y1="153.78" x2="853.44" y2="91.04" xlink:href="#linear-gradient"/><linearGradient id="linear-gradient-10" x1="885.6" y1="153.78" x2="885.6" y2="91.04" xlink:href="#linear-gradient"/><linearGradient id="linear-gradient-11" x1="919.19" y1="153.78" x2="919.19" y2="91.04" xlink:href="#linear-gradient"/><linearGradient id="linear-gradient-12" x1="958.31" y1="153.78" x2="958.31" y2="91.04" xlink:href="#linear-gradient"/><linearGradient id="linear-gradient-13" x1="995.55" y1="155.1" x2="995.55" y2="89.73" xlink:href="#linear-gradient"/><linearGradient id="linear-gradient-14" x1="633.9" y1="249.01" x2="633.9" y2="186.27" xlink:href="#linear-gradient"/><linearGradient id="linear-gradient-15" x1="665.81" y1="249.01" x2="665.81" y2="186.27" xlink:href="#linear-gradient"/><linearGradient id="linear-gradient-16" x1="701.56" y1="249.01" x2="701.56" y2="186.27" xlink:href="#linear-gradient"/><linearGradient id="linear-gradient-17" x1="735.6" y1="249.01" x2="735.6" y2="186.27" xlink:href="#linear-gradient"/><linearGradient id="linear-gradient-18" x1="775.57" y1="250.33" x2="775.57" y2="186.27" xlink:href="#linear-gradient"/><linearGradient id="linear-gradient-19" x1="818.75" y1="249.01" x2="818.75" y2="186.27" xlink:href="#linear-gradient"/><linearGradient id="linear-gradient-20" x1="857.43" y1="249.01" x2="857.43" y2="186.27" xlink:href="#linear-gradient"/><linearGradient id="linear-gradient-21" x1="893.54" y1="250.33" x2="893.54" y2="184.96" xlink:href="#linear-gradient"/></defs><g id="DCI"><rect class="cls-1" width="1080" height="1080"/><path class="cls-2" d="M733.33,638.55c-3-.18-4.64,2-3.72,4.81a9.13,9.13,0,0,0,7.45,5.72c3,.16,4.64-1.92,3.7-4.77A9.15,9.15,0,0,0,733.33,638.55Z"/><path class="cls-3" d="M502.27,733.52c.6,7.33,1.93,14.61,3.1,21.88a12.8,12.8,0,0,0,1.86,4.51c2.47,4,5.29,7.79,7.64,11.85a39.34,39.34,0,0,0,8,10.16c3.26,2.84,6.51,5.71,9.69,8.65,5.7,5.24,12.56,7.94,20.06,9.21a24,24,0,0,0,12.81-1.23,22,22,0,0,0,12.19-11.42,138.5,138.5,0,0,0,10.21-31.47,102.79,102.79,0,0,1,5-17.81,31.29,31.29,0,0,0,1.36-4.21,221.92,221.92,0,0,0,5.31-26.55,24.19,24.19,0,0,0,.38-4.39,44.68,44.68,0,0,0-6.33-21.2,77.45,77.45,0,0,1-9.86-23.91c-.45-2-1-3.93-1.46-5.91a58.35,58.35,0,0,1-1.29-20.57c.29-2.23.45-4.47.68-6.81-2.87.88-3.09.78-4.07-1.79-.39-1-.71-2.09-1.13-3.12-1.29-3.12-2.61-6.24-3.86-9.21a4.57,4.57,0,0,0-.87,0c-2.9,1.07-3.44.7-3.34-2.33a7.54,7.54,0,0,1,.06-.82c.44-3.75.86-7.51,1.34-11.25.16-1.29.18-2.33-1.4-2.81-2.42-.73-2.49-1-2.47-3.5,0-2,0-4,0-6.13a7.53,7.53,0,0,0-1.51-.53c-2.49-.32-3.13-2-2.24-4.25a4.53,4.53,0,0,0,.63-3c-2.57,2.51-5,4.86-7.41,7.25-1.29,1.29-2.59,2.58-3.75,4-4.16,5-10.29,7-16.46,3.1-2.22-1.42-4.08-3.41-6.26-4.91-3.23-2.21-6.61-4.21-10.23-6.49.51,1.06.86,1.87,1.28,2.65,1.41,2.59,2.89,5.14,4.24,7.76,1.09,2.11.35,3.23-2,3-2.11-.19-4.2-.57-6.31-.83-1.23-.16-2.47-.24-4-.39.5,2.15.91,3.85,1.3,5.55.63,2.79-.14,3.58-2.95,3-1.67-.34-3.33-.75-5.41-1.22a47.55,47.55,0,0,0,1.39,4.62,13.73,13.73,0,0,1,.34,10c-.59,1.8-1,3.4-3.59,2.92.19,1.09.34,1.89.47,2.69.91,5.36,2,10.66,2,16.15.13,15-.82,30-1.37,45.07-.44,12.06-1.71,24.1-1,36.2.06,1-.14,2-.18,3C502.59,723.6,501.87,728.6,502.27,733.52Z"/><path class="cls-3" d="M516,499.2a3.78,3.78,0,0,0,7.56.1,3.75,3.75,0,0,0-3.58-3.76A3.81,3.81,0,0,0,516,499.2Z"/><path class="cls-3" d="M573.15,512.66c2-6.71,2.29-13.06.4-19.36a7.71,7.71,0,0,0-8.37-5.28,4.26,4.26,0,0,0-3.85,3c4.38-.05,6.33,1.07,8.29,4.69a8.9,8.9,0,0,1,.8,1.75c1.41,4.64,3.08,9.28.81,14.2Z"/><path class="cls-3" d="M556.74,570.6c-.47,2.32-.67,4.69-1.07,7.66a31.86,31.86,0,0,0,7.24-9.64L558.76,563C558,565.89,557.23,568.22,556.74,570.6Z"/><path class="cls-3" d="M557.84,504.46c0,1.46,1.4,2.49,3.27,2.41a3.69,3.69,0,0,0,3.56-3.77,3.74,3.74,0,0,0-3.66-3.69C559,499.33,557.89,502,557.84,504.46Z"/><path class="cls-3" d="M508.92,532.19c-.39.12-.8.15-1.52.28a31.61,31.61,0,0,1,2.26,2.78,9.49,9.49,0,0,1,1.53,3.15c.58,3.26.94,6.56,1.37,9.85s.81,6.57,1.27,9.85a2.93,2.93,0,0,0,2.16,2.58c3.07,1,6.07,2.45,9.2,2.79a21.71,21.71,0,0,0,8.93-1c2.83-.91,5.25-3,8-4.26s5.45-2.15,8.21-3.13a3.69,3.69,0,0,1,4,1,15.1,15.1,0,0,0,4.23,2.45,5.21,5.21,0,0,1,2.64,2.25,47.55,47.55,0,0,0,3.22,4.82c1.29,1.66,1.78,1.68,3.78.91a28.28,28.28,0,0,0,12.45-9.35,20.19,20.19,0,0,0,3.9-17.91c-1-4-2.47-7.88-3.75-11.82a5.88,5.88,0,0,0-.63-1.22c-1.23-2.06-2.46-4.11-3.74-6.14a5.77,5.77,0,0,0-3.55-2.86c.46,2,1,4.07,1.36,6.12,1.06,5.76-2.5,12.55-7.84,14.43a18.4,18.4,0,0,1-15.24-.94c-.88-.47-1.9-.68-2.81-1.11a39.4,39.4,0,0,1-6.37-3.17,7.83,7.83,0,0,1-3.52-6.85c0-1.29,0-2.58.09-3.87.49-5.88,3.19-10.27,8.77-12.65.8-.35,1.59-.75,2.38-1.12-15.53-.11-29.62,3.72-41.61,13.92.85,2.55,1.71,5,2.44,7.44C511,531,510.59,531.7,508.92,532.19Z"/><path class="cls-3" d="M533.31,491.55a6.31,6.31,0,0,0-.36-4.1,9.47,9.47,0,0,0-8-5.57,28.24,28.24,0,0,0-11.2,1.12,11.31,11.31,0,0,0-4.48,2.56c-6,5.87-6.86,12.9-4.29,20.62a7.62,7.62,0,0,0,3.64,4.34c1.68.94,3.51,1.62,5.26,2.43a1.86,1.86,0,0,0,2.61-.82,7,7,0,0,0-.87-.33c-4.72-.94-8.54-2.92-9.56-8.19a6.9,6.9,0,0,0-.39-1c-1.59-4.33.42-11.59,4.21-14.25,5.69-4,14.14-5.18,19.89.28C530.82,489.59,532,490.45,533.31,491.55Z"/><path class="cls-2" d="M324.23,678.62a27.74,27.74,0,0,0-2-7.39c-1.43-3.05-3.49-3.21-5.9-.87a23.59,23.59,0,0,0-6.12,11c-1.48,5.4,0,8.74,5.26,10.86,3,1.22,6.35,1.73,9.54,2.56,3.84-.29,5.31-1.84,4.45-5.46a10.51,10.51,0,0,0-2.34-4.26A12,12,0,0,1,324.23,678.62Z"/><path class="cls-2" d="M316.68,697.14a9.94,9.94,0,0,0-5.81,8.1c-.12,3.36,2.31,5.08,5.47,3.88a10,10,0,0,0,5.79-8.12C322.25,697.63,319.84,695.93,316.68,697.14Z"/><path class="cls-2" d="M301.06,683.63c-3.32-2.56-10.16-1.39-12.46,2.14a3.45,3.45,0,0,0,.72,4.92c1.41,1.22,3.11,1.53,5.27,1.54a9.41,9.41,0,0,0,6.89-2.84A3.62,3.62,0,0,0,301.06,683.63Z"/><path class="cls-2" d="M306.44,677.05c2.32-1.56,2.54-3.9.48-5.79a10.16,10.16,0,0,0-6-2.33,24.42,24.42,0,0,0-4.36,1.52c-2.41,1.38-2.54,3.83-.51,5.75A9.21,9.21,0,0,0,306.44,677.05Z"/><path class="cls-4" d="M450.83,779.65a5.79,5.79,0,0,1,.6,6.26c-1.2,2.77-2.83,5.34-4.24,8-.61,1.18-1.12,2.41-1.67,3.62a2.27,2.27,0,0,0,1.33-.22c1.78-.6,2.94.25,2.77,2.07a7.87,7.87,0,0,1-.34,1.33c-.85,3.19-1.9,6.35-2.49,9.58a10.21,10.21,0,0,1-2.68,5.89,5.8,5.8,0,0,0-1.89,4.14c.53-.07.79-.11,1-.13,2.05-.16,2.68.51,2.26,2.52a10.12,10.12,0,0,1-.62,1.83,27.12,27.12,0,0,0-1.72,4.35c-1.23,6.28-4.13,12-6,18a33,33,0,0,0-.66,11.43c2.67-1.85,4.13-4.69,6.22-6.93a12.94,12.94,0,0,0,1.49-2.32c.41-.69.62-1.6,1.2-2.05a6.38,6.38,0,0,1,2.31-.63c.94-5,3.65-9.2,6.11-13.5,1.19-2.08,1.29-2,4-1.43a45.17,45.17,0,0,0,.88-5.09A27.29,27.29,0,0,1,464,811a8.19,8.19,0,0,0,1.67-5.14,19.28,19.28,0,0,1,.47-5.75,56.37,56.37,0,0,1,5.6-12.21l-11.9-22Z"/><path class="cls-4" d="M308.2,688.52c-1.42-3.17-.53-6.38.15-9.49l-7,1.83c4,3.53,4.43,5.2,2.18,10a23.45,23.45,0,0,1,4.23,1.6A4.79,4.79,0,0,1,310,696.4a19.21,19.21,0,0,1-.09,2.51l5.06-4.34C312.43,693.23,309.61,691.68,308.2,688.52Z"/><path class="cls-5" d="M544.15,560.81a2.35,2.35,0,0,0-1.79,2.38c-.39,3.84-1,7.66-1.56,11.49a5.59,5.59,0,0,1-.55,1.33c-.65-4.32.21-8.63-1.15-12.86a36.22,36.22,0,0,1-5.41,2.74,42.06,42.06,0,0,1-6.33,1c.18,2.29.25,4.41.54,6.5.87,6.27,3.48,11.43,9.49,14.29,2.12,1,4.31,1.62,6.67.77a10.85,10.85,0,0,0,6.44-5.74c2.75-5.88,3.48-12.18,3.53-18.59a3,3,0,0,0-2.07-3A10.5,10.5,0,0,0,544.15,560.81Z"/><path class="cls-2" d="M304,693.46c-4.13-.07-9,4.82-9,9a3.62,3.62,0,0,0,3.72,3.92c4.26.19,9.27-4.8,9.12-9.09A3.72,3.72,0,0,0,304,693.46Z"/><path class="cls-4" d="M475.69,433c1-1,1.86-.56,2.72.69a7.93,7.93,0,0,1,.67,1.21c2,4.39,4.52,8.44,8.56,11.31a3.2,3.2,0,0,1,1.23,3.67,38.71,38.71,0,0,0-.89,4.9,3.73,3.73,0,0,0,.4,2.56c2.52,2.87,2.39,6,1.29,9.31a5.76,5.76,0,0,0-.26,1.07,1.65,1.65,0,0,0,1.21,2c.67-1.09,1.33-2.18,2-3.26,4-6.38,9.61-9.44,17.2-8.49a10.37,10.37,0,0,1,6.3,3.43c-1.2,1.64-2.65,1.27-4,1.29-4.43.07-8.75.73-11.88,4.21a73.28,73.28,0,0,0-5.15,7.15,1.87,1.87,0,0,0,.17,2.53,16.32,16.32,0,0,1,1,1.32c.6.83,1.33,1.68.57,2.73s-1.6.7-2.53.45c-.51-.14-1-.22-1.56-.32l-.25.44c.54.61,1,1.27,1.63,1.82a11.6,11.6,0,0,1,3.5,6.41c.81,4,2,7.87,2.86,11.82,1.37,6.06,4.31,11.49,6.65,17.4l6.24-4.5c-1.71-.8-3.13-1.43-4.52-2.12a9,9,0,0,1-4.51-4.3,20.51,20.51,0,0,1-.44-16.41c1.76-4.39,4.62-8,9.45-9.42a34.52,34.52,0,0,1,11.77-1.14c4.79.29,10.44,5,9.43,11.38-.73,4.59-.76,9.29-1.11,14,3.67-.49,7.36-1.18,11.08-1.42s7.51,0,11.45,0a.89.89,0,0,0,.18-.44c.26-4.59,2-8.78,3.62-13a6.62,6.62,0,0,1,3.33-3.89c3.2-1.43,8.21.05,10.14,3,2.67,4.07,2.84,8.7,2.62,13.3-.17,3.28-.92,6.53-1.47,10.15l3.37,2.72L583.86,503c-2.52-2-2.53-2.35-.5-4.56a12.88,12.88,0,0,0,2.55-3.21c1.46-3.48,2.7-7.06,4-10.62a3.14,3.14,0,0,0,.15-2.1c-1.33-3-2.78-6-4.25-9a6.24,6.24,0,0,0-4.26-3.24c-1.07-.28-2.16-.49-3.2-.86-1.31-.48-1.37-1.74-1.2-2.79a2,2,0,0,1,1.48-1.28c3.2,0,6.27.52,8.14,3.64s3.79,5.88,4.51,9.75c.9-1.85,1.46-3.45.88-5-1.45-3.93-.67-7.58.93-11.22.48-1.09.72-2.29,1.21-3.38a4.11,4.11,0,0,0-.2-4c-.41-.72-.73-1.49-1.14-2.21-5.37-9.34-10.51-18.83-17.47-27.15a16.34,16.34,0,0,1-1-1.34,115.35,115.35,0,0,0-12-14.44,11.85,11.85,0,0,0-2.09-1.79,57.29,57.29,0,0,0-12.94-6.75A52.71,52.71,0,0,0,523.18,399c-10.09,1.32-19.86,3.87-28.89,8.9A68.76,68.76,0,0,0,482,416.34c-4.69,4.16-9.05,8.68-13.53,13.06-.64.62-1.2,1.32-2,2.2,1.2.57,2.2,1,3.15,1.51C471.72,434.19,473.6,435,475.69,433Z"/><path class="cls-3" d="M521.23,575.92c0,.28.4.6.68.82,1.15.87,2.33,1.71,3.84,2.82-.62-4.69-1.16-8.83-1.71-13l-7.93-2.25.61,1.42C518.13,569.18,521.12,571.9,521.23,575.92Z"/><path class="cls-2" d="M741.89,637.78a9.76,9.76,0,0,0,7.64,4.56c1.91,0,3.49-.41,4.37-2.1s.26-3.09-.72-4.37a9.35,9.35,0,0,0-8-4C741.59,631.94,740,634.8,741.89,637.78Z"/><path class="cls-2" d="M744.45,627.4c2.9,2.36,9.08,1.61,11.35-1.37,1.34-1.77,1.14-3.88-.75-5a25.32,25.32,0,0,0-4.28-1.66,11.08,11.08,0,0,0-6.47,2.58A3.38,3.38,0,0,0,744.45,627.4Z"/><path class="cls-2" d="M723.83,638.71c4.34-1.21,8.35-3.05,11.21-6.66a19.25,19.25,0,0,0,2-3.87,21.8,21.8,0,0,0-.89-3.33,21.46,21.46,0,0,0-9.44-10.14c-2.62-1.4-4.29-.66-4.86,2.27a15.3,15.3,0,0,0-.08,5.48c.61,3.29.53,6.35-1.16,9.35a5.55,5.55,0,0,0,.12,5.33A2.52,2.52,0,0,0,723.83,638.71Z"/><path class="cls-2" d="M736.79,617.93c3.09,1.33,8.1-.53,9.58-3.56a3.13,3.13,0,0,0-2.13-4.72,16.37,16.37,0,0,0-1.74-.3c-3,.2-5.39,1.18-7,3.56C734.08,614.93,734.67,617,736.79,617.93Z"/><path class="cls-4" d="M627.39,579.33c.27,3.56.57,7,.79,10.52.26,4,.23,4-3.66,4.77,0,.94,0,1.93,0,2.93q.12,5.12.26,10.22a12.56,12.56,0,0,1,0,1.94c-.2,1.63-1.29,2.22-2.74,1.51-.69-.34-1.32-.8-2.15-1.31-.24,1-.44,1.67-.57,2.39-.48,2.62-.88,5.27-1.46,7.87-.15.7-.76,1.68-1.32,1.8s-1.46-.5-2-1a24.84,24.84,0,0,1-2.23-2.63L605,627.39c.76.05,1.19.09,1.63.1,6.81.1,13.64.07,20.45.31,9,.32,18,.84,27,1.27a9.21,9.21,0,0,0,1.66,0,13.54,13.54,0,0,1,7.29,1,68.4,68.4,0,0,1,10,4.63c4.25,2.62,8,.83,12-.22-.82-1.77-1.5-3.23-2.19-4.7l.46-.22c2.89,2.41,5.83,4.77,8.66,7.25a4.64,4.64,0,0,0,5.25,1c2.6-1,5.34-1.37,7.59,1.23a59.69,59.69,0,0,0,4.65,4.33,16.56,16.56,0,0,0,9.87,4.42,30.11,30.11,0,0,1,13.46,4.49,27.65,27.65,0,0,0,5.48,3.17,30.47,30.47,0,0,0,7.2,1.64c2,.24,3.46-1.24,4.31-2.93s-.06-2.92-1.37-4.06a24,24,0,0,1-2.45-2.85,5.81,5.81,0,0,1,2.59.17,17.71,17.71,0,0,0,3.75.4c4.14-.24,7-2.67,9.12-5.95a10.57,10.57,0,0,0,1.95-6.51c-.14-2-.66-2.29-2.66-2.12-1.12.1-2.3,1-3.7-.4a29.86,29.86,0,0,1,3.35-1.79,13,13,0,0,0,7.33-6.37,5.88,5.88,0,0,0-.78-7c-2.12-2.23-4.34-4.32-7.92-3.22-2.75.84-5.3,0-7.7-1.55l6.62-1.1c-1.74-2.83-3.52-4.86-6.27-5.8-1.82-.63-3.75-1-5.53-1.68a12.43,12.43,0,0,0-7.86-.54c-6.65,1.7-13.34,3.31-19.53,6.47a6,6,0,0,1-6.51-.3,20.45,20.45,0,0,0-5.07-2.1c-4.53-1.49-9.21-2.59-13.62-4.38a109.4,109.4,0,0,1-12.21-6.21c-8.85-4.94-17.6-10-26.43-15-7.32-4.11-14.69-8.09-22-12.12-.55-.31-1.14-.55-2-1-.19,1.73-.43,3.26-.52,4.79C630.2,576.26,629.87,578.31,627.39,579.33Zm91.75,50.52a8.36,8.36,0,0,0,.77-5.59,27.73,27.73,0,0,1-.43-5.22,10.25,10.25,0,0,1,.82-3.73c1.46-3.44,3.49-4.19,6.83-2.54,1.79.89,3.46,2,5.37,3.17a9.54,9.54,0,0,1,10.27-8.58c2.43.1,4.54.9,5.65,3.29s.22,4.29-1.21,6.13c-.33.43-.73.79-1.45,1.55,1.15-.24,1.88-.38,2.61-.55a10.23,10.23,0,0,1,6.74.75c4.39,2.07,4.93,7.21,1,10a34.41,34.41,0,0,1-5,2.49c1,.87,2.09,1.76,3.06,2.8,2.2,2.34,2.66,5.57,1.17,7.84a6,6,0,0,1-6.54,2.57c-2.29-.44-4.45-1.59-6.71-2.43a12.13,12.13,0,0,0,.39,1.38c.85,2.2,1,4.4-.73,6.19a6.16,6.16,0,0,1-6.66,1.45c-4.21-1.36-8.09-5.09-7.79-9.9a3.23,3.23,0,0,0-.24-.84c-1,.22-2,.48-3,.62a4.84,4.84,0,0,1-5.58-3.39A8.76,8.76,0,0,1,719.14,629.85Z"/><path class="cls-4" d="M734.13,636.12l6.41,3.58c-.84-1.74-1.81-3.55-1.29-5.78s2.45-3.2,4.28-4.17c-3.17-3.83-3.27-4.74-1.07-9.42h-6.38c1.55,2.74,3.09,5.37,2.62,8.58S736,634.12,734.13,636.12Z"/><path class="cls-4" d="M801,857.37c-2.42-5.26-6.09-8.92-12.24-9.4-3.85-.3-7.7-.71-11.55-1.06-.93-.09-1.87-.15-2.8-.23,0-.25,0-.51.07-.77,8-2.16,15.85-2.58,23.72,1.57-4-5.85-8.31-8.12-13.49-8.06a76,76,0,0,1-12.07-.7c-4.53-.66-9-2-13.46-2.84-5.27-1-9.78-3.39-14.28-6.24-3.2-2-4.26-4.51-4.39-7.87,0-.37,0-.74,0-1.11a24.62,24.62,0,0,0-2.66-11.48c-3.84-8.47-7.48-17.06-12.27-25.07a44.76,44.76,0,0,1-2.59-4.89c-6.48-14.87-12.83-29.79-19.42-44.62a77.18,77.18,0,0,0-6.87-12.6,31.84,31.84,0,0,0-13.25-10.57,216.82,216.82,0,0,0-24.75-9.54c-11.5-3.67-22.93-7.54-34.43-11.19-5.1-1.61-10.27-3-15.45-4.31a7.8,7.8,0,0,1-5.39-5.07,15.79,15.79,0,0,1-1.12-4.25,52.22,52.22,0,0,0-2.72-11.8c-2.78-7.89-6-15.62-7.41-24a8.73,8.73,0,0,1,2.34-7.74c.95-1.12,2.09-2.08,3.13-3.13.5-.51,1-1.06,1.45-1.59-1-1.18-1.78-.78-2.61,0-1.56,1.57-3.09,3.18-4.76,4.63-1.37,1.19-2.7.57-2.85-1.23-.09-1,0-2,0-2.85l-4-.66a49.66,49.66,0,0,0,.37,20.24c1.72,8.29,3.82,16.54,7.77,24.14,1.65,3.18,3.48,6.28,5.23,9.42,2.55,4.57,3.72,9.58,4.7,14.65s.22,10.27-.65,15.38a177.31,177.31,0,0,1-7.06,29.25,88,88,0,0,0-2.92,10.36c-2.62,12-5.52,23.87-10.82,35-2.52,5.31-5.66,9.89-11,12.63a25.88,25.88,0,0,1-4.41,2.26,34.73,34.73,0,0,1-21.47-.8,35.9,35.9,0,0,1-8.73-4.06c-7.33-5-13.73-11.14-19.91-17.5a10.94,10.94,0,0,1-1.26-1.8c-3.63-5.67-7.28-11.32-10.85-17a11.24,11.24,0,0,1-1.53-3.5,220.8,220.8,0,0,1-3.65-25.72,15.91,15.91,0,0,1,0-2.76c.55-7.08,1.24-14.15.78-21.27a43.38,43.38,0,0,1,.05-5c1-22,2.46-44,2.57-66.06,0-7.37-1.29-14.48-2.81-21.6a2.75,2.75,0,0,0-1.09-1.77c-2-1-4.19-1.7-6.45-2.58-.08,1-.15,1.65-.18,2.28-.11,2.58-.21,5.16-.33,7.74,0,.91.11,2.11-1,2.3a4.1,4.1,0,0,1-2.47-.74,32.88,32.88,0,0,1-3.09-2.33l-4.39-3.41c-2.27,3.12-4.28,6-6.42,8.75-.5.64-1.56,1.37-2.18,1.24s-1.16-1.25-1.5-2c-.52-1.21-.39-2.68-1.48-4-.68,1.1-1.24,2-1.83,3s-1.06,2.55-2.69,2.42-1.77-1.71-2.3-2.82c-1.15-2.38-2.22-4.81-3.42-7.43-2,1.55-3.74,3-5.54,4.21s-2.61.92-3.52-.89a25.43,25.43,0,0,1-1.78-4c-.6-2-1.71-2.92-3.8-2.71s-3.6-.81-4.59-2.78-2.32-3.94-3.46-5.84c-3.12-.29-6,1.06-8.95-1.15s-3.34-5-3.69-8.16l-1.31.6c-2.26,1-2.49.93-3.75-1.1a14,14,0,0,1-2.15-7.05,3.75,3.75,0,0,0-1.92-3.42c-2.34-1.34-3.42-3.24-2.91-6a3.53,3.53,0,0,0-.21-1.09,41.4,41.4,0,0,0-7.21,12.17c-.52,1.48-.95,3-1.57,4.43-1.51,3.48-3.31,6.72-6.5,9.06-3.64,2.68-7.23,5.44-10.64,8.39-10.47,9.09-19.14,19.95-29,29.68-2.35,2.32-4.22,5.18-6.74,7.26-3.46,2.86-7.35,5.18-11,7.78-2.77,2-5.75,3.73-8.16,6.07a6.87,6.87,0,0,1-5.91,2.26c-3.45-.46-6.79-1.2-10.37-.78-2.79.33-5.68-.29-8.53-.31-3.62,0-7.21.3-10.43,2.18-1.82,1.06-3.56,2.26-5.36,3.36A13.34,13.34,0,0,0,284,674c-.38.87-1,1.77-.35,2.9l7.31-.92c-2.88,2.78-5.21,4-8.21,4-4.06.06-6.3,3.37-7.54,6.69-1,2.79,1,6.91,3.54,8.3,2.72,1.48,5.39,2.8,8.57,2.69a3.36,3.36,0,0,1,3.21,1.78c-1.38.2-2.43.36-3.48.5-2.37.33-3,1.24-2.38,3.56a6.73,6.73,0,0,0,.54,1.27,14.75,14.75,0,0,0,7,6.83c4.09,1.87,8.15,2,12-.84a16.77,16.77,0,0,1,1.7-1l.43.4c-.58,1.31-1.11,2.65-1.76,3.93-1.44,2.81-.93,4.32,1.89,5.72a5.36,5.36,0,0,0,4.53,0,20,20,0,0,0,9-6.7,35.92,35.92,0,0,1,14.88-11c2.31-1,4.54-2.11,6-4.28,1.88-2.83,4-5.53,5.52-8.56,1.68-3.43,4.5-4.32,7.69-4,2.69.24,4.08-.82,5.35-2.89,2-3.29,4.22-6.47,6.35-9.69.11-.16.39-.19.85-.41-.27,2.1-.51,3.94-.75,5.82,1.51,0,2.7,0,3.89,0a12.29,12.29,0,0,0,9.23-4.12,49.45,49.45,0,0,1,8.77-7.55c5.51-3.81,12-5.15,18.51-5.83,8.21-.84,16.25-2.11,23.53-6.33a6.67,6.67,0,0,1,1.12-.37c.77,2.54,1.34,5.05,2.29,7.4a134.54,134.54,0,0,1,6.27,21.47c2.38,10.61,4.35,21.32,6.74,31.92,2.51,11.14,4.58,22.4,9.45,32.87,2.95,6.35,5.32,13,8.36,19.26A308.25,308.25,0,0,0,479.28,794a62.67,62.67,0,0,1,5.37,11.78A70.19,70.19,0,0,1,487,816.33a20.19,20.19,0,0,1,.24,4.91c-.35,4.87-1.07,9.73-1.24,14.6-.6,18,.06,36,1.2,53.91.37,5.89.73,11.79,1.57,17.62,1.19,8.25,1.65,16.77,6.64,24a2.4,2.4,0,0,1-.11,3c-1.76,2.6-3.33,5.32-5.12,7.89-2.51,3.6-3.49,7.77-4,11.93a77.68,77.68,0,0,0-.37,13c.48,11.86,4.05,22.82,9,33.4a107.68,107.68,0,0,0,18.74,27.89,24.6,24.6,0,0,0,7,5.17,9.06,9.06,0,0,0,8,.3,25.58,25.58,0,0,0,6.17-3.59,8.54,8.54,0,0,0,2.55-3.8c1.77-5.1,2.29-10.23-.67-15.16a5.12,5.12,0,0,1-.35-.75,1.63,1.63,0,0,1,.84-2.31,1.53,1.53,0,0,1,2.13.74c1.37,2.59,3.06,5.07,2.86,8.22-.1,1.66,0,3.33-.19,5-.57,5.49-2.46,10.21-7.78,12.83a15.26,15.26,0,0,0-1.64,1.12,12.32,12.32,0,0,0,1.87.4,45.68,45.68,0,0,1,4.69.12c7.38,1.08,13.07-2.06,18-7.08a3.8,3.8,0,0,0,1-2.18c.32-4,.58-8.08.76-12.12a8.66,8.66,0,0,0-2.42-6.29,7.42,7.42,0,0,1-1.6-2.22,2.11,2.11,0,0,1,.48-1.89,2,2,0,0,1,1.93,0c2.42,2.3,4.79,4.77,4.93,8.34s-.09,7.18-.14,10.78c0,1,0,1.93,0,3.41,1.81-1.93,3.35-3.41,4-5.43a29.46,29.46,0,0,0-.13-17.68,18.62,18.62,0,0,0-1.82-4.6c-2.18-3.41-4.46-6.78-7-10-1.25-1.6-1.61-2.95-.66-4.71a16.66,16.66,0,0,0,1.51-11,177.22,177.22,0,0,1-2.09-25.89c-.36-13.46-.18-26.93-.2-40.39a26.86,26.86,0,0,1,.38-3.57c.86-6.49,1.89-13,2.56-19.47a115.64,115.64,0,0,1,4.91-24c5-15.33,9.61-30.79,14.22-46.25a57.61,57.61,0,0,1,8.22-17.06c4.74-6.72,10.17-12.55,17.45-16.59,5.18,1.13,10.44,2.13,15.61,3.44a79.81,79.81,0,0,0,12.74,2.35c7.76.67,15.46,1.08,23-1.21a6.1,6.1,0,0,1,1.39,0c1.74,2.53,3.66,5.12,5.36,7.85,5.67,9.1,9.94,18.91,14.15,28.74,2.07,4.83,4.26,9.62,6,14.58,3.8,11.07,7.11,22.31,11.1,33.31,1.27,3.52,4.05,6.51,6.19,9.72a2.78,2.78,0,0,0,1.16.73c4.49,2.14,8.92,4.41,13.5,6.34a26.77,26.77,0,0,0,9.91,2.27c12.81.27,25.61,1.26,38.43.46,7.18-.45,14.36-.8,21.52-1.45a19.09,19.09,0,0,0,10.86-4.32c4.31-3.61,4.43-3.59,4.44-9.33a11.23,11.23,0,0,0-8.26-11.12,31.51,31.51,0,0,0-13.08-1.33,8.18,8.18,0,0,1-1.89-.18c0-.2,0-.4,0-.6,1.66-.47,3.32-1.31,5-1.31a49.15,49.15,0,0,1,11.27.78c4.05,1,7.74,3,9.19,7.52.33,1,.86,2,1.57,3.58.75-3.43,1.89-6.16.63-9.13C802.35,860.79,801.73,859.05,801,857.37ZM326.28,696.59c-.91.06-1.82,0-2.93,0,2.29,5.45.21,9.48-3.58,13a7.66,7.66,0,0,1-5,2c-3.28.16-5.52-1.55-5.94-4.81a33.25,33.25,0,0,1,0-4.35c-.94,1-2,2.17-3.11,3.28A9.36,9.36,0,0,1,299,708.5c-3.58,0-6.23-2.46-6-6a16.63,16.63,0,0,1,1.4-4.94,18.27,18.27,0,0,1,2-3c-1.22-.06-2.26-.09-3.29-.17a8.13,8.13,0,0,1-5.28-2.08c-3-2.89-2.77-6.6.66-9.57a11.4,11.4,0,0,1,6.84-2.65c.63,0,1.27,0,2.2,0a39.27,39.27,0,0,1-3.48-3,5.24,5.24,0,0,1,.2-7.46c4.77-5,13.92-2.9,16.59,3.79,1.58-1.72,3.06-3.54,4.75-5.13,2.67-2.52,5-2.48,7.34.29a14.81,14.81,0,0,1,2.66,4.73,24.3,24.3,0,0,1,1,5.4,7.35,7.35,0,0,0,2.12,4.65,9.91,9.91,0,0,1,3.21,7.38C331.73,694.36,329.9,696.37,326.28,696.59Z"/><path d="M805.72,861a14.33,14.33,0,0,1-.43-3.76,16.64,16.64,0,0,0-1.2-6.43,26.55,26.55,0,0,0-7.51-9.78c-2.09-1.84-4.16-4.09-7.24-4.28-4-.24-8.1-.51-12.14-.36a37.76,37.76,0,0,1-8.77-.73c-.81-.16-1.61-.39-2.43-.53-7.55-1.23-14.65-3.42-20.47-8.76a4.34,4.34,0,0,1-1.83-3.16c0-1-.27-2-.25-3a29.1,29.1,0,0,0-3-12.54c-4-9-8-18.05-13.11-26.5a24.28,24.28,0,0,1-1.55-2.94c-6.35-14.62-12.58-29.3-19.07-43.86a90.14,90.14,0,0,0-7.6-14.09c-3.64-5.33-8.9-9-14.78-11.72a239.84,239.84,0,0,0-26.35-10c-10.16-3.29-20.28-6.76-30.47-10-5.62-1.77-11.34-3.24-17-4.72-2.78-.72-4.08-2.64-4.85-5.13a8.16,8.16,0,0,1-.35-1.9c-.27-5.52-2.22-10.6-4-15.73-2.35-6.68-5.24-13.22-6-20.36-.1-.89-.39-2,0-2.66,2.46-3.63,4.75-7.51,10.1-7.36,8.75.25,17.51.24,26.26.52,8.28.27,16.56.73,24.83,1.21a16.81,16.81,0,0,1,5.39,1c3.74,1.55,7.37,3.36,11,5.19a7.49,7.49,0,0,0,4.49,1c2.45-.35,4.91-.69,7.31-1.27s4.6-.36,6.19,1.76a3.84,3.84,0,0,0,3.33,1.6,15.87,15.87,0,0,0,3.85-.16c2.88-.78,5,.33,6.92,2.28.51.53,1.1,1,1.61,1.51a20.18,20.18,0,0,0,13,6c3.9.42,7.85,1.19,11.33,3.29,2,1.18,3.91,2.39,5.9,3.53,4.24,2.43,8.55,2.66,12.87.24,3.09-1.74,4-3.7,3.54-7.23a1.33,1.33,0,0,1,.15-.57,27.58,27.58,0,0,0,4.66-1.79,18.85,18.85,0,0,0,6.91-7.37c1.14-2.13,1.91-4.39,1-6.89a2.86,2.86,0,0,1,.74-3.06c.69-.74,1.36-1.5,2-2.25a9.35,9.35,0,0,0,1-11.25c-1.82-2.86-4.41-4.91-7-6.94-1.15-.88-2.19-1.9-3.29-2.85-1.8-1.56-3.37-3.62-5.44-4.57-7.07-3.25-14.37-4.43-22-1.45a58.48,58.48,0,0,1-7.69,2.08c-1.5.37-3.09.43-4.58.86a14.38,14.38,0,0,1-9.21-.14,25.41,25.41,0,0,0-4.81-1.18A35.9,35.9,0,0,1,695.28,601c-4-2-8.09-3.89-12-6.07-11.11-6.18-22.16-12.49-33.24-18.73-5.63-3.16-11.28-6.27-16.92-9.41a2.68,2.68,0,0,1-1.67-2c-.55-3.06.3-6.26-.9-9.26a1.09,1.09,0,0,1,.15-.79c1.23-2.09.76-4.27.4-6.46-.29-1.8-.71-3.57.49-5.31a3.75,3.75,0,0,0,.11-2.39c-.36-2.37-.81-4.72-1.24-7.08-.24-1.36-.52-2.62.88-3.73.59-.46.72-1.66.81-2.55.23-2.2.27-4.42.48-6.62.06-.68.2-1.66.66-2,2.32-1.53,2-3.47,1.18-5.61-.88-2.41-1.66-4.84-2.46-7.19,2.85-2.2,3-2.71,2-6l-1.88-6.25,1.14-.15c3.33-.54,4.29-2.82,2.27-5.49-.73-1-1.61-1.79-2.3-2.77a2.33,2.33,0,0,1-.54-1.69c.56-1.79-.28-3-1.34-4.24-2.24-2.58-4.44-5.19-6.68-7.75a2.29,2.29,0,0,1-.77-2.46,2.91,2.91,0,0,0-1.13-3.18c-.54-.49-1.13-.93-1.68-1.38a2.22,2.22,0,0,1,.28-.56c2.93-3.13,2.52-5.09-1.47-6.75-2.9-1.21-5.79-2.41-8.7-3.58a3.79,3.79,0,0,1-2.76-2.69c-.5-1.88-2.5-2.48-4.29-1.63a12.2,12.2,0,0,0-1.83,1.23l-5.25,3.66c-6-9.94-10.8-20.26-18.3-28.88a18.79,18.79,0,0,1-1.61-2.25c-3.54-5.43-7.92-10.18-12.31-14.91a17.23,17.23,0,0,0-2.69-2.36c-4.64-3.22-9.51-6.06-15-7.5a75.34,75.34,0,0,0-12.41-2.63,55.74,55.74,0,0,0-16.22,1c-5.87,1.22-11.82,2.25-17.35,4.56a75.25,75.25,0,0,0-25.07,16.37c-3.5,3.54-7.23,6.87-10.57,10.55a13.06,13.06,0,0,1-8,4.44c-2.12.32-3.95,1.05-4.38,3.24-4.73.76-8.12,3.62-11.79,5.85-1.2.73-1.21,2.24-.69,3.53A11,11,0,0,0,442,447c-.55.35-1,.66-1.47.91-3.57,1.93-7.18,3.78-10.7,5.79-2.71,1.55-2.79,4.08-.31,6,.92.71,1.88,1.35,3,2.17-.84.58-1.34.95-1.87,1.28-1.41.89-2.86,1.7-4.23,2.64-2.19,1.5-2.38,3.29-.62,5.32a2.49,2.49,0,0,0,.88.46c-1.52,3.47-6,5.32-3.81,9.67-2.34,3.14-4.5,6.25-6.88,9.18-1.56,1.91-2.44,3.92-2,6.35a7.62,7.62,0,0,1-2.36,7.23,25.8,25.8,0,0,0-1.88,2.4c-1.48,1.89-3,3.74-4.43,5.66-1.73,2.35-1.37,3.88,1.11,5.42a5.68,5.68,0,0,1,.69.62c-1.74,4.49-4.35,8.83-2.77,14.28l5.57.45c-1.25,2.37-2.27,4.62-3.57,6.71a14.79,14.79,0,0,0-2.29,9.19c.14,2.1.37,4,2.11,5.37-.82,2.3-1.68,4.44-2.35,6.64-.62,2,.16,3.38,2.15,4.1a12.64,12.64,0,0,0,1.59.36c-3.61,4.39-3.36,5.68,1.33,7.65-1,1.56-1.87,3.17-3,4.63a41.19,41.19,0,0,0-6.3,12.82,18.88,18.88,0,0,1-7.24,10.13A144,144,0,0,0,368,622.82c-2.07,2.35-4.26,4.59-6.43,6.86-4.71,4.92-9.31,10-14.21,14.69a38,38,0,0,1-9.89,6.93c-2.65,1.27-5.12,2.89-7.71,4.27-1.53.82-3.08,1.9-4.72,2.15-4.44.67-8.92,1-13.4,1.34-2.28.16-4.6-.12-6.9-.12a25.1,25.1,0,0,0-13.66,3.71c-4.77,3-9.15,6.19-10.91,11.92a9.7,9.7,0,0,1-1.86,2.69c-2.93,3.82-5.72,7.64-5.51,12.88.14,3.64,1.4,6.4,4.61,8.2.88.49,1.72,1.07,2.6,1.57a3.2,3.2,0,0,1,1.85,3.15,7.42,7.42,0,0,0,1.82,5.08c2.72,3.74,6.54,5.88,10.84,7.22a8.52,8.52,0,0,0,3.48.3c2-.24,2.09-.36,2.29,1.81a4.63,4.63,0,0,0,2.22,3.57c5.93,4.2,13.31,1.39,16.63-2.2,1.74-1.88,3.47-3.77,5.21-5.67,3.06-3.34,7-5.36,11.08-7.1,4.76-2,8.56-5,11-9.55.7-1.29,1.51-2.53,2.27-3.79a5.81,5.81,0,0,1,4.8-3.22,24.11,24.11,0,0,0,4.82-1.14,4.61,4.61,0,0,0,3.32-3,5.09,5.09,0,0,1,5-3.34c1.92-.09,3.85-.19,5.77-.38,2.21-.22,4.45-.61,6.19-2.08q4.74-4,9.25-8.3a29,29,0,0,1,12.27-6.55c2.89-.84,6-.91,9-1.37,2.72-.42,5.48-.73,8.16-1.37,3.89-.93,7.73-2.12,11.69-3.23.4,1.14.79,2.47,1.33,3.73,3,7.16,4.83,14.7,6.5,22.26,2.7,12.14,5.07,24.36,7.82,36.49,1.73,7.62,3,15.38,6.24,22.61,2.21,5,4,10.12,6.17,15.1a6.08,6.08,0,0,1-.45,6.24c-2.82,4.31-5.58,8.65-8.36,13-1.76,2.73-1.69,3.28.95,5.53a59,59,0,0,1-2.84,5.76,47.31,47.31,0,0,0-4.37,8.89c-.71,1.92-.21,2.74,1.79,3.06l1.92.3c-.76,3.36-1.44,6.5-2.21,9.61a4.52,4.52,0,0,1-1.09,2.17c-2.51,2.27-3.1,5.34-3.78,8.4a1.62,1.62,0,0,0,1.44,2.2c.49.1,1,.16,1.41.23-.78,2.75-1.45,5.34-2.26,7.87-.92,2.89-1.81,5.81-3,8.59a29.71,29.71,0,0,0-2.87,12.51,45.77,45.77,0,0,1-.88,6.83,6.49,6.49,0,0,0-.21,1.62,1.66,1.66,0,0,0,2.42,1.44c2.45-1.43,5-2.74,6.81-5.07,1.28-1.65,2.63-3.24,4.13-5.09a8,8,0,0,0,.75,1.08c1.34,1.32,2.47,1.14,3.13-.55a11.66,11.66,0,0,0,.56-2.42c.8-5.14,2.25-10,5.36-14.31,2.77.43,3.68.07,4.54-2.59a72.08,72.08,0,0,0,1.81-7.75c.49-2.33.71-4.74,1.37-7a11.81,11.81,0,0,1,2.26-4.65,12.51,12.51,0,0,0,3.43-9,17.71,17.71,0,0,1,1.27-7.56c1-2.19,2-4.35,3-6.52.11-.24.26-.47.66-1.19,1.71,2.9,3.19,5.29,4.55,7.76,2.89,5.22,4.32,10.92,5.55,16.71a25.27,25.27,0,0,1,.36,8c-.49,4.67-1,9.36-1.15,14-.61,15.5,0,31,.85,46.45.57,10.86,1.19,21.71,3.18,32.45,1,5.19,1.77,10.36,4.74,14.86,1,1.46.72,2.63-.24,4-1.59,2.26-3.05,4.62-4.5,7a16.7,16.7,0,0,0-1.56,3.21,45.21,45.21,0,0,0-2.8,16,93.33,93.33,0,0,0,.73,12.41,119.79,119.79,0,0,0,3.27,15.1,72.57,72.57,0,0,0,4.6,11.55,157.84,157.84,0,0,0,8.49,15.81,134.28,134.28,0,0,0,12.48,15.84c3.49,4,8.13,5.42,12.85,6.31,2.56.48,5.23.56,7.77,1.35a6.87,6.87,0,0,0,1.89.36c3.94.05,7.82.47,11.82-.14a19.69,19.69,0,0,0,11.78-6,10.55,10.55,0,0,1,2.75-1.62c.56-.3,1.36-.35,1.71-.79,2.05-2.57,4.65-5,5.85-7.9,2.43-5.95,2-12.28.47-18.47a21.12,21.12,0,0,0-2-5.71,112.24,112.24,0,0,0-6.61-9.86c-1.11-1.48-1.62-2.67-.7-4.43A16.47,16.47,0,0,0,561,974.16c-1.71-10-2-20.19-2.32-30.32-.33-11.51-.09-23.05-.08-34.58a24.45,24.45,0,0,1,.26-3.3q1.5-11.65,3-23.31c.55-4.1.69-8.34,1.84-12.27,4.53-15.58,9.34-31.07,14.14-46.57,2.85-9.22,5.25-18.67,11.69-26.31l.15-.23c3.67-4.77,7.56-9.29,12.84-12.39a3.2,3.2,0,0,1,2.56-.56c5.21,1.22,10.46,2.21,15.65,3.5A87.26,87.26,0,0,0,646.78,790a66.12,66.12,0,0,0,7.84-1.41c1.28,1.86,2.68,3.68,3.87,5.63a183.68,183.68,0,0,1,12.32,24.42c2.53,6,5.43,11.92,7.59,18.08,4,11.31,7.45,22.78,11.26,34.13,1.43,4.26,4.52,7.56,7.18,11.07a3.74,3.74,0,0,0,1.37.91c4.57,2.19,9.07,4.55,13.75,6.47a28.82,28.82,0,0,0,9.29,2.49c12.52.53,25,1.31,37.6.77,8.66-.37,17.31-.53,25.93-1.69,7.49-1,12.81-5.12,16.94-11.15,0-2.8,2.07-4.64,3.27-6.9C807,869,806.84,865,805.72,861ZM612.29,618.33a24.84,24.84,0,0,0,2.23,2.63c.56.51,1.44,1.14,2,1s1.17-1.1,1.32-1.8c.58-2.6,1-5.25,1.46-7.87.13-.72.33-1.41.57-2.39.83.51,1.46,1,2.15,1.31,1.45.71,2.54.12,2.74-1.51a12.56,12.56,0,0,0,0-1.94q-.13-5.1-.26-10.22c0-1,0-2,0-2.93,3.89-.77,3.92-.77,3.66-4.77-.22-3.48-.52-7-.79-10.52,2.48-1,2.81-3.07,2.93-5.26.09-1.53.33-3.06.52-4.79.89.42,1.48.66,2,1,7.36,4,14.73,8,22,12.12,8.83,5,17.58,10.07,26.43,15a109.4,109.4,0,0,0,12.21,6.21c4.41,1.79,9.09,2.89,13.62,4.38a20.45,20.45,0,0,1,5.07,2.1,6,6,0,0,0,6.51.3c6.19-3.16,12.88-4.77,19.53-6.47a12.43,12.43,0,0,1,7.86.54c1.78.71,3.71,1,5.53,1.68,2.75.94,4.53,3,6.27,5.8l-6.62,1.1c2.4,1.58,4.95,2.39,7.7,1.55,3.58-1.1,5.8,1,7.92,3.22a5.88,5.88,0,0,1,.78,7,13,13,0,0,1-7.33,6.37,29.86,29.86,0,0,0-3.35,1.79c1.4,1.4,2.58.5,3.7.4,2-.17,2.52.12,2.66,2.12a10.57,10.57,0,0,1-1.95,6.51c-2.15,3.28-5,5.71-9.12,5.95a17.71,17.71,0,0,1-3.75-.4,5.81,5.81,0,0,0-2.59-.17,24,24,0,0,0,2.45,2.85c1.31,1.14,2.22,2.41,1.37,4.06s-2.26,3.17-4.31,2.93a30.47,30.47,0,0,1-7.2-1.64,27.65,27.65,0,0,1-5.48-3.17,30.11,30.11,0,0,0-13.46-4.49,16.56,16.56,0,0,1-9.87-4.42,59.69,59.69,0,0,1-4.65-4.33c-2.25-2.6-5-2.19-7.59-1.23a4.64,4.64,0,0,1-5.25-1c-2.83-2.48-5.77-4.84-8.66-7.25l-.46.22c.69,1.47,1.37,2.93,2.19,4.7-4,1.05-7.78,2.84-12,.22a68.4,68.4,0,0,0-10-4.63,13.54,13.54,0,0,0-7.29-1,9.21,9.21,0,0,1-1.66,0c-9-.43-18-1-27-1.27-6.81-.24-13.64-.21-20.45-.31-.44,0-.87,0-1.63-.1ZM468.51,429.4c4.48-4.38,8.84-8.9,13.53-13.06a68.76,68.76,0,0,1,12.25-8.46c9-5,18.8-7.58,28.89-8.9a52.71,52.71,0,0,1,24.24,2.55,57.29,57.29,0,0,1,12.94,6.75,11.85,11.85,0,0,1,2.09,1.79,115.35,115.35,0,0,1,12,14.44,16.34,16.34,0,0,0,1,1.34c7,8.32,12.1,17.81,17.47,27.15.41.72.73,1.49,1.14,2.21a4.11,4.11,0,0,1,.2,4c-.49,1.09-.73,2.29-1.21,3.38-1.6,3.64-2.38,7.29-.93,11.22.58,1.59,0,3.19-.88,5-.72-3.87-2.72-6.76-4.51-9.75s-4.94-3.59-8.14-3.64a2,2,0,0,0-1.48,1.28c-.17,1.05-.11,2.31,1.2,2.79,1,.37,2.13.58,3.2.86a6.24,6.24,0,0,1,4.26,3.24c1.47,3,2.92,5.94,4.25,9a3.14,3.14,0,0,1-.15,2.1c-1.25,3.56-2.49,7.14-4,10.62a12.88,12.88,0,0,1-2.55,3.21c-2,2.21-2,2.55.5,4.56l-6.08,13.47-3.37-2.72c.55-3.62,1.3-6.87,1.47-10.15.22-4.6,0-9.23-2.62-13.3-1.93-2.94-6.94-4.42-10.14-3a6.62,6.62,0,0,0-3.33,3.89c-1.64,4.21-3.36,8.4-3.62,13a.89.89,0,0,1-.18.44c-3.94,0-7.71-.2-11.45,0s-7.41.93-11.08,1.42c.35-4.74.38-9.44,1.11-14,1-6.33-4.64-11.09-9.43-11.38a34.52,34.52,0,0,0-11.77,1.14c-4.83,1.41-7.69,5-9.45,9.42a20.51,20.51,0,0,0,.44,16.41,9,9,0,0,0,4.51,4.3c1.39.69,2.81,1.32,4.52,2.12l-6.24,4.5c-2.34-5.91-5.28-11.34-6.65-17.4-.89-3.95-2.05-7.85-2.86-11.82a11.6,11.6,0,0,0-3.5-6.41c-.59-.55-1.09-1.21-1.63-1.82l.25-.44c.52.1,1.05.18,1.56.32.93.25,1.88.46,2.53-.45s0-1.9-.57-2.73a16.32,16.32,0,0,0-1-1.32,1.87,1.87,0,0,1-.17-2.53,73.28,73.28,0,0,1,5.15-7.15c3.13-3.48,7.45-4.14,11.88-4.21,1.33,0,2.78.35,4-1.29a10.37,10.37,0,0,0-6.3-3.43c-7.59-.95-13.22,2.11-17.2,8.49-.67,1.08-1.33,2.17-2,3.26a1.65,1.65,0,0,1-1.21-2,5.76,5.76,0,0,1,.26-1.07c1.1-3.31,1.23-6.44-1.29-9.31a3.73,3.73,0,0,1-.4-2.56,38.71,38.71,0,0,1,.89-4.9,3.2,3.2,0,0,0-1.23-3.67c-4-2.87-6.52-6.92-8.56-11.31a7.93,7.93,0,0,0-.67-1.21c-.86-1.25-1.71-1.67-2.72-.69-2.09,2-4,1.23-6,.15-.95-.51-1.95-.94-3.15-1.51C467.31,430.72,467.87,430,468.51,429.4ZM503,715.6c-.69-12.1.58-24.14,1-36.2.55-15,1.5-30,1.37-45.07,0-5.49-1.09-10.79-2-16.15-.13-.8-.28-1.6-.47-2.69,2.55.48,3-1.12,3.59-2.92a13.73,13.73,0,0,0-.34-10,47.55,47.55,0,0,1-1.39-4.62c2.08.47,3.74.88,5.41,1.22,2.81.57,3.58-.22,2.95-3-.39-1.7-.8-3.4-1.3-5.55,1.52.15,2.76.23,4,.39,2.11.26,4.2.64,6.31.83,2.33.21,3.07-.91,2-3-1.35-2.62-2.83-5.17-4.24-7.76-.42-.78-.77-1.59-1.28-2.65,3.62,2.28,7,4.28,10.23,6.49,2.18,1.5,4,3.49,6.26,4.91,6.17,3.95,12.3,1.9,16.46-3.1,1.16-1.4,2.46-2.69,3.75-4,2.4-2.39,4.84-4.74,7.41-7.25a4.53,4.53,0,0,1-.63,3c-.89,2.23-.25,3.93,2.24,4.25a7.53,7.53,0,0,1,1.51.53c0,2.11,0,4.12,0,6.13,0,2.54,0,2.77,2.47,3.5,1.58.48,1.56,1.52,1.4,2.81-.48,3.74-.9,7.5-1.34,11.25a7.54,7.54,0,0,0-.06.82c-.1,3,.44,3.4,3.34,2.33a4.57,4.57,0,0,1,.87,0c1.25,3,2.57,6.09,3.86,9.21.42,1,.74,2.09,1.13,3.12,1,2.57,1.2,2.67,4.07,1.79-.23,2.34-.39,4.58-.68,6.81a58.35,58.35,0,0,0,1.29,20.57c.44,2,1,3.93,1.46,5.91a77.45,77.45,0,0,0,9.86,23.91,44.68,44.68,0,0,1,6.33,21.2,24.19,24.19,0,0,1-.38,4.39,221.92,221.92,0,0,1-5.31,26.55,31.29,31.29,0,0,1-1.36,4.21,102.79,102.79,0,0,0-5,17.81,138.5,138.5,0,0,1-10.21,31.47,22,22,0,0,1-12.19,11.42,24,24,0,0,1-12.81,1.23c-7.5-1.27-14.36-4-20.06-9.21-3.18-2.94-6.43-5.81-9.69-8.65a39.34,39.34,0,0,1-8-10.16c-2.35-4.06-5.17-7.85-7.64-11.85a12.8,12.8,0,0,1-1.86-4.51c-1.17-7.27-2.5-14.55-3.1-21.88-.4-4.92.32-9.92.56-14.89C502.87,717.62,503.07,716.6,503,715.6ZM501.85,599c.54,1.93,1.12,3.85,1.8,5.73C503,602.85,502.39,600.93,501.85,599Zm7.16-3.21c-1.45-.35-2.7-.67-3.9-.94C506.31,595.12,507.56,595.44,509,595.79ZM506.3,536a6.41,6.41,0,0,1,1.59,2.24A6.41,6.41,0,0,0,506.3,536Zm3.95,51.42c.25,0,.53,0,.84,0C510.78,587.39,510.5,587.38,510.25,587.38Zm6.49-15.19-3.12-5.76Zm-.63-7.85,7.93,2.25c.55,4.14,1.09,8.28,1.71,13-1.51-1.11-2.69-1.95-3.84-2.82-.28-.22-.68-.54-.68-.82-.11-4-3.1-6.74-4.51-10.16Zm11.25,2.57a42.06,42.06,0,0,0,6.33-1,36.22,36.22,0,0,0,5.41-2.74c1.36,4.23.5,8.54,1.15,12.86a5.59,5.59,0,0,0,.55-1.33c.56-3.83,1.17-7.65,1.56-11.49a2.35,2.35,0,0,1,1.79-2.38,10.5,10.5,0,0,1,7.81.37,3,3,0,0,1,2.07,3c0,6.41-.78,12.71-3.53,18.59a10.85,10.85,0,0,1-6.44,5.74c-2.36.85-4.55.24-6.67-.77-6-2.86-8.62-8-9.49-14.29C527.61,571.32,527.54,569.2,527.36,566.91Zm28.31,11.35c.4-3,.6-5.34,1.07-7.66s1.23-4.71,2-7.61l4.15,5.63A31.86,31.86,0,0,1,555.67,578.26Zm25-21.16a28.28,28.28,0,0,1-12.45,9.35c-2,.77-2.49.75-3.78-.91a47.55,47.55,0,0,1-3.22-4.82,5.21,5.21,0,0,0-2.64-2.25,15.1,15.1,0,0,1-4.23-2.45,3.69,3.69,0,0,0-4-1c-2.76,1-5.57,1.89-8.21,3.13s-5.16,3.35-8,4.26a21.71,21.71,0,0,1-8.93,1c-3.13-.34-6.13-1.84-9.2-2.79a2.93,2.93,0,0,1-2.16-2.58c-.46-3.28-.84-6.57-1.27-9.85s-.79-6.59-1.37-9.85a9.49,9.49,0,0,0-1.53-3.15,31.61,31.61,0,0,0-2.26-2.78c.72-.13,1.13-.16,1.52-.28,1.67-.49,2.12-1.17,1.62-2.84-.73-2.46-1.59-4.89-2.44-7.44,12-10.2,26.08-14,41.61-13.92-.79.37-1.58.77-2.38,1.12-5.58,2.38-8.28,6.77-8.77,12.65-.11,1.29,0,2.58-.09,3.87a7.83,7.83,0,0,0,3.52,6.85,39.4,39.4,0,0,0,6.37,3.17c.91.43,1.93.64,2.81,1.11a18.4,18.4,0,0,0,15.24.94c5.34-1.88,8.9-8.67,7.84-14.43-.38-2-.9-4.08-1.36-6.12a5.77,5.77,0,0,1,3.55,2.86c1.28,2,2.51,4.08,3.74,6.14a5.88,5.88,0,0,1,.63,1.22c1.28,3.94,2.73,7.83,3.75,11.82A20.19,20.19,0,0,1,580.66,557.1Zm-70.78-68.78c-3.79,2.66-5.8,9.92-4.21,14.25a6.9,6.9,0,0,1,.39,1c1,5.27,4.84,7.25,9.56,8.19a7,7,0,0,1,.87.33,1.86,1.86,0,0,1-2.61.82c-1.75-.81-3.58-1.49-5.26-2.43a7.62,7.62,0,0,1-3.64-4.34c-2.57-7.72-1.67-14.75,4.29-20.62a11.31,11.31,0,0,1,4.48-2.56,28.24,28.24,0,0,1,11.2-1.12,9.47,9.47,0,0,1,8,5.57,6.31,6.31,0,0,1,.36,4.1c-1.33-1.1-2.49-2-3.54-2.95C524,483.14,515.57,484.35,509.88,488.32Zm13.65,11a3.78,3.78,0,1,1-3.58-3.76A3.78,3.78,0,0,1,523.53,499.3Zm47.7,12.34c2.27-4.92.6-9.56-.81-14.2a8.9,8.9,0,0,0-.8-1.75c-2-3.62-3.91-4.74-8.29-4.69a4.26,4.26,0,0,1,3.85-3,7.71,7.71,0,0,1,8.37,5.28c1.89,6.3,1.6,12.65-.4,19.36Zm-6.56-8.54a3.69,3.69,0,0,1-3.56,3.77c-1.87.08-3.31-.95-3.27-2.41,0-2.47,1.18-5.13,3.17-5A3.74,3.74,0,0,1,564.67,503.1ZM488.1,618.84h0l-1-.73ZM485.35,452a2.17,2.17,0,0,1,.14-.68A2.17,2.17,0,0,0,485.35,452Zm-3.87,161.72a3.2,3.2,0,0,0-1.58-.68A3.2,3.2,0,0,1,481.48,613.71Zm-8.29,7.07-.51.63h0Zm-.84-.14a8.46,8.46,0,0,1-.41-1.06A8.46,8.46,0,0,0,472.35,620.64Zm-1.11-183.48c-.55-.22-1.1-.49-1.65-.77C470.14,436.67,470.69,436.94,471.24,437.16ZM469.3,614.78a1.28,1.28,0,0,0-1,.39A1.28,1.28,0,0,1,469.3,614.78Zm-5,6.47h0c-.13-.26-.24-.5-.36-.75C464.09,620.75,464.2,621,464.33,621.25Zm-4-8.27c-.46-.76-.87-1.11-1.42-1.08C459.45,611.87,459.86,612.22,460.32,613Zm-8.61,3.88h0c-.38-.81-.77-1.57-1.13-2.32C450.94,615.29,451.33,616.05,451.71,616.86Zm-4.25-170.37-2.75-1.77ZM427,598.44a4.62,4.62,0,0,1-.47-.91A4.62,4.62,0,0,0,427,598.44Zm-3.65-8.13A14.59,14.59,0,0,0,422,591,14.59,14.59,0,0,1,423.33,590.31Zm-2.73,1.58h0a7.18,7.18,0,0,1-.63-.78A7.18,7.18,0,0,0,420.6,591.89Zm-2.71-98.67a9.11,9.11,0,0,0-.66,6.44A9.11,9.11,0,0,1,417.89,493.22ZM415,529.51c-.21.47-.39.9-.56,1.29C414.64,530.41,414.82,530,415,529.51Zm-6.35,39.79,3.42.23Zm57.47,230.81a19.28,19.28,0,0,0-.47,5.75A8.19,8.19,0,0,1,464,811a27.29,27.29,0,0,0-5.31,15.41,45.17,45.17,0,0,1-.88,5.09c-2.69-.59-2.79-.65-4,1.43-2.46,4.3-5.17,8.5-6.11,13.5a6.38,6.38,0,0,0-2.31.63c-.58.45-.79,1.36-1.2,2.05a12.94,12.94,0,0,1-1.49,2.32c-2.09,2.24-3.55,5.08-6.22,6.93a33,33,0,0,1,.66-11.43c1.89-6,4.79-11.74,6-18a27.12,27.12,0,0,1,1.72-4.35,10.12,10.12,0,0,0,.62-1.83c.42-2-.21-2.68-2.26-2.52-.26,0-.52.06-1,.13a5.8,5.8,0,0,1,1.89-4.14,10.21,10.21,0,0,0,2.68-5.89c.59-3.23,1.64-6.39,2.49-9.58a7.87,7.87,0,0,0,.34-1.33c.17-1.82-1-2.67-2.77-2.07a2.27,2.27,0,0,1-1.33.22c.55-1.21,1.06-2.44,1.67-3.62,1.41-2.68,3-5.25,4.24-8a5.79,5.79,0,0,0-.6-6.26l9-13.72,11.9,22A56.37,56.37,0,0,0,466.15,800.11Zm336.29,71.5c-.71-1.6-1.24-2.56-1.57-3.58-1.45-4.49-5.14-6.57-9.19-7.52a49.15,49.15,0,0,0-11.27-.78c-1.66,0-3.32.84-5,1.31,0,.2,0,.4,0,.6a8.18,8.18,0,0,0,1.89.18,31.51,31.51,0,0,1,13.08,1.33,11.23,11.23,0,0,1,8.26,11.12c0,5.74-.13,5.72-4.44,9.33a19.09,19.09,0,0,1-10.86,4.32c-7.16.65-14.34,1-21.52,1.45-12.82.8-25.62-.19-38.43-.46a26.77,26.77,0,0,1-9.91-2.27c-4.58-1.93-9-4.2-13.5-6.34a2.78,2.78,0,0,1-1.16-.73c-2.14-3.21-4.92-6.2-6.19-9.72-4-11-7.3-22.24-11.1-33.31-1.7-5-3.89-9.75-6-14.58-4.21-9.83-8.48-19.64-14.15-28.74-1.7-2.73-3.62-5.32-5.36-7.85a6.1,6.1,0,0,0-1.39,0c-7.58,2.29-15.28,1.88-23,1.21a79.81,79.81,0,0,1-12.74-2.35c-5.17-1.31-10.43-2.31-15.61-3.44-7.28,4-12.71,9.87-17.45,16.59a57.61,57.61,0,0,0-8.22,17.06c-4.61,15.46-9.21,30.92-14.22,46.25a115.64,115.64,0,0,0-4.91,24c-.67,6.51-1.7,13-2.56,19.47a26.86,26.86,0,0,0-.38,3.57c0,13.46-.16,26.93.2,40.39A177.22,177.22,0,0,0,557.86,974a16.66,16.66,0,0,1-1.51,11c-1,1.76-.59,3.11.66,4.71,2.49,3.18,4.77,6.55,7,10a18.62,18.62,0,0,1,1.82,4.6,29.46,29.46,0,0,1,.13,17.68c-.64,2-2.18,3.5-4,5.43,0-1.48,0-2.45,0-3.41.05-3.6.27-7.19.14-10.78s-2.51-6-4.93-8.34a2,2,0,0,0-1.93,0,2.11,2.11,0,0,0-.48,1.89,7.42,7.42,0,0,0,1.6,2.22,8.66,8.66,0,0,1,2.42,6.29c-.18,4-.44,8.09-.76,12.12a3.8,3.8,0,0,1-1,2.18c-4.94,5-10.63,8.16-18,7.08a45.68,45.68,0,0,0-4.69-.12,12.32,12.32,0,0,1-1.87-.4,15.26,15.26,0,0,1,1.64-1.12c5.32-2.62,7.21-7.34,7.78-12.83.17-1.64.09-3.31.19-5,.2-3.15-1.49-5.63-2.86-8.22a1.53,1.53,0,0,0-2.13-.74,1.63,1.63,0,0,0-.84,2.31,5.12,5.12,0,0,0,.35.75c3,4.93,2.44,10.06.67,15.16a8.54,8.54,0,0,1-2.55,3.8,25.58,25.58,0,0,1-6.17,3.59,9.06,9.06,0,0,1-8-.3,24.6,24.6,0,0,1-7-5.17,107.68,107.68,0,0,1-18.74-27.89c-4.93-10.58-8.5-21.54-9-33.4a77.68,77.68,0,0,1,.37-13c.53-4.16,1.51-8.33,4-11.93,1.79-2.57,3.36-5.29,5.12-7.89a2.4,2.4,0,0,0,.11-3c-5-7.22-5.45-15.74-6.64-24-.84-5.83-1.2-11.73-1.57-17.62-1.14-18-1.8-35.92-1.2-53.91.17-4.87.89-9.73,1.24-14.6a20.19,20.19,0,0,0-.24-4.91,70.19,70.19,0,0,0-2.38-10.51A62.67,62.67,0,0,0,479.28,794,308.25,308.25,0,0,1,464,766.82c-3-6.29-5.41-12.91-8.36-19.26-4.87-10.47-6.94-21.73-9.45-32.87-2.39-10.6-4.36-21.31-6.74-31.92a134.54,134.54,0,0,0-6.27-21.47c-.95-2.35-1.52-4.86-2.29-7.4a6.67,6.67,0,0,0-1.12.37c-7.28,4.22-15.32,5.49-23.53,6.33-6.54.68-13,2-18.51,5.83a49.45,49.45,0,0,0-8.77,7.55,12.29,12.29,0,0,1-9.23,4.12c-1.19,0-2.38,0-3.89,0,.24-1.88.48-3.72.75-5.82-.46.22-.74.25-.85.41-2.13,3.22-4.32,6.4-6.35,9.69-1.27,2.07-2.66,3.13-5.35,2.89-3.19-.28-6,.61-7.69,4-1.49,3-3.64,5.73-5.52,8.56-1.45,2.17-3.68,3.32-6,4.28a35.92,35.92,0,0,0-14.88,11,20,20,0,0,1-9,6.7,5.36,5.36,0,0,1-4.53,0c-2.82-1.4-3.33-2.91-1.89-5.72.65-1.28,1.18-2.62,1.76-3.93l-.43-.4a16.77,16.77,0,0,0-1.7,1c-3.82,2.85-7.88,2.71-12,.84a14.75,14.75,0,0,1-7-6.83,6.73,6.73,0,0,1-.54-1.27c-.61-2.32,0-3.23,2.38-3.56,1.05-.14,2.1-.3,3.48-.5a3.36,3.36,0,0,0-3.21-1.78c-3.18.11-5.85-1.21-8.57-2.69-2.52-1.39-4.58-5.51-3.54-8.3,1.24-3.32,3.48-6.63,7.54-6.69,3,0,5.33-1.24,8.21-4l-7.31.92c-.66-1.13,0-2,.35-2.9a13.34,13.34,0,0,1,5.32-6.18c1.8-1.1,3.54-2.3,5.36-3.36,3.22-1.88,6.81-2.21,10.43-2.18,2.85,0,5.74.64,8.53.31,3.58-.42,6.92.32,10.37.78a6.87,6.87,0,0,0,5.91-2.26c2.41-2.34,5.39-4.11,8.16-6.07,3.68-2.6,7.57-4.92,11-7.78,2.52-2.08,4.39-4.94,6.74-7.26,9.83-9.73,18.5-20.59,29-29.68,3.41-3,7-5.71,10.64-8.39,3.19-2.34,5-5.58,6.5-9.06.62-1.44,1.05-2.95,1.57-4.43a41.4,41.4,0,0,1,7.21-12.17,3.53,3.53,0,0,1,.21,1.09c-.51,2.73.57,4.63,2.91,6a3.75,3.75,0,0,1,1.92,3.42,14,14,0,0,0,2.15,7.05c1.26,2,1.49,2.14,3.75,1.1l1.31-.6c.35,3.19.74,6,3.69,8.16s5.83.86,8.95,1.15c1.14,1.9,2.43,3.8,3.46,5.84s2.39,3,4.59,2.78,3.2.75,3.8,2.71a25.43,25.43,0,0,0,1.78,4c.91,1.81,1.84,2.07,3.52.89s3.5-2.66,5.54-4.21c1.2,2.62,2.27,5.05,3.42,7.43.53,1.11.69,2.69,2.3,2.82s2-1.38,2.69-2.42,1.15-1.86,1.83-3c1.09,1.3,1,2.77,1.48,4,.34.78.88,1.89,1.5,2s1.68-.6,2.18-1.24c2.14-2.76,4.15-5.63,6.42-8.75l4.39,3.41a32.88,32.88,0,0,0,3.09,2.33,4.1,4.1,0,0,0,2.47.74c1.13-.19,1-1.39,1-2.3.12-2.58.22-5.16.33-7.74,0-.63.1-1.27.18-2.28,2.26.88,4.41,1.62,6.45,2.58a2.75,2.75,0,0,1,1.09,1.77c1.52,7.12,2.85,14.23,2.81,21.6-.11,22.05-1.53,44.05-2.57,66.06a43.38,43.38,0,0,0-.05,5c.46,7.12-.23,14.19-.78,21.27a15.91,15.91,0,0,0,0,2.76,220.8,220.8,0,0,0,3.65,25.72,11.24,11.24,0,0,0,1.53,3.5c3.57,5.7,7.22,11.35,10.85,17a10.94,10.94,0,0,0,1.26,1.8c6.18,6.36,12.58,12.45,19.91,17.5a35.9,35.9,0,0,0,8.73,4.06,34.73,34.73,0,0,0,21.47.8,25.88,25.88,0,0,0,4.41-2.26c5.37-2.74,8.51-7.32,11-12.63,5.3-11.18,8.2-23.06,10.82-35a88,88,0,0,1,2.92-10.36,177.31,177.31,0,0,0,7.06-29.25c.87-5.11,1.65-10.2.65-15.38s-2.15-10.08-4.7-14.65c-1.75-3.14-3.58-6.24-5.23-9.42-4-7.6-6-15.85-7.77-24.14a49.66,49.66,0,0,1-.37-20.24l4,.66c0,.84-.07,1.85,0,2.85.15,1.8,1.48,2.42,2.85,1.23,1.67-1.45,3.2-3.06,4.76-4.63.83-.83,1.62-1.23,2.61,0-.48.53-.95,1.08-1.45,1.59-1,1.05-2.18,2-3.13,3.13a8.73,8.73,0,0,0-2.34,7.74c1.39,8.37,4.63,16.1,7.41,24a52.22,52.22,0,0,1,2.72,11.8,15.79,15.79,0,0,0,1.12,4.25,7.8,7.8,0,0,0,5.39,5.07c5.18,1.34,10.35,2.7,15.45,4.31,11.5,3.65,22.93,7.52,34.43,11.19a216.82,216.82,0,0,1,24.75,9.54A31.84,31.84,0,0,1,696.63,722a77.18,77.18,0,0,1,6.87,12.6c6.59,14.83,12.94,29.75,19.42,44.62a44.76,44.76,0,0,0,2.59,4.89c4.79,8,8.43,16.6,12.27,25.07a24.62,24.62,0,0,1,2.66,11.48c0,.37,0,.74,0,1.11.13,3.36,1.19,5.85,4.39,7.87,4.5,2.85,9,5.25,14.28,6.24,4.5.85,8.93,2.18,13.46,2.84a76,76,0,0,0,12.07.7c5.18-.06,9.45,2.21,13.49,8.06-7.87-4.15-15.76-3.73-23.72-1.57,0,.26-.05.52-.07.77.93.08,1.87.14,2.8.23,3.85.35,7.7.76,11.55,1.06,6.15.48,9.82,4.14,12.24,9.4.77,1.68,1.39,3.42,2.11,5.11C804.33,865.45,803.19,868.18,802.44,871.61Z"/><path d="M323.35,696.6c2.29,5.45.21,9.48-3.58,13a7.66,7.66,0,0,1-5,2c-3.28.16-5.52-1.55-5.94-4.81a33.25,33.25,0,0,1,0-4.35c-.94,1-2,2.17-3.11,3.28A9.36,9.36,0,0,1,299,708.5c-3.58,0-6.23-2.46-6-6a16.63,16.63,0,0,1,1.4-4.94,18.27,18.27,0,0,1,2-3c-1.22-.06-2.26-.09-3.29-.17a8.13,8.13,0,0,1-5.28-2.08c-3-2.89-2.77-6.6.66-9.57a11.4,11.4,0,0,1,6.84-2.65c.63,0,1.27,0,2.2,0a39.27,39.27,0,0,1-3.48-3,5.24,5.24,0,0,1,.2-7.46c4.77-5,13.92-2.9,16.59,3.79,1.58-1.72,3.06-3.54,4.75-5.13,2.67-2.52,5-2.48,7.34.29a14.81,14.81,0,0,1,2.66,4.73,24.3,24.3,0,0,1,1,5.4,7.35,7.35,0,0,0,2.12,4.65,9.91,9.91,0,0,1,3.21,7.38c-.07,3.63-1.9,5.64-5.52,5.86C325.37,696.65,324.46,696.6,323.35,696.6Zm1.62-1.84c3.85-.29,5.31-1.84,4.45-5.46a10.51,10.51,0,0,0-2.34-4.26,12,12,0,0,1-2.85-6.42,27.74,27.74,0,0,0-2-7.39c-1.43-3.05-3.49-3.21-5.9-.87a23.59,23.59,0,0,0-6.12,11c-1.48,5.4,0,8.74,5.26,10.86C318.46,693.42,321.78,693.93,325,694.76Zm-26.23,11.6c4.26.19,9.27-4.8,9.12-9.09a3.72,3.72,0,0,0-3.86-3.81c-4.13-.07-9,4.82-9,9A3.62,3.62,0,0,0,298.74,706.36Zm-4.15-14.13a9.41,9.41,0,0,0,6.89-2.84,3.62,3.62,0,0,0-.42-5.76c-3.32-2.56-10.16-1.39-12.46,2.14a3.45,3.45,0,0,0,.72,4.92C290.73,691.91,292.43,692.22,294.59,692.23ZM322.13,701c.12-3.37-2.29-5.07-5.45-3.86a9.94,9.94,0,0,0-5.81,8.1c-.12,3.36,2.31,5.08,5.47,3.88A10,10,0,0,0,322.13,701ZM301,668.93a24.42,24.42,0,0,0-4.36,1.52c-2.41,1.38-2.54,3.83-.51,5.75a9.21,9.21,0,0,0,10.35.85c2.32-1.56,2.54-3.9.48-5.79A10.16,10.16,0,0,0,301,668.93Zm2.57,21.93a23.45,23.45,0,0,1,4.23,1.6A4.79,4.79,0,0,1,310,696.4a38.84,38.84,0,0,1-.2,4l-.7-.82,5.87-5c-2.54-1.34-5.36-2.89-6.77-6.05s-.53-6.38.15-9.49l-7,1.83C305.39,684.39,305.78,686.06,303.53,690.86Z"/><path d="M732.5,615.94a9.54,9.54,0,0,1,10.27-8.58c2.43.1,4.54.9,5.65,3.29s.22,4.29-1.21,6.13c-.33.43-.73.79-1.45,1.55,1.15-.24,1.88-.38,2.61-.55a10.23,10.23,0,0,1,6.74.75c4.39,2.07,4.93,7.21,1,10a34.41,34.41,0,0,1-5,2.49c1,.87,2.09,1.76,3.06,2.8,2.2,2.34,2.66,5.57,1.17,7.84a6,6,0,0,1-6.54,2.57c-2.29-.44-4.45-1.59-6.71-2.43a12.13,12.13,0,0,0,.39,1.38c.85,2.2,1,4.4-.73,6.19a6.16,6.16,0,0,1-6.66,1.45c-4.21-1.36-8.09-5.09-7.79-9.9a3.23,3.23,0,0,0-.24-.84c-1,.22-2,.48-3,.62a4.84,4.84,0,0,1-5.58-3.39,8.76,8.76,0,0,1,.62-7.48,8.36,8.36,0,0,0,.77-5.59,27.73,27.73,0,0,1-.43-5.22,10.25,10.25,0,0,1,.82-3.73c1.46-3.44,3.49-4.19,6.83-2.54C728.92,613.66,730.59,614.8,732.5,615.94ZM737,628.18a21.8,21.8,0,0,0-.89-3.33,21.46,21.46,0,0,0-9.44-10.14c-2.62-1.4-4.29-.66-4.86,2.27a15.3,15.3,0,0,0-.08,5.48c.61,3.29.53,6.35-1.16,9.35a5.55,5.55,0,0,0,.12,5.33,2.52,2.52,0,0,0,3.15,1.57c4.34-1.21,8.35-3.05,11.21-6.66A19.25,19.25,0,0,0,737,628.18Zm12.54,14.16c1.91,0,3.49-.41,4.37-2.1s.26-3.09-.72-4.37a9.35,9.35,0,0,0-8-4c-3.54.12-5.1,3-3.24,6A9.76,9.76,0,0,0,749.53,642.34Zm1.24-23a11.08,11.08,0,0,0-6.47,2.58,3.38,3.38,0,0,0,.15,5.48c2.9,2.36,9.08,1.61,11.35-1.37,1.34-1.77,1.14-3.88-.75-5A25.32,25.32,0,0,0,750.77,619.34Zm-13.71,29.74c3,.16,4.64-1.92,3.7-4.77a9.15,9.15,0,0,0-7.43-5.76c-3-.18-4.64,2-3.72,4.81A9.13,9.13,0,0,0,737.06,649.08Zm5.44-39.73c-3,.2-5.39,1.18-7,3.56-1.39,2-.8,4.11,1.32,5,3.09,1.33,8.1-.53,9.58-3.56a3.13,3.13,0,0,0-2.13-4.72A16.37,16.37,0,0,0,742.5,609.35Zm0,11h-6.38c1.55,2.74,3.09,5.37,2.62,8.58s-2.67,5.21-4.57,7.21l6.41,3.58c-.84-1.74-1.81-3.55-1.29-5.78s2.45-3.2,4.28-4.17C740.36,625.92,740.26,625,742.46,620.33Z"/><ellipse cx="345.13" cy="422.86" rx="17.87" ry="26"/><path d="M392.67,497.47c-2.09,18.88-18.31,12.73-34.22,17.81s-24.77,24.61-45.9,15.21c-8.77-3.49.42-55.94,23-64.46S394,486,392.67,497.47Z"/><ellipse cx="303.88" cy="436.47" rx="17.79" ry="25.88" transform="translate(-193.75 248.81) rotate(-34.49)"/><ellipse cx="287.55" cy="479.38" rx="16.05" ry="23.34" transform="translate(-263.95 388.08) rotate(-49.64)"/><ellipse cx="384.7" cy="448.99" rx="24.52" ry="16.85" transform="translate(-114.6 765.66) rotate(-81.79)"/><ellipse cx="747.78" cy="929.62" rx="17.87" ry="26"/><path d="M795.31,1004.24c-2.08,18.88-18.3,12.72-34.22,17.8s-24.77,24.61-45.9,15.21c-8.77-3.48.42-55.93,23-64.46S796.63,992.78,795.31,1004.24Z"/><ellipse cx="706.53" cy="943.23" rx="17.79" ry="25.88" transform="translate(-409.94 565.9) rotate(-34.49)"/><ellipse cx="690.19" cy="986.15" rx="16.05" ry="23.34" transform="translate(-508.21 873.51) rotate(-49.64)"/><ellipse cx="787.35" cy="955.75" rx="24.52" ry="16.85" transform="translate(-271.01 1598.61) rotate(-81.79)"/><ellipse cx="767.34" cy="437.31" rx="26" ry="17.87" transform="translate(-42.31 790.18) rotate(-53.23)"/><path d="M760.75,525.53c-13,13.88-22.28-.76-38.07-6.22S688.11,524.2,676.81,504c-4.94-8,33.82-44.56,57-37.89S768.66,517.14,760.75,525.53Z"/><ellipse cx="726.15" cy="423.52" rx="25.88" ry="17.79" transform="translate(274.07 1132.24) rotate(-87.72)"/><ellipse cx="687.38" cy="448.12" rx="16.05" ry="23.34" transform="translate(-82.55 164.37) rotate(-12.87)"/><ellipse cx="783.39" cy="481.93" rx="24.52" ry="16.85" transform="translate(-111.25 695.43) rotate(-45.02)"/><ellipse cx="366.25" cy="943.69" rx="26" ry="17.87" transform="translate(-608.92 672.13) rotate(-53.23)"/><path d="M359.65,1031.91c-13,13.88-22.27-.76-38.06-6.22s-34.58,4.88-45.88-15.29c-4.93-8,33.83-44.56,57-37.89S367.57,1023.52,359.65,1031.91Z"/><ellipse cx="325.06" cy="929.9" rx="25.88" ry="17.79" transform="translate(-617.04 1217.68) rotate(-87.72)"/><ellipse cx="286.28" cy="954.49" rx="16.05" ry="23.34" transform="translate(-205.42 87.75) rotate(-12.87)"/><ellipse cx="382.3" cy="988.31" rx="24.52" ry="16.85" transform="translate(-587.02 560.15) rotate(-45.02)"/><path class="cls-3" d="M260.74,313.92c-40.72-.22-80.25-6.64-117.64-23.45-24.9-11.19-47.34-25.86-63.64-48.32C61.51,217.39,56.94,190.5,68.73,161.8c8.72-21.21,24.38-36.74,42.93-49.57,26.07-18,55.23-28.54,86-34.92a311,311,0,0,1,89.67-5.16c43.71,3.68,85.15,14.72,122,39.54,18.33,12.35,33.69,27.58,42.81,48.12,12.1,27.25,9.14,53.42-6.95,78.12-15.11,23.2-37,38.45-61.5,50.19C351,303.8,316.21,311.39,280.09,313.38c-3.22.18-6.44.43-9.66.52S264,313.92,260.74,313.92Z"/><path d="M260.74,313.92c-40.72-.22-80.25-6.64-117.64-23.45-24.9-11.19-47.34-25.86-63.64-48.32C61.51,217.39,56.94,190.5,68.73,161.8c8.72-21.21,24.38-36.74,42.93-49.57,26.07-18,55.23-28.54,86-34.92a311,311,0,0,1,89.67-5.16c43.71,3.68,85.15,14.72,122,39.54,18.33,12.35,33.69,27.58,42.81,48.12,12.1,27.25,9.14,53.42-6.95,78.12-15.11,23.2-37,38.45-61.5,50.19C351,303.8,316.21,311.39,280.09,313.38c-3.22.18-6.44.43-9.66.52S264,313.92,260.74,313.92Zm-3.35-238.6c-4.55.21-12.55.38-20.53,1C201.07,79,166.64,87.06,134.62,103.74c-22.2,11.58-41.89,26.28-55.46,47.85-11.61,18.45-15.59,38.3-9.84,59.64,5.64,20.94,18.68,36.87,35,50.33,22.14,18.27,47.82,29.66,75.26,37.34,37.81,10.57,76.31,13.1,115.25,9,31.66-3.3,62.14-11.17,90.67-25.68,21.29-10.83,40.08-24.71,54.26-44.31,20.68-28.59,20.22-64.4-1.12-92.42-16.36-21.5-37.88-36.11-62.17-47C339.7,82.06,300.89,75.56,257.39,75.32Z"/><path d="M329.72,189.31c-3.6-.45-4.46-2.14-3.89-5.49,4.11-23.75,27.46-41.63,51-38.9,26.36,3.06,45.24,24.66,43.59,49.88-2.36,36.09-40.16,56.81-71.57,38.85C294,202.28,239.37,170.55,184.65,139c-.9-.52-1.7-1.22-3.32-2.39,5-.27,8.61-.25,12.45,2,51.49,29.88,103.14,59.5,154.64,89.38,15.49,9,30.92,10.35,46.65,1.14,16.36-9.6,24.21-29.63,19.1-48.1a42.8,42.8,0,0,0-40.83-31.24c-21.66,0-38.88,14.33-42.8,35.53C330.29,186.59,330,187.92,329.72,189.31Z"/><path d="M192,195.54c3.74.78,4.61,2.54,4,5.86-4,21.37-21.72,37.1-44,38.77-21.24,1.59-41.14-11.71-48.19-32.2a47.33,47.33,0,0,1,18.61-54.84c16.62-10.86,34-11.13,51-1.4,51,29.12,101.71,58.58,152.54,87.92,4.57,2.63,9.13,5.29,14.66,8.5-4.83.71-8.24.86-11.8-1.2q-78.93-45.67-158-91.15c-28.32-16.3-63.27,2.41-64.68,35-.74,17.05,6.81,30.56,21.81,39.06,14.52,8.22,29.36,7.77,43.62-.88C184,221.47,190.3,210,192,195.54Z"/><path d="M213.66,135.34c4,1.25,8.39,1.82,11.94,3.85,44.12,25.23,88.24,50.46,132.09,76.17,17.58,10.3,37.86.68,41.83-17.22,3.17-14.34-6.35-29.3-20.7-32.31-15.08-3.17-30,6.36-32.67,21.16-.69,3.78-.49,7.73-.7,11.69-3.35-.52-4.95-2.67-4.91-6.25a32.26,32.26,0,1,1,16.34,27.94q-71-40.83-142-81.85a21.86,21.86,0,0,1-1.91-1.41Z"/><path d="M175.83,186.22c5.8,1.31,5.51,5.12,5.09,9.26-1.63,16-13.31,27.64-29.36,29.16-15,1.41-29.19-8.44-33.47-23.3a32.13,32.13,0,0,1,47.08-36.48c19.63,11.2,39.17,22.56,58.74,33.85l80.64,46.49c1.31.76,2.61,1.56,4.66,2.79-4.48,1-7.88,1.07-11.38-1Q260,225,222,203.23c-19.69-11.36-39.36-22.77-59.09-34.07-12.59-7.22-27.57-4-36,7.52-8,11-6.62,26.66,3.23,35.72,10.69,9.84,26.34,10.16,37.14.4a25.91,25.91,0,0,0,8.79-23.44C175.94,188.4,175.92,187.43,175.83,186.22Z"/><path class="cls-6" d="M294.38,246.44c-6,3.46-11.16,6.45-17.1,9.88V237l-17,9.64v-19.1l-16.9,9.54V218l-16.59,9.29v-19L210,217.65v-19.6Z"/><path class="cls-6" d="M227.39,138.64l17.32-9.9V148l16.85-9.62v19.06L278.51,148v19.15l16.59-9.45v19.08l16.71-9.31V187Z"/><path class="cls-6" d="M411.38,162.93c-3.71-7.19-10.14-11.48-17.08-14.66-19.7-9-38-6.22-54.51,7.75-.85.72-1.69,1.46-2.55,2.18a8.16,8.16,0,0,1-1.08.46c-.73-6.74-1.43-13.28-2.22-20.69l19.56,8.49,7-19.68,14,15.87,15.73-14.89c1.79,7,3.41,13.25,5.18,20.15l20.51-6.84c-1.61,7.76-3.08,14.82-4.55,21.89Z"/><path class="cls-6" d="M110.3,222.75c14.13,19.52,48.5,29.27,75.34,3.34.74,7,1.44,13.58,2.23,21l-19.54-8.46c-2.33,6.52-4.57,12.76-7,19.6L147.26,242.5l-15.68,14.78c-1.82-7-3.46-13.33-5.21-20.12L105.83,244c1.66-7.75,3.11-14.54,4.56-21.34Z"/><path class="cls-6" d="M110.39,222.67l-22.14-1.14,12-17.43L81.75,192.92l18.37-10.3L88.41,164.88l20.53-1.54c-12.33,20.35-12.93,40.14,1.34,59.43Z"/><path class="cls-6" d="M411.38,163a46.8,46.8,0,0,1,6.55-.49c4.88.29,9.74.85,15.5,1.38L421.59,180.9l18.46,11.31L421.7,202.49l11.77,17.73-19.24,1.33c2.54-7.63,5.86-14.84,7.24-22.39,2.33-12.69-1.17-24.48-8.47-35.1a5.68,5.68,0,0,0-1.61-1.14S411.38,163,411.38,163Z"/><path d="M372.68,186.21a6.26,6.26,0,1,1,0,12.52,6.26,6.26,0,0,1,0-12.52Z"/><path d="M155.34,192.51a6.31,6.31,0,0,1-12.62.18,6.48,6.48,0,0,1,6.41-6.48A6.67,6.67,0,0,1,155.34,192.51Z"/><path d="M92.15,334.45a7.83,7.83,0,0,0,4,1.11c2.26,0,3.58-1.19,3.58-2.92s-.91-2.51-3.22-3.4c-2.79-1-4.52-2.44-4.52-4.85,0-2.66,2.21-4.64,5.53-4.64a7.81,7.81,0,0,1,3.79.83l-.61,1.81a6.74,6.74,0,0,0-3.25-.82c-2.34,0-3.23,1.4-3.23,2.57,0,1.6,1,2.38,3.41,3.3,2.89,1.12,4.36,2.51,4.36,5s-2,4.92-6,4.92a8.87,8.87,0,0,1-4.37-1.09Z"/><path d="M104.9,328.86c0-1.57-.05-2.84-.1-4h2l.11,2.11h0a4.82,4.82,0,0,1,4.36-2.39c3,0,5.21,2.51,5.21,6.25,0,4.41-2.69,6.6-5.59,6.6a4.31,4.31,0,0,1-3.78-1.93h0v6.68H104.9Zm2.21,3.28a5.07,5.07,0,0,0,.1.91,3.45,3.45,0,0,0,3.35,2.62c2.36,0,3.73-1.93,3.73-4.75,0-2.47-1.29-4.57-3.65-4.57a3.56,3.56,0,0,0-3.38,2.76,3.93,3.93,0,0,0-.15.92Z"/><path d="M120.59,331.4c0,3,2,4.27,4.22,4.27a8,8,0,0,0,3.4-.64l.38,1.6a9.89,9.89,0,0,1-4.09.76c-3.78,0-6-2.49-6-6.19s2.18-6.63,5.76-6.63c4,0,5.08,3.53,5.08,5.79a10,10,0,0,1-.07,1Zm6.55-1.6c0-1.42-.58-3.63-3.09-3.63-2.26,0-3.25,2.08-3.43,3.63Z"/><path d="M140.83,336.68a8.14,8.14,0,0,1-3.53.71c-3.71,0-6.12-2.51-6.12-6.27a6.24,6.24,0,0,1,6.6-6.52,7.57,7.57,0,0,1,3.1.63l-.51,1.73a5.1,5.1,0,0,0-2.59-.59c-2.82,0-4.34,2.08-4.34,4.65,0,2.84,1.83,4.59,4.27,4.59a6.51,6.51,0,0,0,2.74-.6Z"/><path d="M145.93,321.4a1.31,1.31,0,0,1-1.42,1.37,1.33,1.33,0,0,1-1.34-1.37,1.36,1.36,0,0,1,1.39-1.4A1.33,1.33,0,0,1,145.93,321.4Zm-2.48,15.74V324.85h2.23v12.29Z"/><path d="M156.19,337.14l-.18-1.55h-.07a4.61,4.61,0,0,1-3.76,1.83,3.5,3.5,0,0,1-3.76-3.53c0-3,2.64-4.6,7.39-4.57v-.26a2.53,2.53,0,0,0-2.79-2.84,6.2,6.2,0,0,0-3.2.91l-.51-1.47a7.65,7.65,0,0,1,4-1.09c3.76,0,4.67,2.56,4.67,5v4.59a17.62,17.62,0,0,0,.2,2.95Zm-.33-6.27c-2.44-.05-5.2.38-5.2,2.76a2,2,0,0,0,2.1,2.14,3.05,3.05,0,0,0,3-2.06,2.22,2.22,0,0,0,.13-.71Z"/><path d="M161.63,319.11h2.23v18h-2.23Z"/><path d="M173.08,320.23a25.27,25.27,0,0,1,4.24-.33,7.07,7.07,0,0,1,4.8,1.42,4.6,4.6,0,0,1,1.49,3.58,5,5,0,0,1-1.32,3.66,7.09,7.09,0,0,1-5.23,1.88,7.32,7.32,0,0,1-1.77-.16v6.86h-2.21Zm2.21,8.25a7.2,7.2,0,0,0,1.82.18c2.67,0,4.3-1.3,4.3-3.66s-1.6-3.35-4-3.35a9.27,9.27,0,0,0-2.08.18Z"/><path d="M186.11,328.68c0-1.44,0-2.69-.11-3.83h2l.07,2.41h.11a3.67,3.67,0,0,1,3.4-2.69,2.41,2.41,0,0,1,.63.08v2.1a3.39,3.39,0,0,0-.76-.07,3.13,3.13,0,0,0-3,2.87,5.35,5.35,0,0,0-.11,1v6.55h-2.2Z"/><path d="M205.27,330.89c0,4.55-3.14,6.53-6.11,6.53-3.33,0-5.89-2.44-5.89-6.32,0-4.12,2.69-6.53,6.09-6.53S205.27,327.13,205.27,330.89Zm-9.75.13c0,2.69,1.55,4.72,3.74,4.72s3.73-2,3.73-4.77c0-2.08-1-4.72-3.68-4.72S195.52,328.68,195.52,331Z"/><path d="M205.1,340.69a3.59,3.59,0,0,0,2.44-.94c.61-.71.83-1.67.83-4.62V324.85h2.24V336c0,2.38-.38,3.93-1.47,5.05a5.67,5.67,0,0,1-3.81,1.39Zm5.76-19.29a1.31,1.31,0,0,1-1.39,1.37,1.34,1.34,0,0,1-1.38-1.37,1.37,1.37,0,0,1,1.43-1.4A1.32,1.32,0,0,1,210.86,321.4Z"/><path d="M215.51,331.4c.05,3,2,4.27,4.21,4.27a8,8,0,0,0,3.41-.64l.38,1.6a9.93,9.93,0,0,1-4.09.76c-3.78,0-6-2.49-6-6.19s2.18-6.63,5.76-6.63c4,0,5.08,3.53,5.08,5.79a7.43,7.43,0,0,1-.08,1Zm6.55-1.6c0-1.42-.58-3.63-3.1-3.63-2.26,0-3.25,2.08-3.43,3.63Z"/><path d="M235.75,336.68a8.18,8.18,0,0,1-3.53.71c-3.71,0-6.12-2.51-6.12-6.27a6.24,6.24,0,0,1,6.6-6.52,7.57,7.57,0,0,1,3.1.63l-.51,1.73a5.1,5.1,0,0,0-2.59-.59c-2.82,0-4.34,2.08-4.34,4.65,0,2.84,1.83,4.59,4.26,4.59a6.57,6.57,0,0,0,2.75-.6Z"/><path d="M241.38,321.32v3.53h3.2v1.7h-3.2v6.63c0,1.52.43,2.38,1.68,2.38a4.81,4.81,0,0,0,1.29-.15l.11,1.68a5.48,5.48,0,0,1-2,.3,3.11,3.11,0,0,1-2.42-.94,4.57,4.57,0,0,1-.86-3.2v-6.7h-1.9v-1.7h1.9v-3Z"/><path d="M246.79,334.85a5.88,5.88,0,0,0,3,.89c1.62,0,2.38-.81,2.38-1.83s-.63-1.65-2.28-2.26c-2.21-.78-3.25-2-3.25-3.47,0-2,1.6-3.61,4.24-3.61a6.19,6.19,0,0,1,3,.76l-.56,1.63a4.72,4.72,0,0,0-2.51-.71c-1.32,0-2.06.76-2.06,1.67s.74,1.47,2.34,2.08c2.13.82,3.22,1.88,3.22,3.71,0,2.16-1.67,3.68-4.59,3.68a7,7,0,0,1-3.46-.84Z"/><path d="M255.27,338.15l7.09-18.4h1.72l-7.1,18.4Z"/><path d="M285.74,329.62c-.12-2.38-.28-5.25-.25-7.39h-.08c-.58,2-1.29,4.14-2.16,6.5l-3,8.31h-1.67l-2.77-8.15c-.81-2.42-1.5-4.62-2-6.66h-.05c-.05,2.14-.18,5-.33,7.57l-.46,7.34h-2.11l1.2-17.12h2.82l2.92,8.28c.71,2.11,1.29,4,1.72,5.77h.08c.43-1.73,1-3.61,1.8-5.77l3.05-8.28h2.82l1.06,17.12h-2.16Z"/><path d="M293.06,331.4c.05,3,2,4.27,4.21,4.27a8,8,0,0,0,3.4-.64l.39,1.6a9.93,9.93,0,0,1-4.09.76c-3.79,0-6.05-2.49-6.05-6.19s2.19-6.63,5.77-6.63c4,0,5.08,3.53,5.08,5.79a7.43,7.43,0,0,1-.08,1Zm6.55-1.6c0-1.42-.59-3.63-3.1-3.63-2.26,0-3.25,2.08-3.43,3.63Z"/><path d="M315.15,319.11V334c0,1.1,0,2.34.1,3.18h-2l-.1-2.13h-.05a4.55,4.55,0,0,1-4.19,2.41c-3,0-5.25-2.52-5.25-6.25,0-4.09,2.51-6.6,5.5-6.6a4.12,4.12,0,0,1,3.71,1.88h.05v-7.34Zm-2.24,10.74a3.76,3.76,0,0,0-.1-.94,3.29,3.29,0,0,0-3.22-2.59c-2.31,0-3.69,2-3.69,4.75,0,2.49,1.22,4.54,3.64,4.54a3.36,3.36,0,0,0,3.27-2.66,3.75,3.75,0,0,0,.1-1Z"/><path d="M321.34,321.4a1.38,1.38,0,0,1-2.76,0A1.36,1.36,0,0,1,320,320,1.33,1.33,0,0,1,321.34,321.4Zm-2.48,15.74V324.85h2.23v12.29Z"/><path d="M331.6,337.14l-.18-1.55h-.07a4.61,4.61,0,0,1-3.76,1.83,3.5,3.5,0,0,1-3.76-3.53c0-3,2.64-4.6,7.39-4.57v-.26a2.53,2.53,0,0,0-2.79-2.84,6.2,6.2,0,0,0-3.2.91l-.51-1.47a7.65,7.65,0,0,1,4-1.09c3.76,0,4.67,2.56,4.67,5v4.59a17.62,17.62,0,0,0,.2,2.95Zm-.33-6.27c-2.44-.05-5.2.38-5.2,2.76a2,2,0,0,0,2.1,2.14,3.08,3.08,0,0,0,3-2.06,2.52,2.52,0,0,0,.12-.71Z"/><path d="M342.5,320.23a25.27,25.27,0,0,1,4.24-.33,7,7,0,0,1,4.79,1.42,4.6,4.6,0,0,1,1.5,3.58,5,5,0,0,1-1.32,3.66,7.11,7.11,0,0,1-5.23,1.88,7.45,7.45,0,0,1-1.78-.16v6.86h-2.2Zm2.2,8.25a7.34,7.34,0,0,0,1.83.18c2.67,0,4.29-1.3,4.29-3.66s-1.6-3.35-4-3.35a9.44,9.44,0,0,0-2.09.18Z"/><path d="M355.52,328.68c0-1.44,0-2.69-.1-3.83h2l.07,2.41h.1a3.69,3.69,0,0,1,3.41-2.69,2.41,2.41,0,0,1,.63.08v2.1a3.45,3.45,0,0,0-.76-.07,3.13,3.13,0,0,0-3,2.87,6.33,6.33,0,0,0-.1,1v6.55h-2.21Z"/><path d="M374.69,330.89c0,4.55-3.15,6.53-6.12,6.53-3.32,0-5.89-2.44-5.89-6.32,0-4.12,2.69-6.53,6.1-6.53S374.69,327.13,374.69,330.89Zm-9.75.13c0,2.69,1.55,4.72,3.74,4.72s3.73-2,3.73-4.77c0-2.08-1-4.72-3.68-4.72S364.94,328.68,364.94,331Z"/><path d="M388.1,324.85c-.05.89-.1,1.88-.1,3.38v7.13c0,2.82-.56,4.55-1.75,5.61a6.51,6.51,0,0,1-4.47,1.47,8,8,0,0,1-4.09-1l.56-1.7a6.89,6.89,0,0,0,3.6,1c2.29,0,4-1.19,4-4.29V335h-.05a4.38,4.38,0,0,1-3.91,2.06c-3,0-5.23-2.59-5.23-6,0-4.17,2.72-6.53,5.54-6.53A4.09,4.09,0,0,1,386,326.7H386l.11-1.85Zm-2.31,4.85a3.28,3.28,0,0,0-.13-1,3.22,3.22,0,0,0-3.12-2.36c-2.13,0-3.66,1.8-3.66,4.65,0,2.41,1.22,4.42,3.63,4.42a3.27,3.27,0,0,0,3.1-2.29,3.78,3.78,0,0,0,.18-1.19Z"/><path d="M391.55,328.68c0-1.44,0-2.69-.1-3.83h2l.07,2.41h.11a3.67,3.67,0,0,1,3.4-2.69,2.41,2.41,0,0,1,.63.08v2.1a3.39,3.39,0,0,0-.76-.07,3.14,3.14,0,0,0-3,2.87,6.33,6.33,0,0,0-.1,1v6.55h-2.21Z"/><path d="M406.54,337.14l-.18-1.55h-.08a4.58,4.58,0,0,1-3.76,1.83,3.5,3.5,0,0,1-3.75-3.53c0-3,2.64-4.6,7.38-4.57v-.26a2.53,2.53,0,0,0-2.79-2.84,6.23,6.23,0,0,0-3.2.91l-.51-1.47a7.65,7.65,0,0,1,4-1.09c3.76,0,4.67,2.56,4.67,5v4.59a16.55,16.55,0,0,0,.21,2.95Zm-.33-6.27c-2.44-.05-5.21.38-5.21,2.76a2,2,0,0,0,2.11,2.14,3.06,3.06,0,0,0,3-2.06,2.53,2.53,0,0,0,.13-.71Z"/><path d="M412,328.18c0-1.27,0-2.32-.1-3.33h1.95l.11,2H414a4.24,4.24,0,0,1,3.86-2.26,3.63,3.63,0,0,1,3.48,2.46h.05a5.08,5.08,0,0,1,1.37-1.6,4.2,4.2,0,0,1,2.72-.86c1.62,0,4,1.07,4,5.33v7.24h-2.19v-7c0-2.36-.86-3.78-2.66-3.78a2.91,2.91,0,0,0-2.65,2,3.72,3.72,0,0,0-.17,1.12v7.59h-2.19v-7.37c0-1.95-.86-3.37-2.56-3.37a3.06,3.06,0,0,0-2.77,2.23,3,3,0,0,0-.18,1.09v7.42H412Z"/><path d="M81.67,88.13a40,40,0,0,1,5.24-3.07c3.67-1.8,6.67-2.27,9.07-1.63a8.45,8.45,0,0,1,5.7,5.11,10,10,0,0,1,.38,8.18c-1,2.49-3.51,4.75-7.16,6.55-1.73.85-3.21,1.5-4.5,2ZM92,102.3a18.29,18.29,0,0,0,2.53-1.09c5.2-2.55,6.81-6.58,4.6-11.38-1.89-4.2-5.78-5.67-11.18-3A17.78,17.78,0,0,0,85,88.5Z"/><path d="M107.89,89.81c1.44,3.13,4.17,3.49,6.69,2.43A10.91,10.91,0,0,0,118.14,90c.38.5.75,1,1.12,1.51A13.05,13.05,0,0,1,115,94.2c-4.23,1.79-7.89.33-9.63-3.54s-.57-8,3.61-9.82c4.68-2,7.44,1.3,8.4,3.69a8.45,8.45,0,0,1,.36,1.13Q112.79,87.67,107.89,89.81ZM114.66,85c-.59-1.51-2.26-3.57-5.18-2.33a4.38,4.38,0,0,0-2.3,5.5Q110.92,86.5,114.66,85Z"/><path d="M119.94,81.66c-.67-1.67-1.25-3-1.8-4.21l2.35-.92,1,2.2.06,0a6.1,6.1,0,0,1,4.16-4.49c3.51-1.3,7.11.49,8.51,4.51,1.66,4.77-.58,8.19-3.85,9.41a5.41,5.41,0,0,1-5.08-.43l-.06,0L128,94.85l-2.46,1Q122.73,88.73,119.94,81.66Zm3.9,2.5a6.23,6.23,0,0,0,.49.93,4.21,4.21,0,0,0,4.89,1.34c2.69-1,3.52-3.63,2.44-6.67-.95-2.65-3.29-4.37-6.06-3.34a4.34,4.34,0,0,0-2.82,4.45,3.42,3.42,0,0,0,.2,1C123.26,82.66,123.55,83.41,123.84,84.16Z"/><path d="M147.63,81.87c-.24-.54-.49-1.08-.74-1.62l-.08,0a5.74,5.74,0,0,1-3.69,3.39c-2.84,1-4.94-.44-5.61-2.36-1.11-3.2,1.37-6,7-7.81l-.09-.27c-.35-1.11-1.32-3-4.3-2a7.9,7.9,0,0,0-3.45,2.25l-1.15-1.39a10,10,0,0,1,4.41-2.78c4.48-1.46,6.45,1,7.28,3.71q.76,2.51,1.55,5A18.37,18.37,0,0,0,150,81.13Zm-2.55-6.71c-2.88.85-6,2.4-5.08,5a2.35,2.35,0,0,0,3.2,1.5,3.73,3.73,0,0,0,2.72-3.35,2.5,2.5,0,0,0-.1-.82C145.58,76.71,145.33,75.93,145.08,75.16Z"/><path d="M151.14,70.69c-.47-1.59-.91-2.94-1.37-4.17l2.34-.69c.29.88.58,1.75.86,2.62l.13,0a4.49,4.49,0,0,1,3.23-4.12,3.51,3.51,0,0,1,.79-.13c.21.78.43,1.55.64,2.32a4.7,4.7,0,0,0-.94.17,3.75,3.75,0,0,0-2.67,4.17,6.35,6.35,0,0,0,.22,1.18c.69,2.39,1.38,4.79,2.08,7.18l-2.56.75C153,76.86,152.06,73.77,151.14,70.69Z"/><path d="M162.85,58.71c.33,1.3.67,2.6,1,3.9l3.87-1c.15.63.31,1.26.46,1.89-1.28.31-2.56.64-3.84,1,.63,2.44,1.25,4.89,1.88,7.33.44,1.68,1.19,2.51,2.65,2.14a6.19,6.19,0,0,0,1.47-.55c.19.61.39,1.22.58,1.83a7.23,7.23,0,0,1-2.22.92,3.9,3.9,0,0,1-3.08-.32c-.93-.53-1.52-1.67-2-3.27q-1-3.69-2-7.4l-2.28.62-.51-1.88,2.29-.62c-.28-1.08-.57-2.16-.86-3.25C161.18,59.6,162,59.15,162.85,58.71Z"/><path d="M171.64,64.6c-.34-1.41-.64-2.56-1-3.67l2.37-.56.63,2.18.1,0A5.25,5.25,0,0,1,177.85,59a4.44,4.44,0,0,1,4.8,1.85h.06a6,6,0,0,1,1.3-2.13,5.5,5.5,0,0,1,3.13-1.62c2-.39,5.16.28,6,5.08q.73,4.07,1.46,8.13l-2.57.47c-.49-2.6-1-5.2-1.46-7.81s-1.84-4.06-4-3.63a3.51,3.51,0,0,0-2.74,2.92,3.81,3.81,0,0,0,0,1.29l1.74,8.5-2.57.53-1.74-8.23c-.46-2.18-1.85-3.55-3.91-3.1a3.69,3.69,0,0,0-2.77,3.24,3.42,3.42,0,0,0,.06,1.27c.64,2.75,1.27,5.5,1.91,8.25l-2.56.6Z"/><path d="M199.3,62.81c.63,3.39,3.14,4.42,5.8,4a10.35,10.35,0,0,0,3.94-1.3c.24.58.47,1.16.71,1.75A12.91,12.91,0,0,1,205,68.84c-4.46.67-7.6-1.66-8.33-5.83s1.39-7.94,5.8-8.61c4.94-.74,6.79,3.11,7.13,5.66a10.33,10.33,0,0,1,.07,1.19Q204.5,62,199.3,62.81Zm7.63-3c-.2-1.61-1.3-4-4.37-3.55A4.34,4.34,0,0,0,199,61C201.66,60.57,204.3,60.17,206.93,59.79Z"/><path d="M212.66,57.15c-.18-1.44-.36-2.62-.6-3.76l2.44-.3c.14.76.29,1.53.43,2.29H215a5.63,5.63,0,0,1,4.7-3.19c2.1-.23,5.48.62,5.91,5.42q.39,4.17.77,8.35l-2.65.25-.81-8.05c-.22-2.25-1.31-4-3.9-3.76a3.82,3.82,0,0,0-3.37,3,3.62,3.62,0,0,0,0,1.2c.33,2.79.66,5.59,1,8.38-.89.11-1.77.21-2.65.33Z"/><path d="M232.46,47.31c.1,1.34.2,2.68.29,4,1.32-.1,2.64-.18,4-.27l.12,1.94-3.93.27c.18,2.52.36,5,.55,7.55.12,1.74.71,2.68,2.2,2.58a6.36,6.36,0,0,0,1.54-.28l.24,1.91a7,7,0,0,1-2.33.5,3.79,3.79,0,0,1-3-.86,5.05,5.05,0,0,1-1.32-3.56c-.2-2.55-.41-5.09-.61-7.64l-2.34.2c-.05-.65-.11-1.29-.16-1.94l2.35-.19-.27-3.36Z"/><path d="M260.25,57.2A7.12,7.12,0,0,1,253,64.75a6.92,6.92,0,0,1-7.31-7c-.2-4.7,3-7.6,7.25-7.68A6.79,6.79,0,0,1,260.25,57.2Zm-11.85.36c.11,3.07,2,5.33,4.65,5.27s4.45-2.36,4.43-5.52c0-2.38-1.33-5.39-4.59-5.33S248.31,54.89,248.4,57.56Z"/><path d="M263.9,64.35l.09-12.1h-2.12V50.3H264v-.67a6.24,6.24,0,0,1,1.82-4.88,5.6,5.6,0,0,1,3.79-1.24A6.86,6.86,0,0,1,272,44c-.14.66-.29,1.31-.43,2a4.64,4.64,0,0,0-1.78-.36c-2.39,0-3,1.86-3.05,4,0,.25,0,.5,0,.75l3.68.07c0,.65,0,1.3-.05,1.94l-3.66-.07q-.07,6.06-.17,12.1Z"/><path d="M293.29,65.08a14.08,14.08,0,0,1-5.46.5c-5.72-.41-9.89-4-9.63-10.46.24-6.11,5-10.09,11.67-9.6a12,12,0,0,1,5,1.27l-.84,2a10.54,10.54,0,0,0-4.24-1.15c-5-.36-8.5,2.41-8.75,7.54-.23,4.78,2.5,8,7.47,8.34a11.56,11.56,0,0,0,4.38-.47C293,63.72,293.16,64.4,293.29,65.08Z"/><path d="M298.37,45.5l2.8.27c-.3,2.91-.59,5.81-.89,8.72h.07a4.92,4.92,0,0,1,2.15-1.58,5.89,5.89,0,0,1,2.89-.41c2.05.23,5.16,1.79,4.53,6.6-.35,2.76-.71,5.52-1.06,8.28l-2.65-.33,1-8c.28-2.25-.39-4.26-3-4.55a3.9,3.9,0,0,0-3.94,2.14,2.89,2.89,0,0,0-.31,1.2c-.28,2.8-.57,5.61-.85,8.42L296.43,66Q297.4,55.76,298.37,45.5Z"/><path d="M321.21,69.17c0-.59.05-1.18.07-1.78h-.09a5.67,5.67,0,0,1-4.77,1.37c-2.94-.43-4.17-2.61-3.9-4.63.45-3.36,3.91-4.79,9.66-3.84,0-.1,0-.19,0-.29.19-1.14.18-3.27-2.89-3.74a7.91,7.91,0,0,0-4.06.46L314.88,55a9.86,9.86,0,0,1,5.13-.51c4.63.71,5.26,3.81,4.79,6.58l-.87,5.18a18.31,18.31,0,0,0-.32,3.36ZM322,62c-2.93-.54-6.34-.53-6.73,2.17A2.33,2.33,0,0,0,317.39,67a3.7,3.7,0,0,0,3.9-1.77,2.52,2.52,0,0,0,.28-.78Z"/><path d="M331.26,50c.93.16,1.86.33,2.78.51l-1.61,8.61h.06a5,5,0,0,1,2.29-1.4,5.94,5.94,0,0,1,2.92-.16c2,.4,5,2.22,4,6.95q-.89,4.1-1.75,8.17l-2.63-.55c.55-2.63,1.09-5.27,1.64-7.9.46-2.21,0-4.28-2.61-4.79a3.92,3.92,0,0,0-4.11,1.81,2.88,2.88,0,0,0-.41,1.17l-1.56,8.32-2.63-.48Q329.45,60.13,331.26,50Z"/><path d="M351.35,56.74l-.93,3.92,3.88.93c-.16.63-.31,1.26-.47,1.89L350,62.55l-1.74,7.37c-.39,1.7-.11,2.78,1.35,3.13a6.89,6.89,0,0,0,1.56.2c-.12.63-.23,1.26-.34,1.88a6.88,6.88,0,0,1-2.4-.22,3.86,3.86,0,0,1-2.57-1.7c-.58-.91-.57-2.19-.2-3.8.57-2.49,1.13-5,1.7-7.47l-2.3-.51.42-1.9,2.31.52.75-3.28C349.46,56.75,350.4,56.74,351.35,56.74Z"/><path d="M361.78,78.07l.27-1.77-.09,0a5.7,5.7,0,0,1-4.92.83c-2.88-.76-3.88-3.06-3.39-5,.82-3.29,4.43-4.33,10.07-2.75,0-.09,0-.18.08-.28.31-1.11.54-3.23-2.48-4a7.84,7.84,0,0,0-4.11,0c-.06-.6-.13-1.19-.2-1.79a10,10,0,0,1,5.19.07c4.54,1.22,4.83,4.38,4.06,7.08l-1.44,5.05a18.49,18.49,0,0,0-.68,3.3Zm1.53-7c-2.87-.86-6.28-1.24-7,1.41a2.34,2.34,0,0,0,1.85,3,3.74,3.74,0,0,0,4.1-1.32,2.73,2.73,0,0,0,.36-.75C362.88,72.62,363.09,71.84,363.31,71.06Z"/><path d="M382.93,64l-6,18.61-2.54-.82q3-9.31,5.89-18.64Z"/><path d="M384.81,74.45c.47-1.38.82-2.51,1.1-3.64l2.32.79-.62,2.18.09,0a5.33,5.33,0,0,1,5.42-.83,4.5,4.5,0,0,1,3.12,4.14l.06,0a6,6,0,0,1,2.25-1.1,5.58,5.58,0,0,1,3.55.29c1.91.74,4.29,3,2.46,7.53l-3.09,7.66-2.46-1,2.91-7.39c1-2.51.58-4.42-1.53-5.23a3.51,3.51,0,0,0-3.9,1,3.84,3.84,0,0,0-.66,1.11q-1.51,4.06-3,8.13l-2.48-.92c1-2.63,1.93-5.27,2.89-7.9.77-2.1.32-4-1.69-4.71a3.7,3.7,0,0,0-4.09,1.26A3.18,3.18,0,0,0,386.8,77c-.92,2.67-1.85,5.33-2.77,8l-2.5-.85Q383.18,79.29,384.81,74.45Z"/><path d="M409.48,83.74c.56-1.34,1-2.45,1.34-3.56l2.28,1-.77,2.13.09,0a5.35,5.35,0,0,1,5.49-.44,4.5,4.5,0,0,1,2.86,4.35l.06,0a5.9,5.9,0,0,1,2.33-1,5.63,5.63,0,0,1,3.54.55c1.87.88,4.11,3.31,2,7.69q-1.8,3.72-3.61,7.44l-2.4-1.16,3.41-7.17c1.16-2.44.88-4.38-1.18-5.34a3.56,3.56,0,0,0-4,.72,3.8,3.8,0,0,0-.73,1.07c-1.2,2.63-2.39,5.26-3.59,7.9l-2.43-1.1q1.71-3.84,3.43-7.68c.91-2,.58-4-1.39-4.83a3.73,3.73,0,0,0-4.19,1,3.09,3.09,0,0,0-.69,1.06q-1.67,3.9-3.31,7.79l-2.45-1Z"/><path d="M439.94,89.29a1.8,1.8,0,0,1-3.18-1.6,1.66,1.66,0,0,1,2.32-.62A1.61,1.61,0,0,1,439.94,89.29Zm-10.89,14.65,6.27-12.56,2.54,1.28-6.36,12.51Z"/><g class="cls-7"><path class="cls-8" d="M555,120.36H538.65v-10.9q0-4.75-.52-5.94a2.26,2.26,0,0,0-2.3-1.18,2.41,2.41,0,0,0-2.56,1.44,21.87,21.87,0,0,0-.54,6.2v29.14a20.36,20.36,0,0,0,.54,6,2.77,2.77,0,0,0,4.82,0c.38-.93.56-3.12.56-6.56v-7.89H555v2.45q0,9.73-1.38,13.81a14.09,14.09,0,0,1-6.08,7.14,20.79,20.79,0,0,1-11.61,3.07,24.05,24.05,0,0,1-11.82-2.6,12.63,12.63,0,0,1-6.16-7.19q-1.5-4.59-1.51-13.81V115.17a81.26,81.26,0,0,1,.47-10.17,14.2,14.2,0,0,1,2.77-6.53A15.43,15.43,0,0,1,526,93.53a23.15,23.15,0,0,1,9.4-1.8q7.2,0,11.89,2.78a13.43,13.43,0,0,1,6.17,6.95Q555,105.62,555,114.4Z"/><path class="cls-8" d="M597.9,93V135a73.13,73.13,0,0,1-.46,10,13.68,13.68,0,0,1-2.75,5.93,14.44,14.44,0,0,1-6,4.61,22.78,22.78,0,0,1-8.82,1.57,24.83,24.83,0,0,1-9.92-1.86,15,15,0,0,1-6.43-4.85A13.42,13.42,0,0,1,561,144.1q-.39-3.32-.38-13.93V93H576.9v47.05a19,19,0,0,0,.44,5.25,1.76,1.76,0,0,0,1.81,1.14,1.88,1.88,0,0,0,2-1.26,23.23,23.23,0,0,0,.45-5.95V93Z"/><path class="cls-8" d="M620.53,93v50.19h9.92v12.55H604.22V93Z"/><path class="cls-8" d="M661.57,93V105.6h-9.69v50.18H635.57V105.6h-9.65V93Z"/><path class="cls-8" d="M702.37,93V135a73.13,73.13,0,0,1-.46,10,13.59,13.59,0,0,1-2.76,5.93,14.34,14.34,0,0,1-6,4.61,22.78,22.78,0,0,1-8.82,1.57,24.83,24.83,0,0,1-9.92-1.86,15,15,0,0,1-6.43-4.85,13.42,13.42,0,0,1-2.52-6.29q-.39-3.32-.39-13.93V93h16.32v47.05a19,19,0,0,0,.44,5.25,1.76,1.76,0,0,0,1.81,1.14,1.88,1.88,0,0,0,2-1.26,23.23,23.23,0,0,0,.45-5.95V93Z"/><path class="cls-8" d="M708.69,93h11.54q11.55,0,15.64.9a10.73,10.73,0,0,1,6.66,4.55q2.58,3.66,2.58,11.68,0,7.32-1.82,9.84t-7.17,3q4.85,1.2,6.51,3.21a9.66,9.66,0,0,1,2.07,3.7c.28,1.13.41,4.22.41,9.28v16.55H730V134.93c0-3.36-.26-5.43-.79-6.24s-1.92-1.2-4.17-1.2v28.29H708.69ZM725,103.78v14a7.15,7.15,0,0,0,3.86-.76c.73-.5,1.1-2.14,1.1-4.9v-3.45c0-2-.36-3.29-1.07-3.91S726.89,103.78,725,103.78Z"/><path class="cls-8" d="M779.63,93,789,155.78H772.28l-.87-11.28h-5.84l-1,11.28H747.73L756.05,93ZM771,133.38q-1.23-10.65-2.48-26.35-2.5,18-3.13,26.35Z"/><path class="cls-8" d="M808,93v50.19H818v12.55H791.73V93Z"/><path class="cls-8" d="M874.69,93l-8.3,62.74H841.61L832.18,93h17.21q3,25.93,4.28,43.87,1.26-18.14,2.68-32.2L857.49,93Z"/><path class="cls-8" d="M893.75,93v62.74H877.44V93Z"/><path class="cls-8" d="M900.3,93h12.21q11.82,0,16,1.09a12.27,12.27,0,0,1,6.34,3.56,11.28,11.28,0,0,1,2.71,5.53,83.69,83.69,0,0,1,.54,12v22q0,8.45-.79,11.3a8.45,8.45,0,0,1-2.77,4.45,11.52,11.52,0,0,1-4.88,2.25,43.88,43.88,0,0,1-8.76.64H900.3Zm16.32,10.74v41.27c2.35,0,3.79-.47,4.34-1.42s.81-3.51.81-7.69V111.57a33,33,0,0,0-.27-5.47,2.59,2.59,0,0,0-1.24-1.76A8.13,8.13,0,0,0,916.62,103.78Z"/><path class="cls-8" d="M944.17,93h27.2V105.6H960.48v11.9h10.19v11.93H960.48v13.8h12v12.55H944.17Z"/><path class="cls-8" d="M1014.42,129.78q0,9.45-.45,13.39a14.8,14.8,0,0,1-2.79,7.18,15,15,0,0,1-6.33,5,22.93,22.93,0,0,1-9.3,1.75,23.58,23.58,0,0,1-9-1.65,15.1,15.1,0,0,1-9.36-12.11,132.76,132.76,0,0,1-.46-13.56V119.05q0-9.47.44-13.39a15,15,0,0,1,9.13-12.19,23.1,23.1,0,0,1,9.3-1.74,23.81,23.81,0,0,1,9.05,1.64,15.1,15.1,0,0,1,9.36,12.11q.45,3.88.46,13.57Zm-16.31-20.62a19.56,19.56,0,0,0-.49-5.6,1.93,1.93,0,0,0-2-1.22,2.22,2.22,0,0,0-2,1c-.45.66-.68,2.61-.68,5.83v29.3q0,5.46.45,6.74a1.93,1.93,0,0,0,2.07,1.28,2,2,0,0,0,2.13-1.47,30.94,30.94,0,0,0,.47-7Z"/><path class="cls-8" d="M620.09,188.27h27.62v12.56H636.4v11.9h10.07v11.93H636.4V251H620.09Z"/><path class="cls-8" d="M651.67,188.27h27.2v12.56H668v11.9h10.19v11.93H668v13.8h12V251H651.67Z"/><path class="cls-8" d="M712.84,188.27,722.17,251H705.5l-.88-11.28h-5.83l-1,11.28H680.94l8.32-62.74Zm-8.64,40.34Q703,218,701.71,202.26q-2.49,18-3.13,26.35Z"/><path class="cls-8" d="M753.42,188.27v12.56h-9.68V251H727.42V200.83h-9.65V188.27Z"/><path class="cls-8" d="M794.23,188.27V230.2a72.58,72.58,0,0,1-.47,10,13.68,13.68,0,0,1-2.75,5.93,14.23,14.23,0,0,1-6,4.61,22.77,22.77,0,0,1-8.81,1.57,24.79,24.79,0,0,1-9.92-1.86,14.9,14.9,0,0,1-6.43-4.85,13.38,13.38,0,0,1-2.52-6.29q-.39-3.32-.39-13.93V188.27h16.31v47a18.36,18.36,0,0,0,.45,5.25,1.75,1.75,0,0,0,1.8,1.14,1.9,1.9,0,0,0,2-1.26,23.91,23.91,0,0,0,.44-5.95V188.27Z"/><path class="cls-8" d="M800.54,188.27h11.55q11.55,0,15.63.9a10.75,10.75,0,0,1,6.67,4.55Q837,197.38,837,205.4c0,4.88-.61,8.17-1.82,9.84s-3.61,2.69-7.17,3q4.85,1.2,6.51,3.21a9.66,9.66,0,0,1,2.07,3.7,58.52,58.52,0,0,1,.41,9.28V251H821.82V230.16q0-5-.8-6.24c-.53-.8-1.92-1.2-4.16-1.2V251H800.54ZM816.86,199v14a7.11,7.11,0,0,0,3.85-.76q1.11-.75,1.11-4.9v-3.45c0-2-.36-3.29-1.07-3.91S818.74,199,816.86,199Z"/><path class="cls-8" d="M843.28,188.27h27.2v12.56H859.6v11.9h10.19v11.93H859.6v13.8h12V251H843.28Z"/><path class="cls-8" d="M910.82,207.26H895.67v-4.65c0-2.17-.19-3.55-.58-4.14a2.13,2.13,0,0,0-1.94-.9,2.46,2.46,0,0,0-2.22,1.21,6.88,6.88,0,0,0-.76,3.64,10.27,10.27,0,0,0,.85,4.73q.81,1.59,4.61,3.84,10.89,6.47,13.72,10.61T912.18,235q0,6.71-1.57,9.88c-1.05,2.12-3.07,3.89-6.06,5.33a24.08,24.08,0,0,1-10.47,2.15,23.46,23.46,0,0,1-11.18-2.48q-4.62-2.49-6.06-6.32c-1-2.56-1.43-6.18-1.43-10.89v-4.1h15.15v7.63c0,2.35.21,3.86.64,4.53a2.44,2.44,0,0,0,2.26,1,2.67,2.67,0,0,0,2.43-1.28,7.3,7.3,0,0,0,.79-3.8c0-3.69-.5-6.11-1.51-7.24s-3.58-3-7.63-5.7a73.65,73.65,0,0,1-8.07-5.85,13.76,13.76,0,0,1-3.27-5,22,22,0,0,1-1.3-8.21q0-7.22,1.84-10.54a12.39,12.39,0,0,1,6-5.21,23.64,23.64,0,0,1,9.92-1.88,25.81,25.81,0,0,1,10.83,2q4.47,2.06,5.93,5.17t1.45,10.6Z"/></g><path class="cls-9" d="M555,118.36H538.65v-10.9q0-4.75-.52-5.94a2.26,2.26,0,0,0-2.3-1.18,2.41,2.41,0,0,0-2.56,1.44,21.87,21.87,0,0,0-.54,6.2v29.14a20.36,20.36,0,0,0,.54,6,2.77,2.77,0,0,0,4.82,0c.38-.93.56-3.12.56-6.56v-7.89H555v2.45q0,9.73-1.38,13.81a14.09,14.09,0,0,1-6.08,7.14,20.79,20.79,0,0,1-11.61,3.07,24.05,24.05,0,0,1-11.82-2.6,12.63,12.63,0,0,1-6.16-7.19q-1.5-4.59-1.51-13.81V113.17a81.26,81.26,0,0,1,.47-10.17,14.2,14.2,0,0,1,2.77-6.53A15.43,15.43,0,0,1,526,91.53a23.15,23.15,0,0,1,9.4-1.8q7.2,0,11.89,2.78a13.43,13.43,0,0,1,6.17,6.95Q555,103.62,555,112.4Z"/><path class="cls-9" d="M597.9,91V133a73.13,73.13,0,0,1-.46,10,13.68,13.68,0,0,1-2.75,5.93,14.44,14.44,0,0,1-6,4.61,22.78,22.78,0,0,1-8.82,1.57,24.83,24.83,0,0,1-9.92-1.86,15,15,0,0,1-6.43-4.85A13.42,13.42,0,0,1,561,142.1q-.39-3.32-.38-13.93V91H576.9v47.05a19,19,0,0,0,.44,5.25,1.76,1.76,0,0,0,1.81,1.14,1.88,1.88,0,0,0,2-1.26,23.23,23.23,0,0,0,.45-5.95V91Z"/><path class="cls-9" d="M620.53,91v50.19h9.92v12.55H604.22V91Z"/><path class="cls-9" d="M661.57,91V103.6h-9.69v50.18H635.57V103.6h-9.65V91Z"/><path class="cls-9" d="M702.37,91V133a73.13,73.13,0,0,1-.46,10,13.59,13.59,0,0,1-2.76,5.93,14.34,14.34,0,0,1-6,4.61,22.78,22.78,0,0,1-8.82,1.57,24.83,24.83,0,0,1-9.92-1.86,15,15,0,0,1-6.43-4.85,13.42,13.42,0,0,1-2.52-6.29q-.39-3.32-.39-13.93V91h16.32v47.05a19,19,0,0,0,.44,5.25,1.76,1.76,0,0,0,1.81,1.14,1.88,1.88,0,0,0,2-1.26,23.23,23.23,0,0,0,.45-5.95V91Z"/><path class="cls-9" d="M708.69,91h11.54q11.55,0,15.64.9a10.73,10.73,0,0,1,6.66,4.55q2.58,3.66,2.58,11.68,0,7.32-1.82,9.84t-7.17,3q4.85,1.2,6.51,3.21a9.66,9.66,0,0,1,2.07,3.7c.28,1.13.41,4.22.41,9.28v16.55H730V132.93c0-3.36-.26-5.43-.79-6.24s-1.92-1.2-4.17-1.2v28.29H708.69ZM725,101.78v14a7.15,7.15,0,0,0,3.86-.76c.73-.5,1.1-2.14,1.1-4.9v-3.45c0-2-.36-3.29-1.07-3.91S726.89,101.78,725,101.78Z"/><path class="cls-9" d="M779.63,91,789,153.78H772.28l-.87-11.28h-5.84l-1,11.28H747.73L756.05,91ZM771,131.38q-1.23-10.65-2.48-26.35-2.5,18-3.13,26.35Z"/><path class="cls-9" d="M808,91v50.19H818v12.55H791.73V91Z"/><path class="cls-9" d="M874.69,91l-8.3,62.74H841.61L832.18,91h17.21q3,25.93,4.28,43.87,1.26-18.14,2.68-32.2L857.49,91Z"/><path class="cls-9" d="M893.75,91v62.74H877.44V91Z"/><path class="cls-9" d="M900.3,91h12.21q11.82,0,16,1.09a12.27,12.27,0,0,1,6.34,3.56,11.28,11.28,0,0,1,2.71,5.53,83.69,83.69,0,0,1,.54,12v22q0,8.45-.79,11.3a8.45,8.45,0,0,1-2.77,4.45,11.52,11.52,0,0,1-4.88,2.25,43.88,43.88,0,0,1-8.76.64H900.3Zm16.32,10.74v41.27c2.35,0,3.79-.47,4.34-1.42s.81-3.51.81-7.69V109.57a33,33,0,0,0-.27-5.47,2.59,2.59,0,0,0-1.24-1.76A8.13,8.13,0,0,0,916.62,101.78Z"/><path class="cls-9" d="M944.17,91h27.2V103.6H960.48v11.9h10.19v11.93H960.48v13.8h12v12.55H944.17Z"/><path class="cls-9" d="M1014.42,127.78q0,9.45-.45,13.39a14.8,14.8,0,0,1-2.79,7.18,15,15,0,0,1-6.33,5,22.93,22.93,0,0,1-9.3,1.75,23.58,23.58,0,0,1-9-1.65,15.1,15.1,0,0,1-9.36-12.11,132.76,132.76,0,0,1-.46-13.56V117.05q0-9.47.44-13.39a15,15,0,0,1,9.13-12.19,23.1,23.1,0,0,1,9.3-1.74,23.81,23.81,0,0,1,9.05,1.64,15.1,15.1,0,0,1,9.36,12.11q.45,3.88.46,13.57Zm-16.31-20.62a19.56,19.56,0,0,0-.49-5.6,1.93,1.93,0,0,0-2-1.22,2.22,2.22,0,0,0-2,1c-.45.66-.68,2.61-.68,5.83v29.3q0,5.46.45,6.74a1.93,1.93,0,0,0,2.07,1.28,2,2,0,0,0,2.13-1.47,30.94,30.94,0,0,0,.47-7Z"/><path class="cls-9" d="M620.09,186.27h27.62v12.56H636.4v11.9h10.07v11.93H636.4V249H620.09Z"/><path class="cls-9" d="M651.67,186.27h27.2v12.56H668v11.9h10.19v11.93H668v13.8h12V249H651.67Z"/><path class="cls-9" d="M712.84,186.27,722.17,249H705.5l-.88-11.28h-5.83l-1,11.28H680.94l8.32-62.74Zm-8.64,40.34Q703,216,701.71,200.26q-2.49,18-3.13,26.35Z"/><path class="cls-9" d="M753.42,186.27v12.56h-9.68V249H727.42V198.83h-9.65V186.27Z"/><path class="cls-9" d="M794.23,186.27V228.2a72.58,72.58,0,0,1-.47,10,13.68,13.68,0,0,1-2.75,5.93,14.23,14.23,0,0,1-6,4.61,22.77,22.77,0,0,1-8.81,1.57,24.79,24.79,0,0,1-9.92-1.86,14.9,14.9,0,0,1-6.43-4.85,13.38,13.38,0,0,1-2.52-6.29q-.39-3.32-.39-13.93V186.27h16.31v47a18.36,18.36,0,0,0,.45,5.25,1.75,1.75,0,0,0,1.8,1.14,1.9,1.9,0,0,0,2-1.26,23.91,23.91,0,0,0,.44-5.95V186.27Z"/><path class="cls-9" d="M800.54,186.27h11.55q11.55,0,15.63.9a10.75,10.75,0,0,1,6.67,4.55Q837,195.38,837,203.4c0,4.88-.61,8.17-1.82,9.84s-3.61,2.69-7.17,3q4.85,1.2,6.51,3.21a9.66,9.66,0,0,1,2.07,3.7,58.52,58.52,0,0,1,.41,9.28V249H821.82V228.16q0-5-.8-6.24c-.53-.8-1.92-1.2-4.16-1.2V249H800.54ZM816.86,197v14a7.11,7.11,0,0,0,3.85-.76q1.11-.75,1.11-4.9v-3.45c0-2-.36-3.29-1.07-3.91S818.74,197,816.86,197Z"/><path class="cls-9" d="M843.28,186.27h27.2v12.56H859.6v11.9h10.19v11.93H859.6v13.8h12V249H843.28Z"/><path class="cls-9" d="M910.82,205.26H895.67v-4.65c0-2.17-.19-3.55-.58-4.14a2.13,2.13,0,0,0-1.94-.9,2.46,2.46,0,0,0-2.22,1.21,6.88,6.88,0,0,0-.76,3.64,10.27,10.27,0,0,0,.85,4.73q.81,1.59,4.61,3.84,10.89,6.47,13.72,10.61T912.18,233q0,6.71-1.57,9.88c-1.05,2.12-3.07,3.89-6.06,5.33a24.08,24.08,0,0,1-10.47,2.15,23.46,23.46,0,0,1-11.18-2.48q-4.62-2.49-6.06-6.32c-1-2.56-1.43-6.18-1.43-10.89v-4.1h15.15v7.63c0,2.35.21,3.86.64,4.53a2.44,2.44,0,0,0,2.26,1,2.67,2.67,0,0,0,2.43-1.28,7.3,7.3,0,0,0,.79-3.8c0-3.69-.5-6.11-1.51-7.24s-3.58-3-7.63-5.7a73.65,73.65,0,0,1-8.07-5.85,13.76,13.76,0,0,1-3.27-5,22,22,0,0,1-1.3-8.21q0-7.22,1.84-10.54a12.39,12.39,0,0,1,6-5.21,23.64,23.64,0,0,1,9.92-1.88,25.81,25.81,0,0,1,10.83,2q4.47,2.06,5.93,5.17t1.45,10.6Z"/><path class="cls-10" d="M555,118.36H538.65v-10.9q0-4.75-.52-5.94a2.26,2.26,0,0,0-2.3-1.18,2.41,2.41,0,0,0-2.56,1.44,21.87,21.87,0,0,0-.54,6.2v29.14a20.36,20.36,0,0,0,.54,6,2.77,2.77,0,0,0,4.82,0c.38-.93.56-3.12.56-6.56v-7.89H555v2.45q0,9.73-1.38,13.81a14.09,14.09,0,0,1-6.08,7.14,20.79,20.79,0,0,1-11.61,3.07,24.05,24.05,0,0,1-11.82-2.6,12.63,12.63,0,0,1-6.16-7.19q-1.5-4.59-1.51-13.81V113.17a81.26,81.26,0,0,1,.47-10.17,14.2,14.2,0,0,1,2.77-6.53A15.43,15.43,0,0,1,526,91.53a23.15,23.15,0,0,1,9.4-1.8q7.2,0,11.89,2.78a13.43,13.43,0,0,1,6.17,6.95Q555,103.62,555,112.4Z"/><path class="cls-11" d="M597.9,91V133a73.13,73.13,0,0,1-.46,10,13.68,13.68,0,0,1-2.75,5.93,14.44,14.44,0,0,1-6,4.61,22.78,22.78,0,0,1-8.82,1.57,24.83,24.83,0,0,1-9.92-1.86,15,15,0,0,1-6.43-4.85A13.42,13.42,0,0,1,561,142.1q-.39-3.32-.38-13.93V91H576.9v47.05a19,19,0,0,0,.44,5.25,1.76,1.76,0,0,0,1.81,1.14,1.88,1.88,0,0,0,2-1.26,23.23,23.23,0,0,0,.45-5.95V91Z"/><path class="cls-12" d="M620.53,91v50.19h9.92v12.55H604.22V91Z"/><path class="cls-13" d="M661.57,91V103.6h-9.69v50.18H635.57V103.6h-9.65V91Z"/><path class="cls-14" d="M702.37,91V133a73.13,73.13,0,0,1-.46,10,13.59,13.59,0,0,1-2.76,5.93,14.34,14.34,0,0,1-6,4.61,22.78,22.78,0,0,1-8.82,1.57,24.83,24.83,0,0,1-9.92-1.86,15,15,0,0,1-6.43-4.85,13.42,13.42,0,0,1-2.52-6.29q-.39-3.32-.39-13.93V91h16.32v47.05a19,19,0,0,0,.44,5.25,1.76,1.76,0,0,0,1.81,1.14,1.88,1.88,0,0,0,2-1.26,23.23,23.23,0,0,0,.45-5.95V91Z"/><path class="cls-15" d="M708.69,91h11.54q11.55,0,15.64.9a10.73,10.73,0,0,1,6.66,4.55q2.58,3.66,2.58,11.68,0,7.32-1.82,9.84t-7.17,3q4.85,1.2,6.51,3.21a9.66,9.66,0,0,1,2.07,3.7c.28,1.13.41,4.22.41,9.28v16.55H730V132.93c0-3.36-.26-5.43-.79-6.24s-1.92-1.2-4.17-1.2v28.29H708.69ZM725,101.78v14a7.15,7.15,0,0,0,3.86-.76c.73-.5,1.1-2.14,1.1-4.9v-3.45c0-2-.36-3.29-1.07-3.91S726.89,101.78,725,101.78Z"/><path class="cls-16" d="M779.63,91,789,153.78H772.28l-.87-11.28h-5.84l-1,11.28H747.73L756.05,91ZM771,131.38q-1.23-10.65-2.48-26.35-2.5,18-3.13,26.35Z"/><path class="cls-17" d="M808,91v50.19H818v12.55H791.73V91Z"/><path class="cls-18" d="M874.69,91l-8.3,62.74H841.61L832.18,91h17.21q3,25.93,4.28,43.87,1.26-18.14,2.68-32.2L857.49,91Z"/><path class="cls-19" d="M893.75,91v62.74H877.44V91Z"/><path class="cls-20" d="M900.3,91h12.21q11.82,0,16,1.09a12.27,12.27,0,0,1,6.34,3.56,11.28,11.28,0,0,1,2.71,5.53,83.69,83.69,0,0,1,.54,12v22q0,8.45-.79,11.3a8.45,8.45,0,0,1-2.77,4.45,11.52,11.52,0,0,1-4.88,2.25,43.88,43.88,0,0,1-8.76.64H900.3Zm16.32,10.74v41.27c2.35,0,3.79-.47,4.34-1.42s.81-3.51.81-7.69V109.57a33,33,0,0,0-.27-5.47,2.59,2.59,0,0,0-1.24-1.76A8.13,8.13,0,0,0,916.62,101.78Z"/><path class="cls-21" d="M944.17,91h27.2V103.6H960.48v11.9h10.19v11.93H960.48v13.8h12v12.55H944.17Z"/><path class="cls-22" d="M1014.42,127.78q0,9.45-.45,13.39a14.8,14.8,0,0,1-2.79,7.18,15,15,0,0,1-6.33,5,22.93,22.93,0,0,1-9.3,1.75,23.58,23.58,0,0,1-9-1.65,15.1,15.1,0,0,1-9.36-12.11,132.76,132.76,0,0,1-.46-13.56V117.05q0-9.47.44-13.39a15,15,0,0,1,9.13-12.19,23.1,23.1,0,0,1,9.3-1.74,23.81,23.81,0,0,1,9.05,1.64,15.1,15.1,0,0,1,9.36,12.11q.45,3.88.46,13.57Zm-16.31-20.62a19.56,19.56,0,0,0-.49-5.6,1.93,1.93,0,0,0-2-1.22,2.22,2.22,0,0,0-2,1c-.45.66-.68,2.61-.68,5.83v29.3q0,5.46.45,6.74a1.93,1.93,0,0,0,2.07,1.28,2,2,0,0,0,2.13-1.47,30.94,30.94,0,0,0,.47-7Z"/><path class="cls-23" d="M620.09,186.27h27.62v12.56H636.4v11.9h10.07v11.93H636.4V249H620.09Z"/><path class="cls-24" d="M651.67,186.27h27.2v12.56H668v11.9h10.19v11.93H668v13.8h12V249H651.67Z"/><path class="cls-25" d="M712.84,186.27,722.17,249H705.5l-.88-11.28h-5.83l-1,11.28H680.94l8.32-62.74Zm-8.64,40.34Q703,216,701.71,200.26q-2.49,18-3.13,26.35Z"/><path class="cls-26" d="M753.42,186.27v12.56h-9.68V249H727.42V198.83h-9.65V186.27Z"/><path class="cls-27" d="M794.23,186.27V228.2a72.58,72.58,0,0,1-.47,10,13.68,13.68,0,0,1-2.75,5.93,14.23,14.23,0,0,1-6,4.61,22.77,22.77,0,0,1-8.81,1.57,24.79,24.79,0,0,1-9.92-1.86,14.9,14.9,0,0,1-6.43-4.85,13.38,13.38,0,0,1-2.52-6.29q-.39-3.32-.39-13.93V186.27h16.31v47a18.36,18.36,0,0,0,.45,5.25,1.75,1.75,0,0,0,1.8,1.14,1.9,1.9,0,0,0,2-1.26,23.91,23.91,0,0,0,.44-5.95V186.27Z"/><path class="cls-28" d="M800.54,186.27h11.55q11.55,0,15.63.9a10.75,10.75,0,0,1,6.67,4.55Q837,195.38,837,203.4c0,4.88-.61,8.17-1.82,9.84s-3.61,2.69-7.17,3q4.85,1.2,6.51,3.21a9.66,9.66,0,0,1,2.07,3.7,58.52,58.52,0,0,1,.41,9.28V249H821.82V228.16q0-5-.8-6.24c-.53-.8-1.92-1.2-4.16-1.2V249H800.54ZM816.86,197v14a7.11,7.11,0,0,0,3.85-.76q1.11-.75,1.11-4.9v-3.45c0-2-.36-3.29-1.07-3.91S818.74,197,816.86,197Z"/><path class="cls-29" d="M843.28,186.27h27.2v12.56H859.6v11.9h10.19v11.93H859.6v13.8h12V249H843.28Z"/><path class="cls-30" d="M910.82,205.26H895.67v-4.65c0-2.17-.19-3.55-.58-4.14a2.13,2.13,0,0,0-1.94-.9,2.46,2.46,0,0,0-2.22,1.21,6.88,6.88,0,0,0-.76,3.64,10.27,10.27,0,0,0,.85,4.73q.81,1.59,4.61,3.84,10.89,6.47,13.72,10.61T912.18,233q0,6.71-1.57,9.88c-1.05,2.12-3.07,3.89-6.06,5.33a24.08,24.08,0,0,1-10.47,2.15,23.46,23.46,0,0,1-11.18-2.48q-4.62-2.49-6.06-6.32c-1-2.56-1.43-6.18-1.43-10.89v-4.1h15.15v7.63c0,2.35.21,3.86.64,4.53a2.44,2.44,0,0,0,2.26,1,2.67,2.67,0,0,0,2.43-1.28,7.3,7.3,0,0,0,.79-3.8c0-3.69-.5-6.11-1.51-7.24s-3.58-3-7.63-5.7a73.65,73.65,0,0,1-8.07-5.85,13.76,13.76,0,0,1-3.27-5,22,22,0,0,1-1.3-8.21q0-7.22,1.84-10.54a12.39,12.39,0,0,1,6-5.21,23.64,23.64,0,0,1,9.92-1.88,25.81,25.81,0,0,1,10.83,2q4.47,2.06,5.93,5.17t1.45,10.6Z"/></g></svg>