<svg xmlns="http://www.w3.org/2000/svg" xmlns:xlink="http://www.w3.org/1999/xlink" viewBox="0 0 371.43 371.43"><defs><style>.cls-1{fill:#37353c;}.cls-2{fill:#92864f;}.cls-3{fill:#231f20;}.cls-4{fill:url(#linear-gradient);}.cls-5{fill:url(#linear-gradient-2);}.cls-6{fill:url(#New_Gradient_Swatch_copy_2);}.cls-7{fill:url(#New_Gradient_Swatch_copy_2-2);}.cls-8{fill:url(#New_Gradient_Swatch_copy_2-3);}.cls-9{fill:url(#New_Gradient_Swatch_copy_2-4);}.cls-10{fill:url(#New_Gradient_Swatch_copy_2-5);}.cls-11{fill:url(#New_Gradient_Swatch_copy_2-6);}.cls-12{fill:url(#New_Gradient_Swatch_copy_2-7);}.cls-13{fill:none;stroke:#625b32;stroke-miterlimit:10;}</style><linearGradient id="linear-gradient" x1="3024.75" y1="1766.71" x2="3231.68" y2="1559.79" gradientTransform="translate(-1570.39 3406.79) rotate(-90)" gradientUnits="userSpaceOnUse"><stop offset="0" stop-color="#c09d30"/><stop offset="0.35" stop-color="#d0a641"/><stop offset="0.5" stop-color="#fffac4"/><stop offset="0.65" stop-color="#d0a641"/><stop offset="1" stop-color="#c09d30"/></linearGradient><linearGradient id="linear-gradient-2" x1="3210.47" y1="1952.43" x2="3417.4" y2="1745.5" xlink:href="#linear-gradient"/><linearGradient id="New_Gradient_Swatch_copy_2" x1="82" y1="132.24" x2="82" y2="222.24" gradientUnits="userSpaceOnUse"><stop offset="0.18" stop-color="#fffac4"/><stop offset="0.21" stop-color="#f9efb4"/><stop offset="0.25" stop-color="#eed893"/><stop offset="0.76" stop-color="#d6b55a"/><stop offset="0.84" stop-color="#d0a641"/><stop offset="0.95" stop-color="#b69238"/></linearGradient><linearGradient id="New_Gradient_Swatch_copy_2-2" x1="122.75" y1="146.87" x2="122.75" y2="222.01" xlink:href="#New_Gradient_Swatch_copy_2"/><linearGradient id="New_Gradient_Swatch_copy_2-3" x1="157.7" y1="146.87" x2="157.7" y2="220.28" xlink:href="#New_Gradient_Swatch_copy_2"/><linearGradient id="New_Gradient_Swatch_copy_2-4" x1="187.57" y1="146.87" x2="187.57" y2="220.28" xlink:href="#New_Gradient_Swatch_copy_2"/><linearGradient id="New_Gradient_Swatch_copy_2-5" x1="223.28" y1="146.87" x2="223.28" y2="222.01" xlink:href="#New_Gradient_Swatch_copy_2"/><linearGradient id="New_Gradient_Swatch_copy_2-6" x1="260.77" y1="146.87" x2="260.77" y2="220.28" xlink:href="#New_Gradient_Swatch_copy_2"/><linearGradient id="New_Gradient_Swatch_copy_2-7" x1="294.98" y1="146.87" x2="294.98" y2="220.28" xlink:href="#New_Gradient_Swatch_copy_2"/></defs><g id="Culture"><g id="Culture-2" data-name="Culture"><polygon class="cls-1" points="0 164.5 0 0 164.5 0 371.43 206.93 371.43 371.43 206.93 371.43 0 164.5"/><polygon class="cls-2" points="35.72 35.72 252.15 119.28 335.71 335.71 119.28 252.15 35.72 35.72"/><polygon class="cls-3" points="0 214 157.43 371.43 214 371.43 0 157.43 0 214"/><polygon class="cls-3" points="371.43 157.43 214.59 0.59 157.43 0 371.43 214 371.43 157.43"/><polygon class="cls-4" points="0 206.93 164.5 371.43 206.93 371.43 0 164.5 0 206.93"/><polygon class="cls-5" points="371.43 164.5 206.93 0 164.5 0 371.43 206.93 371.43 164.5"/></g><path class="cls-3" d="M98.72,132.24v29.83H97.58q-1.29-11.67-4.81-17.9t-8-6.21q-3.72,0-6.82,4.63a32.67,32.67,0,0,0-4.54,12.12A113.21,113.21,0,0,0,71.59,176a150.15,150.15,0,0,0,1.35,21q1.35,9.48,4.22,14.34t7.44,4.86q3.75,0,6.87-3.56t6.58-12.25v7.43q-3.35,7.54-7,10.95a12,12,0,0,1-8.45,3.39q-6.36,0-11.3-5.52t-7.61-15.87a87.29,87.29,0,0,1-2.68-22,89.59,89.59,0,0,1,3-23.36q3-11,8-17.13t10.73-6.1q4.2,0,8.85,3.94c1.8,1.52,2.94,2.28,3.43,2.28s1.16-.49,1.62-1.49a14.19,14.19,0,0,0,.9-4.73Z"/><path class="cls-3" d="M103.2,146.87h17.49v2h-.87a3.39,3.39,0,0,0-2.71.89,5.36,5.36,0,0,0-1,2.47,55.46,55.46,0,0,0-.32,7.85V196q0,9.85.69,13a13.46,13.46,0,0,0,2.26,5.3,4.78,4.78,0,0,0,4,2.12,5.67,5.67,0,0,0,4.69-2.68,19.16,19.16,0,0,0,2.9-7.39q1-4.71,1-16.41V160.08a36.79,36.79,0,0,0-.47-7,6.82,6.82,0,0,0-1.2-2.92,4.07,4.07,0,0,0-3.18-1.25v-2h11.72v2h-.7a2.87,2.87,0,0,0-2.37,1.25,8.54,8.54,0,0,0-1.38,3.73,40.66,40.66,0,0,0-.32,6.23V188a153.23,153.23,0,0,1-.79,18.67,26.1,26.1,0,0,1-3.83,10.56,9.42,9.42,0,0,1-8.32,4.82,8.88,8.88,0,0,1-6.8-2.55,19.54,19.54,0,0,1-4.62-8.88A62.5,62.5,0,0,1,107.6,196V160.08a53.31,53.31,0,0,0-.33-7.88,5.3,5.3,0,0,0-1.12-2.46,3.63,3.63,0,0,0-3-.87Z"/><path class="cls-3" d="M171.27,194.51,170,220.28H139.91v-2H141a2.92,2.92,0,0,0,2.38-1.13,5.81,5.81,0,0,0,1-2.6,46.15,46.15,0,0,0,.28-6.82V159.43a50,50,0,0,0-.28-7,5.54,5.54,0,0,0-1.11-2.46,2.72,2.72,0,0,0-2.26-1.06h-1.12v-2H158v2H156.5a2.88,2.88,0,0,0-2.38,1.14,5.91,5.91,0,0,0-1,2.6,48.17,48.17,0,0,0-.27,6.82V206.2a52.73,52.73,0,0,0,.29,7.17,3.92,3.92,0,0,0,1.18,2.3,5.72,5.72,0,0,0,3,.49h2.83a5.69,5.69,0,0,0,4.49-2.06,17.55,17.55,0,0,0,3.12-6.49,94.77,94.77,0,0,0,2.48-13.1Z"/><path class="cls-3" d="M200.68,146.87v19.86h-.9a57.59,57.59,0,0,0-1.78-9.88,12.42,12.42,0,0,0-2.67-4.79,4.56,4.56,0,0,0-3.32-1h-2.53v56.63a49.15,49.15,0,0,0,.29,7,5.76,5.76,0,0,0,1.12,2.47,2.77,2.77,0,0,0,2.29,1.05h1.12v2H176.56v-2h1.13a2.89,2.89,0,0,0,2.37-1.13,6,6,0,0,0,1-2.6,48.37,48.37,0,0,0,.27-6.82V151.09h-2.45a5.19,5.19,0,0,0-5,3.14q-2.17,4.38-2.75,12.5h-.95V146.87Z"/><path class="cls-3" d="M203.72,146.87h17.5v2h-.88a3.39,3.39,0,0,0-2.71.89,5.58,5.58,0,0,0-1,2.47,56.12,56.12,0,0,0-.31,7.85V196q0,9.85.69,13a13.32,13.32,0,0,0,2.26,5.3,4.77,4.77,0,0,0,4,2.12,5.67,5.67,0,0,0,4.68-2.68,19,19,0,0,0,2.9-7.39q1-4.71,1-16.41V160.08a36,36,0,0,0-.47-7,6.82,6.82,0,0,0-1.2-2.92,4.06,4.06,0,0,0-3.17-1.25v-2h11.72v2h-.7a2.9,2.9,0,0,0-2.38,1.25,8.55,8.55,0,0,0-1.37,3.73,39,39,0,0,0-.33,6.23V188a155.89,155.89,0,0,1-.78,18.67,26.26,26.26,0,0,1-3.84,10.56,9.4,9.4,0,0,1-8.32,4.82,8.89,8.89,0,0,1-6.8-2.55,19.54,19.54,0,0,1-4.62-8.88A62.5,62.5,0,0,1,208.12,196V160.08a55.5,55.5,0,0,0-.32-7.88,5.3,5.3,0,0,0-1.13-2.46,3.62,3.62,0,0,0-2.95-.87Z"/><path class="cls-3" d="M253.07,186.82v20.57a48.76,48.76,0,0,0,.34,7.5,5.16,5.16,0,0,0,1.19,2.46c.56.62,1.62.92,3.17.92v2H240.43v-2c1.57,0,2.63-.31,3.19-1a5.43,5.43,0,0,0,1.17-2.46,48.08,48.08,0,0,0,.34-7.47V159.75a48.76,48.76,0,0,0-.34-7.5,5.07,5.07,0,0,0-1.19-2.46,4.25,4.25,0,0,0-3.17-.92v-2h15.74q6.15,0,9,1.84c1.9,1.22,3.45,3.49,4.64,6.79a34,34,0,0,1,1.8,11.61q0,8.13-2.69,13.43a11.48,11.48,0,0,1-4.83,5l8.15,24.85a43.81,43.81,0,0,0,2.27,6,3.39,3.39,0,0,0,2.38,1.84v2H266.22L255.3,186.82Zm0-36V183h1.43a8.24,8.24,0,0,0,5.2-1.38,9.56,9.56,0,0,0,2.71-5,36.88,36.88,0,0,0,1-9.39q0-8.39-1.81-12.4t-5.83-4Z"/><path class="cls-3" d="M290.38,151.09V181h.67q3.22,0,4.68-4.38a52,52,0,0,0,1.85-12.94h.95v38.44h-.95a56.12,56.12,0,0,0-1.27-10.29q-1-4-2.23-5.39a4.78,4.78,0,0,0-3.7-1.38v20.68a63.29,63.29,0,0,0,.24,7.42,5.2,5.2,0,0,0,.88,2.22,2.46,2.46,0,0,0,2.1.86h2q4.74,0,7.61-4.76t4.11-14.51h.92l-1.52,23.34H277.46v-2h1.13a2.89,2.89,0,0,0,2.37-1.13,5.8,5.8,0,0,0,1-2.6,48.37,48.37,0,0,0,.27-6.82V159.43q0-5-.12-6.12a7.06,7.06,0,0,0-.93-2.92,2.92,2.92,0,0,0-2.59-1.52h-1.13v-2h28.36v21.71h-.95q-.72-8-2-11.43a10.37,10.37,0,0,0-3.71-5.09q-1.41-1-5.25-1Z"/><path class="cls-6" d="M100.83,132.24v29.83H99.69q-1.29-11.67-4.8-17.9t-8-6.21q-3.72,0-6.83,4.63a32.84,32.84,0,0,0-4.54,12.12A113.21,113.21,0,0,0,73.7,176a150.15,150.15,0,0,0,1.35,21q1.35,9.48,4.22,14.34c1.91,3.24,4.4,4.86,7.44,4.86q3.75,0,6.87-3.56t6.58-12.25v7.43q-3.34,7.54-7,10.95a12,12,0,0,1-8.45,3.39q-6.36,0-11.29-5.52t-7.62-15.87a87.29,87.29,0,0,1-2.68-22,89.59,89.59,0,0,1,3-23.36q3-11,8-17.13t10.74-6.1q4.18,0,8.84,3.94c1.8,1.52,2.94,2.28,3.43,2.28S98.34,138,98.8,137a14.23,14.23,0,0,0,.89-4.73Z"/><path class="cls-7" d="M105.31,146.87H122.8v2h-.87a3.39,3.39,0,0,0-2.71.89,5.58,5.58,0,0,0-1,2.47,56.12,56.12,0,0,0-.31,7.85V196q0,9.85.68,13a13.46,13.46,0,0,0,2.26,5.3,4.79,4.79,0,0,0,4,2.12,5.67,5.67,0,0,0,4.68-2.68,19.16,19.16,0,0,0,2.9-7.39q1-4.71,1-16.41V160.08a36.79,36.79,0,0,0-.47-7,6.82,6.82,0,0,0-1.2-2.92,4.06,4.06,0,0,0-3.17-1.25v-2H140.2v2h-.71a2.89,2.89,0,0,0-2.37,1.25,8.55,8.55,0,0,0-1.37,3.73,39,39,0,0,0-.33,6.23V188a153.23,153.23,0,0,1-.79,18.67,26.1,26.1,0,0,1-3.83,10.56,9.41,9.41,0,0,1-8.32,4.82,8.89,8.89,0,0,1-6.8-2.55,19.54,19.54,0,0,1-4.62-8.88A62.5,62.5,0,0,1,109.71,196V160.08a55.5,55.5,0,0,0-.32-7.88,5.41,5.41,0,0,0-1.13-2.46,3.63,3.63,0,0,0-3-.87Z"/><path class="cls-8" d="M173.38,194.51l-1.28,25.77H142v-2h1.12a2.9,2.9,0,0,0,2.38-1.13,5.92,5.92,0,0,0,1-2.6,48.37,48.37,0,0,0,.27-6.82V159.43a52.38,52.38,0,0,0-.27-7,5.77,5.77,0,0,0-1.11-2.46,2.74,2.74,0,0,0-2.27-1.06H142v-2h18.07v2h-1.48a2.87,2.87,0,0,0-2.37,1.14,5.78,5.78,0,0,0-1,2.6,48.17,48.17,0,0,0-.27,6.82V206.2a50.43,50.43,0,0,0,.3,7.17,3.91,3.91,0,0,0,1.17,2.3,5.77,5.77,0,0,0,3,.49h2.82a5.71,5.71,0,0,0,4.5-2.06,17.56,17.56,0,0,0,3.11-6.49,94.77,94.77,0,0,0,2.48-13.1Z"/><path class="cls-9" d="M202.79,146.87v19.86h-.9a56.61,56.61,0,0,0-1.78-9.88,12.42,12.42,0,0,0-2.67-4.79,4.54,4.54,0,0,0-3.32-1h-2.53v56.63a49.15,49.15,0,0,0,.29,7,5.77,5.77,0,0,0,1.13,2.47,2.75,2.75,0,0,0,2.28,1.05h1.13v2H178.68v-2h1.12a2.89,2.89,0,0,0,2.37-1.13,5.89,5.89,0,0,0,1-2.6,48.37,48.37,0,0,0,.27-6.82V151.09H181a5.19,5.19,0,0,0-5,3.14q-2.18,4.38-2.75,12.5h-1V146.87Z"/><path class="cls-10" d="M205.84,146.87h17.49v2h-.88a3.4,3.4,0,0,0-2.71.89,5.58,5.58,0,0,0-1.05,2.47,56.12,56.12,0,0,0-.31,7.85V196q0,9.85.69,13a13.46,13.46,0,0,0,2.26,5.3,4.77,4.77,0,0,0,4,2.12,5.69,5.69,0,0,0,4.69-2.68,19.32,19.32,0,0,0,2.9-7.39q1-4.71,1-16.41V160.08a35.77,35.77,0,0,0-.48-7,6.58,6.58,0,0,0-1.2-2.92,4,4,0,0,0-3.17-1.25v-2h11.72v2H240a2.87,2.87,0,0,0-2.37,1.25,8.42,8.42,0,0,0-1.38,3.73,39.37,39.37,0,0,0-.32,6.23V188a155.34,155.34,0,0,1-.79,18.67,26.11,26.11,0,0,1-3.84,10.56A9.4,9.4,0,0,1,223,222a8.87,8.87,0,0,1-6.79-2.55,19.45,19.45,0,0,1-4.63-8.88A62.5,62.5,0,0,1,210.23,196V160.08a53.92,53.92,0,0,0-.32-7.88,5.4,5.4,0,0,0-1.12-2.46,3.64,3.64,0,0,0-2.95-.87Z"/><path class="cls-11" d="M255.19,186.82v20.57a49.3,49.3,0,0,0,.33,7.5,5.16,5.16,0,0,0,1.19,2.46,4.23,4.23,0,0,0,3.17.92v2H242.54v-2c1.57,0,2.63-.31,3.19-1a5.33,5.33,0,0,0,1.17-2.46,46.77,46.77,0,0,0,.34-7.47V159.75a47.43,47.43,0,0,0-.34-7.5,5.15,5.15,0,0,0-1.18-2.46,4.3,4.3,0,0,0-3.18-.92v-2h15.74q6.15,0,9,1.84c1.9,1.22,3.45,3.49,4.65,6.79a34,34,0,0,1,1.8,11.61q0,8.13-2.7,13.43a11.51,11.51,0,0,1-4.82,5l8.14,24.85a44.74,44.74,0,0,0,2.28,6,3.36,3.36,0,0,0,2.37,1.84v2H268.33l-10.92-33.46Zm0-36V183h1.42a8.22,8.22,0,0,0,5.2-1.38c1.15-.93,2.05-2.58,2.71-5a36.37,36.37,0,0,0,1-9.39q0-8.39-1.82-12.4a6,6,0,0,0-5.83-4Z"/><path class="cls-12" d="M292.49,151.09V181h.68c2.15,0,3.7-1.46,4.67-4.38s1.58-7.24,1.85-12.94h.95v38.44h-.95a57.12,57.12,0,0,0-1.26-10.29q-1-4-2.24-5.39a4.78,4.78,0,0,0-3.7-1.38v20.68a63.29,63.29,0,0,0,.24,7.42,5.08,5.08,0,0,0,.89,2.22,2.44,2.44,0,0,0,2.1.86h2q4.74,0,7.61-4.76t4.11-14.51h.92l-1.52,23.34H279.57v-2h1.13a2.89,2.89,0,0,0,2.37-1.13,5.68,5.68,0,0,0,1-2.6,46.15,46.15,0,0,0,.28-6.82V159.43c0-3.32-.05-5.36-.13-6.12a6.93,6.93,0,0,0-.92-2.92,2.94,2.94,0,0,0-2.6-1.52h-1.13v-2h28.36v21.71H307q-.74-8-2-11.43a10.37,10.37,0,0,0-3.71-5.09q-1.39-1-5.25-1Z"/><path class="cls-13" d="M100.83,132.24v29.83H99.69q-1.29-11.67-4.8-17.9t-8-6.21q-3.72,0-6.83,4.63a32.84,32.84,0,0,0-4.54,12.12A113.21,113.21,0,0,0,73.7,176a150.15,150.15,0,0,0,1.35,21q1.35,9.48,4.22,14.34c1.91,3.24,4.4,4.86,7.44,4.86q3.75,0,6.87-3.56t6.58-12.25v7.43q-3.34,7.54-7,10.95a12,12,0,0,1-8.45,3.39q-6.36,0-11.29-5.52t-7.62-15.87a87.29,87.29,0,0,1-2.68-22,89.59,89.59,0,0,1,3-23.36q3-11,8-17.13t10.74-6.1q4.18,0,8.84,3.94c1.8,1.52,2.94,2.28,3.43,2.28S98.34,138,98.8,137a14.23,14.23,0,0,0,.89-4.73Z"/><path class="cls-13" d="M105.31,146.87H122.8v2h-.87a3.39,3.39,0,0,0-2.71.89,5.58,5.58,0,0,0-1,2.47,56.12,56.12,0,0,0-.31,7.85V196q0,9.85.68,13a13.46,13.46,0,0,0,2.26,5.3,4.79,4.79,0,0,0,4,2.12,5.67,5.67,0,0,0,4.68-2.68,19.16,19.16,0,0,0,2.9-7.39q1-4.71,1-16.41V160.08a36.79,36.79,0,0,0-.47-7,6.82,6.82,0,0,0-1.2-2.92,4.06,4.06,0,0,0-3.17-1.25v-2H140.2v2h-.71a2.89,2.89,0,0,0-2.37,1.25,8.55,8.55,0,0,0-1.37,3.73,39,39,0,0,0-.33,6.23V188a153.23,153.23,0,0,1-.79,18.67,26.1,26.1,0,0,1-3.83,10.56,9.41,9.41,0,0,1-8.32,4.82,8.89,8.89,0,0,1-6.8-2.55,19.54,19.54,0,0,1-4.62-8.88A62.5,62.5,0,0,1,109.71,196V160.08a55.5,55.5,0,0,0-.32-7.88,5.41,5.41,0,0,0-1.13-2.46,3.63,3.63,0,0,0-3-.87Z"/><path class="cls-13" d="M173.38,194.51l-1.28,25.77H142v-2h1.12a2.9,2.9,0,0,0,2.38-1.13,5.92,5.92,0,0,0,1-2.6,48.37,48.37,0,0,0,.27-6.82V159.43a52.38,52.38,0,0,0-.27-7,5.77,5.77,0,0,0-1.11-2.46,2.74,2.74,0,0,0-2.27-1.06H142v-2h18.07v2h-1.48a2.87,2.87,0,0,0-2.37,1.14,5.78,5.78,0,0,0-1,2.6,48.17,48.17,0,0,0-.27,6.82V206.2a50.43,50.43,0,0,0,.3,7.17,3.91,3.91,0,0,0,1.17,2.3,5.77,5.77,0,0,0,3,.49h2.82a5.71,5.71,0,0,0,4.5-2.06,17.56,17.56,0,0,0,3.11-6.49,94.77,94.77,0,0,0,2.48-13.1Z"/><path class="cls-13" d="M202.79,146.87v19.86h-.9a56.61,56.61,0,0,0-1.78-9.88,12.42,12.42,0,0,0-2.67-4.79,4.54,4.54,0,0,0-3.32-1h-2.53v56.63a49.15,49.15,0,0,0,.29,7,5.77,5.77,0,0,0,1.13,2.47,2.75,2.75,0,0,0,2.28,1.05h1.13v2H178.68v-2h1.12a2.89,2.89,0,0,0,2.37-1.13,5.89,5.89,0,0,0,1-2.6,48.37,48.37,0,0,0,.27-6.82V151.09H181a5.19,5.19,0,0,0-5,3.14q-2.18,4.38-2.75,12.5h-1V146.87Z"/><path class="cls-13" d="M205.84,146.87h17.49v2h-.88a3.4,3.4,0,0,0-2.71.89,5.58,5.58,0,0,0-1.05,2.47,56.12,56.12,0,0,0-.31,7.85V196q0,9.85.69,13a13.46,13.46,0,0,0,2.26,5.3,4.77,4.77,0,0,0,4,2.12,5.69,5.69,0,0,0,4.69-2.68,19.32,19.32,0,0,0,2.9-7.39q1-4.71,1-16.41V160.08a35.77,35.77,0,0,0-.48-7,6.58,6.58,0,0,0-1.2-2.92,4,4,0,0,0-3.17-1.25v-2h11.72v2H240a2.87,2.87,0,0,0-2.37,1.25,8.42,8.42,0,0,0-1.38,3.73,39.37,39.37,0,0,0-.32,6.23V188a155.34,155.34,0,0,1-.79,18.67,26.11,26.11,0,0,1-3.84,10.56A9.4,9.4,0,0,1,223,222a8.87,8.87,0,0,1-6.79-2.55,19.45,19.45,0,0,1-4.63-8.88A62.5,62.5,0,0,1,210.23,196V160.08a53.92,53.92,0,0,0-.32-7.88,5.4,5.4,0,0,0-1.12-2.46,3.64,3.64,0,0,0-2.95-.87Z"/><path class="cls-13" d="M255.19,186.82v20.57a49.3,49.3,0,0,0,.33,7.5,5.16,5.16,0,0,0,1.19,2.46,4.23,4.23,0,0,0,3.17.92v2H242.54v-2c1.57,0,2.63-.31,3.19-1a5.33,5.33,0,0,0,1.17-2.46,46.77,46.77,0,0,0,.34-7.47V159.75a47.43,47.43,0,0,0-.34-7.5,5.15,5.15,0,0,0-1.18-2.46,4.3,4.3,0,0,0-3.18-.92v-2h15.74q6.15,0,9,1.84c1.9,1.22,3.45,3.49,4.65,6.79a34,34,0,0,1,1.8,11.61q0,8.13-2.7,13.43a11.51,11.51,0,0,1-4.82,5l8.14,24.85a44.74,44.74,0,0,0,2.28,6,3.36,3.36,0,0,0,2.37,1.84v2H268.33l-10.92-33.46Zm0-36V183h1.42a8.22,8.22,0,0,0,5.2-1.38c1.15-.93,2.05-2.58,2.71-5a36.37,36.37,0,0,0,1-9.39q0-8.39-1.82-12.4a6,6,0,0,0-5.83-4Z"/><path class="cls-13" d="M292.49,151.09V181h.68c2.15,0,3.7-1.46,4.67-4.38s1.58-7.24,1.85-12.94h.95v38.44h-.95a57.12,57.12,0,0,0-1.26-10.29q-1-4-2.24-5.39a4.78,4.78,0,0,0-3.7-1.38v20.68a63.29,63.29,0,0,0,.24,7.42,5.08,5.08,0,0,0,.89,2.22,2.44,2.44,0,0,0,2.1.86h2q4.74,0,7.61-4.76t4.11-14.51h.92l-1.52,23.34H279.57v-2h1.13a2.89,2.89,0,0,0,2.37-1.13,5.68,5.68,0,0,0,1-2.6,46.15,46.15,0,0,0,.28-6.82V159.43c0-3.32-.05-5.36-.13-6.12a6.93,6.93,0,0,0-.92-2.92,2.94,2.94,0,0,0-2.6-1.52h-1.13v-2h28.36v21.71H307q-.74-8-2-11.43a10.37,10.37,0,0,0-3.71-5.09q-1.39-1-5.25-1Z"/></g></svg>