<svg id="Layer_1" data-name="Layer 1" xmlns="http://www.w3.org/2000/svg" xmlns:xlink="http://www.w3.org/1999/xlink" viewBox="0 0 1790 576"><defs><style>.cls-1{stroke:#231f20;fill:url(#radial-gradient);}.cls-1,.cls-4,.cls-6{stroke-miterlimit:10;}.cls-2{fill:#323232;}.cls-3{fill:#969696;}.cls-4,.cls-6{fill:none;}.cls-4{stroke:#969696;stroke-width:10px;}.cls-5{fill:#fff;}.cls-6{stroke:#000;stroke-width:5px;}</style><radialGradient id="radial-gradient" cx="895" cy="288" r="664.82" gradientTransform="translate(0 144) scale(1 0.5)" gradientUnits="userSpaceOnUse"><stop offset="0.05" stop-color="#f03a40"/><stop offset="0.63" stop-color="#ed0024"/><stop offset="1" stop-color="#9d0b0f"/></radialGradient></defs><rect class="cls-1" width="1790" height="576"/><rect class="cls-2" width="148.89" height="576"/><polygon class="cls-3" points="74.44 144 38.44 72 74.44 0 110.44 72 74.44 144"/><polygon class="cls-3" points="74.44 288 38.44 216 74.44 144 110.44 216 74.44 288"/><polygon class="cls-3" points="74.44 432 38.44 360 74.44 288 110.44 360 74.44 432"/><polygon class="cls-3" points="74.44 576 38.44 504 74.44 432 110.44 504 74.44 576"/><line class="cls-4" x1="125.96" x2="125.96" y2="576"/><line class="cls-4" x1="24.09" x2="24.09" y2="576"/><rect class="cls-2" x="1641.11" width="148.89" height="576"/><polygon class="cls-3" points="1715.56 144 1679.56 72 1715.56 0 1751.56 72 1715.56 144"/><polygon class="cls-3" points="1715.56 288 1679.56 216 1715.56 144 1751.56 216 1715.56 288"/><polygon class="cls-3" points="1715.56 432 1679.56 360 1715.56 288 1751.56 360 1715.56 432"/><polygon class="cls-3" points="1715.56 576 1679.56 504 1715.56 432 1751.56 504 1715.56 576"/><line class="cls-4" x1="1767.07" x2="1767.07" y2="576"/><line class="cls-4" x1="1665.21" x2="1665.21" y2="576"/><path class="cls-5" d="M328.62,290.34q0,19.53-5.18,31.36a65.43,65.43,0,0,1-12.19,19.17q-10,10.74-27.88,10.73h-50V224.49h38.5a76.53,76.53,0,0,1,14.87,1.24,51.36,51.36,0,0,1,11.13,3.48,39.43,39.43,0,0,1,8.42,5,46.05,46.05,0,0,1,6.22,6,56.36,56.36,0,0,1,8.32,12.57,74.32,74.32,0,0,1,5.68,16.78A96.41,96.41,0,0,1,328.62,290.34Zm-28.4-1.65q0-15.49-4.31-24.17t-10.37-11.6A27.9,27.9,0,0,0,273.21,250h-11.9v75.29h11.9a27.59,27.59,0,0,0,19-7.15Q300.21,311,300.22,288.69Z"/><path class="cls-5" d="M441.72,351.6H413.11l-7.55-25.77H365.32l-7.69,25.77H329l41-127.11h30.88Zm-42.58-47.87-13.57-46.41-13.7,46.41Z"/><path class="cls-5" d="M554.61,351.6H529.75l-48.06-70.8v70.8H454V224.49h24.79l47.93,70.43V224.49h27.87Z"/><path class="cls-5" d="M660.82,342.06a57.19,57.19,0,0,1-23.89,10.14,74.79,74.79,0,0,1-12.67,1.05,49.63,49.63,0,0,1-21.69-4.58,46.84,46.84,0,0,1-16.64-13.53,61.16,61.16,0,0,1-10.56-20.91A93.13,93.13,0,0,1,571.86,288q0-16.41,4.14-28.75a56.77,56.77,0,0,1,11.6-20.5,46.84,46.84,0,0,1,17-12,52.47,52.47,0,0,1,20.08-3.9q15.78,0,35.76,9.63v33.75a92.79,92.79,0,0,0-13.6-9.77,30.94,30.94,0,0,0-15.81-3.9,27.92,27.92,0,0,0-15.1,4.4,32,32,0,0,0-11.3,12.57,40.54,40.54,0,0,0-4.28,19.07,41.21,41.21,0,0,0,3.75,17.66,31.61,31.61,0,0,0,10.39,12.75,25.25,25.25,0,0,0,15,4.72,36.12,36.12,0,0,0,12.77-2.25,49,49,0,0,0,10.13-5,86.49,86.49,0,0,0,8.45-6.52Z"/><path class="cls-5" d="M749.45,351.6H679.61V224.49h68.71V250H707.54v23.29h38.91v25.59H707.54V326h41.91Z"/><path class="cls-5" d="M896.17,342.61c-2,1.05-3.72,1.9-5.15,2.57s-2.79,1.29-4.11,1.84-3.22,1.25-5.71,2.11a92.23,92.23,0,0,1-12.67,3.07,81.3,81.3,0,0,1-13.33,1.05,50.32,50.32,0,0,1-26.07-7.06q-12-7.06-19.15-21.92t-7.19-36.5a102.46,102.46,0,0,1,3.71-27.37q3.72-13.44,11.33-21.51a52.27,52.27,0,0,1,12.73-10.23,43.58,43.58,0,0,1,12.6-4.72,71.93,71.93,0,0,1,13.57-1.19q12.24,0,20.19,2.52a182.08,182.08,0,0,1,17.44,6.65V262a69.33,69.33,0,0,0-13.3-8.44q-7-3.39-17.51-3.39-12.09,0-19.35,6.28a33.2,33.2,0,0,0-10.09,15,54.12,54.12,0,0,0-2.84,16.87,47.07,47.07,0,0,0,3.27,17.75,29.61,29.61,0,0,0,9.9,13,26.06,26.06,0,0,0,16,4.91,37.15,37.15,0,0,0,11.36-1.93V307.12H859.21V281.53h37Z"/><path class="cls-5" d="M1007.86,351.6h-30L970.56,329q-4-12.37-7.22-18.11c-2.13-3.82-4.22-6.27-6.24-7.34a16.82,16.82,0,0,0-7.86-1.6H946.1V351.6H918.16V224.49h47.52q11.51,0,18.85,6.42a36.57,36.57,0,0,1,10.6,15.59,52.31,52.31,0,0,1,3.24,17.43,43.09,43.09,0,0,1-2.71,16.27q-2.7,6.66-5.71,9.68a58.7,58.7,0,0,1-6.75,5.78,31,31,0,0,1,7.38,8.48Q993.49,309,998.5,324Zm-38-86.94q0-8.81-4.22-12.29T952,248.89H946.1v30.63h6q10.21,0,14-3.08T969.9,264.66Z"/><path class="cls-5" d="M1119.69,288a87.34,87.34,0,0,1-6,32.75,53.72,53.72,0,0,1-17.81,23.75q-11.84,8.81-28.81,8.8-17.17,0-29.07-9.17A54.45,54.45,0,0,1,1020.33,320a91.79,91.79,0,0,1,0-64.06,54.07,54.07,0,0,1,17.68-24q11.94-9.12,29.11-9.12A49,49,0,0,1,1090,228a46.9,46.9,0,0,1,16.54,14.17,65.35,65.35,0,0,1,9.82,20.82A91.79,91.79,0,0,1,1119.69,288Zm-28.48,0a51.65,51.65,0,0,0-1.54-13.06,30.84,30.84,0,0,0-4.64-10.28,22.32,22.32,0,0,0-7.59-6.78,21.37,21.37,0,0,0-10.36-2.43,20.5,20.5,0,0,0-17.64,9q-6.42,9-6.42,23.57t6.45,23.62a20.5,20.5,0,0,0,17.61,9,20.82,20.82,0,0,0,13.1-4.17,25.66,25.66,0,0,0,8.22-11.55A47.28,47.28,0,0,0,1091.21,288Z"/><path class="cls-5" d="M1233.58,294.65q0,16.32-4.44,27.83t-11.77,18.21a45.43,45.43,0,0,1-15.77,9.63,50.26,50.26,0,0,1-39.77-2.57q-11.13-5.5-18.62-18.71t-7.48-34.39V224.49h27.87v60.25q0,12.57,2.64,20.78t7.35,12a17.92,17.92,0,0,0,22,.05q4.74-3.76,7.38-11.93t2.64-20.72V224.49h27.94Z"/><path class="cls-5" d="M1356.1,351.6h-24.86l-48.06-70.8v70.8h-27.67V224.49h24.79l47.93,70.43V224.49h27.87Z"/><path class="cls-5" d="M1474.61,290.34q0,19.53-5.18,31.36a65.24,65.24,0,0,1-12.2,19.17q-10,10.74-27.87,10.73h-50V224.49h38.5a76.53,76.53,0,0,1,14.87,1.24,51,51,0,0,1,11.13,3.48,39.26,39.26,0,0,1,8.43,5,46.56,46.56,0,0,1,6.21,6,55.68,55.68,0,0,1,8.32,12.57,73.82,73.82,0,0,1,5.69,16.78A96.41,96.41,0,0,1,1474.61,290.34Zm-28.41-1.65q0-15.49-4.31-24.17t-10.36-11.6A27.9,27.9,0,0,0,1419.2,250h-11.9v75.29h11.9a27.55,27.55,0,0,0,19-7.15Q1446.21,311,1446.2,288.69Z"/><path class="cls-5" d="M1556.62,314.64q0,11.92-4.44,20.64a31.61,31.61,0,0,1-12.4,13.34,35.58,35.58,0,0,1-18.25,4.63,61.86,61.86,0,0,1-7-.5,60.79,60.79,0,0,1-11.09-2.8,72.73,72.73,0,0,1-14.41-6.78V312a95.94,95.94,0,0,0,13.8,9.91,28.46,28.46,0,0,0,14.54,3.94q7.15,0,9.26-3.25a11.43,11.43,0,0,0,2.11-6.1,11.67,11.67,0,0,0-3.61-8.67,48.6,48.6,0,0,0-10.5-7.29,79.46,79.46,0,0,1-13.37-9.58,40.09,40.09,0,0,1-9.39-13,43.18,43.18,0,0,1-3.64-18.44,45.43,45.43,0,0,1,3.67-18.57,30.19,30.19,0,0,1,11.23-13.25q7.56-4.95,18.45-4.95a47.92,47.92,0,0,1,14.34,2.06,51,51,0,0,1,10.86,4.63,40.2,40.2,0,0,1,5.88,4v29.8a75,75,0,0,0-12.66-10,27.5,27.5,0,0,0-14.94-4.4c-3.48,0-6,.91-7.55,2.75a10.09,10.09,0,0,0-2.34,6.78,9.76,9.76,0,0,0,2.34,6.52,41,41,0,0,0,8.35,6.69A159.21,159.21,0,0,1,1542.92,284a41.06,41.06,0,0,1,10.06,12.7Q1556.63,303.91,1556.62,314.64Z"/><path class="cls-6" d="M328.62,290.34q0,19.53-5.18,31.36a65.43,65.43,0,0,1-12.19,19.17q-10,10.74-27.88,10.73h-50V224.49h38.5a76.53,76.53,0,0,1,14.87,1.24,51.36,51.36,0,0,1,11.13,3.48,39.43,39.43,0,0,1,8.42,5,46.05,46.05,0,0,1,6.22,6,56.36,56.36,0,0,1,8.32,12.57,74.32,74.32,0,0,1,5.68,16.78A96.41,96.41,0,0,1,328.62,290.34Zm-28.4-1.65q0-15.49-4.31-24.17t-10.37-11.6A27.9,27.9,0,0,0,273.21,250h-11.9v75.29h11.9a27.59,27.59,0,0,0,19-7.15Q300.21,311,300.22,288.69Z"/><path class="cls-6" d="M441.72,351.6H413.11l-7.55-25.77H365.32l-7.69,25.77H329l41-127.11h30.88Zm-42.58-47.87-13.57-46.41-13.7,46.41Z"/><path class="cls-6" d="M554.61,351.6H529.75l-48.06-70.8v70.8H454V224.49h24.79l47.93,70.43V224.49h27.87Z"/><path class="cls-6" d="M660.82,342.06a57.19,57.19,0,0,1-23.89,10.14,74.79,74.79,0,0,1-12.67,1.05,49.63,49.63,0,0,1-21.69-4.58,46.84,46.84,0,0,1-16.64-13.53,61.16,61.16,0,0,1-10.56-20.91A93.13,93.13,0,0,1,571.86,288q0-16.41,4.14-28.75a56.77,56.77,0,0,1,11.6-20.5,46.84,46.84,0,0,1,17-12,52.47,52.47,0,0,1,20.08-3.9q15.78,0,35.76,9.63v33.75a92.79,92.79,0,0,0-13.6-9.77,30.94,30.94,0,0,0-15.81-3.9,27.92,27.92,0,0,0-15.1,4.4,32,32,0,0,0-11.3,12.57,40.54,40.54,0,0,0-4.28,19.07,41.21,41.21,0,0,0,3.75,17.66,31.61,31.61,0,0,0,10.39,12.75,25.25,25.25,0,0,0,15,4.72,36.12,36.12,0,0,0,12.77-2.25,49,49,0,0,0,10.13-5,86.49,86.49,0,0,0,8.45-6.52Z"/><path class="cls-6" d="M749.45,351.6H679.61V224.49h68.71V250H707.54v23.29h38.91v25.59H707.54V326h41.91Z"/><path class="cls-6" d="M896.17,342.61c-2,1.05-3.72,1.9-5.15,2.57s-2.79,1.29-4.11,1.84-3.22,1.25-5.71,2.11a92.23,92.23,0,0,1-12.67,3.07,81.3,81.3,0,0,1-13.33,1.05,50.32,50.32,0,0,1-26.07-7.06q-12-7.06-19.15-21.92t-7.19-36.5a102.46,102.46,0,0,1,3.71-27.37q3.72-13.44,11.33-21.51a52.27,52.27,0,0,1,12.73-10.23,43.58,43.58,0,0,1,12.6-4.72,71.93,71.93,0,0,1,13.57-1.19q12.24,0,20.19,2.52a182.08,182.08,0,0,1,17.44,6.65V262a69.33,69.33,0,0,0-13.3-8.44q-7-3.39-17.51-3.39-12.09,0-19.35,6.28a33.2,33.2,0,0,0-10.09,15,54.12,54.12,0,0,0-2.84,16.87,47.07,47.07,0,0,0,3.27,17.75,29.61,29.61,0,0,0,9.9,13,26.06,26.06,0,0,0,16,4.91,37.15,37.15,0,0,0,11.36-1.93V307.12H859.21V281.53h37Z"/><path class="cls-6" d="M1007.86,351.6h-30L970.56,329q-4-12.37-7.22-18.11c-2.13-3.82-4.22-6.27-6.24-7.34a16.82,16.82,0,0,0-7.86-1.6H946.1V351.6H918.16V224.49h47.52q11.51,0,18.85,6.42a36.57,36.57,0,0,1,10.6,15.59,52.31,52.31,0,0,1,3.24,17.43,43.09,43.09,0,0,1-2.71,16.27q-2.7,6.66-5.71,9.68a58.7,58.7,0,0,1-6.75,5.78,31,31,0,0,1,7.38,8.48Q993.49,309,998.5,324Zm-38-86.94q0-8.81-4.22-12.29T952,248.89H946.1v30.63h6q10.21,0,14-3.08T969.9,264.66Z"/><path class="cls-6" d="M1119.69,288a87.34,87.34,0,0,1-6,32.75,53.72,53.72,0,0,1-17.81,23.75q-11.84,8.81-28.81,8.8-17.17,0-29.07-9.17A54.45,54.45,0,0,1,1020.33,320a91.79,91.79,0,0,1,0-64.06,54.07,54.07,0,0,1,17.68-24q11.94-9.12,29.11-9.12A49,49,0,0,1,1090,228a46.9,46.9,0,0,1,16.54,14.17,65.35,65.35,0,0,1,9.82,20.82A91.79,91.79,0,0,1,1119.69,288Zm-28.48,0a51.65,51.65,0,0,0-1.54-13.06,30.84,30.84,0,0,0-4.64-10.28,22.32,22.32,0,0,0-7.59-6.78,21.37,21.37,0,0,0-10.36-2.43,20.5,20.5,0,0,0-17.64,9q-6.42,9-6.42,23.57t6.45,23.62a20.5,20.5,0,0,0,17.61,9,20.82,20.82,0,0,0,13.1-4.17,25.66,25.66,0,0,0,8.22-11.55A47.28,47.28,0,0,0,1091.21,288Z"/><path class="cls-6" d="M1233.58,294.65q0,16.32-4.44,27.83t-11.77,18.21a45.43,45.43,0,0,1-15.77,9.63,50.26,50.26,0,0,1-39.77-2.57q-11.13-5.5-18.62-18.71t-7.48-34.39V224.49h27.87v60.25q0,12.57,2.64,20.78t7.35,12a17.92,17.92,0,0,0,22,.05q4.74-3.76,7.38-11.93t2.64-20.72V224.49h27.94Z"/><path class="cls-6" d="M1356.1,351.6h-24.86l-48.06-70.8v70.8h-27.67V224.49h24.79l47.93,70.43V224.49h27.87Z"/><path class="cls-6" d="M1474.61,290.34q0,19.53-5.18,31.36a65.24,65.24,0,0,1-12.2,19.17q-10,10.74-27.87,10.73h-50V224.49h38.5a76.53,76.53,0,0,1,14.87,1.24,51,51,0,0,1,11.13,3.48,39.26,39.26,0,0,1,8.43,5,46.56,46.56,0,0,1,6.21,6,55.68,55.68,0,0,1,8.32,12.57,73.82,73.82,0,0,1,5.69,16.78A96.41,96.41,0,0,1,1474.61,290.34Zm-28.41-1.65q0-15.49-4.31-24.17t-10.36-11.6A27.9,27.9,0,0,0,1419.2,250h-11.9v75.29h11.9a27.55,27.55,0,0,0,19-7.15Q1446.21,311,1446.2,288.69Z"/><path class="cls-6" d="M1556.62,314.64q0,11.92-4.44,20.64a31.61,31.61,0,0,1-12.4,13.34,35.58,35.58,0,0,1-18.25,4.63,61.86,61.86,0,0,1-7-.5,60.79,60.79,0,0,1-11.09-2.8,72.73,72.73,0,0,1-14.41-6.78V312a95.94,95.94,0,0,0,13.8,9.91,28.46,28.46,0,0,0,14.54,3.94q7.15,0,9.26-3.25a11.43,11.43,0,0,0,2.11-6.1,11.67,11.67,0,0,0-3.61-8.67,48.6,48.6,0,0,0-10.5-7.29,79.46,79.46,0,0,1-13.37-9.58,40.09,40.09,0,0,1-9.39-13,43.18,43.18,0,0,1-3.64-18.44,45.43,45.43,0,0,1,3.67-18.57,30.19,30.19,0,0,1,11.23-13.25q7.56-4.95,18.45-4.95a47.92,47.92,0,0,1,14.34,2.06,51,51,0,0,1,10.86,4.63,40.2,40.2,0,0,1,5.88,4v29.8a75,75,0,0,0-12.66-10,27.5,27.5,0,0,0-14.94-4.4c-3.48,0-6,.91-7.55,2.75a10.09,10.09,0,0,0-2.34,6.78,9.76,9.76,0,0,0,2.34,6.52,41,41,0,0,0,8.35,6.69A159.21,159.21,0,0,1,1542.92,284a41.06,41.06,0,0,1,10.06,12.7Q1556.63,303.91,1556.62,314.64Z"/></svg>