<svg enable-background="new 0 0 1080 1080" viewBox="0 0 1080 1080" xmlns="http://www.w3.org/2000/svg" xmlns:xlink="http://www.w3.org/1999/xlink"><clipPath id="a"><path d="m0 0h1080v1080h-1080z"/></clipPath><g clip-path="url(#a)" fill="#fff" opacity=".08"><path d="m411.44-116.79h45.79v1524.92h-45.79z" transform="matrix(.7071 -.7071 .7071 .7071 -329.3454 496.23)"/><path d="m622.78-328.13h45.79v1524.92h-45.79z" transform="matrix(.7071 -.7071 .7071 .7071 -118.0053 583.77)"/><path d="m360.14 360.14-269.8-89.94-89.93-269.79 269.79 89.93z"/><path d="m719.86 719.86-269.79-89.93-89.93-269.79 269.79 89.93z"/><path d="m1079.59 1079.59-269.79-89.93-89.94-269.8 269.8 89.94z"/><path d="m950.94-656.29h45.79v1524.92h-45.79z" transform="matrix(.7071 -.7071 .7071 .7071 210.1546 719.6982)"/><path d="m82.78 211.87h45.79v1524.92h-45.79z" transform="matrix(.7071 -.7071 .7071 .7071 -658.0052 360.0947)"/></g></svg>