<?xml version="1.0" encoding="utf-8"?>
<!-- Generator: Adobe Illustrator 26.0.2, SVG Export Plug-In . SVG Version: 6.00 Build 0)  -->
<svg version="1.1" id="Layer_1" xmlns="http://www.w3.org/2000/svg" xmlns:xlink="http://www.w3.org/1999/xlink" x="0px" y="0px"
	 viewBox="0 0 371.4 371.4" style="enable-background:new 0 0 371.4 371.4;" xml:space="preserve">
<style type="text/css">
	.st0{fill:#37353C;}
	.st1{fill:#92864F;}
	.st2{fill:#231F20;}
	.st3{fill:url(#SVGID_1_);}
	.st4{fill:url(#SVGID_00000150093969361697380890000014412400348991952026_);}
	.st5{fill:url(#SVGID_00000085221800731738930940000003196739529405300148_);}
	.st6{fill:url(#SVGID_00000085932775487285494530000006890497517769577099_);}
	.st7{fill:url(#SVGID_00000105427785604815232730000006921891692490011816_);}
	.st8{fill:url(#SVGID_00000101784837880876324010000015735518247685538442_);}
	.st9{fill:url(#SVGID_00000106853354926971370160000018285891373533741700_);}
	.st10{fill:url(#SVGID_00000170280815167784772740000006594109517757078206_);}
	.st11{fill:none;stroke:#625B32;stroke-miterlimit:10;}
</style>
<g id="Events">
	<polygon class="st0" points="164.5,371.4 0,371.4 0,206.9 206.9,0 371.4,0 371.4,164.5 	"/>
	<polygon class="st1" points="35.7,335.7 119.3,119.3 335.7,35.7 252.1,252.1 	"/>
	<polygon class="st2" points="214,371.4 371.4,214 371.4,157.4 157.4,371.4 	"/>
	<polygon class="st2" points="157.4,0 0,157.4 0,214 214,0 	"/>
	
		<linearGradient id="SVGID_1_" gradientUnits="userSpaceOnUse" x1="3569.6104" y1="-974.71" x2="3776.5454" y2="-767.785" gradientTransform="matrix(-1 0 0 1 3951.6499 1149.8199)">
		<stop  offset="0.2" style="stop-color:#C6B266"/>
		<stop  offset="0.21" style="stop-color:#B09136"/>
		<stop  offset="0.4" style="stop-color:#D9BC64"/>
		<stop  offset="0.53" style="stop-color:#FFFAC4"/>
		<stop  offset="0.66" style="stop-color:#D6B55A"/>
		<stop  offset="0.71" style="stop-color:#D0A641"/>
		<stop  offset="0.88" style="stop-color:#C09D30"/>
	</linearGradient>
	<polygon class="st3" points="206.9,371.4 371.4,206.9 371.4,164.5 164.5,371.4 	"/>
	
		<linearGradient id="SVGID_00000172405052712845815400000013582489112839880890_" gradientUnits="userSpaceOnUse" x1="3755.3298" y1="-1160.4294" x2="3962.2549" y2="-953.4944" gradientTransform="matrix(-1 0 0 1 3951.6499 1149.8199)">
		<stop  offset="0.2" style="stop-color:#C6B266"/>
		<stop  offset="0.21" style="stop-color:#B09136"/>
		<stop  offset="0.4" style="stop-color:#D9BC64"/>
		<stop  offset="0.53" style="stop-color:#FFFAC4"/>
		<stop  offset="0.66" style="stop-color:#D6B55A"/>
		<stop  offset="0.71" style="stop-color:#D0A641"/>
		<stop  offset="0.88" style="stop-color:#C09D30"/>
	</linearGradient>
	<polygon style="fill:url(#SVGID_00000172405052712845815400000013582489112839880890_);" points="164.5,0 0,164.5 0,206.9 206.9,0 
			"/>
</g>
<path class="st2" d="M89.3,181.4h2.9c0.6,0.1,1.2-0.3,1.5-0.9l4.7-9.3c0.3-0.5,0.4-0.8,0.8-0.8s0.5,0.3,0.5,0.8v28.3
	c0,0.4-0.1,0.7-0.5,0.7s-0.7-0.4-0.9-0.9l-4.5-9.7c-0.2-0.6-0.8-1-1.5-0.9h-2.9V229h7.6c1.6,0.1,3.1-0.9,3.6-2.4l7.2-25.6
	c0.1-0.4,0.5-0.8,0.9-0.8c0.4,0,0.7,0.4,0.7,0.8v33.5c0.1,0.6-0.4,1.1-1,1.2c0,0-0.1,0-0.1,0H73.7c-0.4,0-0.8-0.3-0.8-0.7
	c0,0,0,0,0-0.1c0-0.4,0.7-0.7,0.9-1.2l4-3.9c0.9-1,1.3-2.4,1.2-3.7v-80.8c0.1-1.4-0.3-2.7-1.2-3.7l-4-3.9c-0.3-0.4-0.9-0.8-0.9-1.2
	c0-0.4,0.3-0.8,0.7-0.8c0,0,0,0,0.1,0h34.5c0.6,0.1,1.1,0.6,1.1,1.2v33.2c0,0.5-0.3,0.8-0.7,0.8c-0.5,0-1-0.4-1.1-0.9l-7.2-25.1
	c-0.4-1.6-1.9-2.6-3.5-2.5h-7.6L89.3,181.4z"/>
<path class="st2" d="M118.8,157.7c-0.1-1.1-0.6-2.2-1.4-3l-3.8-3.8c-0.4-0.3-0.7-0.9-0.7-1.4c0-0.3,0.3-0.5,1-0.5h17.9
	c0.3,0,0.7,0.1,0.7,0.5c0,0.5-0.2,0.9-0.6,1.3l-3,2.8c-0.9,0.8-1.4,1.9-1.4,3.1l5.9,40.6h0.2l4.9-40.6c0-1.2-0.5-2.3-1.4-3.1
	l-2.8-2.8c-0.4-0.3-0.6-0.8-0.7-1.3c0-0.3,0.5-0.5,0.8-0.5H150c0.7,0,1,0.1,1,0.5c0,0.5-0.3,1-0.7,1.4l-3.8,3.8
	c-0.8,0.8-1.3,1.9-1.4,3l-9.1,76.7c-0.1,0.8-0.5,1.3-1.2,1.3h-4c-0.6,0-0.8-0.3-0.9-0.9L118.8,157.7z"/>
<path class="st2" d="M167.1,188.7h2.5c0.6,0,1.1-0.3,1.3-0.8l4-8.1c0.2-0.5,0.4-0.7,0.7-0.7s0.5,0.2,0.5,0.7v24.5
	c0,0.4-0.1,0.6-0.5,0.6s-0.6-0.4-0.8-0.8l-3.8-8.4c-0.2-0.5-0.7-0.8-1.3-0.8h-2.5v35.1h6.6c1.4,0.1,2.7-0.7,3.1-2.1l6.2-22.2
	c0.1-0.4,0.4-0.7,0.8-0.7c0.4,0,0.6,0.3,0.6,0.7v29c0,0.5-0.4,1-0.9,1h-30c-0.4,0-0.7-0.3-0.7-0.6c0,0,0,0,0-0.1
	c0-0.4,0.6-0.6,0.8-1l3.5-3.4c0.8-0.9,1.1-2.1,1-3.2v-70c0.1-1.2-0.2-2.3-1-3.2l-3.5-3.4c-0.2-0.3-0.8-0.7-0.8-1
	c0-0.4,0.3-0.7,0.6-0.7c0,0,0,0,0,0h29.9c0.5,0,0.9,0.5,0.9,1v28.8c0,0.5-0.2,0.7-0.6,0.7c-0.5,0-0.8-0.4-0.9-0.8l-6.2-21.8
	c-0.3-1.4-1.6-2.3-3-2.2h-6.6L167.1,188.7z"/>
<path class="st2" d="M193.4,157.4c0.1-1.2-0.3-2.3-1-3.2l-2.9-3.4c-0.2-0.3-0.8-0.7-0.8-1.1c0-0.3,0.3-0.6,0.7-0.6h13.9
	c0.8,0,1.1,0.8,1.4,2l10.6,49.7h0.2v-43.4c0.1-1.1-0.2-2.3-1-3.1l-3.2-3.5c-0.2-0.3-0.8-0.7-0.8-1.1c0-0.3,0.3-0.6,0.7-0.6h15.3
	c0.3,0,0.7,0.2,0.7,0.6c0,0.5-0.5,0.8-0.8,1.1l-2.9,3.4c-0.7,0.9-1.1,2.1-1,3.2v77.1c0,0.8-0.3,1.3-1.1,1.3h-4.9c-1,0-2-1.1-2.3-2.9
	l-13.5-63h-0.2v57.6c-0.1,1.2,0.3,2.3,1.2,3.1l3.1,3.5c0.3,0.4,0.8,0.7,0.8,1.2c0,0.3-0.4,0.6-0.7,0.6h-15.4c-0.3,0-0.7-0.2-0.7-0.6
	c0-0.5,0.6-0.8,0.8-1.2l2.9-3.4c0.7-0.9,1.1-2.1,1-3.2L193.4,157.4z"/>
<path class="st2" d="M242.8,154.6h-4.3c-0.7,0-1,0.6-1.3,1.3l-6,23c-0.1,0.4-0.5,0.7-0.9,0.7c-0.5,0-0.6-0.2-0.6-0.8v-29.2
	c0-0.3,0.3-0.5,0.6-0.5h33.9c0.3,0,0.5,0.2,0.6,0.5v29.2c0,0.6-0.1,0.8-0.6,0.8c-0.4,0-0.8-0.3-0.9-0.7l-6-23
	c-0.2-0.7-0.6-1.3-1.3-1.3h-4.3v72.8c-0.2,1.2,0.2,2.3,0.9,3.2l3.5,3.4c0.4,0.4,0.8,0.7,0.8,1s-0.1,0.7-0.7,0.7h-17.9
	c-0.6,0-0.7-0.3-0.7-0.7s0.5-0.7,0.8-1l3.5-3.4c0.8-0.8,0.9-1.9,0.9-3.2V154.6z"/>
<path class="st2" d="M293.7,179c0,0.4-0.2,0.6-0.7,0.6s-0.6-0.4-0.7-0.8c-1.9-9.4-7.4-23.9-12.7-23.9c-2.9,0-3.1,2.4-3.1,5.4
	c0,5.7,1.5,11.3,10,29.5c8.1,17.1,9,20.9,9,30.1c0,12.2-6.4,15.9-10.6,15.9c-2.3,0-4.6-0.8-6.5-2.2c-0.7-0.5-1.5-0.9-2.3-1.2
	c-0.5,0-1.4,0.8-3.7,2.6c-0.5,0.3-0.9,0.8-1.4,0.8s-0.6-0.2-0.6-0.6V206c0-0.3,0.1-0.8,0.6-0.8s0.6,0.5,0.7,0.8
	c2.1,9.2,5.7,23.9,12.5,23.9c2.2,0,3.4-2.4,3.4-6c0-7.8-3.5-16.2-10-30.1c-6.2-13.2-8.5-22-8.5-30.4c0-11,4.7-14.4,10.6-14.4
	c2.4,0.2,4.6,1.1,6.5,2.7c0.5,0.4,1.1,0.6,1.7,0.7c1-0.4,1.9-1,2.7-1.9c1-0.9,1.7-1.5,2.4-1.5s0.8,0.6,0.8,1.3L293.7,179z"/>
<linearGradient id="SVGID_00000108285851133712241930000000069936525138273972_" gradientUnits="userSpaceOnUse" x1="94.0923" y1="238.2906" x2="94.0923" y2="138.2894" gradientTransform="matrix(1 0 0 -1 0 374)">
	<stop  offset="0.18" style="stop-color:#FFFAC4"/>
	<stop  offset="0.21" style="stop-color:#F9EFB4"/>
	<stop  offset="0.25" style="stop-color:#EED893"/>
	<stop  offset="0.76" style="stop-color:#D6B55A"/>
	<stop  offset="0.84" style="stop-color:#D0A641"/>
	<stop  offset="0.95" style="stop-color:#B69238"/>
</linearGradient>
<path style="fill:url(#SVGID_00000108285851133712241930000000069936525138273972_);" d="M92.3,181.4h2.9c0.6,0.1,1.2-0.3,1.5-0.9
	l4.7-9.3c0.3-0.5,0.4-0.8,0.8-0.8s0.5,0.3,0.5,0.8v28.3c0,0.4-0.1,0.7-0.5,0.7s-0.7-0.4-0.9-0.9l-4.5-9.7c-0.2-0.6-0.8-1-1.5-0.9
	h-2.9V229h7.6c1.6,0.1,3.1-0.9,3.6-2.4l7.2-25.6c0.1-0.4,0.5-0.8,0.9-0.8c0.4,0,0.7,0.4,0.7,0.8v33.5c0.1,0.6-0.4,1.1-1,1.2
	c0,0-0.1,0-0.1,0H76.7c-0.4,0-0.8-0.3-0.8-0.7c0,0,0,0,0-0.1c0-0.4,0.7-0.7,0.9-1.2l4-3.9c0.9-1,1.3-2.4,1.2-3.7v-80.8
	c0.1-1.4-0.3-2.7-1.2-3.7l-4-3.9c-0.3-0.4-0.9-0.8-0.9-1.2c0-0.4,0.3-0.8,0.7-0.8c0,0,0,0,0.1,0h34.5c0.6,0.1,1.1,0.6,1.1,1.2v33.2
	c0,0.5-0.3,0.8-0.7,0.8c-0.5,0-1-0.4-1.1-0.9l-7.2-25.1c-0.4-1.6-1.9-2.6-3.5-2.5h-7.6L92.3,181.4z"/>
<linearGradient id="SVGID_00000122702647143955701580000014709418125878107795_" gradientUnits="userSpaceOnUse" x1="134.98" y1="224.95" x2="134.98" y2="138.29" gradientTransform="matrix(1 0 0 -1 0 374)">
	<stop  offset="0.18" style="stop-color:#FFFAC4"/>
	<stop  offset="0.21" style="stop-color:#F9EFB4"/>
	<stop  offset="0.25" style="stop-color:#EED893"/>
	<stop  offset="0.76" style="stop-color:#D6B55A"/>
	<stop  offset="0.84" style="stop-color:#D0A641"/>
	<stop  offset="0.95" style="stop-color:#B69238"/>
</linearGradient>
<path style="fill:url(#SVGID_00000122702647143955701580000014709418125878107795_);" d="M121.8,157.7c-0.1-1.1-0.6-2.2-1.4-3
	l-3.8-3.8c-0.4-0.3-0.7-0.9-0.7-1.4c0-0.3,0.3-0.5,1-0.5h17.9c0.3,0,0.7,0.1,0.7,0.5c0,0.5-0.2,0.9-0.6,1.3l-3,2.8
	c-0.9,0.8-1.4,1.9-1.4,3.1l5.9,40.6h0.2l4.9-40.6c0-1.2-0.5-2.3-1.4-3.1l-2.8-2.8c-0.4-0.3-0.6-0.8-0.7-1.3c0-0.3,0.5-0.5,0.8-0.5
	H153c0.7,0,1,0.1,1,0.5c0,0.5-0.3,1-0.7,1.4l-3.8,3.8c-0.8,0.8-1.3,1.9-1.4,3l-9.1,76.7c-0.1,0.8-0.5,1.3-1.2,1.3h-4
	c-0.6,0-0.8-0.3-0.9-0.9L121.8,157.7z"/>
<linearGradient id="SVGID_00000067202193644259091210000006597210313264028041_" gradientUnits="userSpaceOnUse" x1="171.7308" y1="224.8903" x2="171.7308" y2="138.2203" gradientTransform="matrix(1 0 0 -1 0 374)">
	<stop  offset="0.18" style="stop-color:#FFFAC4"/>
	<stop  offset="0.21" style="stop-color:#F9EFB4"/>
	<stop  offset="0.25" style="stop-color:#EED893"/>
	<stop  offset="0.76" style="stop-color:#D6B55A"/>
	<stop  offset="0.84" style="stop-color:#D0A641"/>
	<stop  offset="0.95" style="stop-color:#B69238"/>
</linearGradient>
<path style="fill:url(#SVGID_00000067202193644259091210000006597210313264028041_);" d="M170.1,188.7h2.5c0.6,0,1.1-0.3,1.3-0.8
	l4-8.1c0.2-0.5,0.4-0.7,0.7-0.7s0.5,0.2,0.5,0.7v24.5c0,0.4-0.1,0.6-0.5,0.6s-0.6-0.4-0.8-0.8l-3.8-8.4c-0.2-0.5-0.7-0.8-1.3-0.8
	h-2.5v35.1h6.6c1.4,0.1,2.7-0.7,3.1-2.1l6.2-22.2c0.1-0.4,0.4-0.7,0.8-0.7c0.4,0,0.6,0.3,0.6,0.7v29c0,0.5-0.4,1-0.9,1h-30
	c-0.4,0-0.7-0.3-0.7-0.6c0,0,0,0,0-0.1c0-0.4,0.6-0.6,0.8-1l3.5-3.4c0.8-0.9,1.1-2.1,1-3.2v-70c0.1-1.2-0.2-2.3-1-3.2l-3.5-3.4
	c-0.2-0.3-0.8-0.7-0.8-1c0-0.4,0.3-0.7,0.6-0.7c0,0,0,0,0,0h29.9c0.5,0,0.9,0.5,0.9,1v28.8c0,0.5-0.2,0.7-0.6,0.7
	c-0.5,0-0.8-0.4-0.9-0.8l-6.2-21.8c-0.3-1.4-1.6-2.3-3-2.2h-6.6L170.1,188.7z"/>
<linearGradient id="SVGID_00000093897633439934937690000016725971307843008927_" gradientUnits="userSpaceOnUse" x1="210.865" y1="224.9615" x2="210.865" y2="138.29" gradientTransform="matrix(1 0 0 -1 0 374)">
	<stop  offset="0.18" style="stop-color:#FFFAC4"/>
	<stop  offset="0.21" style="stop-color:#F9EFB4"/>
	<stop  offset="0.25" style="stop-color:#EED893"/>
	<stop  offset="0.76" style="stop-color:#D6B55A"/>
	<stop  offset="0.84" style="stop-color:#D0A641"/>
	<stop  offset="0.95" style="stop-color:#B69238"/>
</linearGradient>
<path style="fill:url(#SVGID_00000093897633439934937690000016725971307843008927_);" d="M196.4,157.4c0.1-1.2-0.3-2.3-1-3.2
	l-2.9-3.4c-0.2-0.3-0.8-0.7-0.8-1.1c0-0.3,0.3-0.6,0.7-0.6h13.9c0.8,0,1.1,0.8,1.4,2l10.6,49.7h0.2v-43.4c0.1-1.1-0.2-2.3-1-3.1
	l-3.2-3.5c-0.2-0.3-0.8-0.7-0.8-1.1c0-0.3,0.3-0.6,0.7-0.6h15.3c0.3,0,0.7,0.2,0.7,0.6c0,0.5-0.5,0.8-0.8,1.1l-2.9,3.4
	c-0.7,0.9-1.1,2.1-1,3.2v77.1c0,0.8-0.3,1.3-1.1,1.3h-4.9c-1,0-2-1.1-2.3-2.9l-13.5-63h-0.2v57.6c-0.1,1.2,0.3,2.3,1.2,3.1l3.1,3.5
	c0.3,0.4,0.8,0.7,0.8,1.2c0,0.3-0.4,0.6-0.7,0.6h-15.4c-0.3,0-0.7-0.2-0.7-0.6c0-0.5,0.6-0.8,0.8-1.2l2.9-3.4c0.7-0.9,1.1-2.1,1-3.2
	L196.4,157.4z"/>
<linearGradient id="SVGID_00000183215365217107042030000003256193176452284848_" gradientUnits="userSpaceOnUse" x1="250.3" y1="224.9628" x2="250.3" y2="138.33" gradientTransform="matrix(1 0 0 -1 0 374)">
	<stop  offset="0.18" style="stop-color:#FFFAC4"/>
	<stop  offset="0.21" style="stop-color:#F9EFB4"/>
	<stop  offset="0.25" style="stop-color:#EED893"/>
	<stop  offset="0.76" style="stop-color:#D6B55A"/>
	<stop  offset="0.84" style="stop-color:#D0A641"/>
	<stop  offset="0.95" style="stop-color:#B69238"/>
</linearGradient>
<path style="fill:url(#SVGID_00000183215365217107042030000003256193176452284848_);" d="M245.8,154.6h-4.3c-0.7,0-1,0.6-1.3,1.3
	l-6,23c-0.1,0.4-0.5,0.7-0.9,0.7c-0.5,0-0.6-0.2-0.6-0.8v-29.2c0-0.3,0.3-0.5,0.6-0.5h33.9c0.3,0,0.5,0.2,0.6,0.5v29.2
	c0,0.6-0.1,0.8-0.6,0.8c-0.4,0-0.8-0.3-0.9-0.7l-6-23c-0.2-0.7-0.6-1.3-1.3-1.3h-4.3v72.8c-0.2,1.2,0.2,2.3,0.9,3.2l3.5,3.4
	c0.4,0.4,0.8,0.7,0.8,1s-0.1,0.7-0.7,0.7h-17.9c-0.6,0-0.7-0.3-0.7-0.7s0.5-0.7,0.8-1l3.5-3.4c0.8-0.8,0.9-1.9,0.9-3.2V154.6z"/>
<linearGradient id="SVGID_00000165939831055593109000000012360727303254225281_" gradientUnits="userSpaceOnUse" x1="285.18" y1="224.96" x2="285.18" y2="138.26" gradientTransform="matrix(1 0 0 -1 0 374)">
	<stop  offset="0.18" style="stop-color:#FFFAC4"/>
	<stop  offset="0.21" style="stop-color:#F9EFB4"/>
	<stop  offset="0.25" style="stop-color:#EED893"/>
	<stop  offset="0.76" style="stop-color:#D6B55A"/>
	<stop  offset="0.84" style="stop-color:#D0A641"/>
	<stop  offset="0.95" style="stop-color:#B69238"/>
</linearGradient>
<path style="fill:url(#SVGID_00000165939831055593109000000012360727303254225281_);" d="M296.7,179c0,0.4-0.2,0.6-0.7,0.6
	s-0.6-0.4-0.7-0.8c-1.9-9.4-7.4-23.9-12.7-23.9c-2.9,0-3.1,2.4-3.1,5.4c0,5.7,1.5,11.3,10,29.5c8.1,17.1,9,20.9,9,30.1
	c0,12.2-6.4,15.9-10.6,15.9c-2.3,0-4.6-0.8-6.5-2.2c-0.7-0.5-1.5-0.9-2.3-1.2c-0.5,0-1.4,0.8-3.7,2.6c-0.5,0.3-0.9,0.8-1.4,0.8
	s-0.6-0.2-0.6-0.6V206c0-0.3,0.1-0.8,0.6-0.8s0.6,0.5,0.7,0.8c2.1,9.2,5.7,23.9,12.5,23.9c2.2,0,3.4-2.4,3.4-6
	c0-7.8-3.5-16.2-10-30.1c-6.2-13.2-8.5-22-8.5-30.4c0-11,4.7-14.4,10.6-14.4c2.4,0.2,4.6,1.1,6.5,2.7c0.5,0.4,1.1,0.6,1.7,0.7
	c1-0.4,1.9-1,2.7-1.9c1-0.9,1.7-1.5,2.4-1.5s0.8,0.6,0.8,1.3L296.7,179z"/>
<path class="st11" d="M92.3,181.4h2.9c0.6,0.1,1.2-0.3,1.5-0.9l4.7-9.3c0.3-0.5,0.4-0.8,0.8-0.8s0.5,0.3,0.5,0.8v28.3
	c0,0.4-0.1,0.7-0.5,0.7s-0.7-0.4-0.9-0.9l-4.5-9.7c-0.2-0.6-0.8-1-1.5-0.9h-2.9V229h7.6c1.6,0.1,3.1-0.9,3.6-2.4l7.2-25.6
	c0.1-0.4,0.5-0.8,0.9-0.8c0.4,0,0.7,0.4,0.7,0.8v33.5c0.1,0.6-0.4,1.1-1,1.2c0,0-0.1,0-0.1,0H76.7c-0.4,0-0.8-0.3-0.8-0.7
	c0,0,0,0,0-0.1c0-0.4,0.7-0.7,0.9-1.2l4-3.9c0.9-1,1.3-2.4,1.2-3.7v-80.8c0.1-1.4-0.3-2.7-1.2-3.7l-4-3.9c-0.3-0.4-0.9-0.8-0.9-1.2
	c0-0.4,0.3-0.8,0.7-0.8c0,0,0,0,0.1,0h34.5c0.6,0.1,1.1,0.6,1.1,1.2v33.2c0,0.5-0.3,0.8-0.7,0.8c-0.5,0-1-0.4-1.1-0.9l-7.2-25.1
	c-0.4-1.6-1.9-2.6-3.5-2.5h-7.6L92.3,181.4z"/>
<path class="st11" d="M121.8,157.7c-0.1-1.1-0.6-2.2-1.4-3l-3.8-3.8c-0.4-0.3-0.7-0.9-0.7-1.4c0-0.3,0.3-0.5,1-0.5h17.9
	c0.3,0,0.7,0.1,0.7,0.5c0,0.5-0.2,0.9-0.6,1.3l-3,2.8c-0.9,0.8-1.4,1.9-1.4,3.1l5.9,40.6h0.2l4.9-40.6c0-1.2-0.5-2.3-1.4-3.1
	l-2.8-2.8c-0.4-0.3-0.6-0.8-0.7-1.3c0-0.3,0.5-0.5,0.8-0.5H153c0.7,0,1,0.1,1,0.5c0,0.5-0.3,1-0.7,1.4l-3.8,3.8
	c-0.8,0.8-1.3,1.9-1.4,3l-9.1,76.7c-0.1,0.8-0.5,1.3-1.2,1.3h-4c-0.6,0-0.8-0.3-0.9-0.9L121.8,157.7z"/>
<path class="st11" d="M170.1,188.7h2.5c0.6,0,1.1-0.3,1.3-0.8l4-8.1c0.2-0.5,0.4-0.7,0.7-0.7s0.5,0.2,0.5,0.7v24.5
	c0,0.4-0.1,0.6-0.5,0.6s-0.6-0.4-0.8-0.8l-3.8-8.4c-0.2-0.5-0.7-0.8-1.3-0.8h-2.5v35.1h6.6c1.4,0.1,2.7-0.7,3.1-2.1l6.2-22.2
	c0.1-0.4,0.4-0.7,0.8-0.7c0.4,0,0.6,0.3,0.6,0.7v29c0,0.5-0.4,1-0.9,1h-30c-0.4,0-0.7-0.3-0.7-0.6c0,0,0,0,0-0.1
	c0-0.4,0.6-0.6,0.8-1l3.5-3.4c0.8-0.9,1.1-2.1,1-3.2v-70c0.1-1.2-0.2-2.3-1-3.2l-3.5-3.4c-0.2-0.3-0.8-0.7-0.8-1
	c0-0.4,0.3-0.7,0.6-0.7c0,0,0,0,0,0h29.9c0.5,0,0.9,0.5,0.9,1v28.8c0,0.5-0.2,0.7-0.6,0.7c-0.5,0-0.8-0.4-0.9-0.8l-6.2-21.8
	c-0.3-1.4-1.6-2.3-3-2.2h-6.6L170.1,188.7z"/>
<path class="st11" d="M196.4,157.4c0.1-1.2-0.3-2.3-1-3.2l-2.9-3.4c-0.2-0.3-0.8-0.7-0.8-1.1c0-0.3,0.3-0.6,0.7-0.6h13.9
	c0.8,0,1.1,0.8,1.4,2l10.6,49.7h0.2v-43.4c0.1-1.1-0.2-2.3-1-3.1l-3.2-3.5c-0.2-0.3-0.8-0.7-0.8-1.1c0-0.3,0.3-0.6,0.7-0.6h15.3
	c0.3,0,0.7,0.2,0.7,0.6c0,0.5-0.5,0.8-0.8,1.1l-2.9,3.4c-0.7,0.9-1.1,2.1-1,3.2v77.1c0,0.8-0.3,1.3-1.1,1.3h-4.9c-1,0-2-1.1-2.3-2.9
	l-13.5-63h-0.2v57.6c-0.1,1.2,0.3,2.3,1.2,3.1l3.1,3.5c0.3,0.4,0.8,0.7,0.8,1.2c0,0.3-0.4,0.6-0.7,0.6h-15.4c-0.3,0-0.7-0.2-0.7-0.6
	c0-0.5,0.6-0.8,0.8-1.2l2.9-3.4c0.7-0.9,1.1-2.1,1-3.2L196.4,157.4z"/>
<path class="st11" d="M245.8,154.6h-4.3c-0.7,0-1,0.6-1.3,1.3l-6,23c-0.1,0.4-0.5,0.7-0.9,0.7c-0.5,0-0.6-0.2-0.6-0.8v-29.2
	c0-0.3,0.3-0.5,0.6-0.5h33.9c0.3,0,0.5,0.2,0.6,0.5v29.2c0,0.6-0.1,0.8-0.6,0.8c-0.4,0-0.8-0.3-0.9-0.7l-6-23
	c-0.2-0.7-0.6-1.3-1.3-1.3h-4.3v72.8c-0.2,1.2,0.2,2.3,0.9,3.2l3.5,3.4c0.4,0.4,0.8,0.7,0.8,1s-0.1,0.7-0.7,0.7h-17.9
	c-0.6,0-0.7-0.3-0.7-0.7s0.5-0.7,0.8-1l3.5-3.4c0.8-0.8,0.9-1.9,0.9-3.2V154.6z"/>
<path class="st11" d="M296.7,179c0,0.4-0.2,0.6-0.7,0.6s-0.6-0.4-0.7-0.8c-1.9-9.4-7.4-23.9-12.7-23.9c-2.9,0-3.1,2.4-3.1,5.4
	c0,5.7,1.5,11.3,10,29.5c8.1,17.1,9,20.9,9,30.1c0,12.2-6.4,15.9-10.6,15.9c-2.3,0-4.6-0.8-6.5-2.2c-0.7-0.5-1.5-0.9-2.3-1.2
	c-0.5,0-1.4,0.8-3.7,2.6c-0.5,0.3-0.9,0.8-1.4,0.8s-0.6-0.2-0.6-0.6V206c0-0.3,0.1-0.8,0.6-0.8s0.6,0.5,0.7,0.8
	c2.1,9.2,5.7,23.9,12.5,23.9c2.2,0,3.4-2.4,3.4-6c0-7.8-3.5-16.2-10-30.1c-6.2-13.2-8.5-22-8.5-30.4c0-11,4.7-14.4,10.6-14.4
	c2.4,0.2,4.6,1.1,6.5,2.7c0.5,0.4,1.1,0.6,1.7,0.7c1-0.4,1.9-1,2.7-1.9c1-0.9,1.7-1.5,2.4-1.5s0.8,0.6,0.8,1.3L296.7,179z"/>
</svg>
