<svg xmlns="http://www.w3.org/2000/svg" xmlns:xlink="http://www.w3.org/1999/xlink" id="Events" viewBox="0 0 371.43 371.43"><defs><style>.cls-1{fill:#37353c}.cls-2{fill:#92864f}.cls-3{fill:#231f20}.cls-4{fill:url(#linear-gradient)}.cls-5{fill:url(#linear-gradient-2)}.cls-6{fill:url(#New_Gradient_Swatch_copy_2)}.cls-7{fill:url(#New_Gradient_Swatch_copy_2-2)}.cls-8{fill:url(#New_Gradient_Swatch_copy_2-3)}.cls-9{fill:url(#New_Gradient_Swatch_copy_2-4)}.cls-10{fill:url(#New_Gradient_Swatch_copy_2-5)}.cls-11{fill:url(#New_Gradient_Swatch_copy_2-6)}.cls-12{fill:none;stroke:#625b32;stroke-miterlimit:10}</style><linearGradient id="linear-gradient" x1="3807.61" x2="4014.54" y1="1766.71" y2="1559.79" gradientTransform="translate(4189.65 1941.82) rotate(180)" gradientUnits="userSpaceOnUse"><stop offset="0" stop-color="#c09d30"/><stop offset=".35" stop-color="#d0a641"/><stop offset=".5" stop-color="#fffac4"/><stop offset=".65" stop-color="#d0a641"/><stop offset="1" stop-color="#c09d30"/></linearGradient><linearGradient id="linear-gradient-2" x1="3993.33" x2="4200.25" y1="1952.43" y2="1745.5" xlink:href="#linear-gradient"/><linearGradient id="New_Gradient_Swatch_copy_2" x1="94.09" x2="94.09" y1="135.71" y2="235.71" gradientUnits="userSpaceOnUse"><stop offset=".18" stop-color="#fffac4"/><stop offset=".21" stop-color="#f9efb4"/><stop offset=".25" stop-color="#eed893"/><stop offset=".76" stop-color="#d6b55a"/><stop offset=".84" stop-color="#d0a641"/><stop offset=".95" stop-color="#b69238"/></linearGradient><linearGradient id="New_Gradient_Swatch_copy_2-2" x1="135.02" x2="135.02" y1="149.04" y2="235.71" xlink:href="#New_Gradient_Swatch_copy_2"/><linearGradient id="New_Gradient_Swatch_copy_2-3" x1="171.71" x2="171.71" y1="149.04" y2="235.71" xlink:href="#New_Gradient_Swatch_copy_2"/><linearGradient id="New_Gradient_Swatch_copy_2-4" x1="210.83" x2="210.83" y1="149.04" y2="235.71" xlink:href="#New_Gradient_Swatch_copy_2"/><linearGradient id="New_Gradient_Swatch_copy_2-5" x1="250.29" x2="250.29" y1="149.04" y2="235.71" xlink:href="#New_Gradient_Swatch_copy_2"/><linearGradient id="New_Gradient_Swatch_copy_2-6" x1="285.25" x2="285.25" y1="149.04" y2="235.71" xlink:href="#New_Gradient_Swatch_copy_2"/></defs><rect width="371.43" height="371.43" class="cls-1"/><g id="Events-2" data-name="Events"><polygon points="164.5 371.43 0 371.43 0 206.93 206.93 0 371.43 0 371.43 164.5 164.5 371.43" class="cls-1"/><polygon points="35.72 335.71 119.28 119.28 335.71 35.72 252.15 252.15 35.72 335.71" class="cls-2"/><polygon points="214 371.43 371.43 214 371.43 157.43 157.43 371.43 214 371.43" class="cls-3"/><polygon points="157.43 0 .59 156.84 0 214 214 0 157.43 0" class="cls-3"/><polygon points="206.93 371.43 371.43 206.93 371.43 164.5 164.5 371.43 206.93 371.43" class="cls-4"/><polygon points="164.5 0 0 164.5 0 206.93 206.93 0 164.5 0" class="cls-5"/></g><path d="M89.29,181.45h2.93a1.44,1.44,0,0,0,1.47-.94l4.67-9.33c.27-.53.4-.8.8-.8s.53.27.53.8v28.27c0,.4-.13.67-.53.67s-.67-.41-.94-.94l-4.53-9.73a1.44,1.44,0,0,0-1.47-.94H89.29v40.54h7.6a3.49,3.49,0,0,0,3.6-2.4l7.2-25.6a1,1,0,0,1,.93-.8.75.75,0,0,1,.67.8v33.46a1.09,1.09,0,0,1-1.07,1.2H73.69a.77.77,0,0,1-.8-.79c0-.41.67-.67.93-1.21l4-3.86a4.85,4.85,0,0,0,1.2-3.73V145.31a4.85,4.85,0,0,0-1.2-3.73l-4-3.87c-.26-.4-.93-.8-.93-1.19a.77.77,0,0,1,.8-.81h34.53a1.18,1.18,0,0,1,1.07,1.2v33.2c0,.54-.27.81-.67.81a1.13,1.13,0,0,1-1.06-.94l-7.2-25.07a3.32,3.32,0,0,0-3.47-2.53h-7.6Z" class="cls-3"/><path d="M118.85,157.71a5.22,5.22,0,0,0-1.39-3l-3.81-3.81a2,2,0,0,1-.7-1.39c0-.34.35-.46,1-.46h17.92c.34,0,.69.12.69.46a1.81,1.81,0,0,1-.58,1.27l-3,2.78a3.91,3.91,0,0,0-1.39,3.12l5.89,40.56h.24l4.85-40.56a4.06,4.06,0,0,0-1.39-3.12l-2.77-2.78a2,2,0,0,1-.69-1.27c0-.34.46-.46.8-.46h15.49c.69,0,1,.12,1,.46a2,2,0,0,1-.69,1.39l-3.82,3.81a4.57,4.57,0,0,0-1.38,3l-9.13,76.73c-.12.81-.47,1.27-1.16,1.27h-4c-.58,0-.81-.34-.93-.92Z" class="cls-3"/><path d="M167.15,188.68h2.54a1.26,1.26,0,0,0,1.28-.81l4-8.09c.23-.46.35-.69.69-.69s.47.23.47.69v24.5c0,.35-.12.58-.47.58s-.57-.35-.81-.81L171,195.61a1.28,1.28,0,0,0-1.28-.81h-2.54v35.14h6.59a3,3,0,0,0,3.12-2.08l6.24-22.19a.86.86,0,0,1,.81-.7.65.65,0,0,1,.58.7v29a1,1,0,0,1-.93,1H153.63a.66.66,0,0,1-.69-.69c0-.35.58-.58.81-1l3.46-3.35a4.23,4.23,0,0,0,1-3.24v-70a4.22,4.22,0,0,0-1-3.23l-3.46-3.36c-.23-.34-.81-.69-.81-1a.67.67,0,0,1,.69-.69h29.93a1,1,0,0,1,.93,1v28.78c0,.46-.23.69-.58.69a1,1,0,0,1-.93-.81L176.74,157a2.86,2.86,0,0,0-3-2.2h-6.59Z" class="cls-3"/><path d="M193.38,157.36a4.89,4.89,0,0,0-1-3.23l-2.89-3.36c-.23-.34-.81-.69-.81-1.15a.66.66,0,0,1,.7-.58h13.87c.81,0,1.15.81,1.38,2l10.63,49.69h.24V157.36a4,4,0,0,0-1-3.12l-3.24-3.47c-.23-.34-.81-.69-.81-1.15a.65.65,0,0,1,.69-.58h15.26a.65.65,0,0,1,.69.58c0,.46-.46.81-.81,1.15l-2.89,3.36a5,5,0,0,0-1,3.23v77.08c0,.81-.34,1.27-1.15,1.27h-4.86c-1,0-2-1.15-2.31-2.88l-13.52-63h-.23v57.55a4,4,0,0,0,1.16,3.12l3.12,3.47c.34.35.81.69.81,1.16a.65.65,0,0,1-.7.57H189.34a.65.65,0,0,1-.7-.57c0-.47.58-.81.81-1.16l2.89-3.35a4.9,4.9,0,0,0,1-3.24Z" class="cls-3"/><path d="M242.84,154.59h-4.27c-.7,0-1,.58-1.27,1.27l-6,23a.89.89,0,0,1-.93.69c-.46,0-.58-.23-.58-.81V149.5a.53.53,0,0,1,.58-.46h33.86a.53.53,0,0,1,.58.46v29.24c0,.58-.12.81-.58.81a.87.87,0,0,1-.92-.69l-6-23c-.23-.69-.58-1.27-1.27-1.27h-4.28v72.8a4.23,4.23,0,0,0,.92,3.24l3.47,3.35c.35.35.81.69.81,1s-.11.69-.69.69H238.34c-.58,0-.7-.34-.7-.69s.46-.69.81-1l3.47-3.35c.81-.81.92-1.85.92-3.24Z" class="cls-3"/><path d="M293.69,179c0,.35-.23.58-.69.58s-.58-.35-.7-.81c-1.85-9.36-7.39-23.92-12.71-23.92-2.89,0-3.12,2.43-3.12,5.43,0,5.66,1.5,11.33,10,29.47,8.09,17.1,9,20.92,9,30.05,0,12.25-6.36,15.94-10.63,15.94a11,11,0,0,1-6.48-2.19,6.39,6.39,0,0,0-2.31-1.16c-.46,0-1.38.81-3.69,2.55-.47.34-.93.8-1.39.8s-.58-.23-.58-.57V206c0-.34.12-.8.58-.8s.58.46.69.8c2.08,9.25,5.66,23.93,12.48,23.93,2.2,0,3.35-2.43,3.35-6,0-7.75-3.46-16.18-10.05-30.05-6.24-13.17-8.55-22-8.55-30.39,0-11,4.74-14.45,10.63-14.45a11.41,11.41,0,0,1,6.47,2.66,4.14,4.14,0,0,0,1.73.69,6.33,6.33,0,0,0,2.66-1.85c1-.92,1.74-1.5,2.43-1.5s.81.58.81,1.27Z" class="cls-3"/><path d="M92.29,181.45h2.93a1.44,1.44,0,0,0,1.47-.94l4.67-9.33c.27-.53.4-.8.8-.8s.53.27.53.8v28.27c0,.4-.13.67-.53.67s-.67-.41-.94-.94l-4.53-9.73a1.44,1.44,0,0,0-1.47-.94H92.29v40.54h7.6a3.49,3.49,0,0,0,3.6-2.4l7.2-25.6a1,1,0,0,1,.93-.8.75.75,0,0,1,.67.8v33.46a1.09,1.09,0,0,1-1.07,1.2H76.69a.77.77,0,0,1-.8-.79c0-.41.67-.67.93-1.21l4-3.86a4.85,4.85,0,0,0,1.2-3.73V145.31a4.85,4.85,0,0,0-1.2-3.73l-4-3.87c-.26-.4-.93-.8-.93-1.19a.77.77,0,0,1,.8-.81h34.53a1.18,1.18,0,0,1,1.07,1.2v33.2c0,.54-.27.81-.67.81a1.13,1.13,0,0,1-1.06-.94l-7.2-25.07a3.32,3.32,0,0,0-3.47-2.53h-7.6Z" class="cls-6"/><path d="M121.85,157.71a5.22,5.22,0,0,0-1.39-3l-3.81-3.81a2,2,0,0,1-.7-1.39c0-.34.35-.46,1-.46h17.92c.34,0,.69.12.69.46a1.81,1.81,0,0,1-.58,1.27l-3,2.78a3.91,3.91,0,0,0-1.39,3.12l5.89,40.56h.24l4.85-40.56a4.06,4.06,0,0,0-1.39-3.12l-2.77-2.78a2,2,0,0,1-.69-1.27c0-.34.46-.46.8-.46h15.49c.69,0,1,.12,1,.46a2,2,0,0,1-.69,1.39l-3.82,3.81a4.57,4.57,0,0,0-1.38,3l-9.13,76.73c-.12.81-.47,1.27-1.16,1.27h-4c-.58,0-.81-.34-.93-.92Z" class="cls-7"/><path d="M170.15,188.68h2.54a1.26,1.26,0,0,0,1.28-.81l4-8.09c.23-.46.35-.69.69-.69s.47.23.47.69v24.5c0,.35-.12.58-.47.58s-.57-.35-.81-.81L174,195.61a1.28,1.28,0,0,0-1.28-.81h-2.54v35.14h6.59a3,3,0,0,0,3.12-2.08l6.24-22.19a.86.86,0,0,1,.81-.7.65.65,0,0,1,.58.7v29a1,1,0,0,1-.93,1H156.63a.66.66,0,0,1-.69-.69c0-.35.58-.58.81-1l3.46-3.35a4.23,4.23,0,0,0,1-3.24v-70a4.22,4.22,0,0,0-1-3.23l-3.46-3.36c-.23-.34-.81-.69-.81-1a.67.67,0,0,1,.69-.69h29.93a1,1,0,0,1,.93,1v28.78c0,.46-.23.69-.58.69a1,1,0,0,1-.93-.81L179.74,157a2.86,2.86,0,0,0-3-2.2h-6.59Z" class="cls-8"/><path d="M196.38,157.36a4.89,4.89,0,0,0-1-3.23l-2.89-3.36c-.23-.34-.81-.69-.81-1.15a.66.66,0,0,1,.7-.58h13.87c.81,0,1.15.81,1.38,2l10.63,49.69h.24V157.36a4,4,0,0,0-1-3.12l-3.24-3.47c-.23-.34-.81-.69-.81-1.15a.65.65,0,0,1,.69-.58h15.26a.65.65,0,0,1,.69.58c0,.46-.46.81-.81,1.15l-2.89,3.36a5,5,0,0,0-1,3.23v77.08c0,.81-.34,1.27-1.15,1.27h-4.86c-1,0-2-1.15-2.31-2.88l-13.52-63h-.23v57.55a4,4,0,0,0,1.16,3.12l3.12,3.47c.34.35.81.69.81,1.16a.65.65,0,0,1-.7.57H192.34a.65.65,0,0,1-.7-.57c0-.47.58-.81.81-1.16l2.89-3.35a4.9,4.9,0,0,0,1-3.24Z" class="cls-9"/><path d="M245.84,154.59h-4.27c-.7,0-1,.58-1.27,1.27l-6,23a.89.89,0,0,1-.93.69c-.46,0-.58-.23-.58-.81V149.5a.53.53,0,0,1,.58-.46h33.86a.53.53,0,0,1,.58.46v29.24c0,.58-.12.81-.58.81a.87.87,0,0,1-.92-.69l-6-23c-.23-.69-.58-1.27-1.27-1.27h-4.28v72.8a4.23,4.23,0,0,0,.92,3.24l3.47,3.35c.35.35.81.69.81,1s-.11.69-.69.69H241.34c-.58,0-.7-.34-.7-.69s.46-.69.81-1l3.47-3.35c.81-.81.92-1.85.92-3.24Z" class="cls-10"/><path d="M296.69,179c0,.35-.23.58-.69.58s-.58-.35-.7-.81c-1.85-9.36-7.39-23.92-12.71-23.92-2.89,0-3.12,2.43-3.12,5.43,0,5.66,1.5,11.33,10,29.47,8.09,17.1,9,20.92,9,30.05,0,12.25-6.36,15.94-10.63,15.94a11,11,0,0,1-6.48-2.19,6.39,6.39,0,0,0-2.31-1.16c-.46,0-1.38.81-3.69,2.55-.47.34-.93.8-1.39.8s-.58-.23-.58-.57V206c0-.34.12-.8.58-.8s.58.46.69.8c2.08,9.25,5.66,23.93,12.48,23.93,2.2,0,3.35-2.43,3.35-6,0-7.75-3.46-16.18-10.05-30.05-6.24-13.17-8.55-22-8.55-30.39,0-11,4.74-14.45,10.63-14.45a11.41,11.41,0,0,1,6.47,2.66,4.14,4.14,0,0,0,1.73.69,6.33,6.33,0,0,0,2.66-1.85c1-.92,1.74-1.5,2.43-1.5s.81.58.81,1.27Z" class="cls-11"/><path d="M92.29,181.45h2.93a1.44,1.44,0,0,0,1.47-.94l4.67-9.33c.27-.53.4-.8.8-.8s.53.27.53.8v28.27c0,.4-.13.67-.53.67s-.67-.41-.94-.94l-4.53-9.73a1.44,1.44,0,0,0-1.47-.94H92.29v40.54h7.6a3.49,3.49,0,0,0,3.6-2.4l7.2-25.6a1,1,0,0,1,.93-.8.75.75,0,0,1,.67.8v33.46a1.09,1.09,0,0,1-1.07,1.2H76.69a.77.77,0,0,1-.8-.79c0-.41.67-.67.93-1.21l4-3.86a4.85,4.85,0,0,0,1.2-3.73V145.31a4.85,4.85,0,0,0-1.2-3.73l-4-3.87c-.26-.4-.93-.8-.93-1.19a.77.77,0,0,1,.8-.81h34.53a1.18,1.18,0,0,1,1.07,1.2v33.2c0,.54-.27.81-.67.81a1.13,1.13,0,0,1-1.06-.94l-7.2-25.07a3.32,3.32,0,0,0-3.47-2.53h-7.6Z" class="cls-12"/><path d="M121.85,157.71a5.22,5.22,0,0,0-1.39-3l-3.81-3.81a2,2,0,0,1-.7-1.39c0-.34.35-.46,1-.46h17.92c.34,0,.69.12.69.46a1.81,1.81,0,0,1-.58,1.27l-3,2.78a3.91,3.91,0,0,0-1.39,3.12l5.89,40.56h.24l4.85-40.56a4.06,4.06,0,0,0-1.39-3.12l-2.77-2.78a2,2,0,0,1-.69-1.27c0-.34.46-.46.8-.46h15.49c.69,0,1,.12,1,.46a2,2,0,0,1-.69,1.39l-3.82,3.81a4.57,4.57,0,0,0-1.38,3l-9.13,76.73c-.12.81-.47,1.27-1.16,1.27h-4c-.58,0-.81-.34-.93-.92Z" class="cls-12"/><path d="M170.15,188.68h2.54a1.26,1.26,0,0,0,1.28-.81l4-8.09c.23-.46.35-.69.69-.69s.47.23.47.69v24.5c0,.35-.12.58-.47.58s-.57-.35-.81-.81L174,195.61a1.28,1.28,0,0,0-1.28-.81h-2.54v35.14h6.59a3,3,0,0,0,3.12-2.08l6.24-22.19a.86.86,0,0,1,.81-.7.65.65,0,0,1,.58.7v29a1,1,0,0,1-.93,1H156.63a.66.66,0,0,1-.69-.69c0-.35.58-.58.81-1l3.46-3.35a4.23,4.23,0,0,0,1-3.24v-70a4.22,4.22,0,0,0-1-3.23l-3.46-3.36c-.23-.34-.81-.69-.81-1a.67.67,0,0,1,.69-.69h29.93a1,1,0,0,1,.93,1v28.78c0,.46-.23.69-.58.69a1,1,0,0,1-.93-.81L179.74,157a2.86,2.86,0,0,0-3-2.2h-6.59Z" class="cls-12"/><path d="M196.38,157.36a4.89,4.89,0,0,0-1-3.23l-2.89-3.36c-.23-.34-.81-.69-.81-1.15a.66.66,0,0,1,.7-.58h13.87c.81,0,1.15.81,1.38,2l10.63,49.69h.24V157.36a4,4,0,0,0-1-3.12l-3.24-3.47c-.23-.34-.81-.69-.81-1.15a.65.65,0,0,1,.69-.58h15.26a.65.65,0,0,1,.69.58c0,.46-.46.81-.81,1.15l-2.89,3.36a5,5,0,0,0-1,3.23v77.08c0,.81-.34,1.27-1.15,1.27h-4.86c-1,0-2-1.15-2.31-2.88l-13.52-63h-.23v57.55a4,4,0,0,0,1.16,3.12l3.12,3.47c.34.35.81.69.81,1.16a.65.65,0,0,1-.7.57H192.34a.65.65,0,0,1-.7-.57c0-.47.58-.81.81-1.16l2.89-3.35a4.9,4.9,0,0,0,1-3.24Z" class="cls-12"/><path d="M245.84,154.59h-4.27c-.7,0-1,.58-1.27,1.27l-6,23a.89.89,0,0,1-.93.69c-.46,0-.58-.23-.58-.81V149.5a.53.53,0,0,1,.58-.46h33.86a.53.53,0,0,1,.58.46v29.24c0,.58-.12.81-.58.81a.87.87,0,0,1-.92-.69l-6-23c-.23-.69-.58-1.27-1.27-1.27h-4.28v72.8a4.23,4.23,0,0,0,.92,3.24l3.47,3.35c.35.35.81.69.81,1s-.11.69-.69.69H241.34c-.58,0-.7-.34-.7-.69s.46-.69.81-1l3.47-3.35c.81-.81.92-1.85.92-3.24Z" class="cls-12"/><path d="M296.69,179c0,.35-.23.58-.69.58s-.58-.35-.7-.81c-1.85-9.36-7.39-23.92-12.71-23.92-2.89,0-3.12,2.43-3.12,5.43,0,5.66,1.5,11.33,10,29.47,8.09,17.1,9,20.92,9,30.05,0,12.25-6.36,15.94-10.63,15.94a11,11,0,0,1-6.48-2.19,6.39,6.39,0,0,0-2.31-1.16c-.46,0-1.38.81-3.69,2.55-.47.34-.93.8-1.39.8s-.58-.23-.58-.57V206c0-.34.12-.8.58-.8s.58.46.69.8c2.08,9.25,5.66,23.93,12.48,23.93,2.2,0,3.35-2.43,3.35-6,0-7.75-3.46-16.18-10.05-30.05-6.24-13.17-8.55-22-8.55-30.39,0-11,4.74-14.45,10.63-14.45a11.41,11.41,0,0,1,6.47,2.66,4.14,4.14,0,0,0,1.73.69,6.33,6.33,0,0,0,2.66-1.85c1-.92,1.74-1.5,2.43-1.5s.81.58.81,1.27Z" class="cls-12"/></svg>