<svg id="Layer_1" data-name="Layer 1" xmlns="http://www.w3.org/2000/svg" xmlns:xlink="http://www.w3.org/1999/xlink" viewBox="0 0 1790 576"><defs><style>.cls-1{stroke:#231f20;fill:url(#radial-gradient);}.cls-1,.cls-4,.cls-6{stroke-miterlimit:10;}.cls-2{fill:#323232;}.cls-3{fill:#969696;}.cls-4,.cls-6{fill:none;}.cls-4{stroke:#969696;stroke-width:10px;}.cls-5{fill:#fff;}.cls-6{stroke:#000;stroke-width:5px;}</style><radialGradient id="radial-gradient" cx="895" cy="288" r="664.82" gradientTransform="translate(0 144) scale(1 0.5)" gradientUnits="userSpaceOnUse"><stop offset="0.05" stop-color="#f03a40"/><stop offset="0.63" stop-color="#ed0024"/><stop offset="1" stop-color="#9d0b0f"/></radialGradient></defs><rect class="cls-1" width="1790" height="576"/><rect class="cls-2" width="148.89" height="576"/><polygon class="cls-3" points="74.44 144 38.44 72 74.44 0 110.44 72 74.44 144"/><polygon class="cls-3" points="74.44 288 38.44 216 74.44 144 110.44 216 74.44 288"/><polygon class="cls-3" points="74.44 432 38.44 360 74.44 288 110.44 360 74.44 432"/><polygon class="cls-3" points="74.44 576 38.44 504 74.44 432 110.44 504 74.44 576"/><line class="cls-4" x1="125.96" x2="125.96" y2="576"/><line class="cls-4" x1="24.09" x2="24.09" y2="576"/><rect class="cls-2" x="1641.11" width="148.89" height="576"/><polygon class="cls-3" points="1715.56 144 1679.56 72 1715.56 0 1751.56 72 1715.56 144"/><polygon class="cls-3" points="1715.56 288 1679.56 216 1715.56 144 1751.56 216 1715.56 288"/><polygon class="cls-3" points="1715.56 432 1679.56 360 1715.56 288 1751.56 360 1715.56 432"/><polygon class="cls-3" points="1715.56 576 1679.56 504 1715.56 432 1751.56 504 1715.56 576"/><line class="cls-4" x1="1767.07" x2="1767.07" y2="576"/><line class="cls-4" x1="1665.21" x2="1665.21" y2="576"/><path class="cls-5" d="M1788,2V574H2V2H1788m2-2H0V576H1790V0Z"/><path class="cls-5" d="M451.12,150.34H416.88v94.71H388.76V150.34H354.52V119.91h96.6Z"/><path class="cls-5" d="M558,245.05H527.77l-7.35-22.21q-4-12.18-7.28-17.83t-6.3-7.22a17.22,17.22,0,0,0-7.92-1.58h-3.17v48.84H467.57V119.91H515.5q11.6,0,19,6.32a36,36,0,0,1,10.68,15.35,50.41,50.41,0,0,1,3.27,17.15,41.68,41.68,0,0,1-2.73,16q-2.73,6.56-5.76,9.53a58.25,58.25,0,0,1-6.81,5.69,30.58,30.58,0,0,1,7.45,8.35q2.94,4.83,8,19.55Zm-38.29-85.59q0-8.67-4.25-12.1t-13.82-3.43h-5.93v30.15h6.06q10.32,0,14.13-3T519.75,159.46Z"/><path class="cls-5" d="M673.45,245.05H644.59L637,219.68H596.39l-7.75,25.37H559.79l41.32-125.14h31.15Zm-42.94-47.13-13.69-45.69L603,197.92Z"/><path class="cls-5" d="M781.91,184.74q0,19.23-5.22,30.88a64.23,64.23,0,0,1-12.3,18.87q-10,10.56-28.11,10.56H685.85V119.91h38.83a78.85,78.85,0,0,1,15,1.22,51.86,51.86,0,0,1,11.22,3.43,39.91,39.91,0,0,1,8.5,5,47.23,47.23,0,0,1,6.27,5.92,54.7,54.7,0,0,1,8.39,12.37,71.84,71.84,0,0,1,5.73,16.52A92.21,92.21,0,0,1,781.91,184.74Zm-28.65-1.63q0-15.26-4.34-23.79T738.47,147.9A28.76,28.76,0,0,0,726,145H714v74.13h12a28.21,28.21,0,0,0,19.14-7Q753.27,205.05,753.26,183.11Z"/><path class="cls-5" d="M827.62,245.05H799.44V119.91h28.18Z"/><path class="cls-5" d="M940.81,150.34H906.56v94.71H878.45V150.34H844.2V119.91h96.61Z"/><path class="cls-5" d="M985.57,245.05H957.39V119.91h28.18Z"/><path class="cls-5" d="M1109.13,182.39a84.28,84.28,0,0,1-6,32.24,53,53,0,0,1-18,23.38q-11.94,8.67-29.06,8.67-17.32,0-29.32-9a53.76,53.76,0,0,1-17.83-23.75,88.34,88.34,0,0,1,0-63.07,53.3,53.3,0,0,1,17.83-23.65q12-9,29.36-9a50.33,50.33,0,0,1,23.09,5.15,46.84,46.84,0,0,1,16.68,13.95,63.34,63.34,0,0,1,9.91,20.5A88.22,88.22,0,0,1,1109.13,182.39Zm-28.71,0a50.22,50.22,0,0,0-1.55-12.87,30.19,30.19,0,0,0-4.69-10.11,22.31,22.31,0,0,0-7.65-6.68,21.92,21.92,0,0,0-10.45-2.39q-11.32,0-17.8,8.85t-6.47,23.2q0,14.36,6.51,23.25a20.82,20.82,0,0,0,17.76,8.9,21.33,21.33,0,0,0,13.21-4.11,25.26,25.26,0,0,0,8.29-11.38A45.59,45.59,0,0,0,1080.42,182.39Z"/><path class="cls-5" d="M1226.16,245.05h-25.07l-48.47-69.7v69.7h-27.91V119.91h25l48.33,69.34V119.91h28.11Z"/><path class="cls-5" d="M1350.27,245.05h-28.85l-7.62-25.37h-40.58l-7.76,25.37h-28.85l41.33-125.14h31.14Zm-42.94-47.13-13.69-45.69-13.82,45.69Z"/><path class="cls-5" d="M1433.66,245.05h-71V119.91h28.18v95.17h42.81Z"/><path class="cls-5" d="M755.56,416.31H716.79V467H688.61V341.81h66.95v25.11H716.79v24.19h38.77Z"/><path class="cls-5" d="M874.47,404.3a84.19,84.19,0,0,1-6,32.23,53,53,0,0,1-18,23.39q-11.93,8.67-29.05,8.67-17.32,0-29.33-9a53.89,53.89,0,0,1-17.83-23.75,88.42,88.42,0,0,1,0-63.07,53.26,53.26,0,0,1,17.83-23.66q12-9,29.36-9a50.36,50.36,0,0,1,23.09,5.14,47,47,0,0,1,16.68,14,63.5,63.5,0,0,1,9.91,20.49A88.35,88.35,0,0,1,874.47,404.3Zm-28.72,0a49.68,49.68,0,0,0-1.55-12.87,30,30,0,0,0-4.68-10.11,22.31,22.31,0,0,0-7.65-6.68,22,22,0,0,0-10.45-2.4q-11.32,0-17.8,8.85t-6.47,23.21q0,14.35,6.5,23.25a20.84,20.84,0,0,0,17.77,8.89,21.35,21.35,0,0,0,13.21-4.11A25.36,25.36,0,0,0,842.92,421,45.63,45.63,0,0,0,845.75,404.3Z"/><path class="cls-5" d="M992,404.3a84.19,84.19,0,0,1-6,32.23,53,53,0,0,1-18,23.39q-11.93,8.67-29.05,8.67-17.32,0-29.33-9a53.89,53.89,0,0,1-17.83-23.75,88.42,88.42,0,0,1,0-63.07,53.26,53.26,0,0,1,17.83-23.66q12-9,29.36-9A50.36,50.36,0,0,1,962,345.24a47,47,0,0,1,16.68,14,63.5,63.5,0,0,1,9.91,20.49A88.35,88.35,0,0,1,992,404.3Zm-28.72,0a49.68,49.68,0,0,0-1.55-12.87A30,30,0,0,0,957,381.32a22.31,22.31,0,0,0-7.65-6.68,22,22,0,0,0-10.45-2.4q-11.32,0-17.8,8.85t-6.47,23.21q0,14.35,6.5,23.25a20.84,20.84,0,0,0,17.77,8.89,21.35,21.35,0,0,0,13.21-4.11A25.36,25.36,0,0,0,960.42,421,45.63,45.63,0,0,0,963.25,404.3Z"/><path class="cls-5" d="M1105.56,406.64q0,19.25-5.22,30.89A64.45,64.45,0,0,1,1088,456.4Q1078,467,1059.92,467H1009.5V341.81h38.83a79.68,79.68,0,0,1,15,1.22,52.6,52.6,0,0,1,11.22,3.43,39.92,39.92,0,0,1,8.5,5,47.11,47.11,0,0,1,6.26,5.91,55.18,55.18,0,0,1,8.4,12.37,72.1,72.1,0,0,1,5.73,16.53A92.79,92.79,0,0,1,1105.56,406.64ZM1076.91,405q0-15.25-4.35-23.79t-10.45-11.43a28.81,28.81,0,0,0-12.43-2.88h-12v74.13h12a28.17,28.17,0,0,0,19.14-7.05Q1076.91,427,1076.91,405Z"/><path class="cls-6" d="M451.12,150.34H416.88v94.71H388.76V150.34H354.52V119.91h96.6Z"/><path class="cls-6" d="M558,245.05H527.77l-7.35-22.21q-4-12.18-7.28-17.83t-6.3-7.22a17.22,17.22,0,0,0-7.92-1.58h-3.17v48.84H467.57V119.91H515.5q11.6,0,19,6.32a36,36,0,0,1,10.68,15.35,50.41,50.41,0,0,1,3.27,17.15,41.68,41.68,0,0,1-2.73,16q-2.73,6.56-5.76,9.53a58.25,58.25,0,0,1-6.81,5.69,30.58,30.58,0,0,1,7.45,8.35q2.94,4.83,8,19.55Zm-38.29-85.59q0-8.67-4.25-12.1t-13.82-3.43h-5.93v30.15h6.06q10.32,0,14.13-3T519.75,159.46Z"/><path class="cls-6" d="M673.45,245.05H644.59L637,219.68H596.39l-7.75,25.37H559.79l41.32-125.14h31.15Zm-42.94-47.13-13.69-45.69L603,197.92Z"/><path class="cls-6" d="M781.91,184.74q0,19.23-5.22,30.88a64.23,64.23,0,0,1-12.3,18.87q-10,10.56-28.11,10.56H685.85V119.91h38.83a78.85,78.85,0,0,1,15,1.22,51.86,51.86,0,0,1,11.22,3.43,39.91,39.91,0,0,1,8.5,5,47.23,47.23,0,0,1,6.27,5.92,54.7,54.7,0,0,1,8.39,12.37,71.84,71.84,0,0,1,5.73,16.52A92.21,92.21,0,0,1,781.91,184.74Zm-28.65-1.63q0-15.26-4.34-23.79T738.47,147.9A28.76,28.76,0,0,0,726,145H714v74.13h12a28.21,28.21,0,0,0,19.14-7Q753.27,205.05,753.26,183.11Z"/><path class="cls-6" d="M827.62,245.05H799.44V119.91h28.18Z"/><path class="cls-6" d="M940.81,150.34H906.56v94.71H878.45V150.34H844.2V119.91h96.61Z"/><path class="cls-6" d="M985.57,245.05H957.39V119.91h28.18Z"/><path class="cls-6" d="M1109.13,182.39a84.28,84.28,0,0,1-6,32.24,53,53,0,0,1-18,23.38q-11.94,8.67-29.06,8.67-17.32,0-29.32-9a53.76,53.76,0,0,1-17.83-23.75,88.34,88.34,0,0,1,0-63.07,53.3,53.3,0,0,1,17.83-23.65q12-9,29.36-9a50.33,50.33,0,0,1,23.09,5.15,46.84,46.84,0,0,1,16.68,13.95,63.34,63.34,0,0,1,9.91,20.5A88.22,88.22,0,0,1,1109.13,182.39Zm-28.71,0a50.22,50.22,0,0,0-1.55-12.87,30.19,30.19,0,0,0-4.69-10.11,22.31,22.31,0,0,0-7.65-6.68,21.92,21.92,0,0,0-10.45-2.39q-11.32,0-17.8,8.85t-6.47,23.2q0,14.36,6.51,23.25a20.82,20.82,0,0,0,17.76,8.9,21.33,21.33,0,0,0,13.21-4.11,25.26,25.26,0,0,0,8.29-11.38A45.59,45.59,0,0,0,1080.42,182.39Z"/><path class="cls-6" d="M1226.16,245.05h-25.07l-48.47-69.7v69.7h-27.91V119.91h25l48.33,69.34V119.91h28.11Z"/><path class="cls-6" d="M1350.27,245.05h-28.85l-7.62-25.37h-40.58l-7.76,25.37h-28.85l41.33-125.14h31.14Zm-42.94-47.13-13.69-45.69-13.82,45.69Z"/><path class="cls-6" d="M1433.66,245.05h-71V119.91h28.18v95.17h42.81Z"/><path class="cls-6" d="M755.56,416.31H716.79V467H688.61V341.81h66.95v25.11H716.79v24.19h38.77Z"/><path class="cls-6" d="M874.47,404.3a84.19,84.19,0,0,1-6,32.23,53,53,0,0,1-18,23.39q-11.93,8.67-29.05,8.67-17.32,0-29.33-9a53.89,53.89,0,0,1-17.83-23.75,88.42,88.42,0,0,1,0-63.07,53.26,53.26,0,0,1,17.83-23.66q12-9,29.36-9a50.36,50.36,0,0,1,23.09,5.14,47,47,0,0,1,16.68,14,63.5,63.5,0,0,1,9.91,20.49A88.35,88.35,0,0,1,874.47,404.3Zm-28.72,0a49.68,49.68,0,0,0-1.55-12.87,30,30,0,0,0-4.68-10.11,22.31,22.31,0,0,0-7.65-6.68,22,22,0,0,0-10.45-2.4q-11.32,0-17.8,8.85t-6.47,23.21q0,14.35,6.5,23.25a20.84,20.84,0,0,0,17.77,8.89,21.35,21.35,0,0,0,13.21-4.11A25.36,25.36,0,0,0,842.92,421,45.63,45.63,0,0,0,845.75,404.3Z"/><path class="cls-6" d="M992,404.3a84.19,84.19,0,0,1-6,32.23,53,53,0,0,1-18,23.39q-11.93,8.67-29.05,8.67-17.32,0-29.33-9a53.89,53.89,0,0,1-17.83-23.75,88.42,88.42,0,0,1,0-63.07,53.26,53.26,0,0,1,17.83-23.66q12-9,29.36-9A50.36,50.36,0,0,1,962,345.24a47,47,0,0,1,16.68,14,63.5,63.5,0,0,1,9.91,20.49A88.35,88.35,0,0,1,992,404.3Zm-28.72,0a49.68,49.68,0,0,0-1.55-12.87A30,30,0,0,0,957,381.32a22.31,22.31,0,0,0-7.65-6.68,22,22,0,0,0-10.45-2.4q-11.32,0-17.8,8.85t-6.47,23.21q0,14.35,6.5,23.25a20.84,20.84,0,0,0,17.77,8.89,21.35,21.35,0,0,0,13.21-4.11A25.36,25.36,0,0,0,960.42,421,45.63,45.63,0,0,0,963.25,404.3Z"/><path class="cls-6" d="M1105.56,406.64q0,19.25-5.22,30.89A64.45,64.45,0,0,1,1088,456.4Q1078,467,1059.92,467H1009.5V341.81h38.83a79.68,79.68,0,0,1,15,1.22,52.6,52.6,0,0,1,11.22,3.43,39.92,39.92,0,0,1,8.5,5,47.11,47.11,0,0,1,6.26,5.91,55.18,55.18,0,0,1,8.4,12.37,72.1,72.1,0,0,1,5.73,16.53A92.79,92.79,0,0,1,1105.56,406.64ZM1076.91,405q0-15.25-4.35-23.79t-10.45-11.43a28.81,28.81,0,0,0-12.43-2.88h-12v74.13h12a28.17,28.17,0,0,0,19.14-7.05Q1076.91,427,1076.91,405Z"/></svg>