<svg xmlns="http://www.w3.org/2000/svg" xmlns:xlink="http://www.w3.org/1999/xlink" viewBox="0 0 1080 1080"><defs><style>.cls-1{isolation:isolate;}.cls-2{fill:url(#radial-gradient);}.cls-3{fill:#ce790a;stroke:#ce790a;stroke-width:16px;}.cls-3,.cls-4{stroke-linejoin:round;}.cls-4{fill:#fff;stroke:#fff;stroke-width:7px;}.cls-5{fill:url(#linear-gradient);}.cls-6{fill:#ecb38d;stroke:#ecb38d;stroke-miterlimit:10;stroke-width:2px;}.cls-7{fill:#5e2e04;}.cls-8{mix-blend-mode:darken;opacity:0.4;}.cls-9{fill:url(#linear-gradient-2);}.cls-10{fill:url(#linear-gradient-3);}.cls-11{fill:url(#linear-gradient-4);}.cls-12{fill:url(#linear-gradient-5);}.cls-13{fill:url(#linear-gradient-6);}.cls-14{fill:url(#linear-gradient-7);}.cls-15{fill:url(#linear-gradient-8);}.cls-16{fill:url(#linear-gradient-9);}.cls-17{fill:url(#linear-gradient-10);}.cls-18{fill:url(#linear-gradient-11);}.cls-19{fill:url(#linear-gradient-12);}.cls-20{fill:url(#linear-gradient-13);}.cls-21{fill:url(#linear-gradient-14);}.cls-22{fill:url(#linear-gradient-15);}.cls-23{fill:url(#linear-gradient-16);}.cls-24{fill:url(#linear-gradient-17);}.cls-25{fill:url(#linear-gradient-18);}.cls-26{fill:url(#linear-gradient-19);}.cls-27{fill:url(#linear-gradient-20);}.cls-28{fill:#b3864d;}.cls-29{fill:#603813;}.cls-30{fill:url(#linear-gradient-21);}.cls-31{fill:#8b6239;}.cls-32{fill:#c59b6d;}</style><radialGradient id="radial-gradient" cx="540" cy="540" r="540" gradientUnits="userSpaceOnUse"><stop offset="0" stop-color="#f8c15e"/><stop offset="0.22" stop-color="#f4bc5b"/><stop offset="0.49" stop-color="#e7ad54"/><stop offset="0.79" stop-color="#d39447"/><stop offset="1" stop-color="#c07d3c"/></radialGradient><linearGradient id="linear-gradient" x1="540" y1="62.53" x2="540" y2="218.61" gradientUnits="userSpaceOnUse"><stop offset="0" stop-color="#e7a41d"/><stop offset="1" stop-color="#e16716"/></linearGradient><linearGradient id="linear-gradient-2" x1="50.15" y1="253.32" x2="50.15" y2="307.51" gradientUnits="userSpaceOnUse"><stop offset="0" stop-opacity="0"/><stop offset="1"/></linearGradient><linearGradient id="linear-gradient-3" x1="111" y1="253.32" x2="111" y2="307.51" xlink:href="#linear-gradient-2"/><linearGradient id="linear-gradient-4" x1="167.95" y1="253.32" x2="167.95" y2="307.51" xlink:href="#linear-gradient-2"/><linearGradient id="linear-gradient-5" x1="203.49" y1="253.32" x2="203.49" y2="307.51" xlink:href="#linear-gradient-2"/><linearGradient id="linear-gradient-6" x1="243.64" y1="253.32" x2="243.64" y2="307.51" xlink:href="#linear-gradient-2"/><linearGradient id="linear-gradient-7" x1="304.3" y1="252.4" x2="304.3" y2="308.43" xlink:href="#linear-gradient-2"/><linearGradient id="linear-gradient-8" x1="388.95" y1="253.32" x2="388.95" y2="307.51" xlink:href="#linear-gradient-2"/><linearGradient id="linear-gradient-9" x1="445.31" y1="253.32" x2="445.31" y2="307.51" xlink:href="#linear-gradient-2"/><linearGradient id="linear-gradient-10" x1="505.01" y1="253.32" x2="505.01" y2="307.51" xlink:href="#linear-gradient-2"/><linearGradient id="linear-gradient-11" x1="570.49" y1="252.36" x2="570.49" y2="308.43" xlink:href="#linear-gradient-2"/><linearGradient id="linear-gradient-12" x1="630.91" y1="253.32" x2="630.91" y2="307.51" xlink:href="#linear-gradient-2"/><linearGradient id="linear-gradient-13" x1="687.15" y1="252.4" x2="687.15" y2="308.43" xlink:href="#linear-gradient-2"/><linearGradient id="linear-gradient-14" x1="739.37" y1="253.32" x2="739.37" y2="307.51" xlink:href="#linear-gradient-2"/><linearGradient id="linear-gradient-15" x1="795.93" y1="253.32" x2="795.93" y2="307.51" xlink:href="#linear-gradient-2"/><linearGradient id="linear-gradient-16" x1="849.55" y1="253.32" x2="849.55" y2="307.51" xlink:href="#linear-gradient-2"/><linearGradient id="linear-gradient-17" x1="895.46" y1="253.32" x2="895.46" y2="307.51" xlink:href="#linear-gradient-2"/><linearGradient id="linear-gradient-18" x1="931.48" y1="253.32" x2="931.48" y2="307.51" xlink:href="#linear-gradient-2"/><linearGradient id="linear-gradient-19" x1="974.26" y1="252.36" x2="974.26" y2="308.43" xlink:href="#linear-gradient-2"/><linearGradient id="linear-gradient-20" x1="1034.68" y1="253.32" x2="1034.68" y2="307.51" xlink:href="#linear-gradient-2"/><linearGradient id="linear-gradient-21" x1="1389.52" y1="462.93" x2="1903.17" y2="462.93" gradientTransform="translate(1001.06 -948.81) rotate(90)" gradientUnits="userSpaceOnUse"><stop offset="0" stop-color="#603813"/><stop offset="0.02" stop-color="#6c431b"/><stop offset="0.09" stop-color="#865b2d"/><stop offset="0.16" stop-color="#9a6e3b"/><stop offset="0.24" stop-color="#a87c45"/><stop offset="0.34" stop-color="#b0844b"/><stop offset="0.5" stop-color="#b3864d"/><stop offset="0.66" stop-color="#b0844b"/><stop offset="0.76" stop-color="#a87c45"/><stop offset="0.84" stop-color="#9a6e3b"/><stop offset="0.91" stop-color="#865b2d"/><stop offset="0.98" stop-color="#6c431b"/><stop offset="1" stop-color="#603813"/></linearGradient></defs><g class="cls-1"><g id="Fry_Bread" data-name="Fry Bread"><rect class="cls-2" width="1080" height="1080"/><path d="M123.92,95.37Q159.43,89.75,195,85.08l3.24,24.76q-14.44,1.89-28.88,3.94l3.33,23.43q12.74-1.82,25.49-3.5,1.54,11.78,3.11,23.54-12.63,1.67-25.25,3.46,3.67,25.95,7.37,51.89-20,2.84-40,6Q133.68,157,123.92,95.37Z"/><path d="M205.23,83.77q14.9-1.89,29.8-3.62c19.87-2.29,33.41-3.06,40.56-2.59a28.9,28.9,0,0,1,18.07,7.34q7.32,6.63,8.74,22.53c.89,9.67-.07,16.31-2.83,19.92S291,133.52,282,135.08c8.32.77,14,2.38,17.06,4.78s5,4.68,5.9,6.84,1.78,8.26,2.7,18.29q1.48,16.38,3,32.77-18.69,1.71-37.34,3.69l-4.38-41.24q-1.05-10-3.3-12.12t-10.74-1.24q3.11,28,6.2,55.92Q241,205,221,207.55,213.1,145.66,205.23,83.77ZM249.69,100l3.06,27.57q7-.76,9.61-2.56c1.76-1.2,2.36-4.52,1.78-10-.24-2.28-.49-4.55-.73-6.82-.41-3.94-1.6-6.42-3.55-7.45S254.52,99.44,249.69,100Z"/><path d="M405.67,65.94q-13.4,40.53-25.85,81.21,1.43,22.53,2.83,45.07-18.66,1.17-37.31,2.62l-3.49-45Q324.38,111.23,306,72.9q19.38-1.73,38.78-3.16c7.86,23.85,12.34,40,13.7,48.31a474.88,474.88,0,0,1,8.33-49.84Q386.24,66.92,405.67,65.94Z"/><path d="M449.17,64.07q21.09-.73,42.21-1.14c13.33-.25,23.45.45,30.32,2a30.09,30.09,0,0,1,16.64,9.59q6.31,7.27,6.28,23.45c0,7.29-1.48,12.37-4.4,15.25s-8.68,5.09-17.26,6.7c9.59,1.62,16.08,4.44,19.48,8.37s5.08,10,5.06,18.09c0,3.85,0,7.71,0,11.56q0,12.66-3.65,18.74T532.36,185c-5.24,1.52-16,2.31-32.19,2.57q-23.34.39-46.66,1.2Q451.34,126.41,449.17,64.07Zm42.71,20.2q.27,13.88.53,27.74,2.67-.12,4.14-.15,6.12-.1,7.76-2.47t1.5-13.48q-.09-5.85-1.51-8.18a6.07,6.07,0,0,0-3.68-2.92A41.39,41.39,0,0,0,491.88,84.27Zm.9,47.16.66,34.91c5.73-.27,9.38-1,10.94-2.35s2.31-4.47,2.24-9.51q-.09-5.82-.16-11.63c-.08-5.35-.84-8.57-2.29-9.68S498.92,131.47,492.78,131.43Z"/><path d="M562.85,62.53q15,.11,30,.39c20,.39,33.47,1.43,40.49,2.85a28.85,28.85,0,0,1,16.91,9.69Q656.57,83,655.86,99q-.63,14.55-5.47,19.36c-3.22,3.21-9.36,5-18.42,5.32,8.13,1.87,13.54,4.23,16.24,7s4.34,5.31,4.93,7.57.67,8.43.23,18.49L652,189.58q-18.74-.79-37.46-1.33.59-20.73,1.18-41.45.29-10-1.66-12.46t-10.46-2.66l-1.32,56.25q-20.18-.48-40.35-.63Zm41.82,22q-.33,13.86-.65,27.74c4.67.11,8-.31,9.86-1.26s2.93-4.17,3.08-9.66c.07-2.29.13-4.57.2-6.86q.17-5.92-2.52-7.86C612.84,85.35,609.52,84.64,604.67,84.53Z"/><path d="M673.7,65.68q35.25,1.74,70.47,4.4L742.28,95q-14-1-27.93-2-.76,11.8-1.54,23.61,13,.85,25.91,1.82L737,142.11q-12.84-1-25.68-1.8-.88,13.69-1.78,27.38,14.93,1,29.85,2.12l-1.92,24.89q-34.9-2.67-69.85-4.4Q670.63,128,673.7,65.68Z"/><path d="M832,78.19q5.28,63.35,9.44,126.65-20.52-2.42-41.05-4.51.06-11.27.09-22.53-7.25-.74-14.51-1.43-2.28,11.06-4.54,22.1-20.79-2-41.6-3.58Q755,133.5,771.07,72.25,801.57,74.88,832,78.19Zm-30.37,77.49q-1-21.41-1.11-52.78c-6.58,23.37-10.86,40.51-13,51.4Q794.62,155,801.66,155.68Z"/><path d="M863.26,81.78q15.75,1.91,31.48,4c20.31,2.71,33.92,5.46,40.85,7.93s12,5.66,15.19,9.49A20.76,20.76,0,0,1,956,115.13q.43,6.2-2.34,23.7-3.42,21.58-6.83,43.16-2.64,16.6-5.47,21.88a17.08,17.08,0,0,1-8.19,7.7,32.86,32.86,0,0,1-12.66,2.59c-4.88.12-12.11-.52-21.68-1.87q-25.26-3.57-50.57-6.63Q855.78,143.73,863.26,81.78Zm39.17,26.58q-5.58,40.67-11.15,81.32c5.82.8,9.53.38,11.14-1.29s3-6.62,4.17-14.86q3.42-24,6.82-48,1.2-8.4.84-10.86a5.43,5.43,0,0,0-2.67-3.92C910,109.79,907,109,902.43,108.36Z"/><path class="cls-3" d="M123.92,95.37Q159.43,89.75,195,85.08l3.24,24.76q-14.44,1.89-28.88,3.94l3.33,23.43q12.74-1.82,25.49-3.5,1.54,11.78,3.11,23.54-12.63,1.67-25.25,3.46,3.67,25.95,7.37,51.89-20,2.84-40,6Q133.68,157,123.92,95.37Z"/><path class="cls-3" d="M205.23,83.77q14.9-1.89,29.8-3.62c19.87-2.29,33.41-3.06,40.56-2.59a28.9,28.9,0,0,1,18.07,7.34q7.32,6.63,8.74,22.53c.89,9.67-.07,16.31-2.83,19.92S291,133.52,282,135.08c8.32.77,14,2.38,17.06,4.78s5,4.68,5.9,6.84,1.78,8.26,2.7,18.29q1.48,16.38,3,32.77-18.69,1.71-37.34,3.69l-4.38-41.24q-1.05-10-3.3-12.12t-10.74-1.24q3.11,28,6.2,55.92Q241,205,221,207.55,213.1,145.66,205.23,83.77ZM249.69,100l3.06,27.57q7-.76,9.61-2.56c1.76-1.2,2.36-4.52,1.78-10-.24-2.28-.49-4.55-.73-6.82-.41-3.94-1.6-6.42-3.55-7.45S254.52,99.44,249.69,100Z"/><path class="cls-3" d="M405.67,65.94q-13.4,40.53-25.85,81.21,1.43,22.53,2.83,45.07-18.66,1.17-37.31,2.62l-3.49-45Q324.38,111.23,306,72.9q19.38-1.73,38.78-3.16c7.86,23.85,12.34,40,13.7,48.31a474.88,474.88,0,0,1,8.33-49.84Q386.24,66.92,405.67,65.94Z"/><path class="cls-3" d="M449.17,64.07q21.09-.73,42.21-1.14c13.33-.25,23.45.45,30.32,2a30.09,30.09,0,0,1,16.64,9.59q6.31,7.27,6.28,23.45c0,7.29-1.48,12.37-4.4,15.25s-8.68,5.09-17.26,6.7c9.59,1.62,16.08,4.44,19.48,8.37s5.08,10,5.06,18.09c0,3.85,0,7.71,0,11.56q0,12.66-3.65,18.74T532.36,185c-5.24,1.52-16,2.31-32.19,2.57q-23.34.39-46.66,1.2Q451.34,126.41,449.17,64.07Zm42.71,20.2q.27,13.88.53,27.74,2.67-.12,4.14-.15,6.12-.1,7.76-2.47t1.5-13.48q-.09-5.85-1.51-8.18a6.07,6.07,0,0,0-3.68-2.92A41.39,41.39,0,0,0,491.88,84.27Zm.9,47.16.66,34.91c5.73-.27,9.38-1,10.94-2.35s2.31-4.47,2.24-9.51q-.09-5.82-.16-11.63c-.08-5.35-.84-8.57-2.29-9.68S498.92,131.47,492.78,131.43Z"/><path class="cls-3" d="M562.85,62.53q15,.11,30,.39c20,.39,33.47,1.43,40.49,2.85a28.85,28.85,0,0,1,16.91,9.69Q656.57,83,655.86,99q-.63,14.55-5.47,19.36c-3.22,3.21-9.36,5-18.42,5.32,8.13,1.87,13.54,4.23,16.24,7s4.34,5.31,4.93,7.57.67,8.43.23,18.49L652,189.58q-18.74-.79-37.46-1.33.59-20.73,1.18-41.45.29-10-1.66-12.46t-10.46-2.66l-1.32,56.25q-20.18-.48-40.35-.63Zm41.82,22q-.33,13.86-.65,27.74c4.67.11,8-.31,9.86-1.26s2.93-4.17,3.08-9.66c.07-2.29.13-4.57.2-6.86q.17-5.92-2.52-7.86C612.84,85.35,609.52,84.64,604.67,84.53Z"/><path class="cls-3" d="M673.7,65.68q35.25,1.74,70.47,4.4L742.28,95q-14-1-27.93-2-.76,11.8-1.54,23.61,13,.85,25.91,1.82L737,142.11q-12.84-1-25.68-1.8-.88,13.69-1.78,27.38,14.93,1,29.85,2.12l-1.92,24.89q-34.9-2.67-69.85-4.4Q670.63,128,673.7,65.68Z"/><path class="cls-3" d="M832,78.19q5.28,63.35,9.44,126.65-20.52-2.42-41.05-4.51.06-11.27.09-22.53-7.25-.74-14.51-1.43-2.28,11.06-4.54,22.1-20.79-2-41.6-3.58Q755,133.5,771.07,72.25,801.57,74.88,832,78.19Zm-30.37,77.49q-1-21.41-1.11-52.78c-6.58,23.37-10.86,40.51-13,51.4Q794.62,155,801.66,155.68Z"/><path class="cls-3" d="M863.26,81.78q15.75,1.91,31.48,4c20.31,2.71,33.92,5.46,40.85,7.93s12,5.66,15.19,9.49A20.76,20.76,0,0,1,956,115.13q.43,6.2-2.34,23.7-3.42,21.58-6.83,43.16-2.64,16.6-5.47,21.88a17.08,17.08,0,0,1-8.19,7.7,32.86,32.86,0,0,1-12.66,2.59c-4.88.12-12.11-.52-21.68-1.87q-25.26-3.57-50.57-6.63Q855.78,143.73,863.26,81.78Zm39.17,26.58q-5.58,40.67-11.15,81.32c5.82.8,9.53.38,11.14-1.29s3-6.62,4.17-14.86q3.42-24,6.82-48,1.2-8.4.84-10.86a5.43,5.43,0,0,0-2.67-3.92C910,109.79,907,109,902.43,108.36Z"/><path class="cls-4" d="M123.92,95.37Q159.43,89.75,195,85.08l3.24,24.76q-14.44,1.89-28.88,3.94l3.33,23.43q12.74-1.82,25.49-3.5,1.54,11.78,3.11,23.54-12.63,1.67-25.25,3.46,3.67,25.95,7.37,51.89-20,2.84-40,6Q133.68,157,123.92,95.37Z"/><path class="cls-4" d="M205.23,83.77q14.9-1.89,29.8-3.62c19.87-2.29,33.41-3.06,40.56-2.59a28.9,28.9,0,0,1,18.07,7.34q7.32,6.63,8.74,22.53c.89,9.67-.07,16.31-2.83,19.92S291,133.52,282,135.08c8.32.77,14,2.38,17.06,4.78s5,4.68,5.9,6.84,1.78,8.26,2.7,18.29q1.48,16.38,3,32.77-18.69,1.71-37.34,3.69l-4.38-41.24q-1.05-10-3.3-12.12t-10.74-1.24q3.11,28,6.2,55.92Q241,205,221,207.55,213.1,145.66,205.23,83.77ZM249.69,100l3.06,27.57q7-.76,9.61-2.56c1.76-1.2,2.36-4.52,1.78-10-.24-2.28-.49-4.55-.73-6.82-.41-3.94-1.6-6.42-3.55-7.45S254.52,99.44,249.69,100Z"/><path class="cls-4" d="M405.67,65.94q-13.4,40.53-25.85,81.21,1.43,22.53,2.83,45.07-18.66,1.17-37.31,2.62l-3.49-45Q324.38,111.23,306,72.9q19.38-1.73,38.78-3.16c7.86,23.85,12.34,40,13.7,48.31a474.88,474.88,0,0,1,8.33-49.84Q386.24,66.92,405.67,65.94Z"/><path class="cls-4" d="M449.17,64.07q21.09-.73,42.21-1.14c13.33-.25,23.45.45,30.32,2a30.09,30.09,0,0,1,16.64,9.59q6.31,7.27,6.28,23.45c0,7.29-1.48,12.37-4.4,15.25s-8.68,5.09-17.26,6.7c9.59,1.62,16.08,4.44,19.48,8.37s5.08,10,5.06,18.09c0,3.85,0,7.71,0,11.56q0,12.66-3.65,18.74T532.36,185c-5.24,1.52-16,2.31-32.19,2.57q-23.34.39-46.66,1.2Q451.34,126.41,449.17,64.07Zm42.71,20.2q.27,13.88.53,27.74,2.67-.12,4.14-.15,6.12-.1,7.76-2.47t1.5-13.48q-.09-5.85-1.51-8.18a6.07,6.07,0,0,0-3.68-2.92A41.39,41.39,0,0,0,491.88,84.27Zm.9,47.16.66,34.91c5.73-.27,9.38-1,10.94-2.35s2.31-4.47,2.24-9.51q-.09-5.82-.16-11.63c-.08-5.35-.84-8.57-2.29-9.68S498.92,131.47,492.78,131.43Z"/><path class="cls-4" d="M562.85,62.53q15,.11,30,.39c20,.39,33.47,1.43,40.49,2.85a28.85,28.85,0,0,1,16.91,9.69Q656.57,83,655.86,99q-.63,14.55-5.47,19.36c-3.22,3.21-9.36,5-18.42,5.32,8.13,1.87,13.54,4.23,16.24,7s4.34,5.31,4.93,7.57.67,8.43.23,18.49L652,189.58q-18.74-.79-37.46-1.33.59-20.73,1.18-41.45.29-10-1.66-12.46t-10.46-2.66l-1.32,56.25q-20.18-.48-40.35-.63Zm41.82,22q-.33,13.86-.65,27.74c4.67.11,8-.31,9.86-1.26s2.93-4.17,3.08-9.66c.07-2.29.13-4.57.2-6.86q.17-5.92-2.52-7.86C612.84,85.35,609.52,84.64,604.67,84.53Z"/><path class="cls-4" d="M673.7,65.68q35.25,1.74,70.47,4.4L742.28,95q-14-1-27.93-2-.76,11.8-1.54,23.61,13,.85,25.91,1.82L737,142.11q-12.84-1-25.68-1.8-.88,13.69-1.78,27.38,14.93,1,29.85,2.12l-1.92,24.89q-34.9-2.67-69.85-4.4Q670.63,128,673.7,65.68Z"/><path class="cls-4" d="M832,78.19q5.28,63.35,9.44,126.65-20.52-2.42-41.05-4.51.06-11.27.09-22.53-7.25-.74-14.51-1.43-2.28,11.06-4.54,22.1-20.79-2-41.6-3.58Q755,133.5,771.07,72.25,801.57,74.88,832,78.19Zm-30.37,77.49q-1-21.41-1.11-52.78c-6.58,23.37-10.86,40.51-13,51.4Q794.62,155,801.66,155.68Z"/><path class="cls-4" d="M863.26,81.78q15.75,1.91,31.48,4c20.31,2.71,33.92,5.46,40.85,7.93s12,5.66,15.19,9.49A20.76,20.76,0,0,1,956,115.13q.43,6.2-2.34,23.7-3.42,21.58-6.83,43.16-2.64,16.6-5.47,21.88a17.08,17.08,0,0,1-8.19,7.7,32.86,32.86,0,0,1-12.66,2.59c-4.88.12-12.11-.52-21.68-1.87q-25.26-3.57-50.57-6.63Q855.78,143.73,863.26,81.78Zm39.17,26.58q-5.58,40.67-11.15,81.32c5.82.8,9.53.38,11.14-1.29s3-6.62,4.17-14.86q3.42-24,6.82-48,1.2-8.4.84-10.86a5.43,5.43,0,0,0-2.67-3.92C910,109.79,907,109,902.43,108.36Z"/><path class="cls-5" d="M123.92,95.37Q159.43,89.75,195,85.08l3.24,24.76q-14.44,1.89-28.88,3.94l3.33,23.43q12.74-1.82,25.49-3.5,1.54,11.78,3.11,23.54-12.63,1.67-25.25,3.46,3.67,25.95,7.37,51.89-20,2.84-40,6Q133.68,157,123.92,95.37Zm81.31-11.6q14.9-1.89,29.8-3.62c19.87-2.29,33.41-3.06,40.56-2.59a28.9,28.9,0,0,1,18.07,7.34q7.32,6.63,8.74,22.53c.89,9.67-.07,16.31-2.83,19.92S291,133.52,282,135.08c8.32.77,14,2.38,17.06,4.78s5,4.68,5.9,6.84,1.78,8.26,2.7,18.29q1.48,16.38,3,32.77-18.69,1.71-37.34,3.69l-4.38-41.24q-1.05-10-3.3-12.12t-10.74-1.24q3.11,28,6.2,55.92Q241,205,221,207.55,213.1,145.66,205.23,83.77ZM249.69,100l3.06,27.57q7-.76,9.61-2.56c1.76-1.2,2.36-4.52,1.78-10-.24-2.28-.49-4.55-.73-6.82-.41-3.94-1.6-6.42-3.55-7.45S254.52,99.44,249.69,100Zm156-34q-13.4,40.53-25.85,81.21,1.43,22.53,2.83,45.07-18.66,1.17-37.31,2.62l-3.49-45Q324.38,111.23,306,72.9q19.38-1.73,38.78-3.16c7.86,23.85,12.34,40,13.7,48.31a474.88,474.88,0,0,1,8.33-49.84Q386.24,66.92,405.67,65.94Zm43.5-1.87q21.09-.73,42.21-1.14c13.33-.25,23.45.45,30.32,2a30.09,30.09,0,0,1,16.64,9.59q6.31,7.27,6.28,23.45c0,7.29-1.48,12.37-4.4,15.25s-8.68,5.09-17.26,6.7c9.59,1.62,16.08,4.44,19.48,8.37s5.08,10,5.06,18.09c0,3.85,0,7.71,0,11.56q0,12.66-3.65,18.74T532.36,185c-5.24,1.52-16,2.31-32.19,2.57q-23.34.39-46.66,1.2Q451.34,126.41,449.17,64.07Zm42.71,20.2q.27,13.88.53,27.74,2.67-.12,4.14-.15,6.12-.1,7.76-2.47t1.5-13.48q-.09-5.85-1.51-8.18a6.07,6.07,0,0,0-3.68-2.92A41.39,41.39,0,0,0,491.88,84.27Zm.9,47.16.66,34.91c5.73-.27,9.38-1,10.94-2.35s2.31-4.47,2.24-9.51q-.09-5.82-.16-11.63c-.08-5.35-.84-8.57-2.29-9.68S498.92,131.47,492.78,131.43Zm70.07-68.9q15,.11,30,.39c20,.39,33.47,1.43,40.49,2.85a28.85,28.85,0,0,1,16.91,9.69Q656.57,83,655.86,99q-.63,14.55-5.47,19.36c-3.22,3.21-9.36,5-18.42,5.32,8.13,1.87,13.54,4.23,16.24,7s4.34,5.31,4.93,7.57.67,8.43.23,18.49L652,189.58q-18.74-.79-37.46-1.33.59-20.73,1.18-41.45.29-10-1.66-12.46t-10.46-2.66l-1.32,56.25q-20.18-.48-40.35-.63Zm41.82,22q-.33,13.86-.65,27.74c4.67.11,8-.31,9.86-1.26s2.93-4.17,3.08-9.66c.07-2.29.13-4.57.2-6.86q.17-5.92-2.52-7.86C612.84,85.35,609.52,84.64,604.67,84.53Zm69-18.85q35.25,1.74,70.47,4.4L742.28,95q-14-1-27.93-2-.76,11.8-1.54,23.61,13,.85,25.91,1.82L737,142.11q-12.84-1-25.68-1.8-.88,13.69-1.78,27.38,14.93,1,29.85,2.12l-1.92,24.89q-34.9-2.67-69.85-4.4Q670.63,128,673.7,65.68ZM832,78.19q5.28,63.35,9.44,126.65-20.52-2.42-41.05-4.51.06-11.27.09-22.53-7.25-.74-14.51-1.43-2.28,11.06-4.54,22.1-20.79-2-41.6-3.58Q755,133.5,771.07,72.25,801.57,74.88,832,78.19Zm-30.37,77.49q-1-21.41-1.11-52.78c-6.58,23.37-10.86,40.51-13,51.4Q794.62,155,801.66,155.68Zm61.6-73.9q15.75,1.91,31.48,4c20.31,2.71,33.92,5.46,40.85,7.93s12,5.66,15.19,9.49A20.76,20.76,0,0,1,956,115.13q.43,6.2-2.34,23.7-3.42,21.58-6.83,43.16-2.64,16.6-5.47,21.88a17.08,17.08,0,0,1-8.19,7.7,32.86,32.86,0,0,1-12.66,2.59c-4.88.12-12.11-.52-21.68-1.87q-25.26-3.57-50.57-6.63Q855.78,143.73,863.26,81.78Zm39.17,26.58q-5.58,40.67-11.15,81.32c5.82.8,9.53.38,11.14-1.29s3-6.62,4.17-14.86q3.42-24,6.82-48,1.2-8.4.84-10.86a5.43,5.43,0,0,0-2.67-3.92C910,109.79,907,109,902.43,108.36Z"/><path d="M193.32,87.33l1.45,11,1.27,9.74c-8.95,1.18-18,2.42-26.92,3.68l-2,.29.28,2,3.33,23.42.29,2,2-.28c7.78-1.11,15.67-2.19,23.48-3.23l1.87,14.18.71,5.39c-7.74,1-15.57,2.1-23.29,3.2l-2,.28.29,2,6.26,44.07.83,5.84c-12,1.71-24.12,3.53-36.09,5.42L126.21,97c22.23-3.5,44.79-6.76,67.11-9.7M195,85.08q-35.61,4.67-71.12,10.29,9.77,61.62,19.52,123.24,20-3.17,40-6-3.69-25.95-7.37-51.89,12.61-1.8,25.25-3.46-1.56-11.77-3.11-23.54-12.75,1.69-25.49,3.5l-3.33-23.43q14.44-2,28.88-3.94L195,85.08Z"/><path d="M271,79.43h0c1.69,0,3.19,0,4.47.12a27.09,27.09,0,0,1,16.85,6.83c4.46,4,7.19,11.18,8.1,21.23.83,9.1,0,15.33-2.43,18.52s-7.91,5.51-16.32,7l-14.76,2.58,14.92,1.38c9.79.91,14.11,2.87,16,4.36,2.75,2.17,4.53,4.2,5.28,6,.56,1.35,1.45,5.53,2.56,17.71l1.5,16.39L308.47,196c-11.09,1-22.31,2.13-33.38,3.3L270.92,160c-.78-7.39-2-11.51-3.91-13.35-1.45-1.4-3.93-2.08-7.58-2.08a42.74,42.74,0,0,0-4.76.3l-2,.22.22,2,4.52,40.75L258.89,201c-12,1.34-24.19,2.79-36.2,4.3L207.47,85.5c9.22-1.16,18.56-2.29,27.79-3.36C250.64,80.36,263,79.43,271,79.43m-20,50.33,2-.22c5-.56,8.47-1.51,10.52-2.89,2.48-1.69,3.32-5.46,2.64-11.86l-.37-3.41L265.4,108c-.49-4.62-2-7.66-4.6-9a14.35,14.35,0,0,0-6.69-1.26,42.37,42.37,0,0,0-4.64.29l-2,.22.22,2,3.06,27.57.22,2m20-52.33c-7.76,0-19.75.85-36,2.72q-14.91,1.72-29.8,3.62,7.88,61.89,15.73,123.78Q241,205,261.09,202.77q-3.09-28-6.2-55.92a43.82,43.82,0,0,1,4.54-.28q4.62,0,6.2,1.52,2.25,2.16,3.3,12.12l4.38,41.24q18.66-2,37.34-3.69-1.5-16.38-3-32.77-1.38-15-2.7-18.29t-5.9-6.84c-3.05-2.4-8.74-4-17.06-4.78,8.95-1.56,14.8-4.12,17.57-7.73s3.72-10.25,2.83-19.92Q301,91.55,293.66,84.9a28.9,28.9,0,0,0-18.07-7.34c-1.32-.09-2.85-.13-4.6-.13Zm-18.24,50.12L249.69,100a38.65,38.65,0,0,1,4.42-.28,12.67,12.67,0,0,1,5.75,1c1.95,1,3.14,3.51,3.55,7.45.24,2.27.49,4.54.73,6.82.58,5.47,0,8.79-1.78,10s-5,2.05-9.61,2.56Z"/><path d="M402.85,68.08c-8.56,26-16.94,52.39-24.94,78.48l-.1.35,0,.36,1.29,20.6,1.41,22.48c-11.08.71-22.28,1.49-33.35,2.34L345.66,173l-1.81-23.36,0-.35-.14-.32c-11.22-24.75-22.86-49.75-34.61-74.34,11.4-1,22.93-1.93,34.33-2.78,7.23,22,11.77,38.11,13.14,46.52l2.43,15,1.53-15.07a468.12,468.12,0,0,1,8-48.16c11.4-.74,22.94-1.42,34.37-2m2.82-2.14q-19.43,1-38.83,2.27a474.88,474.88,0,0,0-8.33,49.84c-1.36-8.34-5.84-24.46-13.7-48.31Q325.41,71.18,306,72.9q18.35,38.34,35.82,76.91l3.49,45q18.65-1.46,37.31-2.62-1.41-22.53-2.83-45.07,12.46-40.66,25.85-81.21Z"/><path d="M496.56,64.88c10.51,0,18.82.67,24.71,2a28.26,28.26,0,0,1,15.56,9c3.86,4.44,5.81,11.89,5.79,22.14,0,6.7-1.28,11.35-3.8,13.83s-8.06,4.62-16.22,6.15l-11,2.06,11.06,1.88c9,1.53,15.2,4.13,18.3,7.71s4.59,9.17,4.57,16.78l0,11.56c0,8-1.15,14-3.37,17.72s-5.52,6.06-10.3,7.44-15.22,2.22-31.67,2.49c-14.83.24-29.86.62-44.7,1.13l-3-85L451.23,66c13.35-.46,26.86-.82,40.19-1.07,1.76,0,3.49-.05,5.14-.05m-6.11,49.23,2.05-.1c1.76-.08,3.14-.13,4.09-.15,4.81-.08,7.87-1.17,9.37-3.34.93-1.35,2-4.23,1.85-14.63-.06-4.31-.65-7.32-1.8-9.21a8.06,8.06,0,0,0-4.89-3.8,38.1,38.1,0,0,0-8.35-.61h-.9l-2,0,0,2,.27,13.86.26,13.88,0,2.06m1,54.32,2-.1c6.34-.29,10.19-1.18,12.13-2.8,2.1-1.76,3-5.28,3-11.08l-.06-4.23-.1-7.4c-.09-6.22-1-9.68-3.08-11.24-1.17-.9-3.75-2.09-12.59-2.15h-2.05l0,2.05.66,34.9,0,2.06m5.08-105.55c-1.67,0-3.4,0-5.18,0q-21.11.41-42.21,1.14,2.16,62.34,4.34,124.7,23.33-.83,46.66-1.2c16.23-.26,26.95-1,32.19-2.57s9.06-4.28,11.47-8.34,3.63-10.3,3.65-18.74c0-3.85,0-7.71,0-11.56q0-12.18-5.06-18.09c-3.4-3.93-9.89-6.75-19.48-8.37,8.58-1.61,14.34-3.82,17.26-6.7s4.4-8,4.4-15.25q0-16.17-6.28-23.45a30.09,30.09,0,0,0-16.64-9.59c-6-1.33-14.34-2-25.14-2ZM492.41,112q-.27-13.86-.53-27.74h.89a37.3,37.3,0,0,1,7.85.54,6.07,6.07,0,0,1,3.68,2.92q1.43,2.33,1.51,8.18.15,11.1-1.5,13.48t-7.76,2.47q-1.47,0-4.14.15Zm1,54.33-.66-34.91c6.14,0,9.94.63,11.39,1.74s2.21,4.33,2.29,9.68q.07,5.81.16,11.63.11,7.56-2.24,9.51c-1.56,1.31-5.21,2.08-10.94,2.35Z"/><path d="M564.84,64.54c9.28.08,18.67.21,27.93.38,23.94.46,35,1.78,40.13,2.81a27.07,27.07,0,0,1,15.78,9c3.87,4.6,5.62,12,5.18,22.12-.39,9.13-2,15.2-4.88,18s-8.57,4.41-17.09,4.74l-14.95.59,14.58,3.36c9.57,2.2,13.58,4.72,15.26,6.45,2.43,2.52,3.93,4.76,4.43,6.68.36,1.42.69,5.67.16,17.9l-.7,16.44L650,187.5c-11.12-.47-22.36-.87-33.48-1.2l1.12-39.44c.27-9.63-1.06-12.47-2.09-13.76-1.73-2.18-5.54-3.26-12-3.42l-2,0-.05,2-1.28,54.24c-12.07-.27-24.29-.46-36.37-.57l.46-60.36.47-60.41m40.61,49.74c4.27,0,7.32-.48,9.32-1.48,2.68-1.34,4-5,4.19-11.4l.2-6.85c.13-4.65-1-7.86-3.36-9.54-2.16-1.55-5.78-2.36-11.08-2.48l-2,0-.05,2L602,112.22l0,2,2,0h1.48m-42.6-51.75-1,124.77q20.18.15,40.35.63l1.32-56.25q8.52.21,10.46,2.66t1.66,12.46q-.6,20.72-1.18,41.45,18.74.52,37.46,1.33l1.41-32.87q.66-15.09-.23-18.49t-4.93-7.57c-2.7-2.78-8.11-5.14-16.24-7,9.06-.36,15.2-2.11,18.42-5.32s5.05-9.66,5.47-19.36q.69-15.94-5.65-23.5a28.85,28.85,0,0,0-16.91-9.69c-7-1.42-20.52-2.46-40.49-2.85q-15-.27-30-.39Zm42.6,49.75H604q.32-13.87.65-27.74c4.85.11,8.17.82,10,2.1s2.63,3.91,2.52,7.86c-.07,2.29-.13,4.57-.2,6.86q-.23,8.24-3.08,9.66-2.57,1.27-8.43,1.27Z"/><path d="M675.6,67.78c22.07,1.1,44.39,2.49,66.42,4.15l-.79,10.49-.79,10.42c-8.62-.65-17.35-1.26-26-1.82l-2-.13-.13,2-.7,10.84-.83,12.77-.13,2,2,.13c7.93.52,16,1.08,23.9,1.66l-.83,11.06L735.1,140c-7.88-.59-15.84-1.14-23.7-1.66l-2-.13-.13,2-.85,13.13-.93,14.25-.13,2,2,.13c9.23.6,18.58,1.26,27.83,2l-1.61,20.91c-21.86-1.66-44-3.06-65.92-4.15l2.94-59.7,3-60.93m-1.9-2.1Q670.63,128,667.57,190.3q34.95,1.72,69.85,4.4l1.92-24.89q-14.93-1.16-29.85-2.12.88-13.69,1.78-27.38,12.84.84,25.68,1.8l1.77-23.67q-12.94-1-25.91-1.82.77-11.81,1.54-23.61,14,.92,27.93,2l1.89-24.9Q709,67.41,673.7,65.68Z"/><path d="M772.58,74.39c19.13,1.66,38.49,3.54,57.59,5.61,3.38,40.66,6.46,81.88,9.14,122.58-12.24-1.44-24.63-2.8-36.88-4.06q0-10.35.08-20.72V176l-1.81-.18c-4.82-.49-9.7-1-14.52-1.43l-1.78-.17-.36,1.76q-2.1,10.17-4.19,20.34c-12.44-1.16-25-2.25-37.49-3.23,9.72-39.46,19.88-79.37,30.21-118.69m31.19,83.51-.11-2.31c-.65-14-1-31.75-1.11-52.69l-.07-14.25-3.86,13.71c-6.31,22.41-10.81,40.24-13,51.56l-.42,2.17,2.19.2c4.68.45,9.41.91,14.07,1.38l2.31.23m-32.7-85.65Q755,133.5,739.86,194.89q20.82,1.62,41.6,3.58,2.26-11.06,4.54-22.1,7.26.69,14.51,1.43,0,11.26-.09,22.53,20.54,2.08,41.05,4.51Q837.32,141.52,832,78.19q-30.46-3.31-61-5.94Zm30.59,83.43q-7-.7-14.08-1.38c2.11-10.89,6.39-28,13-51.4q.13,31.38,1.11,52.78Z"/><path d="M865,84c9.8,1.19,19.7,2.45,29.46,3.75,24.42,3.26,35.47,6.06,40.44,7.84,6.54,2.35,11.37,5.33,14.34,8.88A19,19,0,0,1,954,115.27c.29,4-.49,11.78-2.31,23.25l-3.27,20.64-3.57,22.52c-1.71,10.78-3.48,17.93-5.26,21.25a14.91,14.91,0,0,1-7.24,6.81,30.82,30.82,0,0,1-11.89,2.42h-1.2a155.39,155.39,0,0,1-20.15-1.86c-16.11-2.28-32.46-4.43-48.62-6.4l10.07-83.32L865,84m31.3,108.06c3.59,0,6.06-.75,7.55-2.29,1.23-1.28,3-4.32,4.71-16L914.38,133l1-7.14c1.11-7.77,1-10.24.84-11.43a7.46,7.46,0,0,0-3.59-5.33c-1.82-1.13-5.07-2-9.94-2.68l-2-.27-.28,2-5.57,40.66-5.57,40.66-.27,2,2,.27a39.91,39.91,0,0,0,5.3.41m-33-110.29q-7.49,61.95-15,123.88,25.31,3.06,50.57,6.63a157.55,157.55,0,0,0,20.43,1.88h1.25a32.86,32.86,0,0,0,12.66-2.59,17.08,17.08,0,0,0,8.19-7.7q2.83-5.28,5.47-21.88,3.42-21.57,6.83-43.16,2.77-17.51,2.34-23.7a20.76,20.76,0,0,0-5.24-11.93q-4.8-5.74-15.19-9.49c-6.93-2.47-20.54-5.22-40.85-7.93q-15.74-2.09-31.48-4Zm33,108.29a37.66,37.66,0,0,1-5-.39q5.58-40.67,11.15-81.32c4.55.62,7.6,1.43,9.15,2.4a5.43,5.43,0,0,1,2.67,3.92q.36,2.46-.84,10.86-3.4,24-6.82,48-1.76,12.36-4.17,14.86-1.62,1.68-6.11,1.68Z"/><path class="cls-6" d="M22.47,307.51V253.32H34l13.74,38.37c1.26,3.57,2.19,6.24,2.77,8,.66-2,1.68-4.87,3.08-8.69l13.89-37.7H77.83v54.19h-7.4V262.15L53.57,307.51H46.65L29.87,261.38v46.13Z"/><path class="cls-6" d="M83.85,307.51l22.28-54.19h8.27l23.75,54.19H129.4l-6.76-16.41H98.38L92,307.51Zm16.74-22.25h19.67l-6.05-15q-2.77-6.84-4.12-11.24A64.93,64.93,0,0,1,107,269.36Z"/><path class="cls-6" d="M144,307.51V253.32h7.68v26.87l28.81-26.87h10.41l-24.34,22,25.41,32.23H181.8l-20.65-27.43-9.5,8.65v18.78Z"/><path class="cls-6" d="M199.65,307.51V253.32h7.68v54.19Z"/><path class="cls-6" d="M220.79,307.51V253.32h7.87l30.48,42.54V253.32h7.36v54.19h-7.88l-30.47-42.58v42.58Z"/><path class="cls-6" d="M306.55,286.25V279.9l24.58,0V300a44.23,44.23,0,0,1-11.67,6.34,37,37,0,0,1-12.35,2.12A34.88,34.88,0,0,1,291.57,305,23.42,23.42,0,0,1,281,295.12a29.4,29.4,0,0,1-3.57-14.45A31.59,31.59,0,0,1,281,265.91a22.64,22.64,0,0,1,10.19-10.19,33.72,33.72,0,0,1,15.31-3.32,32.23,32.23,0,0,1,11.38,1.9,19,19,0,0,1,8,5.3,23,23,0,0,1,4.39,8.87l-6.93,1.78a19.56,19.56,0,0,0-3.24-6.51,13.42,13.42,0,0,0-5.54-3.79,21.78,21.78,0,0,0-8-1.42,25,25,0,0,0-9.1,1.5,17,17,0,0,0-6.19,3.94,18.61,18.61,0,0,0-3.66,5.35,26.74,26.74,0,0,0-2.22,10.91,25,25,0,0,0,2.67,12.12,16.55,16.55,0,0,0,7.78,7.25A25.57,25.57,0,0,0,306.67,302a27.26,27.26,0,0,0,9.74-1.79,25.74,25.74,0,0,0,7.2-3.83V286.25Z"/><path class="cls-6" d="M365,307.51V253.32h20a51.62,51.62,0,0,1,10.33.78,20,20,0,0,1,8.5,3.88,22.09,22.09,0,0,1,6.87,9.26,34.09,34.09,0,0,1,2.28,12.88,35.5,35.5,0,0,1-1.55,10.94,26,26,0,0,1-3.95,7.89,20.63,20.63,0,0,1-5.29,4.92,22.32,22.32,0,0,1-6.92,2.71,42,42,0,0,1-9.32.93Zm7.68-6.4H385a31.93,31.93,0,0,0,9-1,13.07,13.07,0,0,0,5.2-2.8,17,17,0,0,0,4.26-6.86A31.61,31.61,0,0,0,405,280q0-8.5-3-13.07a14.78,14.78,0,0,0-7.26-6.12q-3.09-1.11-9.93-1.11H372.65Z"/><path class="cls-6" d="M423.66,307.51V253.32h41.95v6.39H431.34v16.6h32.1v6.36h-32.1v18.44H467v6.4Z"/><path class="cls-6" d="M477.33,307.51V253.32h11.56l13.73,38.37q1.9,5.35,2.77,8,1-3,3.09-8.69l13.89-37.7H532.7v54.19h-7.4V262.15l-16.86,45.36h-6.93l-16.78-46.13v46.13Z"/><path class="cls-6" d="M542.75,281.12q0-13.5,7.76-21.13t20-7.63A29.31,29.31,0,0,1,585,255.94a24.1,24.1,0,0,1,9.83,10,30.68,30.68,0,0,1,3.39,14.55,30.28,30.28,0,0,1-3.56,14.75,23.53,23.53,0,0,1-10.1,9.85,30.45,30.45,0,0,1-14.09,3.34,29,29,0,0,1-14.64-3.69,24.42,24.42,0,0,1-9.77-10.1A28.86,28.86,0,0,1,542.75,281.12Zm7.92.11q0,9.79,5.64,15.43a20.63,20.63,0,0,0,28.41-.06q5.61-5.69,5.6-16.15a26.27,26.27,0,0,0-2.39-11.55,17.55,17.55,0,0,0-7-7.65,20,20,0,0,0-10.35-2.72,20.44,20.44,0,0,0-14,5.23Q550.67,269,550.67,281.23Z"/><path class="cls-6" d="M608.05,307.51V253.32h7.88l30.47,42.54V253.32h7.36v54.19h-7.87l-30.48-42.58v42.58Z"/><path class="cls-6" d="M664.06,290.1l7.24-.59a14.3,14.3,0,0,0,2.39,6.67,13,13,0,0,0,5.84,4.21,23.52,23.52,0,0,0,8.9,1.61,22.78,22.78,0,0,0,7.76-1.22,10.77,10.77,0,0,0,5-3.35,7.42,7.42,0,0,0,1.64-4.63,6.8,6.8,0,0,0-1.58-4.46,11.9,11.9,0,0,0-5.23-3.2q-2.32-.84-10.33-2.64a55.14,55.14,0,0,1-11.2-3.38,15.45,15.45,0,0,1-6.19-5.05,11.72,11.72,0,0,1-2-6.74,13.14,13.14,0,0,1,2.49-7.67,15.36,15.36,0,0,1,7.29-5.42,29.37,29.37,0,0,1,10.64-1.84,30.77,30.77,0,0,1,11.38,1.94,16.16,16.16,0,0,1,7.58,5.71,15.61,15.61,0,0,1,2.85,8.54l-7.36.51a10.88,10.88,0,0,0-4-7.76q-3.42-2.62-10.11-2.62-7,0-10.15,2.38a7,7,0,0,0-3.19,5.75,6,6,0,0,0,2.26,4.8q2.22,1.89,11.57,3.87A80.69,80.69,0,0,1,700.35,279a17.53,17.53,0,0,1,7.48,5.53,12.82,12.82,0,0,1,2.41,7.7,14,14,0,0,1-2.65,8.15,17.28,17.28,0,0,1-7.62,6,28.28,28.28,0,0,1-11.18,2.12,35.49,35.49,0,0,1-13.2-2.14,18.26,18.26,0,0,1-8.35-6.45A17.39,17.39,0,0,1,664.06,290.1Z"/><path class="cls-6" d="M735.49,307.51v-47.8H716.38v-6.39h46v6.39h-19.2v47.8Z"/><path class="cls-6" d="M770.36,307.51V253.32h25.73q7.75,0,11.79,1.46a12.67,12.67,0,0,1,6.45,5.16,14.59,14.59,0,0,1,2.42,8.16,13.18,13.18,0,0,1-4,9.73q-4,3.94-12.35,5a20.12,20.12,0,0,1,4.63,2.7,37.92,37.92,0,0,1,6.37,7.21l10.09,14.75h-9.65l-7.68-11.28q-3.36-4.87-5.54-7.46a16.81,16.81,0,0,0-3.9-3.63,11.9,11.9,0,0,0-3.5-1.44,25,25,0,0,0-4.28-.26H778v24.07ZM778,277.23h16.5a26.33,26.33,0,0,0,8.23-1,8.74,8.74,0,0,0,4.52-3.25,8.42,8.42,0,0,0,1.54-4.87,7.87,7.87,0,0,0-3-6.32q-3-2.47-9.44-2.47H778Z"/><path class="cls-6" d="M822.4,307.51l22.29-54.19H853l23.75,54.19H868l-6.77-16.41H836.93l-6.37,16.41Zm16.75-22.25h19.67l-6.06-15Q850,263.41,848.64,259a64.88,64.88,0,0,1-3.12,10.35Z"/><path class="cls-6" d="M891.59,307.51v-47.8H872.47v-6.39h46v6.39h-19.2v47.8Z"/><path class="cls-6" d="M927.64,307.51V253.32h7.68v54.19Z"/><path class="cls-6" d="M946.52,281.12q0-13.5,7.76-21.13t20-7.63a29.31,29.31,0,0,1,14.49,3.58,24.1,24.1,0,0,1,9.83,10,30.68,30.68,0,0,1,3.39,14.55,30.28,30.28,0,0,1-3.56,14.75,23.53,23.53,0,0,1-10.1,9.85,30.45,30.45,0,0,1-14.09,3.34,29,29,0,0,1-14.64-3.69,24.5,24.5,0,0,1-9.78-10.1A29,29,0,0,1,946.52,281.12Zm7.92.11q0,9.79,5.64,15.43a20.63,20.63,0,0,0,28.41-.06q5.6-5.69,5.6-16.15a26.27,26.27,0,0,0-2.39-11.55,17.55,17.55,0,0,0-7-7.65,20,20,0,0,0-10.35-2.72,20.44,20.44,0,0,0-14,5.23Q954.43,269,954.44,281.23Z"/><path class="cls-6" d="M1011.82,307.51V253.32h7.88l30.47,42.54V253.32h7.36v54.19h-7.87l-30.48-42.58v42.58Z"/><path class="cls-7" d="M22.47,307.51V253.32H34l13.74,38.37c1.26,3.57,2.19,6.24,2.77,8,.66-2,1.68-4.87,3.08-8.69l13.89-37.7H77.83v54.19h-7.4V262.15L53.57,307.51H46.65L29.87,261.38v46.13Z"/><path class="cls-7" d="M83.85,307.51l22.28-54.19h8.27l23.75,54.19H129.4l-6.76-16.41H98.38L92,307.51Zm16.74-22.25h19.67l-6.05-15q-2.77-6.84-4.12-11.24A64.93,64.93,0,0,1,107,269.36Z"/><path class="cls-7" d="M144,307.51V253.32h7.68v26.87l28.81-26.87h10.41l-24.34,22,25.41,32.23H181.8l-20.65-27.43-9.5,8.65v18.78Z"/><path class="cls-7" d="M199.65,307.51V253.32h7.68v54.19Z"/><path class="cls-7" d="M220.79,307.51V253.32h7.87l30.48,42.54V253.32h7.36v54.19h-7.88l-30.47-42.58v42.58Z"/><path class="cls-7" d="M306.55,286.25V279.9l24.58,0V300a44.23,44.23,0,0,1-11.67,6.34,37,37,0,0,1-12.35,2.12A34.88,34.88,0,0,1,291.57,305,23.42,23.42,0,0,1,281,295.12a29.4,29.4,0,0,1-3.57-14.45A31.59,31.59,0,0,1,281,265.91a22.64,22.64,0,0,1,10.19-10.19,33.72,33.72,0,0,1,15.31-3.32,32.23,32.23,0,0,1,11.38,1.9,19,19,0,0,1,8,5.3,23,23,0,0,1,4.39,8.87l-6.93,1.78a19.56,19.56,0,0,0-3.24-6.51,13.42,13.42,0,0,0-5.54-3.79,21.78,21.78,0,0,0-8-1.42,25,25,0,0,0-9.1,1.5,17,17,0,0,0-6.19,3.94,18.61,18.61,0,0,0-3.66,5.35,26.74,26.74,0,0,0-2.22,10.91,25,25,0,0,0,2.67,12.12,16.55,16.55,0,0,0,7.78,7.25A25.57,25.57,0,0,0,306.67,302a27.26,27.26,0,0,0,9.74-1.79,25.74,25.74,0,0,0,7.2-3.83V286.25Z"/><path class="cls-7" d="M365,307.51V253.32h20a51.62,51.62,0,0,1,10.33.78,20,20,0,0,1,8.5,3.88,22.09,22.09,0,0,1,6.87,9.26,34.09,34.09,0,0,1,2.28,12.88,35.5,35.5,0,0,1-1.55,10.94,26,26,0,0,1-3.95,7.89,20.63,20.63,0,0,1-5.29,4.92,22.32,22.32,0,0,1-6.92,2.71,42,42,0,0,1-9.32.93Zm7.68-6.4H385a31.93,31.93,0,0,0,9-1,13.07,13.07,0,0,0,5.2-2.8,17,17,0,0,0,4.26-6.86A31.61,31.61,0,0,0,405,280q0-8.5-3-13.07a14.78,14.78,0,0,0-7.26-6.12q-3.09-1.11-9.93-1.11H372.65Z"/><path class="cls-7" d="M423.66,307.51V253.32h41.95v6.39H431.34v16.6h32.1v6.36h-32.1v18.44H467v6.4Z"/><path class="cls-7" d="M477.33,307.51V253.32h11.56l13.73,38.37q1.9,5.35,2.77,8,1-3,3.09-8.69l13.89-37.7H532.7v54.19h-7.4V262.15l-16.86,45.36h-6.93l-16.78-46.13v46.13Z"/><path class="cls-7" d="M542.75,281.12q0-13.5,7.76-21.13t20-7.63A29.31,29.31,0,0,1,585,255.94a24.1,24.1,0,0,1,9.83,10,30.68,30.68,0,0,1,3.39,14.55,30.28,30.28,0,0,1-3.56,14.75,23.53,23.53,0,0,1-10.1,9.85,30.45,30.45,0,0,1-14.09,3.34,29,29,0,0,1-14.64-3.69,24.42,24.42,0,0,1-9.77-10.1A28.86,28.86,0,0,1,542.75,281.12Zm7.92.11q0,9.79,5.64,15.43a20.63,20.63,0,0,0,28.41-.06q5.61-5.69,5.6-16.15a26.27,26.27,0,0,0-2.39-11.55,17.55,17.55,0,0,0-7-7.65,20,20,0,0,0-10.35-2.72,20.44,20.44,0,0,0-14,5.23Q550.67,269,550.67,281.23Z"/><path class="cls-7" d="M608.05,307.51V253.32h7.88l30.47,42.54V253.32h7.36v54.19h-7.87l-30.48-42.58v42.58Z"/><path class="cls-7" d="M664.06,290.1l7.24-.59a14.3,14.3,0,0,0,2.39,6.67,13,13,0,0,0,5.84,4.21,23.52,23.52,0,0,0,8.9,1.61,22.78,22.78,0,0,0,7.76-1.22,10.77,10.77,0,0,0,5-3.35,7.42,7.42,0,0,0,1.64-4.63,6.8,6.8,0,0,0-1.58-4.46,11.9,11.9,0,0,0-5.23-3.2q-2.32-.84-10.33-2.64a55.14,55.14,0,0,1-11.2-3.38,15.45,15.45,0,0,1-6.19-5.05,11.72,11.72,0,0,1-2-6.74,13.14,13.14,0,0,1,2.49-7.67,15.36,15.36,0,0,1,7.29-5.42,29.37,29.37,0,0,1,10.64-1.84,30.77,30.77,0,0,1,11.38,1.94,16.16,16.16,0,0,1,7.58,5.71,15.61,15.61,0,0,1,2.85,8.54l-7.36.51a10.88,10.88,0,0,0-4-7.76q-3.42-2.62-10.11-2.62-7,0-10.15,2.38a7,7,0,0,0-3.19,5.75,6,6,0,0,0,2.26,4.8q2.22,1.89,11.57,3.87A80.69,80.69,0,0,1,700.35,279a17.53,17.53,0,0,1,7.48,5.53,12.82,12.82,0,0,1,2.41,7.7,14,14,0,0,1-2.65,8.15,17.28,17.28,0,0,1-7.62,6,28.28,28.28,0,0,1-11.18,2.12,35.49,35.49,0,0,1-13.2-2.14,18.26,18.26,0,0,1-8.35-6.45A17.39,17.39,0,0,1,664.06,290.1Z"/><path class="cls-7" d="M735.49,307.51v-47.8H716.38v-6.39h46v6.39h-19.2v47.8Z"/><path class="cls-7" d="M770.36,307.51V253.32h25.73q7.75,0,11.79,1.46a12.67,12.67,0,0,1,6.45,5.16,14.59,14.59,0,0,1,2.42,8.16,13.18,13.18,0,0,1-4,9.73q-4,3.94-12.35,5a20.12,20.12,0,0,1,4.63,2.7,37.92,37.92,0,0,1,6.37,7.21l10.09,14.75h-9.65l-7.68-11.28q-3.36-4.87-5.54-7.46a16.81,16.81,0,0,0-3.9-3.63,11.9,11.9,0,0,0-3.5-1.44,25,25,0,0,0-4.28-.26H778v24.07ZM778,277.23h16.5a26.33,26.33,0,0,0,8.23-1,8.74,8.74,0,0,0,4.52-3.25,8.42,8.42,0,0,0,1.54-4.87,7.87,7.87,0,0,0-3-6.32q-3-2.47-9.44-2.47H778Z"/><path class="cls-7" d="M822.4,307.51l22.29-54.19H853l23.75,54.19H868l-6.77-16.41H836.93l-6.37,16.41Zm16.75-22.25h19.67l-6.06-15Q850,263.41,848.64,259a64.88,64.88,0,0,1-3.12,10.35Z"/><path class="cls-7" d="M891.59,307.51v-47.8H872.47v-6.39h46v6.39h-19.2v47.8Z"/><path class="cls-7" d="M927.64,307.51V253.32h7.68v54.19Z"/><path class="cls-7" d="M946.52,281.12q0-13.5,7.76-21.13t20-7.63a29.31,29.31,0,0,1,14.49,3.58,24.1,24.1,0,0,1,9.83,10,30.68,30.68,0,0,1,3.39,14.55,30.28,30.28,0,0,1-3.56,14.75,23.53,23.53,0,0,1-10.1,9.85,30.45,30.45,0,0,1-14.09,3.34,29,29,0,0,1-14.64-3.69,24.5,24.5,0,0,1-9.78-10.1A29,29,0,0,1,946.52,281.12Zm7.92.11q0,9.79,5.64,15.43a20.63,20.63,0,0,0,28.41-.06q5.6-5.69,5.6-16.15a26.27,26.27,0,0,0-2.39-11.55,17.55,17.55,0,0,0-7-7.65,20,20,0,0,0-10.35-2.72,20.44,20.44,0,0,0-14,5.23Q954.43,269,954.44,281.23Z"/><path class="cls-7" d="M1011.82,307.51V253.32h7.88l30.47,42.54V253.32h7.36v54.19h-7.87l-30.48-42.58v42.58Z"/><g class="cls-8"><path class="cls-9" d="M75.83,255.32v50.19h-3.4V255.32h3.4m-5,0-2.28,6.14L52.18,305.51H50.7l1.72-5.17c.65-1.94,1.69-4.85,3.07-8.63L68.9,255.32h1.94m-38.23,0,13.26,37c1.26,3.54,2.18,6.23,2.76,8l1.69,5.18H48.05l-16.3-44.82-2-5.37h2.82m-4.74,0v50.19h-3.4V255.32h3.4m50-2H67.5L53.61,291c-1.4,3.82-2.42,6.72-3.08,8.69-.58-1.78-1.51-4.45-2.77-8L34,253.32H22.47v54.19h7.4V261.38l16.78,46.13h6.92l16.86-45.36v45.36h7.4V253.32Z"/><path class="cls-10" d="M113.1,255.32l22,50.19h-4.35l-6.25-15.18L124,289.1H97l-.5,1.27-5.88,15.14H86.84l20.63-50.19h1.36l-.7,3.28a64.18,64.18,0,0,1-3,10l-6.37,15.89-1.1,2.75h25.59l-1.11-2.75-6.06-15c-1.82-4.49-3.18-8.21-4.06-11.07l-1-3.11h2m1.3-2h-8.27L83.85,307.51H92l6.38-16.41h24.26l6.76,16.41h8.75L114.4,253.32Zm-13.81,31.94,6.37-15.9A64.93,64.93,0,0,0,110.09,259q1.35,4.39,4.12,11.24l6.05,15Z"/><path class="cls-11" d="M185.67,255.32l-20.48,18.47L163.8,275l1.16,1.47,22.85,29h-5l-20.06-26.63-1.32-1.76-1.62,1.48-9.5,8.65-.65.6v17.66H146V255.32h3.68v29.47l3.36-3.14,28.24-26.33h4.42m5.2-2H180.46l-28.81,26.87V253.32H144v54.19h7.68V288.73l9.5-8.65,20.65,27.43h10.14l-25.41-32.23,24.34-22Z"/><path class="cls-12" d="M205.33,255.32v50.19h-3.68V255.32h3.68m2-2h-7.68v54.19h7.68V253.32Z"/><path class="cls-13" d="M264.5,255.32v50.19h-4.85l-29.87-41.75-3.63-5.07v46.82h-3.36V255.32h4.85L257.51,297l3.63,5.06V255.32h3.36m2-2h-7.36v42.54l-30.48-42.54h-7.87v54.19h7.36V264.93l30.47,42.58h7.88V253.32Z"/><path class="cls-14" d="M306.51,254.4a30.4,30.4,0,0,1,10.68,1.77,17,17,0,0,1,7.15,4.73,19.33,19.33,0,0,1,3.38,6.16l-3.1.8a19.69,19.69,0,0,0-3-5.39,15.41,15.41,0,0,0-6.35-4.38,23.79,23.79,0,0,0-8.73-1.56,27,27,0,0,0-9.83,1.64,19,19,0,0,0-6.9,4.41,20.42,20.42,0,0,0-4.05,5.94,28.72,28.72,0,0,0-2.39,11.71,27,27,0,0,0,2.92,13.08,18.57,18.57,0,0,0,8.69,8.1A27.6,27.6,0,0,0,306.67,304,29.33,29.33,0,0,0,317.11,302a27,27,0,0,0,7.78-4.16l.72-.6v-13H308.55v-2.36l20.58,0V299a41.8,41.8,0,0,1-10.34,5.47,35.12,35.12,0,0,1-11.68,2,33.1,33.1,0,0,1-14.66-3.21,21.58,21.58,0,0,1-9.67-9.06,27.6,27.6,0,0,1-3.32-13.49,29.94,29.94,0,0,1,3.32-13.85,20.91,20.91,0,0,1,9.31-9.31,32,32,0,0,1,14.42-3.11m0-2a33.72,33.72,0,0,0-15.31,3.32A22.64,22.64,0,0,0,281,265.91a31.59,31.59,0,0,0-3.55,14.76A29.4,29.4,0,0,0,281,295.12,23.42,23.42,0,0,0,291.57,305a34.88,34.88,0,0,0,15.54,3.42,37,37,0,0,0,12.35-2.12A44.23,44.23,0,0,0,331.13,300V279.86l-24.58,0v6.35h17.06v10.09a25.74,25.74,0,0,1-7.2,3.83,27.26,27.26,0,0,1-9.74,1.79,25.57,25.57,0,0,1-10.84-2.36,16.55,16.55,0,0,1-7.78-7.25,25,25,0,0,1-2.67-12.12,26.74,26.74,0,0,1,2.22-10.91,18.61,18.61,0,0,1,3.66-5.35,17,17,0,0,1,6.19-3.94,25,25,0,0,1,9.1-1.5,21.78,21.78,0,0,1,8,1.42,13.42,13.42,0,0,1,5.54,3.79,19.56,19.56,0,0,1,3.24,6.51l6.93-1.78a23,23,0,0,0-4.39-8.87,19,19,0,0,0-8-5.3,32.23,32.23,0,0,0-11.38-1.9Z"/><path class="cls-15" d="M385,255.32a50.61,50.61,0,0,1,9.9.73,18.43,18.43,0,0,1,7.7,3.5,20.28,20.28,0,0,1,6.25,8.43,32.51,32.51,0,0,1,2.13,12.14,33.66,33.66,0,0,1-1.45,10.32,23.87,23.87,0,0,1-3.64,7.29,18.29,18.29,0,0,1-4.76,4.44,20.43,20.43,0,0,1-6.31,2.46,40.33,40.33,0,0,1-8.87.88H367V255.32h18m-14.31,47.79H385a33.65,33.65,0,0,0,9.59-1.08,15.27,15.27,0,0,0,6-3.26,19,19,0,0,0,4.77-7.65A33.53,33.53,0,0,0,407,280c0-6-1.11-10.8-3.31-14.17a16.84,16.84,0,0,0-8.26-6.9c-2.3-.82-5.77-1.23-10.61-1.23H370.65v45.4M385,253.32H365v54.19h20.94a42,42,0,0,0,9.32-.93,22.32,22.32,0,0,0,6.92-2.71,20.63,20.63,0,0,0,5.29-4.92,26,26,0,0,0,3.95-7.89,35.5,35.5,0,0,0,1.55-10.94,34.09,34.09,0,0,0-2.28-12.88,22.09,22.09,0,0,0-6.87-9.26,20,20,0,0,0-8.5-3.88,51.62,51.62,0,0,0-10.33-.78Zm-12.31,47.79v-41.4h12.19q6.84,0,9.93,1.11a14.78,14.78,0,0,1,7.26,6.12q3,4.56,3,13.07a31.61,31.61,0,0,1-1.52,10.44,17,17,0,0,1-4.26,6.86,13.07,13.07,0,0,1-5.2,2.8,31.93,31.93,0,0,1-9,1Z"/><path class="cls-16" d="M463.61,255.32v2.39H429.34v20.6h32.1v2.36h-32.1v22.44H465v2.4h-39.3V255.32h37.95m2-2H423.66v54.19H467v-6.4H431.34V282.67h32.1v-6.36h-32.1v-16.6h34.27v-6.39Z"/><path class="cls-17" d="M530.7,255.32v50.19h-3.4V255.32h3.4m-5,0-2.28,6.14-16.37,44.05h-1.49l1.73-5.17c.65-1.94,1.68-4.85,3.06-8.63l13.41-36.39h1.94m-38.22,0,13.25,37c1.26,3.54,2.19,6.23,2.76,8l1.69,5.18h-2.27l-16.3-44.82-2-5.37h2.83m-4.75,0v50.19h-3.4V255.32h3.4m50-2H522.37L508.48,291q-2.1,5.73-3.09,8.69-.87-2.67-2.77-8l-13.73-38.37H477.33v54.19h7.4V261.38l16.78,46.13h6.93l16.86-45.36v45.36h7.4V253.32Z"/><path class="cls-18" d="M570.53,254.36a27.5,27.5,0,0,1,13.52,3.33,22.27,22.27,0,0,1,9,9.19,28.74,28.74,0,0,1,3.16,13.61,28.32,28.32,0,0,1-3.32,13.78,21.69,21.69,0,0,1-9.25,9,28.63,28.63,0,0,1-13.18,3.12A27.08,27.08,0,0,1,556.84,303a22.61,22.61,0,0,1-9-9.28,27,27,0,0,1-3.1-12.6c0-8.4,2.41-15,7.16-19.7s10.92-7.06,18.62-7.06m-.07,49.94A21.2,21.2,0,0,0,586.15,298c4.1-4.17,6.17-10.08,6.17-17.56A28.3,28.3,0,0,0,589.73,268a19.62,19.62,0,0,0-7.79-8.5,22.05,22.05,0,0,0-11.37-3,22.43,22.43,0,0,0-15.36,5.74c-4.34,3.86-6.54,10.24-6.54,19,0,7,2.09,12.71,6.22,16.84a21.22,21.22,0,0,0,15.57,6.23m.07-51.94q-12.27,0-20,7.63t-7.76,21.13a28.86,28.86,0,0,0,3.33,13.52,24.42,24.42,0,0,0,9.77,10.1,29,29,0,0,0,14.64,3.69,30.45,30.45,0,0,0,14.09-3.34,23.53,23.53,0,0,0,10.1-9.85,30.28,30.28,0,0,0,3.56-14.75,30.68,30.68,0,0,0-3.39-14.55,24.1,24.1,0,0,0-9.83-10,29.31,29.31,0,0,0-14.49-3.58Zm-.07,49.94a19.18,19.18,0,0,1-14.15-5.64q-5.64-5.64-5.64-15.43,0-12.24,5.87-17.47a20.44,20.44,0,0,1,14-5.23,20,20,0,0,1,10.35,2.72,17.55,17.55,0,0,1,7,7.65,26.27,26.27,0,0,1,2.39,11.55q0,10.46-5.6,16.15a19.14,19.14,0,0,1-14.26,5.7Z"/><path class="cls-19" d="M651.76,255.32v50.19h-4.84L617,263.76l-3.63-5.07v46.82h-3.36V255.32h4.85L644.78,297l3.62,5.06V255.32h3.36m2-2H646.4v42.54l-30.47-42.54h-7.88v54.19h7.36V264.93l30.48,42.58h7.87V253.32Z"/><path class="cls-20" d="M686.69,254.4a29,29,0,0,1,10.65,1.8,14.37,14.37,0,0,1,6.68,5,13.39,13.39,0,0,1,2.28,5.53l-3.5.25a12.23,12.23,0,0,0-4.46-7.23c-2.63-2-6.44-3-11.33-3-5.13,0-8.85.91-11.35,2.78a8.93,8.93,0,0,0-4,7.35,8,8,0,0,0,3,6.33c1.12.95,3.63,2.43,12.46,4.29a80.25,80.25,0,0,1,12.47,3.34,15.63,15.63,0,0,1,6.65,4.86,10.78,10.78,0,0,1,2,6.53,12,12,0,0,1-2.29,7,15.38,15.38,0,0,1-6.76,5.26,26.42,26.42,0,0,1-10.4,2,33.6,33.6,0,0,1-12.45-2,16.33,16.33,0,0,1-7.46-5.74,15.11,15.11,0,0,1-2.67-6.76l3.43-.28a15.21,15.21,0,0,0,2.43,5.7,15,15,0,0,0,6.71,4.89,25.4,25.4,0,0,0,9.65,1.76,24.75,24.75,0,0,0,8.44-1.34,12.73,12.73,0,0,0,5.91-4,9.39,9.39,0,0,0,2.06-5.86,8.79,8.79,0,0,0-2-5.74,13.59,13.59,0,0,0-6.08-3.79,105.57,105.57,0,0,0-10.58-2.72,53.73,53.73,0,0,1-10.76-3.23A13.43,13.43,0,0,1,670,273a9.7,9.7,0,0,1-1.7-5.62,11.14,11.14,0,0,1,2.13-6.53,13.49,13.49,0,0,1,6.37-4.69,27.38,27.38,0,0,1,9.92-1.71m0-2a29.37,29.37,0,0,0-10.64,1.84,15.36,15.36,0,0,0-7.29,5.42,13.14,13.14,0,0,0-2.49,7.67,11.72,11.72,0,0,0,2,6.74,15.45,15.45,0,0,0,6.19,5.05,55.14,55.14,0,0,0,11.2,3.38q8,1.8,10.33,2.64a11.9,11.9,0,0,1,5.23,3.2,6.8,6.8,0,0,1,1.58,4.46,7.42,7.42,0,0,1-1.64,4.63,10.77,10.77,0,0,1-5,3.35,22.78,22.78,0,0,1-7.76,1.22,23.52,23.52,0,0,1-8.9-1.61,13,13,0,0,1-5.84-4.21,14.3,14.3,0,0,1-2.39-6.67l-7.24.59a17.39,17.39,0,0,0,3.18,9.74,18.26,18.26,0,0,0,8.35,6.45,35.49,35.49,0,0,0,13.2,2.14A28.28,28.28,0,0,0,700,306.31a17.28,17.28,0,0,0,7.62-6,14,14,0,0,0,2.65-8.15,12.82,12.82,0,0,0-2.41-7.7,17.53,17.53,0,0,0-7.48-5.53,80.69,80.69,0,0,0-12.85-3.45q-9.36-2-11.57-3.87a6,6,0,0,1-2.26-4.8,7,7,0,0,1,3.19-5.75q3.18-2.39,10.15-2.38,6.69,0,10.11,2.62a10.88,10.88,0,0,1,4,7.76l7.36-.51a15.61,15.61,0,0,0-2.85-8.54,16.16,16.16,0,0,0-7.58-5.71,30.77,30.77,0,0,0-11.38-1.94Z"/><path class="cls-21" d="M760.37,255.32v2.39h-19.2v47.8h-3.68v-47.8H718.38v-2.39h42m2-2h-46v6.39h19.11v47.8h7.68v-47.8h19.2v-6.39Z"/><path class="cls-22" d="M796.09,255.32c4.91,0,8.65.45,11.11,1.34a10.69,10.69,0,0,1,5.46,4.37,12.6,12.6,0,0,1,2.09,7.07,11.12,11.12,0,0,1-3.41,8.3c-2.33,2.31-6.1,3.82-11.2,4.47l-7,.9,6.47,2.91a18.62,18.62,0,0,1,4.15,2.39,36.07,36.07,0,0,1,6,6.82l8,11.62h-4.81l-7.08-10.41c-2.27-3.29-4.18-5.86-5.66-7.62a18.69,18.69,0,0,0-4.4-4.05,13.93,13.93,0,0,0-4.09-1.68h-.06a26,26,0,0,0-4.66-.3H776v24.07h-3.68V255.32h23.73M776,279.23h18.5a27.9,27.9,0,0,0,8.88-1.12,10.65,10.65,0,0,0,5.51-4,10.37,10.37,0,0,0,1.9-6,9.82,9.82,0,0,0-3.71-7.86c-2.39-2-5.89-2.93-10.72-2.93H776v21.92m20.05-25.91H770.36v54.19H778V283.44h8.9a25,25,0,0,1,4.28.26,11.9,11.9,0,0,1,3.5,1.44,16.81,16.81,0,0,1,3.9,3.63q2.18,2.58,5.54,7.46l7.68,11.28h9.65L811.4,292.76a37.92,37.92,0,0,0-6.37-7.21,20.12,20.12,0,0,0-4.63-2.7q8.36-1.07,12.35-5a13.18,13.18,0,0,0,4-9.73,14.59,14.59,0,0,0-2.42-8.16,12.67,12.67,0,0,0-6.45-5.16q-4-1.46-11.79-1.46ZM778,277.23V259.31H796.4q6.45,0,9.44,2.47a7.87,7.87,0,0,1,3,6.32,8.42,8.42,0,0,1-1.54,4.87,8.74,8.74,0,0,1-4.52,3.25,26.33,26.33,0,0,1-8.23,1Z"/><path class="cls-23" d="M851.65,255.32l22,50.19H869.3L863,290.33l-.51-1.23h-27l-.49,1.27-5.88,15.14h-3.8L846,255.32h1.36l-.7,3.28a65,65,0,0,1-3,10l-6.37,15.89-1.1,2.75h25.59l-1.11-2.75-6.06-15c-1.81-4.49-3.18-8.21-4.05-11.07l-.95-3.11h2m1.31-2h-8.27L822.4,307.51h8.16l6.37-16.41h24.26L868,307.51h8.75L853,253.32Zm-13.81,31.94,6.37-15.9A64.88,64.88,0,0,0,848.64,259q1.35,4.39,4.12,11.24l6.06,15Z"/><path class="cls-24" d="M916.46,255.32v2.39h-19.2v47.8h-3.67v-47.8H874.47v-2.39h42m2-2h-46v6.39h19.12v47.8h7.67v-47.8h19.2v-6.39Z"/><path class="cls-25" d="M933.32,255.32v50.19h-3.68V255.32h3.68m2-2h-7.68v54.19h7.68V253.32Z"/><path class="cls-26" d="M974.3,254.36a27.5,27.5,0,0,1,13.52,3.33,22.27,22.27,0,0,1,9,9.19,28.74,28.74,0,0,1,3.16,13.61,28.32,28.32,0,0,1-3.32,13.78,21.69,21.69,0,0,1-9.25,9,28.66,28.66,0,0,1-13.18,3.12A27.08,27.08,0,0,1,960.61,303a22.61,22.61,0,0,1-9-9.28,27,27,0,0,1-3.1-12.6c0-8.4,2.41-15,7.16-19.7s10.92-7.06,18.62-7.06m-.08,49.94a21.21,21.21,0,0,0,15.7-6.29c4.09-4.17,6.17-10.08,6.17-17.56A28.3,28.3,0,0,0,993.5,268a19.62,19.62,0,0,0-7.79-8.5,22.05,22.05,0,0,0-11.37-3A22.43,22.43,0,0,0,959,262.27c-4.34,3.86-6.54,10.24-6.54,19,0,7,2.09,12.71,6.22,16.84a21.22,21.22,0,0,0,15.56,6.23m.08-51.94q-12.27,0-20,7.63t-7.76,21.13a29,29,0,0,0,3.32,13.52,24.5,24.5,0,0,0,9.78,10.1,29,29,0,0,0,14.64,3.69,30.45,30.45,0,0,0,14.09-3.34,23.53,23.53,0,0,0,10.1-9.85,30.28,30.28,0,0,0,3.56-14.75,30.68,30.68,0,0,0-3.39-14.55,24.1,24.1,0,0,0-9.83-10,29.31,29.31,0,0,0-14.49-3.58Zm-.08,49.94a19.16,19.16,0,0,1-14.14-5.64q-5.64-5.64-5.64-15.43,0-12.24,5.87-17.47a20.44,20.44,0,0,1,14-5.23,20,20,0,0,1,10.35,2.72,17.55,17.55,0,0,1,7,7.65,26.27,26.27,0,0,1,2.39,11.55q0,10.46-5.6,16.15a19.14,19.14,0,0,1-14.27,5.7Z"/><path class="cls-27" d="M1055.53,255.32v50.19h-4.84l-29.88-41.75-3.63-5.07v46.82h-3.36V255.32h4.85L1048.55,297l3.62,5.06V255.32h3.36m2-2h-7.36v42.54l-30.47-42.54h-7.88v54.19h7.36V264.93l30.48,42.58h7.87V253.32Z"/></g><path class="cls-28" d="M853.44,697.53c0,34-22.15,64.24-31.25,95-9.52,32.22-7.86,69.63-25.76,96.64-18.41,27.79-53.65,40.62-79.16,61-25.75,20.6-46.22,52.11-77.39,63.24-30.44,10.88-66-.32-99.88-.32s-69.44,11.2-99.88.32c-31.17-11.13-51.64-42.64-77.39-63.24-25.51-20.4-60.75-33.23-79.16-61-17.9-27-16.24-64.42-25.76-96.64-9.1-30.78-31.25-61-31.25-95s22.15-64.23,31.25-95c9.52-32.22,7.86-69.63,25.76-96.64,18.41-27.79,53.65-40.62,79.16-61,25.75-20.6,46.22-52.11,77.39-63.25,30.44-10.87,66,.33,99.88.33s69.44-11.2,99.88-.32c31.17,11.13,51.64,42.64,77.39,63.24,25.51,20.4,60.75,33.23,79.16,61,17.9,27,16.24,64.42,25.76,96.64C831.29,633.3,853.44,663.56,853.44,697.53Z"/><path class="cls-29" d="M608.55,1020c-11.24,0-22.72-1.27-34-2.51s-23.16-2.55-34.54-2.55-23.16,1.3-34.54,2.55c-22.33,2.46-45.42,5-65.93-2.33-20.87-7.45-37.11-24-52.8-39.91-8-8.17-16.36-16.62-25.1-23.61s-19-13.34-28.94-19.42c-18.87-11.6-38.38-23.59-50.59-42-11.63-17.57-15.19-39.7-18.64-61.11-1.93-12-3.93-24.48-7.34-36-3.22-10.9-8-21.54-13.09-32.82-9-19.91-18.23-40.49-18.23-62.68s9.27-42.78,18.23-62.69c5.07-11.28,9.87-21.92,13.09-32.83,3.41-11.53,5.41-24,7.34-36,3.45-21.41,7-43.54,18.64-61.11,12.21-18.41,31.72-30.4,50.59-42,9.9-6.08,20.13-12.37,28.94-19.42s17.06-15.44,25.1-23.61c15.69-16,31.93-32.46,52.8-39.91,20.51-7.33,43.6-4.79,65.93-2.33,11.38,1.25,23.16,2.55,34.54,2.55s23.16-1.3,34.54-2.55c22.33-2.46,45.42-5,65.93,2.33,20.87,7.45,37.11,24,52.8,39.91,8,8.17,16.36,16.62,25.1,23.61s19,13.34,28.94,19.42c18.87,11.6,38.38,23.59,50.59,42,11.63,17.56,15.19,39.69,18.64,61.1,1.93,12,3.93,24.48,7.34,36,3.22,10.91,8,21.56,13.09,32.83,9,19.91,18.23,40.49,18.23,62.69s-9.27,42.77-18.23,62.68c-5.07,11.27-9.86,21.92-13.09,32.83-3.41,11.53-5.41,24-7.34,36-3.45,21.41-7,43.54-18.64,61.11-12.21,18.41-31.72,30.4-50.59,42-9.9,6.08-20.13,12.37-28.94,19.42S701.31,967,693.27,975.2c-15.69,16-31.93,32.46-52.8,39.91C630.33,1018.74,619.55,1020,608.55,1020ZM540,1011.37c11.57,0,23.45,1.31,34.93,2.57,22.94,2.53,44.61,4.91,64.36-2.14,20.11-7.18,36.05-23.39,51.47-39.07,8.12-8.24,16.51-16.77,25.41-23.89s19.31-13.53,29.3-19.67C764,917.78,783.19,906,795,888.22c11.22-16.93,14.56-37.71,18.1-59.72,2-12.14,4-24.7,7.45-36.45,3.29-11.13,8.35-22.39,13.25-33.27,8.81-19.57,17.92-39.81,17.92-61.24s-9.11-41.68-17.92-61.25c-4.9-10.88-10-22.14-13.25-33.27-3.48-11.75-5.5-24.31-7.45-36.46-3.54-22-6.88-42.78-18.1-59.71-11.77-17.77-31-29.56-49.49-41-10-6.14-20.32-12.48-29.3-19.67s-17.29-15.65-25.41-23.89c-15.42-15.68-31.36-31.89-51.47-39.07-19.75-7-41.42-4.67-64.36-2.14-11.48,1.26-23.36,2.57-34.93,2.57s-23.45-1.31-34.93-2.57c-22.94-2.53-44.61-4.91-64.36,2.14-20.11,7.18-36,23.39-51.47,39.06-8.12,8.25-16.51,16.78-25.41,23.9s-19.31,13.53-29.3,19.67c-18.54,11.39-37.72,23.18-49.49,41-11.22,16.93-14.56,37.71-18.1,59.72-1.95,12.14-4,24.7-7.45,36.45-3.29,11.13-8.35,22.39-13.25,33.27-8.81,19.57-17.92,39.81-17.92,61.25s9.11,41.67,17.92,61.24c4.9,10.88,10,22.14,13.25,33.27,3.48,11.75,5.5,24.31,7.45,36.45,3.54,22,6.88,42.79,18.1,59.72C296.81,906,316,917.78,334.53,929.17c10,6.14,20.32,12.48,29.3,19.67s17.29,15.65,25.41,23.89c15.42,15.68,31.36,31.88,51.47,39.07,19.75,7.05,41.42,4.66,64.36,2.14C516.55,1012.68,528.43,1011.37,540,1011.37Z"/><circle cx="540.99" cy="698.89" r="15.76"/><path class="cls-30" d="M284.89,778.49l4.21-81-4.21-80.95L338,555.28l45.55-67,78.93-18.55,75.7-29,75.7,29,78.93,18.55,45.55,67,53.06,61.3-4.21,80.95,4.21,81-53.06,61.3-45.55,67.05-78.93,18.55-75.7,29-75.7-29L383.5,906.84,338,839.79Zm7.73-81v.1l-4.15,79.63,52.28,60.38.06.09,44.83,66L463.46,922l.11,0,74.56,28.53L612.8,922l.11,0,77.71-18.27,44.89-66.08.07-.08,52.21-60.3-4.15-79.73v-.09l4.15-79.63-52.28-60.38-.06-.09-44.83-66L612.8,473.06l-.11-.05-74.56-28.53-74.67,28.58-.11,0-77.71,18.27-44.89,66.08-.07.07-52.21,60.31Z"/><path class="cls-31" d="M541,488.37V656.44a42.44,42.44,0,0,1,42.45,42.45c0,.12,0,.24,0,.36H751.5c0-.12,0-.24,0-.36C751.51,582.62,657.26,488.37,541,488.37Z"/><path class="cls-32" d="M498.55,699.25H330.48c.2,116.1,94.37,210.15,210.51,210.15V741.34A42.45,42.45,0,0,1,498.55,699.25Z"/></g></g></svg>