<svg xmlns="http://www.w3.org/2000/svg" xmlns:xlink="http://www.w3.org/1999/xlink" viewBox="0 0 371.43 371.43"><defs><style>.cls-1{fill:#37353c;}.cls-2{fill:#92864f;}.cls-3{fill:#231f20;}.cls-4{fill:url(#linear-gradient);}.cls-5{fill:url(#linear-gradient-2);}.cls-6{fill:url(#New_Gradient_Swatch_copy_2);}.cls-7{fill:url(#New_Gradient_Swatch_copy_2-2);}.cls-8{fill:url(#New_Gradient_Swatch_copy_2-3);}.cls-9{fill:url(#New_Gradient_Swatch_copy_2-4);}.cls-10{fill:url(#New_Gradient_Swatch_copy_2-5);}.cls-11{fill:url(#New_Gradient_Swatch_copy_2-6);}.cls-12{fill:url(#New_Gradient_Swatch_copy_2-7);}.cls-13{fill:none;stroke:#625b32;stroke-miterlimit:10;}</style><linearGradient id="linear-gradient" x1="2241.9" y1="2549.57" x2="2448.82" y2="2342.64" gradientTransform="translate(-2353.25 2623.93) rotate(-90)" gradientUnits="userSpaceOnUse"><stop offset="0" stop-color="#c09d30"/><stop offset="0.35" stop-color="#d0a641"/><stop offset="0.5" stop-color="#fffac4"/><stop offset="0.65" stop-color="#d0a641"/><stop offset="1" stop-color="#c09d30"/></linearGradient><linearGradient id="linear-gradient-2" x1="2427.61" y1="2735.29" x2="2634.54" y2="2528.36" xlink:href="#linear-gradient"/><linearGradient id="New_Gradient_Swatch_copy_2" x1="83.1" y1="144.16" x2="83.1" y2="225.63" gradientUnits="userSpaceOnUse"><stop offset="0.18" stop-color="#fffac4"/><stop offset="0.21" stop-color="#f9efb4"/><stop offset="0.25" stop-color="#eed893"/><stop offset="0.76" stop-color="#d6b55a"/><stop offset="0.84" stop-color="#d0a641"/><stop offset="0.95" stop-color="#b69238"/></linearGradient><linearGradient id="New_Gradient_Swatch_copy_2-2" x1="117.99" y1="154.7" x2="117.99" y2="225.63" xlink:href="#New_Gradient_Swatch_copy_2"/><linearGradient id="New_Gradient_Swatch_copy_2-3" x1="155.14" y1="154.5" x2="155.14" y2="227.27" xlink:href="#New_Gradient_Swatch_copy_2"/><linearGradient id="New_Gradient_Swatch_copy_2-4" x1="188.81" y1="156.14" x2="188.81" y2="225.63" xlink:href="#New_Gradient_Swatch_copy_2"/><linearGradient id="New_Gradient_Swatch_copy_2-5" x1="222.97" y1="154.7" x2="222.97" y2="225.63" xlink:href="#New_Gradient_Swatch_copy_2"/><linearGradient id="New_Gradient_Swatch_copy_2-6" x1="257.82" y1="156.14" x2="257.82" y2="227.22" xlink:href="#New_Gradient_Swatch_copy_2"/><linearGradient id="New_Gradient_Swatch_copy_2-7" x1="291.69" y1="156.14" x2="291.69" y2="225.63" xlink:href="#New_Gradient_Swatch_copy_2"/></defs><g id="Pageant"><g id="Pageant-2" data-name="Pageant"><polygon class="cls-1" points="0 164.5 0 0 164.5 0 371.43 206.93 371.43 371.43 206.93 371.43 0 164.5"/><polygon class="cls-2" points="35.72 35.72 252.15 119.28 335.71 335.71 119.28 252.15 35.72 35.72"/><polygon class="cls-3" points="0 214 157.43 371.43 214 371.43 0 157.43 0 214"/><polygon class="cls-3" points="371.43 157.43 214.59 0.59 157.43 0 371.43 214 371.43 157.43"/><polygon class="cls-4" points="0 206.93 164.5 371.43 206.93 371.43 0 164.5 0 206.93"/><polygon class="cls-5" points="371.43 164.5 206.93 0 164.5 0 371.43 206.93 371.43 164.5"/></g><path class="cls-3" d="M79.23,188.74v22.59a53.58,53.58,0,0,0,.37,8.32,5.64,5.64,0,0,0,1.33,2.74q1,1,3.51,1v2.22H65.33v-2.22q2.61,0,3.54-1a6,6,0,0,0,1.3-2.74,52.91,52.91,0,0,0,.37-8.29V158.46a53.58,53.58,0,0,0-.37-8.32,5.72,5.72,0,0,0-1.32-2.74c-.63-.68-1.8-1-3.52-1v-2.22H81.72q8.1,0,11.62,6.25T96.86,166a36.28,36.28,0,0,1-2.27,13.58q-2.28,5.64-6.27,7.69Q85.64,188.74,79.23,188.74Zm0-39.9v35.21a11.59,11.59,0,0,0,1.38.12q3.39,0,5.22-4.35t1.83-13.49q0-9.08-1.83-13.28c-1.22-2.8-3-4.21-5.47-4.21Z"/><path class="cls-3" d="M118.74,205.85H107.41l-1.35,6.77a30.17,30.17,0,0,0-.66,5.58,7,7,0,0,0,1.08,4.31q.64.81,3.15,1.23v1.89H99v-1.89a5.12,5.12,0,0,0,2.84-3.1,63.56,63.56,0,0,0,2.74-10.48L116,154.7h.45l11.56,57q1.66,8.1,2.72,10.2a3.14,3.14,0,0,0,2.27,1.85v1.89H117.51v-1.89h.64a2.92,2.92,0,0,0,2.62-1.13,4.39,4.39,0,0,0,.52-2.36,13.8,13.8,0,0,0-.14-1.89c0-.31-.27-1.59-.71-3.85Zm-.81-3.79-4.78-23.94-4.92,23.94Z"/><path class="cls-3" d="M167,154.55v24.5h-.87q-1.59-10.05-4.76-15.28t-6.93-5.22c-2.39,0-4.39,1.46-6,4.38s-2.72,7-3.38,12.22a126.5,126.5,0,0,0-1,16.09,123.32,123.32,0,0,0,1.09,17.53q1.09,7.53,3.51,11.07t5.76,3.54a5.82,5.82,0,0,0,2.38-.54,11.83,11.83,0,0,0,2.5-1.56V206.82a33,33,0,0,0-.26-5.3,5.14,5.14,0,0,0-1.08-2.18,2.48,2.48,0,0,0-2-1h-.82v-1.9h15.58v1.9a4,4,0,0,0-2.47,1,5.87,5.87,0,0,0-1.07,2.64,29.35,29.35,0,0,0-.22,4.76v14.46a23,23,0,0,1-6.39,4.48,16.48,16.48,0,0,1-6.9,1.51,10.94,10.94,0,0,1-7.58-2.69,24.68,24.68,0,0,1-5.32-7.07,41.79,41.79,0,0,1-3.61-9.87,69.19,69.19,0,0,1-1.66-15.83q0-15.69,5.09-26.5t12.8-10.81a10.78,10.78,0,0,1,4.3.82,15.55,15.55,0,0,1,3.37,2.33,9.85,9.85,0,0,0,2.76,1.92q.66,0,1.23-1a14.34,14.34,0,0,0,1-4Z"/><path class="cls-3" d="M184.45,160.14v28.29h.64c2,0,3.51-1.39,4.42-4.16A48.2,48.2,0,0,0,191.26,172h.9v36.38h-.9a52.76,52.76,0,0,0-1.19-9.73c-.61-2.53-1.31-4.23-2.12-5.1a4.53,4.53,0,0,0-3.5-1.31v19.58a60,60,0,0,0,.23,7,4.88,4.88,0,0,0,.84,2.1,2.3,2.3,0,0,0,2,.82h1.92c3,0,5.4-1.5,7.2-4.51s3.1-7.59,3.89-13.74h.88L200,225.63H172.22v-1.89h1.07a2.7,2.7,0,0,0,2.24-1.08,5.43,5.43,0,0,0,.95-2.46,45.53,45.53,0,0,0,.26-6.46V168c0-3.14,0-5.08-.12-5.79a6.79,6.79,0,0,0-.87-2.77,2.77,2.77,0,0,0-2.46-1.44h-1.07v-1.89h26.85v20.55h-.9q-.69-7.53-1.93-10.81a9.7,9.7,0,0,0-3.51-4.82c-.88-.62-2.54-.92-5-.92Z"/><path class="cls-3" d="M223.72,205.85H212.39L211,212.62a30.17,30.17,0,0,0-.66,5.58,7,7,0,0,0,1.08,4.31q.64.81,3.15,1.23v1.89H203.94v-1.89a5.12,5.12,0,0,0,2.84-3.1,64.3,64.3,0,0,0,2.75-10.48L221,154.7h.45l11.56,57q1.67,8.1,2.73,10.2a3.11,3.11,0,0,0,2.27,1.85v1.89H222.49v-1.89h.64a2.92,2.92,0,0,0,2.62-1.13,4.39,4.39,0,0,0,.52-2.36,12.39,12.39,0,0,0-.14-1.89c0-.31-.27-1.59-.71-3.85Zm-.81-3.79-4.77-23.94-4.92,23.94Z"/><path class="cls-3" d="M250.62,156.14l15.82,43.1V169.36q0-6.26-.83-8.46c-.75-2-2-2.93-3.81-2.87v-1.89h10.6V158a5.15,5.15,0,0,0-2.73,1.47,6.93,6.93,0,0,0-1.09,2.92,42,42,0,0,0-.39,6.94v57.86h-.8l-21.7-57.86v44.18c0,4,.43,6.69,1.27,8.1s1.81,2.1,2.9,2.1h.76v1.89H239.24v-1.89a3.83,3.83,0,0,0,3.69-2.36q1-2.31,1-7.84v-49l-.69-1.84a12.53,12.53,0,0,0-1.8-3.64,3.19,3.19,0,0,0-2.24-1v-1.89Z"/><path class="cls-3" d="M304.1,156.14V175h-.85a55,55,0,0,0-1.68-9.36,11.85,11.85,0,0,0-2.53-4.53,4.3,4.3,0,0,0-3.15-.92H293.5v53.6a47.06,47.06,0,0,0,.27,6.67,5.48,5.48,0,0,0,1.07,2.33,2.63,2.63,0,0,0,2.16,1h1.07v1.89h-16.8v-1.89h1.07a2.7,2.7,0,0,0,2.24-1.08,5.53,5.53,0,0,0,1-2.46,44,44,0,0,0,.26-6.46v-53.6h-2.32a4.9,4.9,0,0,0-4.7,3q-2.06,4.15-2.6,11.84h-.9V156.14Z"/><path class="cls-6" d="M81.23,188.74v22.59a53.58,53.58,0,0,0,.37,8.32,5.64,5.64,0,0,0,1.33,2.74q1,1,3.51,1v2.22H67.33v-2.22q2.61,0,3.54-1a6,6,0,0,0,1.3-2.74,52.91,52.91,0,0,0,.37-8.29V158.46a53.58,53.58,0,0,0-.37-8.32,5.72,5.72,0,0,0-1.32-2.74c-.63-.68-1.8-1-3.52-1v-2.22H83.72q8.1,0,11.62,6.25T98.86,166a36.28,36.28,0,0,1-2.27,13.58q-2.28,5.64-6.27,7.69Q87.64,188.74,81.23,188.74Zm0-39.9v35.21a11.59,11.59,0,0,0,1.38.12q3.39,0,5.22-4.35t1.83-13.49q0-9.08-1.83-13.28c-1.22-2.8-3-4.21-5.47-4.21Z"/><path class="cls-7" d="M120.74,205.85H109.41l-1.35,6.77a30.17,30.17,0,0,0-.66,5.58,7,7,0,0,0,1.08,4.31q.64.81,3.15,1.23v1.89H101v-1.89a5.12,5.12,0,0,0,2.84-3.1,63.56,63.56,0,0,0,2.74-10.48L118,154.7h.45l11.56,57q1.66,8.1,2.72,10.2a3.14,3.14,0,0,0,2.27,1.85v1.89H119.51v-1.89h.64a2.92,2.92,0,0,0,2.62-1.13,4.39,4.39,0,0,0,.52-2.36,13.8,13.8,0,0,0-.14-1.89c0-.31-.27-1.59-.71-3.85Zm-.81-3.79-4.78-23.94-4.92,23.94Z"/><path class="cls-8" d="M169,154.55v24.5h-.87q-1.59-10.05-4.76-15.28t-6.93-5.22c-2.39,0-4.39,1.46-6,4.38s-2.72,7-3.38,12.22a126.5,126.5,0,0,0-1,16.09,123.32,123.32,0,0,0,1.09,17.53q1.09,7.53,3.51,11.07t5.76,3.54a5.82,5.82,0,0,0,2.38-.54,11.83,11.83,0,0,0,2.5-1.56V206.82a33,33,0,0,0-.26-5.3,5.14,5.14,0,0,0-1.08-2.18,2.48,2.48,0,0,0-2-1h-.82v-1.9h15.58v1.9a4,4,0,0,0-2.47,1,5.87,5.87,0,0,0-1.07,2.64,29.35,29.35,0,0,0-.22,4.76v14.46a23,23,0,0,1-6.39,4.48,16.48,16.48,0,0,1-6.9,1.51,10.94,10.94,0,0,1-7.58-2.69,24.68,24.68,0,0,1-5.32-7.07,41.79,41.79,0,0,1-3.61-9.87,69.19,69.19,0,0,1-1.66-15.83q0-15.69,5.09-26.5t12.8-10.81a10.78,10.78,0,0,1,4.3.82,15.55,15.55,0,0,1,3.37,2.33,9.85,9.85,0,0,0,2.76,1.92q.66,0,1.23-1a14.34,14.34,0,0,0,1-4Z"/><path class="cls-9" d="M186.45,160.14v28.29h.64c2,0,3.51-1.39,4.42-4.16A48.2,48.2,0,0,0,193.26,172h.9v36.38h-.9a52.76,52.76,0,0,0-1.19-9.73c-.61-2.53-1.31-4.23-2.12-5.1a4.53,4.53,0,0,0-3.5-1.31v19.58a60,60,0,0,0,.23,7,4.88,4.88,0,0,0,.84,2.1,2.3,2.3,0,0,0,2,.82h1.92c3,0,5.4-1.5,7.2-4.51s3.1-7.59,3.89-13.74h.88L202,225.63H174.22v-1.89h1.07a2.7,2.7,0,0,0,2.24-1.08,5.43,5.43,0,0,0,.95-2.46,45.53,45.53,0,0,0,.26-6.46V168c0-3.14,0-5.08-.12-5.79a6.79,6.79,0,0,0-.87-2.77,2.77,2.77,0,0,0-2.46-1.44h-1.07v-1.89h26.85v20.55h-.9q-.69-7.53-1.93-10.81a9.7,9.7,0,0,0-3.51-4.82c-.88-.62-2.54-.92-5-.92Z"/><path class="cls-10" d="M225.72,205.85H214.39L213,212.62a30.17,30.17,0,0,0-.66,5.58,7,7,0,0,0,1.08,4.31q.64.81,3.15,1.23v1.89H205.94v-1.89a5.12,5.12,0,0,0,2.84-3.1,64.3,64.3,0,0,0,2.75-10.48L223,154.7h.45l11.56,57q1.67,8.1,2.73,10.2a3.11,3.11,0,0,0,2.27,1.85v1.89H224.49v-1.89h.64a2.92,2.92,0,0,0,2.62-1.13,4.39,4.39,0,0,0,.52-2.36,12.39,12.39,0,0,0-.14-1.89c0-.31-.27-1.59-.71-3.85Zm-.81-3.79-4.77-23.94-4.92,23.94Z"/><path class="cls-11" d="M252.62,156.14l15.82,43.1V169.36q0-6.26-.83-8.46c-.75-2-2-2.93-3.81-2.87v-1.89h10.6V158a5.15,5.15,0,0,0-2.73,1.47,6.93,6.93,0,0,0-1.09,2.92,42,42,0,0,0-.39,6.94v57.86h-.8l-21.7-57.86v44.18c0,4,.43,6.69,1.27,8.1s1.81,2.1,2.9,2.1h.76v1.89H241.24v-1.89a3.83,3.83,0,0,0,3.69-2.36q1-2.31,1-7.84v-49l-.69-1.84a12.53,12.53,0,0,0-1.8-3.64,3.19,3.19,0,0,0-2.24-1v-1.89Z"/><path class="cls-12" d="M306.1,156.14V175h-.85a55,55,0,0,0-1.68-9.36,11.85,11.85,0,0,0-2.53-4.53,4.3,4.3,0,0,0-3.15-.92H295.5v53.6a47.06,47.06,0,0,0,.27,6.67,5.48,5.48,0,0,0,1.07,2.33,2.63,2.63,0,0,0,2.16,1h1.07v1.89h-16.8v-1.89h1.07a2.7,2.7,0,0,0,2.24-1.08,5.53,5.53,0,0,0,1-2.46,44,44,0,0,0,.26-6.46v-53.6h-2.32a4.9,4.9,0,0,0-4.7,3q-2.06,4.15-2.6,11.84h-.9V156.14Z"/><path class="cls-13" d="M81.23,188.74v22.59a53.58,53.58,0,0,0,.37,8.32,5.64,5.64,0,0,0,1.33,2.74q1,1,3.51,1v2.22H67.33v-2.22q2.61,0,3.54-1a6,6,0,0,0,1.3-2.74,52.91,52.91,0,0,0,.37-8.29V158.46a53.58,53.58,0,0,0-.37-8.32,5.72,5.72,0,0,0-1.32-2.74c-.63-.68-1.8-1-3.52-1v-2.22H83.72q8.1,0,11.62,6.25T98.86,166a36.28,36.28,0,0,1-2.27,13.58q-2.28,5.64-6.27,7.69Q87.64,188.74,81.23,188.74Zm0-39.9v35.21a11.59,11.59,0,0,0,1.38.12q3.39,0,5.22-4.35t1.83-13.49q0-9.08-1.83-13.28c-1.22-2.8-3-4.21-5.47-4.21Z"/><path class="cls-13" d="M120.74,205.85H109.41l-1.35,6.77a30.17,30.17,0,0,0-.66,5.58,7,7,0,0,0,1.08,4.31q.64.81,3.15,1.23v1.89H101v-1.89a5.12,5.12,0,0,0,2.84-3.1,63.56,63.56,0,0,0,2.74-10.48L118,154.7h.45l11.56,57q1.66,8.1,2.72,10.2a3.14,3.14,0,0,0,2.27,1.85v1.89H119.51v-1.89h.64a2.92,2.92,0,0,0,2.62-1.13,4.39,4.39,0,0,0,.52-2.36,13.8,13.8,0,0,0-.14-1.89c0-.31-.27-1.59-.71-3.85Zm-.81-3.79-4.78-23.94-4.92,23.94Z"/><path class="cls-13" d="M169,154.55v24.5h-.87q-1.59-10.05-4.76-15.28t-6.93-5.22c-2.39,0-4.39,1.46-6,4.38s-2.72,7-3.38,12.22a126.5,126.5,0,0,0-1,16.09,123.32,123.32,0,0,0,1.09,17.53q1.09,7.53,3.51,11.07t5.76,3.54a5.82,5.82,0,0,0,2.38-.54,11.83,11.83,0,0,0,2.5-1.56V206.82a33,33,0,0,0-.26-5.3,5.14,5.14,0,0,0-1.08-2.18,2.48,2.48,0,0,0-2-1h-.82v-1.9h15.58v1.9a4,4,0,0,0-2.47,1,5.87,5.87,0,0,0-1.07,2.64,29.35,29.35,0,0,0-.22,4.76v14.46a23,23,0,0,1-6.39,4.48,16.48,16.48,0,0,1-6.9,1.51,10.94,10.94,0,0,1-7.58-2.69,24.68,24.68,0,0,1-5.32-7.07,41.79,41.79,0,0,1-3.61-9.87,69.19,69.19,0,0,1-1.66-15.83q0-15.69,5.09-26.5t12.8-10.81a10.78,10.78,0,0,1,4.3.82,15.55,15.55,0,0,1,3.37,2.33,9.85,9.85,0,0,0,2.76,1.92q.66,0,1.23-1a14.34,14.34,0,0,0,1-4Z"/><path class="cls-13" d="M186.45,160.14v28.29h.64c2,0,3.51-1.39,4.42-4.16A48.2,48.2,0,0,0,193.26,172h.9v36.38h-.9a52.76,52.76,0,0,0-1.19-9.73c-.61-2.53-1.31-4.23-2.12-5.1a4.53,4.53,0,0,0-3.5-1.31v19.58a60,60,0,0,0,.23,7,4.88,4.88,0,0,0,.84,2.1,2.3,2.3,0,0,0,2,.82h1.92c3,0,5.4-1.5,7.2-4.51s3.1-7.59,3.89-13.74h.88L202,225.63H174.22v-1.89h1.07a2.7,2.7,0,0,0,2.24-1.08,5.43,5.43,0,0,0,.95-2.46,45.53,45.53,0,0,0,.26-6.46V168c0-3.14,0-5.08-.12-5.79a6.79,6.79,0,0,0-.87-2.77,2.77,2.77,0,0,0-2.46-1.44h-1.07v-1.89h26.85v20.55h-.9q-.69-7.53-1.93-10.81a9.7,9.7,0,0,0-3.51-4.82c-.88-.62-2.54-.92-5-.92Z"/><path class="cls-13" d="M225.72,205.85H214.39L213,212.62a30.17,30.17,0,0,0-.66,5.58,7,7,0,0,0,1.08,4.31q.64.81,3.15,1.23v1.89H205.94v-1.89a5.12,5.12,0,0,0,2.84-3.1,64.3,64.3,0,0,0,2.75-10.48L223,154.7h.45l11.56,57q1.67,8.1,2.73,10.2a3.11,3.11,0,0,0,2.27,1.85v1.89H224.49v-1.89h.64a2.92,2.92,0,0,0,2.62-1.13,4.39,4.39,0,0,0,.52-2.36,12.39,12.39,0,0,0-.14-1.89c0-.31-.27-1.59-.71-3.85Zm-.81-3.79-4.77-23.94-4.92,23.94Z"/><path class="cls-13" d="M252.62,156.14l15.82,43.1V169.36q0-6.26-.83-8.46c-.75-2-2-2.93-3.81-2.87v-1.89h10.6V158a5.15,5.15,0,0,0-2.73,1.47,6.93,6.93,0,0,0-1.09,2.92,42,42,0,0,0-.39,6.94v57.86h-.8l-21.7-57.86v44.18c0,4,.43,6.69,1.27,8.1s1.81,2.1,2.9,2.1h.76v1.89H241.24v-1.89a3.83,3.83,0,0,0,3.69-2.36q1-2.31,1-7.84v-49l-.69-1.84a12.53,12.53,0,0,0-1.8-3.64,3.19,3.19,0,0,0-2.24-1v-1.89Z"/><path class="cls-13" d="M306.1,156.14V175h-.85a55,55,0,0,0-1.68-9.36,11.85,11.85,0,0,0-2.53-4.53,4.3,4.3,0,0,0-3.15-.92H295.5v53.6a47.06,47.06,0,0,0,.27,6.67,5.48,5.48,0,0,0,1.07,2.33,2.63,2.63,0,0,0,2.16,1h1.07v1.89h-16.8v-1.89h1.07a2.7,2.7,0,0,0,2.24-1.08,5.53,5.53,0,0,0,1-2.46,44,44,0,0,0,.26-6.46v-53.6h-2.32a4.9,4.9,0,0,0-4.7,3q-2.06,4.15-2.6,11.84h-.9V156.14Z"/></g></svg>