<svg xmlns="http://www.w3.org/2000/svg" xmlns:xlink="http://www.w3.org/1999/xlink" id="Layer_1" data-name="Layer 1" viewBox="0 0 1790 576"><defs><style>.cls-1{stroke:#231f20;fill:url(#radial-gradient)}.cls-1,.cls-11,.cls-5{stroke-miterlimit:10}.cls-2{fill:#fff}.cls-3{fill:#323232}.cls-4{fill:#969696}.cls-5{fill:none;stroke:#969696;stroke-width:10px}.cls-6{fill:#343433}.cls-7{fill:#716658}.cls-8{fill:#f5f6f7}.cls-9{fill:#cdcdd3}.cls-10,.cls-11{fill:#747474}.cls-11{stroke:#747474;stroke-width:4.36px}.cls-12{fill:#e6e7e7}.cls-13{fill:#63091e}.cls-14{fill:#bf3473}.cls-15{fill:#f06195}.cls-16{fill:#f388b0}.cls-17{fill:#c0bfbf}.cls-18{fill:#414141}.cls-19{fill:#120d0b}.cls-20{fill:#cdcccc}.cls-21{fill:#366bb4}.cls-22{fill:#646464}</style><radialGradient id="radial-gradient" cx="895" cy="288" r="664.82" gradientTransform="translate(0 144) scale(1 0.5)" gradientUnits="userSpaceOnUse"><stop offset=".05" stop-color="#f03a40"/><stop offset=".63" stop-color="#ed0024"/><stop offset="1" stop-color="#9d0b0f"/></radialGradient></defs><rect width="1790" height="576" class="cls-1"/><path d="M1024.6,309.87q0,15.17-3.88,24.35a51,51,0,0,1-9.14,14.88q-7.46,8.32-20.88,8.33H953.24V258.74h28.85a55.8,55.8,0,0,1,11.14,1,37.44,37.44,0,0,1,8.34,2.71,29.56,29.56,0,0,1,6.31,3.91,35.35,35.35,0,0,1,4.65,4.67,43.61,43.61,0,0,1,6.24,9.75,59.65,59.65,0,0,1,4.26,13A77.48,77.48,0,0,1,1024.6,309.87Zm-21.28-1.29q0-12-3.23-18.76t-7.76-9a20.52,20.52,0,0,0-9.24-2.27h-8.92V337h8.92a20.28,20.28,0,0,0,14.22-5.56Q1003.33,325.89,1003.32,308.58Z" class="cls-2"/><path d="M1058.56,357.43h-20.94V258.74h20.94Z" class="cls-2"/><path d="M1124.61,328.74a35.91,35.91,0,0,1-3.33,16,24.3,24.3,0,0,1-9.29,10.36,26,26,0,0,1-13.67,3.59,38.35,38.35,0,0,1-13.6-2.56,53.63,53.63,0,0,1-10.79-5.27V326.67a71.82,71.82,0,0,0,10.34,7.69,20.77,20.77,0,0,0,10.9,3.06q5.36,0,6.93-2.52a9.1,9.1,0,0,0,1.58-4.74,9.19,9.19,0,0,0-2.71-6.73,36.06,36.06,0,0,0-7.86-5.66,59.31,59.31,0,0,1-10-7.44,30.86,30.86,0,0,1-7-10.08,34.53,34.53,0,0,1-2.73-14.31,36.28,36.28,0,0,1,2.76-14.42,23.21,23.21,0,0,1,8.41-10.29,24,24,0,0,1,13.82-3.84,34.55,34.55,0,0,1,10.74,1.6,37.46,37.46,0,0,1,8.14,3.6,30.21,30.21,0,0,1,4.41,3.13v23.14a56.85,56.85,0,0,0-9.49-7.76,20.1,20.1,0,0,0-11.2-3.42c-2.6,0-4.49.71-5.65,2.14a8,8,0,0,0-1.76,5.27,7.71,7.71,0,0,0,1.76,5.05,30.24,30.24,0,0,0,6.26,5.2,119.55,119.55,0,0,1,12.82,9.61,31.8,31.8,0,0,1,7.53,9.87Q1124.61,320.4,1124.61,328.74Z" class="cls-2"/><path d="M1201,350a43.38,43.38,0,0,1-8.81,5.12,41.52,41.52,0,0,1-9.09,2.74,53.45,53.45,0,0,1-9.49.82,36,36,0,0,1-16.25-3.56,35.24,35.24,0,0,1-12.47-10.5,48.17,48.17,0,0,1-7.91-16.23,74.55,74.55,0,0,1-2.63-20.41,72.54,72.54,0,0,1,3.1-22.32,44.49,44.49,0,0,1,8.69-15.91,35.24,35.24,0,0,1,12.72-9.37,38.31,38.31,0,0,1,15.05-3q11.82,0,26.79,7.47v26.21a69.37,69.37,0,0,0-10.19-7.59,22.59,22.59,0,0,0-11.84-3,20.39,20.39,0,0,0-11.32,3.42,24.42,24.42,0,0,0-8.46,9.75,32.38,32.38,0,0,0-3.21,14.81,33,33,0,0,0,2.81,13.71,24.52,24.52,0,0,0,7.78,9.9,18.54,18.54,0,0,0,11.25,3.66,26.29,26.29,0,0,0,9.56-1.74,36.21,36.21,0,0,0,7.59-3.88A66,66,0,0,0,1201,325Z" class="cls-2"/><path d="M1287.87,308a70,70,0,0,1-4.48,25.43,41.72,41.72,0,0,1-13.34,18.44q-8.86,6.83-21.59,6.83t-21.78-7.12a42.27,42.27,0,0,1-13.25-18.72,73.83,73.83,0,0,1,0-49.74,42,42,0,0,1,13.25-18.66q8.94-7.08,21.81-7.08A35,35,0,0,1,1278,272.45a51.39,51.39,0,0,1,7.36,16.16A73.74,73.74,0,0,1,1287.87,308Zm-21.33,0a41.55,41.55,0,0,0-1.15-10.14,24.58,24.58,0,0,0-3.48-8,17.09,17.09,0,0,0-5.69-5.27,15.62,15.62,0,0,0-7.76-1.88,15.2,15.2,0,0,0-13.22,7q-4.82,7-4.81,18.3t4.83,18.34a16.15,16.15,0,0,0,23,3.77,20,20,0,0,0,6.16-9A38.05,38.05,0,0,0,1266.54,308Z" class="cls-2"/><path d="M1367.25,258.74l-31.3,100h-13.82l-30.7-100h21.78l15.88,57,16.32-57Z" class="cls-2"/><path d="M1429.1,357.43h-52.34V258.74h51.49v19.8H1397.7v18.08h29.14v19.87H1397.7v21.08h31.4Z" class="cls-2"/><path d="M1510.33,357.43h-22.49l-5.46-17.51a84.76,84.76,0,0,0-5.41-14.07q-2.4-4.44-4.68-5.69a12.21,12.21,0,0,0-5.88-1.25h-2.36v38.52h-20.93V258.74h35.61q8.61,0,14.12,5a28.51,28.51,0,0,1,7.94,12.11,41.94,41.94,0,0,1,2.43,13.53,34.74,34.74,0,0,1-2,12.64,23.36,23.36,0,0,1-4.28,7.51,44.44,44.44,0,0,1-5.06,4.49,23.85,23.85,0,0,1,5.53,6.58q2.17,3.81,5.94,15.42Zm-28.45-67.5q0-6.84-3.15-9.54t-10.27-2.71h-4.41v23.78h4.51q7.67,0,10.49-2.38T1481.88,289.93Z" class="cls-2"/><path d="M1584.6,258.74l-27.2,53.48v45.21h-20.93V312.79l-27.69-54.05h21.73l15.93,31.05,16-31.05Z" class="cls-2"/><path d="M1016.17,184q0,12.34-4.44,21.37a32.4,32.4,0,0,1-12.39,13.82A34.68,34.68,0,0,1,981.1,224,51,51,0,0,1,963,220.55a71.37,71.37,0,0,1-14.4-7v-32.3a95.9,95.9,0,0,0,13.8,10.26,27.7,27.7,0,0,0,14.53,4.09q7.14,0,9.25-3.38a12,12,0,0,0,2.1-6.31,12.31,12.31,0,0,0-3.6-9,48.93,48.93,0,0,0-10.49-7.55,79,79,0,0,1-13.36-9.92A41.5,41.5,0,0,1,951.41,146a46.24,46.24,0,0,1-3.64-19.09,48.53,48.53,0,0,1,3.68-19.24A31,31,0,0,1,962.67,94q7.55-5.13,18.43-5.13A46.25,46.25,0,0,1,995.43,91a49.24,49.24,0,0,1,10.86,4.8,40.72,40.72,0,0,1,5.88,4.17V130.8a75.81,75.81,0,0,0-12.66-10.35,26.83,26.83,0,0,0-14.93-4.56c-3.48,0-6,1-7.55,2.85a10.71,10.71,0,0,0-2.34,7,10.28,10.28,0,0,0,2.34,6.74,41.06,41.06,0,0,0,8.35,6.93,158.85,158.85,0,0,1,17.1,12.83,42.13,42.13,0,0,1,10,13.15Q1016.18,172.88,1016.17,184Z" class="cls-2"/><path d="M1132.94,222.26h-27.86V170.88h-42v51.38h-27.93V90.63h27.93V139h42V90.63h27.86Z" class="cls-2"/><path d="M1257.85,222.26h-28.59l-7.55-26.68H1181.5l-7.68,26.68h-28.59l40.94-131.63H1217Zm-42.55-49.57-13.56-48.06L1188,172.69Z" class="cls-2"/><path d="M1412.28,90.63,1372.21,224H1356l-24-77.59L1307.34,224h-16.29L1251.77,90.63h28.92l19.24,72.94,22-72.94h20l21.64,72.94,20.1-72.94Z" class="cls-2"/><path d="M1453.16,222.26h-27.92V90.63h27.92Z" class="cls-2"/><path d="M1501.19,118.74a51,51,0,0,1-1.77,13.06,45.63,45.63,0,0,1-5.54,12.68,35.71,35.71,0,0,1-9.89,10.26,37.18,37.18,0,0,1-14.26,5.88v-6.07q10.49-5.61,10.49-25.17v-2q-10.5-4.27-10.49-18.71a25.54,25.54,0,0,1,1.87-9.73,18.49,18.49,0,0,1,5.14-7.36,10.94,10.94,0,0,1,7.22-2.76,12.24,12.24,0,0,1,9.58,4.47,28.05,28.05,0,0,1,5.78,11.39A53.67,53.67,0,0,1,1501.19,118.74Z" class="cls-2"/><path d="M1582.55,184q0,12.34-4.44,21.37a32.4,32.4,0,0,1-12.39,13.82,34.68,34.68,0,0,1-18.24,4.79,50.87,50.87,0,0,1-18.13-3.42,71.37,71.37,0,0,1-14.4-7v-32.3a95.36,95.36,0,0,0,13.8,10.26,27.67,27.67,0,0,0,14.52,4.09q7.15,0,9.26-3.38a12,12,0,0,0,2.1-6.31,12.28,12.28,0,0,0-3.61-9,48.58,48.58,0,0,0-10.48-7.55,79,79,0,0,1-13.36-9.92,41.35,41.35,0,0,1-9.39-13.44,46.08,46.08,0,0,1-3.64-19.09,48.53,48.53,0,0,1,3.67-19.24A30.92,30.92,0,0,1,1529.05,94q7.54-5.13,18.43-5.13A46.29,46.29,0,0,1,1561.81,91a49.45,49.45,0,0,1,10.86,4.8,41.06,41.06,0,0,1,5.87,4.17V130.8a75,75,0,0,0-12.66-10.35,26.77,26.77,0,0,0-14.92-4.56c-3.48,0-6,1-7.55,2.85a10.71,10.71,0,0,0-2.34,7,10.28,10.28,0,0,0,2.34,6.74,41.06,41.06,0,0,0,8.35,6.93,159.86,159.86,0,0,1,17.1,12.83,42.44,42.44,0,0,1,10.05,13.15Q1582.55,172.88,1582.55,184Z" class="cls-2"/><path d="M1177.4,485.9h-70.47l35.91-75.13h-32.95V387.21h67.51l-35.81,75.05h35.81Z" class="cls-2"/><path d="M1262.73,436.48a70,70,0,0,1-4.48,25.42,41.54,41.54,0,0,1-13.35,18.44q-8.85,6.84-21.58,6.84t-21.78-7.12a42.3,42.3,0,0,1-13.25-18.73,73.83,73.83,0,0,1,0-49.74,41.82,41.82,0,0,1,13.25-18.65q8.94-7.1,21.81-7.09a35,35,0,0,1,29.55,15.06,51.67,51.67,0,0,1,7.36,16.17A73.63,73.63,0,0,1,1262.73,436.48Zm-21.33,0a42.13,42.13,0,0,0-1.15-10.15,24.43,24.43,0,0,0-3.48-8,17,17,0,0,0-5.69-5.27,15.54,15.54,0,0,0-7.76-1.89,15.21,15.21,0,0,0-13.22,7q-4.81,7-4.81,18.3t4.83,18.34a16.15,16.15,0,0,0,23,3.77,20,20,0,0,0,6.16-9A38.05,38.05,0,0,0,1241.4,436.48Z" class="cls-2"/><path d="M1349.67,485.9H1331l-36-55v55H1274.3V387.21h18.58l35.91,54.68V387.21h20.88Z" class="cls-2"/><path d="M1419.43,485.9H1367.1V387.21h51.48V407H1388v18.09h29.15V445H1388V466h31.4Z" class="cls-2"/><path d="M990.7,359.43H951.24V256.74h30.85a58.41,58.41,0,0,1,11.55,1,39.49,39.49,0,0,1,8.78,2.86,31.51,31.51,0,0,1,6.74,4.19,37.56,37.56,0,0,1,4.92,4.93,45.74,45.74,0,0,1,6.49,10.16,60.93,60.93,0,0,1,4.41,13.48,79.29,79.29,0,0,1,1.62,16.51c0,10.33-1.36,18.78-4,25.13a53,53,0,0,1-9.51,15.46C1007.72,356.4,1000.2,359.43,990.7,359.43Zm-35.46-4H990.7c8.43,0,14.77-2.51,19.39-7.66a49.4,49.4,0,0,0,8.79-14.33c2.47-5.85,3.72-13.78,3.72-23.57a75.48,75.48,0,0,0-1.53-15.68A57.42,57.42,0,0,0,1017,281.6a42,42,0,0,0-5.94-9.31,33.63,33.63,0,0,0-4.42-4.43,27.31,27.31,0,0,0-5.89-3.64,35.63,35.63,0,0,0-7.89-2.56,53.94,53.94,0,0,0-10.73-.92H955.24ZM983.09,339H972.17V276.54h10.92A22.35,22.35,0,0,1,993.22,279c3.42,1.71,6.33,5.05,8.67,9.93s3.43,11.34,3.43,19.62c0,12.24-2.18,20.19-6.65,24.33A22.28,22.28,0,0,1,983.09,339Zm-6.92-4h6.92A18.15,18.15,0,0,0,996,330c3.56-3.29,5.37-10.48,5.37-21.39,0-7.68-1-13.7-3-17.89s-4.26-6.78-6.86-8.09a18.51,18.51,0,0,0-8.34-2.06h-6.92Z"/><path d="M1060.56,359.43h-24.94V256.74h24.94Zm-20.94-4h16.94V260.74h-16.94Z"/><path d="M1098.32,360.71a45.74,45.74,0,0,1-5.53-.4,45.11,45.11,0,0,1-8.72-2.27,56,56,0,0,1-11.19-5.46l-1-.59V322.25l3.32,2.92a70.71,70.71,0,0,0,10.06,7.48,18.85,18.85,0,0,0,9.86,2.77c1.93,0,4.42-.27,5.24-1.58a6.92,6.92,0,0,0-.86-9,34.94,34.94,0,0,0-7.42-5.32,61.61,61.61,0,0,1-10.4-7.72,33.13,33.13,0,0,1-7.49-10.71,36.71,36.71,0,0,1-2.91-15.14,38.36,38.36,0,0,1,2.92-15.2,25.19,25.19,0,0,1,9.13-11.16,26.07,26.07,0,0,1,14.94-4.19,36.7,36.7,0,0,1,11.36,1.7,39.37,39.37,0,0,1,8.58,3.8,31,31,0,0,1,4.72,3.38l.63.59v28.9l-3.43-3.5a55.11,55.11,0,0,0-9.16-7.49,18.21,18.21,0,0,0-10.1-3.09c-2,0-3.34.47-4.11,1.41a6.05,6.05,0,0,0-1.3,4,5.73,5.73,0,0,0,1.3,3.78,29.48,29.48,0,0,0,5.84,4.82,120.49,120.49,0,0,1,13,9.77,34,34,0,0,1,8,10.48c2,4,2.93,9,2.93,14.8a38.09,38.09,0,0,1-3.53,16.9,26.45,26.45,0,0,1-10,11.19A28,28,0,0,1,1098.32,360.71Zm-22.39-10.95a50.76,50.76,0,0,0,9.44,4.5,42.81,42.81,0,0,0,7.92,2.08,41.68,41.68,0,0,0,5,.37A24.05,24.05,0,0,0,1111,353.4a22.4,22.4,0,0,0,8.53-9.53,34.12,34.12,0,0,0,3.12-15.13,27.2,27.2,0,0,0-9.59-22.29,119.08,119.08,0,0,0-12.6-9.45,32,32,0,0,1-6.7-5.59,9.66,9.66,0,0,1-2.21-6.32,10,10,0,0,1,2.21-6.54c1.56-1.9,4-2.87,7.2-2.87a22.17,22.17,0,0,1,12.29,3.74,62.25,62.25,0,0,1,6.4,4.82v-17.6a38.61,38.61,0,0,0-3.47-2.36,35.8,35.8,0,0,0-7.7-3.39,32.69,32.69,0,0,0-10.12-1.5,22.12,22.12,0,0,0-12.7,3.5,21.34,21.34,0,0,0-7.7,9.42,34.5,34.5,0,0,0-2.59,13.63,32.8,32.8,0,0,0,2.55,13.49,29.35,29.35,0,0,0,6.58,9.44,56.85,56.85,0,0,0,9.68,7.18,38.16,38.16,0,0,1,8.26,6,11.16,11.16,0,0,1,3.28,8.13,11,11,0,0,1-1.88,5.8c-1.44,2.3-4.34,3.46-8.63,3.46a22.75,22.75,0,0,1-11.93-3.35,67.69,67.69,0,0,1-7.31-5.11Z"/><path d="M1173.59,360.71a38.26,38.26,0,0,1-17.14-3.76,37.43,37.43,0,0,1-13.17-11.09A50.37,50.37,0,0,1,1135,329a77.28,77.28,0,0,1-2.7-20.95,75,75,0,0,1,3.2-22.94,46.83,46.83,0,0,1,9.09-16.61,37.31,37.31,0,0,1,13.44-9.89,40.36,40.36,0,0,1,15.83-3.18c8.16,0,17.47,2.58,27.69,7.69l1.1.55V295.5l-3.32-2.93a68.61,68.61,0,0,0-9.9-7.37,20.65,20.65,0,0,0-10.81-2.74,18.53,18.53,0,0,0-10.23,3.09,22.75,22.75,0,0,0-7.77,9,30.69,30.69,0,0,0-3,13.91,31.23,31.23,0,0,0,2.63,12.89,22.58,22.58,0,0,0,7.15,9.11,16.42,16.42,0,0,0,10.06,3.27,24.33,24.33,0,0,0,8.84-1.61,35.13,35.13,0,0,0,7.17-3.65,64,64,0,0,0,6.14-4.91l3.33-3V351l-.8.6A45.28,45.28,0,0,1,1193,357a43.51,43.51,0,0,1-9.53,2.87A55.59,55.59,0,0,1,1173.59,360.71Zm.3-101.32a36.4,36.4,0,0,0-14.27,2.86,33.52,33.52,0,0,0-12,8.85,42.78,42.78,0,0,0-8.29,15.21,71,71,0,0,0-3,21.7,73.31,73.31,0,0,0,2.55,19.86,46.5,46.5,0,0,0,7.58,15.57,33.47,33.47,0,0,0,11.77,9.92,34.36,34.36,0,0,0,15.36,3.35,52.42,52.42,0,0,0,9.14-.78,40.32,40.32,0,0,0,8.66-2.62A40.85,40.85,0,0,0,1199,349V329.35c-1.07.86-2.14,1.65-3.19,2.38a38.31,38.31,0,0,1-8,4.1,28.29,28.29,0,0,1-10.28,1.88,20.53,20.53,0,0,1-12.43-4,26.59,26.59,0,0,1-8.43-10.69,35.25,35.25,0,0,1-3-14.53,34.52,34.52,0,0,1,3.42-15.71,26.52,26.52,0,0,1,9.16-10.53,22.46,22.46,0,0,1,12.41-3.74,24.56,24.56,0,0,1,12.87,3.31,67.27,67.27,0,0,1,7.16,5V266.11C1189.47,261.65,1181.13,259.39,1173.89,259.39Z"/><path d="M1248.46,360.71c-9,0-16.75-2.54-23-7.55a44.51,44.51,0,0,1-13.87-19.6,75.74,75.74,0,0,1,0-51.13,44,44,0,0,1,13.88-19.52c6.29-5,14-7.52,23-7.52a37,37,0,0,1,31.19,15.91,53.83,53.83,0,0,1,7.65,16.79,76,76,0,0,1,2.57,19.92,72.43,72.43,0,0,1-4.61,26.15,43.82,43.82,0,0,1-14,19.3C1265,358.27,1257.35,360.71,1248.46,360.71Zm0-101.32c-8.08,0-15,2.24-20.57,6.65a40.09,40.09,0,0,0-12.61,17.79,71.81,71.81,0,0,0,0,48.34A40.58,40.58,0,0,0,1227.92,350c5.55,4.43,12.46,6.68,20.54,6.68s14.84-2.16,20.36-6.42a39.86,39.86,0,0,0,12.71-17.58,68.43,68.43,0,0,0,4.34-24.7,72.23,72.23,0,0,0-2.43-18.87,49.72,49.72,0,0,0-7.07-15.55,33,33,0,0,0-27.91-14.2Zm0,76a17.17,17.17,0,0,1-14.84-7.87c-3.44-5-5.19-11.55-5.19-19.48s1.74-14.46,5.16-19.43a17.19,17.19,0,0,1,14.87-7.84,17.63,17.63,0,0,1,8.74,2.14,18.92,18.92,0,0,1,6.35,5.88,26.43,26.43,0,0,1,3.78,8.62,44.15,44.15,0,0,1,1.21,10.63,40,40,0,0,1-2.23,13.83,22,22,0,0,1-6.79,9.85A17.22,17.22,0,0,1,1248.46,335.36Zm0-50.62a13.21,13.21,0,0,0-11.57,6.11c-3,4.29-4.46,10.07-4.46,17.16s1.51,12.89,4.48,17.21a14.16,14.16,0,0,0,20.12,3.34,18.1,18.1,0,0,0,5.53-8.1,36.3,36.3,0,0,0,2-12.45,40.15,40.15,0,0,0-1.09-9.66,22.53,22.53,0,0,0-3.19-7.32,15,15,0,0,0-5-4.66A13.66,13.66,0,0,0,1248.46,284.74Z"/><path d="M1337.42,360.71h-16.77l-31.93-104h26l14.39,51.61,14.79-51.61H1370Zm-13.81-4h10.87l30-96h-17.61l-17.86,62.32-17.37-62.32h-17.56Z"/><path d="M1431.1,359.43h-56.34V256.74h55.49v23.8H1399.7v14.08h29.14v23.87H1399.7v17.08h31.4Zm-52.34-4h48.34V339.57h-31.4V314.49h29.14V298.62H1395.7V276.54h30.55v-15.8h-47.49Z"/><path d="M1513.09,359.43h-26.72l-5.9-18.92a83.39,83.39,0,0,0-5.26-13.71c-1.75-3.25-3.08-4.45-3.88-4.89a10.37,10.37,0,0,0-4.92-1h-.36v38.52h-24.93V256.74h37.61c6.22,0,11.43,1.85,15.46,5.5a30.52,30.52,0,0,1,8.49,12.94,44.26,44.26,0,0,1,2.54,14.18,36.75,36.75,0,0,1-2.17,13.37,24.86,24.86,0,0,1-4.7,8.16,42.19,42.19,0,0,1-3.43,3.2,26.27,26.27,0,0,1,4.2,5.5c1.53,2.69,3.53,7.85,6.1,15.79Zm-23.78-4h18.26l-6.15-18.81c-2.46-7.57-4.4-12.63-5.77-15a22.06,22.06,0,0,0-5.08-6l-1.94-1.61,2-1.52a43,43,0,0,0,4.82-4.28,21.59,21.59,0,0,0,3.87-6.86,33,33,0,0,0,1.89-11.91,40.13,40.13,0,0,0-2.33-12.88,26.59,26.59,0,0,0-7.38-11.27c-3.33-3-7.51-4.47-12.78-4.47h-33.61v94.69h16.93V316.91h4.36a14.19,14.19,0,0,1,6.84,1.49c1.88,1,3.68,3.16,5.48,6.5a86.5,86.5,0,0,1,5.56,14.42Zm-20.75-52h-6.51V275.68h6.41c5.28,0,9.07,1,11.57,3.19s3.85,5.91,3.85,11.06-1.16,8.67-3.54,10.68S1474.21,303.46,1468.56,303.46Zm-2.51-4h2.51c5.73,0,8.17-1,9.2-1.91,1.39-1.17,2.12-3.8,2.12-7.62s-.82-6.63-2.46-8-4.73-2.22-9-2.22h-2.41Z"/><path d="M1559.4,359.43h-24.93V313.27l-29-56.53h26.23l14.71,28.67,14.75-28.67h26.67l-28.46,56Zm-20.93-4h16.93V311.74l25.93-51h-17.7l-17.2,33.42-17.14-33.42h-17.24l26.42,51.56Z"/><path d="M981.1,226a52.78,52.78,0,0,1-18.78-3.52,73.86,73.86,0,0,1-14.8-7.23l-.95-.58V176.81l3.33,2.92a94.12,94.12,0,0,0,13.5,10.05,25.82,25.82,0,0,0,13.5,3.8c2.75,0,6.3-.43,7.55-2.43a9.88,9.88,0,0,0-1.23-12.83,46.36,46.36,0,0,0-10.05-7.22,81.32,81.32,0,0,1-13.74-10.2,43.71,43.71,0,0,1-9.84-14.08,48.3,48.3,0,0,1-3.82-19.91,50.58,50.58,0,0,1,3.84-20A33,33,0,0,1,961.54,92.3c5.35-3.64,11.93-5.48,19.56-5.48a48.15,48.15,0,0,1,14.95,2.24,52,52,0,0,1,11.29,5,42.46,42.46,0,0,1,6.2,4.42l.63.59V135.7l-3.43-3.5a74.16,74.16,0,0,0-12.33-10.08,24.94,24.94,0,0,0-13.83-4.23c-2.87,0-4.83.69-6,2.12a8.69,8.69,0,0,0-1.89,5.76,8.25,8.25,0,0,0,1.89,5.47,39.21,39.21,0,0,0,7.92,6.55,161.2,161.2,0,0,1,17.31,13,44.59,44.59,0,0,1,10.52,13.77c2.55,5.23,3.84,11.77,3.84,19.45,0,8.5-1.56,16-4.64,22.25a34.45,34.45,0,0,1-13.16,14.65A36.74,36.74,0,0,1,981.1,226Zm-30.53-13.56a68.38,68.38,0,0,0,13,6.25,57.15,57.15,0,0,0,10.69,2.81,58,58,0,0,0,6.79.5,32.73,32.73,0,0,0,17.21-4.51,30.57,30.57,0,0,0,11.63-13c2.81-5.71,4.23-12.6,4.23-20.48,0-7.07-1.15-13-3.43-17.69a40.63,40.63,0,0,0-9.59-12.54,157.2,157.2,0,0,0-16.88-12.65c-4.22-2.87-7.09-5.26-8.79-7.33a12.3,12.3,0,0,1-2.79-8,12.73,12.73,0,0,1,2.79-8.3c1.95-2.37,5-3.58,9.1-3.58a28.89,28.89,0,0,1,16,4.88,78.55,78.55,0,0,1,9.57,7.35V100.84a51.33,51.33,0,0,0-4.94-3.39,48.38,48.38,0,0,0-10.41-4.59,44.55,44.55,0,0,0-13.72-2c-6.81,0-12.64,1.61-17.31,4.79a29,29,0,0,0-10.5,12.85,46.58,46.58,0,0,0-3.52,18.45,44.34,44.34,0,0,0,3.47,18.27,39.66,39.66,0,0,0,8.92,12.8,77.49,77.49,0,0,0,13,9.67,50.1,50.1,0,0,1,10.88,7.86,14.28,14.28,0,0,1,4.18,10.38,14,14,0,0,1-2.41,7.37c-1.78,2.86-5.46,4.32-10.94,4.32a29.75,29.75,0,0,1-15.56-4.38,91.62,91.62,0,0,1-10.77-7.65Z"/><path d="M1134.94,224.26h-31.86V172.88h-38v51.38h-31.93V88.63h31.93V137h38V88.63h31.86Zm-27.86-4h23.86V92.63h-23.86V141h-46V92.63h-23.93V220.26h23.93V168.88h46Z"/><path d="M1260.56,224.26h-32.81l-7.55-26.68H1183l-7.68,26.68h-32.81L1184.7,88.63h33.81Zm-29.79-4h24.36L1215.56,92.63h-27.91l-39.71,127.63h24.37l7.68-26.68h43.23Zm-12.83-45.57h-32.55l16.36-57.39Zm-27.25-4h22L1201.73,132Z"/><path d="M1373.69,226h-19.12L1332,153.06,1308.81,226h-19.26L1249.1,88.63h33.13l17.83,67.59,20.43-67.59h23l20.08,67.67,18.65-67.67H1415Zm-16.18-4h13.21l38.87-129.34h-24.37l-21.56,78.21-23.21-78.21h-17l-23.66,78.29-20.65-78.29h-24.71L1292.54,222h13.34L1332,139.7Z"/><path d="M1455.16,224.26h-31.92V88.63h31.92Zm-27.92-4h23.92V92.63h-23.92Z"/><path d="M1467.73,163.06v-9.71l1.06-.57c6.25-3.34,9.43-11.22,9.43-23.4v-.7c-7-3.39-10.49-10.11-10.49-20a27.66,27.66,0,0,1,2-10.48,20.45,20.45,0,0,1,5.71-8.14,12.94,12.94,0,0,1,8.5-3.23A14.22,14.22,0,0,1,1495.05,92a30.29,30.29,0,0,1,6.2,12.19,56,56,0,0,1,1.94,14.58,53.2,53.2,0,0,1-1.84,13.57,47.42,47.42,0,0,1-5.78,13.23,38,38,0,0,1-10.43,10.84,39.53,39.53,0,0,1-15,6.21Zm4-7.36v2.42a34.56,34.56,0,0,0,11.11-5,33.89,33.89,0,0,0,9.35-9.69,44.08,44.08,0,0,0,5.3-12.12,49.28,49.28,0,0,0,1.7-12.55,52.3,52.3,0,0,0-1.8-13.54A26.29,26.29,0,0,0,1492,94.6a10.27,10.27,0,0,0-8.08-3.78,8.94,8.94,0,0,0-5.93,2.29,16.59,16.59,0,0,0-4.58,6.58,23.84,23.84,0,0,0-1.72,9c0,8.81,3,14.33,9.24,16.86l1.25.51v3.34C1482.22,142.51,1478.69,151.35,1471.73,155.7Z"/><path d="M1547.48,226a62.09,62.09,0,0,1-7.29-.53,60.25,60.25,0,0,1-11.49-3,73.86,73.86,0,0,1-14.8-7.23l-1-.58V176.81l3.32,2.92a94.74,94.74,0,0,0,13.51,10.05,25.81,25.81,0,0,0,13.49,3.8c2.76,0,6.31-.43,7.56-2.43a9.88,9.88,0,0,0-1.23-12.83,46.7,46.7,0,0,0-10-7.22,81.05,81.05,0,0,1-13.74-10.2,43.4,43.4,0,0,1-9.84-14.08,48.14,48.14,0,0,1-3.82-19.91,50.58,50.58,0,0,1,3.84-20,33,33,0,0,1,11.93-14.59c5.35-3.64,11.93-5.48,19.56-5.48a48.2,48.2,0,0,1,15,2.24,52,52,0,0,1,11.29,5,42.46,42.46,0,0,1,6.2,4.42l.62.59V135.7l-3.43-3.5a73.68,73.68,0,0,0-12.32-10.08,25,25,0,0,0-13.83-4.23c-2.83,0-4.85.71-6,2.12a8.74,8.74,0,0,0-1.88,5.76,8.3,8.3,0,0,0,1.88,5.47,39.34,39.34,0,0,0,7.93,6.55,163.26,163.26,0,0,1,17.31,13,44.78,44.78,0,0,1,10.52,13.77c2.55,5.23,3.84,11.77,3.84,19.45,0,8.5-1.56,16-4.65,22.25a34.43,34.43,0,0,1-13.15,14.65A36.77,36.77,0,0,1,1547.48,226ZM1517,212.41a68.38,68.38,0,0,0,13,6.25,57.28,57.28,0,0,0,10.68,2.81,58.19,58.19,0,0,0,6.8.5,32.7,32.7,0,0,0,17.2-4.51,30.5,30.5,0,0,0,11.63-13c2.81-5.7,4.24-12.6,4.24-20.48,0-7.07-1.16-13-3.44-17.69a40.59,40.59,0,0,0-9.58-12.54,157.89,157.89,0,0,0-16.88-12.65c-4.22-2.87-7.09-5.26-8.79-7.33a12.3,12.3,0,0,1-2.79-8,12.73,12.73,0,0,1,2.79-8.3c2-2.37,5-3.58,9.1-3.58a28.94,28.94,0,0,1,16,4.88,77.68,77.68,0,0,1,9.56,7.35V100.84a50.92,50.92,0,0,0-4.93-3.39,48.48,48.48,0,0,0-10.42-4.59,44.44,44.44,0,0,0-13.71-2c-6.81,0-12.64,1.61-17.31,4.79a29.09,29.09,0,0,0-10.51,12.85,46.72,46.72,0,0,0-3.51,18.45,44.51,44.51,0,0,0,3.46,18.27,39.68,39.68,0,0,0,8.93,12.8,77.81,77.81,0,0,0,13,9.67,49.94,49.94,0,0,1,10.89,7.86,14.3,14.3,0,0,1,4.18,10.38,14,14,0,0,1-2.41,7.37c-1.78,2.86-5.47,4.32-11,4.32a29.8,29.8,0,0,1-15.56-4.38,92.38,92.38,0,0,1-10.76-7.65Z"/><path d="M1179.4,487.9h-75.64l35.91-75.13h-31.78V385.21h72.68l-35.81,75.05h34.64Zm-69.29-4h65.29V464.26h-37l35.81-75.05h-62.34v19.56H1146Z"/><path d="M1223.32,489.18c-9,0-16.76-2.55-23-7.56A44.42,44.42,0,0,1,1186.42,462a75.74,75.74,0,0,1,0-51.13,43.94,43.94,0,0,1,13.88-19.53c6.29-5,14-7.52,23-7.52a37,37,0,0,1,31.19,15.92,53.67,53.67,0,0,1,7.65,16.78,76,76,0,0,1,2.57,19.93,72.37,72.37,0,0,1-4.61,26.14,43.85,43.85,0,0,1-14,19.31C1239.89,486.74,1232.21,489.18,1223.32,489.18Zm0-101.33c-8.08,0-15,2.24-20.57,6.65a40.14,40.14,0,0,0-12.61,17.79,71.81,71.81,0,0,0,0,48.34,40.67,40.67,0,0,0,12.62,17.87c5.55,4.43,12.46,6.68,20.54,6.68s14.84-2.16,20.36-6.42a39.77,39.77,0,0,0,12.7-17.58,68.22,68.22,0,0,0,4.35-24.7,72.31,72.31,0,0,0-2.43-18.88,49.76,49.76,0,0,0-7.07-15.54,33,33,0,0,0-27.91-14.21Zm0,76a17.15,17.15,0,0,1-14.84-7.88c-3.44-5-5.19-11.54-5.19-19.47S1205,422,1208.45,417a17.19,17.19,0,0,1,14.87-7.84,17.53,17.53,0,0,1,8.74,2.15,19,19,0,0,1,6.35,5.87,26.8,26.8,0,0,1,3.78,8.63,44,44,0,0,1,1.21,10.63,40.12,40.12,0,0,1-2.23,13.83,22,22,0,0,1-6.79,9.84A17.23,17.23,0,0,1,1223.32,463.83Zm0-50.63a13.21,13.21,0,0,0-11.57,6.11c-3,4.3-4.46,10.07-4.46,17.17s1.51,12.89,4.48,17.2a14.15,14.15,0,0,0,20.12,3.35,18.15,18.15,0,0,0,5.53-8.1,36.3,36.3,0,0,0,2-12.45,40.15,40.15,0,0,0-1.09-9.66,22.59,22.59,0,0,0-3.19-7.33,15,15,0,0,0-5-4.66A13.69,13.69,0,0,0,1223.32,413.2Z"/><path d="M1351.67,487.9H1330L1297,437.63V487.9H1272.3V385.21H1294l32.83,50v-50h24.88Zm-19.55-4h15.55V389.21h-16.88v59.37l-39-59.37h-15.5V483.9H1293V424.22Z"/><path d="M1421.43,487.9H1365.1V385.21h55.48V409H1390v14.09h29.15V447H1390V464h31.4Zm-52.33-4h48.33V468H1386V443h29.15V427.09H1386V405h30.55V389.21H1369.1Z"/><rect width="148.89" height="576" class="cls-3"/><polygon points="74.44 144 38.44 72 74.44 0 110.44 72 74.44 144" class="cls-4"/><polygon points="74.44 288 38.44 216 74.44 144 110.44 216 74.44 288" class="cls-4"/><polygon points="74.44 432 38.44 360 74.44 288 110.44 360 74.44 432" class="cls-4"/><polygon points="74.44 576 38.44 504 74.44 432 110.44 504 74.44 576" class="cls-4"/><line x1="125.96" x2="125.96" y2="576" class="cls-5"/><line x1="24.09" x2="24.09" y2="576" class="cls-5"/><rect width="148.89" height="576" x="1641.11" class="cls-3"/><polygon points="1715.56 144 1679.56 72 1715.56 0 1751.56 72 1715.56 144" class="cls-4"/><polygon points="1715.56 288 1679.56 216 1715.56 144 1751.56 216 1715.56 288" class="cls-4"/><polygon points="1715.56 432 1679.56 360 1715.56 288 1751.56 360 1715.56 432" class="cls-4"/><polygon points="1715.56 576 1679.56 504 1715.56 432 1751.56 504 1715.56 576" class="cls-4"/><line x1="1767.07" x2="1767.07" y2="576" class="cls-5"/><line x1="1665.21" x2="1665.21" y2="576" class="cls-5"/><g id="Shawi"><g id="Head"><path d="M471.1,131.4c-19.11-5.34-83-31.05-101.61-42.41-5.42-3.31-14.22-10.22-24.41-18.22C319,50.28,286.53,24.82,269.82,25.86c-23.06,1.48-42.89,28.51-46.94,47.24-3.6,16.58-5.19,54.88,5.83,87,10.14,29.62,21.64,45.87,36.19,66.45l2.7,3.83c16.28,23.09,26.73,38.76,36,68.55a6.59,6.59,0,0,0,6.78,4.86,11.74,11.74,0,0,0,1.29-.08c7.46-.82,20.45-9.11,38.63-24.62,15.44-13.17,34.46-31.51,53.55-51.64,33.15-35,69.31-78.33,70.34-91C474.41,133.9,473.25,132,471.1,131.4Z" class="cls-6"/><path d="M470.51,133.5c-19.59-5.48-83.29-31.12-102.16-42.65S292.43,26.59,270,28s-41.21,28.24-45,45.53-4.89,54.75,5.77,85.87,22.76,47.26,38.61,69.74,26.8,38.61,36.31,69.15S490.11,139,470.51,133.5Z" class="cls-7"/><path d="M369.18,175.31l-.41-1.36C357.62,136.3,352,117.4,326,87.37,287.8,45.43,268.71,44.68,250.3,57.06c-18.08,12.15-18.91,61.41-14.45,79.83,4.61,19,25.46,53.54,44.62,73.89,18,19.15,32.52,62.15,32.66,62.59l1.08,3.23,2.48-2.34A281.64,281.64,0,0,0,346.62,240C365.88,213.76,373.47,192,369.18,175.31Z" class="cls-6"/><path d="M367.07,175.86c-11.53-38.9-16.72-57.06-42.65-87-38.61-42.36-56.19-41.2-72.91-30s-18.15,58.5-13.54,77.52,25.5,53.16,44.09,72.9,33.14,63.4,33.14,63.4S377,214.47,367.07,175.86Z" class="cls-8"/><path d="M251.51,58.86c-10.91,7.34-15.31,30-15.77,50.21,2.54-10.58,8.64-23.95,23.27-28.88,22.12-5.38,51.34,8.88,76.06,21.83-3.12-4.19-6.64-8.55-10.65-13.19C285.81,46.47,268.23,47.63,251.51,58.86Z" class="cls-9"/><path d="M262.85,81.44c5.44,18.83,14.77,32.84,32,42.59l3,1.75-3.06,1.49c-5.08,2.45-10.87,1.87-16.11.26l2.31-3.14c12.85,15.12,29.38,26.73,46.26,37l-4.46,1.13c-3.77.86-7.41.56-11.18.5-3.58-.14-7.11-.42-10.67-.76l1.1-3c6.29,4.77,11.58,10.4,17.55,15.42s12.23,9.64,19.91,11.1a30.12,30.12,0,0,1-11.22-3.25c-10.49-5.16-18.73-13.93-28.16-20.56l-4.9-3.35c5.26.3,11.25.65,16.48.69,3.27,0,6.79.12,9.93-.61l-.43,3.64a169.34,169.34,0,0,1-38.77-30,137.74,137.74,0,0,1-8.91-10.91c5,1.8,11.14,4.46,16.58,3.51a11.85,11.85,0,0,0,3-.91l-.11,3.24c-1-.62-3.54-2.35-4.46-3-14.85-10.71-22.65-25-25.73-42.81Z" class="cls-10"/><path d="M573.16,131.4c19.11-5.34,83-31.05,101.61-42.41,5.42-3.31,14.22-10.22,24.41-18.22,26.08-20.49,58.55-45.95,75.26-44.91,23.06,1.48,42.88,28.51,46.94,47.24,3.59,16.58,5.19,54.88-5.83,87-10.15,29.62-21.64,45.87-36.19,66.45l-2.7,3.83c-16.29,23.09-26.74,38.76-36,68.55a6.6,6.6,0,0,1-6.78,4.86,11.74,11.74,0,0,1-1.29-.08c-7.46-.82-20.46-9.11-38.64-24.62C678.5,266,659.49,247.62,640.4,227.49c-33.16-35-69.31-78.33-70.34-91C569.85,133.9,571,132,573.16,131.4Z" class="cls-6"/><path d="M573.74,133.5C593.34,128,657,102.38,675.9,90.85S751.82,26.59,774.3,28s41.21,28.24,45,45.53,4.9,54.75-5.76,85.87-22.77,47.26-38.61,69.74-26.8,38.61-36.31,69.15S554.15,139,573.74,133.5Z" class="cls-7"/><path d="M675.08,175.31l.4-1.36c11.16-37.65,16.76-56.55,42.75-86.58C756.46,45.43,775.55,44.68,794,57.06c18.08,12.15,18.91,61.41,14.44,79.83-4.61,19-25.46,53.54-44.62,73.89-18,19.15-32.51,62.15-32.66,62.59l-1.07,3.23-2.49-2.34A282.07,282.07,0,0,1,697.64,240C678.38,213.76,670.79,192,675.08,175.31Z" class="cls-6"/><path d="M677.19,175.86c11.53-38.9,16.71-57.06,42.65-87,38.61-42.36,56.19-41.2,72.9-30s18.15,58.5,13.54,77.52-25.5,53.16-44.08,72.9-33.14,63.4-33.14,63.4S667.25,214.47,677.19,175.86Z" class="cls-8"/><path d="M700.46,127.16c6.34-14.41,52.45-63.11,73.77-59.36,13.86,2.43,26.38,23.77,34.31,46.38.22-21.28-3.95-47.35-15.8-55.32-16.71-11.23-34.29-12.39-72.9,30-25.94,30-31.12,48.13-42.65,87-1.75,6.79-1.27,14.19.69,21.77C684.1,174.64,695.89,137.55,700.46,127.16Z" class="cls-9"/><path d="M781.41,81.44c-3.09,17.83-10.88,32.11-25.73,42.81l-4.46,3-.11-3.24a11.89,11.89,0,0,0,3,.91c5.43,1,11.59-1.72,16.59-3.52a136.91,136.91,0,0,1-8.91,10.92,169.56,169.56,0,0,1-38.77,30l-.43-3.64c3.14.73,6.66.59,9.92.61,5.22,0,11.23-.38,16.48-.69l-4.89,3.35c-9.43,6.63-17.67,15.4-28.17,20.56a30.07,30.07,0,0,1-11.21,3.25c7.67-1.46,14.06-6.17,19.9-11.1s11.26-10.65,17.56-15.42l1.09,3c-3.56.34-7.09.62-10.66.76-3.78.06-7.41.35-11.19-.5L717,161.37c9.14-5.61,18.25-11.43,26.57-18.19a157.71,157.71,0,0,0,15.21-13.78c1.55-1.64,3.14-3.35,4.49-5l2.31,3.14c-5.24,1.6-11,2.19-16.12-.26l-3.06-1.49,3-1.75c17.27-9.73,26.64-23.79,32.06-42.59Z" class="cls-10"/><path d="M821,338c-.67-.45-67.09-45.59-83.08-81.77-16.35-37-36.48-69.47-47.91-82.4-10.46-11.84-36.07-33.13-55-40.64-19.59-7.77-65.58-19.95-113.76-16.3-48.18-3.64-94.17,8.53-113.76,16.3-18.93,7.51-44.54,28.8-55,40.64-11.43,12.93-31.56,45.38-47.91,82.4-16,36.17-82.41,81.32-83.08,81.77l-5.9,4h611.3Z" class="cls-6"/><path d="M735.91,257.12c-16.43-37.18-36.6-69.45-47.55-81.84s-36-32.85-54.17-40.05-64-19.89-113-16.14c-49-3.75-94.8,8.93-113,16.14s-43.22,27.66-54.17,40.05S323,219.94,306.55,257.12s-83.85,82.7-83.85,82.7H819.76S752.33,294.29,735.91,257.12Z" class="cls-7"/><path d="M838.2,358.55l-7.1-.48s13.25-11.53,20.07-23.73c-50,9.9-118.43-42.06-118.43-42.06l9.41-1.83s-20-13.45-25-17.48-48.59-50.48-60.33-55.33-5-6.72-51.88-10.95-83.71,57.38-83.71,57.38-36.86-61.61-83.72-57.38-40.13,6.09-51.87,10.95S330.33,268.93,325.34,273s-25,17.48-25,17.48l9.42,1.83s-68.39,52-118.44,42.06c6.82,12.2,20.08,23.73,20.08,23.73l-7.11.48c5.21,13.3,28.82,29.68,28.82,29.68a48.32,48.32,0,0,1-21-1.85c22.24,33,52.38,48.89,52.38,48.89s-14.32-1.71-16.24.79c18.32,27.86,47.61,44.05,73.77,54.34,14.44,5.67,19.4,6.17,39.57,13.86,15.71,6,20.86,10,31.89,12.29,21.47,4.5,42.27,4.23,77.81,10.15,23.82,8.87,26.12,21.55,49.92,23.47,23.79-1.92,26.1-14.6,49.92-23.47,35.54-5.92,56.34-5.65,77.8-10.15,11-2.31,16.19-6.31,31.89-12.29,20.17-7.69,25.14-8.19,39.57-13.86,26.17-10.29,55.45-26.48,73.77-54.34-1.92-2.5-16.23-.79-16.23-.79s30.14-15.92,52.37-48.89a48.28,48.28,0,0,1-21,1.85S833,371.85,838.2,358.55Z" class="cls-11"/><path d="M838.2,358.55l-7.1-.48s13.25-11.53,20.07-23.73c-50,9.9-118.43-42.06-118.43-42.06l9.41-1.83s-20-13.45-25-17.48-48.59-50.48-60.33-55.33-5-6.72-51.88-10.95-83.71,57.38-83.71,57.38-36.86-61.61-83.72-57.38-40.13,6.09-51.87,10.95S330.33,268.93,325.34,273s-25,17.48-25,17.48l9.42,1.83s-68.39,52-118.44,42.06c6.82,12.2,20.08,23.73,20.08,23.73l-7.11.48c5.21,13.3,28.82,29.68,28.82,29.68a48.32,48.32,0,0,1-21-1.85c22.24,33,52.38,48.89,52.38,48.89s-14.32-1.71-16.24.79c18.32,27.86,47.61,44.05,73.77,54.34,14.44,5.67,19.4,6.17,39.57,13.86,15.71,6,20.86,10,31.89,12.29,21.47,4.5,42.27,4.23,77.81,10.15,23.82,8.87,26.12,21.55,49.92,23.47,23.79-1.92,26.1-14.6,49.92-23.47,35.54-5.92,56.34-5.65,77.8-10.15,11-2.31,16.19-6.31,31.89-12.29,20.17-7.69,25.14-8.19,39.57-13.86,26.17-10.29,55.45-26.48,73.77-54.34-1.92-2.5-16.23-.79-16.23-.79s30.14-15.92,52.37-48.89a48.28,48.28,0,0,1-21,1.85S833,371.85,838.2,358.55Z" class="cls-8"/><path d="M520.65,267.63s8.47-12.81,17.31-25.81a167.94,167.94,0,0,0-16.7,22.25,171.09,171.09,0,0,0-21.1-27C509.81,251,520.65,267.63,520.65,267.63Z" class="cls-12"/><path d="M287.6,307c14.27-8.42,24.14-15.11,24.14-15.11l-8.93-2.31a202.14,202.14,0,0,0,24.59-16.18c7.22-5.55,18.51-18.7,27-29.16-13.53,13.18-26.5,26.68-29.09,28.78-5,4-25,17.48-25,17.48l9.42,1.83S301.07,298.89,287.6,307Z" class="cls-12"/><path d="M251.8,438.94l15.28-4.32c-29.59-16.9-47.26-44.95-47.26-44.95s13.35,1.85,15.85-.32c-12.2-8.9-29.25-29.94-29.25-29.94l8.35.87a133.84,133.84,0,0,1-17.72-20.17c20.14,3.95,57.12-14,83.65-29.16-24.47,13.77-60.06,29.19-89.36,23.39,6.82,12.2,20.08,23.73,20.08,23.73l-7.11.48c5.21,13.3,28.82,29.68,28.82,29.68a48.32,48.32,0,0,1-21-1.85c22.24,33,52.38,48.89,52.38,48.89s-14.32-1.71-16.24.79A116.25,116.25,0,0,0,269.43,460Z" class="cls-12"/><path d="M838.2,358.55l-7.1-.48s13.25-11.53,20.07-23.73c-17.65,3.49-37.59-.72-56-7.63,7.85,5.42,22.62,11.51,49.08,10.8-6.82,13-19.59,20.75-19.59,20.75a22.31,22.31,0,0,0,7.49,3.17c1.73,7-30.25,28.82-30.25,28.82s7.1,3.93,20.45,0c-8.83,19.21-52.44,42.35-52.44,42.35a36.23,36.23,0,0,0,11.24,6.06c-10.09,11.23-40.63,28-49,32.27s-50.62,23.72-69.73,30.54-82.61,10.28-94.81,15-31.31,21.8-43.51,23.63S478,523.27,460.43,521.64s-49.47-4.32-55.9-5.18S384.11,512,380,510.41s-9.7-4.23-21-8.36a120.61,120.61,0,0,0-14.32-3.86c4.46,1.48,9.73,3.31,17,6.07,15.71,6,20.86,10,31.89,12.29,21.47,4.5,42.27,4.23,77.81,10.15,23.82,8.87,26.12,21.55,49.92,23.47,23.79-1.92,26.1-14.6,49.92-23.47,35.54-5.92,56.34-5.65,77.8-10.15,11-2.31,16.19-6.31,31.89-12.29,20.17-7.69,25.14-8.19,39.57-13.86,26.17-10.29,55.45-26.48,73.77-54.34-1.92-2.5-16.23-.79-16.23-.79s30.14-15.92,52.37-48.89a48.28,48.28,0,0,1-21,1.85S833,371.85,838.2,358.55Z" class="cls-12"/></g><g id="Mouth"><path d="M469.09,458.1c5.7,10.63,13.6,25.7,14.09,28.47.58,3.24,12.43,33,36.55,37.25,21.16,3.6,37.27-29.89,39.13-37.34,1.19-4.77,9.28-20.07,14.56-29.77-13.06,11.44-30.63,17.54-50.4,17.54a102.75,102.75,0,0,1-14.56-1.06C492.8,470.94,478.09,465.09,469.09,458.1Z" class="cls-13"/><path d="M519.73,523.82c16.68,2.84,30.23-17.38,36.12-29.71-4.45-1.33-18-5.17-24.13-4.4a28.66,28.66,0,0,0-11.93,4.43c-1-.74-8.12-5.92-20.15-4.43a89.06,89.06,0,0,0-14.28,2.62C489.82,502.08,501.11,520.55,519.73,523.82Z" class="cls-14"/><path d="M519.73,523.82c15.81,2.69,28.81-15.34,35.14-27.73-4.52-1.33-17.42-4.91-22.88-4.22a26.19,26.19,0,0,0-11.34,4.32l-1.63,7.2-.51-7.49s-6.72-5.5-18.6-4a91.27,91.27,0,0,0-13.6,2.45C491.31,504.41,502.32,520.76,519.73,523.82Z" class="cls-15"/><ellipse cx="527.15" cy="517.58" class="cls-16" rx="7.47" ry="2.31" transform="translate(-82.17 99.85) rotate(-10.04)"/><path d="M508.89,471.41c28.27,4.16,50.86,0,69.25-21.94-54.88,25.89-99.15,14-115-1.16l.73,1.38C470,459.31,488.56,468.42,508.89,471.41Z" class="cls-17"/><path d="M605,419.32c.24-10.22-8.28-19.63-20.24-21.71a27.22,27.22,0,0,0-4.36-.41,35.9,35.9,0,0,1,14.78,7.26c.1,3.23.49,31.62-16.74,43.49l-.15.1-.11.13c-15.52,18.34-40.78,26.51-69.32,22.42-20-2.87-38.27-11.59-44.23-20.81l-1.13-2.06-.11-.26-.27-.2c-16.36-12.37-16.39-38-16.23-43A39.9,39.9,0,0,1,463,399.9a30.54,30.54,0,0,0-4.82-.38c-13.42,0-24.5,8.63-26.17,19.8a32.11,32.11,0,0,1,12.17-13.52,77.33,77.33,0,0,0,1.37,14.93c2.42,12.55,7.83,22.37,15.67,28.42a17.12,17.12,0,0,0,1,1.85c7.5,13.76,17.85,33.37,18.33,36,.72,4,12.93,34.84,38.67,39.36a21.76,21.76,0,0,0,3.65.31c21,0,36.33-31,38.47-39.59,1.59-6.37,17.16-34.34,18.75-37.19,7.92-5.59,13.47-15.26,16.06-28a81.33,81.33,0,0,0,1.57-15A28.58,28.58,0,0,1,605,419.32Zm-46.11,67.16c-1.86,7.45-18,40.94-39.13,37.34-24.12-4.24-36-34-36.55-37.25-.49-2.77-8.39-17.84-14.09-28.47,9,7,23.71,12.84,39.37,15.09A102.75,102.75,0,0,0,523,474.25c19.77,0,37.34-6.1,50.4-17.54C568.14,466.41,560.05,481.71,558.86,486.48Z" class="cls-10"/></g><g id="Eyes"><path d="M240.8,359.74c23.61,1.6,44.83-15.85,63.56-31.24,2.25-1.84,4.44-3.64,6.58-5.36l7.24-5.83c22.95-18.5,61.36-49.47,75.06-57.41l1.76-1c16.76-9.8,67.75-39.6,90.72-1.64C509.8,297,478,341.1,471.19,347.55c-3.6,3.4-7.87,5.42-12.39,7.55-5.74,2.71-11.67,5.52-17.35,11.57-1.22,1.3-2.85,3.13-4.92,5.45-15.59,17.51-52.09,58.52-88.3,68.53a34.67,34.67,0,0,1-9.27,1.23c-32.54,0-68.8-42.49-89.11-66.28-4.58-5.37-8.2-9.61-10.74-12.15l-4.1-4.1Z" class="cls-18"/><path d="M240.65,361.91c27.39,1.84,51.71-21,71.66-37.07s66.85-54.26,82-63,66.86-40.89,89.52-3.42-6.41,80.3-14.15,87.6-19.32,8-29.84,19.21S388,427.4,347.65,438.55,255.63,376.89,240.65,361.91Z" class="cls-19"/><path d="M802.33,359.74c-23.62,1.6-44.84-15.85-63.57-31.24-2.24-1.84-4.44-3.64-6.58-5.36l-7.24-5.83c-23-18.5-61.36-49.47-75.06-57.41l-1.76-1c-16.76-9.8-67.75-39.6-90.72-1.64-24.07,39.79,7.68,83.86,14.53,90.31,3.61,3.4,7.87,5.42,12.39,7.55,5.74,2.71,11.67,5.52,17.35,11.57,1.22,1.3,2.85,3.13,4.92,5.45,15.59,17.51,52.1,58.52,88.3,68.53a34.67,34.67,0,0,0,9.27,1.23c32.54,0,68.8-42.49,89.11-66.28,4.58-5.37,8.2-9.61,10.74-12.15l4.11-4.1Z" class="cls-18"/><path d="M802.47,361.91c-27.39,1.84-51.7-21-71.65-37.07s-66.86-54.26-82-63-66.85-40.89-89.52-3.42,6.41,80.3,14.15,87.6,19.32,8,29.84,19.21,51.87,62.22,92.21,73.37S787.49,376.89,802.47,361.91Z" class="cls-19"/><ellipse cx="619.82" cy="312.99" class="cls-18" rx="39.57" ry="51.21"/><ellipse cx="619.82" cy="312.99" class="cls-2" rx="37.8" ry="48.92"/><path d="M621.76,333.91c-15.7,0-29.78-5.64-39.42-14.57,2.41,24,18.26,42.57,37.48,42.57,18.25,0,33.48-16.74,37-39A59.35,59.35,0,0,1,621.76,333.91Z" class="cls-20"/><ellipse cx="612.32" cy="313.79" class="cls-21" rx="27.25" ry="34.48"/><ellipse cx="612.06" cy="318.16" rx="20.61" ry="26.08"/><circle cx="599.8" cy="300.15" r="7.88" class="cls-2"/><circle cx="621.14" cy="330.39" r="5.55" class="cls-2"/><ellipse cx="422.34" cy="312.99" class="cls-18" rx="39.57" ry="51.21"/><ellipse cx="422.34" cy="312.99" class="cls-2" rx="37.8" ry="48.92"/><path d="M424.27,333.91c-15.69,0-29.78-5.64-39.41-14.57,2.4,24,18.26,42.57,37.48,42.57,18.25,0,33.48-16.74,37-39A59.33,59.33,0,0,1,424.27,333.91Z" class="cls-20"/><ellipse cx="429.65" cy="313.79" class="cls-21" rx="27.25" ry="34.48"/><ellipse cx="429.39" cy="318.16" rx="20.61" ry="26.08"/><circle cx="417.13" cy="300.15" r="7.88" class="cls-2"/><circle cx="438.47" cy="330.39" r="5.55" class="cls-2"/></g><g id="Nose"><ellipse cx="521.2" cy="404.72" rx="41.78" ry="30.54"/><ellipse cx="517.67" cy="383.27" class="cls-22" rx="20.88" ry="5.82" transform="translate(-23.44 33.87) rotate(-3.66)"/></g></g></svg>