<svg id="Layer_1" data-name="Layer 1" xmlns="http://www.w3.org/2000/svg" xmlns:xlink="http://www.w3.org/1999/xlink" viewBox="0 0 1790 576"><defs><style>.cls-1{stroke:#231f20;fill:url(#radial-gradient);}.cls-1,.cls-16,.cls-19{stroke-miterlimit:10;}.cls-2{fill:#3e3c3a;}.cls-3{fill:#f4f5f6;}.cls-4{fill:#716658;}.cls-5{fill:#fefefe;}.cls-6{fill:#7c7777;}.cls-7{fill:#ccccd2;}.cls-8{fill:#e4e5e5;}.cls-9{fill:#07090a;}.cls-10{fill:#120c0b;}.cls-11{fill:#eb5d92;}.cls-12{fill:#640a1f;}.cls-13{fill:#fbfbfb;}.cls-14{fill:#3b6cb2;}.cls-15{fill:#fbf8f8;}.cls-16,.cls-20{fill:#fff;}.cls-16{stroke:#000;stroke-width:4px;}.cls-17{fill:#323232;}.cls-18{fill:#969696;}.cls-19{fill:none;stroke:#969696;stroke-width:10px;}</style><radialGradient id="radial-gradient" cx="895" cy="288" r="664.82" gradientTransform="translate(0 144) scale(1 0.5)" gradientUnits="userSpaceOnUse"><stop offset="0.05" stop-color="#f03a40"/><stop offset="0.63" stop-color="#ed0024"/><stop offset="1" stop-color="#9d0b0f"/></radialGradient></defs><rect class="cls-1" width="1790" height="576"/><path class="cls-2" d="M249,147c-1.23-5.07-2.34-10.17-3.53-15.24-.09-.37-.65-3.28-.84-4.39a217.52,217.52,0,0,1-2.35-49.16c.78-13.6,3.91-26.48,11.33-38.11a72.58,72.58,0,0,1,13-15.56,47.69,47.69,0,0,1,11.09-7.45,33.55,33.55,0,0,1,26.46-1.7,99.66,99.66,0,0,1,11.88,5.13A144,144,0,0,1,337.24,33.9c8.69,6.43,17.22,13.08,25.83,19.62,1.24.94,5.15,4.37,6.19,5.15,3.17,2.38,6.36,4.75,9.51,7.17,1.15.89,4.43,3.21,5.1,3.69,3,2.13,6,4.3,9,6.34,1.75,1.17,3.63,2.14,5.46,3.2a36.68,36.68,0,0,0,3.56,2.43c9.31,5,18.76,9.62,28.48,13.7,8.11,3.41,16.3,6.62,24.5,9.81,6.18,2.4,12.44,4.59,18.64,7a11.58,11.58,0,0,0,6.34.37c6.95-1.17,13.93-2.16,20.92-3.12,3.27-.45,6.62-.45,9.87-1,6-1.09,12.1-.33,18.08-1.43,20.63.46,41.28-1.15,61.9.71,4.16.38,8.35.51,12.48,1.08,7.41,1,14.84,2,22.15,3.59a21,21,0,0,0,12.24-1c11.59-4.4,23.23-8.68,34.69-13.43,10.54-4.38,20.92-9.07,31-14.38,1.63-.87,6.81-3.85,7.73-4.47,4.63-3.11,9.2-6.3,13.78-9.49.18-.12.22-.45.32-.68-.06-.28,2.93-1.37,4.21-2.36q5.44-4.18,10.81-8.47c.38-.31,3.27-2.7,4.4-3.55,7.94-6,15.81-12.11,23.81-18A178.6,178.6,0,0,1,790.49,22,68.61,68.61,0,0,1,806,15.58a34,34,0,0,1,23.22,2.22,46,46,0,0,1,13.09,9.09c11.82,11.74,19.49,25.63,21.72,42.32a185.15,185.15,0,0,1,1,38A212.17,212.17,0,0,1,862.36,130c-.08.42-1.28,5.95-1.83,8.29-.45,1.93-.6,3.95-1.22,5.82-.7,2.11-1.92,7.08-2.2,7.86q-2.62,7.39-5.23,14.81c-.18.52-2.48,6-3.55,8.19a146.94,146.94,0,0,1-10.59,18.26c-1,1.41-4.27,6-5,6.94-3.88,5.2-7.78,10.37-11.53,15.66-3.25,4.57-10.19,14.43-10.42,14.77a274,274,0,0,0-17,27.65,54.42,54.42,0,0,0-4.47,11.13,8.28,8.28,0,0,0,.64,1.27,251.15,251.15,0,0,0,21.78,25.2c3.42,3.51,7.14,6.73,10.71,10.1a187.78,187.78,0,0,0,16.66,13.79,29.62,29.62,0,0,1,2.2,2c-3.25.13-5.91-1.45-8.57-3-1.21-.7-2.36-1.5-3.54-2.25a35.18,35.18,0,0,0-2.58-2.87c-4.5-4-9.09-8-13.57-12.05a163.8,163.8,0,0,1-12.44-13.23c-2.48-2.81-5.09-5.52-7.38-8.48-3.88-5-7.53-10.18-11.32-15.26a148.46,148.46,0,0,1-13.69-22.5c-4.34-8.64-8.44-17.4-12.65-26.11A235.41,235.41,0,0,0,733,178.66a187.74,187.74,0,0,0-16.11-19.18,173.84,173.84,0,0,0-14.82-13.23,123.17,123.17,0,0,0-36.47-20.33,224.5,224.5,0,0,0-23.2-6.86c-5.3-1.3-10.61-2.62-16-3.66-6.62-1.28-13.29-2.31-20-3.36a82.59,82.59,0,0,0-9-1c-5.75-.29-11.45-1.38-17.24-1a9.24,9.24,0,0,1-2.14-.28,57.85,57.85,0,0,0-15.1-.21c-2.28.21-4.57.54-6.87.55-10.69,0-21.38,0-32.07,0a16.22,16.22,0,0,0-3.89.15c-4.79,1.22-9.75.45-14.59,1.46-3.49.73-7.16.58-10.71,1.14-6.1.95-12.15,2.21-18.23,3.24a237.24,237.24,0,0,0-32.17,8.28,125.77,125.77,0,0,0-35.3,18,178.56,178.56,0,0,0-18.4,15.68c-1.67,1.57-2.93,3.56-4.54,5.2-6.72,6.79-12.32,14.48-17.73,22.3a275.58,275.58,0,0,0-19.12,32.89c-2.92,5.79-5.54,11.74-8.38,17.58a133.79,133.79,0,0,1-6.33,12.33c-4.34,7-8.95,13.78-13.62,20.54-5.16,7.48-11.21,14.26-17.29,21-4.84,5.35-10.16,10.27-15.28,15.36-.51.51-1.08,1-1.63,1.42-2.87,2.4-5.76,4.78-8.6,7.21a10.44,10.44,0,0,0-1.31,1.69c-1.11.68-2.18,1.42-3.33,2-2.79,1.45-5.39,3.45-8.8,3.22a6.34,6.34,0,0,1,1.11-1.29c7.55-5.06,14.31-11.11,21-17.18A246.35,246.35,0,0,0,308.47,280c2.43-2.83,4.7-5.81,7-8.72a5.25,5.25,0,0,0,1-5.62,104.71,104.71,0,0,0-11.72-22,46.3,46.3,0,0,0-2.24-4.1c-3.47-5.06-7.08-10-10.49-15.11a52,52,0,0,0-3.79-5c-3.38-4.7-6.73-9.42-10.15-14.09-1.08-1.47-6.14-8.94-7.64-11.18a159.24,159.24,0,0,1-11.73-20.59c-.74-1.55-2.52-5.39-2.67-5.78-2.18-5.94-4.39-11.88-6.63-17.91C249.13,149.8,249.31,148.15,249,147ZM841.12,79a8.52,8.52,0,0,0,.09-2.13c-1-5.1-1.91-10.21-3.14-15.25a38.48,38.48,0,0,0-2.92-8.13c-3.75-7.43-9.59-12.12-18.1-13.1-4.56-.53-8.91.42-13.2,1.71a65,65,0,0,0-14.15,6.45c-9.51,5.55-18.2,12.25-26.83,19a169,169,0,0,0-18,16.24A76.07,76.07,0,0,0,732,101.65a308.69,308.69,0,0,0-19.17,45.9c-.3.93-.47,1.9-.72,2.95l11.23,10.93c.11.41.09,1,.36,1.21,4.65,4.38,8.37,9.53,12.14,14.63,11.28,15.25,20.4,31.78,28.37,49,1.94,4.18,3.88,8.36,5.87,12.53a16.54,16.54,0,0,0,1.44,2.11c2.48-4.37,4.8-8.52,7.2-12.63,6.63-11.37,14.4-21.94,22.46-32.32A277,277,0,0,0,829,153.16c4.43-8.61,8.3-17.47,10.61-26.9C843.4,110.63,843.45,94.83,841.12,79ZM259,92a121.11,121.11,0,0,0-.2,18.17,85.79,85.79,0,0,0,9.92,37.33,181.63,181.63,0,0,0,14.75,23.43q11.28,15.09,23,29.85a179.42,179.42,0,0,1,24.89,40.94c.39.92.85,1.82,1.41,3a21.24,21.24,0,0,0,1.56-2.23c2-4,4-8,6-12,3.7-7.5,7.2-15.11,11.13-22.5,9.8-18.43,21.43-35.6,36-50.7a11.07,11.07,0,0,0,1-1.44c-.21-.88-.36-1.73-.63-2.54a293.27,293.27,0,0,0-22.48-51.95,61.25,61.25,0,0,0-9.3-13,16,16,0,0,0-1.26-2.21,188.61,188.61,0,0,0-20.68-22.72A125.3,125.3,0,0,0,310.43,46a51,51,0,0,0-8.67-3.88A24.89,24.89,0,0,0,282,43.33a75.67,75.67,0,0,0-8.47,5.16A25.64,25.64,0,0,0,263,63.39a95.46,95.46,0,0,0-3.23,16.1C259.38,83.63,258.37,87.76,259,92ZM709,147.52a21.62,21.62,0,0,0,1.25-2.26c.93-2.42,1.84-4.85,2.7-7.29a306.37,306.37,0,0,1,16.51-38.08A73,73,0,0,1,742,82.44c2.21-2.28,4.51-4.48,6.73-6.75a109.33,109.33,0,0,1,12.11-10.43c4.82-3.64,9.63-7.32,14.48-10.93a111.47,111.47,0,0,1,21.07-12.71c6-2.65,12.09-4.5,18.76-4.39,8.8.14,15.43,4,20.44,11,4.39,6.18,6,13.37,7.37,20.59.94,5.07,2.18,10.15,1.92,15.39a2.22,2.22,0,0,0,.12.85c.83,2.09.68,4.27.64,6.43-.16,7.34.59,14.71-.78,22-.55,3-.55,6-1.2,9A122,122,0,0,1,834.48,149a207.32,207.32,0,0,1-16.37,28.48c-4.43,6.39-8.84,12.8-13.41,19.09-4.74,6.52-9.81,12.81-14.44,19.4-3.64,5.18-6.91,10.63-10.2,16.06-2,3.32-3.73,6.83-5.62,10.24a4.17,4.17,0,0,0,0,4.5c.37.62.61,1.32,1,1.92q5,7.84,10.07,15.63c.27.42.86.62,1.39,1a14.22,14.22,0,0,0,2.38-4.31,53.56,53.56,0,0,1,2.32-5.11c3.4-5.86,6.71-11.79,10.4-17.45,4.88-7.48,10-14.78,15.19-22.08,3.82-5.41,7.75-10.74,11.72-16A158,158,0,0,0,845,174.71c1.82-3.76,3.42-7.63,5-11.51a177,177,0,0,0,8.69-29.84c.87-4.21,1.18-8.54,2-12.77a75.48,75.48,0,0,0,1.4-13.26c.2-12.11.89-24.25-.77-36.32-.61-4.41-1.11-8.89-2.75-13.06-3.29-8.34-7.25-16.26-13-23.31a50.7,50.7,0,0,0-19.33-14.86A27,27,0,0,0,811,17.59a51.13,51.13,0,0,0-13.14,4.15c-9.75,4.49-18.63,10.41-27.29,16.65-6.66,4.79-13,10-19.57,14.94-7.19,5.52-14.34,11.1-21.6,16.53-9.36,7-19,13.56-29.55,18.72q-10.7,5.24-21.61,10c-10.46,4.51-21.11,8.53-31.77,12.52-2.5.93-5,2-8.12,3.24,1.31.52,1.91.83,2.55,1,6.1,1.71,12.24,3.27,18.29,5.11A129.57,129.57,0,0,1,687,132.15a152.92,152.92,0,0,1,15.14,10C704.31,143.78,706.41,145.51,709,147.52ZM330.59,248.92a2.83,2.83,0,0,0,0-.71,158.82,158.82,0,0,0-13.94-27.8,193.94,193.94,0,0,0-13.9-19.26Q293.59,189.95,285,178.3c-7.89-10.67-15.43-21.59-21.12-33.66a79.79,79.79,0,0,1-7.76-31.21c0-.86-.09-1.73-.18-2.59-.19-2-.54-4-.6-6A154.83,154.83,0,0,1,257.05,76c.78-5,1.54-10,3.39-14.69,1.09-2.82,2-5.76,3.92-8.14a46.31,46.31,0,0,1,5.1-5.29,40.05,40.05,0,0,1,16-9.14c2.89-.82,5.86-1.74,8.91-1.32a44.12,44.12,0,0,1,14.86,4.29,138.51,138.51,0,0,1,15.27,9.8,48.7,48.7,0,0,1,7.16,5.55c4.21,4.34,9.19,7.85,13,12.64,2.77,3.48,6.24,6.38,8.93,10,3.36,4.5,6.93,8.84,10.17,13.42,6.87,9.71,11.64,20.55,16.39,31.39,3.94,9,7.37,18.16,10.65,27.39.07.2.44.3.85.56.5-.37,1.08-.75,1.6-1.2,2.62-2.27,5.09-4.72,7.85-6.79a186.27,186.27,0,0,1,19.34-13,126.25,126.25,0,0,1,24.15-10.49,196.6,196.6,0,0,1,21.26-5.73,7.34,7.34,0,0,0,1.63-.57c.41-.2,1.21,0,1.13-1a14.3,14.3,0,0,0-1.46-.76l-18.59-7.06a433.75,433.75,0,0,1-47-21A28.43,28.43,0,0,1,399,83.33c-5.28-3.5-10.65-6.89-15.8-10.58-6-4.28-11.77-8.77-17.58-13.26C360.68,55.7,356,51.68,351,47.94c-5.85-4.44-11.88-8.63-17.76-13a144,144,0,0,0-22.52-13.68,45.12,45.12,0,0,0-13.9-4.55,24.63,24.63,0,0,0-7.76,0,39.87,39.87,0,0,0-15.55,6.22,71.78,71.78,0,0,0-8.41,7.45c-7.17,6.83-11.57,15.37-15.24,24.39S245.75,73.55,245,83.13c-.5,6.47-.1,13-.09,19.5a6.65,6.65,0,0,0,.14,2.15c.81,2.39.61,4.86.68,7.3a20.41,20.41,0,0,0,.1,2.6c.81,5.39,1.52,10.81,2.55,16.17a196.52,196.52,0,0,0,5.74,23,180.59,180.59,0,0,0,10.73,25,112,112,0,0,0,10.34,16.47c9.1,12.27,18.05,24.64,26.55,37.33a197.24,197.24,0,0,1,12.55,20.7c1.88,3.72,3.65,7.5,5.54,11.39C324.28,259.93,327.12,254.08,330.59,248.92Z"/><path class="cls-3" d="M411.07,518.74l-16.88-7.17c-5.49-2-11.32-5.76-16.83-7.74-12.19-4.4-24.37-8.85-36.25-14-14.82-6.48-29.13-13.89-42.27-23.38a129.78,129.78,0,0,1-18.54-16.18c-.58-.62-3.93-2.2-4.35-5.32h0c.74-1.86-1.22-3.06-1.33-5a69.84,69.84,0,0,0,6.93-2.08c2.09-.87,4.86-.3,6.59-2.92l-1.8-.48c-16.12-7.55-19-11.51-19.94-13.8v0c-.17-.67-.14-1.53-.56-2-1.68-1.76-3.49-3.39-5.27-5.05-1.57-1.46-3.45-2.68-4.66-4.39a50.44,50.44,0,0,0-5.13-5.77c-3.22-3.3-5.62-7.21-8.14-11a1.36,1.36,0,0,1,1.08-2.19c1.86-.09,3.73-.13,5.59-.08a11.28,11.28,0,0,0,5.81-1.48l-.8-1.16c0-1-.75-1.46-1.5-1.93a95.44,95.44,0,0,1-18.66-16.07,59.15,59.15,0,0,1-7.74-10.4,35.57,35.57,0,0,1-1.5-3.34l5.59-.69c.49-1.39-.52-1.74-1.09-2.26A73.79,73.79,0,0,1,218,340a1.85,1.85,0,0,1,2.43-1.77c3.43.66,6.82-.05,10.23,0a14.47,14.47,0,0,0,3-.17,150.33,150.33,0,0,0,18.66-5.06,244.31,244.31,0,0,0,23.44-9.84c7.15-3.37,14.09-7.2,21.07-10.94,3.41-1.83,6.68-3.93,10.05-5.87.84-.48,1.21-2.07,1.21-2.07,3-5.6,25.31-17.23,25.31-17.23l-8-2a29.43,29.43,0,0,1,2.3-1.84c4.72-3.07,9.47-6.08,14.18-9.16a110.84,110.84,0,0,0,17.18-13.83q12.48-12.33,25.13-24.49c7.07-6.81,14.57-13.13,22.24-19.29,9.24-7.42,19.81-11.68,31.21-14.23a131,131,0,0,1,34-2.95,72.68,72.68,0,0,1,36.69,11.62,117.43,117.43,0,0,1,25,21.92,177.83,177.83,0,0,1,18.07,24.3,13.7,13.7,0,0,0,1.27,1.75c.16.2.47.27,1,.55a22.91,22.91,0,0,0,1.76-2.2,190.56,190.56,0,0,1,17.3-23.26c8.64-9.81,18.28-18.46,29.72-24.94a68.42,68.42,0,0,1,30-8.89c16.23-1,31.84,2,47.34,6.39,12.26,3.46,22.68,9.86,32.12,18.18,8.89,7.84,17.2,16.26,25.31,24.89,5,5.26,9.9,10.54,15.14,15.49a114.49,114.49,0,0,0,13.41,10.41c3.79,2.63,7.68,5.1,11.61,7.51,1.32.81,2.45,1.67,4.19,2.89l-8.67,2.28a14,14,0,0,0,1.71,1.73C794.37,303,814.81,315,837,323.89c3.34,1.33,6.72,2.58,10.14,3.69,1.86.6,3.69,1.32,5.52,2a1.74,1.74,0,0,0,1.22,1.6,42.8,42.8,0,0,0,4.92,1.61c4.79.89,9.39,2.49,14.31,3,3.75.39,7.35.93,11.06-.1a13.24,13.24,0,0,1,3.4,0c-.74,2.52-.73,2.53-1.75,3.6-2.18,2.29-4.6,4.34-6.3,7.08a10.12,10.12,0,0,1-2.22,2c-1.19,1-2.45,2-3.61,3.05-1.7,1.55-3.35,3.17-5,4.77-.35.35-.63.77-1.12,1.36,3,1.05,5.87,1.51,8.46,3a5.45,5.45,0,0,1-.36,1.75,41.42,41.42,0,0,1-3.88,5.67,77.69,77.69,0,0,1-14.67,12.64q-5,3.34-9.9,6.89c-.7.51-2,.74-1.76,2.39a18.37,18.37,0,0,0,7.53-.08c.23-.07.4-.39.6-.6l5.1-.09c1.35,1.72,3.12.95,4.78.81l2.32-.2a9.68,9.68,0,0,1-.8,2.34c-1.36,1.85-2.93,3.56-4.21,5.46a44.33,44.33,0,0,1-7.87,8.31c-2,1.77-4.09,3.47-6.22,5.08a224.49,224.49,0,0,1-26.52,17.65,90.11,90.11,0,0,0-8,4.71,3.7,3.7,0,0,0,2.25,2.79c1.26.7,2.58,1.29,3.87,1.95,1,.52,2.06,1,3.05,1.62a1.6,1.6,0,0,1,.36,2.56,3.91,3.91,0,0,1-.65.57c-5,3.57-10.08,7.17-15.17,10.68A220,220,0,0,1,778.8,469.6c-.52.26-1,.55-1.52.82-3.82,2-7.57,4.22-11.49,6-6.92,3.21-13.95,6.2-20.95,9.23-4.76,2.06-9.55,4-14.33,6-7.41,3.1-14.92,6-22.12,9.57a75.68,75.68,0,0,1-16.29,5.94c-4.73,1.14-9.47,2.31-14.32,3-4.54.62-9,1.78-13.58,2.12-3.86.29-7.65,1.45-11.57,1a2.46,2.46,0,0,0-1.29.16c-1.79.81-3.67.64-5.54.67a8.54,8.54,0,0,0-2.59.12c-2.52.9-5.12.7-7.71.75a6,6,0,0,0-2.14.17c-2.23.9-4.55.62-6.85.7a27.51,27.51,0,0,0-3,.22c-3.26.47-6.5,1.19-9.77,1.45-6.9.54-13.22,3-19.2,6.12s-11.42,6.71-17,10.31c-4.73,3.05-9.6,5.83-14.59,8.43-5.18,2.7-10.64,2.56-16,1.68-7.13-1.17-13.79-4.06-20.5-6.64-8.32-3.21-16.45-6.92-25.14-9.14a81.08,81.08,0,0,0-16.93-2.91,5.66,5.66,0,0,1-1.71-.14c-2.51-1-5.13-.66-7.71-.72a12.3,12.3,0,0,1-3.45-.16c-2.68-.9-5.42-.58-8.14-.73-4.45-.23-8.84-1.2-13.33-.93a4.38,4.38,0,0,1-.85-.16c-3.83-.5-7.67-1-11.5-1.49-3.4-.46-6.82-.85-10.2-1.46-4.09-.75-8.14-1.73-12.22-2.52-.4-.08-.91.46-1.37.72C413.34,517.71,412.13,518.84,411.07,518.74Zm90.67-61.94a5.06,5.06,0,0,1-1.13-.6c-4.18-4-8.48-7.81-12.45-12a34.6,34.6,0,0,1-4.91-7.07c-4.89-8.79-6.31-18.45-6.67-28.32-.15-4.25,0-4.29,4.1-5.94,1.47-.59,3-1,4.47-1.59.76-.27,1.5-.59,2.81-1.12a24.33,24.33,0,0,0-25.22,14.26c-.68.88-1.43,1.75-.81,3a1.38,1.38,0,0,0,1.44-1.38c2.11-3.34,5.14-5.76,8.22-8.11a10.7,10.7,0,0,1,2.12-.89c0,1.57,0,2.71,0,3.86a58.7,58.7,0,0,0,1.92,15c2.08,8.42,5.68,16.14,12,22.2a36.31,36.31,0,0,1,6.64,9c1.81,3.3,3.62,6.58,5.39,9.9,5.15,9.69,9.76,19.63,13.93,29.8a66.69,66.69,0,0,0,16,23.44c5.92,5.59,12.75,9.46,20.85,10.76a21.93,21.93,0,0,0,6,.11c7.74-.94,14.22-4.53,19.83-9.83A57.69,57.69,0,0,0,588.33,505c2.58-5.15,4.78-10.5,7.07-15.79,5.3-12.21,11.75-23.83,18.31-35.38a15.86,15.86,0,0,1,3-3.63,45.71,45.71,0,0,0,10.83-15.51,64.13,64.13,0,0,0,4.83-22.31,20.19,20.19,0,0,1,.31-4.5c3,1.84,4.11,4.8,6.6,7.44a16.89,16.89,0,0,0-3.09-8,24.06,24.06,0,0,0-9.8-8.31,23,23,0,0,0-12-2.34c1.61.75,2.37,1.07,3.11,1.45l9.26,4.67a4.61,4.61,0,0,1,2.59,4.57,68.18,68.18,0,0,1-2.58,20.54c-2.53,8.32-6.6,15.67-13.45,21.28a32.59,32.59,0,0,0-2.66,2.84c-1.4,1.45-2.78,2.95-4.84,3.51-1.34-.51-2.53.08-3.76.5a180.69,180.69,0,0,1-24.1,6.57c-7.47,1.47-14.91,3-22.56,3.12-.72,0-1.43.12-2.15.19-1.85.19-3.7.51-5.55.56a101.17,101.17,0,0,1-12.9-.66c-3.44-.34-6.88-.68-10.24-1.35A79.45,79.45,0,0,1,505,457.8,20.87,20.87,0,0,0,501.74,456.8Zm50.81-20.29c10,0,18.15-1.72,25.75-5.62a36.92,36.92,0,0,0,11.83-9.29,25.41,25.41,0,0,0,6-13.21,25.09,25.09,0,0,0-4.8-18.37,38.68,38.68,0,0,0-14.58-12c-8.74-4.35-18-5.83-27.71-5.4a51.49,51.49,0,0,0-19.23,4.59,37.19,37.19,0,0,0-14.59,11.24,24.82,24.82,0,0,0-.86,29.85A36.24,36.24,0,0,0,526,429.14,51.72,51.72,0,0,0,552.55,436.51Zm297.67-79.68c-.49-.29-.72-.54-.94-.53-2.16.09-4.33.14-6.48.37a42.15,42.15,0,0,1-13.34-1,70.55,70.55,0,0,1-19.25-7.63A157.57,157.57,0,0,1,788,333c-19.79-15.74-39.51-31.57-59.39-47.19-12-9.46-24.27-18.68-36.52-27.86a124.68,124.68,0,0,0-27.94-15.55,121.62,121.62,0,0,0-33.83-8.8,47,47,0,0,0-16.78,1c-11.22,3-19.47,9.78-25.32,19.65a50.07,50.07,0,0,0-6.79,25.24,113.09,113.09,0,0,0,3.94,31.27A82,82,0,0,0,595,333.39a51.15,51.15,0,0,0,19.74,18.37,150.14,150.14,0,0,1,15.1,9.32,198.65,198.65,0,0,1,26.18,22c6.61,6.47,13.06,13.1,19.49,19.74,7.14,7.37,14.26,14.75,22.35,21.12a111.57,111.57,0,0,0,20.72,13.34,55.85,55.85,0,0,0,15.59,5.07c7.86,1.21,15.57.19,23.2-1.54a110.84,110.84,0,0,0,39.54-18.05A68.59,68.59,0,0,0,812,408.56c9.67-12.6,19.43-25.14,29.07-37.78,2.71-3.55,5.16-7.31,7.67-11A22.28,22.28,0,0,0,850.22,356.83Zm-594.4-1.58a17.49,17.49,0,0,0,1,2.15c1.55,2.44,3.07,4.9,4.74,7.25,11,15.56,22.67,30.66,34.68,45.48a40.58,40.58,0,0,0,6.08,6.14,131.43,131.43,0,0,0,12.18,9c13.83,8.75,28.69,14.82,45.13,16.53a46.56,46.56,0,0,0,16.75-1.15,68.44,68.44,0,0,0,17.45-7.49c11.17-6.55,21-14.84,30-24,4.16-4.21,8.2-8.55,12.4-12.72,6.67-6.61,13.27-13.3,20.18-19.65,11.3-10.4,23.47-19.63,37.24-26.64a44,44,0,0,0,14.63-12.66,62.54,62.54,0,0,0,7.92-13.39,104.43,104.43,0,0,0,8.57-50.31A45.15,45.15,0,0,0,513,246.4,38.79,38.79,0,0,0,484,233a76.26,76.26,0,0,0-16.8,1.44,133.17,133.17,0,0,0-49.59,20.75c-6.54,4.5-13,9.17-19.25,14-21.41,16.7-42.71,33.54-64.09,50.29-8.29,6.51-16.58,13-25.06,19.3a106.12,106.12,0,0,1-22.14,12.64A50.29,50.29,0,0,1,263,355.56c-1.73-.15-3.45-.31-5.18-.42A17.14,17.14,0,0,0,255.82,355.25Z"/><path class="cls-4" d="M276.94,315.61a10.44,10.44,0,0,1,1.31-1.69c2.84-2.43,5.73-4.81,8.6-7.21.55-.46,1.12-.91,1.63-1.42,5.12-5.09,10.44-10,15.28-15.36,6.08-6.73,12.13-13.51,17.29-21,4.67-6.76,9.28-13.57,13.62-20.54A133.79,133.79,0,0,0,341,236.07c2.84-5.84,5.46-11.79,8.38-17.58A275.58,275.58,0,0,1,368.5,185.6c5.41-7.82,11-15.51,17.73-22.3,1.61-1.64,2.87-3.63,4.54-5.2a178.56,178.56,0,0,1,18.4-15.68,125.77,125.77,0,0,1,35.3-18,237.24,237.24,0,0,1,32.17-8.28c6.08-1,12.13-2.29,18.23-3.24,3.55-.56,7.22-.41,10.71-1.14,4.84-1,9.8-.24,14.59-1.46a16.22,16.22,0,0,1,3.89-.15c10.69,0,21.38,0,32.07,0,2.3,0,4.59-.34,6.87-.55a57.85,57.85,0,0,1,15.1.21,9.24,9.24,0,0,0,2.14.28c5.79-.38,11.49.71,17.24,1a82.59,82.59,0,0,1,9,1c6.67,1,13.34,2.08,20,3.36,5.37,1,10.68,2.36,16,3.66a224.5,224.5,0,0,1,23.2,6.86,123.17,123.17,0,0,1,36.47,20.33,173.84,173.84,0,0,1,14.82,13.23A187.74,187.74,0,0,1,733,178.66,235.41,235.41,0,0,1,755.62,216c4.21,8.71,8.31,17.47,12.65,26.11A148.46,148.46,0,0,0,782,264.59c3.79,5.08,7.44,10.26,11.32,15.26,2.29,3,4.9,5.67,7.38,8.48a163.8,163.8,0,0,0,12.44,13.23c4.48,4.06,9.07,8,13.57,12.05a35.18,35.18,0,0,1,2.58,2.87,12.44,12.44,0,0,1-6.16-1.8c-6.16-3.14-12.36-6.23-18.38-9.65-7.25-4.12-14.32-8.56-21.47-12.87a2.76,2.76,0,0,1-1-.78,2.34,2.34,0,0,1-.45-1.55,1.72,1.72,0,0,1,1.2-1,7.74,7.74,0,0,1,4.24.46,9.3,9.3,0,0,0,2.76,0c-.63-.83-.94-1.29-1.3-1.7-3.22-3.61-7.55-5.73-11.47-8.39-5-3.4-10.2-6.49-15.19-9.9a45.27,45.27,0,0,1-7.59-6.39c-6.39-6.85-13.41-13.06-19.5-20.24-4.28-5-9.31-9.47-14-14.16a11.37,11.37,0,0,0-1-.87c-3.3-2.77-6.72-5.41-9.87-8.34-2.87-2.67-6.22-4.64-9.35-6.93a33.8,33.8,0,0,0-6.76-3.82,140.68,140.68,0,0,0-22.53-7.39c-7.1-1.68-14.23-3.42-21.61-3.59-1.7,0-3.39-.68-5.09-.76a92.94,92.94,0,0,0-23.6,1.77,62.38,62.38,0,0,0-10.72,3.21C599.53,206.34,590,213,581.21,220.78a142.91,142.91,0,0,0-14.76,15.77c-3.76,4.52-7,9.5-10.43,14.26-.74,1-1.52,2-2.51,3.3-2.07-2.64-3.82-5.05-5.48-7.53a155.93,155.93,0,0,0-13.37-16.89,117.55,117.55,0,0,0-24.14-20.83,86.24,86.24,0,0,0-19.83-9.47c-6.48-2.12-13.21-2.78-19.9-3.29-5-.38-10.09-.81-15.05.66a4.77,4.77,0,0,1-1.73.06c-3.5-.31-6.86.68-10.24,1.25a123.86,123.86,0,0,0-13.41,3.07c-7.13,2-14.05,4.51-20.05,8.87a141.31,141.31,0,0,0-14,10.84c-4,3.72-8.39,7-12.34,10.76-9.21,8.73-17.84,18-27.31,26.54-5.26,4.72-10.47,9.42-16.43,13.26-6.53,4.2-13,8.53-19.53,12.73a14,14,0,0,0-4.61,4.58,24,24,0,0,0,3.38-.47,10.1,10.1,0,0,1,5.12-.15,1.19,1.19,0,0,1,.48,1.79,9.55,9.55,0,0,1-1.37,1c-6.18,3.69-12.39,7.33-18.54,11.06A212.72,212.72,0,0,1,285,312.83C282.46,314,279.93,315.54,276.94,315.61Z"/><path class="cls-3" d="M356,88.34a61.25,61.25,0,0,1,9.3,13,293.27,293.27,0,0,1,22.48,52c.27.81.42,1.66.63,2.54a11.07,11.07,0,0,1-1,1.44c-14.54,15.1-26.17,32.27-36,50.7-3.93,7.39-7.43,15-11.13,22.5-2,4-4,8-6,12a21.24,21.24,0,0,1-1.56,2.23c-.56-1.19-1-2.09-1.41-3a179.42,179.42,0,0,0-24.89-40.94q-11.73-14.74-23-29.85a181.63,181.63,0,0,1-14.75-23.43,85.79,85.79,0,0,1-9.92-37.33A121.11,121.11,0,0,1,259,92c1-.13,1.29-.9,1.6-1.77,2.06-5.92,4.92-11.31,9.69-15.62a25.77,25.77,0,0,1,11.17-6.2c2.7-.69,5.46-.44,8.1-1.11a10.84,10.84,0,0,1,5.95,0,11.91,11.91,0,0,0,3,.31,46.23,46.23,0,0,1,6.41.72,135.3,135.3,0,0,1,33.14,10.83,101.58,101.58,0,0,1,14.38,7.92C353.51,87.77,354.61,88.55,356,88.34Zm-32.53,28.31a26.69,26.69,0,0,0-2.66-1.25,23.71,23.71,0,0,1-9.51-5.85c-3.79-3.76-7.54-7.57-11-11.6a73.22,73.22,0,0,1-10.82-17.18c-.45-1-.54-2.32-2-2.61-.1.28-.3.56-.26.81a16.41,16.41,0,0,0,.56,2.52,56.8,56.8,0,0,0,8.67,16.39A92.91,92.91,0,0,0,310.7,113c.59.51,1.57.86,1.24,2.15-4.77.67-9.25-1-14-1.93a65.42,65.42,0,0,0,5.64,5.87c1.91,2,3.84,3.93,5.78,5.87s3.87,3.89,5.87,5.77,4,3.7,6.15,5.46,4.26,3.47,6.47,5.08,4.56,3.05,6.81,4.62,4.69,2.6,7.25,4.85c-1.22.07-1.74.15-2.25.13-2.31-.1-4.61-.26-6.92-.35-3.6-.14-7.2-.27-10.81-.34-.46,0-.93.36-1.69.67.7.63,1.09,1,1.53,1.37,4.18,3.08,8.43,6.07,12.54,9.25s8.3,6.72,12.46,10.08a29.73,29.73,0,0,0,14.62,6.06,2.83,2.83,0,0,0,2.49-.39c-1.11-.48-1.87-.85-2.66-1.16a57.41,57.41,0,0,1-15.63-9.16c-5-4.13-10-8.24-15-12.38-.15-.12-.11-.49-.21-1,7.42-.13,14.84,1.14,22.17-.22,0-.27.05-.49,0-.53-.85-.53-1.7-1.09-2.6-1.54A141,141,0,0,1,308.69,120c-.46-.49-1.16-.94-.6-1.91C313,118,318.06,118.26,323.49,116.65ZM286,72c-.31,1.75-.93,3.61,1,5.06C288.11,75,286.72,73.53,286,72Z"/><path class="cls-5" d="M841.12,79c2.33,15.85,2.28,31.65-1.55,47.28-2.31,9.43-6.18,18.29-10.61,26.9a277,277,0,0,1-27.79,42.77c-8.06,10.38-15.83,20.95-22.46,32.32-2.4,4.11-4.72,8.26-7.2,12.63a16.54,16.54,0,0,1-1.44-2.11c-2-4.17-3.93-8.35-5.87-12.53-8-17.19-17.09-33.72-28.37-49-3.77-5.1-7.49-10.25-12.14-14.63-.27-.25-.25-.8-.36-1.21.85-2.59,1.74-5.16,2.57-7.76,3-9.47,6.08-18.91,9.88-28.09a91.27,91.27,0,0,1,4.72-10.18,118,118,0,0,1,18.41-23.85c3.83-3.91,7.75-7.75,11.64-11.61a28.78,28.78,0,0,1,2.2-2.08c5.18-4.1,10.09-8.54,15.54-12.32A68.77,68.77,0,0,1,803,57.41c8.47-3.21,16.26-2.31,23.54,3.39a45.51,45.51,0,0,1,11.24,13.48c.73,1.24,1.26,2.6,2,3.83C840,78.52,840.65,78.7,841.12,79Zm-37,31.18a19.21,19.21,0,0,0-3.33.45A28.16,28.16,0,0,1,791,111.9c-.53,0-1.18.13-1.47-.88l2-1.94c2.77-2.71,5.57-5.4,8.31-8.15a47,47,0,0,0,9.52-13.75c1.53-3.39,2.9-6.86,4.35-10.29,1-1.66,2.11-3.32,1.42-5.56-2.09,2.15-2.09,2.15-3.24,5.85-.39.77-.79,1.53-1.16,2.3a81,81,0,0,1-18.41,24.9c-3.52,3.25-7.13,6.32-11.64,8.12a8.85,8.85,0,0,0-1.32,1c5.09,1.56,10.14,1.11,15.46,1.88a21.43,21.43,0,0,1-1.29,2.14c-2,2.48-4,4.93-6,7.38a48,48,0,0,1-14.69,11.94q-10.14,5.37-20.23,10.82c-1.1.6-2.42.91-3.42,2.27,1.19.16,2.13.3,3.08.4s1.73.14,2.59.17,2,.06,3,.07,2,0,3,0,2-.06,3-.12c.86,0,1.73-.15,2.59-.2s2-.15,3-.12,1.93-.44,2.92.5c-2.67,2.45-5.24,4.73-7.74,7.09-7.54,7.13-15.93,12.86-26,15.91-.56.17-1.06.45-.85,1.33a13.5,13.5,0,0,0,5.47-.24,36.85,36.85,0,0,0,13.11-6.48c3.71-2.73,7.24-5.73,10.68-8.8,4.21-3.75,8.34-7.57,13.12-10.6a11.61,11.61,0,0,0,1.42-1.42,10.61,10.61,0,0,0-2.33-.61c-2.59,0-5.19.09-7.78.21-3,.13-6,.33-9.07.48-.51,0-1.19.17-1.29-.91,1.15-.66,2.38-1.38,3.62-2.06,3.42-1.88,6.83-3.75,10.26-5.6A51,51,0,0,0,790,126.51c4.46-5.3,8.45-11,13.66-15.65.19-.17.24-.5.36-.76a1.54,1.54,0,0,0,.34-.17s0-.15,0-.24Zm12-40.9-.26-.28a3.93,3.93,0,0,0-.3.62c0,.06.15.18.24.27Z"/><path class="cls-4" d="M709,147.52c-2.54-2-4.64-3.74-6.81-5.37a152.92,152.92,0,0,0-15.14-10,129.57,129.57,0,0,0-27.83-11.73c-6-1.84-12.19-3.4-18.29-5.11-.64-.18-1.24-.49-2.55-1,3.17-1.27,5.62-2.31,8.12-3.24,10.66-4,21.31-8,31.77-12.52q10.93-4.73,21.61-10c10.55-5.16,20.19-11.72,29.55-18.72,7.26-5.43,14.41-11,21.6-16.53,6.52-5,12.91-10.15,19.57-14.94,8.66-6.24,17.54-12.16,27.29-16.65A51.13,51.13,0,0,1,811,17.59a27,27,0,0,1,15.21,2.19,50.7,50.7,0,0,1,19.33,14.86c5.76,7,9.72,15,13,23.31,1.64,4.17,2.14,8.65,2.75,13.06,1.66,12.07,1,24.21.77,36.32a75.48,75.48,0,0,1-1.4,13.26c-.82,4.23-1.13,8.56-2,12.77A177,177,0,0,1,850,163.2c-1.54,3.88-3.14,7.75-5,11.51a158,158,0,0,1-16.12,25.56c-4,5.3-7.9,10.63-11.72,16-5.14,7.3-10.31,14.6-15.19,22.08-3.69,5.66-7,11.59-10.4,17.45a53.56,53.56,0,0,0-2.32,5.11,14.22,14.22,0,0,1-2.38,4.31c-.53-.36-1.12-.56-1.39-1q-5.07-7.78-10.07-15.63c-.39-.6-.63-1.3-1-1.92a4.17,4.17,0,0,1,0-4.5c1.89-3.41,3.6-6.92,5.62-10.24,3.29-5.43,6.56-10.88,10.2-16.06,4.63-6.59,9.7-12.88,14.44-19.4,4.57-6.29,9-12.7,13.41-19.09A207.32,207.32,0,0,0,834.48,149a122,122,0,0,0,9.21-26.49c.65-2.93.65-6,1.2-9,1.37-7.31.62-14.68.78-22,0-2.16.19-4.34-.64-6.43a2.22,2.22,0,0,1-.12-.85c.26-5.24-1-10.32-1.92-15.39-1.34-7.22-3-14.41-7.37-20.59-5-7-11.64-10.86-20.44-11-6.67-.11-12.81,1.74-18.76,4.39a111.47,111.47,0,0,0-21.07,12.71c-4.85,3.61-9.66,7.29-14.48,10.93a109.33,109.33,0,0,0-12.11,10.43c-2.22,2.27-4.52,4.47-6.73,6.75a73,73,0,0,0-12.62,17.45A306.37,306.37,0,0,0,712.9,138c-.86,2.44-1.77,4.87-2.7,7.29A21.62,21.62,0,0,1,709,147.52Z"/><path class="cls-4" d="M330.59,248.92c-3.47,5.16-6.31,11-10.75,15.87-1.89-3.89-3.66-7.67-5.54-11.39a197.24,197.24,0,0,0-12.55-20.7c-8.5-12.69-17.45-25.06-26.55-37.33a112,112,0,0,1-10.34-16.47,180.59,180.59,0,0,1-10.73-25,196.52,196.52,0,0,1-5.74-23c-1-5.36-1.74-10.78-2.55-16.17a20.41,20.41,0,0,1-.1-2.6c-.07-2.44.13-4.91-.68-7.3a6.65,6.65,0,0,1-.14-2.15c0-6.5-.41-13,.09-19.5.74-9.58,1.17-19.26,4.88-28.36S258,37.21,265.13,30.38a71.78,71.78,0,0,1,8.41-7.45,39.87,39.87,0,0,1,15.55-6.22,24.63,24.63,0,0,1,7.76,0,45.12,45.12,0,0,1,13.9,4.55,144,144,0,0,1,22.52,13.68c5.88,4.4,11.91,8.59,17.76,13,4.93,3.74,9.65,7.76,14.54,11.55,5.81,4.49,11.62,9,17.58,13.26,5.15,3.69,10.52,7.08,15.8,10.58a28.43,28.43,0,0,0,2.63,1.51,433.75,433.75,0,0,0,47,21l18.59,7.06a14.3,14.3,0,0,1,1.46.76c.08,1-.72.76-1.13,1a7.34,7.34,0,0,1-1.63.57,196.6,196.6,0,0,0-21.26,5.73,126.25,126.25,0,0,0-24.15,10.49,186.27,186.27,0,0,0-19.34,13c-2.76,2.07-5.23,4.52-7.85,6.79-.52.45-1.1.83-1.6,1.2-.41-.26-.78-.36-.85-.56-3.28-9.23-6.71-18.41-10.65-27.39-4.75-10.84-9.52-21.68-16.39-31.39-3.24-4.58-6.81-8.92-10.17-13.42-2.69-3.61-6.16-6.51-8.93-10-3.81-4.79-8.79-8.3-13-12.64a48.7,48.7,0,0,0-7.16-5.55,138.51,138.51,0,0,0-15.27-9.8,44.12,44.12,0,0,0-14.86-4.29c-3.05-.42-6,.5-8.91,1.32a40.05,40.05,0,0,0-16,9.14,46.31,46.31,0,0,0-5.1,5.29c-1.92,2.38-2.83,5.32-3.92,8.14C258.59,66,257.83,71,257.05,76a154.83,154.83,0,0,0-1.71,28.86c.06,2,.41,4,.6,6,.09.86.15,1.73.18,2.59a79.79,79.79,0,0,0,7.76,31.21c5.69,12.07,13.23,23,21.12,33.66q8.6,11.63,17.74,22.85a193.94,193.94,0,0,1,13.9,19.26,158.82,158.82,0,0,1,13.94,27.8A2.83,2.83,0,0,1,330.59,248.92Z"/><path class="cls-6" d="M206.07,329.38c-.11-.25-.23-.5-.33-.75-.55-1.33-.55-1.33,1-1.88a47.29,47.29,0,0,0,16.87,2.87c2.73-.1,5.46,0,8.18-.16a31.94,31.94,0,0,0,8.83-1.51,22.79,22.79,0,0,0,3.42-.37c6.65-1.69,13.36-3.24,19.71-5.95l1.11-.82-.05,0c3.41.23,6-1.77,8.8-3.22,1.15-.6,2.22-1.34,3.33-2,3-.07,5.52-1.58,8.09-2.78A212.72,212.72,0,0,0,305.2,302c6.15-3.73,12.36-7.37,18.54-11.06a9.55,9.55,0,0,0,1.37-1,1.19,1.19,0,0,0-.48-1.79,10.1,10.1,0,0,0-5.12.15,24,24,0,0,1-3.38.47,14,14,0,0,1,4.61-4.58c6.54-4.2,13-8.53,19.53-12.73,6-3.84,11.17-8.54,16.43-13.26,9.47-8.49,18.1-17.81,27.31-26.54,3.95-3.75,8.35-7,12.34-10.76a141.31,141.31,0,0,1,14-10.84c6-4.36,12.92-6.87,20.05-8.87a123.86,123.86,0,0,1,13.41-3.07c3.38-.57,6.74-1.56,10.24-1.25a4.77,4.77,0,0,0,1.73-.06c5-1.47,10.08-1,15.05-.66,6.69.51,13.42,1.17,19.9,3.29a86.24,86.24,0,0,1,19.83,9.47,117.55,117.55,0,0,1,24.14,20.83A155.93,155.93,0,0,1,548,246.58c1.66,2.48,3.41,4.89,5.48,7.53,1-1.3,1.77-2.28,2.51-3.3,3.46-4.76,6.67-9.74,10.43-14.26a142.91,142.91,0,0,1,14.76-15.77c8.77-7.79,18.32-14.44,29.21-18.93a62.38,62.38,0,0,1,10.72-3.21,92.94,92.94,0,0,1,23.6-1.77c1.7.08,3.39.72,5.09.76,7.38.17,14.51,1.91,21.61,3.59A140.68,140.68,0,0,1,694,208.61a33.8,33.8,0,0,1,6.76,3.82c3.13,2.29,6.48,4.26,9.35,6.93,3.15,2.93,6.57,5.57,9.87,8.34a11.37,11.37,0,0,1,1,.87c4.7,4.69,9.73,9.11,14,14.16C741,249.91,748,256.12,754.43,263a45.27,45.27,0,0,0,7.59,6.39c5,3.41,10.2,6.5,15.19,9.9,3.92,2.66,8.25,4.78,11.47,8.39.36.41.67.87,1.3,1.7a9.3,9.3,0,0,1-2.76,0,7.74,7.74,0,0,0-4.24-.46,1.72,1.72,0,0,0-1.2,1,2.34,2.34,0,0,0,.45,1.55,2.76,2.76,0,0,0,1,.78c7.15,4.31,14.22,8.75,21.47,12.87,6,3.42,12.22,6.51,18.38,9.65a12.44,12.44,0,0,0,6.16,1.8c1.18.75,2.33,1.55,3.54,2.25,2.66,1.55,5.32,3.13,8.57,3l0,0,1.13.85c2.69,1,5.37,2,8.09,2.95a121.12,121.12,0,0,0,28.21,5.61,40.42,40.42,0,0,0,10.29-.79c2.38-.42,4.76-.81,7.13-1.27,1.51-.29,3-.69,4.5-1,.42,1.57-.46,2.44-1.09,3.3-3.36,4.62-6.8,9.18-10.2,13.77-.42.57-.81,1.17-1.21,1.75-2.17,1.88-3.77,4.25-5.9,6.46l3.18,1.2c-.72,1.92-1.27,3.71-2.05,5.38a43.62,43.62,0,0,1-8.2,11.61c-3.89,4-8,7.89-12,11.83-.43.43-.82.9-1.62,1.78,3.54-.09,6.24-1.24,9-1.7s5.44-2.44,8.8-2.54c-.36.87-.53,1.4-.78,1.89a90.56,90.56,0,0,1-13.88,19.21q-4.8,5.26-9.62,10.52-3.87,3.41-7.76,6.82c-2.49,2.17-5,4.35-7.5,6.47s-5.55,4-7.9,6.47c1.21,1.75,3.06,1,4.45,1.61s3.21.42,4.19,2.3a14.25,14.25,0,0,1-1,2.14,98.49,98.49,0,0,1-19.17,22c-1.54,1.27-2.91,2.77-4.35,4.16a13.65,13.65,0,0,0-1.51.81c-4.68,3.27-9.29,6.65-14,9.82-3.66,2.44-7.5,4.62-11.26,6.92a306.24,306.24,0,0,1-31.13,14.47,13,13,0,0,0-1.83,1.07,16.4,16.4,0,0,0-2.1.48c-12.16,4.52-24.36,8.94-36.44,13.64-5.76,2.24-11.31,5-16.95,7.54a7.6,7.6,0,0,0-1.28.21c-10.91,3.85-22.23,5.93-33.62,7.55-10.24,1.45-20.54,2.46-30.82,3.6-6.43.71-12.89,1.16-19.3,2A77.47,77.47,0,0,0,604.46,535c-2.71.79-5.56,1.54-7.72,3.62a15.21,15.21,0,0,0-6.77,4.14,45.08,45.08,0,0,0-10.1,7c-2,.07-3.29,1.43-4.71,2.56L562,557.57a7,7,0,0,0-4.15.82A39.86,39.86,0,0,1,543,556.91a84.54,84.54,0,0,1-13-5.47l-5-2.72a5,5,0,0,0-.87-1c-3.82-2.57-7.66-5.11-11.49-7.66a42.37,42.37,0,0,0-15.4-6.57c-6.61-1.28-13.34-2-20-2.83-3.84-.48-7.73-.66-11.58-1.1q-9.63-1.1-19.24-2.38-7.68-1-15.33-2.29c-4.53-.75-9.05-1.63-13.57-2.45-3.26-1.06-6.59-2-9.78-3.23-5.07-2-10-4.34-15.09-6.31-11.64-4.52-23.34-8.91-35-13.33a9.34,9.34,0,0,0-1.69-.31,5.9,5.9,0,0,0-1.07-.69c-8.85-3.51-17.63-7.17-26.16-11.39-2.71-1.34-5.34-2.87-8.13-4a26.16,26.16,0,0,1-6.73-3.66,21.42,21.42,0,0,0-3.81-2c-7.94-5.47-16.1-10.63-23.34-17.07a98.51,98.51,0,0,1-11.56-11.64c-3.16-3.92-6.2-7.93-9.29-11.9l-.62-2.46c2.64-2,6.13-1.44,9.06-3.29-.8-.71-1.41-1.28-2.05-1.81-4.34-3.57-8.81-7-13-10.73a179.47,179.47,0,0,1-16.56-16.42c-2.53-2.95-5.12-5.86-7.45-9-2.94-3.9-5.63-8-8.43-12l.19-1.91,6.64,2a31,31,0,0,0,10.64,2.32c-.06-.27,0-.63-.21-.78-2.88-2.56-5.78-5.08-8.67-7.62a13.09,13.09,0,0,0-1.64-2c-4.4-3.62-7.37-8.33-10.15-13.16-1.2-2.08-2.34-4.27-2.07-6.8l2.55-1.29c-.56-.74-.95-1.31-1.38-1.84-3-3.64-6.16-7.23-9.11-10.94C211,336.11,208.56,332.72,206.07,329.38Zm102-25.15v0c-1.3.6-2.63,1.14-3.9,1.8-4.46,2.34-8.88,4.79-13.37,7.07a218.5,218.5,0,0,1-33.91,14,117.07,117.07,0,0,1-25.75,5.26,53.7,53.7,0,0,1-12.48-.09c-2.11-.33-4.25-.45-6.72-.69a28.87,28.87,0,0,0,6,8.39,73.79,73.79,0,0,0,11.49,12.9c.57.52,1.58.87,1.09,2.26l-5.59.69a35.57,35.57,0,0,0,1.5,3.34,59.15,59.15,0,0,0,7.74,10.4,95.44,95.44,0,0,0,18.66,16.07c.75.47,1.48.92,1.5,1.93a31,31,0,0,1-10.72-.62c-2.64-.67-5.33-1.17-8-1.72-.64-.13-1.39-.46-2,.66.68,1.06,1.38,2.29,2.2,3.43,8.34,11.51,18.43,21.35,29.14,30.6a7.42,7.42,0,0,0,1.51.78v0c1.41,1.85,17.06,12.11,19.94,13.8-.85,1.24-2.07.63-3.15.58-2.14-.1-4.3-.52-6.43-.41-2.37.12-4.82.29-7,1.53,1.06,3.14,2.92,5.76,6.16,8.77h0c.47,1.48,4.35,5.32,4.35,5.32s11.86,11.35,18.54,16.18c13.14,9.49,27.45,16.9,42.27,23.38,11.88,5.19,24.06,9.64,36.25,14,5.55,2,11.08,4.06,16.61,6.09l3.51,1.56,6,2.77,1.77.74,2.58.94a7.52,7.52,0,0,0,4.37,1.51l1.65.41c2.75.8,5.46,1.75,8.25,2.38,15.79,3.56,31.88,5.07,47.93,6.89,7.88.9,15.77,1.74,23.63,2.78A44.09,44.09,0,0,1,510,535.31c3.87,2.24,7.68,4.6,11.38,7.11a108.17,108.17,0,0,0,16.85,9.74c9.43,4.14,18.89,4.66,28.52.55a80.31,80.31,0,0,0,13-6.93c4.21-2.79,8.36-5.67,12.64-8.36a44.22,44.22,0,0,1,16.37-6.59c6.69-1.07,13.43-1.88,20.16-2.67q11.8-1.38,23.66-2.53a279.46,279.46,0,0,0,29.92-4.55c7.22-1.51,14.38-3.33,21-6.5,7.84-3.72,15.94-6.78,24.08-9.71,13.72-4.94,27.42-9.92,40.73-15.9,14.39-6.46,28.27-13.83,41-23.3a117.24,117.24,0,0,0,24.86-24.57c.83-1.14,1.95-2.17,1.92-3.76a4.09,4.09,0,0,0-3.16-1.18c-3.18-.08-6.35-.1-9.52-.14a16.91,16.91,0,0,1-1.73.07c-.62-.07-1.39.41-2-.59,1.15-.62,2.24-1.28,3.39-1.82a57.31,57.31,0,0,0,10.21-6.5,212,212,0,0,0,24.81-22.25,122.34,122.34,0,0,0,14-17.07c.33-.5,1.07-1,.3-1.91l-3.3.79-10.49,2.38-5.1.09-1.48-1.33a3.72,3.72,0,0,1,.39-.47c.71-.49,1.44-1,2.15-1.45a95.7,95.7,0,0,0,22.72-21.68,49.91,49.91,0,0,0,3.44-5.48A4.93,4.93,0,0,0,881,357c-1.89-1-3.92-.06-5.76-1.2,2.55-2.53,5-4.77,7.18-7.17s4.22-4.73,6.15-7.25,4.29-4.93,5.59-8a3.79,3.79,0,0,0-1-.38,9,9,0,0,0-1.72.1c-8.64,1.51-17.22.9-25.75-.75-4.37-.85-8.72-1.81-13.08-2.72L849,328.23c-3.94-1.42-7.93-2.71-11.81-4.25-22.24-8.87-42.74-20.94-62.62-34.14a14,14,0,0,1-1.71-1.73l8.67-2.28c-1.44-1-2.47-1.78-3.53-2.47-4.83-3.16-9.78-6.16-14.49-9.49A99.78,99.78,0,0,1,752.31,265c-5.24-4.95-10.19-10.23-15.14-15.49-8.11-8.63-16.42-17.05-25.31-24.89-9.44-8.32-19.86-14.72-32.12-18.18-15.5-4.39-31.11-7.36-47.34-6.39a68.42,68.42,0,0,0-30,8.89c-11.44,6.48-21.08,15.13-29.72,24.94a190.56,190.56,0,0,0-17.3,23.26,22.91,22.91,0,0,1-1.76,2.2c-.51-.28-.82-.35-1-.55a13.7,13.7,0,0,1-1.27-1.75,177.83,177.83,0,0,0-18.07-24.3,117.43,117.43,0,0,0-25-21.92,72.68,72.68,0,0,0-36.69-11.62,131,131,0,0,0-34,2.95c-11.4,2.55-22,6.81-31.21,14.23-7.67,6.16-15.17,12.48-22.24,19.29q-12.63,12.18-25.13,24.49A110.84,110.84,0,0,1,341.87,274c-4.71,3.08-9.46,6.09-14.18,9.16a29.43,29.43,0,0,0-2.3,1.84l8,2C333.31,287.52,309.18,302.81,308.06,304.23Z"/><path class="cls-7" d="M841.12,79c-.47-.28-1.12-.46-1.38-.87-.74-1.23-1.27-2.59-2-3.83A45.51,45.51,0,0,0,826.5,60.8c-7.28-5.7-15.07-6.6-23.54-3.39a68.77,68.77,0,0,0-14.67,8.13c-5.45,3.78-10.36,8.22-15.54,12.32a28.78,28.78,0,0,0-2.2,2.08c-3.89,3.86-7.81,7.7-11.64,11.61A118,118,0,0,0,740.5,115.4a91.27,91.27,0,0,0-4.72,10.18c-3.8,9.18-6.88,18.62-9.88,28.09-.83,2.6-1.72,5.17-2.57,7.76L712.1,150.5c.25-1.05.42-2,.72-2.95A308.69,308.69,0,0,1,732,101.65,76.07,76.07,0,0,1,744.87,83.8a169,169,0,0,1,18-16.24c8.63-6.78,17.32-13.48,26.83-19a65,65,0,0,1,14.15-6.45c4.29-1.29,8.64-2.24,13.2-1.71,8.51,1,14.35,5.67,18.1,13.1a38.48,38.48,0,0,1,2.92,8.13c1.23,5,2.15,10.15,3.14,15.25A8.52,8.52,0,0,1,841.12,79Z"/><path class="cls-7" d="M356,88.34c-1.41.21-2.51-.57-3.58-1.28a101.58,101.58,0,0,0-14.38-7.92,135.3,135.3,0,0,0-33.14-10.83,46.23,46.23,0,0,0-6.41-.72,11.91,11.91,0,0,1-3-.31,10.84,10.84,0,0,0-5.95,0c-2.64.67-5.4.42-8.1,1.11a25.77,25.77,0,0,0-11.17,6.2c-4.77,4.31-7.63,9.7-9.69,15.62-.31.87-.56,1.64-1.6,1.77-.64-4.22.37-8.35.8-12.49A95.46,95.46,0,0,1,263,63.39a25.64,25.64,0,0,1,10.48-14.9A75.67,75.67,0,0,1,282,43.33a24.89,24.89,0,0,1,19.77-1.23A51,51,0,0,1,310.43,46a125.3,125.3,0,0,1,23.65,17.43,188.61,188.61,0,0,1,20.68,22.72A16,16,0,0,1,356,88.34Z"/><path class="cls-6" d="M323.49,116.65c-5.43,1.61-10.46,1.35-15.4,1.47-.56,1,.14,1.42.6,1.91a141,141,0,0,0,41.23,31.16c.9.45,1.75,1,2.6,1.54.06,0,0,.26,0,.53-7.33,1.36-14.75.09-22.17.22.1.54.06.91.21,1,5,4.14,10,8.25,15,12.38a57.41,57.41,0,0,0,15.63,9.16c.79.31,1.55.68,2.66,1.16a2.83,2.83,0,0,1-2.49.39,29.73,29.73,0,0,1-14.62-6.06c-4.16-3.36-8.24-6.81-12.46-10.08s-8.36-6.17-12.54-9.25c-.44-.33-.83-.74-1.53-1.37.76-.31,1.23-.68,1.69-.67,3.61.07,7.21.2,10.81.34,2.31.09,4.61.25,6.92.35.51,0,1-.06,2.25-.13-2.56-2.25-5.07-3.32-7.25-4.85s-4.59-3-6.81-4.62-4.37-3.32-6.47-5.08-4.15-3.59-6.15-5.46-3.93-3.83-5.87-5.77-3.87-3.89-5.78-5.87a65.42,65.42,0,0,1-5.64-5.87c4.73.94,9.21,2.6,14,1.93.33-1.29-.65-1.64-1.24-2.15a92.91,92.91,0,0,1-14.22-15.11,56.8,56.8,0,0,1-8.67-16.39,16.41,16.41,0,0,1-.56-2.52c0-.25.16-.53.26-.81,1.42.29,1.51,1.63,2,2.61A73.22,73.22,0,0,0,300.29,98c3.49,4,7.24,7.84,11,11.6a23.71,23.71,0,0,0,9.51,5.85A26.69,26.69,0,0,1,323.49,116.65Z"/><path class="cls-7" d="M286,72c.74,1.56,2.13,3,1,5.06C285.05,75.58,285.67,73.72,286,72Z"/><path class="cls-6" d="M813.72,76.89c-1.45,3.43-2.82,6.9-4.35,10.29a47,47,0,0,1-9.52,13.75c-2.74,2.75-5.54,5.44-8.31,8.15l-2,1.94c.29,1,.94.86,1.47.88a28.16,28.16,0,0,0,9.77-1.29,19.21,19.21,0,0,1,3.33-.45l-.07-.06c-.12.26-.17.59-.36.76-5.21,4.65-9.2,10.35-13.66,15.65a51,51,0,0,1-14.9,12.36c-3.43,1.85-6.84,3.72-10.26,5.6-1.24.68-2.47,1.4-3.62,2.06.1,1.08.78.93,1.29.91,3-.15,6.05-.35,9.07-.48,2.59-.12,5.19-.2,7.78-.21a10.61,10.61,0,0,1,2.33.61,11.61,11.61,0,0,1-1.42,1.42c-4.78,3-8.91,6.85-13.12,10.6-3.44,3.07-7,6.07-10.68,8.8a36.85,36.85,0,0,1-13.11,6.48,13.5,13.5,0,0,1-5.47.24c-.21-.88.29-1.16.85-1.33,10-3,18.43-8.78,26-15.91,2.5-2.36,5.07-4.64,7.74-7.09-1-.94-2-.48-2.92-.5s-2,.06-3,.12-1.73.15-2.59.2q-1.51.09-3,.12c-1,0-2,0-3,0s-2,0-3-.07-1.73-.08-2.59-.17-1.89-.24-3.08-.4c1-1.36,2.32-1.67,3.42-2.27q10.1-5.46,20.23-10.82a48,48,0,0,0,14.69-11.94c2-2.45,4-4.9,6-7.38a21.43,21.43,0,0,0,1.29-2.14c-5.32-.77-10.37-.32-15.46-1.88a8.85,8.85,0,0,1,1.32-1c4.51-1.8,8.12-4.87,11.64-8.12a81,81,0,0,0,18.41-24.9c.37-.77.77-1.53,1.16-2.3Z"/><path class="cls-7" d="M813.72,76.89l-1.82.29c1.15-3.7,1.15-3.7,3.24-5.85C815.83,73.57,814.76,75.23,813.72,76.89Z"/><path class="cls-7" d="M816.08,69.26l-.32.61c-.09-.09-.26-.21-.24-.27a3.93,3.93,0,0,1,.3-.62Z"/><path class="cls-6" d="M804.13,110.16l.29-.47c0,.09,0,.21,0,.24a1.54,1.54,0,0,1-.34.17Z"/><path class="cls-8" d="M413.88,517.85c.46-.26,1-.8,1.37-.72,4.08.79,8.13,1.77,12.22,2.52,3.38.61,6.8,1,10.2,1.46,3.83.51,7.67,1,11.5,1.49a4.38,4.38,0,0,0,.85.16c4.49-.27,8.88.7,13.33.93,2.72.15,5.46-.17,8.14.73a12.3,12.3,0,0,0,3.45.16c2.58.06,5.2-.27,7.71.72a5.66,5.66,0,0,0,1.71.14,81.08,81.08,0,0,1,16.93,2.91c8.69,2.22,16.82,5.93,25.14,9.14,6.71,2.58,13.37,5.47,20.5,6.64,5.4.88,10.86,1,16-1.68,5-2.6,9.86-5.38,14.59-8.43,5.55-3.6,11.11-7.25,17-10.31s12.3-5.58,19.2-6.12c3.27-.26,6.51-1,9.77-1.45a27.51,27.51,0,0,1,3-.22c2.3-.08,4.62.2,6.85-.7a6,6,0,0,1,2.14-.17c2.59,0,5.19.15,7.71-.75a8.54,8.54,0,0,1,2.59-.12c1.87,0,3.75.14,5.54-.67a2.53,2.53,0,0,1,1.28-.16c3.92.42,7.72-.74,11.58-1,4.56-.34,9-1.5,13.58-2.12,4.85-.67,9.59-1.84,14.32-3a74.72,74.72,0,0,0,16.21-5.9c7.22-3.62,14.76-6.5,22.2-9.61,4.78-2,9.57-4,14.33-6,7-3,14-6,20.95-9.23,3.92-1.81,7.67-4,11.49-6,.51-.27,1-.56,1.52-.82a220,220,0,0,0,27.07-16.15C811,449.94,816,446.34,821,442.77a3.91,3.91,0,0,0,.65-.57,1.6,1.6,0,0,0-.36-2.56c-1-.59-2-1.1-3.05-1.62-1.29-.66-2.61-1.25-3.87-1.95a3.7,3.7,0,0,1-2.25-2.79,90.11,90.11,0,0,1,8-4.71,205.35,205.35,0,0,0,21.38-13.84c3.83-2.79,7.64-5.63,11.2-8.75a45,45,0,0,0,8-8.45c1.28-1.9,2.85-3.61,4.21-5.46a9.68,9.68,0,0,0,.8-2.34l-2.32.2c-1.66.14-3.43.91-4.78-.81l10.49-2.38,3.3-.79c.77.88,0,1.41-.3,1.91a122.34,122.34,0,0,1-14,17.07,212,212,0,0,1-24.81,22.25,57.31,57.31,0,0,1-10.21,6.5c-1.15.54-2.24,1.2-3.39,1.82.57,1,1.34.52,2,.59a16.91,16.91,0,0,0,1.73-.07c3.17,0,6.34.06,9.52.14a4.09,4.09,0,0,1,3.16,1.18c0,1.59-1.09,2.62-1.92,3.76a117.24,117.24,0,0,1-24.86,24.57c-12.69,9.47-26.57,16.84-41,23.3-13.31,6-27,11-40.73,15.9-8.14,2.93-16.24,6-24.08,9.71-6.67,3.17-13.83,5-21,6.5a279.46,279.46,0,0,1-29.92,4.55q-11.85,1.17-23.66,2.53c-6.73.79-13.47,1.6-20.16,2.67a44.22,44.22,0,0,0-16.37,6.59c-4.28,2.69-8.43,5.57-12.64,8.36a80.31,80.31,0,0,1-13,6.93c-9.63,4.11-19.09,3.59-28.52-.55a108.17,108.17,0,0,1-16.85-9.74c-3.7-2.51-7.51-4.87-11.38-7.11a44.09,44.09,0,0,0-16.35-5.41c-7.86-1-15.75-1.88-23.63-2.78-16.05-1.82-32.14-3.33-47.93-6.89C419.34,519.6,416.63,518.65,413.88,517.85Z"/><path class="cls-8" d="M308.07,304.2a2,2,0,0,1-1.21,2.07c-3.37,1.94-6.64,4-10.05,5.87-7,3.74-13.92,7.57-21.07,10.94a244.31,244.31,0,0,1-23.44,9.84A150.33,150.33,0,0,1,233.64,338a14.47,14.47,0,0,1-3,.17c-3.41,0-6.8.7-10.23,0A1.85,1.85,0,0,0,218,340a28.87,28.87,0,0,1-6-8.39c2.47.24,4.61.36,6.72.69a53.7,53.7,0,0,0,12.48.09,117.07,117.07,0,0,0,25.75-5.26,218.5,218.5,0,0,0,33.91-14c4.49-2.28,8.91-4.73,13.37-7.07C305.44,305.34,306.77,304.8,308.07,304.2Z"/><path class="cls-8" d="M853.54,389.21c-.2.21-.37.53-.6.6a18.37,18.37,0,0,1-7.53.08c-.23-1.65,1.06-1.88,1.76-2.39q4.88-3.54,9.9-6.89A77.69,77.69,0,0,0,871.74,368a41.42,41.42,0,0,0,3.88-5.67,5.45,5.45,0,0,0,.36-1.75c-2.59-1.49-5.43-1.95-8.46-3,.49-.59.77-1,1.12-1.36,1.66-1.6,3.31-3.22,5-4.77,1.16-1.06,2.42-2,3.61-3.05a10.12,10.12,0,0,0,2.22-2c1.7-2.74,4.12-4.79,6.3-7.08,1-1.07,1-1.08,1.75-3.6a13.24,13.24,0,0,0-3.4,0c-3.71,1-7.31.49-11.06.1-4.92-.51-9.52-2.11-14.31-3a42.8,42.8,0,0,1-4.92-1.61,1.74,1.74,0,0,1-1.22-1.6c4.36.91,8.71,1.87,13.08,2.72,8.53,1.65,17.11,2.26,25.75.75a9,9,0,0,1,1.72-.1,3.79,3.79,0,0,1,1,.38c-1.3,3.09-3.63,5.45-5.59,8s-4,4.93-6.15,7.25-4.63,4.64-7.18,7.17c1.84,1.14,3.87.24,5.76,1.2a4.93,4.93,0,0,1-.27,1.83,49.91,49.91,0,0,1-3.44,5.48A95.7,95.7,0,0,1,854.6,386c-.71.49-1.44,1-2.15,1.45a3.72,3.72,0,0,0-.39.47Z"/><path class="cls-8" d="M254.35,387.55l.8,1.16a11.28,11.28,0,0,1-5.81,1.48c-1.86-.05-3.73,0-5.59.08a1.36,1.36,0,0,0-1.08,2.19c2.52,3.82,4.92,7.73,8.14,11a50.44,50.44,0,0,1,5.13,5.77c1.21,1.71,3.09,2.93,4.66,4.39,1.78,1.66,3.59,3.29,5.27,5.05.42.44.39,1.3.56,2a6.92,6.92,0,0,1-1.51-.77c-10.71-9.25-20.8-19.09-29.14-30.6-.82-1.14-1.52-2.37-2.2-3.43.65-1.12,1.4-.79,2-.66,2.68.55,5.37,1.05,8,1.72A31,31,0,0,0,254.35,387.55Z"/><path class="cls-8" d="M286.37,434.45l1.8.48c-1.73,2.62-4.5,2.05-6.59,2.92a69.84,69.84,0,0,1-6.93,2.08c.11,1.93,2.07,3.13,1.33,5-3.24-3-5.1-5.63-6.16-8.77,2.15-1.24,4.6-1.41,7-1.53,2.13-.11,4.29.31,6.43.41C284.3,435.08,285.52,435.69,286.37,434.45Z"/><path class="cls-9" d="M552.55,436.51A51.72,51.72,0,0,1,526,429.14a36.24,36.24,0,0,1-11.65-10.8,24.82,24.82,0,0,1,.86-29.85,37.19,37.19,0,0,1,14.59-11.24A51.49,51.49,0,0,1,549,372.66c9.68-.43,19,1,27.71,5.4a38.68,38.68,0,0,1,14.58,12,25.09,25.09,0,0,1,4.8,18.37,25.41,25.41,0,0,1-6,13.21,36.92,36.92,0,0,1-11.83,9.29C570.7,434.79,562.59,436.48,552.55,436.51Zm19-54.91c-.68-2-2.13-2.65-3.61-3.22a31.52,31.52,0,0,0-6.74-1.38c-8.87-1.39-17.52-.27-26.06,2a19.42,19.42,0,0,0-5.43,2.56c-2,1.28-1.73,3.26.31,4.49a9.93,9.93,0,0,0,2,.85,25.27,25.27,0,0,0,8,1.56c4.18,0,8.37.14,12.54-.07a49.2,49.2,0,0,0,13.52-2.6C568.28,385,570.36,384.07,571.54,381.6Z"/><path class="cls-2" d="M850.22,356.83a22.28,22.28,0,0,1-1.47,2.93c-2.51,3.71-5,7.47-7.67,11-9.64,12.64-19.4,25.18-29.07,37.78a68.59,68.59,0,0,1-15.1,14.21,110.84,110.84,0,0,1-39.54,18.05c-7.63,1.73-15.34,2.75-23.2,1.54a55.85,55.85,0,0,1-15.59-5.07A111.57,111.57,0,0,1,697.86,424c-8.09-6.37-15.21-13.75-22.35-21.12-6.43-6.64-12.88-13.27-19.49-19.74a198.65,198.65,0,0,0-26.18-22,150.14,150.14,0,0,0-15.1-9.32A51.15,51.15,0,0,1,595,333.39a82,82,0,0,1-9.59-22.64,113.09,113.09,0,0,1-3.94-31.27,50.07,50.07,0,0,1,6.79-25.24c5.85-9.87,14.1-16.68,25.32-19.65a47,47,0,0,1,16.78-1,121.62,121.62,0,0,1,33.83,8.8,124.68,124.68,0,0,1,27.94,15.55c12.25,9.18,24.48,18.4,36.52,27.86C748.53,301.4,768.25,317.23,788,333a157.57,157.57,0,0,0,22.17,15.11,70.55,70.55,0,0,0,19.25,7.63,42.15,42.15,0,0,0,13.34,1c2.15-.23,4.32-.28,6.48-.37C849.5,356.29,849.73,356.54,850.22,356.83Zm-6,3c-2.15,0-4,0-5.89,0a45.33,45.33,0,0,1-13.56-2.2,87.46,87.46,0,0,1-18.1-8.12c-8.9-5.14-17-11.39-25-17.74-3.61-2.87-7.25-5.68-10.86-8.54q-9.28-7.4-18.55-14.82c-3.37-2.7-6.71-5.43-10.09-8.12q-7.6-6-15.24-12c-5-3.92-9.91-7.89-14.93-11.74-6.28-4.82-12.57-9.63-19-14.29a141.1,141.1,0,0,0-19.34-12.25,139.67,139.67,0,0,0-27-10.39c-7.11-1.89-14.3-3.36-21.73-2.93a33.47,33.47,0,0,1-3.47,0,23.19,23.19,0,0,0-7.68,1,35.83,35.83,0,0,0-17.81,11c-7.55,8.83-11.72,19.08-11.35,30.91.08,2.89-.12,5.79.07,8.66a93.39,93.39,0,0,0,1.2,10.7c.84,4.52,1.93,9,3.13,13.44a80.51,80.51,0,0,0,6.18,15.65c3.31,6.52,8.26,11.78,13.62,16.65a11.17,11.17,0,0,0,2.09,1.52c2.62,1.51,5.34,2.87,7.91,4.45,4.29,2.64,8.61,5.27,12.72,8.18a124.27,124.27,0,0,1,12.93,10.08c4.22,3.92,8.85,7.41,12.91,11.48,8.76,8.78,17.89,17.21,26,26.61,2.72,3.14,6.07,5.73,9.18,8.51,2.79,2.5,5.54,5.07,8.49,7.36a106.85,106.85,0,0,0,21.39,13c4,1.8,8.07,3.45,12.35,3.73a69.87,69.87,0,0,0,15.94-.49A91.57,91.57,0,0,0,772,433c11-4.68,21.52-10.47,30.63-18.44a37.55,37.55,0,0,0,4.54-4.64c5.42-6.72,10.83-13.44,16.09-20.29,6.39-8.34,12.65-16.78,18.86-25.25C843,363.18,844.33,362.07,844.19,359.79Z"/><path class="cls-2" d="M255.82,355.25a17.14,17.14,0,0,1,2-.11c1.73.11,3.45.27,5.18.42a50.29,50.29,0,0,0,24.08-4.12,106.12,106.12,0,0,0,22.14-12.64c8.48-6.27,16.77-12.79,25.06-19.3,21.38-16.75,42.68-33.59,64.09-50.29,6.26-4.88,12.71-9.55,19.25-14a133.17,133.17,0,0,1,49.59-20.75A76.26,76.26,0,0,1,484,233a38.79,38.79,0,0,1,29,13.43,45.15,45.15,0,0,1,11.75,27.38,104.43,104.43,0,0,1-8.57,50.31,62.54,62.54,0,0,1-7.92,13.39,44,44,0,0,1-14.63,12.66c-13.77,7-25.94,16.24-37.24,26.64-6.91,6.35-13.51,13-20.18,19.65-4.2,4.17-8.24,8.51-12.4,12.72-9.08,9.17-18.87,17.46-30,24a68.44,68.44,0,0,1-17.45,7.49,46.56,46.56,0,0,1-16.75,1.15c-16.44-1.71-31.3-7.78-45.13-16.53a131.43,131.43,0,0,1-12.18-9,40.58,40.58,0,0,1-6.08-6.14c-12-14.82-23.64-29.92-34.68-45.48-1.67-2.35-3.19-4.81-4.74-7.25A17.49,17.49,0,0,1,255.82,355.25Zm6.25,4.32c.76,1.37,1.23,2.42,1.88,3.34q4.37,6.16,8.82,12.27,3.83,5.22,7.78,10.36,7.4,9.56,14.9,19,3.23,4.05,6.79,7.82a50,50,0,0,0,4.31,3.59,106.08,106.08,0,0,0,21.5,13.58,94,94,0,0,0,10.36,4.34c8.16,3,16.5,5.09,25.28,4.91,1.87,0,3.75.06,5.63,0a34.16,34.16,0,0,0,4.25-.58c7.38-1.33,13.92-4.82,20.22-8.57a141,141,0,0,0,25.72-20.3c5-4.82,9.66-9.91,14.38-15a216.31,216.31,0,0,1,16.74-16.28c4.68-4,9.17-8.3,14-12.2a159.41,159.41,0,0,1,26.52-17.76,41,41,0,0,0,7.55-5,52.85,52.85,0,0,0,14.47-19.71,85.89,85.89,0,0,0,6.11-18.86c.93-5.23,2.54-10.36,2.25-15.76a5.84,5.84,0,0,1,.15-1.72c1.58-6.05.49-12.07-.61-18a44.73,44.73,0,0,0-8.58-18.66c-6.57-8.78-15.45-13.2-26-14.51-5.89-.73-11.8.15-17.61,1.16-3.95.69-7.79,2-11.71,2.92-8.5,2-16.33,5.67-24.1,9.43a102.4,102.4,0,0,0-16.22,9.9c-7.17,5.31-14.33,10.63-21.43,16-8.47,6.45-16.92,12.92-25.29,19.5-7.69,6.05-15.23,12.28-22.9,18.36s-15.6,12.28-23.45,18.35c-5,3.88-9.95,7.86-15.18,11.41a107.35,107.35,0,0,1-22.39,12.1,48.8,48.8,0,0,1-10.81,3,64.37,64.37,0,0,1-11.6.91A6.51,6.51,0,0,0,262.07,359.57Z"/><path class="cls-6" d="M462.74,414.45A24.33,24.33,0,0,1,488,400.19c-1.31.53-2,.85-2.81,1.12-1.48.54-3,1-4.47,1.59-4.12,1.65-4.25,1.69-4.1,5.94.36,9.87,1.78,19.53,6.67,28.32a34.6,34.6,0,0,0,4.91,7.07c4,4.16,8.27,8,12.45,12a5.06,5.06,0,0,0,1.13.6c.27.48.43,1.13.84,1.4,3.36,2.21,6.66,4.54,10.18,6.47,9.63,5.29,20.17,7.71,31,8.51,10.19.75,20.43.61,30.52-1.54A71.19,71.19,0,0,0,602.82,459c1.24-.93,2.63-1.82,3-3.53,2.06-.56,3.44-2.06,4.84-3.51a32.59,32.59,0,0,1,2.66-2.84c6.85-5.61,10.92-13,13.45-21.28a68.18,68.18,0,0,0,2.58-20.54,4.61,4.61,0,0,0-2.59-4.57L617.51,398c-.74-.38-1.5-.7-3.11-1.45a23,23,0,0,1,12,2.34,24.06,24.06,0,0,1,9.8,8.31,16.89,16.89,0,0,1,3.09,8c-2.49-2.64-3.64-5.6-6.6-7.44a20.19,20.19,0,0,0-.31,4.5,64.13,64.13,0,0,1-4.83,22.31,45.71,45.71,0,0,1-10.83,15.51,15.86,15.86,0,0,0-3,3.63c-6.56,11.55-13,23.17-18.31,35.38-2.29,5.29-4.49,10.64-7.07,15.79a57.69,57.69,0,0,1-12.06,16.29c-5.61,5.3-12.09,8.89-19.83,9.83a21.93,21.93,0,0,1-6-.11c-8.1-1.3-14.93-5.17-20.85-10.76a66.69,66.69,0,0,1-16-23.44c-4.17-10.17-8.78-20.11-13.93-29.8-1.77-3.32-3.58-6.6-5.39-9.9a36.31,36.31,0,0,0-6.64-9c-6.31-6.06-9.91-13.78-12-22.2a58.7,58.7,0,0,1-1.92-15c0-1.15,0-2.29,0-3.86a10.7,10.7,0,0,0-2.12.89c-3.08,2.35-6.11,4.77-8.22,8.1Zm38,46.72-.57-.36.34.59a19.39,19.39,0,0,0,.86,2.39c4.83,9.57,9.89,19,13.74,29.07a14.41,14.41,0,0,0,1.91,2.79,10.19,10.19,0,0,0,1.32,4.51A64.34,64.34,0,0,0,533.7,519.8a34.88,34.88,0,0,0,14.78,7.82,23.28,23.28,0,0,0,11.13-.09,31.12,31.12,0,0,0,12.87-6.82,56,56,0,0,0,15.82-22.89,41.13,41.13,0,0,0,2.39-4.55A181.1,181.1,0,0,1,602,469.07c1.17-2.12,2.64-4.15,3-6.67l.14-.91-.6.46c-1.47.88-3,1.71-4.41,2.65a69.57,69.57,0,0,1-19.62,8.75c-8.22,2.27-16.68,2.89-25.14,3.31-3.13.15-6.3-.51-9.45-.52a77.1,77.1,0,0,1-15.37-1.89,70.72,70.72,0,0,1-22.8-8.88C505.39,464,503.06,462.57,500.74,461.17Z"/><path class="cls-7" d="M605.83,455.45c-.38,1.71-1.77,2.6-3,3.53a71.19,71.19,0,0,1-28.57,12.66c-10.09,2.15-20.33,2.29-30.52,1.54-10.8-.8-21.34-3.22-31-8.51-3.52-1.93-6.82-4.26-10.18-6.47-.41-.27-.57-.92-.84-1.4a20.87,20.87,0,0,1,3.26,1,79.45,79.45,0,0,0,19.57,6.58c3.36.67,6.8,1,10.24,1.35a101.17,101.17,0,0,0,12.9.66c1.85-.05,3.7-.37,5.55-.56.72-.07,1.43-.19,2.15-.19,7.65-.1,15.09-1.65,22.56-3.12a180.69,180.69,0,0,0,24.1-6.57C603.3,455.53,604.49,454.94,605.83,455.45Z"/><path class="cls-7" d="M462.74,414.45l.63,1.59a1.38,1.38,0,0,1-1.44,1.39C461.31,416.2,462.06,415.33,462.74,414.45Z"/><path class="cls-4" d="M571.54,381.6c-1.18,2.47-3.26,3.43-5.47,4.19a49.2,49.2,0,0,1-13.52,2.6c-4.17.21-8.36.08-12.54.07a25.27,25.27,0,0,1-8-1.56,9.93,9.93,0,0,1-2-.85c-2-1.23-2.26-3.21-.31-4.49a19.42,19.42,0,0,1,5.43-2.56c8.54-2.27,17.19-3.39,26.06-2a31.52,31.52,0,0,1,6.74,1.38C569.41,379,570.86,379.62,571.54,381.6Z"/><path class="cls-10" d="M844.19,359.79c.14,2.28-1.21,3.39-2.1,4.6-6.21,8.47-12.47,16.91-18.86,25.25-5.26,6.85-10.67,13.57-16.09,20.29a37.55,37.55,0,0,1-4.54,4.64c-9.11,8-19.6,13.76-30.63,18.44a91.57,91.57,0,0,1-21.15,6,69.87,69.87,0,0,1-15.94.49c-4.28-.28-8.39-1.93-12.35-3.73a106.85,106.85,0,0,1-21.39-13c-2.95-2.29-5.7-4.86-8.49-7.36-3.11-2.78-6.46-5.37-9.18-8.51-8.15-9.4-17.28-17.83-26-26.61-4.06-4.07-8.69-7.56-12.91-11.48a124.27,124.27,0,0,0-12.93-10.08c-4.11-2.91-8.43-5.54-12.72-8.18-2.57-1.58-5.29-2.94-7.91-4.45a11.17,11.17,0,0,1-2.09-1.52c-5.36-4.87-10.31-10.13-13.62-16.65a80.51,80.51,0,0,1-6.18-15.65c-1.2-4.44-2.29-8.92-3.13-13.44a93.39,93.39,0,0,1-1.2-10.7c-.19-2.87,0-5.77-.07-8.66-.37-11.83,3.8-22.08,11.35-30.91a35.83,35.83,0,0,1,17.81-11,23.19,23.19,0,0,1,7.68-1,33.47,33.47,0,0,0,3.47,0c7.43-.43,14.62,1,21.73,2.93a139.67,139.67,0,0,1,27,10.39A141.1,141.1,0,0,1,693,262.19c6.4,4.66,12.69,9.47,19,14.29,5,3.85,10,7.82,14.93,11.74s10.17,8,15.24,12c3.38,2.69,6.72,5.42,10.09,8.12q9.27,7.41,18.55,14.82c3.61,2.86,7.25,5.67,10.86,8.54,8,6.35,16.07,12.6,25,17.74a87.46,87.46,0,0,0,18.1,8.12,45.33,45.33,0,0,0,13.56,2.2C840.17,359.78,842,359.79,844.19,359.79ZM697.44,311.7A62.19,62.19,0,0,0,693,286.24a53.71,53.71,0,0,0-10-16.58c-5.68-6.17-12.48-10.54-20.87-12.31a32.51,32.51,0,0,0-12.45-.39c-10.45,1.84-18.55,7.71-24.88,16-7.23,9.46-10.27,20.5-11.36,32.15A61.08,61.08,0,0,0,614.49,321,62,62,0,0,0,621,339.71a46.83,46.83,0,0,0,18.26,19.14,33.62,33.62,0,0,0,31.15,1.06,40.72,40.72,0,0,0,11.81-8.62,48.83,48.83,0,0,0,11.94-19.82C696.36,324.91,698,318.17,697.44,311.7Z"/><path class="cls-10" d="M262.07,359.57a6.51,6.51,0,0,1,1.71-.61,64.37,64.37,0,0,0,11.6-.91,48.8,48.8,0,0,0,10.81-3A107.35,107.35,0,0,0,308.58,343c5.23-3.55,10.17-7.53,15.18-11.41q11.78-9.1,23.45-18.35c7.67-6.08,15.21-12.31,22.9-18.36,8.37-6.58,16.82-13.05,25.29-19.5,7.1-5.41,14.26-10.73,21.43-16a102.4,102.4,0,0,1,16.22-9.9c7.77-3.76,15.6-7.47,24.1-9.43,3.92-.9,7.76-2.23,11.71-2.92,5.81-1,11.72-1.89,17.61-1.16,10.57,1.31,19.45,5.73,26,14.51a44.73,44.73,0,0,1,8.58,18.66c1.1,5.9,2.19,11.92.61,18a5.84,5.84,0,0,0-.15,1.72c.29,5.4-1.32,10.53-2.25,15.76a85.89,85.89,0,0,1-6.11,18.86A52.85,52.85,0,0,1,498.7,343.1a41,41,0,0,1-7.55,5,159.41,159.41,0,0,0-26.52,17.76c-4.83,3.9-9.32,8.16-14,12.2a216.31,216.31,0,0,0-16.74,16.28c-4.72,5.07-9.41,10.16-14.38,15a141,141,0,0,1-25.72,20.3c-6.3,3.75-12.84,7.24-20.22,8.57a34.16,34.16,0,0,1-4.25.58c-1.88.1-3.76,0-5.63,0-8.78.18-17.12-2-25.28-4.91a94,94,0,0,1-10.36-4.34A106.08,106.08,0,0,1,306.55,416a50,50,0,0,1-4.31-3.59q-3.56-3.76-6.79-7.82-7.53-9.45-14.9-19-4-5.13-7.78-10.36-4.47-6.09-8.82-12.27C263.3,362,262.83,360.94,262.07,359.57Zm230.82-52a47.64,47.64,0,0,0-1-12,59.66,59.66,0,0,0-9.43-22.1,44.56,44.56,0,0,0-7.26-8c-8.29-7.31-17.78-10.77-29-8.93-9.11,1.5-16.35,6.22-22.52,12.7a49.46,49.46,0,0,0-5.87,8c-6,9.71-8.44,20.38-9,31.6a71.41,71.41,0,0,0,5.85,28.07,50.9,50.9,0,0,0,14.31,18.22,31,31,0,0,0,7.79,4.56,34.82,34.82,0,0,0,15.16,2.8A33.48,33.48,0,0,0,466,358.8a42.7,42.7,0,0,0,16.76-15.19A62.48,62.48,0,0,0,492.89,307.6Z"/><path class="cls-11" d="M517,495.65c7.54-2.4,15.31-2.55,23.1-2.16a20.23,20.23,0,0,1,8.69,2.33c.88.47,1.79.9,2.82,1.41,1-.45,2.1-.86,3.11-1.38a23.71,23.71,0,0,1,10.4-2.47,58.17,58.17,0,0,1,23.16,4.44,56,56,0,0,1-15.82,22.89,31.12,31.12,0,0,1-12.87,6.82,23.28,23.28,0,0,1-11.13.09,34.88,34.88,0,0,1-14.78-7.82,64.34,64.34,0,0,1-15.36-19.64A10.19,10.19,0,0,1,517,495.65Z"/><path class="cls-12" d="M605.09,461.49l-.6.46c-1.47.88-3,1.71-4.41,2.65a69.57,69.57,0,0,1-19.62,8.75c-8.22,2.27-16.68,2.89-25.14,3.31-3.13.15-6.3-.51-9.45-.52a77.1,77.1,0,0,1-15.37-1.89,70.72,70.72,0,0,1-22.8-8.88c-2.31-1.41-4.64-2.8-7-4.2h0l-.57-.36.34.59a19.39,19.39,0,0,0,.86,2.39c4.83,9.57,9.89,19,13.74,29.07a14.41,14.41,0,0,0,1.91,2.79c7.54-2.4,15.31-2.55,23.1-2.16a20.23,20.23,0,0,1,8.69,2.33c.88.47,1.79.9,2.82,1.41,1-.45,2.1-.86,3.11-1.38a23.71,23.71,0,0,1,10.4-2.47,58.17,58.17,0,0,1,23.16,4.44,41.13,41.13,0,0,0,2.39-4.55A181.1,181.1,0,0,1,602,469.07c1.17-2.12,2.64-4.15,3-6.66h0C605,462.1,605,461.8,605.09,461.49Zm-104.46-.21h0Z"/><path class="cls-2" d="M697.44,311.7c.56,6.47-1.08,13.21-3.25,19.77a48.83,48.83,0,0,1-11.94,19.82,40.72,40.72,0,0,1-11.81,8.62,33.62,33.62,0,0,1-31.15-1.06A46.83,46.83,0,0,1,621,339.71,62,62,0,0,1,614.49,321a61.08,61.08,0,0,1-1.07-15.91c1.09-11.65,4.13-22.69,11.36-32.15,6.33-8.29,14.43-14.16,24.88-16a32.51,32.51,0,0,1,12.45.39c8.39,1.77,15.19,6.14,20.87,12.31a53.71,53.71,0,0,1,10,16.58A62.19,62.19,0,0,1,697.44,311.7Zm-3.7,7.31c1.63-6,1-12.07.17-18.08a56.15,56.15,0,0,0-9.18-24.06,40.16,40.16,0,0,0-14.12-13.18c-10.64-5.72-21.26-5.68-31.74.52a37.38,37.38,0,0,0-11.25,10c-9.47,12.87-12.68,27.29-10.41,43a2.87,2.87,0,0,0-.15.84,58.38,58.38,0,0,0,7.31,21.6c3.85,6.61,8.8,12.17,15.51,16,9.73,5.52,19.71,6.06,29.84,1.11a37.09,37.09,0,0,0,9.19-6.43c7.65-7.17,12-16.15,14.23-26.24A47.77,47.77,0,0,0,693.74,319Z"/><path class="cls-2" d="M492.89,307.6a62.48,62.48,0,0,1-10.14,36A42.7,42.7,0,0,1,466,358.8a33.48,33.48,0,0,1-14.1,3.69,34.82,34.82,0,0,1-15.16-2.8,31,31,0,0,1-7.79-4.56,50.9,50.9,0,0,1-14.31-18.22,71.41,71.41,0,0,1-5.85-28.07c.58-11.22,3-21.89,9-31.6a49.46,49.46,0,0,1,5.87-8c6.17-6.48,13.41-11.2,22.52-12.7,11.22-1.84,20.71,1.62,29,8.93a44.56,44.56,0,0,1,7.26,8,59.66,59.66,0,0,1,9.43,22.1A47.64,47.64,0,0,1,492.89,307.6ZM488.61,320a8.35,8.35,0,0,0,.62-1.61c2.34-14.82-.08-28.75-8.05-41.57a39.56,39.56,0,0,0-12.34-12.59,31.33,31.33,0,0,0-17.6-5.17,32,32,0,0,0-16.78,5,36.86,36.86,0,0,0-9.44,8.2c-10,12.39-14.28,26.51-12.61,42.39a11,11,0,0,0-.19,2.13c1.18,10.54,4.58,20.24,11.27,28.6A37.61,37.61,0,0,0,438.37,357,29.44,29.44,0,0,0,454,359.39c9-1.24,16.25-5.68,22.24-12.3,6.14-6.79,9.84-14.88,12.08-23.68A20.21,20.21,0,0,0,488.61,320Z"/><path class="cls-13" d="M617.21,317.24c-2.27-15.72.94-30.14,10.41-43a37.38,37.38,0,0,1,11.25-10c10.48-6.2,21.1-6.24,31.74-.52a40.16,40.16,0,0,1,14.12,13.18,56.15,56.15,0,0,1,9.18,24.06c.86,6,1.46,12.07-.17,18.08-1.3,0-2,1-2.76,1.84-5.35,5.49-12.27,7.41-19.5,8.63a3.56,3.56,0,0,1,.12-1.28c3.86-7.63,4.42-15.76,3.18-24-1.27-8.48-4.79-16-11.22-21.86-10.13-9.26-24.08-9-33.82.66a35,35,0,0,0-10.28,22.73c-.34,4.14.1,8.34.18,12.51Z"/><path class="cls-7" d="M671.48,329.48c7.23-1.22,14.15-3.14,19.5-8.63.77-.8,1.46-1.8,2.76-1.84a47.77,47.77,0,0,1-.6,5.09c-2.24,10.09-6.58,19.07-14.23,26.24a37.09,37.09,0,0,1-9.19,6.43c-10.13,5-20.11,4.41-29.84-1.11-6.71-3.81-11.66-9.37-15.51-16a58.38,58.38,0,0,1-7.31-21.6,2.87,2.87,0,0,1,.15-.84l2.43,1c.22.66.48,1.32.64,2,1.78,7.65,5.36,14.28,11.38,19.39,7.66,6.51,17.3,8.39,26.88,3.37a29.27,29.27,0,0,0,10.82-10.29Z"/><path class="cls-13" d="M412.41,314.69c-1.67-15.88,2.6-30,12.61-42.39a36.86,36.86,0,0,1,9.44-8.2,32,32,0,0,1,16.78-5,31.33,31.33,0,0,1,17.6,5.17,39.56,39.56,0,0,1,12.34,12.59c8,12.82,10.39,26.75,8.05,41.57a8.35,8.35,0,0,1-.62,1.61h-2.44c.29-1.84.62-3.69.86-5.54a39.83,39.83,0,0,0-4.64-24.61,28.69,28.69,0,0,0-10.13-11c-5.48-3.41-11.37-4.74-17.77-3.15-8.05,2-13.69,7.06-17.79,14-.26.44-.12,1.1-.17,1.66-.72-.16-.81.35-.89.85a5.15,5.15,0,0,0-.79,1,41.16,41.16,0,0,0-3.62,14.51,46.94,46.94,0,0,0,2.85,19c-.48.24-1,.78-1.42.67-7.3-2-14-5.09-18.63-11.49A6.69,6.69,0,0,0,412.41,314.69Z"/><path class="cls-7" d="M486.17,320h2.44a20.21,20.21,0,0,1-.29,3.41c-2.24,8.8-5.94,16.89-12.08,23.68-6,6.62-13.2,11.06-22.24,12.3A29.44,29.44,0,0,1,438.37,357a37.61,37.61,0,0,1-14.88-11.6c-6.69-8.36-10.09-18.06-11.27-28.6a11,11,0,0,1,.19-2.13,6.69,6.69,0,0,1,1.62,1.22c4.63,6.4,11.33,9.44,18.63,11.49.38.11.94-.43,1.42-.67.41.74.84,1.47,1.22,2.24a33.24,33.24,0,0,0,6.52,9c9.53,9.56,24.11,9.64,34.11.13C481.21,333.13,484.31,326.92,486.17,320Z"/><path class="cls-14" d="M671.48,329.48l-2.12,3.21A29.27,29.27,0,0,1,658.54,343c-9.58,5-19.22,3.14-26.88-3.37-6-5.11-9.6-11.74-11.38-19.39-.16-.67-.42-1.33-.64-2-.08-4.17-.52-8.37-.18-12.51A35,35,0,0,1,629.74,283c9.74-9.63,23.69-9.92,33.82-.66,6.43,5.88,10,13.38,11.22,21.86,1.24,8.25.68,16.38-3.18,24A3.56,3.56,0,0,0,671.48,329.48Zm-31.27-39.07a23.42,23.42,0,0,0-2.21-1.28,8.23,8.23,0,0,0-9.42,1.92c-2.45,2.72-2.74,6.07-.79,9.5.35.61.81,1.15,1.22,1.73a18,18,0,0,0-1.59,3,33.31,33.31,0,0,0-.82,16.64c1.35,6.55,4.39,12.21,9.77,16.34,4.7,3.6,9.94,5.05,15.84,3.4a20.12,20.12,0,0,0,12.2-9.72c6-10.43,5.93-21.13.41-31.75a21.5,21.5,0,0,0-9-9.13C650.78,288.33,645.55,287.6,640.21,290.41Z"/><path class="cls-14" d="M436.53,291.38v-.13l-.07.07h0l0,.05Z"/><path class="cls-14" d="M482.39,289.84a28.69,28.69,0,0,0-10.13-11c-5.48-3.41-11.37-4.74-17.77-3.15-8.05,2-13.69,7.06-17.79,14a3.43,3.43,0,0,0-.17,1.53c.5-.46,1-.93,1.52-1.36,3.37-2.72,6.63-2.85,10.22-.44.59.39,1.16.82,1.73,1.23,1.07-.43,2.13-.89,3.21-1.29,6.75-2.53,12.77-1,18.16,3.45a25.14,25.14,0,0,1,8.13,13.5,31.67,31.67,0,0,1-3.62,25,22.86,22.86,0,0,1-6.11,6.66c-8.23,6.12-18.47,4.56-24.95-2.76-5.87-6.62-7.9-14.57-7-23.32a30.59,30.59,0,0,1,2.15-8.79c-.54-.44-1.09-.87-1.62-1.31a7.48,7.48,0,0,1-2.87-6.27c.05-1.08.05-2.16.07-3.24a4.42,4.42,0,0,0-.73.91,41.16,41.16,0,0,0-3.62,14.51,46.94,46.94,0,0,0,2.85,19c.41.74.84,1.47,1.22,2.24a33.24,33.24,0,0,0,6.52,9c9.53,9.56,24.11,9.64,34.11.13,5.28-5,8.38-11.23,10.24-18.16.29-1.84.62-3.69.86-5.54A39.83,39.83,0,0,0,482.39,289.84Z"/><path class="cls-14" d="M435.66,292.09l.75-.72C435.87,291.3,435.74,291.67,435.66,292.09Z"/><path class="cls-14" d="M435.66,292.09l-.08.08v.13l.06-.07A.68.68,0,0,0,435.66,292.09Z"/><path class="cls-9" d="M640.21,290.41c5.34-2.81,10.57-2.08,15.65.65a21.5,21.5,0,0,1,9,9.13c5.52,10.62,5.62,21.32-.41,31.75a20.12,20.12,0,0,1-12.2,9.72c-5.9,1.65-11.14.2-15.84-3.4-5.38-4.13-8.42-9.79-9.77-16.34a33.31,33.31,0,0,1,.82-16.64,18,18,0,0,1,1.59-3,29.09,29.09,0,0,0,2.66,1.37,7.67,7.67,0,0,0,8.64-1.93,7.5,7.5,0,0,0,1.59-8.35A23.5,23.5,0,0,0,640.21,290.41Zm16.35,32a5.45,5.45,0,0,0-5.45,5.45,5.58,5.58,0,1,0,11.15.19A5.48,5.48,0,0,0,656.56,322.45Z"/><path class="cls-15" d="M640.21,290.41a23.5,23.5,0,0,1,1.69,3,7.5,7.5,0,0,1-1.59,8.35,7.67,7.67,0,0,1-8.64,1.93,29.09,29.09,0,0,1-2.66-1.37c-.41-.58-.87-1.12-1.22-1.73-1.95-3.43-1.66-6.78.79-9.5a8.23,8.23,0,0,1,9.42-1.92A23.42,23.42,0,0,1,640.21,290.41Z"/><path class="cls-9" d="M450,290.68c1.07-.43,2.13-.89,3.21-1.29,6.75-2.53,12.77-1,18.16,3.45a25.14,25.14,0,0,1,8.13,13.5,31.67,31.67,0,0,1-3.62,25,22.86,22.86,0,0,1-6.11,6.66c-8.23,6.12-18.47,4.56-24.95-2.76-5.87-6.62-7.9-14.57-7-23.32a30.59,30.59,0,0,1,2.15-8.79,26.61,26.61,0,0,0,3.42.42,7.62,7.62,0,0,0,7.84-8.33A22.85,22.85,0,0,0,450,290.68Zm17.93,30.88a5.4,5.4,0,0,0-5.66,5.21,5.51,5.51,0,0,0,5.44,5.94,5.76,5.76,0,0,0,5.77-5.73A5.59,5.59,0,0,0,467.93,321.56Z"/><path class="cls-13" d="M450,290.68a22.85,22.85,0,0,1,1.26,4.53,7.62,7.62,0,0,1-7.84,8.33,26.61,26.61,0,0,1-3.42-.42c-.54-.44-1.09-.87-1.62-1.31a7.48,7.48,0,0,1-2.87-6.27c.05-1.13.05-2.25.07-3.37l.88-.85c.53-.48,1-1,1.59-1.43,3.37-2.72,6.63-2.85,10.22-.44C448.86,289.84,449.43,290.27,450,290.68Z"/><path class="cls-3" d="M656.56,322.45a5.48,5.48,0,0,1,5.7,5.64,5.58,5.58,0,1,1-11.15-.19A5.45,5.45,0,0,1,656.56,322.45Z"/><path class="cls-3" d="M467.93,321.56a5.59,5.59,0,0,1,5.55,5.42,5.76,5.76,0,0,1-5.77,5.73,5.51,5.51,0,0,1-5.44-5.94A5.4,5.4,0,0,1,467.93,321.56Z"/><path class="cls-16" d="M1024.6,309.87q0,15.17-3.88,24.35a51,51,0,0,1-9.14,14.88q-7.46,8.32-20.88,8.33H953.24V258.74h28.85a55.8,55.8,0,0,1,11.14,1,37.44,37.44,0,0,1,8.34,2.71,29.56,29.56,0,0,1,6.31,3.91,35.35,35.35,0,0,1,4.65,4.67,43.61,43.61,0,0,1,6.24,9.75,59.65,59.65,0,0,1,4.26,13A77.48,77.48,0,0,1,1024.6,309.87Zm-21.28-1.29q0-12-3.23-18.76t-7.76-9a20.52,20.52,0,0,0-9.24-2.27h-8.92V337h8.92a20.28,20.28,0,0,0,14.22-5.56Q1003.33,325.89,1003.32,308.58Z"/><path class="cls-16" d="M1058.56,357.43h-20.94V258.74h20.94Z"/><path class="cls-16" d="M1124.61,328.74a35.91,35.91,0,0,1-3.33,16,24.3,24.3,0,0,1-9.29,10.36,26,26,0,0,1-13.67,3.59,38.35,38.35,0,0,1-13.6-2.56,53.63,53.63,0,0,1-10.79-5.27V326.67a71.82,71.82,0,0,0,10.34,7.69,20.77,20.77,0,0,0,10.9,3.06q5.36,0,6.93-2.52a9.1,9.1,0,0,0,1.58-4.74,9.19,9.19,0,0,0-2.71-6.73,36.06,36.06,0,0,0-7.86-5.66,59.31,59.31,0,0,1-10-7.44,30.86,30.86,0,0,1-7-10.08,34.53,34.53,0,0,1-2.73-14.31,36.28,36.28,0,0,1,2.76-14.42,23.21,23.21,0,0,1,8.41-10.29,24,24,0,0,1,13.82-3.84,34.55,34.55,0,0,1,10.74,1.6,37.46,37.46,0,0,1,8.14,3.6,30.21,30.21,0,0,1,4.41,3.13v23.14a56.85,56.85,0,0,0-9.49-7.76,20.1,20.1,0,0,0-11.2-3.42c-2.6,0-4.49.71-5.65,2.14a8,8,0,0,0-1.76,5.27,7.71,7.71,0,0,0,1.76,5.05,30.24,30.24,0,0,0,6.26,5.2,119.55,119.55,0,0,1,12.82,9.61,31.8,31.8,0,0,1,7.53,9.87Q1124.61,320.4,1124.61,328.74Z"/><path class="cls-16" d="M1201,350a43.38,43.38,0,0,1-8.81,5.12,41.52,41.52,0,0,1-9.09,2.74,53.45,53.45,0,0,1-9.49.82,36,36,0,0,1-16.25-3.56,35.24,35.24,0,0,1-12.47-10.5,48.17,48.17,0,0,1-7.91-16.23,74.55,74.55,0,0,1-2.63-20.41,72.54,72.54,0,0,1,3.1-22.32,44.49,44.49,0,0,1,8.69-15.91,35.24,35.24,0,0,1,12.72-9.37,38.31,38.31,0,0,1,15.05-3q11.82,0,26.79,7.47v26.21a69.37,69.37,0,0,0-10.19-7.59,22.59,22.59,0,0,0-11.84-3,20.39,20.39,0,0,0-11.32,3.42,24.42,24.42,0,0,0-8.46,9.75,32.38,32.38,0,0,0-3.21,14.81,33,33,0,0,0,2.81,13.71,24.52,24.52,0,0,0,7.78,9.9,18.54,18.54,0,0,0,11.25,3.66,26.29,26.29,0,0,0,9.56-1.74,36.21,36.21,0,0,0,7.59-3.88A66,66,0,0,0,1201,325Z"/><path class="cls-16" d="M1287.87,308a70,70,0,0,1-4.48,25.43,41.72,41.72,0,0,1-13.34,18.44q-8.86,6.83-21.59,6.83t-21.78-7.12a42.27,42.27,0,0,1-13.25-18.72,73.83,73.83,0,0,1,0-49.74,42,42,0,0,1,13.25-18.66q8.94-7.08,21.81-7.08A35,35,0,0,1,1278,272.45a51.39,51.39,0,0,1,7.36,16.16A73.74,73.74,0,0,1,1287.87,308Zm-21.33,0a41.55,41.55,0,0,0-1.15-10.14,24.58,24.58,0,0,0-3.48-8,17.09,17.09,0,0,0-5.69-5.27,15.62,15.62,0,0,0-7.76-1.88,15.2,15.2,0,0,0-13.22,7q-4.82,7-4.81,18.3t4.83,18.34a16.15,16.15,0,0,0,23,3.77,20,20,0,0,0,6.16-9A38.05,38.05,0,0,0,1266.54,308Z"/><path class="cls-16" d="M1367.25,258.74l-31.3,100h-13.82l-30.7-100h21.78l15.88,57,16.32-57Z"/><path class="cls-16" d="M1429.1,357.43h-52.34V258.74h51.49v19.8H1397.7v18.08h29.14v19.87H1397.7v21.08h31.4Z"/><path class="cls-16" d="M1510.33,357.43h-22.49l-5.46-17.51a84.76,84.76,0,0,0-5.41-14.07q-2.4-4.44-4.68-5.69a12.21,12.21,0,0,0-5.88-1.25h-2.36v38.52h-20.93V258.74h35.61q8.61,0,14.12,5a28.51,28.51,0,0,1,7.94,12.11,41.94,41.94,0,0,1,2.43,13.53,34.74,34.74,0,0,1-2,12.64,23.36,23.36,0,0,1-4.28,7.51,44.44,44.44,0,0,1-5.06,4.49,23.85,23.85,0,0,1,5.53,6.58q2.17,3.81,5.94,15.42Zm-28.45-67.5q0-6.84-3.15-9.54t-10.27-2.71h-4.41v23.78h4.51q7.67,0,10.49-2.38T1481.88,289.93Z"/><path class="cls-16" d="M1584.6,258.74l-27.2,53.48v45.21h-20.93V312.79l-27.69-54.05h21.73l15.93,31.05,16-31.05Z"/><path class="cls-16" d="M1016.17,184q0,12.34-4.44,21.37a32.4,32.4,0,0,1-12.39,13.82A34.68,34.68,0,0,1,981.1,224,51,51,0,0,1,963,220.55a71.37,71.37,0,0,1-14.4-7v-32.3a95.9,95.9,0,0,0,13.8,10.26,27.7,27.7,0,0,0,14.53,4.09q7.14,0,9.25-3.38a12,12,0,0,0,2.1-6.31,12.31,12.31,0,0,0-3.6-9,48.93,48.93,0,0,0-10.49-7.55,79,79,0,0,1-13.36-9.92A41.5,41.5,0,0,1,951.41,146a46.24,46.24,0,0,1-3.64-19.09,48.53,48.53,0,0,1,3.68-19.24A31,31,0,0,1,962.67,94q7.55-5.13,18.43-5.13A46.25,46.25,0,0,1,995.43,91a49.24,49.24,0,0,1,10.86,4.8,40.72,40.72,0,0,1,5.88,4.17V130.8a75.81,75.81,0,0,0-12.66-10.35,26.83,26.83,0,0,0-14.93-4.56c-3.48,0-6,1-7.55,2.85a10.71,10.71,0,0,0-2.34,7,10.28,10.28,0,0,0,2.34,6.74,41.06,41.06,0,0,0,8.35,6.93,158.85,158.85,0,0,1,17.1,12.83,42.13,42.13,0,0,1,10,13.15Q1016.18,172.88,1016.17,184Z"/><path class="cls-16" d="M1132.94,222.26h-27.86V170.88h-42v51.38h-27.93V90.63h27.93V139h42V90.63h27.86Z"/><path class="cls-16" d="M1257.85,222.26h-28.59l-7.55-26.68H1181.5l-7.68,26.68h-28.59l40.94-131.63H1217Zm-42.55-49.57-13.56-48.06L1188,172.69Z"/><path class="cls-16" d="M1412.28,90.63,1372.21,224H1356l-24-77.59L1307.34,224h-16.29L1251.77,90.63h28.92l19.24,72.94,22-72.94h20l21.64,72.94,20.1-72.94Z"/><path class="cls-16" d="M1453.16,222.26h-27.92V90.63h27.92Z"/><path class="cls-16" d="M1501.19,118.74a51,51,0,0,1-1.77,13.06,45.63,45.63,0,0,1-5.54,12.68,35.71,35.71,0,0,1-9.89,10.26,37.18,37.18,0,0,1-14.26,5.88v-6.07q10.49-5.61,10.49-25.17v-2q-10.5-4.27-10.49-18.71a25.54,25.54,0,0,1,1.87-9.73,18.49,18.49,0,0,1,5.14-7.36,10.94,10.94,0,0,1,7.22-2.76,12.24,12.24,0,0,1,9.58,4.47,28.05,28.05,0,0,1,5.78,11.39A53.67,53.67,0,0,1,1501.19,118.74Z"/><path class="cls-16" d="M1582.55,184q0,12.34-4.44,21.37a32.4,32.4,0,0,1-12.39,13.82,34.68,34.68,0,0,1-18.24,4.79,50.87,50.87,0,0,1-18.13-3.42,71.37,71.37,0,0,1-14.4-7v-32.3a95.36,95.36,0,0,0,13.8,10.26,27.67,27.67,0,0,0,14.52,4.09q7.15,0,9.26-3.38a12,12,0,0,0,2.1-6.31,12.28,12.28,0,0,0-3.61-9,48.58,48.58,0,0,0-10.48-7.55,79,79,0,0,1-13.36-9.92,41.35,41.35,0,0,1-9.39-13.44,46.08,46.08,0,0,1-3.64-19.09,48.53,48.53,0,0,1,3.67-19.24A30.92,30.92,0,0,1,1529.05,94q7.54-5.13,18.43-5.13A46.29,46.29,0,0,1,1561.81,91a49.45,49.45,0,0,1,10.86,4.8,41.06,41.06,0,0,1,5.87,4.17V130.8a75,75,0,0,0-12.66-10.35,26.77,26.77,0,0,0-14.92-4.56c-3.48,0-6,1-7.55,2.85a10.71,10.71,0,0,0-2.34,7,10.28,10.28,0,0,0,2.34,6.74,41.06,41.06,0,0,0,8.35,6.93,159.86,159.86,0,0,1,17.1,12.83,42.44,42.44,0,0,1,10.05,13.15Q1582.55,172.88,1582.55,184Z"/><path class="cls-16" d="M1177.4,485.9h-70.47l35.91-75.13h-32.95V387.21h67.51l-35.81,75.05h35.81Z"/><path class="cls-16" d="M1262.73,436.48a70,70,0,0,1-4.48,25.42,41.54,41.54,0,0,1-13.35,18.44q-8.85,6.84-21.58,6.84t-21.78-7.12a42.3,42.3,0,0,1-13.25-18.73,73.83,73.83,0,0,1,0-49.74,41.82,41.82,0,0,1,13.25-18.65q8.94-7.1,21.81-7.09a35,35,0,0,1,29.55,15.06,51.67,51.67,0,0,1,7.36,16.17A73.63,73.63,0,0,1,1262.73,436.48Zm-21.33,0a42.13,42.13,0,0,0-1.15-10.15,24.43,24.43,0,0,0-3.48-8,17,17,0,0,0-5.69-5.27,15.54,15.54,0,0,0-7.76-1.89,15.21,15.21,0,0,0-13.22,7q-4.81,7-4.81,18.3t4.83,18.34a16.15,16.15,0,0,0,23,3.77,20,20,0,0,0,6.16-9A38.05,38.05,0,0,0,1241.4,436.48Z"/><path class="cls-16" d="M1349.67,485.9H1331l-36-55v55H1274.3V387.21h18.58l35.91,54.68V387.21h20.88Z"/><path class="cls-16" d="M1419.43,485.9H1367.1V387.21h51.48V407H1388v18.09h29.15V445H1388V466h31.4Z"/><rect class="cls-17" width="148.89" height="576"/><polygon class="cls-18" points="74.44 144 38.44 72 74.44 0 110.44 72 74.44 144"/><polygon class="cls-18" points="74.44 288 38.44 216 74.44 144 110.44 216 74.44 288"/><polygon class="cls-18" points="74.44 432 38.44 360 74.44 288 110.44 360 74.44 432"/><polygon class="cls-18" points="74.44 576 38.44 504 74.44 432 110.44 504 74.44 576"/><line class="cls-19" x1="125.96" x2="125.96" y2="576"/><line class="cls-19" x1="24.09" x2="24.09" y2="576"/><rect class="cls-17" x="1641.11" width="148.89" height="576"/><polygon class="cls-18" points="1715.56 144 1679.56 72 1715.56 0 1751.56 72 1715.56 144"/><polygon class="cls-18" points="1715.56 288 1679.56 216 1715.56 144 1751.56 216 1715.56 288"/><polygon class="cls-18" points="1715.56 432 1679.56 360 1715.56 288 1751.56 360 1715.56 432"/><polygon class="cls-18" points="1715.56 576 1679.56 504 1715.56 432 1751.56 504 1715.56 576"/><line class="cls-19" x1="1767.07" x2="1767.07" y2="576"/><line class="cls-19" x1="1665.21" x2="1665.21" y2="576"/><path class="cls-20" d="M1788,2V574H2V2H1788m2-2H0V576H1790V0Z"/></svg>