<svg xmlns="http://www.w3.org/2000/svg" xmlns:xlink="http://www.w3.org/1999/xlink" id="Layer_1" data-name="Layer 1" viewBox="0 0 1080 1080"><defs><style>.cls-1{fill:url(#linear-gradient)}.cls-2{fill:url(#radial-gradient)}.cls-3{fill:#fff}.cls-4{fill:#7d4b19}.cls-5{opacity:.4}.cls-6,.cls-7{fill:#c69c6d;stroke:#8c6239;stroke-miterlimit:10}.cls-7{fill:#c7b299}.cls-8{fill:red}.cls-9{fill:#00f}.cls-10{fill:#1b1464}</style><linearGradient id="linear-gradient" x2="1080" y1="540" y2="540" gradientUnits="userSpaceOnUse"><stop offset="0" stop-color="#26a053"/><stop offset=".54" stop-color="#806ace"/><stop offset="1" stop-color="#a4170d"/></linearGradient><radialGradient id="radial-gradient" cx="552.48" cy="-22.99" r="1098.13" gradientUnits="userSpaceOnUse"><stop offset="0" stop-color="#fff" stop-opacity=".5"/><stop offset="1" stop-color="#fff" stop-opacity="0"/></radialGradient></defs><rect width="1080" height="1080" class="cls-1"/><rect width="1080" height="1080" class="cls-2"/><path d="M63,60.93c0-3,.38-3,1.8-3,4.52,0,11.09,11.29,13.52,20.64l0,.12a2.89,2.89,0,0,0,2.75,2.13A2.61,2.61,0,0,0,84,78.25V51.73a3,3,0,0,0-3-3.18c-1.5,0-2.75.85-4.07,1.74l-.09.06a9.78,9.78,0,0,1-2.11,1.28,5.41,5.41,0,0,1-1.08-.39,18.55,18.55,0,0,0-8.8-2.69c-9.63,0-14.93,5.46-14.93,15.37,0,8.52,3.1,17,10.7,29.19,8.08,12.94,11.92,20.24,11.92,26.75,0,1.62-.36,3.56-2.07,3.56-7.14,0-11.43-14.51-13.26-20.71l-.09-.23a3,3,0,0,0-2.67-2,2.66,2.66,0,0,0-2.7,2.75v26.95a2.5,2.5,0,0,0,2.7,2.53,4.5,4.5,0,0,0,2.39-.84l.29-.17,1.68-1c.77-.45,1.51-.88,1.9-1.07.26.09.79.31,1.83.81a18,18,0,0,0,8.77,2.24A14.89,14.89,0,0,0,81,129.14c2.37-2.09,5.2-6.06,5.2-13.13,0-9.24-1.58-13.29-11.26-28.86C64.74,70.67,63,65.74,63,60.93Z" class="cls-3"/><path d="M155,56.86l4.2-3.09.25-.22s.12-.09.18-.14A2.78,2.78,0,0,0,161,51.19a2.72,2.72,0,0,0-2.85-2.64H136a2.82,2.82,0,0,0-2.48,1.37,2.73,2.73,0,0,0-2.43-1.37H90A2.55,2.55,0,0,0,87.26,51V78A2.55,2.55,0,0,0,90,80.79a3,3,0,0,0,3-2l7.25-21.1h2.91v65.37c0,1.15-.14,1.26-.31,1.39l-4.45,3.27a3,3,0,0,0-1.56,2.4,2.62,2.62,0,0,0,2.84,2.64h21.78a2.62,2.62,0,0,0,2.84-2.64,3,3,0,0,0-1.55-2.4l-4.43-3.25c-.2-.15-.34-.26-.34-1.41V57.69h2.91l7.24,21.08a3,3,0,0,0,3,2,2.55,2.55,0,0,0,2.7-2.75V52.76a4.38,4.38,0,0,0,.74.65c.06.05.12.09.11.06l4.51,3.38c.23.18.47.36.47,1.4v64.81c0,1-.24,1.23-.45,1.39l-4.21,3.1-.25.22c-.05,0-.12.09-.18.14a2.78,2.78,0,0,0-1.37,2.21,2.72,2.72,0,0,0,2.84,2.64H158.1a2.72,2.72,0,0,0,2.85-2.64,2.78,2.78,0,0,0-1.37-2.21l-.11-.07L155,124.47c-.23-.18-.48-.37-.48-1.41V58.25C154.48,57.23,154.72,57,155,56.86Z" class="cls-3"/><path d="M197.3,48.55c-1.12,0-2.35.65-4,2.1a3.09,3.09,0,0,1-1.36.79,2.31,2.31,0,0,1-1.34-.35,15.78,15.78,0,0,0-7.79-2.54c-20.26,0-20.26,29-20.26,40,0,12.1,0,44.24,20.26,44.24,15.38,0,17.46-14.09,17.46-27.88a2.82,2.82,0,0,0-3-3,2.88,2.88,0,0,0-3.12,2.79c-.22,3.58-3.67,18.71-8.68,18.71-4.2,0-7.41-2.57-7.41-34.79,0-19.46.87-30.73,5.3-30.73,5.31,0,9.23,10.82,11,20.14a3.1,3.1,0,0,0,3.07,2.75,2.85,2.85,0,0,0,2.85-3V52.37C200.29,48.92,198.2,48.55,197.3,48.55Z" class="cls-3"/><path d="M287.69,89.28c4.41-3,8.14-8.07,8.14-18.94,0-14.05-8.59-21.79-24.2-21.79H254.07a3,3,0,0,0-2,.72,3.14,3.14,0,0,0-2.12-.72H229.48a3.46,3.46,0,0,0-1.67.39,2.88,2.88,0,0,0-1.42-.39H204.05a2.65,2.65,0,0,0-2.7,2.54A3.41,3.41,0,0,0,203.24,54l4.2,3c.26.18.37.25.37,1.33v64.81c0,1-.24,1.23-.4,1.35l-4.43,3a3.51,3.51,0,0,0-1.63,2.77,2.65,2.65,0,0,0,2.7,2.53h22.34a2.8,2.8,0,0,0,1.35-.35,3.36,3.36,0,0,0,1.6.35h20.93a2.76,2.76,0,0,0,1.93-.65,2.94,2.94,0,0,0,1.87.65h22.06c9.11,0,20-4.31,20-24.88C296.11,99,293.35,92.88,287.69,89.28Zm-15.08-3.94h-.1V57.9h.1c5.2,0,7.84,1.92,7.84,12.44C280.45,84.21,276.9,85.34,272.61,85.34Zm-.1,9.35h.1c5,0,7.84,2,7.84,12.44,0,15.56-1.92,16.29-5.59,16.29h-2.35ZM227.85,53.53c.14.12.28.22.42.32l4.46,2.86a1.19,1.19,0,0,1,.21.17,1.61,1.61,0,0,1-.09.25L222.63,80.46V58.25c0-1,.24-1.22.39-1.34l4.44-3Zm.09,74.34-.56-.47-4.28-2.93c-.23-.18-.47-.37-.47-1.41V109.79l2.8-6.54L231.79,123l0,.13c.2.5.19.55,0,.79l-3.56,3.65Zm18.46-4.06-.11-.08a3.23,3.23,0,0,1-1-1.56l-12-36.86,10.53-24.15a8.16,8.16,0,0,1,2.46-3.56L251.06,54a8.76,8.76,0,0,0,1.07-.92c.17.15.34.28.46.37s.13.09.11.06l4.51,3.38c.24.18.48.36.48,1.4v64.81c0,1-.24,1.23-.45,1.39l-4.51,3.31-.11.18-.1.06c-.09.07-.21.15-.34.26a5.89,5.89,0,0,0-1-.92Z" class="cls-3"/><path d="M380.1,100.32a2.61,2.61,0,0,0-2.44,1.52l-.07.13-8.87,21c-.12.25-.8.41-1.83.41h-3.62V58.25c0-1,.25-1.22.45-1.38l4.22-3.1.25-.22c.05,0,.12-.09.18-.14a2.78,2.78,0,0,0,1.37-2.22,2.72,2.72,0,0,0-2.85-2.64H344.83A2.72,2.72,0,0,0,342,51.19a2.78,2.78,0,0,0,1.37,2.22c.06.05.13.09.11.07L348,56.85c.23.18.48.36.48,1.4v64.81c0,1-.25,1.23-.46,1.39l-4.5,3.31-.11.18-.1.06-.2.15a7.91,7.91,0,0,0-.7-.58l-4.19-2.87a2.11,2.11,0,0,1-.66-1.47L324.17,51.3A3.33,3.33,0,0,0,321,48.55h-5.2A3.07,3.07,0,0,0,312.69,51l-12.82,72,0,.12a3.4,3.4,0,0,1-.34,1.32l-3.94,3a3.49,3.49,0,0,0-1.77,2.65,2.72,2.72,0,0,0,2.84,2.64H312.8a2.72,2.72,0,0,0,3-2.64,3,3,0,0,0-1.51-2.33,3.9,3.9,0,0,1-.51-.4l-3.14-2.51-.07-.07,1.95-10.87h8.86l2,10.48a1,1,0,0,1,0,.31l-3.73,2.84-.22.15a3,3,0,0,0-1.55,2.4,2.72,2.72,0,0,0,3,2.64H341a3.13,3.13,0,0,0,2-.62,2.9,2.9,0,0,0,1.82.62h34.43a3.29,3.29,0,0,0,3.54-3.49V103.06A2.69,2.69,0,0,0,380.1,100.32Zm-60.58,4h-5.29l2.56-14.55Z" class="cls-3"/><path d="M422,100.32a2.61,2.61,0,0,0-2.44,1.52l-.07.13-8.87,21c-.12.25-.8.41-1.83.41h-3.62V58.25c0-1,.25-1.22.45-1.38l4.22-3.1.25-.22c.05,0,.12-.09.18-.14a2.78,2.78,0,0,0,1.37-2.22,2.72,2.72,0,0,0-2.85-2.64H386.71a2.72,2.72,0,0,0-2.85,2.64,2.78,2.78,0,0,0,1.37,2.22l.11.07,4.51,3.37c.23.18.48.36.48,1.4v64.81c0,1-.25,1.23-.45,1.39l-4.51,3.31-.11.18-.1.06a2.57,2.57,0,0,0-1.3,2.12,2.72,2.72,0,0,0,2.85,2.64h34.42a3.29,3.29,0,0,0,3.54-3.49V103.06A2.69,2.69,0,0,0,422,100.32Z" class="cls-3"/><path d="M464,48.55H445.43a2.72,2.72,0,0,0-2.84,2.64A2.78,2.78,0,0,0,444,53.41c.06.05.13.09.11.07l4.51,3.37c.23.18.47.36.47,1.4v64.81c0,1-.24,1.23-.45,1.39l-4.5,3.31-.11.18-.1.06a2.57,2.57,0,0,0-1.3,2.12,2.72,2.72,0,0,0,2.84,2.64H464c17.95,0,24.62-12,24.62-44.13C488.6,61.66,480.55,48.55,464,48.55Zm.42,74.87h-.53V57.9h.53c2.6,0,8.68,0,8.68,30.73C473.08,123.42,467,123.42,464.4,123.42Z" class="cls-3"/><path d="M529.46,48.55H493.07a2.72,2.72,0,0,0-2.85,2.64,2.78,2.78,0,0,0,1.37,2.22c.06.05.13.09.11.07l4.51,3.37c.23.18.48.36.48,1.4v64.81c0,1-.25,1.23-.45,1.39l-4.51,3.31-.11.18-.1.06a2.57,2.57,0,0,0-1.3,2.12,2.72,2.72,0,0,0,2.85,2.64h36.39a3,3,0,0,0,3.12-3V103a2.67,2.67,0,0,0-2.7-2.64,3,3,0,0,0-2.86,1.94l-7.56,20.47c-.33.64-1.57.69-2,.69h-6V94.9h1.06l4.69,7.66.07.11a2.9,2.9,0,0,0,2.58,1.54,2.46,2.46,0,0,0,2.56-2.54V79a2.49,2.49,0,0,0-2.56-2.64,2.85,2.85,0,0,0-2.51,1.54l-4.82,7.34H511.5V57.9h6c1.49,0,1.7.53,1.78.74l7.56,20a3.16,3.16,0,0,0,3,2.13,2.61,2.61,0,0,0,2.7-2.64V51.52A3.09,3.09,0,0,0,529.46,48.55Z" class="cls-3"/><path d="M590.55,56.71l3.39-3,.13-.09a3.19,3.19,0,0,0,1.6-2.53,2.68,2.68,0,0,0-2.85-2.54H575.26c-.72,0-3.07.26-3.52,3.5l-6.81,36.79L557.56,52a3.81,3.81,0,0,0-3.94-3.49H536.48a2.68,2.68,0,0,0-2.84,2.54A2.94,2.94,0,0,0,535,53.42l.09.06,3.63,3.23a1.89,1.89,0,0,1,.65,1.54v64.81a1.9,1.9,0,0,1-.65,1.55l-3.45,3-.12.11-.15.12a3,3,0,0,0-1.39,2.34,2.67,2.67,0,0,0,2.84,2.53h17.28a2.67,2.67,0,0,0,2.85-2.53,3.12,3.12,0,0,0-1.31-2.35l-.28-.26-2.92-2.86c-.26-.26-.41-.5-.41-1.7V90.61l7.7,39.57,0,.13c.42,1.63,1.31,2.45,2.63,2.45h3.09a3,3,0,0,0,3.06-2.34l7-38.53v31.17c0,1.2-.16,1.44-.39,1.68l-3,2.91-.26.23a3.12,3.12,0,0,0-1.3,2.35,2.6,2.6,0,0,0,2.84,2.53h19.67a2.67,2.67,0,0,0,2.85-2.53,3.18,3.18,0,0,0-1.6-2.53l-3.52-3.09a1.84,1.84,0,0,1-.51-1.55V58.25A1.83,1.83,0,0,1,590.55,56.71Z" class="cls-3"/><path d="M618,48.55c-20.68,0-20.68,30.08-20.68,40,0,14.36,0,44.24,20.68,44.24s20.83-29.88,20.83-44.24C638.8,78.63,638.8,48.55,618,48.55Zm0,74.87c-.64,0-2-1.35-3.16-6.41-1.33-5.94-2-15.49-2-28.38,0-30.38,5.11-30.73,5.16-30.73.22,0,5.31.35,5.31,30.73C623.28,122.44,618.52,123.42,618,123.42Z" class="cls-3"/><path d="M688.23,48.55H669.68a2.68,2.68,0,0,0-2.84,2.54,2.94,2.94,0,0,0,1.39,2.33s.11.09.09.06L672.54,57c.3.22.48.36.48,1.29v26.6l-9.27-33c-.72-2.73-2.37-3.31-3.62-3.31H643.27a2.68,2.68,0,0,0-2.85,2.54,2.92,2.92,0,0,0,1.4,2.33s.1.08.08.06l3.64,3.23a1.91,1.91,0,0,1,.64,1.54v64.81a1.92,1.92,0,0,1-.64,1.55l-3.46,3-.11.11-.15.12a2.94,2.94,0,0,0-1.4,2.34,2.67,2.67,0,0,0,2.85,2.53h18.54a2.66,2.66,0,0,0,2.84-2.53,3.13,3.13,0,0,0-1.59-2.53l-3.89-3.28-.08-.06a1.32,1.32,0,0,1-.62-1.3V83.27l12.79,45.33a5.13,5.13,0,0,0,4.74,4.16h5.9a3.11,3.11,0,0,0,3.41-3.17V58.25a1.91,1.91,0,0,1,.64-1.54l3.39-3,.13-.09a3.14,3.14,0,0,0,1.6-2.53A2.68,2.68,0,0,0,688.23,48.55Z" class="cls-3"/><path d="M705.26,60.93c0-3,.38-3,1.79-3,4.53,0,11.1,11.29,13.52,20.64l0,.12a2.89,2.89,0,0,0,2.74,2.13,2.61,2.61,0,0,0,2.85-2.54V51.73a3,3,0,0,0-3-3.18c-1.51,0-2.75.85-4.07,1.74l-.09.06a10,10,0,0,1-2.11,1.28,5.64,5.64,0,0,1-1.09-.39,18.52,18.52,0,0,0-8.8-2.69c-9.62,0-14.92,5.46-14.92,15.37,0,8.52,3.1,17,10.7,29.19,8.08,12.94,11.92,20.24,11.92,26.75,0,1.62-.36,3.56-2.08,3.56-7.13,0-11.42-14.51-13.25-20.71l-.09-.23a3,3,0,0,0-2.67-2,2.67,2.67,0,0,0-2.71,2.75v26.95a2.51,2.51,0,0,0,2.71,2.53,4.53,4.53,0,0,0,2.39-.84l.28-.17c.65-.36,1.2-.69,1.68-1,.78-.45,1.52-.88,1.91-1.07a19.22,19.22,0,0,1,1.82.81,18.08,18.08,0,0,0,8.78,2.24,14.93,14.93,0,0,0,9.73-3.62c2.37-2.09,5.19-6.06,5.19-13.13,0-9.24-1.57-13.29-11.26-28.86C707,70.67,705.26,65.74,705.26,60.93Z" class="cls-3"/><path d="M870.41,127.57l-4.19-2.87a2.07,2.07,0,0,1-.66-1.47L852.18,51.3A3.32,3.32,0,0,0,849,48.55h-5.19A3.07,3.07,0,0,0,840.71,51l-12.82,72,0,.12a3.21,3.21,0,0,1-.35,1.32l-3.93,3-.12.09L819.12,124a2.51,2.51,0,0,1-.47-.45V101.35c0-5.54-3.17-9.59-6.91-12.07,5.52-4,8.31-10.32,8.31-18.94,0-14.66-7.91-21.79-24.2-21.79H778.29a2.85,2.85,0,0,0-2.49,1.37,2.71,2.71,0,0,0-2.43-1.37H732.21A2.56,2.56,0,0,0,729.5,51V78a2.56,2.56,0,0,0,2.71,2.75,3,3,0,0,0,3-2l7.25-21.1h2.91v65.37c0,1.15-.14,1.26-.31,1.39l-4.46,3.28a3,3,0,0,0-1.55,2.39,2.62,2.62,0,0,0,2.84,2.64h21.78a2.62,2.62,0,0,0,2.84-2.64,3,3,0,0,0-1.56-2.4l-4.43-3.25c-.19-.15-.33-.26-.33-1.41V57.69h2.91l7.24,21.08a3,3,0,0,0,3,2A2.56,2.56,0,0,0,776.08,78V52.76a4.38,4.38,0,0,0,.74.65c.06,0,.12.1.11.07l4.51,3.37c.23.18.47.36.47,1.4v64.81c0,1-.24,1.23-.45,1.39l-4.21,3.1-.25.22-.18.14a2.75,2.75,0,0,0-1.37,2.21,2.72,2.72,0,0,0,2.84,2.64h22.06a2.72,2.72,0,0,0,2.84-2.64,2.75,2.75,0,0,0-1.37-2.21c-.06,0-.13-.1-.11-.07l-4.5-3.37c-.24-.18-.48-.37-.48-1.41V94.69h.39c3.82,0,6.71,2.68,6.71,6.24v23c0,4.28,2.89,8.84,11,8.84h7.31a6.48,6.48,0,0,0,1.55-.16,3.1,3.1,0,0,0,1,.16h16.16a2.72,2.72,0,0,0,3-2.64,3,3,0,0,0-1.52-2.33,4.71,4.71,0,0,1-.51-.4l-3.14-2.51-.06-.07,1.95-10.87h8.85l2,10.48a1.13,1.13,0,0,1,0,.31l-3.74,2.84-.21.16a3,3,0,0,0-1.56,2.39,2.72,2.72,0,0,0,3,2.64h20.24a2.72,2.72,0,0,0,3-2.64A3.25,3.25,0,0,0,870.41,127.57Zm-22.87-23.3h-5.3l2.57-14.55Zm-43-33.93c0,13.87-3.48,15-7.69,15h-.11V57.9h.11C801.2,57.9,804.53,58.82,804.53,70.34Z" class="cls-3"/><path d="M930.39,56.86l4.21-3.09.25-.22.17-.14a2.76,2.76,0,0,0,1.37-2.22,2.72,2.72,0,0,0-2.84-2.64H911.49A2.85,2.85,0,0,0,909,49.92a2.71,2.71,0,0,0-2.43-1.37H865.41A2.56,2.56,0,0,0,862.7,51V78a2.56,2.56,0,0,0,2.71,2.75,3,3,0,0,0,3-2l7.25-21.1h2.91v65.37c0,1.15-.14,1.26-.31,1.39l-4.46,3.28a3,3,0,0,0-1.55,2.39,2.62,2.62,0,0,0,2.84,2.64h21.78a2.62,2.62,0,0,0,2.84-2.64,3,3,0,0,0-1.56-2.4l-4.42-3.25c-.2-.15-.34-.26-.34-1.41V57.69h2.91l7.24,21.08a3,3,0,0,0,3,2A2.56,2.56,0,0,0,909.28,78V52.76a4.38,4.38,0,0,0,.74.65c.06,0,.13.1.11.07l4.51,3.37c.23.18.47.36.47,1.4v64.81c0,1-.24,1.23-.45,1.39l-4.21,3.1-.25.22c-.05,0-.12.09-.18.14a2.75,2.75,0,0,0-1.37,2.21,2.72,2.72,0,0,0,2.84,2.64h22.06a2.72,2.72,0,0,0,2.84-2.64,2.75,2.75,0,0,0-1.37-2.21s-.13-.1-.11-.07l-4.5-3.37c-.24-.18-.48-.37-.48-1.41V58.25C929.93,57.23,930.16,57,930.39,56.86Z" class="cls-3"/><path d="M958.7,48.55C938,48.55,938,78.63,938,88.52c0,14.36,0,44.24,20.69,44.24s20.83-29.88,20.83-44.24C979.53,78.63,979.53,48.55,958.7,48.55Zm0,74.87c-.64,0-2-1.35-3.16-6.41-1.33-5.94-2-15.49-2-28.38,0-30.38,5.11-30.73,5.16-30.73.22,0,5.31.35,5.31,30.73C964,122.44,959.24,123.42,958.7,123.42Z" class="cls-3"/><path d="M1029,48.55h-18.54a2.68,2.68,0,0,0-2.85,2.54,2.92,2.92,0,0,0,1.4,2.33l.08.06,4.23,3.48c.3.22.48.36.48,1.29v26.6l-9.28-33c-.71-2.73-2.36-3.31-3.62-3.31H984a2.68,2.68,0,0,0-2.84,2.54,2.94,2.94,0,0,0,1.39,2.33l.09.06,3.63,3.23a1.89,1.89,0,0,1,.65,1.54v64.81a1.9,1.9,0,0,1-.65,1.55l-3.45,3-.12.11-.15.12a3,3,0,0,0-1.39,2.34,2.67,2.67,0,0,0,2.84,2.53h18.55a2.67,2.67,0,0,0,2.84-2.53,3.14,3.14,0,0,0-1.6-2.53l-3.88-3.28-.08-.06a1.32,1.32,0,0,1-.62-1.3V83.27L1012,128.6a5.15,5.15,0,0,0,4.75,4.16h5.9a3.12,3.12,0,0,0,3.41-3.17V58.25a1.91,1.91,0,0,1,.64-1.54l3.39-3,.13-.09a3.14,3.14,0,0,0,1.6-2.53A2.68,2.68,0,0,0,1029,48.55Z" class="cls-3"/><path d="M82,78.25c0,.32-.28.54-.84.54a.93.93,0,0,1-.85-.75C78,69.38,71.27,55.9,64.81,55.9c-3.52,0-3.8,2.25-3.8,5,0,5.24,1.83,10.48,12.23,27.27,9.83,15.83,11,19.36,11,27.81,0,11.33-7.73,14.75-12.93,14.75a16,16,0,0,1-7.87-2,9,9,0,0,0-2.81-1.07c-.56,0-1.68.75-4.49,2.36a4,4,0,0,1-1.69.74c-.56,0-.7-.21-.7-.53V103.28a.67.67,0,0,1,.7-.75c.42,0,.7.43.84.75,2.53,8.55,6.89,22.14,15.18,22.14,2.67,0,4.07-2.25,4.07-5.56,0-7.17-4.21-15-12.22-27.81-7.59-12.19-10.4-20.32-10.4-28.13,0-10.16,5.76-13.37,12.93-13.37A16.58,16.58,0,0,1,72.68,53a6.07,6.07,0,0,0,2.1.64A8.11,8.11,0,0,0,78,51.94c1.27-.85,2.11-1.39,2.95-1.39s1,.54,1,1.18Z" class="cls-4"/><path d="M105.13,55.69h-5.2a1.63,1.63,0,0,0-1.54,1.17L91.08,78.15a1.07,1.07,0,0,1-1.12.64c-.56,0-.7-.22-.7-.75V51c0-.21.28-.43.7-.43h41.17c.42,0,.7.22.7.43V78c0,.53-.14.75-.7.75a1.07,1.07,0,0,1-1.13-.64l-7.3-21.29a1.65,1.65,0,0,0-1.55-1.17H116v67.37c0,1.29.14,2.25,1.13,3l4.21,3.1c.42.32,1,.64,1,1s-.14.64-.84.64H99.65c-.7,0-.84-.32-.84-.64s.56-.64,1-1l4.22-3.1c1-.75,1.12-1.71,1.12-3Z" class="cls-4"/><path d="M141.66,58.25a3.37,3.37,0,0,0-1.26-3l-4.22-3.1c-.28-.32-1-.64-1-1s.28-.64.84-.64H158.1c.57,0,.85.32.85.64s-.71.65-1,1l-4.21,3.1a3.35,3.35,0,0,0-1.27,3v64.81a3.36,3.36,0,0,0,1.27,3l4.21,3.1c.28.32,1,.64,1,1s-.28.64-.85.64H136c-.56,0-.84-.32-.84-.64s.7-.64,1-1l4.22-3.1a3.38,3.38,0,0,0,1.26-3Z" class="cls-4"/><path d="M198.29,77.82a.85.85,0,0,1-.85,1c-.7,0-1-.54-1.12-1.18-1.69-9-5.76-21.71-12.93-21.71-6.18,0-7.3,10.16-7.3,32.73,0,32.08,3.09,36.79,9.41,36.79,7.73,0,10.68-19.68,10.68-20.64,0-.54.42-.86,1.12-.86s1,.32,1,1c0,15.83-3.09,25.88-15.46,25.88-16.44,0-18.26-24.38-18.26-42.24,0-13.16.7-38,18.26-38a13.63,13.63,0,0,1,6.75,2.25,4.32,4.32,0,0,0,2.38.64,4.52,4.52,0,0,0,2.67-1.28c.85-.75,2-1.61,2.67-1.61s1,.75,1,1.82Z" class="cls-4"/><path d="M209.81,58.25c0-1.28-.14-2.24-1.27-3l-4.21-3c-.56-.32-1-.74-1-1.17a.67.67,0,0,1,.7-.54h22.34a.67.67,0,0,1,.7.54c0,.43-.42.85-.84,1.17l-4.36,3a3.37,3.37,0,0,0-1.26,3V89.38h.28l13.77-31.45a2.06,2.06,0,0,0-.85-2.89l-4.35-2.78c-.56-.42-1-.74-1-1.17s.42-.54,1-.54H250c.56,0,1,.22,1,.54s-.57.85-1.13,1.28L245.07,56A10.16,10.16,0,0,0,242,60.39L231.17,85.2l12.22,37.65a5.2,5.2,0,0,0,1.82,2.57L250,129c.56.42,1,.85,1,1.28s-.15.53-.71.53H229.34c-.56,0-.84-.1-.84-.53s.56-.64,1.12-1.18l3.65-3.74a2.46,2.46,0,0,0,.42-2.89l-7.86-24.49h-.29l-4.91,11.44v13.69a3.38,3.38,0,0,0,1.26,3l4.36,3c.42.32.84.75.84,1.18a.67.67,0,0,1-.7.53H204.05a.67.67,0,0,1-.7-.53c0-.43.42-.86.84-1.18l4.35-3a3.36,3.36,0,0,0,1.27-3Z" class="cls-4"/><path d="M259.69,58.25a3.35,3.35,0,0,0-1.27-3l-4.21-3.1c-.28-.32-1-.64-1-1s.29-.64.85-.64h17.56c14.61,0,22.2,6.85,22.2,19.79,0,12.3-4.92,16.47-10.4,19,5.48,2.13,10.68,6.63,10.68,18.5,0,15.5-6.46,22.88-18,22.88H254.07c-.56,0-.85-.32-.85-.64s.71-.53,1-1l4.21-3.1a3.36,3.36,0,0,0,1.27-3Zm10.82,29.09h2.1c6.89,0,9.84-4.17,9.84-17,0-10.91-2.95-14.44-9.84-14.44h-2.1Zm0,38.08h4.35c6.18,0,7.59-3.85,7.59-18.29,0-10.48-2.95-14.44-9.84-14.44h-2.1Z" class="cls-4"/><path d="M323.2,112.9a1.25,1.25,0,0,0-1.27-1H311.54a.93.93,0,0,0-.85.75l-2.11,11.76a2.07,2.07,0,0,0,.71,1.93l3.09,2.46c.56.53,1.4,1,1.4,1.28s-.28.64-1,.64H296.64c-.56,0-.84-.32-.84-.64s.56-.75,1-1.07l3.94-3a3.78,3.78,0,0,0,1.12-2.68l12.79-71.86a1.09,1.09,0,0,1,1.12-1H321a1.33,1.33,0,0,1,1.26,1.18l13.35,71.76a3.94,3.94,0,0,0,1.55,2.89l4.07,2.78c.42.32.84.64.84,1s-.28.64-1,.64H320.81c-.7,0-1-.32-1-.64s.56-.64,1-1l3.79-2.89a2.15,2.15,0,0,0,.7-2.14Zm-2-6.63a.55.55,0,0,0,.56-.75l-4.91-26.2h-.29L312,105.63a.44.44,0,0,0,.42.64Z" class="cls-4"/><path d="M350.46,58.25a3.38,3.38,0,0,0-1.27-3L345,52.16c-.29-.32-1-.64-1-1s.28-.64.84-.64h22.06c.57,0,.85.32.85.64s-.71.65-1,1l-4.21,3.1a3.35,3.35,0,0,0-1.27,3v67.17h5.62c1.69,0,3.09-.32,3.66-1.61l8.71-20.75c.28-.42.28-.74.84-.74a.69.69,0,0,1,.7.74v26.21c0,1-.42,1.49-1.54,1.49H344.83c-.56,0-.84-.32-.84-.64s.7-.53,1-1l4.21-3.1a3.39,3.39,0,0,0,1.27-3Z" class="cls-4"/><path d="M392.33,58.25a3.38,3.38,0,0,0-1.27-3l-4.21-3.1c-.29-.32-1-.64-1-1s.28-.64.85-.64h22.05c.57,0,.85.32.85.64s-.71.65-1,1l-4.21,3.1a3.35,3.35,0,0,0-1.27,3v67.17h5.62c1.69,0,3.09-.32,3.66-1.61l8.71-20.75c.28-.42.28-.74.84-.74a.69.69,0,0,1,.7.74v26.21c0,1-.42,1.49-1.54,1.49H386.71c-.57,0-.85-.32-.85-.64s.7-.53,1-1l4.21-3.1a3.39,3.39,0,0,0,1.27-3Z" class="cls-4"/><path d="M451.05,58.25a3.37,3.37,0,0,0-1.26-3l-4.21-3.1c-.29-.32-1-.64-1-1s.28-.64.84-.64H464c14.19,0,22.62,10.38,22.62,38.08,0,34.86-8.43,42.13-22.62,42.13H445.43c-.56,0-.84-.32-.84-.64s.7-.53,1-1l4.21-3.1a3.38,3.38,0,0,0,1.26-3Zm10.82,67.17h2.53c5.48,0,10.68-4.07,10.68-36.79,0-28.67-5.2-32.73-10.68-32.73h-2.53Z" class="cls-4"/><path d="M509.5,87.24h3.09a1.61,1.61,0,0,0,1.55-.75L519.06,79c.28-.43.42-.64.84-.64s.56.21.56.64v22.67c0,.33-.14.54-.56.54s-.7-.32-1-.75l-4.78-7.81a1.61,1.61,0,0,0-1.55-.75H509.5v32.52h8c1.83,0,3.23-.65,3.8-1.93L528.89,103a1,1,0,0,1,1-.64.67.67,0,0,1,.7.64V129.8a1,1,0,0,1-1.12,1H493.07c-.57,0-.85-.32-.85-.64s.7-.53,1-1l4.21-3.1a3.39,3.39,0,0,0,1.27-3V58.25a3.38,3.38,0,0,0-1.27-3l-4.21-3.1c-.29-.32-1-.64-1-1s.28-.64.85-.64h36.39a1.09,1.09,0,0,1,1.12,1V78.15a.62.62,0,0,1-.7.64,1.14,1.14,0,0,1-1.13-.75l-7.58-20.11c-.57-1.39-1.83-2-3.66-2h-8Z" class="cls-4"/><path d="M553.62,50.55a1.83,1.83,0,0,1,2,1.82l9.27,46.31h.28l8.57-46.31c.14-1.07.57-1.82,1.55-1.82h17.56c.56,0,.85.32.85.54,0,.43-.57.75-1,1.07l-3.51,3.1a3.81,3.81,0,0,0-1.13,3v64.81a3.83,3.83,0,0,0,1.13,3l3.51,3.1c.42.32,1,.64,1,1.07,0,.21-.29.53-.85.53H573.15c-.7,0-.84-.32-.84-.53,0-.43.56-.75,1-1.18l3-2.88a4,4,0,0,0,1-3.11V71.3H577l-10.68,58.61a1,1,0,0,1-1.13.85h-3.09c-.42,0-.56-.42-.7-1L550,71.3h-.28v51.76a4,4,0,0,0,1,3.11l3,2.88c.42.43,1,.75,1,1.18,0,.21-.29.53-.85.53H536.48c-.56,0-.84-.32-.84-.53,0-.43.7-.75,1-1.07l3.51-3.1a3.9,3.9,0,0,0,1.27-3V58.25a3.88,3.88,0,0,0-1.27-3l-3.51-3.1c-.28-.32-1-.64-1-1.07,0-.22.28-.54.84-.54Z" class="cls-4"/><path d="M636.8,88.52c0,20.21-1.83,42.24-18.83,42.24s-18.68-22-18.68-42.24c0-15.4,1.82-38,18.68-38S636.8,73.12,636.8,88.52Zm-26,.11c0,27.8,3.09,36.79,7.16,36.79s7.31-9,7.31-36.79c0-23.75-3.09-32.73-7.31-32.73S610.81,64.88,610.81,88.63Z" class="cls-4"/><path d="M648.18,58.25a3.9,3.9,0,0,0-1.26-3l-3.51-3.1c-.29-.32-1-.64-1-1.07,0-.22.28-.54.85-.54h16.86c1,0,1.4.75,1.68,1.82l12.93,46H675V58.25a3.15,3.15,0,0,0-1.27-2.88l-3.93-3.21c-.28-.32-1-.64-1-1.07,0-.22.28-.54.84-.54h18.55c.56,0,.84.32.84.54,0,.43-.56.75-1,1.07l-3.52,3.1a3.9,3.9,0,0,0-1.26,3v71.34c0,.75-.42,1.17-1.41,1.17H676a3.19,3.19,0,0,1-2.81-2.67L656.75,69.8h-.28v53.26a3.27,3.27,0,0,0,1.41,2.89l3.79,3.21c.42.32,1,.64,1,1.07,0,.21-.28.53-.84.53H643.27c-.57,0-.85-.32-.85-.53,0-.43.7-.75,1-1.07l3.51-3.1a3.93,3.93,0,0,0,1.26-3Z" class="cls-4"/><path d="M724.2,78.25c0,.32-.29.54-.85.54a.93.93,0,0,1-.84-.75c-2.25-8.66-9-22.14-15.46-22.14-3.51,0-3.79,2.25-3.79,5,0,5.24,1.83,10.48,12.22,27.27,9.84,15.83,11,19.36,11,27.81,0,11.33-7.72,14.75-12.92,14.75a16,16,0,0,1-7.87-2,9.06,9.06,0,0,0-2.81-1.07c-.56,0-1.69.75-4.5,2.36a3.88,3.88,0,0,1-1.68.74c-.57,0-.71-.21-.71-.53V103.28a.67.67,0,0,1,.71-.75c.42,0,.7.43.84.75,2.53,8.55,6.88,22.14,15.17,22.14,2.67,0,4.08-2.25,4.08-5.56,0-7.17-4.22-15-12.22-27.81-7.59-12.19-10.4-20.32-10.4-28.13,0-10.16,5.76-13.37,12.92-13.37A16.58,16.58,0,0,1,714.92,53a6.12,6.12,0,0,0,2.11.64,8.11,8.11,0,0,0,3.23-1.71c1.27-.85,2.11-1.39,3-1.39s1,.54,1,1.18Z" class="cls-4"/><path d="M747.38,55.69h-5.2a1.65,1.65,0,0,0-1.55,1.17l-7.3,21.29a1.07,1.07,0,0,1-1.12.64c-.57,0-.71-.22-.71-.75V51c0-.21.28-.43.71-.43h41.16c.42,0,.71.22.71.43V78c0,.53-.15.75-.71.75a1.07,1.07,0,0,1-1.12-.64l-7.31-21.29a1.63,1.63,0,0,0-1.54-1.17h-5.2v67.37c0,1.29.14,2.25,1.12,3l4.22,3.1c.42.32,1,.64,1,1s-.14.64-.84.64H741.9c-.7,0-.84-.32-.84-.64s.56-.64,1-1l4.21-3.1c1-.75,1.13-1.71,1.13-3Z" class="cls-4"/><path d="M794.73,123.06a3.38,3.38,0,0,0,1.26,3l4.22,3.1c.28.32,1,.64,1,1s-.28.64-.84.64H778.29c-.56,0-.84-.32-.84-.64s.7-.64,1-1l4.22-3.1a3.38,3.38,0,0,0,1.26-3V58.25a3.37,3.37,0,0,0-1.26-3l-4.22-3.1c-.28-.32-1-.64-1-1s.28-.64.84-.64h17.56c14.62,0,22.2,5.88,22.2,19.79,0,11.87-5.48,16.68-10.39,19,4.77,1.92,9,6.09,9,12v22.36a2.63,2.63,0,0,0,1.26,1.92l4.5,3.64c.56.42,1.12.85,1.12,1.17s-.7.32-1.4.32h-7.31c-6.46,0-9-3.2-9-6.84v-23c0-4.71-3.79-8.24-8.71-8.24h-2.39Zm0-35.72h2.11c6.88,0,9.69-4.17,9.69-17,0-10.91-2.81-14.44-9.69-14.44h-2.11Z" class="cls-4"/><path d="M851.21,112.9a1.24,1.24,0,0,0-1.26-1h-10.4a.93.93,0,0,0-.84.75l-2.11,11.76a2.06,2.06,0,0,0,.7,1.93l3.09,2.46c.57.53,1.41,1,1.41,1.28s-.28.64-1,.64H824.66c-.56,0-.84-.32-.84-.64s.56-.75,1-1.07l3.93-3a3.75,3.75,0,0,0,1.13-2.68l12.78-71.86a1.09,1.09,0,0,1,1.13-1H849a1.33,1.33,0,0,1,1.27,1.18l13.35,71.76a4,4,0,0,0,1.54,2.89l4.08,2.78c.42.32.84.64.84,1s-.28.64-1,.64H848.82c-.7,0-1-.32-1-.64s.56-.64,1-1l3.8-2.89a2.17,2.17,0,0,0,.7-2.14Zm-2-6.63a.55.55,0,0,0,.56-.75l-4.92-26.2h-.28L840,105.63a.44.44,0,0,0,.42.64Z" class="cls-4"/><path d="M880.58,55.69h-5.2a1.63,1.63,0,0,0-1.54,1.17l-7.31,21.29a1.07,1.07,0,0,1-1.12.64c-.57,0-.71-.22-.71-.75V51c0-.21.28-.43.71-.43h41.16c.43,0,.71.22.71.43V78c0,.53-.14.75-.71.75a1.07,1.07,0,0,1-1.12-.64l-7.31-21.29a1.63,1.63,0,0,0-1.54-1.17h-5.2v67.37c0,1.29.14,2.25,1.12,3l4.22,3.1c.42.32,1,.64,1,1s-.14.64-.84.64H875.1c-.7,0-.84-.32-.84-.64s.56-.64,1-1l4.22-3.1c1-.75,1.12-1.71,1.12-3Z" class="cls-4"/><path d="M917.11,58.25a3.37,3.37,0,0,0-1.26-3l-4.22-3.1c-.28-.32-1-.64-1-1s.28-.64.84-.64h22.06c.56,0,.84.32.84.64s-.7.65-1,1l-4.21,3.1a3.35,3.35,0,0,0-1.27,3v64.81a3.36,3.36,0,0,0,1.27,3l4.21,3.1c.28.32,1,.64,1,1s-.28.64-.84.64H911.49c-.56,0-.84-.32-.84-.64s.7-.64,1-1l4.22-3.1a3.38,3.38,0,0,0,1.26-3Z" class="cls-4"/><path d="M977.53,88.52c0,20.21-1.83,42.24-18.83,42.24S940,108.73,940,88.52c0-15.4,1.83-38,18.69-38S977.53,73.12,977.53,88.52Zm-26,.11c0,27.8,3.09,36.79,7.16,36.79s7.31-9,7.31-36.79c0-23.75-3.09-32.73-7.31-32.73S951.54,64.88,951.54,88.63Z" class="cls-4"/><path d="M988.91,58.25a3.88,3.88,0,0,0-1.27-3l-3.51-3.1c-.28-.32-1-.64-1-1.07,0-.22.28-.54.84-.54h16.86c1,0,1.41.75,1.69,1.82l12.92,46h.29V58.25a3.17,3.17,0,0,0-1.27-2.88l-3.93-3.21c-.28-.32-1-.64-1-1.07,0-.22.28-.54.85-.54H1029c.56,0,.85.32.85.54,0,.43-.57.75-1,1.07l-3.51,3.1a3.9,3.9,0,0,0-1.26,3v71.34c0,.75-.43,1.17-1.41,1.17h-5.9a3.18,3.18,0,0,1-2.81-2.67L997.48,69.8h-.28v53.26a3.29,3.29,0,0,0,1.4,2.89l3.8,3.21c.42.32,1,.64,1,1.07,0,.21-.28.53-.84.53H984c-.56,0-.84-.32-.84-.53,0-.43.7-.75,1-1.07l3.51-3.1a3.9,3.9,0,0,0,1.27-3Z" class="cls-4"/><g class="cls-5"><path d="M64.81,52.55a14.66,14.66,0,0,1,6.83,2.17l.1.06.1,0a7.39,7.39,0,0,0,2.94.82c1.47,0,3.53-1.43,4.4-2.08l.77-.51V70.87a55.23,55.23,0,0,0-4.14-8.21c-3.62-5.81-7.32-8.76-11-8.76-5.8,0-5.8,4.92-5.8,7,0,5.6,1.81,11,12.53,28.32C81.28,104.93,82.2,108.1,82.2,116c0,12.4-9.81,12.75-10.93,12.75a14.16,14.16,0,0,1-7-1.83c-2-1-2.89-1.27-3.68-1.27-1,0-1.75.46-3.83,1.67l-1,.6v-16.7c2.77,7.59,7.28,16.19,14.72,16.19,3.69,0,6.07-3,6.07-7.56,0-7.48-4-15.27-12.52-28.87-7.17-11.52-10.1-19.36-10.1-27.07s3.47-11.37,10.93-11.37m16.15-2c-.84,0-1.68.54-2.95,1.39a8.11,8.11,0,0,1-3.23,1.71,6.07,6.07,0,0,1-2.1-.64,16.58,16.58,0,0,0-7.87-2.46c-7.17,0-12.93,3.21-12.93,13.37,0,7.81,2.81,15.94,10.4,28.13,8,12.83,12.22,20.64,12.22,27.81,0,3.31-1.4,5.56-4.07,5.56-8.29,0-12.65-13.59-15.18-22.14-.14-.32-.42-.75-.84-.75a.67.67,0,0,0-.7.75v26.95c0,.32.14.53.7.53A4,4,0,0,0,56.1,130c2.81-1.61,3.93-2.36,4.49-2.36a9,9,0,0,1,2.81,1.07,16,16,0,0,0,7.87,2c5.2,0,12.93-3.42,12.93-14.75,0-8.45-1.13-12-11-27.81C62.84,71.41,61,66.17,61,60.93c0-2.78.28-5,3.8-5C71.27,55.9,78,69.38,80.26,78a.93.93,0,0,0,.85.75c.56,0,.84-.22.84-.54V51.73c0-.64-.28-1.18-1-1.18Z"/><path d="M129.83,52.55V71.48l-5.24-15.27,0-.07,0-.08a3.57,3.57,0,0,0-3.38-2.37H114v69.37a5.27,5.27,0,0,0,1.94,4.61l1.49,1.09H103.71l1.51-1.11a5.26,5.26,0,0,0,1.91-4.59V53.69h-7.2a3.55,3.55,0,0,0-3.37,2.37l0,.08,0,.07L91.26,71.48V52.55h38.57m1.3-2H90c-.42,0-.7.22-.7.43V78c0,.53.14.75.7.75a1.07,1.07,0,0,0,1.12-.64l7.31-21.29a1.63,1.63,0,0,1,1.54-1.17h5.2v67.37c0,1.29-.14,2.25-1.12,3l-4.22,3.1c-.42.32-1,.64-1,1s.14.64.84.64h21.78c.7,0,.84-.32.84-.64s-.56-.64-1-1l-4.21-3.1c-1-.75-1.13-1.71-1.13-3V55.69h5.2a1.65,1.65,0,0,1,1.55,1.17L130,78.15a1.07,1.07,0,0,0,1.13.64c.56,0,.7-.22.7-.75V51c0-.21-.28-.43-.7-.43Z"/><path d="M154.05,52.55l-1.51,1.12a5.38,5.38,0,0,0-2.06,4.58v64.81a5.41,5.41,0,0,0,2.08,4.61l1.49,1.09h-14l1.51-1.11a5.37,5.37,0,0,0,2-4.59V58.25a5.38,5.38,0,0,0-2.07-4.6l-1.49-1.1h14m4-2H136c-.56,0-.84.32-.84.64s.7.65,1,1l4.22,3.1a3.37,3.37,0,0,1,1.26,3v64.81a3.38,3.38,0,0,1-1.26,3l-4.22,3.1c-.28.32-1,.64-1,1s.28.64.84.64H158.1c.57,0,.85-.32.85-.64s-.71-.64-1-1l-4.21-3.1a3.36,3.36,0,0,1-1.27-3V58.25a3.35,3.35,0,0,1,1.27-3l4.21-3.1c.28-.32,1-.64,1-1s-.28-.64-.85-.64Z"/><path d="M182.83,52.55a11.45,11.45,0,0,1,5.67,1.94,5.91,5.91,0,0,0,7.46-.84l.33-.28V69.12C194,61.91,190,53.9,183.39,53.9c-8.68,0-9.3,13.12-9.3,34.73,0,30.45,2.45,38.79,11.41,38.79,4.8,0,7.89-5,9.82-10.33-1.66,8.25-5.56,11.67-12.49,11.67-14.58,0-16.26-23-16.26-40.24,0-16.75,1.85-36,16.26-36m14.47-2c-.7,0-1.82.86-2.67,1.61A4.52,4.52,0,0,1,192,53.44a4.32,4.32,0,0,1-2.38-.64,13.63,13.63,0,0,0-6.75-2.25c-17.56,0-18.26,24.81-18.26,38,0,17.86,1.82,42.24,18.26,42.24,12.37,0,15.46-10,15.46-25.88,0-.64-.28-1-1-1s-1.12.32-1.12.86c0,1-3,20.64-10.68,20.64-6.32,0-9.41-4.71-9.41-36.79,0-22.57,1.12-32.73,7.3-32.73,7.17,0,11.24,12.73,12.93,21.71.14.64.42,1.18,1.12,1.18a.85.85,0,0,0,.85-1V52.37c0-1.07-.14-1.82-1-1.82Z"/><path d="M246.31,52.55l-2.45,1.87a11.9,11.9,0,0,0-3.71,5.17L229.33,84.4l-.3.7.23.72,12.23,37.65,0,.06,0,0a7,7,0,0,0,2.55,3.48l2.3,1.7H232.7l2-2,0,0,0,0a4.44,4.44,0,0,0,.8-4.88l-7.85-24.43-.45-1.39h-3.05l-.52,1.21-4.92,11.44-.16.38v14.1a5.37,5.37,0,0,0,2.05,4.59l0,0,0,0,1.54,1H208.14l1.54-1,0,0,0,0a5.37,5.37,0,0,0,2.05-4.59V58.25a5,5,0,0,0-2.13-4.64l-1.49-1.06H222.3l-1.54,1.06,0,0,0,0a5.37,5.37,0,0,0-2.05,4.58V91.38h3.59l.52-1.2L236.5,58.76a4,4,0,0,0-1.59-5.4l-1.26-.81h12.66m3.68-2H229.48c-.56,0-1,.22-1,.54s.42.75,1,1.17L233.83,55a2.06,2.06,0,0,1,.85,2.89L220.91,89.38h-.28V58.25a3.37,3.37,0,0,1,1.26-3l4.36-3c.42-.32.84-.74.84-1.17a.67.67,0,0,0-.7-.54H204.05a.67.67,0,0,0-.7.54c0,.43.42.85,1,1.17l4.21,3c1.13.75,1.27,1.71,1.27,3v64.81a3.36,3.36,0,0,1-1.27,3l-4.35,3c-.42.32-.84.75-.84,1.18a.67.67,0,0,0,.7.53h22.34a.67.67,0,0,0,.7-.53c0-.43-.42-.86-.84-1.18l-4.36-3a3.38,3.38,0,0,1-1.26-3V109.37l4.91-11.44h.29l7.86,24.49a2.46,2.46,0,0,1-.42,2.89l-3.65,3.74c-.56.54-1.12.86-1.12,1.18s.28.53.84.53h20.93c.56,0,.71-.1.71-.53s-.43-.86-1-1.28l-4.78-3.53a5.2,5.2,0,0,1-1.82-2.57L231.17,85.2,242,60.39A10.16,10.16,0,0,1,245.07,56l4.78-3.64c.56-.43,1.13-.85,1.13-1.28s-.43-.54-1-.54Z"/><path d="M271.63,52.55c13.4,0,20.2,6,20.2,17.79,0,10.7-3.7,14.62-9.25,17.22l-4.22,2,4.35,1.7c4.37,1.71,9.4,5.14,9.4,16.64,0,14.05-5.23,20.88-16,20.88h-18l1.52-1.11a5.4,5.4,0,0,0,2.05-4.59V58.25a5.39,5.39,0,0,0-2.08-4.6l-1.49-1.1h13.51m-3.12,36.79h4.1c10.41,0,11.84-9.13,11.84-19,0-8.54-1.43-16.44-11.84-16.44h-4.1V89.34m0,38.08h6.35c8.94,0,9.59-7.67,9.59-20.29,0-7.65-1.35-16.44-11.84-16.44h-4.1v36.73m3.12-76.87H254.07c-.56,0-.85.32-.85.64s.71.65,1,1l4.21,3.1a3.35,3.35,0,0,1,1.27,3v64.81a3.36,3.36,0,0,1-1.27,3l-4.21,3.1c-.28.43-1,.64-1,1s.29.64.85.64h22.06c11.52,0,18-7.38,18-22.88,0-11.87-5.2-16.37-10.68-18.5,5.48-2.57,10.4-6.74,10.4-19,0-12.94-7.59-19.79-22.2-19.79Zm-1.12,36.79V55.9h2.1c6.89,0,9.84,3.53,9.84,14.44,0,12.83-2.95,17-9.84,17Zm0,38.08V92.69h2.1c6.89,0,9.84,4,9.84,14.44,0,14.44-1.41,18.29-7.59,18.29Z"/><path d="M320.33,52.55l13.26,71.26A5.75,5.75,0,0,0,336,128l1.07.73H324.63l1.18-.9a4.1,4.1,0,0,0,1.47-4v-.08l-2.11-11.23v-.07l0-.06a3.22,3.22,0,0,0-3.2-2.46H311.54a2.89,2.89,0,0,0-2.75,2.13l0,.13,0,.14-2.1,11.74a4,4,0,0,0,1.29,3.75l.06.06.07,0,1,.82h-8.61l1.47-1.11a5.53,5.53,0,0,0,1.88-3.92v0l12.65-71.15h3.86M310,105.18a2.49,2.49,0,0,0,.38,2.09,2.45,2.45,0,0,0,2,1h8.85a2.57,2.57,0,0,0,2.12-1,2.54,2.54,0,0,0,.39-2.16L318.84,79l-.31-1.63h-3.61l-.3,1.65L310,105.18M321,50.55h-5.2a1.09,1.09,0,0,0-1.12,1l-12.79,71.86a3.78,3.78,0,0,1-1.12,2.68l-3.94,3c-.42.32-1,.75-1,1.07s.28.64.84.64H312.8c.7,0,1-.32,1-.64s-.84-.75-1.4-1.28l-3.09-2.46a2.07,2.07,0,0,1-.71-1.93l2.11-11.76a.93.93,0,0,1,.85-.75h10.39a1.25,1.25,0,0,1,1.27,1l2.1,11.23a2.15,2.15,0,0,1-.7,2.14l-3.79,2.89c-.42.32-1,.64-1,1s.28.64,1,.64H341c.7,0,1-.32,1-.64s-.42-.64-.84-1l-4.07-2.78a3.94,3.94,0,0,1-1.55-2.89L322.21,51.73A1.33,1.33,0,0,0,321,50.55Zm-8.57,55.72a.44.44,0,0,1-.42-.64l4.63-26.31h.29l4.91,26.2a.55.55,0,0,1-.56.75Z"/><path d="M362.84,52.55l-1.51,1.12a5.38,5.38,0,0,0-2.06,4.58v69.17h7.62c1.06,0,4.26,0,5.5-2.83l6.41-15.28v19.45H348.89l1.51-1.11a5.39,5.39,0,0,0,2.06-4.59V58.25a5.4,5.4,0,0,0-2.08-4.6l-1.49-1.1h13.95m4.05-2H344.83c-.56,0-.84.32-.84.64s.7.65,1,1l4.21,3.1a3.38,3.38,0,0,1,1.27,3v64.81a3.39,3.39,0,0,1-1.27,3l-4.21,3.1c-.29.43-1,.64-1,1s.28.64.84.64h34.43c1.12,0,1.54-.53,1.54-1.49V103.06a.69.69,0,0,0-.7-.74c-.56,0-.56.32-.84.74l-8.71,20.75c-.57,1.29-2,1.61-3.66,1.61h-5.62V58.25a3.35,3.35,0,0,1,1.27-3l4.21-3.1c.28-.32,1-.64,1-1s-.28-.64-.85-.64Z"/><path d="M404.71,52.55l-1.51,1.12a5.38,5.38,0,0,0-2.06,4.58v69.17h7.62c1.06,0,4.26,0,5.5-2.83l6.41-15.28v19.45H390.76l1.51-1.11a5.39,5.39,0,0,0,2.06-4.59V58.25a5.4,5.4,0,0,0-2.08-4.6l-1.49-1.1h13.95m16.54,76.21h0M408.76,50.55H386.71c-.57,0-.85.32-.85.64s.7.65,1,1l4.21,3.1a3.38,3.38,0,0,1,1.27,3v64.81a3.39,3.39,0,0,1-1.27,3l-4.21,3.1c-.29.43-1,.64-1,1s.28.64.85.64h34.42c1.12,0,1.54-.53,1.54-1.49V103.06a.69.69,0,0,0-.7-.74c-.56,0-.56.32-.84.74l-8.71,20.75c-.57,1.29-2,1.61-3.66,1.61h-5.62V58.25a3.35,3.35,0,0,1,1.27-3l4.21-3.1c.28-.32,1-.64,1-1s-.28-.64-.85-.64Z"/><path d="M464,52.55c8.85,0,20.62,3.74,20.62,36.08,0,33.57-7.56,40.13-20.62,40.13H449.49l1.51-1.11a5.37,5.37,0,0,0,2.05-4.59V58.25a5.39,5.39,0,0,0-2.07-4.6l-1.49-1.1H464m-4.11,74.87h4.53c7.61,0,12.68-6.6,12.68-38.79,0-24.67-3.67-34.73-12.68-34.73h-4.53v73.52M464,50.55H445.43c-.56,0-.84.32-.84.64s.7.65,1,1l4.21,3.1a3.37,3.37,0,0,1,1.26,3v64.81a3.38,3.38,0,0,1-1.26,3l-4.21,3.1c-.29.43-1,.64-1,1s.28.64.84.64H464c14.19,0,22.62-7.27,22.62-42.13,0-27.7-8.43-38.08-22.62-38.08Zm-2.11,74.87V55.9h2.53c5.48,0,10.68,4.06,10.68,32.73,0,32.72-5.2,36.79-10.68,36.79Z"/><path d="M528.58,52.55V71.91L523,57.18c-.5-1.22-1.87-3.28-5.51-3.28h-10V89.24h5.09a3.49,3.49,0,0,0,3.26-1.72l2.61-4V96.88l-2.59-4.23a3.5,3.5,0,0,0-3.28-1.75H507.5v36.52h10c2.71,0,4.76-1.14,5.63-3.13l0-.05,0-.06,5.4-14.6v19.18H497.12l1.51-1.11a5.39,5.39,0,0,0,2.06-4.59V58.25a5.4,5.4,0,0,0-2.08-4.6l-1.49-1.1h31.46m.88-2H493.07c-.57,0-.85.32-.85.64s.7.65,1,1l4.21,3.1a3.38,3.38,0,0,1,1.27,3v64.81a3.39,3.39,0,0,1-1.27,3l-4.21,3.1c-.29.43-1,.64-1,1s.28.64.85.64h36.39a1,1,0,0,0,1.12-1V103a.67.67,0,0,0-.7-.64,1,1,0,0,0-1,.64l-7.58,20.53c-.57,1.28-2,1.93-3.8,1.93h-8V92.9h3.09a1.61,1.61,0,0,1,1.55.75l4.78,7.81c.28.43.42.75,1,.75s.56-.21.56-.54V79c0-.43-.14-.64-.56-.64s-.56.21-.84.64l-4.92,7.49a1.61,1.61,0,0,1-1.55.75H509.5V55.9h8c1.83,0,3.09.64,3.66,2L528.75,78a1.14,1.14,0,0,0,1.13.75.62.62,0,0,0,.7-.64V51.52a1.09,1.09,0,0,0-1.12-1Z"/><path d="M589.21,52.55l-1.36,1.21-.06.05,0,0a5.84,5.84,0,0,0-1.7,4.4v64.81a5.82,5.82,0,0,0,1.7,4.4l0,.05.06,0,1.36,1.2H576.45l1.22-1.19a5.91,5.91,0,0,0,1.56-4.51V69.3h-4l-.3,1.64-10.54,57.82h-1.25L551.93,70.92l-.31-1.62h-3.93v53.76a5.93,5.93,0,0,0,1.58,4.53l1.2,1.17H540.09l1.37-1.2,0,0,0-.05a5.87,5.87,0,0,0,1.84-4.4V58.25a5.87,5.87,0,0,0-1.84-4.4l0-.05,0,0-1.37-1.21h13.5s0,.05,0,.08v.07l0,.06,9.27,46.31.32,1.61h3.59l.3-1.64,8.57-46.31v-.1a.22.22,0,0,1,0-.08h13.5m3.61-2H575.26c-1,0-1.41.75-1.55,1.82l-8.57,46.31h-.28l-9.27-46.31a1.83,1.83,0,0,0-2-1.82H536.48c-.56,0-.84.32-.84.54,0,.43.7.75,1,1.07l3.51,3.1a3.88,3.88,0,0,1,1.27,3v64.81a3.9,3.9,0,0,1-1.27,3l-3.51,3.1c-.28.32-1,.64-1,1.07,0,.21.28.53.84.53h17.28c.56,0,.85-.32.85-.53,0-.43-.57-.75-1-1.18l-3-2.88a4,4,0,0,1-1-3.11V71.3H550l11.38,58.5c.14.54.28,1,.7,1h3.09a1,1,0,0,0,1.13-.85L577,71.3h.28v51.76a4,4,0,0,1-1,3.11l-3,2.88c-.42.43-1,.75-1,1.18,0,.21.14.53.84.53h19.67c.56,0,.85-.32.85-.53,0-.43-.57-.75-1-1.07l-3.51-3.1a3.83,3.83,0,0,1-1.13-3V58.25a3.81,3.81,0,0,1,1.13-3l3.51-3.1c.42-.32,1-.64,1-1.07,0-.22-.29-.54-.85-.54Z"/><path d="M618,52.55c6.63,0,11.18,3.88,13.9,11.86,2.63,7.7,2.93,17.45,2.93,24.11,0,20.9-2,40.24-16.83,40.24s-16.68-19.34-16.68-40.24c0-6.66.3-16.41,2.91-24.12,2.7-8,7.21-11.85,13.77-11.85m0,74.87c4.61,0,9.31-4.61,9.31-38.79C627.28,57.5,622,53.9,618,53.9c-6.25,0-9.16,11-9.16,34.73,0,27.19,2.74,38.79,9.16,38.79m0-76.87c-16.86,0-18.68,22.57-18.68,38,0,20.21,1.82,42.24,18.68,42.24s18.83-22,18.83-42.24c0-15.4-1.83-38-18.83-38Zm0,74.87c-4.07,0-7.16-9-7.16-36.79,0-23.75,3.09-32.73,7.16-32.73s7.31,9,7.31,32.73c0,27.8-3.09,36.79-7.31,36.79Z"/><path d="M684.62,52.55l-1.37,1.21,0,.05-.05,0a5.89,5.89,0,0,0-1.84,4.4v70.51H676c-.23,0-.67-.41-.88-1.21L658.68,69.26l-.41-1.46h-3.8v55.26a5.32,5.32,0,0,0,2.15,4.45l1.49,1.25H646.88l1.36-1.2,0,0,.05-.05a5.84,5.84,0,0,0,1.84-4.4V58.25a5.87,5.87,0,0,0-1.84-4.4l-.05-.05,0,0-1.36-1.21h12.9c0,.09.07.21.11.36l12.92,46,.41,1.46H677V58.25a5.16,5.16,0,0,0-2-4.45l-1.53-1.25h11.15m3.61-2H669.68c-.56,0-.84.32-.84.54,0,.43.7.75,1,1.07l3.93,3.21A3.15,3.15,0,0,1,675,58.25V98.36h-.28l-12.93-46c-.28-1.07-.7-1.82-1.68-1.82H643.27c-.57,0-.85.32-.85.54,0,.43.7.75,1,1.07l3.51,3.1a3.9,3.9,0,0,1,1.26,3v64.81a3.93,3.93,0,0,1-1.26,3l-3.51,3.1c-.29.32-1,.64-1,1.07,0,.21.28.53.85.53h18.54c.56,0,.84-.32.84-.53,0-.43-.56-.75-1-1.07L657.88,126a3.27,3.27,0,0,1-1.41-2.89V69.8h.28l16.44,58.29a3.19,3.19,0,0,0,2.81,2.67h5.9c1,0,1.41-.42,1.41-1.17V58.25a3.9,3.9,0,0,1,1.26-3l3.52-3.1c.42-.32,1-.64,1-1.07,0-.22-.28-.54-.84-.54Z"/><path d="M707.05,52.55a14.59,14.59,0,0,1,6.83,2.17l.1.06.11,0a7.35,7.35,0,0,0,2.94.82c1.47,0,3.53-1.43,4.4-2.08.2-.14.48-.33.77-.51V70.87a56.21,56.21,0,0,0-4.14-8.21c-3.62-5.81-7.33-8.76-11-8.76-5.79,0-5.79,4.92-5.79,7,0,5.6,1.81,11,12.53,28.32,9.73,15.68,10.65,18.85,10.65,26.76,0,12.4-9.8,12.75-10.92,12.75a14.13,14.13,0,0,1-7-1.83c-2-1-2.89-1.27-3.68-1.27-1,0-1.75.46-3.84,1.67l-1,.6v-16.7c2.77,7.59,7.29,16.19,14.72,16.19,3.69,0,6.08-3,6.08-7.56,0-7.48-4-15.27-12.53-28.87-7.17-11.52-10.09-19.36-10.09-27.07s3.47-11.37,10.92-11.37m16.16-2c-.84,0-1.68.54-3,1.39A8.11,8.11,0,0,1,717,53.65a6.12,6.12,0,0,1-2.11-.64,16.58,16.58,0,0,0-7.87-2.46c-7.16,0-12.92,3.21-12.92,13.37,0,7.81,2.81,15.94,10.4,28.13,8,12.83,12.22,20.64,12.22,27.81,0,3.31-1.41,5.56-4.08,5.56-8.29,0-12.64-13.59-15.17-22.14-.14-.32-.42-.75-.84-.75a.67.67,0,0,0-.71.75v26.95c0,.32.14.53.71.53a3.88,3.88,0,0,0,1.68-.74c2.81-1.61,3.94-2.36,4.5-2.36a9.06,9.06,0,0,1,2.81,1.07,16,16,0,0,0,7.87,2c5.2,0,12.92-3.42,12.92-14.75,0-8.45-1.12-12-11-27.81-10.39-16.79-12.22-22-12.22-27.27,0-2.78.28-5,3.79-5,6.47,0,13.21,13.48,15.46,22.14a.93.93,0,0,0,.84.75c.56,0,.85-.22.85-.54V51.73c0-.64-.29-1.18-1-1.18Z"/><path d="M772.08,52.55V71.48l-5.24-15.27,0-.08,0-.07a3.55,3.55,0,0,0-3.37-2.37h-7.2v69.37a5.27,5.27,0,0,0,1.94,4.61l1.48,1.09H746l1.52-1.11a5.26,5.26,0,0,0,1.91-4.59V53.69h-7.2a3.57,3.57,0,0,0-3.38,2.37l0,.07,0,.08L733.5,71.48V52.55h38.58m1.29-2H732.21c-.43,0-.71.22-.71.43V78c0,.53.14.75.71.75a1.07,1.07,0,0,0,1.12-.64l7.3-21.29a1.65,1.65,0,0,1,1.55-1.17h5.2v67.37c0,1.29-.14,2.25-1.13,3l-4.21,3.1c-.42.32-1,.64-1,1s.14.64.84.64h21.78c.7,0,.84-.32.84-.64s-.56-.64-1-1l-4.22-3.1c-1-.75-1.12-1.71-1.12-3V55.69h5.2a1.63,1.63,0,0,1,1.54,1.17l7.31,21.29a1.07,1.07,0,0,0,1.12.64c.56,0,.71-.22.71-.75V51c0-.21-.29-.43-.71-.43Z"/><path d="M795.85,52.55c14,0,20.2,5.49,20.2,17.79,0,12.8-7,16.13-9.26,17.23l-4.1,2,4.22,1.7c1.81.73,7.74,3.62,7.74,10.12v22.36a4.43,4.43,0,0,0,2,3.49l1.94,1.56h-3.79c-2.61,0-7-.63-7-4.84v-23a10.38,10.38,0,0,0-10.71-10.24h-4.39v32.37a5.38,5.38,0,0,0,2.08,4.61l1.49,1.09h-14l1.52-1.11a5.37,5.37,0,0,0,2-4.59V58.25a5.38,5.38,0,0,0-2.08-4.6l-1.49-1.1h13.51m-3.12,36.79h4.11c9.7,0,11.69-7.59,11.69-19,0-8.54-1.41-16.44-11.69-16.44h-4.11V89.34m3.12-38.79H778.29c-.56,0-.84.32-.84.64s.7.65,1,1l4.22,3.1a3.37,3.37,0,0,1,1.26,3v64.81a3.38,3.38,0,0,1-1.26,3l-4.22,3.1c-.28.32-1,.64-1,1s.28.64.84.64h22.06c.56,0,.84-.32.84-.64s-.7-.64-1-1l-4.22-3.1a3.38,3.38,0,0,1-1.26-3V92.69h2.39c4.92,0,8.71,3.53,8.71,8.24v23c0,3.64,2.53,6.84,9,6.84h7.31c.7,0,1.4,0,1.4-.32s-.56-.75-1.12-1.17l-4.5-3.64a2.63,2.63,0,0,1-1.26-1.92V101.35c0-5.88-4.22-10-9-12,4.91-2.36,10.39-7.17,10.39-19,0-13.91-7.58-19.79-22.2-19.79Zm-1.12,36.79V55.9h2.11c6.88,0,9.69,3.53,9.69,14.44,0,12.83-2.81,17-9.69,17Z"/><path d="M848.35,52.55l13.25,71.26A5.76,5.76,0,0,0,864,128l1.07.73H852.65l1.18-.9a4.12,4.12,0,0,0,1.47-4v-.08l-2.11-11.23v-.07l0-.06a3.22,3.22,0,0,0-3.2-2.46h-10.4a2.89,2.89,0,0,0-2.74,2.13l0,.13,0,.14-2.11,11.75a4.06,4.06,0,0,0,1.3,3.74l.06.06.07,0,1,.82h-8.61l1.46-1.11a5.52,5.52,0,0,0,1.89-3.92v0l12.66-71.15h3.86M838,105.19a2.42,2.42,0,0,0,2.37,3.08h8.86a2.58,2.58,0,0,0,2.12-1,2.54,2.54,0,0,0,.39-2.16L846.86,79l-.31-1.63h-3.62L842.64,79,838,105.19M849,50.55h-5.19a1.09,1.09,0,0,0-1.13,1l-12.78,71.86a3.75,3.75,0,0,1-1.13,2.68l-3.93,3c-.42.32-1,.75-1,1.07s.28.64.84.64h16.16c.7,0,1-.32,1-.64s-.84-.75-1.41-1.28l-3.09-2.46a2.06,2.06,0,0,1-.7-1.93l2.11-11.76a.93.93,0,0,1,.84-.75H850a1.24,1.24,0,0,1,1.26,1l2.11,11.23a2.17,2.17,0,0,1-.7,2.14l-3.8,2.89c-.42.32-1,.64-1,1s.28.64,1,.64h20.24c.7,0,1-.32,1-.64s-.42-.64-.84-1l-4.08-2.78a4,4,0,0,1-1.54-2.89L850.23,51.73A1.33,1.33,0,0,0,849,50.55Zm-8.57,55.72a.44.44,0,0,1-.42-.64l4.64-26.31h.28l4.92,26.2a.55.55,0,0,1-.56.75Z"/><path d="M905.28,52.55V71.48L900,56.21l0-.08,0-.07a3.57,3.57,0,0,0-3.38-2.37h-7.2v69.37a5.27,5.27,0,0,0,1.94,4.61l1.49,1.09H879.15l1.52-1.11a5.26,5.26,0,0,0,1.91-4.59V53.69h-7.2A3.57,3.57,0,0,0,872,56.06l0,.07,0,.08L866.7,71.48V52.55h38.58m1.29-2H865.41c-.43,0-.71.22-.71.43V78c0,.53.14.75.71.75a1.07,1.07,0,0,0,1.12-.64l7.31-21.29a1.63,1.63,0,0,1,1.54-1.17h5.2v67.37c0,1.29-.14,2.25-1.12,3l-4.22,3.1c-.42.32-1,.64-1,1s.14.64.84.64h21.78c.7,0,.84-.32.84-.64s-.56-.64-1-1l-4.22-3.1c-1-.75-1.12-1.71-1.12-3V55.69h5.2a1.63,1.63,0,0,1,1.54,1.17l7.31,21.29a1.07,1.07,0,0,0,1.12.64c.57,0,.71-.22.71-.75V51c0-.21-.28-.43-.71-.43Z"/><path d="M929.5,52.55,928,53.67a5.37,5.37,0,0,0-2.05,4.58v64.81a5.38,5.38,0,0,0,2.08,4.61l1.49,1.09h-14l1.51-1.11a5.37,5.37,0,0,0,2.05-4.59V58.25a5.38,5.38,0,0,0-2.08-4.6l-1.48-1.1h14m4-2H911.49c-.56,0-.84.32-.84.64s.7.65,1,1l4.22,3.1a3.37,3.37,0,0,1,1.26,3v64.81a3.38,3.38,0,0,1-1.26,3l-4.22,3.1c-.28.32-1,.64-1,1s.28.64.84.64h22.06c.56,0,.84-.32.84-.64s-.7-.64-1-1l-4.21-3.1a3.36,3.36,0,0,1-1.27-3V58.25a3.35,3.35,0,0,1,1.27-3l4.21-3.1c.28-.32,1-.64,1-1s-.28-.64-.84-.64Z"/><path d="M958.7,52.55c6.63,0,11.18,3.88,13.9,11.86,2.62,7.7,2.93,17.45,2.93,24.11,0,20.9-2,40.24-16.83,40.24S942,109.42,942,88.52c0-6.66.31-16.41,2.92-24.12,2.7-8,7.21-11.85,13.77-11.85m0,74.87c4.6,0,9.31-4.61,9.31-38.79,0-31.13-5.31-34.73-9.31-34.73-6.25,0-9.16,11-9.16,34.73,0,27.19,2.74,38.79,9.16,38.79m0-76.87c-16.86,0-18.69,22.57-18.69,38,0,20.21,1.83,42.24,18.69,42.24s18.83-22,18.83-42.24c0-15.4-1.83-38-18.83-38Zm0,74.87c-4.07,0-7.16-9-7.16-36.79,0-23.75,3.09-32.73,7.16-32.73s7.31,9,7.31,32.73c0,27.8-3.09,36.79-7.31,36.79Z"/><path d="M1025.34,52.55,1024,53.76l-.06.05,0,0a5.85,5.85,0,0,0-1.84,4.4v70.51h-5.31c-.24,0-.67-.41-.89-1.21L999.41,69.26,999,67.8H995.2v55.26a5.29,5.29,0,0,0,2.15,4.45l1.48,1.25H987.6l1.37-1.2,0,0,.05-.05a5.87,5.87,0,0,0,1.84-4.4V58.25a5.87,5.87,0,0,0-1.84-4.4L989,53.8l0,0-1.37-1.21h12.91c0,.09.06.21.1.36l12.93,46,.41,1.46h3.8V58.25a5.15,5.15,0,0,0-2-4.45l-1.52-1.25h11.14m3.61-2h-18.54c-.57,0-.85.32-.85.54,0,.43.71.75,1,1.07l3.93,3.21a3.17,3.17,0,0,1,1.27,2.88V98.36h-.29l-12.92-46c-.28-1.07-.7-1.82-1.69-1.82H984c-.56,0-.84.32-.84.54,0,.43.7.75,1,1.07l3.51,3.1a3.88,3.88,0,0,1,1.27,3v64.81a3.9,3.9,0,0,1-1.27,3l-3.51,3.1c-.28.32-1,.64-1,1.07,0,.21.28.53.84.53h18.55c.56,0,.84-.32.84-.53,0-.43-.56-.75-1-1.07L998.6,126a3.29,3.29,0,0,1-1.4-2.89V69.8h.28l16.44,58.29a3.18,3.18,0,0,0,2.81,2.67h5.9c1,0,1.41-.42,1.41-1.17V58.25a3.9,3.9,0,0,1,1.26-3l3.51-3.1c.42-.32,1-.64,1-1.07,0-.22-.29-.54-.85-.54Z"/></g><path d="M523.22,171.48v767.3h0c.3,4.8,7.68,8.65,16.75,8.65s16.45-3.85,16.75-8.65h0V171.48Z" class="cls-6"/><ellipse cx="540" cy="171.48" class="cls-7" rx="16.78" ry="8.96"/><path d="M337.08,999.21c-2.86-2.54-5.5-4.76-8-7.15a14.54,14.54,0,0,1-3.64-4.5c-.73-1.79-1.08-3.8-1.64-5.71-.16-.57-.25-1.51.07-1.81,1.22-1.16.31-2.62.75-3.85,2.45-3.54,3.44-7.64,4.41-11.72a52.5,52.5,0,0,0,1.58-11c.09-3.45-1-6.58-1.85-9.79a10.57,10.57,0,0,1-.45-1.69c-.21-2.39-.37-4.79-.56-7.43-2.95,1.3-4.69,3.44-6.67,5.31-3.77,3.57-7.66,7-11.36,10.67-2.53,2.51-4.71,5.38-7.24,7.89-3.33,3.3-7.06,6.22-10.25,9.65a82.49,82.49,0,0,0-8.2,10.52,11.82,11.82,0,0,0-1.71,5.31,10.05,10.05,0,0,0,1,5.24c.82,1.7.11,3.52,1.19,5.17a5.16,5.16,0,0,1,.54,5c-1.2-.4-2.61.58-3.76-.7-.12-.13-.45-.09-.69-.11-3.91-.25-7.82-.47-11.73-.77-1.17-.09-2.45.5-3.51-.68-.28-.31-1.29-.26-1.81,0-3.22,1.44-6.61.77-9.86.58-2-.12-4-.72-6.34-.55a51.35,51.35,0,0,1-4.5-3.11c-1.43-1.21-.72-3.42-1.76-4.79a15.26,15.26,0,0,1,4.63-7.08,28.91,28.91,0,0,1,4-3.12c6.56-3.87,11.13-9.65,15.33-15.79a155.78,155.78,0,0,0,9.36-16.44,101.63,101.63,0,0,1,8.27-13.48c1.83-2.5,2.49-5.26,3.44-8,1.32-3.84,2.48-7.75,4-11.53a19.61,19.61,0,0,1,3.18-5.43c4.27-5,8-10.41,12.62-15.17,3-3.09,5.93-6.27,8.84-9.42-1.35-4.48-3.71-8.58-4.64-13.18-.69-1.66-2.19-2.39-3.78-2.94-2.54-.87-2.55-.84-4.87.08l-2.07-2.58-2.23,1.1c-.32-.58-.63-1.12-1.09-1.94l-2,1.77-3.41-2.28-1.46.93-1.14-.74c-.3.21-.66.47-1.5,1l-.66-1.56-9.15-1.12-1.45-1.45-.67.6-3.29-1.62a5.45,5.45,0,0,1-.57-5.14c1.06-1.32,3.88-1.92,4.15-5l-4-.29c1.43-.84,2.46-1.82,3.62-2,1.77-.32,2-2.13,3.23-2.49,1.11-5,2-9.63,4.61-13.85,1.95-3.17,1.94-7.17,3.78-10.46.21-.39,0-1,0-1.49.08-1.6-.29-3.42.38-4.72.75-1.48-.47-3.32,1.12-4.44l.75-7.59.62-6.23c-1.94.12-3.2,1.43-4.34,2.62-2-2.07.61-3.67-.2-5.48l-1.71.72c-1.26-2,.66-3.57.41-5.39a42.72,42.72,0,0,1,0-5.47l-2.56,1c.91-1.92,1.64-3.45,2.55-5.35a5.84,5.84,0,0,1,1.84-5.19,1.4,1.4,0,0,0,.42-.58c1.95-5.42,2.77-6.57,5.93-10.35a45.6,45.6,0,0,0,3.76-6c1.66-2.77,4-5,5.71-7.78a29.67,29.67,0,0,0,2.59-5.71,57.83,57.83,0,0,1,5.42-12c.87-1.43,2.52-2.39,3.58-3.35-1.16-3.51-.95-6.55.71-9.29a11.42,11.42,0,0,0,1-2.61c.87-2.72,2.49-5,5.26-6a4.3,4.3,0,0,0,2.78-3c1.2-3.79,3.13-7.24,4.65-10.87a17.92,17.92,0,0,1,4.2-6.16,5.53,5.53,0,0,0,1.83-4.52c-.09-1.75.07-3.52,0-5.27a22,22,0,0,1,1.52-9.16,12.76,12.76,0,0,0,.78-4.95c-.1-2.38-.5-4.89.08-7.12,1.14-4.43.41-8.85.6-13.27.06-1.26-.55-2.54-.68-3.82a27.75,27.75,0,0,1,0-3.76,3.8,3.8,0,0,1,.47-2.46,2.94,2.94,0,0,0,.22-2.48c-1.47-3.28-1.36-7.16-4-10a8.05,8.05,0,0,1-1.37-3.56,28.53,28.53,0,0,1-.6-8.37c.2-3.28.94-6.52.77-9.85-.05-.94,1.3-1.81.3-3.16-2.7.94-4.67,3-6.93,4.71s-4.53,3-7,4.63v9.21c-1.77,2.43-1.19,5.49-2.34,8.06a16.5,16.5,0,0,1-2.22,3.19,9.55,9.55,0,0,1-3.88,2.37c-3.66.85-7.16,2.47-11,2.54a6.2,6.2,0,0,0-1.68.46,6.41,6.41,0,0,1-7.71-3.41c-.74-1.42-2.14-2.78-.37-4.48a9.9,9.9,0,0,1-.14-10.42,11.85,11.85,0,0,1,6.43-5.45,70.8,70.8,0,0,0,16-7.74c.29-.2.61-.59.88-.56,2.5.22,3.87-1.67,5.59-2.9a10.71,10.71,0,0,1,2.63-1.82c3.91-1.24,5.6-4.73,7.54-7.71,5.85-9,11.85-17.93,17.88-26.83,3.83-5.66,7.46-11.45,11.21-17.17a7.92,7.92,0,0,1,1.16-1.18c-.27-1.17-.07-2.37-.58-3.75-.94-2.53.65-4.82,2.17-6.85.93-1.25,2-2.39,2.91-3.45v-6l4.37-4.18v-6.8c-2.48-1.6-1.69-4.8-3.2-7.07,2.91-2.73,5.13-5.81,8.54-7.35,1.15-.53.71-1.71,1.68-2.13a5.8,5.8,0,0,0,2.33-1.59c1.51-2,3.79-2.63,5.89-3.05,3.51-.7,6.93-2.23,10.65-1.6,2.32-1.06,4.83-.44,7.2-.83a10.41,10.41,0,0,1,6.67.68c1.46.69,3.56.12,5.27.89a12.43,12.43,0,0,1,2.25.9c2.92,2.07,5.78,4.23,8.66,6.36.27,1.93,2.78,1.87,3.28,3.87.27,1.13,1.8,2,2.65,2.8-.28,1.74-.51,3.27-.76,4.8s-.12,3.27-.84,4.52c-1,1.75-.13,3.65-1,5.26a8.14,8.14,0,0,0-.35,5.44c.73,3.8.18,7.65.8,11.35.45,2.66.41,5.3.69,8a12.42,12.42,0,0,0,5.77,1.59c2,.19,4,0,6,.05,2.24,0,4.72-.5,6.65.29,2.11.88,4.38-.38,6.33,1.13.63.49,2,0,3,.11.79.1,1.54.53,2.33.71a24.55,24.55,0,0,1,4.16.86c5.65,2.4,11.28,4.87,16.85,7.46,2.66,1.24,5.42,2.48,6.71,5.49.45,1.06,1.41,2,1.51,3.11.31,3.27,1.46,6.52.8,9.82a13.44,13.44,0,0,1-1.89,4.84c-1.75,2.58-3.86,4.93-5.79,7.4a35.06,35.06,0,0,0-2.55,4.22c-1.6,2.78-4.49,4-6.48,6.25s-4.19,4.32-6.38,6.39c-1,1-2.3,1.75-3.38,2.69a5.76,5.76,0,0,0-2.1,5.16,20.9,20.9,0,0,1,0,2.48c-1.09,2.58-2.51,4.46-3.06,6.79a9.56,9.56,0,0,1-1.53,2.74,24,24,0,0,0-3,7.82c-.69,3.91-1.15,7.84-1.6,11.78a22.48,22.48,0,0,1-2.84,8.2A6.29,6.29,0,0,0,445,655c.16,1.37-.07,2.77.05,4.14.45,5-1.07,9.66-2.67,14.32-1,2.86-2.73,5.5-2.71,8.67-.94.58-.66,1.53-.65,2.36.06,3.39-1.19,6.54-1.79,9.81-.43,2.39-1.51,4.68-1.91,7.08a24.75,24.75,0,0,1-1.55,5c-1.4,3.56-2.27,7.3-4.47,10.58-1.69,2.5-2.29,5.56-3.12,8.48s-.76,6.12-2.25,8.84a12.25,12.25,0,0,0-1.53,6.54,32.44,32.44,0,0,1-.83,5.4c-.85.61-1.92,2-3.15,2.16-2.75.33-3.4,2.28-4.37,4.3.69,1.85,1.68,3.55,1.77,5.71.08,1.89,1.47,3.67,1.42,5.78a6.69,6.69,0,0,0,.82,2.28l-1.73,3.34c.25,2.27.67,5,.82,7.81s-.35,5.59.17,8.25a24.3,24.3,0,0,1,.58,5.73c-.06,1.41-.57,2.8-.68,4.21s0,3,0,4.51c0,.13.05.28,0,.37-2.23,3.72-1.32,7.83-1.49,11.8a5.83,5.83,0,0,1-.72,3.1,11.72,11.72,0,0,0-1.51,7.71c.5,1,.89,1.67,1.15,2.16-.16,1.18-.33,2.2-.42,3.22-.06.62.07,1.27,0,1.88-.64,4.14-.16,5.12,1.36,7.85.11.2.11.46,0,0-.25,2.38-.38,4-.6,5.69a23.24,23.24,0,0,1-.79,4.57c-.82,2.38-.33,5-1.46,7.29-.26.52-.43,1.3-.85,1.49-2.83,1.29-4.25,4.1-6.58,5.79,0,2.9,0,2.9,6,12.33l-3.13,4-.28-.38-6.48,3.49H395.4l-2.92,4.56h-3.75c-2.36,3.5-3.45,7.68-6.78,10.65l-3.58-.84-1,.92v3.63c-1.7,2.38-2.27,4.94-3.77,7.1a122.05,122.05,0,0,0-6.42,10.87c-3,5.5-6.63,10.72-8,17-.13.56-.58,1-.64,1.61-.15,1.3.09,2.57-.71,3.87-.57.93.21,2.29-.69,3.48-.73,1-.16,2.45-.71,3.82-.69,1.73-.3,4-.14,6,.14,1.78-.37,3.52.59,5.39.88,1.72.74,4,1,5.62.8,1.91,1.77,3.45,2.08,5.12a23,23,0,0,0,4.77,9.72c2.07,2.73,3.88,5.66,5.84,8.48a16.06,16.06,0,0,0,1.65,2c2.44,2.48,4.91,4.93,7.44,7.46-.58.39-1.07,1-1.57,1-2.88.09-5.9.58-8.63-.08-3.95-1-7.85-.35-11.76-.61-1.11-.08-2.54-.41-3.3.12-1.31.92-2.08-.63-3.25-.21-1,.35-2.24,0-3.36.09s-2.19-.42-3.16.6a1.84,1.84,0,0,1-1.77.09C340.93,998.84,339,999.39,337.08,999.21Zm27.8-453a44.38,44.38,0,0,0-8.07,9.43c-2.33,3.59-4.95,7-7.41,10.48-1.71,2.43-3.2,5-5.1,7.28-2.72,3.22-4.57,7.1-7.68,10,.15,1.56-1.93,1.9-2.15,3.4.39,0,.55,0,.63,0,4.22-2.83,8.36-5.8,12.68-8.47,3.4-2.1,6.59-4.23,7.65-8.4.06-.21.34-.35.48-.55a53.47,53.47,0,0,0,5.06-8.81c.65-1.49,1.33-3,2-4.45,1.05-2.45,2.08-4.91,3.15-7.44Zm56.19,20.84,2.93-.87c-.73-.69-1.37-1.34-2.05-1.93-.14-.12-.46,0-.88,0Z" class="cls-8"/><path d="M627.28,669.16c-.36-.63-.78-1-.79-1.45-.06-3.26-.09-6.52,0-9.78,0-1,.56-2,.69-3.08a27.71,27.71,0,0,1,.68-2.72c.67-2.88,2.23-5.71,1.56-8.74a48.07,48.07,0,0,1-.73-9.86,3.28,3.28,0,0,0-.48-1.29c-1-2.1-2-4.19-3.22-6.65v-4.25l2.59-1.74-2.92-2.93a4.83,4.83,0,0,1,2.85-3.28,63.37,63.37,0,0,0,3.41-5.56c.71-1.42,1.6-3.05.08-4.65-.19-.19,0-.72,0-1.31,1.92-1.75,4.38-2.38,7.61-2.8.36-.42,1.16-1.21,1.82-2.11,3.23-4.47,8.42-6.35,12.65-9.5,1-.77,2.69-.87,4.08-1,2-.12,3.88-.35,5.27-1.79a8.33,8.33,0,0,0,2.36-6.12,13.82,13.82,0,0,1,1-5.28,8.66,8.66,0,0,0,.12-5.16c-.45-2.26-.13-4.67-.14-7,1.06-.72.54-1.81.63-2.75.34-3.49.76-6.94,3.83-9.21v-1.61c1.51-1.09,2.38-2.82,4.25-3.52.61-.22.76-1.59,1.39-1.94,2.77-1.52,5.62-2.91,9-3.14l1.44-1.37c2.46-.35,5,.53,7.3-.76a2.51,2.51,0,0,1,2.19,0c1.48,1,3.07.56,4.5.71l10.41,6a5.11,5.11,0,0,1,1.45,1c1,1.23,1.84,2.53,3.18,4.4a54.27,54.27,0,0,0,2.29,5.75c1.48,3.24,3.71,6.28,3.75,10.12a19,19,0,0,0,.95,4.08c2.22.32,4.49.53,6.72,1a61.86,61.86,0,0,0,6.19,1.27c3.37.35,6.9.8,10.3-.29a7.25,7.25,0,0,1,1.39-.26c2.66-.26,5.32-.43,8-.79a29.33,29.33,0,0,0,3.93-1c2.57-1.62,3.61-4.72,5.44-7.23a31.91,31.91,0,0,1,3-3.07c0-1.93.38-4.5-.09-6.9-.74-3.73-.27-7.66-1.93-11.23a5,5,0,0,1-.24-1.78c-.14-2.81-.85-5.41-3-7.41-1.46-1.39-1.4-3.44-2.26-5.09a19.74,19.74,0,0,1-1-3c-2.89-1.19-5.18-3.32-8.16-4.19a8.81,8.81,0,0,1-4.45-2.9c-.39-.48-.8-1.1-1.33-1.3-3-1.12-3.24-3.54-3.12-6.2,0-.87,0-1.76,0-2.63.16-2.57.61-5,3.74-6-.61-3.64,1.43-6,3.84-7.9l6.36-2.3-.08-.17c1.89-.31,3.82-1,5.65-.81s3.76.77,5.69.61c3.66,5.8,4.25,13.7-2.51,19.85.39.77.8,1.56,1.26,2.44l-.42.48c.26,1.91.51,3.68.69,5L764.27,520a16,16,0,0,1,4.29,5.72c2.82,5.57,6.41,10.66,9.83,15.86,1.55,2.37,3.08,4.75,4.62,7.12a7.92,7.92,0,0,0,1,1.46,23,23,0,0,1,5.86,8.87c.12.32.52.54.78.81,1.14.87,2.51.14,3.86.68,2.89,1.16,4.39,3.32,5.87,5.81,2.28,3.82,3.55,7.81,2.86,12.17l-5.92,8.4c.11,2.35.13,4.88-1.19,7.19a2.89,2.89,0,0,0-.29,1.37c0,7-.61,14.11.17,21,.67,6.08.3,12.1.52,18.14a31.84,31.84,0,0,1-.71,5.71c-.26,1.77.7,3.72-.75,5.33.38,2.35-.59,4.56-.72,6.84a23.36,23.36,0,0,1-3.63,10.92c-.61,1-.89,2.23-1.64,3.06-2.22,2.47-5.12,3.6-8.37,4.33a35.81,35.81,0,0,1-7,.67c-2.85,1.9-3.83,5.28-5.71,8a22.1,22.1,0,0,0-3,5.91,7.44,7.44,0,0,1-4.55,4.91c-2,0-4.4.48-6.49-.12-2.82-.81-5.58-.52-8.37-.61s-5.5,0-8.3,0c-.35.52-.94,1-1,1.52a23.19,23.19,0,0,1-1.6,6.5c-1.11,3.32-1.47,6.84-2.92,10.08-1.09,2.42-1.71,5.06-2.74,7.51a70.16,70.16,0,0,0-4.22,14.09c-.5,2.58-.36,5.08-.62,7.61-.12,1.17.52,2.5-.69,3.49-.19.16-.17.78,0,1.08,1.42,2.95.6,6.07.69,9.11a27.36,27.36,0,0,0,1.86,8.27c1,3,2.57,5.79,2.73,9,0,.53.51,1,.79,1.57l-.84,1.23c.82,2.87,3.37,4.38,5.29,6.61V779c0,1.88,0,3.76,0,5.64s2,2.78,1.51,4.64c1.07.67.76,1.74.75,2.7a16.65,16.65,0,0,0,2.88,9.36,22.35,22.35,0,0,1,2.35,6.9,22.82,22.82,0,0,0,3,7.41,18,18,0,0,1,1.5,3.13c.7,1.79,1.34,3.61,3.73,4.17l1.14,4.35-4.43-1.84c-.29.61-.56,1.18-.84,1.79-.08-.09.41.22.37.44-.43,2.61.86,5,.8,7.59,0,1.7,1.29,3.19.75,5,1.44,1.42.11,3.44,1,4.85,1,1.7.23,3.4.54,5.06.26,1.4.6,2.79.73,4.2s-.32,2.87.09,4.12c1.29,3.89.58,7.84.65,11.75.13,8.4,0,16.8.07,25.2.05,3.91.74,7.82.65,11.73a100.1,100.1,0,0,1-1.51,15.54c-.33,1.77-1.27,3.46-1.74,5.29-1.11,4.26-3,8.37-4,12.59s-3.11,7.9-3.38,12.18c-1.37,1.31.22,3.46-1.34,4.71-.19,3-1.62,5.61-2.28,8.46-.77,3.29-1.85,6.49-2.91,9.7-.53,1.58-1.41,2.93-2,4.45-.2.55-.31,1.14-.53,2,1.74.25,3.09.53,3.35,2.86.19,1.67,1.92,3.19,3,4.71,1,1.36,2.23,2.56,3.14,4a25.55,25.55,0,0,1,1.64,3.84c2.57,2.46,7,2.94,9.29,6.41v1.64l-6,1.19c.3,2.31,2.63,2.61,3.92,3.87a46.44,46.44,0,0,0,4.38,3.49v2.51l-1.11,1.11a2.12,2.12,0,0,1-.71,0c-1.43-.5-2.82-1.36-4.29,0-.2.19-.73,0-1.11,0a16.64,16.64,0,0,0-8.08,1.39,2.28,2.28,0,0,1-.7.12c-3.53.25-7.07.48-10.6.77-1,.08-2.21-.45-3.14.66-.21.25-1.32.12-1.68-.21-.79-.72-1.64-.43-2.46-.46-4.35-.15-8.5-2-12.92-1.51-3.19-1.25-6.65-.74-10.31-1.83l-1.55-2c0-2-.28-4.47,1.7-6.7a24.11,24.11,0,0,0,5.84-11.86c.4-2.19,1.08-4.34,1.61-6.5.4-1.6,1.31-3.77,3.93-3.57.46,0,1-.57,1.81-1.09.51-2.71,1.43-5.73,1.83-9,.33-2.67,0-5.41.66-8,.75-3.06.09-6.19.77-9.09,1-4.19.4-8.35.62-12.51a10,10,0,0,0-.66-4.23c-1.28-3.36-1.06-8.41-.13-12.9.34-1.63.26-3.29.67-5,.61-2.51,1.7-4.88,2-7.46.05-.46.39-.92.33-1.35-.44-3.22.54-6.31.85-9.46a46.67,46.67,0,0,1,1.74-7.16c.36-1.35.94-2.65,1.17-4a9.66,9.66,0,0,0-1.16-5.9c-3.35-6.76-6.7-13.53-10.12-20.26a23,23,0,0,0-2.39-3.52c-2.27-2.93-4.9-5.56-6.71-8.88-1-1.76-2.68-3.11-4.28-4.9-2.27.38-5-.78-7.55.74-2.11-.78-4.46-.52-6.52-1.52a17.07,17.07,0,0,1-1.69-1.06c-.18-.35-.51-1-1-1.9,1-4.92-3.17-8.34-4.86-13.06-1.33,3.51-2.88,6.7-2.58,10.25.33,3.73-1,7.29-.8,11-1.7,2.1-.34,4.68-1.14,7-.73,2.13-.2,4.66-.39,7a21.51,21.51,0,0,1-5,12.6,61.68,61.68,0,0,0-6.11,8.38c-3,5.08-4.6,10.9-7.62,16a27.1,27.1,0,0,0-2.17,3.6c-1.79,4.79-4.34,9.23-6.22,14a116.77,116.77,0,0,1-7.55,16c-3.49,5.95-6.77,12-10.27,18a20.09,20.09,0,0,0-.89,2.13c.45,3.61-1.33,7.64-.81,11.85a7.3,7.3,0,0,0,.73,3.1c.92,1.53.79,1.61.82,4.28l3.26,2.18c-3.16.64-3.36,3.49-4.76,5.35,1,3.38,1.94,6.73,3,10.31a10.48,10.48,0,0,1-7.35,4.26,6,6,0,0,0-1.94.73c-4.64,2.19-9.59,1.4-14.43,1.48a10.68,10.68,0,0,1-3.42-.85c-2.63-.88-5.41-.69-8.06-1.62-2.26-3.42-2.15-4.54,0-7.92,1.58-2.47,3-5.12,2.79-8.22a5.47,5.47,0,0,1,.84-3.42c2.48-3.88,3.93-8.34,7.48-11.65a14.78,14.78,0,0,0,4.2-6.86c.7-2.54,2.11-4.85,2.73-7.54.42-1.82,0-3.76.71-5.32.79-1.84.59-3.59.62-5.38.07-4.13-.08-8.28,0-12.41a58.18,58.18,0,0,1,.83-10.58c.82-3.74,1.61-7.53,2.75-11.23.78-2.54,1.23-5.26,2.08-7.81s1.7-4.83,2.49-7.24c1-3,2.85-5.38,4.44-7.94,1.82-2.93,4.13-5.55,6-8.42a21.7,21.7,0,0,0,4-11.92c0-2.65.52-5.3.69-8a12,12,0,0,0-1.51-6.14c-1.53-3.12-2.5-6.5-4.39-9.48a5,5,0,0,0-1.47-1.87,12.48,12.48,0,0,1-4.72-4.89A51.64,51.64,0,0,0,618,832.7a17.3,17.3,0,0,1-2.75-10.12A21.28,21.28,0,0,0,613,813a77.26,77.26,0,0,1-3.07-9.26c-1.08-3.46-.92-7.49-.08-12.18a26.68,26.68,0,0,0,0-6.38,25,25,0,0,1,1.88-10.52,3.2,3.2,0,0,0,.38-1c.08-3.43.39-6.83.62-10.24a79.83,79.83,0,0,1,3-15.37,27.57,27.57,0,0,0,.92-5.63c.2-3.95,1.45-7.66,2.63-11.34,1-3.19,2.66-6.17,3.9-9.29a14.93,14.93,0,0,0,1-4.09c.34-4,1.84-7.72,1.59-11.79s0-8.28,0-12.42c0-2.88-.21-5.78,0-8.64a109,109,0,0,0,.75-14C626.48,670.34,627,669.8,627.28,669.16ZM745,630.86a6.75,6.75,0,0,0,1,1c2,1.28,3.44,3.32,6,3.75,1.85.33,3.65,1,5.51,1.17a11.49,11.49,0,0,1,4.38,1.27,15.19,15.19,0,0,0,9.56,1.66,52.94,52.94,0,0,1,2.1-7.2,49.9,49.9,0,0,0,3.25-11.78,53,53,0,0,0,1-11.71c-.25-4.37,0-8.77-.08-13.16-.1-3.66.95-7,2.36-10.55l-2-1.82c-.36,1-.72,2-1,2.84h-3.72l-1.76-3.72c-1.53,0-2.93.37-4-.07-3.15-1.32-6.36-.26-9.51-.64-1.38,1.17-3.28.2-4.52.87-1.72.92-3.36.44-5,.63-.37,0-1-.15-1.09,0-1.18,1.55-3,.35-4.47,1.1-1.31.66-3.13.3-4.72.38-.5,0-1.28-.2-1.46,0-1.24,1.65-3.52-.2-4.69,1.47-1.63-.35-3.06.54-4.59.71a49.07,49.07,0,0,1-5.3,0,16.45,16.45,0,0,0-2.24,3.3,20.28,20.28,0,0,1-4.37,6.44,19.87,19.87,0,0,0-4.08,6.24c-1.27,3.27-3.79,5.59-6.23,7.95-2.16.29-2.06,2.29-2.87,3.43l1.28,3.8c.94.37,2,.8,3.1,1.2a65.43,65.43,0,0,1,6.19,2.3c2.09,1,4.15,1.86,6.09,1.49a14.48,14.48,0,0,1,3.19,1.51c2.93,2.55,6.42,3.19,10.06,2.93,4-.28,7.46,1.13,10.62,3.06Zm40.23-62.56a9.43,9.43,0,0,0-.48-2.22c-1.53-3.3-3.57-6.31-5.41-9.43-3.35-5.65-7-11.06-10.54-17.25.24,2.85.13,5.18.7,7.33.73,2.78.81,5.67,1.53,8.38s.25,6.23,4.86,7.27h3C780.64,564.62,783.29,566,785.27,568.3Zm-36.11,434.92-3.41-2.71h-2.82l4.36,4.22h1.8C749.12,1004.13,749.14,1003.66,749.16,1003.22Zm-12.74-10.34c-.74-.65-.36-2.24-2-2.38-.37,1.21-.73,2.37-1.08,3.54C734.8,994.76,735.69,994.22,736.42,992.88Z" class="cls-3"/><path d="M147.92,485.22l2-4.82c.72-1.77,1.38-3.5,3.54-4.14,3-.88,5.67-2.64,9-2.94a8.34,8.34,0,0,0,5.93-2.88c1.35-1.7,3.14-3.19,4-5.1,1-2.08,3.56-2.75,3.94-5.14,1.7-.63,1-2.69,2.13-3.63,1.22-6,5.49-9.71,10-13.23a23.92,23.92,0,0,0,1.92-1.71c1.79-1.76,3.56-3.54,5.23-5.22a18.55,18.55,0,0,1,.65-2.88,21.58,21.58,0,0,1,8.55-9.75c1.77-1.16,3.5-2.38,5.28-3.53,1.41-.9,2.21-2.74,3.42-4.35-2.17-.43-4-.81-5.85-1.15s-3.52-.63-5.76-1l-1-1.23c-3,0-5.76,0-8.52,0a26.25,26.25,0,0,0-7.35,1.33,10.38,10.38,0,0,1-2.56.18c-2.14,0-4.27,0-6.84,0l-3.13-4.72V406l1.46-1.15v-2.51c1.27-1.15,1.44-2.63,1.56-4.26a12.8,12.8,0,0,1,1.5-5.7,35.56,35.56,0,0,1,17.06,2.19c.2-4.11,1.74-7.77,3.24-11.42a27.89,27.89,0,0,1,9.94-12.32c4.88-3.37,10.36-6.22,16.78-5.75a55.84,55.84,0,0,0,5.64,0c4.13-.12,7.93,1.37,11.77,2.51.88.27,2.36.55,2.59,2.19a3.14,3.14,0,0,0,1.67,1.89c3.88,1.89,4.5,5.5,5,9.17a33.67,33.67,0,0,1,0,3.76,11.13,11.13,0,0,0,.63,3.87c.46,1.27,1.2,2.59.92,4.17a23.69,23.69,0,0,0-.05,4.19c1.37,2.36,2,5,6.1,5.89,1.32,0,3.94.09,6.56,0,2-.09,4.05-.57,6.08-.69s4.4.44,6.37-.13c3.68-1.06,7.35-.33,11-.67,1.66-.16,3.29-.57,5-.87.69-1.86,1.43-3.81,2.24-6,1.36-.42,2.44-2.38,4.61-.73a4,4,0,0,0,3.6-.05c1.36-.88,2.6-.39,3.4-.54l12.43,4.75c2.78.85,6.09-.55,8.4,2.07-.25,1.2-.48,2.32-.77,3.69l-7.06,1c-.35,2.69-.73,5.55-1.08,8.26l1.5,1.5c.42,1.59-.28,3-.5,4.54s.55,3,.94,4.79l4.34,2.13c-.3,1-.64,2-1,3.27-1.79.26-3.55.23-4.93-1-2.44,1.81-3.86,4.23-6.64,5a3.26,3.26,0,0,0-1.73,2.54,27,27,0,0,1-.86,5,29.78,29.78,0,0,1-2.72,9c-1.62,3.13-3,6.35-5.33,9.08a7.17,7.17,0,0,0-1,2.22,24.79,24.79,0,0,1-6.36,10.32,20.87,20.87,0,0,1-9-1.34,6.48,6.48,0,0,0-2.21-.11c-6.93,0-13.81-1.28-20.76-.75-4.29-1.12-8.84-1.32-12.74-3.76-1.29-.81-2.59-1.59-3.95-2.42a73.81,73.81,0,0,0-6.81,11.84c-2.21,4.62-5.72,8.56-7.4,13.49-1.77,1.54-2.28,3.83-3.44,5.73a24.88,24.88,0,0,1-8.26,8.1c-1.3.8-2.1,2.08-3.38,2.71s-1.82,1.66-2.68,2.58a35.32,35.32,0,0,1-5.68,4.33c-2.5,1.75-5.06,3.41-8.15,5.49l-1.46,2.83c-.26,2.13-.65,4.39-.79,6.67s0,4.51,0,6.43c1.12,2.41,2.81,4.29,2.22,6.75,1.66,2.88,3.64,5.3,4.7,8.42.64,1.88.38,3.6.58,5.38a8.4,8.4,0,0,0,.73,3.48c1.39,2.54,2.46,5.25,3.77,7.83,1.63,3.22,3.59,6.29,5,9.6A74.18,74.18,0,0,0,222,586.64c1.45,2.16,2.73,4.71,2.47,7.59l-1.22,1.22c-1.13,2.93-.53,6-1.75,8.84a1.86,1.86,0,0,0,0,1.48c1.32,2.32.66,4.82.69,7.23.09,6.52,0,13,.07,19.56,0,2,.57,4.05.69,6.08s.45,4.37-.06,6.38c-1.07,4.16-.66,8.34-.61,12.5a42.24,42.24,0,0,0,2,12.66,43,43,0,0,0,2.07,5.93c1.46,3,3.91,4.94,5.37,6.61l7,3.23-.06,1.21a9.29,9.29,0,0,1-2.84,0c-4.36-1.5-8.84-.33-13.25-.71-.24,0-.57-.11-.74,0-3.19,2.17-6.81,1.36-10.3,1.47-1.16,0-2.41.32-3.4-.63-.88,1-2,.58-3.35.53,1.38-3.1.7-6.28.79-9.4a55.88,55.88,0,0,0-.08-9.77c-.49-3.43-1.32-6.79-1.48-10.3-.06-1.5-.74-3-.73-4.58a11.27,11.27,0,0,0-.77-4.55c-.83-1.89-.41-4-1.39-5.82s-1.42-3.69-2.32-5.43a30.37,30.37,0,0,1-3.77-15c.12-4,0-8,0-12l-3.18-2.16c.24.8.34,1.21.49,1.6a10.93,10.93,0,0,0,.67,1.16l-2,1c-.21-.1-.92-.42-2-.89v3.19l-1.87.09-2.18-2.61c-1.29,1.91,1,2.17,1.07,3.62l-5.1,2.68-3.85-1-3.12-4-1.17,2h-.76c-.12-.2-.35-.4-.35-.6,0-1.48-.35-3.19.26-4.39.71-1.39.14-2.68.49-3.95s1-2.63,1.22-4a41.92,41.92,0,0,0,.36-4.6l-2-2h-1.6c-.73-1-1.48-2.07-2.37-3.34-1.35,1.16-2.68,2-3.21,3.59a2.46,2.46,0,0,1-.69.84c-4,4-6.55,9-9,13.94a13,13,0,0,0-1.6,5.75,20.77,20.77,0,0,1-1,4.36c-4.54-1.9-8.94-3.69-13.29-5.6a30.05,30.05,0,0,1-3.59-2.23,65.77,65.77,0,0,0-15.13-7.06,24.42,24.42,0,0,0-4.42-.62,15,15,0,0,0-4.31,3.93c-1.22,1.51-2.51,3-3.8,4.4-4.93,5.31-8.22,11.76-12.69,17.36-2.43,3-5,6-7.43,9-3.72,4.64-7.52,9.24-10.41,14.51l.75,1a2,2,0,0,1-.29.47c-2.2,2.09-3.48,4.78-4.85,7.4s-3.11,5.28-4.32,8c-1.34,3-2.87,6.07-3.34,9.56-.4,2.94-.54,6.08-2.32,8.8-.79,1.21-.9,2.87-1.31,4.33-.29,1-.56,2-.83,3-3.84,2.11-8.13,1.76-12.27,2.72-.58-.73-1.11-1.42-1.93-2.47.06.31,0,.08,0-.15,0-2.89-.16-5.78,0-8.65.32-5-.57-9.83-.83-14.74a5.84,5.84,0,0,0-1-2.59c-1.91-3.09-2-3.31-2-5.44.71-3.81,2.91-4.65,5.07-5.22a12.33,12.33,0,0,0,6.45-3.74h2c1.45-.86,1.8-2.17,2.44-3.5,1.15-2.39,2.69-4.63,3.86-7.06a141,141,0,0,0,7.24-17.32c1-3.08,2.47-6,3.72-9a52.22,52.22,0,0,1,3-6.67c2.27-3.9,4.35-7.84,8.32-10.45a61.85,61.85,0,0,0,6.12-5.26c1.75-1.52,3.48-3,5.28-4.52,3.63-3,5.75-7,8-11,.39-.71.59-1.52,1-2.23,1-1.86,2.4-3.59,2.89-5.56s.15-4.24.09-6.37a17.58,17.58,0,0,1,.7-3.84,54,54,0,0,1,4.23-11.81A66.16,66.16,0,0,1,119.58,542a10.75,10.75,0,0,0,1.63-3.85,92.83,92.83,0,0,1,5.37-15.86,32.13,32.13,0,0,0,1.5-4.26c1.09-4,3.45-7.43,5.82-10.75a67.16,67.16,0,0,1,6.35-7.16c2.44-2.53,4.71-5.31,8-6.28-.28-3.14-.52-5.91-.77-8.67Zm39,117.58-.15.14.52.62.24-.24a1.22,1.22,0,0,0-.75-.37l.15-.14-.53-.62-.24.24A1.25,1.25,0,0,0,186.88,602.8Zm0,9-.15.14.52.62.24-.24a2.1,2.1,0,0,0-.68-.44,11.77,11.77,0,0,0-3.39-2.64l.4-.38c0-.44-.06-.88-.11-1.49l-1.43.1c.45.7.8,1.24,1.52,1.4C184.18,610.83,184.87,611.52,186.88,611.83Zm-.89-6.62.14-.14-.52-.62-.24.24a2.21,2.21,0,0,0,.68.44l1,2.14,2.75,1.09c0-.81,0-1.26-1-4.25l-.51.68c1.7,1.55,3,3.82,6.72,3.07-2.45-1.48-4.33-2.61-5.23-1.22a1.73,1.73,0,0,1-1.88-.75A1.64,1.64,0,0,0,186,605.21Zm60.83-179.93-4.22,3.66L242,431c1,1.85,2.75.56,3.62,1,3.29,2.71,7.51,3,10,6.06,1.27,0,2.53-.09,3.77,0s2.54.56,3.83.71c2.64.31,5.3.51,7.95.78a1.9,1.9,0,0,1,.62.31,11.46,11.46,0,0,0,6.87,1.13c6-2.81,11.25-6,17.14-7.57.34-1.1.66-2,.87-2.89s.39-2.06.64-3.37l-.62-1.2-5.29-3.73L257,414.89l-.94.95.66.89-2.69,7.15C252,425.88,249.37,425.17,246.82,425.28Zm11.37-16.11c2.68,1.1,5.29,1.31,7.77,1.95,4,1,8,2,12,2.71s8,2.15,12.15,2.54c1.08.1,2.17.82,3.39.49,1.06-1.3,3.2-1.69,3.25-3.84-1.56-1.66-.25-3.8-1.18-5.37l-1.4-2c-4.06.36-7.84-.28-11.63.73-2.52.68-5.37-.45-7.92.85-3.95-.58-7.75,1.12-11.69.76A6.12,6.12,0,0,0,258.19,409.17ZM181.14,608.81c-1.16,2.06,1,3.24,1.21,4.89.06.42.8.74,1.23,1.11l.37-.37Z" class="cls-9"/><path d="M801.14,429.88H799l-3.79-2.7a5,5,0,0,1,3.37-3c-.49-.73-.94-1.4-1.6-2.41v-3l1.24-.35c.07-.64.15-1.45.26-2.57,2-.86,1.59-4,3.52-4.87,2.2-1,2.56-3.43,4.6-4.6l5.19,3c2.63-1.83,5.3-3.89,7-7a8,8,0,0,1,1.57-1.61c1.86-1.87,3.76-3.7,5.58-5.6,4.81-5,9.54-10.12,14.41-15.08,1.42-1.46,1.78-3.34,2.37-5.05a85.83,85.83,0,0,1,5.32-12c-.2-3.89,1.39-7.63,2.66-11.43,1.1-3.31,2.25-6.59,3.41-9.88a6.08,6.08,0,0,1,.74-1.2c1.85-2.87,2.73-6.12,3.85-9.32a78.77,78.77,0,0,1,5.25-11.35c1.08-2,2.86-3.59,4.3-5.38.43-.54.78-1.14,1.32-1.92h4l5,3.3a67.38,67.38,0,0,1-4.8,5.83,17.44,17.44,0,0,0-3.66,5.29,27.46,27.46,0,0,1-5.06,8.07,9.84,9.84,0,0,0-1.14,2.17c.36,3-.9,5.9-2.26,8.83-1.22,2.63-2.48,5.25-3.5,7.95s-3,4.75-3.33,7.67c-.06.49-1,.84-1.19,1.37a8.66,8.66,0,0,0-.28,2.17c4.06-4.48,7.93-8.7,11.75-12.95,1.21-1.36,2.25-2.86,3.49-4.19a14.44,14.44,0,0,0,3-4.41c.52-1.28,2-2.18,3.09-3.23a10.48,10.48,0,0,0,2.9-5,107.11,107.11,0,0,0,11.91-18.08,10.36,10.36,0,0,1-1.93-2c-.77-1.41-1.69-2.69-.64-4.64A4.64,4.64,0,0,1,891,308c.87-.07,1.75,0,2.58,0l2.23-2.23c3.7-.41,6.33,1.55,8.67,4.12a61.43,61.43,0,0,0-8.68,15.42c-3.11,2.8-5.08,7.13-7.84,10.87l2.1,3.19-.5.5,1.58,2.23c-.36.2-.64.41-.68.37-1.44-1.39-2.86-2.82-4.24-4.2a64.18,64.18,0,0,0-5.27,4.27A47.84,47.84,0,0,0,877.4,347a23.72,23.72,0,0,1-2.16,2.32c-1.43,1.34-3.27,2.4-4.28,4a24.26,24.26,0,0,1-3.05,3.6c-4,4.36-8.38,8.48-12.14,13.07-2.45,3-5.18,5.62-7.81,8.4a31.55,31.55,0,0,0-6.67,11.91c-1.31,3.84-2.91,7.57-4.46,11.32-1.68,4.07-3,8.28-4.6,12.39-1.42,3.67-3.13,7.24-4.43,10.95-.85,2.43-1.9,4.89-1.51,7.62,1.94.5,2.84,2.06,3.7,4v2a41.2,41.2,0,0,1,4.58,3.34c3.86,3.69,9.12,4.05,13.72,6,2.14.89,4.41,1.47,6.61,2.18l14.24-6.62h3.19c2.34-1.92,4.44-4,7.57-4.66,1.28-.26,2.28-1.69,3.48-2.46,2.86-1.82,5.22-4.43,8.79-5.18a8.36,8.36,0,0,1,2.39-.51,5.68,5.68,0,0,0,3.9-1.25c.29-1.78-2.21-1.27-2.24-2.79-2-1.6-2-4.21-2.88-6.33a13.06,13.06,0,0,0-2.05-4.06c-.34-.38-.29-1.13-.44-1.8l1.36-.47c.08-.09.25-.23.23-.26-.42-.71-.86-1.4-1.35-2.18.9-1.76,2.2-3.4,2.7-5.36-.48-1-1-2-1.38-2.8.35-2.81,3.88-2.47,4.11-5,1.75-1.23,2.34-3.28,3.46-5.16v-4c1.25-2.79,3.56-4.75,3.86-7.93,2.26-2.1,4.21-4.85,7.48-6,.64-1.51,2.61-.58,3.38-1.84,2.93.36,5.86-.47,8.84.46,1.46.45,3.2,1.13,4.92.33a1.65,1.65,0,0,1,1.4.16c2.9,2,6.31,3.29,8.89,5.82,2.24,2.2,3.68,5,5.29,7.6s3.19,5.7,4.87,8.73a39.49,39.49,0,0,0,.62,5.13c.58,3.07-.67,6.15-1.55,9.08a17.26,17.26,0,0,1-3.3,6.55c-1.4,1.59-1.43,3.73-.69,5.79.24.66.41,1.34.53,1.76,2.34,1.83,4.59,3.46,5.9,6s3.28,5.06,3.87,8.2c.26,1.37,1.85,2.46,2.68,3.76,1.06,1.68,1.83,3.55,3,5.15s.77,3.64,1.7,5.33a27.46,27.46,0,0,1,1.55,4.24c.75,2.12.63,4.42,1.48,6.54.51,1.29.55,2.78,1.12,4.05a16,16,0,0,1,1.21,5.91c.22,3.9,1.46,7.62,2.47,11.37.52,1.93,1,3.87,1.58,6,3.33.49,4.66,3.31,5.65,6.26a12.13,12.13,0,0,0,5.07,6.95c2.53,1.62,3.57,4.63,4.18,7.76,3.45,2.8,4.74,7.09,6.57,11,1,2.1,1.68,4.32,2.62,6.78l-1.92,1.14,1.64,3c-.66,11.23,1.37,22.75.66,34.32-.32,5.22.94,10.31.82,15.49,0,.65.53,1.29.71,2a29,29,0,0,0,4.61,9.78c1.23,1.66,2.65,3.46,2.07,6-4,.93-8.48-.82-12.32,1a23.3,23.3,0,0,0-1,3.22c-.3,2-.64,4.26.65,6,2,2.72,2.79,5.88,3.7,9a77.41,77.41,0,0,1,2.4,13.72c1.09,10.31.22,20.62.71,30.7,1,1.51,2,2.85,2.91,4.26a10.22,10.22,0,0,1,1.57,5.77,50.59,50.59,0,0,1-1.43,9.94c-.61,2.88-.18,6-.11,9,.06,2-.87,3.63-1.51,5.51-2.64-.47-5,.37-7.48-.73-1.46-.65-3.46-.12-5.21-.12h-4.41c-.8-4.48,0-8.76.66-12.93.38-2.16,1.61-4.22,1.36-6.55a13.41,13.41,0,0,0-.55-3.52,7.14,7.14,0,0,1,.27-5c1.16-2.84.15-5.83-.64-8.53-1.16-4-2.05-8.13-4.14-11.82-.58-1,.29-2.5-1-3.37.31-2.83-1-5.36-1.57-8a37.81,37.81,0,0,0-2.93-9.3c-.37-.73-.43-1.76-1-2.2-3.43-2.75-4.3-7-6.51-10.51-.68-1.08-1.14-2.28-1.93-3.34a27.57,27.57,0,0,1-3.93-8.51,38.77,38.77,0,0,0-1.73-4.19c-1.56-3.49-3.2-7-4.85-10.51-2.55.5-4.86,2.13-7.58,2.19s-5.52,0-7.62,0c-4.71,2-8.91,2.79-13.89,1.82-1.32.63-1.73,2.57-2.06,4.17a8.07,8.07,0,0,0,.58,5.33c2,4.16,3.85,8.44,5.63,12.72a20.36,20.36,0,0,1,1.86,6c.19,2.44,1.93,4.33,1.91,6.77,0,.82.4,1.63.42,2.44.07,2-.06,4,0,6a86.74,86.74,0,0,0,.83,11,96.57,96.57,0,0,1,1.56,9.92,42,42,0,0,1,.59,4.59c-.05,1.47.71,2.74.89,4.19a65.14,65.14,0,0,0,2.11,8.57c2.43,3.14,4.51,5.81,6.57,8.49,1.4,1.81.89,4,1,6a10.68,10.68,0,0,1-5.59,5.16,22.07,22.07,0,0,0-3.73.05,26.13,26.13,0,0,0-2.88,1.19,7,7,0,0,1-2.15.26c-6.14,0-12.28,0-18.4,0L912.16,696v-3.35c1.75-2.87,1.75-2.87.57-5.78a10.5,10.5,0,0,1,1.31-1.14,10.81,10.81,0,0,1,1.64-.75c2.07,1.36,4.42.44,6.45.77,1.45-1.34,1.69-2.8,2-4.38a9.7,9.7,0,0,0-.84-7.36c.35-3.06-1.88-5.25-2.78-7.88-1.06-3-2.53-6-3.62-9s-2.58-5.69-3.55-8.7c-.84-2.62-2.57-4.95-3.54-7.55a56.63,56.63,0,0,1-2.41-7.68,72.29,72.29,0,0,0-3.3-9.9,85.19,85.19,0,0,1-3.31-11.78,31.15,31.15,0,0,0-3.62-8.67,17.06,17.06,0,0,1-2.43-9.51,15.76,15.76,0,0,1,.9-3.3L894,588.3a13.31,13.31,0,0,1,1.83-7.93,16.54,16.54,0,0,0,2-6.73c.14-2.42.65-5.07,2.25-6.9a12.23,12.23,0,0,0,2.76-6.38c.35-2.38,1.41-4.5,1.8-6.85a14.78,14.78,0,0,1,2.1-6.26,6.86,6.86,0,0,0,.45-2.17,2,2,0,0,1-.39-1c-.1-1.8-.47-3.59-.63-5.34-.34-3.64-1.33-7.24-.94-11a10.14,10.14,0,0,0-2.27-7.31,46.23,46.23,0,0,1-2.21-6.24c-.55-3.29-1.59-6.52-1.51-9.91-1.59-2-.39-4.49-1-6.72s-.5-4.62-.73-7.18c-1.16-3.09-2.81-6.28-3.61-9.86-.66-3-2-5.77-2.24-8.86,0-.47-.76-.88-1.18-1.35l-7.92,2.13c-.34.09-.71.3-1,.23-2-.46-3.94.37-5.67.91a13.35,13.35,0,0,1-8.81-.17c-2.63-.93-5.51-1.11-7.91-2.73a3,3,0,0,0-1.77-.22c-2.91.24-5.92-.7-8.72.73-2.31-.43-4.67-.65-6.71-2a59.6,59.6,0,0,1-6.47-4.31c-1.94-1.63-4.21-2.92-6-4.59-2.51-2.4-5.95-3.84-7.61-7.24-.5-1-2-1.58-2.92-2.26-4.11,1-4.21,1-7.08-1.89V446.8c-.72-.73-1.43-1.44-2.38-2.38.27-1.2.57-2.57.93-4.18-1.43-1.72-3.08-3.49-4.48-5.44S801.72,432.72,801.14,429.88Zm15.21-17.46c.63,1.26-.72,3,.82,4.38.19.16.17.81,0,1.08-1.37,2.3-.41,4.79-.76,7.1l2.55,3.44,2.21-.16c-1.2-2.93,1.81-4.07,2.15-6.39.32-2.11,1.5-4.11,2.38-6.12s2.16-3.9,2.7-6,1.64-4.09,2.37-6.16,1.73-4,2.58-6.06,1.63-3.93,2.58-6.24c-.66.28-1.19.34-1.44.63-2.24,2.68-4.34,5.49-6.67,8.1C824.12,404.17,820.28,408.19,816.35,412.42ZM944.54,579.05c2,2.14,4.28,4.55,6.59,6.9.31.31,1,.28,2.16.61-1.73-2.16-1.14-4-1.42-5.79s-1-3.57-1.43-5.38-.59-3.45-2.18-5.12C947.49,573.37,943.85,574.7,944.54,579.05Z" class="cls-10"/></svg>