<svg xmlns="http://www.w3.org/2000/svg" xmlns:xlink="http://www.w3.org/1999/xlink" viewBox="0 0 371.43 371.43"><defs><style>.cls-1{fill:#37353c;}.cls-2{fill:#92864f;}.cls-3{fill:#231f20;}.cls-4{fill:url(#linear-gradient);}.cls-5{fill:url(#linear-gradient-2);}.cls-6{fill:url(#New_Gradient_Swatch_copy_2);}.cls-7{fill:url(#New_Gradient_Swatch_copy_2-2);}.cls-8{fill:url(#New_Gradient_Swatch_copy_2-3);}.cls-9{fill:url(#New_Gradient_Swatch_copy_2-4);}.cls-10{fill:url(#New_Gradient_Swatch_copy_2-5);}.cls-11{fill:url(#New_Gradient_Swatch_copy_2-6);}.cls-12{fill:url(#New_Gradient_Swatch_copy_2-7);}.cls-13{fill:url(#New_Gradient_Swatch_copy_2-8);}.cls-14{fill:url(#New_Gradient_Swatch_copy_2-9);}.cls-15{fill:none;stroke:#625b32;stroke-miterlimit:10;}</style><linearGradient id="linear-gradient" x1="2241.9" y1="1766.71" x2="2448.82" y2="1559.79" gradientTransform="translate(2623.93 1941.82) rotate(180)" gradientUnits="userSpaceOnUse"><stop offset="0" stop-color="#c09d30"/><stop offset="0.35" stop-color="#d0a641"/><stop offset="0.5" stop-color="#fffac4"/><stop offset="0.65" stop-color="#d0a641"/><stop offset="1" stop-color="#c09d30"/></linearGradient><linearGradient id="linear-gradient-2" x1="2427.61" y1="1952.43" x2="2634.54" y2="1745.5" xlink:href="#linear-gradient"/><linearGradient id="New_Gradient_Swatch_copy_2" x1="74.01" y1="148.21" x2="74.01" y2="223.21" gradientUnits="userSpaceOnUse"><stop offset="0.18" stop-color="#fffac4"/><stop offset="0.21" stop-color="#f9efb4"/><stop offset="0.25" stop-color="#eed893"/><stop offset="0.76" stop-color="#d6b55a"/><stop offset="0.84" stop-color="#d0a641"/><stop offset="0.95" stop-color="#b69238"/></linearGradient><linearGradient id="New_Gradient_Swatch_copy_2-2" x1="101.82" y1="160.39" x2="101.82" y2="221.52" xlink:href="#New_Gradient_Swatch_copy_2"/><linearGradient id="New_Gradient_Swatch_copy_2-3" x1="124.27" y1="160.39" x2="124.27" y2="221.52" xlink:href="#New_Gradient_Swatch_copy_2"/><linearGradient id="New_Gradient_Swatch_copy_2-4" x1="147.69" y1="159" x2="147.69" y2="222.92" xlink:href="#New_Gradient_Swatch_copy_2"/><linearGradient id="New_Gradient_Swatch_copy_2-5" x1="180.69" y1="160.39" x2="180.69" y2="221.52" xlink:href="#New_Gradient_Swatch_copy_2"/><linearGradient id="New_Gradient_Swatch_copy_2-6" x1="210.45" y1="160.39" x2="210.45" y2="221.52" xlink:href="#New_Gradient_Swatch_copy_2"/><linearGradient id="New_Gradient_Swatch_copy_2-7" x1="240.28" y1="159.13" x2="240.28" y2="221.52" xlink:href="#New_Gradient_Swatch_copy_2"/><linearGradient id="New_Gradient_Swatch_copy_2-8" x1="269.59" y1="160.39" x2="269.59" y2="221.52" xlink:href="#New_Gradient_Swatch_copy_2"/><linearGradient id="New_Gradient_Swatch_copy_2-9" x1="298.01" y1="160.39" x2="298.01" y2="221.52" xlink:href="#New_Gradient_Swatch_copy_2"/></defs><g id="Stickball"><g id="Stickball-2" data-name="Stickball"><polygon class="cls-1" points="164.5 371.43 0 371.43 0 206.93 206.93 0 371.43 0 371.43 164.5 164.5 371.43"/><polygon class="cls-2" points="35.72 335.71 119.28 119.28 335.71 35.72 252.15 252.15 35.72 335.71"/><polygon class="cls-3" points="214 371.43 371.43 214 371.43 157.43 157.43 371.43 214 371.43"/><polygon class="cls-3" points="157.43 0 0.59 156.84 0 214 214 0 157.43 0"/><polygon class="cls-4" points="206.93 371.43 371.43 206.93 371.43 164.5 164.5 371.43 206.93 371.43"/><polygon class="cls-5" points="164.5 0 0 164.5 0 206.93 206.93 0 164.5 0"/></g><path class="cls-3" d="M81.24,148.21l.27,23.9h-1c-.47-6-1.63-10.81-3.48-14.46s-3.84-5.47-6-5.47c-1.65,0-3,1-3.93,2.88a14.51,14.51,0,0,0-1.46,6.63,15.5,15.5,0,0,0,.52,4.23,18.36,18.36,0,0,0,2.26,4.92,60,60,0,0,0,5.3,6.18q5.8,6.18,7.83,11.68a36.78,36.78,0,0,1,2,12.58,34.34,34.34,0,0,1-3.23,15.46q-3.24,6.48-8.21,6.47a6.52,6.52,0,0,1-3-.68,16.7,16.7,0,0,1-3.49-2.59,3.28,3.28,0,0,0-1.93-1.06c-.42,0-.87.35-1.34,1.06a9.21,9.21,0,0,0-1.15,3.22h-.9V196.1h.9q1.08,11.42,4.14,17.42t6.6,6q2.73,0,4.35-3.23a16.5,16.5,0,0,0,1.62-7.5,19.12,19.12,0,0,0-.62-4.92,17.2,17.2,0,0,0-1.89-4.52A35.34,35.34,0,0,0,71,193.78a48.88,48.88,0,0,1-6.49-8.2,29.32,29.32,0,0,1-3-7.56,37.59,37.59,0,0,1-1.06-9.19,33.32,33.32,0,0,1,2.91-14.59q2.9-6,7.32-6a6.37,6.37,0,0,1,3.12.85,13.14,13.14,0,0,1,2.79,2.35c1.1,1.15,1.87,1.72,2.31,1.72s.75-.28,1-.85a18,18,0,0,0,.68-4.07Z"/><path class="cls-3" d="M112.44,160.39v16.55h-.74a48,48,0,0,0-1.48-8.23,10.31,10.31,0,0,0-2.23-4,3.8,3.8,0,0,0-2.77-.81h-2.1v47.15a41.1,41.1,0,0,0,.24,5.87,4.76,4.76,0,0,0,.94,2,2.31,2.31,0,0,0,1.9.88h.94v1.66H92.36v-1.66h.94a2.41,2.41,0,0,0,2-1,4.94,4.94,0,0,0,.85-2.16,40.11,40.11,0,0,0,.23-5.69V163.91h-2a4.32,4.32,0,0,0-4.14,2.61q-1.82,3.66-2.29,10.42H87.1V160.39Z"/><path class="cls-3" d="M129.59,219.86v1.66H114.84v-1.66h.93a2.41,2.41,0,0,0,2-1,4.72,4.72,0,0,0,.83-2.16,38.54,38.54,0,0,0,.23-5.69V170.85a41.56,41.56,0,0,0-.23-5.86,4.73,4.73,0,0,0-.92-2.05,2.29,2.29,0,0,0-1.89-.88h-.93v-1.67h14.75v1.67h-.94a2.4,2.4,0,0,0-2,.95,4.93,4.93,0,0,0-.86,2.16,39.93,39.93,0,0,0-.23,5.68v40.21a41.1,41.1,0,0,0,.24,5.87,4.88,4.88,0,0,0,.94,2,2.28,2.28,0,0,0,1.88.88Z"/><path class="cls-3" d="M159,159v21.18h-.81q-.91-8.3-3.41-12.71c-1.67-2.94-3.55-4.42-5.66-4.42q-2.64,0-4.85,3.29a23.2,23.2,0,0,0-3.22,8.61,79.88,79.88,0,0,0-1.32,15.15,106.64,106.64,0,0,0,1,15q1,6.73,3,10.18t5.28,3.45a6.43,6.43,0,0,0,4.88-2.52q2.22-2.52,4.67-8.7v5.27a23.94,23.94,0,0,1-4.94,7.78,8.47,8.47,0,0,1-6,2.41,10.54,10.54,0,0,1-8-3.92q-3.51-3.93-5.41-11.27a62.11,62.11,0,0,1-1.91-15.64,63.48,63.48,0,0,1,2.12-16.59q2.1-7.84,5.7-12.18t7.62-4.32c2,0,4.08.93,6.29,2.79a6.6,6.6,0,0,0,2.43,1.62c.45,0,.83-.35,1.16-1.06a10.25,10.25,0,0,0,.63-3.35Z"/><path class="cls-3" d="M179.09,183.79,189,210.7a34,34,0,0,0,3.62,7.71,3,3,0,0,0,2.33,1.45v1.66H180.28v-1.66a2.6,2.6,0,0,0,1.8-1,3.2,3.2,0,0,0,.4-1.67c0-1.26-.63-3.64-1.91-7.12l-6.47-17.63-1,1.89v16.68a40,40,0,0,0,.25,6,4.38,4.38,0,0,0,.95,2,2.82,2.82,0,0,0,2.27.84v1.66H162.3v-1.66h.94a2.4,2.4,0,0,0,2-1,4.83,4.83,0,0,0,.84-2.16,40.79,40.79,0,0,0,.22-5.69V170.85a44,44,0,0,0-.22-5.86,4.87,4.87,0,0,0-.93-2.05,2.27,2.27,0,0,0-1.88-.88h-.94v-1.67h14v1.67a2.69,2.69,0,0,0-2.19.9,4.9,4.9,0,0,0-.85,2.12,37.31,37.31,0,0,0-.25,5.77v19l10.46-18.35q2.19-3.84,2.19-6.13a3.89,3.89,0,0,0-.9-2.71,3.73,3.73,0,0,0-2.26-.63v-1.67h11v1.67a3.81,3.81,0,0,0-2.32,1.15,54.61,54.61,0,0,0-3.88,6.24Z"/><path class="cls-3" d="M213.45,189.11a12.9,12.9,0,0,1,5.64,4.91,21.48,21.48,0,0,1,2.33,10.64,23,23,0,0,1-2.56,11.41,10,10,0,0,1-9.14,5.45H195.39v-1.66a3.51,3.51,0,0,0,2.65-.79,4.62,4.62,0,0,0,1-2,40.85,40.85,0,0,0,.28-6.23V171.12a41.21,41.21,0,0,0-.28-6.24,4.33,4.33,0,0,0-1-2,3.54,3.54,0,0,0-2.64-.77v-1.67h13.52c3.23,0,5.52.63,6.87,1.87a12.69,12.69,0,0,1,3.18,5.59,26.25,26.25,0,0,1,1.17,7.92,19.89,19.89,0,0,1-1.48,7.86A11.28,11.28,0,0,1,213.45,189.11Zm-7.58,2.3V211l0,2.25a9.18,9.18,0,0,0,.57,3.68,1.84,1.84,0,0,0,1.7,1.24,4.09,4.09,0,0,0,3.07-1.6,11,11,0,0,0,2.15-4.65,28.32,28.32,0,0,0,.75-6.78,29.66,29.66,0,0,0-.91-7.69,9.22,9.22,0,0,0-2.52-4.75A7.06,7.06,0,0,0,205.87,191.41Zm0-3.52a5.86,5.86,0,0,0,4.36-1.44,9.37,9.37,0,0,0,2.16-4.06,30.54,30.54,0,0,0,0-13.32,8.82,8.82,0,0,0-2.12-3.94c-.91-.91-2.38-1.34-4.41-1.31Z"/><path class="cls-3" d="M240.64,204.12h-10l-1.18,5.95a26.42,26.42,0,0,0-.58,4.92,6.14,6.14,0,0,0,1,3.78,4.62,4.62,0,0,0,2.77,1.09v1.66h-9.38v-1.66a4.48,4.48,0,0,0,2.49-2.73,55.37,55.37,0,0,0,2.42-9.22l10.09-48.78h.39l10.18,50.13q1.45,7.13,2.39,9a2.76,2.76,0,0,0,2,1.63v1.66H239.56v-1.66h.56a2.55,2.55,0,0,0,2.31-1,3.83,3.83,0,0,0,.46-2.07,10.71,10.71,0,0,0-.13-1.67c0-.27-.23-1.4-.62-3.38Zm-.7-3.33-4.21-21.06-4.33,21.06Z"/><path class="cls-3" d="M280.59,200.06l-1.06,21.46h-25v-1.66h.94a2.4,2.4,0,0,0,2-1,4.83,4.83,0,0,0,.84-2.16,40.79,40.79,0,0,0,.22-5.69V170.85a44,44,0,0,0-.22-5.86,4.87,4.87,0,0,0-.93-2.05,2.27,2.27,0,0,0-1.88-.88h-.94v-1.67h15v1.67H268.3a2.41,2.41,0,0,0-2,.95,4.82,4.82,0,0,0-.85,2.16,38.37,38.37,0,0,0-.23,5.68v39a41.55,41.55,0,0,0,.25,6,3.21,3.21,0,0,0,1,1.91,4.77,4.77,0,0,0,2.51.41h2.35a4.76,4.76,0,0,0,3.75-1.72,14.55,14.55,0,0,0,2.59-5.41,77.75,77.75,0,0,0,2.07-10.91Z"/><path class="cls-3" d="M309,200.06,308,221.52H282.9v-1.66h.94a2.41,2.41,0,0,0,2-1,4.84,4.84,0,0,0,.83-2.16,40.11,40.11,0,0,0,.23-5.69V170.85a43.27,43.27,0,0,0-.23-5.86,4.63,4.63,0,0,0-.93-2.05,2.26,2.26,0,0,0-1.88-.88h-.94v-1.67H298v1.67h-1.23a2.41,2.41,0,0,0-2,.95,4.94,4.94,0,0,0-.85,2.16,39.93,39.93,0,0,0-.23,5.68v39a41.55,41.55,0,0,0,.25,6,3.26,3.26,0,0,0,1,1.91,4.84,4.84,0,0,0,2.52.41h2.35a4.74,4.74,0,0,0,3.74-1.72,14.4,14.4,0,0,0,2.59-5.41,77.75,77.75,0,0,0,2.07-10.91Z"/><path class="cls-6" d="M83.29,148.21l.27,23.9h-1c-.47-6-1.63-10.81-3.47-14.46s-3.85-5.47-6-5.47c-1.66,0-3,1-3.94,2.88a14.51,14.51,0,0,0-1.45,6.63,15.92,15.92,0,0,0,.51,4.23,18.4,18.4,0,0,0,2.27,4.92A59.48,59.48,0,0,0,75.78,177q5.81,6.18,7.83,11.68a36.54,36.54,0,0,1,2,12.58,34.34,34.34,0,0,1-3.23,15.46q-3.24,6.48-8.21,6.47a6.55,6.55,0,0,1-3-.68,16.7,16.7,0,0,1-3.49-2.59,3.25,3.25,0,0,0-1.93-1.06c-.42,0-.87.35-1.34,1.06a9.42,9.42,0,0,0-1.15,3.22h-.9V196.1h.9q1.08,11.42,4.14,17.42t6.6,6q2.73,0,4.35-3.23a16.37,16.37,0,0,0,1.63-7.5,19.13,19.13,0,0,0-.63-4.92,17.2,17.2,0,0,0-1.89-4.52A34.76,34.76,0,0,0,73,193.78a49.41,49.41,0,0,1-6.49-8.2,29,29,0,0,1-3-7.56,37.1,37.1,0,0,1-1.06-9.19,33.33,33.33,0,0,1,2.9-14.59q2.89-6,7.32-6a6.37,6.37,0,0,1,3.12.85,12.9,12.9,0,0,1,2.79,2.35c1.1,1.15,1.87,1.72,2.31,1.72s.76-.28,1-.85a18,18,0,0,0,.68-4.07Z"/><path class="cls-7" d="M114.5,160.39v16.55h-.75a48,48,0,0,0-1.48-8.23,10.19,10.19,0,0,0-2.23-4,3.78,3.78,0,0,0-2.76-.81h-2.11v47.15a41.1,41.1,0,0,0,.24,5.87,4.88,4.88,0,0,0,.94,2,2.32,2.32,0,0,0,1.9.88h.94v1.66H94.42v-1.66h.93a2.41,2.41,0,0,0,2-1,4.82,4.82,0,0,0,.85-2.16,38.54,38.54,0,0,0,.23-5.69V163.91h-2a4.32,4.32,0,0,0-4.14,2.61q-1.8,3.66-2.29,10.42h-.79V160.39Z"/><path class="cls-8" d="M131.64,219.86v1.66H116.89v-1.66h.94a2.4,2.4,0,0,0,2-1,4.72,4.72,0,0,0,.83-2.16,38.54,38.54,0,0,0,.23-5.69V170.85a41.56,41.56,0,0,0-.23-5.86,4.73,4.73,0,0,0-.92-2.05,2.27,2.27,0,0,0-1.88-.88h-.94v-1.67h14.75v1.67h-.93a2.41,2.41,0,0,0-2,.95,4.82,4.82,0,0,0-.85,2.16,38.37,38.37,0,0,0-.23,5.68v40.21a41.1,41.1,0,0,0,.24,5.87,4.87,4.87,0,0,0,.93,2,2.32,2.32,0,0,0,1.89.88Z"/><path class="cls-9" d="M161.07,159v21.18h-.82q-.92-8.3-3.41-12.71c-1.66-2.94-3.55-4.42-5.66-4.42q-2.64,0-4.85,3.29a23.37,23.37,0,0,0-3.22,8.61,79.92,79.92,0,0,0-1.31,15.15,108.27,108.27,0,0,0,.95,15q1,6.73,3,10.18t5.29,3.45a6.46,6.46,0,0,0,4.88-2.52q2.21-2.52,4.67-8.7v5.27a24.1,24.1,0,0,1-4.94,7.78,8.51,8.51,0,0,1-6,2.41,10.54,10.54,0,0,1-8-3.92q-3.51-3.93-5.41-11.27a62.12,62.12,0,0,1-1.9-15.64,63.48,63.48,0,0,1,2.11-16.59q2.12-7.84,5.7-12.18t7.63-4.32q3,0,6.28,2.79,1.92,1.62,2.43,1.62c.45,0,.83-.35,1.16-1.06a10,10,0,0,0,.63-3.35Z"/><path class="cls-10" d="M181.14,183.79l9.93,26.91a34,34,0,0,0,3.62,7.71,3,3,0,0,0,2.33,1.45v1.66H182.33v-1.66a2.6,2.6,0,0,0,1.8-1,3.2,3.2,0,0,0,.41-1.67c0-1.26-.64-3.64-1.92-7.12l-6.47-17.63-1,1.89v16.68a40,40,0,0,0,.25,6,4.5,4.5,0,0,0,1,2,2.8,2.8,0,0,0,2.27.84v1.66H164.35v-1.66h.94a2.41,2.41,0,0,0,2-1,4.84,4.84,0,0,0,.83-2.16,40.11,40.11,0,0,0,.23-5.69V170.85a43.27,43.27,0,0,0-.23-5.86,4.63,4.63,0,0,0-.93-2.05,2.26,2.26,0,0,0-1.88-.88h-.94v-1.67H178.4v1.67a2.69,2.69,0,0,0-2.19.9,4.9,4.9,0,0,0-.85,2.12,37.31,37.31,0,0,0-.25,5.77v19l10.47-18.35q2.17-3.84,2.18-6.13a3.93,3.93,0,0,0-.89-2.71,3.76,3.76,0,0,0-2.27-.63v-1.67h11v1.67a3.76,3.76,0,0,0-2.32,1.15,51.67,51.67,0,0,0-3.88,6.24Z"/><path class="cls-11" d="M215.5,189.11a12.78,12.78,0,0,1,5.64,4.91,21.48,21.48,0,0,1,2.33,10.64,22.86,22.86,0,0,1-2.56,11.41,10,10,0,0,1-9.14,5.45H197.44v-1.66a3.49,3.49,0,0,0,2.65-.79,4.52,4.52,0,0,0,1-2,39.5,39.5,0,0,0,.28-6.23V171.12a39.84,39.84,0,0,0-.28-6.24,4.33,4.33,0,0,0-1-2,3.54,3.54,0,0,0-2.64-.77v-1.67H211c3.23,0,5.52.63,6.87,1.87a12.6,12.6,0,0,1,3.18,5.59,26.25,26.25,0,0,1,1.17,7.92,19.71,19.71,0,0,1-1.48,7.86A11.24,11.24,0,0,1,215.5,189.11Zm-7.58,2.3V211l0,2.25a9,9,0,0,0,.58,3.68,1.82,1.82,0,0,0,1.69,1.24,4.08,4.08,0,0,0,3.07-1.6,11,11,0,0,0,2.16-4.65,28.86,28.86,0,0,0,.74-6.78,29.66,29.66,0,0,0-.91-7.69,9.22,9.22,0,0,0-2.52-4.75A7.06,7.06,0,0,0,207.92,191.41Zm0-3.52a5.84,5.84,0,0,0,4.36-1.44,9.37,9.37,0,0,0,2.16-4.06,24.67,24.67,0,0,0,.75-6.67,25,25,0,0,0-.74-6.65,8.81,8.81,0,0,0-2.11-3.94c-.92-.91-2.39-1.34-4.42-1.31Z"/><path class="cls-12" d="M242.7,204.12h-10l-1.19,5.95A26.42,26.42,0,0,0,231,215a6.07,6.07,0,0,0,1,3.78,4.55,4.55,0,0,0,2.76,1.09v1.66H225.3v-1.66a4.52,4.52,0,0,0,2.5-2.73,56.74,56.74,0,0,0,2.41-9.22l10.09-48.78h.4l10.17,50.13q1.45,7.13,2.4,9a2.75,2.75,0,0,0,2,1.63v1.66H241.61v-1.66h.56a2.55,2.55,0,0,0,2.31-1,3.83,3.83,0,0,0,.46-2.07,12,12,0,0,0-.12-1.67c0-.27-.24-1.4-.63-3.38Zm-.71-3.33-4.21-21.06-4.32,21.06Z"/><path class="cls-13" d="M282.65,200.06l-1.06,21.46H256.53v-1.66h.94a2.41,2.41,0,0,0,2-1,4.84,4.84,0,0,0,.83-2.16,40.11,40.11,0,0,0,.23-5.69V170.85a43.27,43.27,0,0,0-.23-5.86,4.63,4.63,0,0,0-.93-2.05,2.26,2.26,0,0,0-1.88-.88h-.94v-1.67h15.05v1.67h-1.23a2.41,2.41,0,0,0-2,.95,4.94,4.94,0,0,0-.85,2.16,39.93,39.93,0,0,0-.23,5.68v39a41.55,41.55,0,0,0,.25,6,3.26,3.26,0,0,0,1,1.91,4.79,4.79,0,0,0,2.52.41h2.35a4.75,4.75,0,0,0,3.74-1.72,14.55,14.55,0,0,0,2.59-5.41,77.75,77.75,0,0,0,2.07-10.91Z"/><path class="cls-14" d="M311.07,200.06,310,221.52H285v-1.66h.93a2.41,2.41,0,0,0,2-1,4.72,4.72,0,0,0,.83-2.16,40.11,40.11,0,0,0,.23-5.69V170.85a43.27,43.27,0,0,0-.23-5.86,4.73,4.73,0,0,0-.92-2.05,2.29,2.29,0,0,0-1.89-.88H285v-1.67h15v1.67h-1.23a2.38,2.38,0,0,0-2,.95,4.93,4.93,0,0,0-.86,2.16,39.93,39.93,0,0,0-.23,5.68v39a43.18,43.18,0,0,0,.25,6,3.32,3.32,0,0,0,1,1.91,4.84,4.84,0,0,0,2.52.41h2.35a4.76,4.76,0,0,0,3.75-1.72,14.71,14.71,0,0,0,2.59-5.41,80.81,80.81,0,0,0,2.07-10.91Z"/><path class="cls-15" d="M83.29,148.21l.27,23.9h-1c-.47-6-1.63-10.81-3.47-14.46s-3.85-5.47-6-5.47c-1.66,0-3,1-3.94,2.88a14.51,14.51,0,0,0-1.45,6.63,15.92,15.92,0,0,0,.51,4.23,18.4,18.4,0,0,0,2.27,4.92A59.48,59.48,0,0,0,75.78,177q5.81,6.18,7.83,11.68a36.54,36.54,0,0,1,2,12.58,34.34,34.34,0,0,1-3.23,15.46q-3.24,6.48-8.21,6.47a6.55,6.55,0,0,1-3-.68,16.7,16.7,0,0,1-3.49-2.59,3.25,3.25,0,0,0-1.93-1.06c-.42,0-.87.35-1.34,1.06a9.42,9.42,0,0,0-1.15,3.22h-.9V196.1h.9q1.08,11.42,4.14,17.42t6.6,6q2.73,0,4.35-3.23a16.37,16.37,0,0,0,1.63-7.5,19.13,19.13,0,0,0-.63-4.92,17.2,17.2,0,0,0-1.89-4.52A34.76,34.76,0,0,0,73,193.78a49.41,49.41,0,0,1-6.49-8.2,29,29,0,0,1-3-7.56,37.1,37.1,0,0,1-1.06-9.19,33.33,33.33,0,0,1,2.9-14.59q2.89-6,7.32-6a6.37,6.37,0,0,1,3.12.85,12.9,12.9,0,0,1,2.79,2.35c1.1,1.15,1.87,1.72,2.31,1.72s.76-.28,1-.85a18,18,0,0,0,.68-4.07Z"/><path class="cls-15" d="M114.5,160.39v16.55h-.75a48,48,0,0,0-1.48-8.23,10.19,10.19,0,0,0-2.23-4,3.78,3.78,0,0,0-2.76-.81h-2.11v47.15a41.1,41.1,0,0,0,.24,5.87,4.88,4.88,0,0,0,.94,2,2.32,2.32,0,0,0,1.9.88h.94v1.66H94.42v-1.66h.93a2.41,2.41,0,0,0,2-1,4.82,4.82,0,0,0,.85-2.16,38.54,38.54,0,0,0,.23-5.69V163.91h-2a4.32,4.32,0,0,0-4.14,2.61q-1.8,3.66-2.29,10.42h-.79V160.39Z"/><path class="cls-15" d="M131.64,219.86v1.66H116.89v-1.66h.94a2.4,2.4,0,0,0,2-1,4.72,4.72,0,0,0,.83-2.16,38.54,38.54,0,0,0,.23-5.69V170.85a41.56,41.56,0,0,0-.23-5.86,4.73,4.73,0,0,0-.92-2.05,2.27,2.27,0,0,0-1.88-.88h-.94v-1.67h14.75v1.67h-.93a2.41,2.41,0,0,0-2,.95,4.82,4.82,0,0,0-.85,2.16,38.37,38.37,0,0,0-.23,5.68v40.21a41.1,41.1,0,0,0,.24,5.87,4.87,4.87,0,0,0,.93,2,2.32,2.32,0,0,0,1.89.88Z"/><path class="cls-15" d="M161.07,159v21.18h-.82q-.92-8.3-3.41-12.71c-1.66-2.94-3.55-4.42-5.66-4.42q-2.64,0-4.85,3.29a23.37,23.37,0,0,0-3.22,8.61,79.92,79.92,0,0,0-1.31,15.15,108.27,108.27,0,0,0,.95,15q1,6.73,3,10.18t5.29,3.45a6.46,6.46,0,0,0,4.88-2.52q2.21-2.52,4.67-8.7v5.27a24.1,24.1,0,0,1-4.94,7.78,8.51,8.51,0,0,1-6,2.41,10.54,10.54,0,0,1-8-3.92q-3.51-3.93-5.41-11.27a62.12,62.12,0,0,1-1.9-15.64,63.48,63.48,0,0,1,2.11-16.59q2.12-7.84,5.7-12.18t7.63-4.32q3,0,6.28,2.79,1.92,1.62,2.43,1.62c.45,0,.83-.35,1.16-1.06a10,10,0,0,0,.63-3.35Z"/><path class="cls-15" d="M181.14,183.79l9.93,26.91a34,34,0,0,0,3.62,7.71,3,3,0,0,0,2.33,1.45v1.66H182.33v-1.66a2.6,2.6,0,0,0,1.8-1,3.2,3.2,0,0,0,.41-1.67c0-1.26-.64-3.64-1.92-7.12l-6.47-17.63-1,1.89v16.68a40,40,0,0,0,.25,6,4.5,4.5,0,0,0,1,2,2.8,2.8,0,0,0,2.27.84v1.66H164.35v-1.66h.94a2.41,2.41,0,0,0,2-1,4.84,4.84,0,0,0,.83-2.16,40.11,40.11,0,0,0,.23-5.69V170.85a43.27,43.27,0,0,0-.23-5.86,4.63,4.63,0,0,0-.93-2.05,2.26,2.26,0,0,0-1.88-.88h-.94v-1.67H178.4v1.67a2.69,2.69,0,0,0-2.19.9,4.9,4.9,0,0,0-.85,2.12,37.31,37.31,0,0,0-.25,5.77v19l10.47-18.35q2.17-3.84,2.18-6.13a3.93,3.93,0,0,0-.89-2.71,3.76,3.76,0,0,0-2.27-.63v-1.67h11v1.67a3.76,3.76,0,0,0-2.32,1.15,51.67,51.67,0,0,0-3.88,6.24Z"/><path class="cls-15" d="M215.5,189.11a12.78,12.78,0,0,1,5.64,4.91,21.48,21.48,0,0,1,2.33,10.64,22.86,22.86,0,0,1-2.56,11.41,10,10,0,0,1-9.14,5.45H197.44v-1.66a3.49,3.49,0,0,0,2.65-.79,4.52,4.52,0,0,0,1-2,39.5,39.5,0,0,0,.28-6.23V171.12a39.84,39.84,0,0,0-.28-6.24,4.33,4.33,0,0,0-1-2,3.54,3.54,0,0,0-2.64-.77v-1.67H211c3.23,0,5.52.63,6.87,1.87a12.6,12.6,0,0,1,3.18,5.59,26.25,26.25,0,0,1,1.17,7.92,19.71,19.71,0,0,1-1.48,7.86A11.24,11.24,0,0,1,215.5,189.11Zm-7.58,2.3V211l0,2.25a9,9,0,0,0,.58,3.68,1.82,1.82,0,0,0,1.69,1.24,4.08,4.08,0,0,0,3.07-1.6,11,11,0,0,0,2.16-4.65,28.86,28.86,0,0,0,.74-6.78,29.66,29.66,0,0,0-.91-7.69,9.22,9.22,0,0,0-2.52-4.75A7.06,7.06,0,0,0,207.92,191.41Zm0-3.52a5.84,5.84,0,0,0,4.36-1.44,9.37,9.37,0,0,0,2.16-4.06,24.67,24.67,0,0,0,.75-6.67,25,25,0,0,0-.74-6.65,8.81,8.81,0,0,0-2.11-3.94c-.92-.91-2.39-1.34-4.42-1.31Z"/><path class="cls-15" d="M242.7,204.12h-10l-1.19,5.95A26.42,26.42,0,0,0,231,215a6.07,6.07,0,0,0,1,3.78,4.55,4.55,0,0,0,2.76,1.09v1.66H225.3v-1.66a4.52,4.52,0,0,0,2.5-2.73,56.74,56.74,0,0,0,2.41-9.22l10.09-48.78h.4l10.17,50.13q1.45,7.13,2.4,9a2.75,2.75,0,0,0,2,1.63v1.66H241.61v-1.66h.56a2.55,2.55,0,0,0,2.31-1,3.83,3.83,0,0,0,.46-2.07,12,12,0,0,0-.12-1.67c0-.27-.24-1.4-.63-3.38Zm-.71-3.33-4.21-21.06-4.32,21.06Z"/><path class="cls-15" d="M282.65,200.06l-1.06,21.46H256.53v-1.66h.94a2.41,2.41,0,0,0,2-1,4.84,4.84,0,0,0,.83-2.16,40.11,40.11,0,0,0,.23-5.69V170.85a43.27,43.27,0,0,0-.23-5.86,4.63,4.63,0,0,0-.93-2.05,2.26,2.26,0,0,0-1.88-.88h-.94v-1.67h15.05v1.67h-1.23a2.41,2.41,0,0,0-2,.95,4.94,4.94,0,0,0-.85,2.16,39.93,39.93,0,0,0-.23,5.68v39a41.55,41.55,0,0,0,.25,6,3.26,3.26,0,0,0,1,1.91,4.79,4.79,0,0,0,2.52.41h2.35a4.75,4.75,0,0,0,3.74-1.72,14.55,14.55,0,0,0,2.59-5.41,77.75,77.75,0,0,0,2.07-10.91Z"/><path class="cls-15" d="M311.07,200.06,310,221.52H285v-1.66h.93a2.41,2.41,0,0,0,2-1,4.72,4.72,0,0,0,.83-2.16,40.11,40.11,0,0,0,.23-5.69V170.85a43.27,43.27,0,0,0-.23-5.86,4.73,4.73,0,0,0-.92-2.05,2.29,2.29,0,0,0-1.89-.88H285v-1.67h15v1.67h-1.23a2.38,2.38,0,0,0-2,.95,4.93,4.93,0,0,0-.86,2.16,39.93,39.93,0,0,0-.23,5.68v39a43.18,43.18,0,0,0,.25,6,3.32,3.32,0,0,0,1,1.91,4.84,4.84,0,0,0,2.52.41h2.35a4.76,4.76,0,0,0,3.75-1.72,14.71,14.71,0,0,0,2.59-5.41,80.81,80.81,0,0,0,2.07-10.91Z"/></g></svg>