<svg xmlns="http://www.w3.org/2000/svg" xmlns:xlink="http://www.w3.org/1999/xlink" viewBox="0 0 371.43 371.43"><defs><style>.cls-1{fill:#37353c;}.cls-2{fill:#92864f;}.cls-3{fill:#231f20;}.cls-4{fill:url(#linear-gradient);}.cls-5{fill:url(#linear-gradient-2);}.cls-6{fill:url(#New_Gradient_Swatch_copy_2);}.cls-7{fill:url(#New_Gradient_Swatch_copy_2-2);}.cls-8{fill:url(#New_Gradient_Swatch_copy_2-3);}.cls-9{fill:url(#New_Gradient_Swatch_copy_2-4);}.cls-10{fill:url(#New_Gradient_Swatch_copy_2-5);}.cls-11{fill:url(#New_Gradient_Swatch_copy_2-6);}.cls-12{fill:url(#New_Gradient_Swatch_copy_2-7);}.cls-13{fill:url(#New_Gradient_Swatch_copy_2-8);}.cls-14{fill:url(#New_Gradient_Swatch_copy_2-9);}.cls-15{fill:none;stroke:#625b32;stroke-miterlimit:10;}</style><linearGradient id="linear-gradient" x1="2241.9" y1="1766.71" x2="2448.82" y2="1559.79" gradientTransform="translate(2623.93 1941.82) rotate(180)" gradientUnits="userSpaceOnUse"><stop offset="0" stop-color="#c09d30"/><stop offset="0.35" stop-color="#d0a641"/><stop offset="0.5" stop-color="#fffac4"/><stop offset="0.65" stop-color="#d0a641"/><stop offset="1" stop-color="#c09d30"/></linearGradient><linearGradient id="linear-gradient-2" x1="2427.61" y1="1952.43" x2="2634.54" y2="1745.5" xlink:href="#linear-gradient"/><linearGradient id="New_Gradient_Swatch_copy_2" x1="75.85" y1="146.39" x2="75.85" y2="225.04" gradientUnits="userSpaceOnUse"><stop offset="0.18" stop-color="#fffac4"/><stop offset="0.21" stop-color="#f9efb4"/><stop offset="0.25" stop-color="#eed893"/><stop offset="0.76" stop-color="#d6b55a"/><stop offset="0.84" stop-color="#d0a641"/><stop offset="0.95" stop-color="#b69238"/></linearGradient><linearGradient id="New_Gradient_Swatch_copy_2-2" x1="105.29" y1="156.87" x2="105.29" y2="225.04" xlink:href="#New_Gradient_Swatch_copy_2"/><linearGradient id="New_Gradient_Swatch_copy_2-3" x1="128.92" y1="156.87" x2="128.92" y2="225.04" xlink:href="#New_Gradient_Swatch_copy_2"/><linearGradient id="New_Gradient_Swatch_copy_2-4" x1="151.15" y1="156.87" x2="151.15" y2="225.04" xlink:href="#New_Gradient_Swatch_copy_2"/><linearGradient id="New_Gradient_Swatch_copy_2-5" x1="180.73" y1="156.87" x2="180.73" y2="225.04" xlink:href="#New_Gradient_Swatch_copy_2"/><linearGradient id="New_Gradient_Swatch_copy_2-6" x1="210.82" y1="156.87" x2="210.82" y2="225.04" xlink:href="#New_Gradient_Swatch_copy_2"/><linearGradient id="New_Gradient_Swatch_copy_2-7" x1="240.09" y1="156.87" x2="240.09" y2="225.04" xlink:href="#New_Gradient_Swatch_copy_2"/><linearGradient id="New_Gradient_Swatch_copy_2-8" x1="268.22" y1="156.87" x2="268.22" y2="225.04" xlink:href="#New_Gradient_Swatch_copy_2"/><linearGradient id="New_Gradient_Swatch_copy_2-9" x1="295.31" y1="156.87" x2="295.31" y2="225.04" xlink:href="#New_Gradient_Swatch_copy_2"/></defs><g id="Stickball"><rect class="cls-1" width="371.43" height="371.43"/><g id="Stickball-2" data-name="Stickball"><polygon class="cls-1" points="164.5 371.43 0 371.43 0 206.93 206.93 0 371.43 0 371.43 164.5 164.5 371.43"/><polygon class="cls-2" points="35.72 335.71 119.28 119.28 335.71 35.72 252.15 252.15 35.72 335.71"/><polygon class="cls-3" points="214 371.43 371.43 214 371.43 157.43 157.43 371.43 214 371.43"/><polygon class="cls-3" points="157.43 0 0.59 156.84 0 214 214 0 157.43 0"/><polygon class="cls-4" points="206.93 371.43 371.43 206.93 371.43 164.5 164.5 371.43 206.93 371.43"/><polygon class="cls-5" points="164.5 0 0 164.5 0 206.93 206.93 0 164.5 0"/></g><path class="cls-3" d="M84.66,173.55c0,.31-.21.52-.63.52s-.52-.31-.63-.73c-1.68-8.5-6.71-21.71-11.54-21.71-2.62,0-2.83,2.2-2.83,4.93,0,5.14,1.37,10.28,9.13,26.74,7.34,15.52,8.18,19,8.18,27.27,0,11.12-5.77,14.47-9.65,14.47a9.93,9.93,0,0,1-5.88-2A5.9,5.9,0,0,0,68.72,222c-.42,0-1.26.74-3.36,2.31-.42.31-.84.73-1.26.73s-.52-.21-.52-.52V198.09c0-.31.1-.73.52-.73s.53.42.63.73c1.89,8.39,5.14,21.71,11.33,21.71,2,0,3-2.2,3-5.45,0-7-3.15-14.69-9.12-27.27-5.67-12-7.77-19.93-7.77-27.58,0-10,4.31-13.11,9.65-13.11a10.41,10.41,0,0,1,5.88,2.41,3.82,3.82,0,0,0,1.57.63,5.8,5.8,0,0,0,2.41-1.68c1-.84,1.58-1.36,2.2-1.36s.74.52.74,1.15Z"/><path class="cls-3" d="M100.22,161.23H96.85c-.54,0-.81.46-1,1l-4.72,18.09a.7.7,0,0,1-.73.55c-.36,0-.45-.19-.45-.64v-23a.41.41,0,0,1,.45-.36H117a.42.42,0,0,1,.46.36v23c0,.45-.09.64-.46.64a.69.69,0,0,1-.72-.55l-4.73-18.09c-.18-.54-.45-1-1-1h-3.36V218.5a3.3,3.3,0,0,0,.72,2.54l2.73,2.64c.27.27.64.55.64.82s-.09.54-.55.54H96.67a.47.47,0,0,1-.54-.54c0-.27.36-.55.63-.82L99.49,221a3.26,3.26,0,0,0,.73-2.54Z"/><path class="cls-3" d="M123.85,163.41a3.29,3.29,0,0,0-.82-2.54l-2.73-2.64c-.18-.27-.63-.54-.63-.82a.52.52,0,0,1,.54-.54h14.28a.52.52,0,0,1,.54.54c0,.28-.45.55-.64.82l-2.72,2.64a3.29,3.29,0,0,0-.82,2.54V218.5a3.29,3.29,0,0,0,.82,2.54l2.72,2.64c.19.27.64.55.64.82a.52.52,0,0,1-.54.54H120.21a.52.52,0,0,1-.54-.54c0-.27.45-.55.63-.82L123,221a3.29,3.29,0,0,0,.82-2.54Z"/><path class="cls-3" d="M160.48,180.05c0,.45-.18.82-.54.82s-.64-.46-.73-1c-1.09-7.64-3.73-18.46-8.36-18.46-4,0-4.73,8.64-4.73,27.82,0,27.27,2,31.27,6.09,31.27,5,0,6.91-16.73,6.91-17.55a.67.67,0,0,1,.73-.72c.45,0,.63.27.63.82,0,13.45-2,22-10,22-10.63,0-11.81-20.72-11.81-35.9,0-11.18.45-32.27,11.81-32.27a7.5,7.5,0,0,1,4.37,1.91,2.3,2.3,0,0,0,1.54.54,2.67,2.67,0,0,0,1.73-1.09c.54-.63,1.27-1.36,1.73-1.36s.63.63.63,1.54Z"/><path class="cls-3" d="M167.93,163.41a3,3,0,0,0-.81-2.54l-2.73-2.55a1.38,1.38,0,0,1-.64-1,.48.48,0,0,1,.46-.45h14.45a.48.48,0,0,1,.45.45,1.56,1.56,0,0,1-.54,1l-2.82,2.55a3.29,3.29,0,0,0-.82,2.54v26.46h.18L184,163.14a2,2,0,0,0-.54-2.45l-2.82-2.37c-.36-.36-.64-.63-.64-1s.28-.45.64-.45h13.27c.37,0,.64.18.64.45s-.37.73-.73,1.09l-3.09,3.09a8.94,8.94,0,0,0-2,3.73l-7,21.09,7.91,32a4.59,4.59,0,0,0,1.18,2.18l3.09,3a1.71,1.71,0,0,1,.64,1.09c0,.36-.09.45-.46.45H180.57c-.36,0-.55-.09-.55-.45s.37-.55.73-1l2.36-3.18a2.63,2.63,0,0,0,.28-2.46l-5.09-20.81h-.19l-3.18,9.72V218.5a3.29,3.29,0,0,0,.82,2.54l2.82,2.55a1.59,1.59,0,0,1,.54,1,.48.48,0,0,1-.45.45H164.21a.48.48,0,0,1-.46-.45,1.6,1.6,0,0,1,.55-1l2.82-2.55a3.33,3.33,0,0,0,.81-2.54Z"/><path class="cls-3" d="M200.2,163.41a3.29,3.29,0,0,0-.82-2.54l-2.72-2.64c-.19-.27-.64-.54-.64-.82a.52.52,0,0,1,.55-.54h11.36c9.45,0,14.36,5.82,14.36,16.82,0,10.45-3.18,14-6.73,16.18,3.55,1.81,6.91,5.63,6.91,15.72,0,13.18-4.18,19.45-11.63,19.45H196.57a.52.52,0,0,1-.55-.54c0-.27.45-.46.64-.82l2.72-2.64a3.29,3.29,0,0,0,.82-2.54Zm7,24.73h1.36c4.46,0,6.37-3.55,6.37-14.45,0-9.28-1.91-12.28-6.37-12.28H207.2Zm0,32.36H210c4,0,4.91-3.27,4.91-15.55,0-8.9-1.91-12.27-6.37-12.27H207.2Z"/><path class="cls-3" d="M241.29,209.86c-.09-.45-.37-.82-.82-.82h-6.73c-.27,0-.45.28-.54.64l-1.37,10a2.1,2.1,0,0,0,.46,1.64l2,2.09c.36.45.91.82.91,1.09s-.18.54-.64.54H224.11a.52.52,0,0,1-.55-.54c0-.27.37-.64.64-.91l2.54-2.55a3.71,3.71,0,0,0,.73-2.27l8.27-61.08c.09-.46.28-.82.73-.82h3.36c.46,0,.73.45.82,1l8.64,61a3.76,3.76,0,0,0,1,2.46l2.63,2.36c.28.27.55.55.55.82s-.18.54-.64.54H239.74c-.45,0-.63-.27-.63-.54s.36-.55.63-.82l2.46-2.45a2.22,2.22,0,0,0,.45-1.82ZM240,204.23c.27,0,.45-.28.36-.64l-3.18-22.27H237l-3,22.36c-.1.37.09.55.27.55Z"/><path class="cls-3" d="M258.92,163.41a3.29,3.29,0,0,0-.82-2.54l-2.72-2.64c-.19-.27-.64-.54-.64-.82a.52.52,0,0,1,.54-.54h14.28a.52.52,0,0,1,.54.54c0,.28-.45.55-.63.82l-2.73,2.64a3.29,3.29,0,0,0-.82,2.54V220.5h3.64c1.09,0,2-.27,2.36-1.36l5.64-17.64c.18-.36.18-.64.54-.64s.46.28.46.64v22.27c0,.82-.28,1.27-1,1.27H255.28a.52.52,0,0,1-.54-.54c0-.27.45-.46.64-.82L258.1,221a3.29,3.29,0,0,0,.82-2.54Z"/><path class="cls-3" d="M286,163.41a3.29,3.29,0,0,0-.82-2.54l-2.73-2.64c-.18-.27-.63-.54-.63-.82a.52.52,0,0,1,.54-.54h14.27a.52.52,0,0,1,.55.54c0,.28-.46.55-.64.82l-2.73,2.64a3.33,3.33,0,0,0-.81,2.54V220.5h3.63c1.09,0,2-.27,2.37-1.36l5.63-17.64c.18-.36.18-.64.55-.64s.45.28.45.64v22.27c0,.82-.27,1.27-1,1.27H282.37a.52.52,0,0,1-.54-.54c0-.27.45-.46.63-.82l2.73-2.64a3.29,3.29,0,0,0,.82-2.54Z"/><path class="cls-6" d="M86.23,173.55c0,.31-.21.52-.63.52s-.52-.31-.63-.73c-1.67-8.5-6.71-21.71-11.53-21.71-2.63,0-2.83,2.2-2.83,4.93,0,5.14,1.36,10.28,9.12,26.74,7.34,15.52,8.18,19,8.18,27.27,0,11.12-5.77,14.47-9.65,14.47a9.89,9.89,0,0,1-5.87-2,5.91,5.91,0,0,0-2.1-1.05c-.42,0-1.26.74-3.36,2.31-.41.31-.83.73-1.25.73s-.53-.21-.53-.52V198.09c0-.31.11-.73.53-.73s.52.42.62.73c1.89,8.39,5.14,21.71,11.33,21.71,2,0,3-2.2,3-5.45,0-7-3.14-14.69-9.12-27.27-5.66-12-7.76-19.93-7.76-27.58,0-10,4.3-13.11,9.65-13.11a10.38,10.38,0,0,1,5.87,2.41,3.82,3.82,0,0,0,1.57.63,5.88,5.88,0,0,0,2.42-1.68c.94-.84,1.57-1.36,2.2-1.36s.73.52.73,1.15Z"/><path class="cls-7" d="M101.79,161.23H98.43c-.55,0-.82.46-1,1L92.7,180.32a.7.7,0,0,1-.73.55c-.36,0-.45-.19-.45-.64v-23a.41.41,0,0,1,.45-.36h26.64a.41.41,0,0,1,.45.36v23c0,.45-.09.64-.45.64a.7.7,0,0,1-.73-.55l-4.73-18.09c-.18-.54-.45-1-1-1h-3.36V218.5a3.26,3.26,0,0,0,.73,2.54l2.72,2.64c.28.27.64.55.64.82s-.09.54-.55.54H98.25c-.46,0-.55-.27-.55-.54s.36-.55.64-.82l2.72-2.64a3.26,3.26,0,0,0,.73-2.54Z"/><path class="cls-8" d="M125.42,163.41a3.29,3.29,0,0,0-.82-2.54l-2.72-2.64c-.18-.27-.64-.54-.64-.82a.52.52,0,0,1,.55-.54h14.27a.52.52,0,0,1,.54.54c0,.28-.45.55-.63.82l-2.73,2.64a3.29,3.29,0,0,0-.82,2.54V218.5a3.29,3.29,0,0,0,.82,2.54l2.73,2.64c.18.27.63.55.63.82a.52.52,0,0,1-.54.54H121.79a.52.52,0,0,1-.55-.54c0-.27.46-.55.64-.82L124.6,221a3.29,3.29,0,0,0,.82-2.54Z"/><path class="cls-9" d="M162.06,180.05c0,.45-.19.82-.55.82s-.64-.46-.73-1c-1.09-7.64-3.72-18.46-8.36-18.46-4,0-4.73,8.64-4.73,27.82,0,27.27,2,31.27,6.09,31.27,5,0,6.91-16.73,6.91-17.55a.67.67,0,0,1,.73-.72c.45,0,.64.27.64.82,0,13.45-2,22-10,22-10.64,0-11.82-20.72-11.82-35.9,0-11.18.45-32.27,11.82-32.27a7.47,7.47,0,0,1,4.36,1.91,2.3,2.3,0,0,0,1.54.54,2.67,2.67,0,0,0,1.73-1.09c.55-.63,1.27-1.36,1.73-1.36s.64.63.64,1.54Z"/><path class="cls-10" d="M169.51,163.41a3,3,0,0,0-.82-2.54L166,158.32a1.36,1.36,0,0,1-.63-1,.48.48,0,0,1,.45-.45h14.45a.48.48,0,0,1,.46.45,1.58,1.58,0,0,1-.55,1l-2.82,2.55a3.33,3.33,0,0,0-.81,2.54v26.46h.18l8.91-26.73a2,2,0,0,0-.55-2.45l-2.82-2.37c-.36-.36-.63-.63-.63-1s.27-.45.63-.45H195.5c.37,0,.64.18.64.45s-.36.73-.73,1.09l-3.09,3.09a9.05,9.05,0,0,0-2,3.73l-7,21.09,7.91,32a4.68,4.68,0,0,0,1.18,2.18l3.09,3a1.71,1.71,0,0,1,.64,1.09c0,.36-.09.45-.45.45H182.14c-.36,0-.54-.09-.54-.45s.36-.55.72-1l2.37-3.18A2.66,2.66,0,0,0,185,218l-5.09-20.81h-.18l-3.18,9.72V218.5a3.33,3.33,0,0,0,.81,2.54l2.82,2.55a1.6,1.6,0,0,1,.55,1,.48.48,0,0,1-.46.45H165.78a.48.48,0,0,1-.45-.45,1.59,1.59,0,0,1,.54-1l2.82-2.55a3.29,3.29,0,0,0,.82-2.54Z"/><path class="cls-11" d="M201.77,163.41a3.33,3.33,0,0,0-.81-2.54l-2.73-2.64c-.18-.27-.64-.54-.64-.82a.53.53,0,0,1,.55-.54H209.5c9.46,0,14.36,5.82,14.36,16.82,0,10.45-3.18,14-6.72,16.18,3.54,1.81,6.91,5.63,6.91,15.72,0,13.18-4.19,19.45-11.64,19.45H198.14a.53.53,0,0,1-.55-.54c0-.27.46-.46.64-.82L201,221a3.33,3.33,0,0,0,.81-2.54Zm7,24.73h1.37c4.45,0,6.36-3.55,6.36-14.45,0-9.28-1.91-12.28-6.36-12.28h-1.37Zm0,32.36h2.82c4,0,4.91-3.27,4.91-15.55,0-8.9-1.91-12.27-6.36-12.27h-1.37Z"/><path class="cls-12" d="M242.86,209.86c-.09-.45-.36-.82-.82-.82h-6.72c-.28,0-.46.28-.55.64l-1.36,10a2.09,2.09,0,0,0,.45,1.64l2,2.09c.37.45.91.82.91,1.09s-.18.54-.64.54H225.68a.52.52,0,0,1-.54-.54c0-.27.36-.64.63-.91l2.55-2.55a3.77,3.77,0,0,0,.72-2.27l8.28-61.08c.09-.46.27-.82.72-.82h3.37c.45,0,.72.45.82,1l8.63,61a3.76,3.76,0,0,0,1,2.46l2.64,2.36c.27.27.54.55.54.82s-.18.54-.63.54H241.32c-.46,0-.64-.27-.64-.54s.36-.55.64-.82l2.45-2.45a2.18,2.18,0,0,0,.45-1.82Zm-1.27-5.63c.27,0,.45-.28.36-.64l-3.18-22.27h-.18l-3,22.36c-.09.37.09.55.27.55Z"/><path class="cls-13" d="M260.49,163.41a3.33,3.33,0,0,0-.81-2.54L257,158.23c-.18-.27-.64-.54-.64-.82a.52.52,0,0,1,.55-.54h14.27a.53.53,0,0,1,.55.54c0,.28-.46.55-.64.82l-2.73,2.64a3.33,3.33,0,0,0-.82,2.54V220.5h3.64c1.09,0,2-.27,2.36-1.36l5.64-17.64c.18-.36.18-.64.54-.64s.46.28.46.64v22.27c0,.82-.27,1.27-1,1.27H256.86a.52.52,0,0,1-.55-.54c0-.27.46-.46.64-.82l2.73-2.64a3.33,3.33,0,0,0,.81-2.54Z"/><path class="cls-14" d="M287.58,163.41a3.29,3.29,0,0,0-.82-2.54L284,158.23c-.18-.27-.63-.54-.63-.82a.52.52,0,0,1,.54-.54h14.28a.52.52,0,0,1,.54.54c0,.28-.45.55-.64.82l-2.72,2.64a3.29,3.29,0,0,0-.82,2.54V220.5h3.64c1.09,0,2-.27,2.36-1.36l5.64-17.64c.18-.36.18-.64.54-.64s.45.28.45.64v22.27c0,.82-.27,1.27-1,1.27H283.94a.52.52,0,0,1-.54-.54c0-.27.45-.46.63-.82l2.73-2.64a3.29,3.29,0,0,0,.82-2.54Z"/><path class="cls-15" d="M86.23,173.55c0,.31-.21.52-.63.52s-.52-.31-.63-.73c-1.67-8.5-6.71-21.71-11.53-21.71-2.63,0-2.83,2.2-2.83,4.93,0,5.14,1.36,10.28,9.12,26.74,7.34,15.52,8.18,19,8.18,27.27,0,11.12-5.77,14.47-9.65,14.47a9.89,9.89,0,0,1-5.87-2,5.91,5.91,0,0,0-2.1-1.05c-.42,0-1.26.74-3.36,2.31-.41.31-.83.73-1.25.73s-.53-.21-.53-.52V198.09c0-.31.11-.73.53-.73s.52.42.62.73c1.89,8.39,5.14,21.71,11.33,21.71,2,0,3-2.2,3-5.45,0-7-3.14-14.69-9.12-27.27-5.66-12-7.76-19.93-7.76-27.58,0-10,4.3-13.11,9.65-13.11a10.38,10.38,0,0,1,5.87,2.41,3.82,3.82,0,0,0,1.57.63,5.88,5.88,0,0,0,2.42-1.68c.94-.84,1.57-1.36,2.2-1.36s.73.52.73,1.15Z"/><path class="cls-15" d="M101.79,161.23H98.43c-.55,0-.82.46-1,1L92.7,180.32a.7.7,0,0,1-.73.55c-.36,0-.45-.19-.45-.64v-23a.41.41,0,0,1,.45-.36h26.64a.41.41,0,0,1,.45.36v23c0,.45-.09.64-.45.64a.7.7,0,0,1-.73-.55l-4.73-18.09c-.18-.54-.45-1-1-1h-3.36V218.5a3.26,3.26,0,0,0,.73,2.54l2.72,2.64c.28.27.64.55.64.82s-.09.54-.55.54H98.25c-.46,0-.55-.27-.55-.54s.36-.55.64-.82l2.72-2.64a3.26,3.26,0,0,0,.73-2.54Z"/><path class="cls-15" d="M125.42,163.41a3.29,3.29,0,0,0-.82-2.54l-2.72-2.64c-.18-.27-.64-.54-.64-.82a.52.52,0,0,1,.55-.54h14.27a.52.52,0,0,1,.54.54c0,.28-.45.55-.63.82l-2.73,2.64a3.29,3.29,0,0,0-.82,2.54V218.5a3.29,3.29,0,0,0,.82,2.54l2.73,2.64c.18.27.63.55.63.82a.52.52,0,0,1-.54.54H121.79a.52.52,0,0,1-.55-.54c0-.27.46-.55.64-.82L124.6,221a3.29,3.29,0,0,0,.82-2.54Z"/><path class="cls-15" d="M162.06,180.05c0,.45-.19.82-.55.82s-.64-.46-.73-1c-1.09-7.64-3.72-18.46-8.36-18.46-4,0-4.73,8.64-4.73,27.82,0,27.27,2,31.27,6.09,31.27,5,0,6.91-16.73,6.91-17.55a.67.67,0,0,1,.73-.72c.45,0,.64.27.64.82,0,13.45-2,22-10,22-10.64,0-11.82-20.72-11.82-35.9,0-11.18.45-32.27,11.82-32.27a7.47,7.47,0,0,1,4.36,1.91,2.3,2.3,0,0,0,1.54.54,2.67,2.67,0,0,0,1.73-1.09c.55-.63,1.27-1.36,1.73-1.36s.64.63.64,1.54Z"/><path class="cls-15" d="M169.51,163.41a3,3,0,0,0-.82-2.54L166,158.32a1.36,1.36,0,0,1-.63-1,.48.48,0,0,1,.45-.45h14.45a.48.48,0,0,1,.46.45,1.58,1.58,0,0,1-.55,1l-2.82,2.55a3.33,3.33,0,0,0-.81,2.54v26.46h.18l8.91-26.73a2,2,0,0,0-.55-2.45l-2.82-2.37c-.36-.36-.63-.63-.63-1s.27-.45.63-.45H195.5c.37,0,.64.18.64.45s-.36.73-.73,1.09l-3.09,3.09a9.05,9.05,0,0,0-2,3.73l-7,21.09,7.91,32a4.68,4.68,0,0,0,1.18,2.18l3.09,3a1.71,1.71,0,0,1,.64,1.09c0,.36-.09.45-.45.45H182.14c-.36,0-.54-.09-.54-.45s.36-.55.72-1l2.37-3.18A2.66,2.66,0,0,0,185,218l-5.09-20.81h-.18l-3.18,9.72V218.5a3.33,3.33,0,0,0,.81,2.54l2.82,2.55a1.6,1.6,0,0,1,.55,1,.48.48,0,0,1-.46.45H165.78a.48.48,0,0,1-.45-.45,1.59,1.59,0,0,1,.54-1l2.82-2.55a3.29,3.29,0,0,0,.82-2.54Z"/><path class="cls-15" d="M201.77,163.41a3.33,3.33,0,0,0-.81-2.54l-2.73-2.64c-.18-.27-.64-.54-.64-.82a.53.53,0,0,1,.55-.54H209.5c9.46,0,14.36,5.82,14.36,16.82,0,10.45-3.18,14-6.72,16.18,3.54,1.81,6.91,5.63,6.91,15.72,0,13.18-4.19,19.45-11.64,19.45H198.14a.53.53,0,0,1-.55-.54c0-.27.46-.46.64-.82L201,221a3.33,3.33,0,0,0,.81-2.54Zm7,24.73h1.37c4.45,0,6.36-3.55,6.36-14.45,0-9.28-1.91-12.28-6.36-12.28h-1.37Zm0,32.36h2.82c4,0,4.91-3.27,4.91-15.55,0-8.9-1.91-12.27-6.36-12.27h-1.37Z"/><path class="cls-15" d="M242.86,209.86c-.09-.45-.36-.82-.82-.82h-6.72c-.28,0-.46.28-.55.64l-1.36,10a2.09,2.09,0,0,0,.45,1.64l2,2.09c.37.45.91.82.91,1.09s-.18.54-.64.54H225.68a.52.52,0,0,1-.54-.54c0-.27.36-.64.63-.91l2.55-2.55a3.77,3.77,0,0,0,.72-2.27l8.28-61.08c.09-.46.27-.82.72-.82h3.37c.45,0,.72.45.82,1l8.63,61a3.76,3.76,0,0,0,1,2.46l2.64,2.36c.27.27.54.55.54.82s-.18.54-.63.54H241.32c-.46,0-.64-.27-.64-.54s.36-.55.64-.82l2.45-2.45a2.18,2.18,0,0,0,.45-1.82Zm-1.27-5.63c.27,0,.45-.28.36-.64l-3.18-22.27h-.18l-3,22.36c-.09.37.09.55.27.55Z"/><path class="cls-15" d="M260.49,163.41a3.33,3.33,0,0,0-.81-2.54L257,158.23c-.18-.27-.64-.54-.64-.82a.52.52,0,0,1,.55-.54h14.27a.53.53,0,0,1,.55.54c0,.28-.46.55-.64.82l-2.73,2.64a3.33,3.33,0,0,0-.82,2.54V220.5h3.64c1.09,0,2-.27,2.36-1.36l5.64-17.64c.18-.36.18-.64.54-.64s.46.28.46.64v22.27c0,.82-.27,1.27-1,1.27H256.86a.52.52,0,0,1-.55-.54c0-.27.46-.46.64-.82l2.73-2.64a3.33,3.33,0,0,0,.81-2.54Z"/><path class="cls-15" d="M287.58,163.41a3.29,3.29,0,0,0-.82-2.54L284,158.23c-.18-.27-.63-.54-.63-.82a.52.52,0,0,1,.54-.54h14.28a.52.52,0,0,1,.54.54c0,.28-.45.55-.64.82l-2.72,2.64a3.29,3.29,0,0,0-.82,2.54V220.5h3.64c1.09,0,2-.27,2.36-1.36l5.64-17.64c.18-.36.18-.64.54-.64s.45.28.45.64v22.27c0,.82-.27,1.27-1,1.27H283.94a.52.52,0,0,1-.54-.54c0-.27.45-.46.63-.82l2.73-2.64a3.29,3.29,0,0,0,.82-2.54Z"/></g></svg>