<svg xmlns="http://www.w3.org/2000/svg" xmlns:xlink="http://www.w3.org/1999/xlink" viewBox="0 0 371.43 371.43"><defs><style>.cls-1{fill:#37353c;}.cls-2{fill:#92864f;}.cls-3{fill:#231f20;}.cls-4{fill:url(#linear-gradient);}.cls-5{fill:url(#linear-gradient-2);}.cls-6{fill:url(#New_Gradient_Swatch_copy_2);}.cls-7{fill:url(#New_Gradient_Swatch_copy_2-2);}.cls-8{fill:url(#New_Gradient_Swatch_copy_2-3);}.cls-9{fill:url(#New_Gradient_Swatch_copy_2-4);}.cls-10{fill:url(#New_Gradient_Swatch_copy_2-5);}.cls-11{fill:url(#New_Gradient_Swatch_copy_2-6);}.cls-12{fill:url(#New_Gradient_Swatch_copy_2-7);}.cls-13{fill:url(#New_Gradient_Swatch_copy_2-8);}.cls-14{fill:url(#New_Gradient_Swatch_copy_2-9);}.cls-15{fill:url(#New_Gradient_Swatch_copy_2-10);}.cls-16{fill:url(#New_Gradient_Swatch_copy_2-11);}.cls-17{fill:none;stroke:#625b32;stroke-miterlimit:10;}</style><linearGradient id="linear-gradient" x1="1459.04" y1="3332.43" x2="1665.96" y2="3125.5" gradientTransform="translate(-3136.11 1841.07) rotate(-90)" gradientUnits="userSpaceOnUse"><stop offset="0" stop-color="#c09d30"/><stop offset="0.35" stop-color="#d0a641"/><stop offset="0.5" stop-color="#fffac4"/><stop offset="0.65" stop-color="#d0a641"/><stop offset="1" stop-color="#c09d30"/></linearGradient><linearGradient id="linear-gradient-2" x1="1644.75" y1="3518.14" x2="1851.68" y2="3311.22" xlink:href="#linear-gradient"/><linearGradient id="New_Gradient_Swatch_copy_2" x1="108.34" y1="103.21" x2="108.34" y2="180.2" gradientUnits="userSpaceOnUse"><stop offset="0.18" stop-color="#fffac4"/><stop offset="0.21" stop-color="#f9efb4"/><stop offset="0.25" stop-color="#eed893"/><stop offset="0.76" stop-color="#d6b55a"/><stop offset="0.84" stop-color="#d0a641"/><stop offset="0.95" stop-color="#b69238"/></linearGradient><linearGradient id="New_Gradient_Swatch_copy_2-2" x1="135.99" y1="114.28" x2="135.99" y2="178.48" xlink:href="#New_Gradient_Swatch_copy_2"/><linearGradient id="New_Gradient_Swatch_copy_2-3" x1="157.47" y1="112.82" x2="157.47" y2="180" xlink:href="#New_Gradient_Swatch_copy_2"/><linearGradient id="New_Gradient_Swatch_copy_2-4" x1="178.3" y1="114.28" x2="178.3" y2="178.48" xlink:href="#New_Gradient_Swatch_copy_2"/><linearGradient id="New_Gradient_Swatch_copy_2-5" x1="202" y1="114.28" x2="202" y2="178.48" xlink:href="#New_Gradient_Swatch_copy_2"/><linearGradient id="New_Gradient_Swatch_copy_2-6" x1="233.59" y1="113.35" x2="233.59" y2="179.95" xlink:href="#New_Gradient_Swatch_copy_2"/><linearGradient id="New_Gradient_Swatch_copy_2-7" x1="267.69" y1="114.28" x2="267.69" y2="178.48" xlink:href="#New_Gradient_Swatch_copy_2"/><linearGradient id="New_Gradient_Swatch_copy_2-8" x1="139.04" y1="191.48" x2="139.04" y2="266.75" xlink:href="#New_Gradient_Swatch_copy_2"/><linearGradient id="New_Gradient_Swatch_copy_2-9" x1="165.28" y1="202.55" x2="165.28" y2="268.21" xlink:href="#New_Gradient_Swatch_copy_2"/><linearGradient id="New_Gradient_Swatch_copy_2-10" x1="195.15" y1="202.55" x2="195.15" y2="266.75" xlink:href="#New_Gradient_Swatch_copy_2"/><linearGradient id="New_Gradient_Swatch_copy_2-11" x1="226.46" y1="201.62" x2="226.46" y2="268.21" xlink:href="#New_Gradient_Swatch_copy_2"/></defs><g id="Visitor_Info" data-name="Visitor Info"><g id="Visitor_Info-2" data-name="Visitor Info"><polygon class="cls-1" points="0 164.5 0 0 164.5 0 371.43 206.93 371.43 371.43 206.93 371.43 0 164.5"/><polygon class="cls-2" points="35.72 35.72 252.15 119.28 335.71 335.71 119.28 252.15 35.72 35.72"/><polygon class="cls-3" points="0 214 157.43 371.43 214 371.43 0 157.43 0 214"/><polygon class="cls-3" points="371.43 157.43 214.59 0.59 157.43 0 371.43 214 371.43 157.43"/><polygon class="cls-4" points="0 206.93 164.5 371.43 206.93 371.43 0 164.5 0 206.93"/><polygon class="cls-5" points="371.43 164.5 206.93 0 164.5 0 371.43 206.93 371.43 164.5"/></g><path class="cls-3" d="M124.74,103.21v2.06c-1.27.44-2.39,1.9-3.38,4.38a107.92,107.92,0,0,0-3.21,13l-12,57.5h-.85L93.43,120.37a125.06,125.06,0,0,0-2.88-12.72,3.75,3.75,0,0,0-2.76-2.38v-2.06h16.66v2.06h-.57a3.45,3.45,0,0,0-3.07,1.22,4.22,4.22,0,0,0-.59,2.44,17,17,0,0,0,.2,2.36q.21,1.36,1.39,7.3l7.4,37.47,6.87-33.36q1.23-6.06,1.51-8.11a25.91,25.91,0,0,0,.28-3.49,9.52,9.52,0,0,0-.41-2.95,4.08,4.08,0,0,0-1.2-1.94,4.34,4.34,0,0,0-2.92-.94v-2.06Z"/><path class="cls-3" d="M141.67,176.73v1.75h-15.5v-1.75h1a2.5,2.5,0,0,0,2.08-1,5,5,0,0,0,.88-2.27,41.52,41.52,0,0,0,.24-6V125.27a45.09,45.09,0,0,0-.24-6.16,5,5,0,0,0-1-2.15,2.38,2.38,0,0,0-2-.93h-1v-1.75h15.5V116h-1a2.51,2.51,0,0,0-2.07,1,5.16,5.16,0,0,0-.9,2.27,41.7,41.7,0,0,0-.24,6V167.5a42.7,42.7,0,0,0,.25,6.15,5.21,5.21,0,0,0,1,2.16,2.41,2.41,0,0,0,2,.92Z"/><path class="cls-3" d="M163.71,112.82l.24,21.39h-.89q-.63-8-3.11-12.94t-5.37-4.9c-1.49,0-2.66.86-3.53,2.58a13,13,0,0,0-1.3,5.94,14.1,14.1,0,0,0,.46,3.79,16.53,16.53,0,0,0,2,4.4,54.53,54.53,0,0,0,4.74,5.54,32.12,32.12,0,0,1,7,10.46,33,33,0,0,1,1.79,11.27,30.73,30.73,0,0,1-2.9,13.85Q160,180,155.54,180a5.89,5.89,0,0,1-2.64-.62,15,15,0,0,1-3.13-2.32,3,3,0,0,0-1.72-.95c-.38,0-.78.32-1.21.95a8.28,8.28,0,0,0-1,2.89H145V155.71h.81q1,10.23,3.7,15.6t5.91,5.37q2.44,0,3.9-2.89a14.72,14.72,0,0,0,1.46-6.72,17.4,17.4,0,0,0-.56-4.4,15.94,15.94,0,0,0-1.69-4,31.46,31.46,0,0,0-4-5,44.3,44.3,0,0,1-5.81-7.34,26,26,0,0,1-2.72-6.77,33.65,33.65,0,0,1-.95-8.24,30,30,0,0,1,2.6-13.07c1.73-3.6,3.92-5.39,6.56-5.39a5.67,5.67,0,0,1,2.79.75,11.57,11.57,0,0,1,2.51,2.11c1,1,1.67,1.54,2.06,1.54s.68-.25.9-.76a16.46,16.46,0,0,0,.61-3.64Z"/><path class="cls-3" d="M184,176.73v1.75H168.48v-1.75h1a2.52,2.52,0,0,0,2.08-1,4.9,4.9,0,0,0,.87-2.27,41.52,41.52,0,0,0,.24-6V125.27a45.09,45.09,0,0,0-.24-6.16,4.86,4.86,0,0,0-1-2.15,2.39,2.39,0,0,0-2-.93h-1v-1.75H184V116h-1a2.54,2.54,0,0,0-2.08,1,5,5,0,0,0-.89,2.27,39.56,39.56,0,0,0-.25,6V167.5a42.08,42.08,0,0,0,.26,6.15,5,5,0,0,0,1,2.16,2.41,2.41,0,0,0,2,.92Z"/><path class="cls-3" d="M213.23,114.28v17.38h-.79a48.93,48.93,0,0,0-1.55-8.64,10.73,10.73,0,0,0-2.34-4.19,4,4,0,0,0-2.9-.85h-2.21V167.5a42.7,42.7,0,0,0,.25,6.15,5.1,5.1,0,0,0,1,2.16,2.41,2.41,0,0,0,2,.92h1v1.75H192.14v-1.75h1a2.49,2.49,0,0,0,2.07-1,5.1,5.1,0,0,0,.9-2.27,41.52,41.52,0,0,0,.24-6V118H194.2a4.53,4.53,0,0,0-4.35,2.74q-1.9,3.84-2.4,10.94h-.83V114.28Z"/><path class="cls-3" d="M231.32,113.38q7.08-.57,11.51,9t4.42,23.81a64.07,64.07,0,0,1-3.3,21.5Q239.58,180,231.61,180t-12.37-11.74q-3.45-9.28-3.45-22,0-14.3,4.49-23.83T231.32,113.38Zm.27,3q-4.07,0-6.19,9-1.72,7.38-1.72,21.21,0,16.42,2.66,24.29,1.86,5.49,5.2,5.49A4.39,4.39,0,0,0,235.3,174q1.92-3,3-9.68A113.88,113.88,0,0,0,239.37,147a121.4,121.4,0,0,0-1.1-19.06c-.73-4.21-1.65-7.19-2.78-8.92S233.06,116.41,231.59,116.41Z"/><path class="cls-3" d="M260.74,149.22v18a43.31,43.31,0,0,0,.29,6.56,4.56,4.56,0,0,0,1,2.15,3.72,3.72,0,0,0,2.78.81v1.75H249.68v-1.75a3.67,3.67,0,0,0,2.79-.83,4.74,4.74,0,0,0,1-2.15,41,41,0,0,0,.3-6.54V125.55a41.52,41.52,0,0,0-.3-6.56,4.51,4.51,0,0,0-1-2.15,3.72,3.72,0,0,0-2.78-.81v-1.75h13.77q5.37,0,7.86,1.61t4.07,5.94A29.75,29.75,0,0,1,277,132a25.72,25.72,0,0,1-2.36,11.74,10,10,0,0,1-4.22,4.4l7.13,21.73a38,38,0,0,0,2,5.26,3,3,0,0,0,2.07,1.61v1.75h-9.33l-9.55-29.26Zm0-31.48v28.12H262a7.16,7.16,0,0,0,4.55-1.21,8.28,8.28,0,0,0,2.37-4.35,32.26,32.26,0,0,0,.86-8.22q0-7.34-1.58-10.84a5.31,5.31,0,0,0-5.1-3.5Z"/><path class="cls-3" d="M146.05,264.69v2.06H127.88v-2.06H129a3,3,0,0,0,2.43-1.16,6,6,0,0,0,1-2.67,50,50,0,0,0,.28-7V204.36a54.47,54.47,0,0,0-.28-7.22,5.81,5.81,0,0,0-1.14-2.52,2.83,2.83,0,0,0-2.32-1.09h-1.16v-2.05h18.17v2.05H144.9a3,3,0,0,0-2.44,1.17,6.18,6.18,0,0,0-1.05,2.66,48.55,48.55,0,0,0-.28,7v49.51a52,52,0,0,0,.29,7.22,6,6,0,0,0,1.16,2.52,2.8,2.8,0,0,0,2.32,1.08Z"/><path class="cls-3" d="M158.4,202.55,173,242.37V214.76q0-5.77-.77-7.81-1-2.74-3.52-2.65v-1.75h9.79v1.75a4.81,4.81,0,0,0-2.52,1.35,6.47,6.47,0,0,0-1,2.7,38.83,38.83,0,0,0-.36,6.41v53.45h-.74l-20-53.45v40.81q0,5.55,1.17,7.48c.78,1.3,1.67,1.95,2.68,1.95h.7v1.75H147.89V265a3.55,3.55,0,0,0,3.41-2.18q1-2.13,1-7.25v-45.3l-.64-1.71A11.55,11.55,0,0,0,150,205.2a2.9,2.9,0,0,0-2.07-.9v-1.75Z"/><path class="cls-3" d="M191.88,206.24v26.37h.85a4.26,4.26,0,0,0,3.21-1.28,10.26,10.26,0,0,0,2.11-4.3,38.22,38.22,0,0,0,1.12-8.19h.77v32.24h-.77q-.4-9.14-2.26-12.05t-4.18-2.91h-.85v19.64a42.77,42.77,0,0,0,.25,6.16,4.88,4.88,0,0,0,1,2.15,2.39,2.39,0,0,0,2,.93h1v1.75H180.58V265h1a2.54,2.54,0,0,0,2.08-1,5,5,0,0,0,.87-2.27,41.7,41.7,0,0,0,.24-6V213.53a45,45,0,0,0-.24-6.15,5,5,0,0,0-1-2.16,2.41,2.41,0,0,0-2-.92h-1v-1.75h25V221h-.9q-.3-6.5-1.56-9.61a8.2,8.2,0,0,0-3.64-4.41,11.36,11.36,0,0,0-4.85-.71Z"/><path class="cls-3" d="M224.19,201.65q7.09-.57,11.51,8.95t4.42,23.81a64.12,64.12,0,0,1-3.3,21.5q-4.37,12.3-12.34,12.3t-12.37-11.74q-3.45-9.27-3.45-22,0-14.29,4.49-23.84T224.19,201.65Zm.27,3q-4.07,0-6.19,9-1.72,7.38-1.72,21.2,0,16.44,2.66,24.29,1.86,5.49,5.2,5.49a4.38,4.38,0,0,0,3.76-2.36q1.92-3,3-9.69a113.7,113.7,0,0,0,1.07-17.35q0-12.73-1.1-19c-.73-4.22-1.65-7.19-2.78-8.93S225.93,204.68,224.46,204.68Z"/><path class="cls-6" d="M126.81,103.21v2.06q-1.89.66-3.38,4.38a106.63,106.63,0,0,0-3.2,13l-12,57.5h-.84L95.5,120.37a125.06,125.06,0,0,0-2.88-12.72,3.74,3.74,0,0,0-2.75-2.38v-2.06h16.65v2.06H106a3.46,3.46,0,0,0-3.08,1.22,4.22,4.22,0,0,0-.59,2.44,15.76,15.76,0,0,0,.21,2.36c.13.91.6,3.34,1.38,7.3l7.41,37.47,6.86-33.36q1.23-6.06,1.51-8.11a25.91,25.91,0,0,0,.28-3.49,9.52,9.52,0,0,0-.41-2.95,4.08,4.08,0,0,0-1.2-1.94,4.32,4.32,0,0,0-2.92-.94v-2.06Z"/><path class="cls-7" d="M143.74,176.73v1.75h-15.5v-1.75h1a2.49,2.49,0,0,0,2.07-1,5,5,0,0,0,.88-2.27,41.52,41.52,0,0,0,.24-6V125.27a45.09,45.09,0,0,0-.24-6.16,5,5,0,0,0-1-2.15,2.39,2.39,0,0,0-2-.93h-1v-1.75h15.5V116h-1a2.51,2.51,0,0,0-2.07,1,5.16,5.16,0,0,0-.9,2.27,41.7,41.7,0,0,0-.24,6V167.5a44.33,44.33,0,0,0,.25,6.15,5.1,5.1,0,0,0,1,2.16,2.38,2.38,0,0,0,2,.92Z"/><path class="cls-8" d="M165.79,112.82l.24,21.39h-.9q-.63-8-3.11-12.94t-5.37-4.9q-2.22,0-3.53,2.58a13.11,13.11,0,0,0-1.3,5.94,14.52,14.52,0,0,0,.46,3.79,16.53,16.53,0,0,0,2,4.4,53.72,53.72,0,0,0,4.75,5.54,32.23,32.23,0,0,1,7,10.46,33,33,0,0,1,1.79,11.27A30.73,30.73,0,0,1,165,174.2q-2.9,5.79-7.36,5.8a5.89,5.89,0,0,1-2.64-.62,15,15,0,0,1-3.13-2.32,2.93,2.93,0,0,0-1.72-.95c-.38,0-.78.32-1.2.95a8.06,8.06,0,0,0-1,2.89h-.81V155.71h.81q1,10.23,3.7,15.6t5.91,5.37q2.46,0,3.91-2.89a14.85,14.85,0,0,0,1.45-6.72,17.4,17.4,0,0,0-.56-4.4,15.94,15.94,0,0,0-1.69-4,31.86,31.86,0,0,0-4-5,43.92,43.92,0,0,1-5.82-7.34,26.35,26.35,0,0,1-2.72-6.77,33.65,33.65,0,0,1-1-8.24,30,30,0,0,1,2.6-13.07c1.74-3.6,3.92-5.39,6.56-5.39a5.74,5.74,0,0,1,2.8.75,11.81,11.81,0,0,1,2.5,2.11c1,1,1.67,1.54,2.06,1.54s.68-.25.9-.76a15.86,15.86,0,0,0,.61-3.64Z"/><path class="cls-9" d="M186,176.73v1.75H170.55v-1.75h1a2.52,2.52,0,0,0,2.08-1,4.9,4.9,0,0,0,.87-2.27,41.52,41.52,0,0,0,.24-6V125.27a45.09,45.09,0,0,0-.24-6.16,4.86,4.86,0,0,0-1-2.15,2.39,2.39,0,0,0-2-.93h-1v-1.75H186V116h-1a2.54,2.54,0,0,0-2.08,1,5.29,5.29,0,0,0-.89,2.27,41.7,41.7,0,0,0-.24,6V167.5a42.7,42.7,0,0,0,.25,6.15,5.08,5.08,0,0,0,1,2.16,2.41,2.41,0,0,0,2,.92Z"/><path class="cls-10" d="M215.3,114.28v17.38h-.78A50.89,50.89,0,0,0,213,123a10.86,10.86,0,0,0-2.34-4.19,4,4,0,0,0-2.91-.85h-2.21V167.5a42.08,42.08,0,0,0,.26,6.15,5,5,0,0,0,1,2.16,2.42,2.42,0,0,0,2,.92h1v1.75H194.22v-1.75h1a2.52,2.52,0,0,0,2.08-1,5.24,5.24,0,0,0,.89-2.27,41.52,41.52,0,0,0,.24-6V118h-2.14a4.54,4.54,0,0,0-4.35,2.74q-1.9,3.84-2.4,10.94h-.83V114.28Z"/><path class="cls-11" d="M233.4,113.38q7.08-.57,11.5,9t4.43,23.81a64.07,64.07,0,0,1-3.3,21.5Q241.65,180,233.68,180t-12.37-11.74q-3.45-9.28-3.45-22,0-14.3,4.49-23.83T233.4,113.38Zm.26,3q-4.07,0-6.18,9-1.74,7.38-1.73,21.21,0,16.42,2.66,24.29,1.86,5.49,5.21,5.49a4.38,4.38,0,0,0,3.75-2.37c1.29-2,2.28-5.25,3-9.68A113.88,113.88,0,0,0,241.44,147a122.93,122.93,0,0,0-1.09-19.06c-.73-4.21-1.66-7.19-2.79-8.92S235.13,116.41,233.66,116.41Z"/><path class="cls-12" d="M262.81,149.22v18a43.31,43.31,0,0,0,.29,6.56,4.56,4.56,0,0,0,1,2.15,3.72,3.72,0,0,0,2.78.81v1.75H251.75v-1.75a3.67,3.67,0,0,0,2.79-.83,4.75,4.75,0,0,0,1-2.15,42.88,42.88,0,0,0,.29-6.54V125.55a43.4,43.4,0,0,0-.29-6.56,4.61,4.61,0,0,0-1-2.15,3.72,3.72,0,0,0-2.78-.81v-1.75h13.77c3.58,0,6.21.54,7.87,1.61s3,3.06,4.06,5.94A29.75,29.75,0,0,1,279,132a25.72,25.72,0,0,1-2.36,11.74,10,10,0,0,1-4.21,4.4l7.12,21.73a39.45,39.45,0,0,0,2,5.26,3,3,0,0,0,2.07,1.61v1.75H274.3l-9.54-29.26Zm0-31.48v28.12h1.25a7.13,7.13,0,0,0,4.54-1.21A8.15,8.15,0,0,0,271,140.3a31.76,31.76,0,0,0,.87-8.22q0-7.34-1.59-10.84a5.31,5.31,0,0,0-5.1-3.5Z"/><path class="cls-13" d="M148.12,264.69v2.06H130v-2.06h1.15a3,3,0,0,0,2.43-1.16,5.84,5.84,0,0,0,1-2.67,48.37,48.37,0,0,0,.28-7V204.36a52.67,52.67,0,0,0-.28-7.22,5.81,5.81,0,0,0-1.14-2.52,2.82,2.82,0,0,0-2.32-1.09H130v-2.05h18.16v2.05H147a3,3,0,0,0-2.44,1.17,6.18,6.18,0,0,0-1.05,2.66,50.19,50.19,0,0,0-.28,7v49.51a49.74,49.74,0,0,0,.3,7.22,5.83,5.83,0,0,0,1.15,2.52,2.81,2.81,0,0,0,2.32,1.08Z"/><path class="cls-14" d="M160.47,202.55l14.62,39.82V214.76q0-5.77-.77-7.81-1-2.74-3.51-2.65v-1.75h9.79v1.75a4.81,4.81,0,0,0-2.53,1.35,6.49,6.49,0,0,0-1,2.7,38.83,38.83,0,0,0-.36,6.41v53.45H176l-20-53.45v40.81q0,5.55,1.17,7.48c.78,1.3,1.68,1.95,2.68,1.95h.7v1.75H150V265a3.54,3.54,0,0,0,3.41-2.18q1-2.13,1-7.25v-45.3l-.63-1.71A11.82,11.82,0,0,0,152,205.2a2.94,2.94,0,0,0-2.08-.9v-1.75Z"/><path class="cls-15" d="M194,206.24v26.37h.85a4.26,4.26,0,0,0,3.21-1.28,10.14,10.14,0,0,0,2.11-4.3,38.13,38.13,0,0,0,1.13-8.19H202v32.24h-.76q-.42-9.14-2.27-12.05t-4.18-2.91H194v19.64a42.77,42.77,0,0,0,.25,6.16,5,5,0,0,0,1,2.15,2.39,2.39,0,0,0,2,.93h1v1.75H182.65V265h1a2.54,2.54,0,0,0,2.08-1,5,5,0,0,0,.87-2.27,41.7,41.7,0,0,0,.24-6V213.53a45,45,0,0,0-.24-6.15,5,5,0,0,0-1-2.16,2.41,2.41,0,0,0-2-.92h-1v-1.75h25V221h-.9q-.3-6.5-1.56-9.61a8.2,8.2,0,0,0-3.64-4.41,11.36,11.36,0,0,0-4.85-.71Z"/><path class="cls-16" d="M226.27,201.65q7.08-.57,11.5,8.95t4.43,23.81a64.12,64.12,0,0,1-3.3,21.5q-4.38,12.3-12.35,12.3t-12.37-11.74q-3.45-9.27-3.45-22,0-14.29,4.49-23.84T226.27,201.65Zm.26,3q-4.07,0-6.18,9-1.74,7.38-1.73,21.2,0,16.44,2.66,24.29,1.86,5.49,5.21,5.49a4.36,4.36,0,0,0,3.75-2.36c1.29-2,2.28-5.25,3-9.69a113.7,113.7,0,0,0,1.07-17.35,122.69,122.69,0,0,0-1.09-19c-.73-4.22-1.66-7.19-2.79-8.93S228,204.68,226.53,204.68Z"/><path class="cls-17" d="M126.81,103.21v2.06q-1.89.66-3.38,4.38a106.63,106.63,0,0,0-3.2,13l-12,57.5h-.84L95.5,120.37a125.06,125.06,0,0,0-2.88-12.72,3.74,3.74,0,0,0-2.75-2.38v-2.06h16.65v2.06H106a3.46,3.46,0,0,0-3.08,1.22,4.22,4.22,0,0,0-.59,2.44,15.76,15.76,0,0,0,.21,2.36c.13.91.6,3.34,1.38,7.3l7.41,37.47,6.86-33.36q1.23-6.06,1.51-8.11a25.91,25.91,0,0,0,.28-3.49,9.52,9.52,0,0,0-.41-2.95,4.08,4.08,0,0,0-1.2-1.94,4.32,4.32,0,0,0-2.92-.94v-2.06Z"/><path class="cls-17" d="M143.74,176.73v1.75h-15.5v-1.75h1a2.49,2.49,0,0,0,2.07-1,5,5,0,0,0,.88-2.27,41.52,41.52,0,0,0,.24-6V125.27a45.09,45.09,0,0,0-.24-6.16,5,5,0,0,0-1-2.15,2.39,2.39,0,0,0-2-.93h-1v-1.75h15.5V116h-1a2.51,2.51,0,0,0-2.07,1,5.16,5.16,0,0,0-.9,2.27,41.7,41.7,0,0,0-.24,6V167.5a44.33,44.33,0,0,0,.25,6.15,5.1,5.1,0,0,0,1,2.16,2.38,2.38,0,0,0,2,.92Z"/><path class="cls-17" d="M165.79,112.82l.24,21.39h-.9q-.63-8-3.11-12.94t-5.37-4.9q-2.22,0-3.53,2.58a13.11,13.11,0,0,0-1.3,5.94,14.52,14.52,0,0,0,.46,3.79,16.53,16.53,0,0,0,2,4.4,53.72,53.72,0,0,0,4.75,5.54,32.23,32.23,0,0,1,7,10.46,33,33,0,0,1,1.79,11.27A30.73,30.73,0,0,1,165,174.2q-2.9,5.79-7.36,5.8a5.89,5.89,0,0,1-2.64-.62,15,15,0,0,1-3.13-2.32,2.93,2.93,0,0,0-1.72-.95c-.38,0-.78.32-1.2.95a8.06,8.06,0,0,0-1,2.89h-.81V155.71h.81q1,10.23,3.7,15.6t5.91,5.37q2.46,0,3.91-2.89a14.85,14.85,0,0,0,1.45-6.72,17.4,17.4,0,0,0-.56-4.4,15.94,15.94,0,0,0-1.69-4,31.86,31.86,0,0,0-4-5,43.92,43.92,0,0,1-5.82-7.34,26.35,26.35,0,0,1-2.72-6.77,33.65,33.65,0,0,1-1-8.24,30,30,0,0,1,2.6-13.07c1.74-3.6,3.92-5.39,6.56-5.39a5.74,5.74,0,0,1,2.8.75,11.81,11.81,0,0,1,2.5,2.11c1,1,1.67,1.54,2.06,1.54s.68-.25.9-.76a15.86,15.86,0,0,0,.61-3.64Z"/><path class="cls-17" d="M186,176.73v1.75H170.55v-1.75h1a2.52,2.52,0,0,0,2.08-1,4.9,4.9,0,0,0,.87-2.27,41.52,41.52,0,0,0,.24-6V125.27a45.09,45.09,0,0,0-.24-6.16,4.86,4.86,0,0,0-1-2.15,2.39,2.39,0,0,0-2-.93h-1v-1.75H186V116h-1a2.54,2.54,0,0,0-2.08,1,5.29,5.29,0,0,0-.89,2.27,41.7,41.7,0,0,0-.24,6V167.5a42.7,42.7,0,0,0,.25,6.15,5.08,5.08,0,0,0,1,2.16,2.41,2.41,0,0,0,2,.92Z"/><path class="cls-17" d="M215.3,114.28v17.38h-.78A50.89,50.89,0,0,0,213,123a10.86,10.86,0,0,0-2.34-4.19,4,4,0,0,0-2.91-.85h-2.21V167.5a42.08,42.08,0,0,0,.26,6.15,5,5,0,0,0,1,2.16,2.42,2.42,0,0,0,2,.92h1v1.75H194.22v-1.75h1a2.52,2.52,0,0,0,2.08-1,5.24,5.24,0,0,0,.89-2.27,41.52,41.52,0,0,0,.24-6V118h-2.14a4.54,4.54,0,0,0-4.35,2.74q-1.9,3.84-2.4,10.94h-.83V114.28Z"/><path class="cls-17" d="M233.4,113.38q7.08-.57,11.5,9t4.43,23.81a64.07,64.07,0,0,1-3.3,21.5Q241.65,180,233.68,180t-12.37-11.74q-3.45-9.28-3.45-22,0-14.3,4.49-23.83T233.4,113.38Zm.26,3q-4.07,0-6.18,9-1.74,7.38-1.73,21.21,0,16.42,2.66,24.29,1.86,5.49,5.21,5.49a4.38,4.38,0,0,0,3.75-2.37c1.29-2,2.28-5.25,3-9.68A113.88,113.88,0,0,0,241.44,147a122.93,122.93,0,0,0-1.09-19.06c-.73-4.21-1.66-7.19-2.79-8.92S235.13,116.41,233.66,116.41Z"/><path class="cls-17" d="M262.81,149.22v18a43.31,43.31,0,0,0,.29,6.56,4.56,4.56,0,0,0,1,2.15,3.72,3.72,0,0,0,2.78.81v1.75H251.75v-1.75a3.67,3.67,0,0,0,2.79-.83,4.75,4.75,0,0,0,1-2.15,42.88,42.88,0,0,0,.29-6.54V125.55a43.4,43.4,0,0,0-.29-6.56,4.61,4.61,0,0,0-1-2.15,3.72,3.72,0,0,0-2.78-.81v-1.75h13.77c3.58,0,6.21.54,7.87,1.61s3,3.06,4.06,5.94A29.75,29.75,0,0,1,279,132a25.72,25.72,0,0,1-2.36,11.74,10,10,0,0,1-4.21,4.4l7.12,21.73a39.45,39.45,0,0,0,2,5.26,3,3,0,0,0,2.07,1.61v1.75H274.3l-9.54-29.26Zm0-31.48v28.12h1.25a7.13,7.13,0,0,0,4.54-1.21A8.15,8.15,0,0,0,271,140.3a31.76,31.76,0,0,0,.87-8.22q0-7.34-1.59-10.84a5.31,5.31,0,0,0-5.1-3.5Z"/><path class="cls-17" d="M148.12,264.69v2.06H130v-2.06h1.15a3,3,0,0,0,2.43-1.16,5.84,5.84,0,0,0,1-2.67,48.37,48.37,0,0,0,.28-7V204.36a52.67,52.67,0,0,0-.28-7.22,5.81,5.81,0,0,0-1.14-2.52,2.82,2.82,0,0,0-2.32-1.09H130v-2.05h18.16v2.05H147a3,3,0,0,0-2.44,1.17,6.18,6.18,0,0,0-1.05,2.66,50.19,50.19,0,0,0-.28,7v49.51a49.74,49.74,0,0,0,.3,7.22,5.83,5.83,0,0,0,1.15,2.52,2.81,2.81,0,0,0,2.32,1.08Z"/><path class="cls-17" d="M160.47,202.55l14.62,39.82V214.76q0-5.77-.77-7.81-1-2.74-3.51-2.65v-1.75h9.79v1.75a4.81,4.81,0,0,0-2.53,1.35,6.49,6.49,0,0,0-1,2.7,38.83,38.83,0,0,0-.36,6.41v53.45H176l-20-53.45v40.81q0,5.55,1.17,7.48c.78,1.3,1.68,1.95,2.68,1.95h.7v1.75H150V265a3.54,3.54,0,0,0,3.41-2.18q1-2.13,1-7.25v-45.3l-.63-1.71A11.82,11.82,0,0,0,152,205.2a2.94,2.94,0,0,0-2.08-.9v-1.75Z"/><path class="cls-17" d="M194,206.24v26.37h.85a4.26,4.26,0,0,0,3.21-1.28,10.14,10.14,0,0,0,2.11-4.3,38.13,38.13,0,0,0,1.13-8.19H202v32.24h-.76q-.42-9.14-2.27-12.05t-4.18-2.91H194v19.64a42.77,42.77,0,0,0,.25,6.16,5,5,0,0,0,1,2.15,2.39,2.39,0,0,0,2,.93h1v1.75H182.65V265h1a2.54,2.54,0,0,0,2.08-1,5,5,0,0,0,.87-2.27,41.7,41.7,0,0,0,.24-6V213.53a45,45,0,0,0-.24-6.15,5,5,0,0,0-1-2.16,2.41,2.41,0,0,0-2-.92h-1v-1.75h25V221h-.9q-.3-6.5-1.56-9.61a8.2,8.2,0,0,0-3.64-4.41,11.36,11.36,0,0,0-4.85-.71Z"/><path class="cls-17" d="M226.27,201.65q7.08-.57,11.5,8.95t4.43,23.81a64.12,64.12,0,0,1-3.3,21.5q-4.38,12.3-12.35,12.3t-12.37-11.74q-3.45-9.27-3.45-22,0-14.29,4.49-23.84T226.27,201.65Zm.26,3q-4.07,0-6.18,9-1.74,7.38-1.73,21.2,0,16.44,2.66,24.29,1.86,5.49,5.21,5.49a4.36,4.36,0,0,0,3.75-2.36c1.29-2,2.28-5.25,3-9.69a113.7,113.7,0,0,0,1.07-17.35,122.69,122.69,0,0,0-1.09-19c-.73-4.22-1.66-7.19-2.79-8.93S228,204.68,226.53,204.68Z"/></g></svg>