<svg xmlns="http://www.w3.org/2000/svg" xmlns:xlink="http://www.w3.org/1999/xlink" viewBox="0 0 371.43 371.43"><defs><style>.cls-1{fill:#37353c;}.cls-2{fill:#92864f;}.cls-3{fill:#231f20;}.cls-4{fill:url(#linear-gradient);}.cls-5{fill:url(#linear-gradient-2);}.cls-6{fill:url(#New_Gradient_Swatch_copy_2);}.cls-7{fill:url(#New_Gradient_Swatch_copy_2-2);}.cls-8{fill:url(#New_Gradient_Swatch_copy_2-3);}.cls-9{fill:url(#New_Gradient_Swatch_copy_2-4);}.cls-10{fill:url(#New_Gradient_Swatch_copy_2-5);}.cls-11{fill:url(#New_Gradient_Swatch_copy_2-6);}.cls-12{fill:url(#New_Gradient_Swatch_copy_2-7);}.cls-13{fill:url(#New_Gradient_Swatch_copy_2-8);}.cls-14{fill:url(#New_Gradient_Swatch_copy_2-9);}.cls-15{fill:url(#New_Gradient_Swatch_copy_2-10);}.cls-16{fill:url(#New_Gradient_Swatch_copy_2-11);}.cls-17{fill:none;stroke:#625b32;stroke-miterlimit:10;stroke-width:0.75px;}</style><linearGradient id="linear-gradient" x1="1459.04" y1="3332.43" x2="1665.96" y2="3125.5" gradientTransform="translate(-3136.11 1841.07) rotate(-90)" gradientUnits="userSpaceOnUse"><stop offset="0" stop-color="#c09d30"/><stop offset="0.35" stop-color="#d0a641"/><stop offset="0.5" stop-color="#fffac4"/><stop offset="0.65" stop-color="#d0a641"/><stop offset="1" stop-color="#c09d30"/></linearGradient><linearGradient id="linear-gradient-2" x1="1644.75" y1="3518.14" x2="1851.68" y2="3311.22" xlink:href="#linear-gradient"/><linearGradient id="New_Gradient_Swatch_copy_2" x1="108.95" y1="98.87" x2="108.95" y2="178.79" gradientUnits="userSpaceOnUse"><stop offset="0.18" stop-color="#fffac4"/><stop offset="0.21" stop-color="#f9efb4"/><stop offset="0.25" stop-color="#eed893"/><stop offset="0.76" stop-color="#d6b55a"/><stop offset="0.84" stop-color="#d0a641"/><stop offset="0.95" stop-color="#b69238"/></linearGradient><linearGradient id="New_Gradient_Swatch_copy_2-2" x1="135.87" y1="109.52" x2="135.87" y2="178.79" xlink:href="#New_Gradient_Swatch_copy_2"/><linearGradient id="New_Gradient_Swatch_copy_2-3" x1="157.62" y1="109.52" x2="157.62" y2="178.79" xlink:href="#New_Gradient_Swatch_copy_2"/><linearGradient id="New_Gradient_Swatch_copy_2-4" x1="179.37" y1="109.52" x2="179.37" y2="178.79" xlink:href="#New_Gradient_Swatch_copy_2"/><linearGradient id="New_Gradient_Swatch_copy_2-5" x1="203.38" y1="109.52" x2="203.38" y2="178.79" xlink:href="#New_Gradient_Swatch_copy_2"/><linearGradient id="New_Gradient_Swatch_copy_2-6" x1="233.4" y1="109.52" x2="233.4" y2="178.79" xlink:href="#New_Gradient_Swatch_copy_2"/><linearGradient id="New_Gradient_Swatch_copy_2-7" x1="264.57" y1="109.52" x2="264.57" y2="178.79" xlink:href="#New_Gradient_Swatch_copy_2"/><linearGradient id="New_Gradient_Swatch_copy_2-8" x1="139.71" y1="192.64" x2="139.71" y2="272.56" xlink:href="#New_Gradient_Swatch_copy_2"/><linearGradient id="New_Gradient_Swatch_copy_2-9" x1="166.43" y1="203.29" x2="166.43" y2="272.56" xlink:href="#New_Gradient_Swatch_copy_2"/><linearGradient id="New_Gradient_Swatch_copy_2-10" x1="196.58" y1="203.29" x2="196.58" y2="272.56" xlink:href="#New_Gradient_Swatch_copy_2"/><linearGradient id="New_Gradient_Swatch_copy_2-11" x1="226.32" y1="203.29" x2="226.32" y2="272.56" xlink:href="#New_Gradient_Swatch_copy_2"/></defs><g id="Visitor_Info" data-name="Visitor Info"><rect class="cls-1" width="371.43" height="371.43"/><g id="Visitor_Info-2" data-name="Visitor Info"><polygon class="cls-1" points="0 164.5 0 0 164.5 0 371.43 206.93 371.43 371.43 206.93 371.43 0 164.5"/><polygon class="cls-2" points="35.72 35.72 252.15 119.28 335.71 335.71 119.28 252.15 35.72 35.72"/><polygon class="cls-3" points="0 214 157.43 371.43 214 371.43 0 157.43 0 214"/><polygon class="cls-3" points="371.43 157.43 214.59 0.59 157.43 0 371.43 214 371.43 157.43"/><polygon class="cls-4" points="0 206.93 164.5 371.43 206.93 371.43 0 164.5 0 206.93"/><polygon class="cls-5" points="371.43 164.5 206.93 0 164.5 0 371.43 206.93 371.43 164.5"/></g><path class="cls-3" d="M95.15,106.86a4.75,4.75,0,0,0-1.28-2.77l-3.52-3.52a1.85,1.85,0,0,1-.64-1.28c0-.32.32-.42,1-.42h16.52c.32,0,.64.1.64.42a1.72,1.72,0,0,1-.53,1.18L104.53,103a3.58,3.58,0,0,0-1.28,2.88l5.43,37.4h.22l4.47-37.4a3.76,3.76,0,0,0-1.28-2.88l-2.55-2.55a1.86,1.86,0,0,1-.64-1.18c0-.32.42-.42.74-.42h14.28c.64,0,1,.1,1,.42a1.81,1.81,0,0,1-.64,1.28l-3.52,3.52a4.26,4.26,0,0,0-1.28,2.77L111,177.61c-.11.75-.43,1.18-1.07,1.18h-3.73c-.53,0-.74-.32-.85-.86Z"/><path class="cls-3" d="M130.66,116.17a3.38,3.38,0,0,0-.83-2.59l-2.77-2.68c-.18-.27-.65-.55-.65-.83a.53.53,0,0,1,.56-.55h14.5a.52.52,0,0,1,.55.55c0,.28-.46.56-.64.83l-2.77,2.68a3.38,3.38,0,0,0-.83,2.59v56a3.34,3.34,0,0,0,.83,2.58l2.77,2.68c.18.28.64.56.64.83a.53.53,0,0,1-.55.56H127a.54.54,0,0,1-.56-.56c0-.27.47-.55.65-.83l2.77-2.68a3.34,3.34,0,0,0,.83-2.58Z"/><path class="cls-3" d="M165.11,133.44c0,.28-.18.46-.55.46s-.46-.28-.56-.65c-1.47-7.48-5.91-19.11-10.16-19.11-2.3,0-2.49,1.93-2.49,4.34,0,4.52,1.2,9,8,23.55,6.46,13.67,7.2,16.71,7.2,24,0,9.79-5.08,12.75-8.5,12.75a8.72,8.72,0,0,1-5.17-1.76,5.13,5.13,0,0,0-1.85-.92c-.37,0-1.1.64-2.95,2-.37.28-.74.65-1.11.65s-.46-.19-.46-.47V155.05c0-.28.09-.65.46-.65s.46.37.55.65c1.67,7.39,4.53,19.12,10,19.12,1.75,0,2.68-1.94,2.68-4.8,0-6.19-2.77-12.93-8-24-5-10.53-6.83-17.55-6.83-24.29,0-8.77,3.78-11.54,8.49-11.54a9.16,9.16,0,0,1,5.18,2.12,3.29,3.29,0,0,0,1.38.56,5.18,5.18,0,0,0,2.13-1.48c.83-.74,1.38-1.2,1.94-1.2s.64.46.64,1Z"/><path class="cls-3" d="M174.16,116.17a3.38,3.38,0,0,0-.83-2.59l-2.77-2.68c-.18-.27-.65-.55-.65-.83a.53.53,0,0,1,.56-.55H185a.52.52,0,0,1,.55.55c0,.28-.46.56-.64.83l-2.78,2.68a3.42,3.42,0,0,0-.83,2.59v56a3.38,3.38,0,0,0,.83,2.58l2.78,2.68c.18.28.64.56.64.83a.53.53,0,0,1-.55.56h-14.5a.54.54,0,0,1-.56-.56c0-.27.47-.55.65-.83l2.77-2.68a3.34,3.34,0,0,0,.83-2.58Z"/><path class="cls-3" d="M198.17,114h-3.41c-.56,0-.83.46-1,1l-4.8,18.38a.7.7,0,0,1-.74.55c-.37,0-.46-.18-.46-.65V109.89a.42.42,0,0,1,.46-.37h27.06a.42.42,0,0,1,.46.37v23.36c0,.47-.09.65-.46.65a.7.7,0,0,1-.74-.55L209.72,115c-.19-.56-.46-1-1-1h-3.41v58.19a3.34,3.34,0,0,0,.73,2.58l2.77,2.68c.28.28.65.56.65.83s-.09.56-.55.56H194.57c-.46,0-.55-.28-.55-.56s.37-.55.64-.83l2.78-2.68a3.34,3.34,0,0,0,.73-2.58Z"/><path class="cls-3" d="M244.07,142.31c0,17.45-1.2,36.48-12.37,36.48s-12.29-19-12.29-36.48c0-13.3,1.21-32.79,12.29-32.79S244.07,129,244.07,142.31ZM227,142.4c0,24,2,31.77,4.71,31.77s4.8-7.76,4.8-31.77c0-20.51-2-28.26-4.8-28.26S227,121.89,227,142.4Z"/><path class="cls-3" d="M259.13,172.14a3.34,3.34,0,0,0,.83,2.58l2.77,2.68c.18.28.65.56.65.83a.54.54,0,0,1-.56.56h-14.5a.53.53,0,0,1-.55-.56c0-.27.46-.55.64-.83l2.77-2.68a3.34,3.34,0,0,0,.84-2.58v-56a3.38,3.38,0,0,0-.84-2.59l-2.77-2.68c-.18-.27-.64-.55-.64-.83a.52.52,0,0,1,.55-.55h11.55c9.6,0,14.59,5.08,14.59,17.08,0,10.26-3.6,14.41-6.84,16.44a11.48,11.48,0,0,1,5.91,10.35v19.3a2.38,2.38,0,0,0,.84,1.66l2.95,3.14c.37.37.74.74.74,1s-.46.28-.92.28h-4.81c-4.24,0-5.91-2.77-5.91-5.91V153c0-4.07-2.49-7.11-5.72-7.11h-1.57Zm0-30.85h1.38c4.53,0,6.38-3.6,6.38-14.69,0-9.42-1.85-12.46-6.38-12.46h-1.38Z"/><path class="cls-3" d="M134,200.32a3.9,3.9,0,0,0-1-3l-3.2-3.09c-.21-.32-.74-.64-.74-1a.61.61,0,0,1,.64-.64h16.73a.62.62,0,0,1,.64.64c0,.32-.54.64-.75,1l-3.2,3.09a3.94,3.94,0,0,0-1,3v64.57a3.9,3.9,0,0,0,1,3l3.2,3.09c.21.32.75.64.75,1a.62.62,0,0,1-.64.64H129.69a.61.61,0,0,1-.64-.64c0-.32.53-.64.74-1l3.2-3.09a3.86,3.86,0,0,0,1-3Z"/><path class="cls-3" d="M153.23,209.94a4,4,0,0,0-.83-2.58l-2.31-2.68c-.19-.28-.65-.56-.65-.92a.53.53,0,0,1,.56-.47h11.08c.65,0,.92.65,1.11,1.57l8.5,39.72h.18V209.94a3.14,3.14,0,0,0-.83-2.49l-2.59-2.77c-.18-.28-.64-.56-.64-.92a.52.52,0,0,1,.55-.47h12.19a.53.53,0,0,1,.56.47c0,.36-.37.64-.65.92l-2.31,2.68a4,4,0,0,0-.83,2.58v61.61c0,.64-.28,1-.92,1h-3.88c-.83,0-1.57-.92-1.85-2.31l-10.81-50.33h-.18v46a3.25,3.25,0,0,0,.92,2.5l2.5,2.77c.27.27.64.55.64.92a.51.51,0,0,1-.55.46H150a.52.52,0,0,1-.56-.46c0-.37.46-.65.65-.92l2.31-2.68a4,4,0,0,0,.83-2.59Z"/><path class="cls-3" d="M193.68,235h2a1,1,0,0,0,1-.64l3.05-6.38c.18-.37.37-.64.64-.64s.46.18.46.55v19.49c0,.37-.09.55-.37.55s-.36-.27-.55-.64l-3.23-6.75a1,1,0,0,0-1-.64h-2v26c0,1.11.09,2,.83,2.59l3.42,2.68c.28.27.65.55.65.83a.53.53,0,0,1-.56.55H182.87a.53.53,0,0,1-.55-.55c0-.28.46-.46.65-.83l2.77-2.68a3.42,3.42,0,0,0,.83-2.59v-56a3.38,3.38,0,0,0-.83-2.58L183,204.68c-.19-.28-.65-.56-.65-.83a.54.54,0,0,1,.55-.56H206.8a.75.75,0,0,1,.73.83v23.09a.44.44,0,0,1-.46.47.9.9,0,0,1-.74-.65l-5-17.36a2.3,2.3,0,0,0-2.41-1.76h-5.26Z"/><path class="cls-3" d="M237,236.08c0,17.46-1.2,36.48-12.37,36.48s-12.28-19-12.28-36.48c0-13.3,1.2-32.79,12.28-32.79S237,222.78,237,236.08Zm-17.08.09c0,24,2,31.77,4.71,31.77s4.8-7.75,4.8-31.77c0-20.5-2-28.26-4.8-28.26S219.91,215.67,219.91,236.17Z"/><path class="cls-6" d="M96.8,106.86a4.8,4.8,0,0,0-1.27-2.77L92,100.57a1.81,1.81,0,0,1-.64-1.28c0-.32.32-.42,1-.42h16.52c.31,0,.63.1.63.42a1.72,1.72,0,0,1-.53,1.18L106.18,103a3.64,3.64,0,0,0-1.28,2.88l5.44,37.4h.21L115,105.9a3.8,3.8,0,0,0-1.28-2.88l-2.56-2.55a1.86,1.86,0,0,1-.64-1.18c0-.32.43-.42.75-.42h14.27c.64,0,1,.1,1,.42a1.81,1.81,0,0,1-.64,1.28l-3.51,3.52a4.22,4.22,0,0,0-1.28,2.77l-8.42,70.75c-.11.75-.43,1.18-1.06,1.18h-3.73c-.54,0-.75-.32-.86-.86Z"/><path class="cls-7" d="M132.32,116.17a3.42,3.42,0,0,0-.83-2.59l-2.77-2.68c-.19-.27-.65-.55-.65-.83a.52.52,0,0,1,.55-.55h14.5a.53.53,0,0,1,.56.55c0,.28-.46.56-.65.83l-2.77,2.68a3.38,3.38,0,0,0-.83,2.59v56a3.34,3.34,0,0,0,.83,2.58L143,177.4c.19.28.65.56.65.83a.54.54,0,0,1-.56.56h-14.5a.53.53,0,0,1-.55-.56c0-.27.46-.55.65-.83l2.77-2.68a3.38,3.38,0,0,0,.83-2.58Z"/><path class="cls-8" d="M166.77,133.44c0,.28-.19.46-.56.46s-.46-.28-.55-.65c-1.48-7.48-5.91-19.11-10.16-19.11-2.31,0-2.5,1.93-2.5,4.34,0,4.52,1.21,9,8,23.55,6.47,13.67,7.2,16.71,7.2,24,0,9.79-5.08,12.75-8.49,12.75a8.73,8.73,0,0,1-5.18-1.76,5.2,5.2,0,0,0-1.84-.92c-.37,0-1.11.64-3,2-.37.28-.74.65-1.11.65s-.46-.19-.46-.47V155.05c0-.28.09-.65.46-.65s.47.37.56.65c1.66,7.39,4.52,19.12,10,19.12,1.76,0,2.68-1.94,2.68-4.8,0-6.19-2.77-12.93-8-24-5-10.53-6.84-17.55-6.84-24.29,0-8.77,3.79-11.54,8.5-11.54a9.13,9.13,0,0,1,5.17,2.12,3.32,3.32,0,0,0,1.39.56,5.1,5.1,0,0,0,2.12-1.48c.83-.74,1.39-1.2,1.94-1.2s.65.46.65,1Z"/><path class="cls-9" d="M175.82,116.17a3.42,3.42,0,0,0-.83-2.59l-2.78-2.68c-.18-.27-.64-.55-.64-.83a.52.52,0,0,1,.55-.55h14.5a.53.53,0,0,1,.56.55c0,.28-.47.56-.65.83l-2.77,2.68a3.38,3.38,0,0,0-.83,2.59v56a3.34,3.34,0,0,0,.83,2.58l2.77,2.68c.18.28.65.56.65.83a.54.54,0,0,1-.56.56h-14.5a.53.53,0,0,1-.55-.56c0-.27.46-.55.64-.83l2.78-2.68a3.38,3.38,0,0,0,.83-2.58Z"/><path class="cls-10" d="M199.83,114h-3.42c-.55,0-.83.46-1,1l-4.81,18.38a.7.7,0,0,1-.74.55c-.37,0-.46-.18-.46-.65V109.89a.42.42,0,0,1,.46-.37h27.06a.43.43,0,0,1,.47.37v23.36c0,.47-.1.65-.47.65a.69.69,0,0,1-.73-.55L211.37,115c-.18-.56-.46-1-1-1h-3.42v58.19a3.31,3.31,0,0,0,.74,2.58l2.77,2.68c.28.28.65.56.65.83a.49.49,0,0,1-.56.56H196.23a.49.49,0,0,1-.56-.56c0-.27.37-.55.65-.83l2.77-2.68a3.31,3.31,0,0,0,.74-2.58Z"/><path class="cls-11" d="M245.73,142.31c0,17.45-1.2,36.48-12.38,36.48s-12.28-19-12.28-36.48c0-13.3,1.2-32.79,12.28-32.79S245.73,129,245.73,142.31Zm-17.09.09c0,24,2,31.77,4.71,31.77s4.81-7.76,4.81-31.77c0-20.51-2-28.26-4.81-28.26S228.64,121.89,228.64,142.4Z"/><path class="cls-12" d="M260.78,172.14a3.38,3.38,0,0,0,.83,2.58l2.77,2.68c.19.28.65.56.65.83a.53.53,0,0,1-.55.56H250a.54.54,0,0,1-.56-.56c0-.27.46-.55.65-.83l2.77-2.68a3.34,3.34,0,0,0,.83-2.58v-56a3.38,3.38,0,0,0-.83-2.59l-2.77-2.68c-.19-.27-.65-.55-.65-.83a.53.53,0,0,1,.56-.55h11.54c9.61,0,14.59,5.08,14.59,17.08,0,10.26-3.6,14.41-6.83,16.44a11.48,11.48,0,0,1,5.91,10.35v19.3a2.41,2.41,0,0,0,.83,1.66l3,3.14c.37.37.73.74.73,1s-.46.28-.92.28H274c-4.25,0-5.91-2.77-5.91-5.91V153c0-4.07-2.5-7.11-5.73-7.11h-1.57Zm0-30.85h1.39c4.52,0,6.37-3.6,6.37-14.69,0-9.42-1.85-12.46-6.37-12.46h-1.39Z"/><path class="cls-13" d="M135.6,200.32a3.9,3.9,0,0,0-1-3l-3.19-3.09c-.22-.32-.75-.64-.75-1a.61.61,0,0,1,.64-.64h16.73a.61.61,0,0,1,.64.64c0,.32-.53.64-.75,1l-3.19,3.09a3.9,3.9,0,0,0-1,3v64.57a3.86,3.86,0,0,0,1,3L148,271c.22.32.75.64.75,1a.61.61,0,0,1-.64.64H131.34a.61.61,0,0,1-.64-.64c0-.32.53-.64.75-1l3.19-3.09a3.86,3.86,0,0,0,1-3Z"/><path class="cls-14" d="M154.88,209.94a3.9,3.9,0,0,0-.83-2.58l-2.31-2.68c-.18-.28-.64-.56-.64-.92a.52.52,0,0,1,.55-.47h11.08c.65,0,.93.65,1.11,1.57l8.5,39.72h.18V209.94a3.14,3.14,0,0,0-.83-2.49l-2.58-2.77c-.19-.28-.65-.56-.65-.92a.53.53,0,0,1,.56-.47h12.19a.52.52,0,0,1,.55.47c0,.36-.37.64-.65.92l-2.31,2.68a4,4,0,0,0-.83,2.58v61.61c0,.64-.27,1-.92,1h-3.88c-.83,0-1.57-.92-1.85-2.31l-10.8-50.33h-.19v46a3.22,3.22,0,0,0,.93,2.5l2.49,2.77c.28.27.65.55.65.92a.52.52,0,0,1-.56.46H151.65a.51.51,0,0,1-.55-.46c0-.37.46-.65.64-.92l2.31-2.68a3.93,3.93,0,0,0,.83-2.59Z"/><path class="cls-15" d="M195.33,235h2a1,1,0,0,0,1-.64l3.05-6.38c.18-.37.37-.64.65-.64s.46.18.46.55v19.49c0,.37-.09.55-.37.55s-.37-.27-.56-.64l-3.23-6.75a1,1,0,0,0-1-.64h-2v26c0,1.11.1,2,.84,2.59l3.41,2.68c.28.27.65.55.65.83a.53.53,0,0,1-.55.55H184.53A.53.53,0,0,1,184,272c0-.28.47-.46.65-.83l2.77-2.68a3.38,3.38,0,0,0,.83-2.59v-56a3.34,3.34,0,0,0-.83-2.58l-2.77-2.68c-.18-.28-.65-.56-.65-.83a.54.54,0,0,1,.56-.56h23.92a.76.76,0,0,1,.74.83v23.09a.44.44,0,0,1-.46.47A.87.87,0,0,1,208,227l-5-17.36a2.3,2.3,0,0,0-2.4-1.76h-5.27Z"/><path class="cls-16" d="M238.65,236.08c0,17.46-1.2,36.48-12.38,36.48S214,253.54,214,236.08c0-13.3,1.2-32.79,12.28-32.79S238.65,222.78,238.65,236.08Zm-17.09.09c0,24,2,31.77,4.71,31.77s4.81-7.75,4.81-31.77c0-20.5-2-28.26-4.81-28.26S221.56,215.67,221.56,236.17Z"/><path class="cls-17" d="M96.8,106.86a4.8,4.8,0,0,0-1.27-2.77L92,100.57a1.81,1.81,0,0,1-.64-1.28c0-.32.32-.42,1-.42h16.52c.31,0,.63.1.63.42a1.72,1.72,0,0,1-.53,1.18L106.18,103a3.64,3.64,0,0,0-1.28,2.88l5.44,37.4h.21L115,105.9a3.8,3.8,0,0,0-1.28-2.88l-2.56-2.55a1.86,1.86,0,0,1-.64-1.18c0-.32.43-.42.75-.42h14.27c.64,0,1,.1,1,.42a1.81,1.81,0,0,1-.64,1.28l-3.51,3.52a4.22,4.22,0,0,0-1.28,2.77l-8.42,70.75c-.11.75-.43,1.18-1.06,1.18h-3.73c-.54,0-.75-.32-.86-.86Z"/><path class="cls-17" d="M132.32,116.17a3.42,3.42,0,0,0-.83-2.59l-2.77-2.68c-.19-.27-.65-.55-.65-.83a.52.52,0,0,1,.55-.55h14.5a.53.53,0,0,1,.56.55c0,.28-.46.56-.65.83l-2.77,2.68a3.38,3.38,0,0,0-.83,2.59v56a3.34,3.34,0,0,0,.83,2.58L143,177.4c.19.28.65.56.65.83a.54.54,0,0,1-.56.56h-14.5a.53.53,0,0,1-.55-.56c0-.27.46-.55.65-.83l2.77-2.68a3.38,3.38,0,0,0,.83-2.58Z"/><path class="cls-17" d="M166.77,133.44c0,.28-.19.46-.56.46s-.46-.28-.55-.65c-1.48-7.48-5.91-19.11-10.16-19.11-2.31,0-2.5,1.93-2.5,4.34,0,4.52,1.21,9,8,23.55,6.47,13.67,7.2,16.71,7.2,24,0,9.79-5.08,12.75-8.49,12.75a8.73,8.73,0,0,1-5.18-1.76,5.2,5.2,0,0,0-1.84-.92c-.37,0-1.11.64-3,2-.37.28-.74.65-1.11.65s-.46-.19-.46-.47V155.05c0-.28.09-.65.46-.65s.47.37.56.65c1.66,7.39,4.52,19.12,10,19.12,1.76,0,2.68-1.94,2.68-4.8,0-6.19-2.77-12.93-8-24-5-10.53-6.84-17.55-6.84-24.29,0-8.77,3.79-11.54,8.5-11.54a9.13,9.13,0,0,1,5.17,2.12,3.32,3.32,0,0,0,1.39.56,5.1,5.1,0,0,0,2.12-1.48c.83-.74,1.39-1.2,1.94-1.2s.65.46.65,1Z"/><path class="cls-17" d="M175.82,116.17a3.42,3.42,0,0,0-.83-2.59l-2.78-2.68c-.18-.27-.64-.55-.64-.83a.52.52,0,0,1,.55-.55h14.5a.53.53,0,0,1,.56.55c0,.28-.47.56-.65.83l-2.77,2.68a3.38,3.38,0,0,0-.83,2.59v56a3.34,3.34,0,0,0,.83,2.58l2.77,2.68c.18.28.65.56.65.83a.54.54,0,0,1-.56.56h-14.5a.53.53,0,0,1-.55-.56c0-.27.46-.55.64-.83l2.78-2.68a3.38,3.38,0,0,0,.83-2.58Z"/><path class="cls-17" d="M199.83,114h-3.42c-.55,0-.83.46-1,1l-4.81,18.38a.7.7,0,0,1-.74.55c-.37,0-.46-.18-.46-.65V109.89a.42.42,0,0,1,.46-.37h27.06a.43.43,0,0,1,.47.37v23.36c0,.47-.1.65-.47.65a.69.69,0,0,1-.73-.55L211.37,115c-.18-.56-.46-1-1-1h-3.42v58.19a3.31,3.31,0,0,0,.74,2.58l2.77,2.68c.28.28.65.56.65.83a.49.49,0,0,1-.56.56H196.23a.49.49,0,0,1-.56-.56c0-.27.37-.55.65-.83l2.77-2.68a3.31,3.31,0,0,0,.74-2.58Z"/><path class="cls-17" d="M245.73,142.31c0,17.45-1.2,36.48-12.38,36.48s-12.28-19-12.28-36.48c0-13.3,1.2-32.79,12.28-32.79S245.73,129,245.73,142.31Zm-17.09.09c0,24,2,31.77,4.71,31.77s4.81-7.76,4.81-31.77c0-20.51-2-28.26-4.81-28.26S228.64,121.89,228.64,142.4Z"/><path class="cls-17" d="M260.78,172.14a3.38,3.38,0,0,0,.83,2.58l2.77,2.68c.19.28.65.56.65.83a.53.53,0,0,1-.55.56H250a.54.54,0,0,1-.56-.56c0-.27.46-.55.65-.83l2.77-2.68a3.34,3.34,0,0,0,.83-2.58v-56a3.38,3.38,0,0,0-.83-2.59l-2.77-2.68c-.19-.27-.65-.55-.65-.83a.53.53,0,0,1,.56-.55h11.54c9.61,0,14.59,5.08,14.59,17.08,0,10.26-3.6,14.41-6.83,16.44a11.48,11.48,0,0,1,5.91,10.35v19.3a2.41,2.41,0,0,0,.83,1.66l3,3.14c.37.37.73.74.73,1s-.46.28-.92.28H274c-4.25,0-5.91-2.77-5.91-5.91V153c0-4.07-2.5-7.11-5.73-7.11h-1.57Zm0-30.85h1.39c4.52,0,6.37-3.6,6.37-14.69,0-9.42-1.85-12.46-6.37-12.46h-1.39Z"/><path class="cls-17" d="M135.6,200.32a3.9,3.9,0,0,0-1-3l-3.19-3.09c-.22-.32-.75-.64-.75-1a.61.61,0,0,1,.64-.64h16.73a.61.61,0,0,1,.64.64c0,.32-.53.64-.75,1l-3.19,3.09a3.9,3.9,0,0,0-1,3v64.57a3.86,3.86,0,0,0,1,3L148,271c.22.32.75.64.75,1a.61.61,0,0,1-.64.64H131.34a.61.61,0,0,1-.64-.64c0-.32.53-.64.75-1l3.19-3.09a3.86,3.86,0,0,0,1-3Z"/><path class="cls-17" d="M154.88,209.94a3.9,3.9,0,0,0-.83-2.58l-2.31-2.68c-.18-.28-.64-.56-.64-.92a.52.52,0,0,1,.55-.47h11.08c.65,0,.93.65,1.11,1.57l8.5,39.72h.18V209.94a3.14,3.14,0,0,0-.83-2.49l-2.58-2.77c-.19-.28-.65-.56-.65-.92a.53.53,0,0,1,.56-.47h12.19a.52.52,0,0,1,.55.47c0,.36-.37.64-.65.92l-2.31,2.68a4,4,0,0,0-.83,2.58v61.61c0,.64-.27,1-.92,1h-3.88c-.83,0-1.57-.92-1.85-2.31l-10.8-50.33h-.19v46a3.22,3.22,0,0,0,.93,2.5l2.49,2.77c.28.27.65.55.65.92a.52.52,0,0,1-.56.46H151.65a.51.51,0,0,1-.55-.46c0-.37.46-.65.64-.92l2.31-2.68a3.93,3.93,0,0,0,.83-2.59Z"/><path class="cls-17" d="M195.33,235h2a1,1,0,0,0,1-.64l3.05-6.38c.18-.37.37-.64.65-.64s.46.18.46.55v19.49c0,.37-.09.55-.37.55s-.37-.27-.56-.64l-3.23-6.75a1,1,0,0,0-1-.64h-2v26c0,1.11.1,2,.84,2.59l3.41,2.68c.28.27.65.55.65.83a.53.53,0,0,1-.55.55H184.53A.53.53,0,0,1,184,272c0-.28.47-.46.65-.83l2.77-2.68a3.38,3.38,0,0,0,.83-2.59v-56a3.34,3.34,0,0,0-.83-2.58l-2.77-2.68c-.18-.28-.65-.56-.65-.83a.54.54,0,0,1,.56-.56h23.92a.76.76,0,0,1,.74.83v23.09a.44.44,0,0,1-.46.47A.87.87,0,0,1,208,227l-5-17.36a2.3,2.3,0,0,0-2.4-1.76h-5.27Z"/><path class="cls-17" d="M238.65,236.08c0,17.46-1.2,36.48-12.38,36.48S214,253.54,214,236.08c0-13.3,1.2-32.79,12.28-32.79S238.65,222.78,238.65,236.08Zm-17.09.09c0,24,2,31.77,4.71,31.77s4.81-7.75,4.81-31.77c0-20.5-2-28.26-4.81-28.26S221.56,215.67,221.56,236.17Z"/></g></svg>