<svg xmlns="http://www.w3.org/2000/svg" xmlns:xlink="http://www.w3.org/1999/xlink" enable-background="new 0 0 360 240" viewBox="0 0 360 240"><linearGradient id="a"><stop offset=".006" stop-opacity="0"/><stop offset=".768" stop-opacity="0"/><stop offset=".899" stop-opacity="0"/><stop offset=".9" stop-opacity=".341"/><stop offset=".9" stop-opacity=".4"/><stop offset="1" stop-opacity=".4"/></linearGradient><linearGradient id="b" x1="179.875" x2="179.875" y1="0" y2="20" gradientUnits="userSpaceOnUse" xlink:href="#a"/><linearGradient id="c" x1="179.875" x2="179.875" y1="20.046" y2="40.045" gradientUnits="userSpaceOnUse" xlink:href="#a"/><linearGradient id="d" x1="179.875" x2="179.875" y1="40.091" y2="60.091" gradientUnits="userSpaceOnUse" xlink:href="#a"/><linearGradient id="e" x1="179.875" x2="179.875" y1="60.136" y2="80.136" gradientUnits="userSpaceOnUse" xlink:href="#a"/><linearGradient id="f" x1="179.875" x2="179.875" y1="80.182" y2="100.182" gradientUnits="userSpaceOnUse" xlink:href="#a"/><linearGradient id="g" x1="179.875" x2="179.875" y1="100.227" y2="120.227" gradientUnits="userSpaceOnUse" xlink:href="#a"/><linearGradient id="h" x1="179.875" x2="179.875" y1="120.273" y2="140.273" gradientUnits="userSpaceOnUse" xlink:href="#a"/><linearGradient id="i" x1="179.875" x2="179.875" y1="140.318" y2="160.318" gradientUnits="userSpaceOnUse" xlink:href="#a"/><linearGradient id="j" x1="179.875" x2="179.875" y1="160.364" y2="180.364" gradientUnits="userSpaceOnUse" xlink:href="#a"/><linearGradient id="k" x1="179.875" x2="179.875" y1="180.409" y2="200.409" gradientUnits="userSpaceOnUse" xlink:href="#a"/><linearGradient id="l" x1="179.875" x2="179.875" y1="200.454" y2="220.454" gradientUnits="userSpaceOnUse" xlink:href="#a"/><linearGradient id="m" x1="179.875" x2="179.875" y1="220.5" y2="240.5" gradientUnits="userSpaceOnUse" xlink:href="#a"/><linearGradient id="n"><stop offset=".001" stop-opacity=".4"/><stop offset=".5" stop-opacity="0"/><stop offset="1" stop-opacity=".4"/></linearGradient><linearGradient id="o" x1="240" x2="340" y1="170.364" y2="170.364" gradientUnits="userSpaceOnUse" xlink:href="#n"/><linearGradient id="p" x1="220" x2="320" y1="190.409" y2="190.409" gradientUnits="userSpaceOnUse" xlink:href="#n"/><linearGradient id="q" x1="60" x2="160" y1="190.409" y2="190.409" gradientUnits="userSpaceOnUse" xlink:href="#n"/><linearGradient id="r" x1="40" x2="140" y1="70.136" y2="70.136" gradientUnits="userSpaceOnUse" xlink:href="#n"/><linearGradient id="s" x1="60" x2="160" y1="50.091" y2="50.091" gradientUnits="userSpaceOnUse" xlink:href="#n"/><linearGradient id="t" x1="240" x2="340" y1="70.136" y2="70.136" gradientUnits="userSpaceOnUse" xlink:href="#n"/><linearGradient id="u" x1="200" x2="300" y1="30.045" y2="30.045" gradientUnits="userSpaceOnUse" xlink:href="#n"/><linearGradient id="v" x1="280" x2="359.875" y1="110.227" y2="110.227" gradientUnits="userSpaceOnUse" xlink:href="#n"/><linearGradient id="w" x1="160" x2="220" y1="110.227" y2="110.227" gradientUnits="userSpaceOnUse" xlink:href="#n"/><linearGradient id="x" x1="40" x2="140" y1="170.364" y2="170.364" gradientUnits="userSpaceOnUse" xlink:href="#n"/><linearGradient id="y" x1="20" x2="120" y1="150.318" y2="150.318" gradientUnits="userSpaceOnUse" xlink:href="#n"/><linearGradient id="z" x1="220" x2="320" y1="50.091" y2="50.091" gradientUnits="userSpaceOnUse" xlink:href="#n"/><linearGradient id="A" x1="160" x2="220" y1="130.273" y2="130.273" gradientUnits="userSpaceOnUse" xlink:href="#n"/><linearGradient id="B" x1="80" x2="180" y1="30.045" y2="30.045" gradientUnits="userSpaceOnUse" xlink:href="#n"/><linearGradient id="C" x1="180" x2="200" y1="100.091" y2="100.091" gradientUnits="userSpaceOnUse" xlink:href="#n"/><linearGradient id="D" x1="180" x2="200" y1="150.159" y2="150.159" gradientUnits="userSpaceOnUse" xlink:href="#n"/><linearGradient id="E" x1="-.125" x2="100" y1="110.227" y2="110.227" gradientUnits="userSpaceOnUse" xlink:href="#n"/><linearGradient id="F" x1="280" x2="460" y1="130.273" y2="130.273" gradientUnits="userSpaceOnUse" xlink:href="#n"/><linearGradient id="G" x1="-80" x2="100" y1="130.273" y2="130.273" gradientUnits="userSpaceOnUse" xlink:href="#n"/><linearGradient id="H" x1="-.125" x2="0" y1="70.136" y2="70.136" gradientUnits="userSpaceOnUse" xlink:href="#n"/><linearGradient id="I" x1="-.125" x2="0" y1="150.318" y2="150.318" gradientUnits="userSpaceOnUse" xlink:href="#n"/><linearGradient id="J" x1="-.125" x2="0" y1="90.182" y2="90.182" gradientUnits="userSpaceOnUse" xlink:href="#n"/><linearGradient id="K" x1="-.125" x2="0" y1="170.364" y2="170.364" gradientUnits="userSpaceOnUse" xlink:href="#n"/><linearGradient id="L" x1="-.125" x2="20" y1="210.454" y2="210.454" gradientUnits="userSpaceOnUse" xlink:href="#n"/><linearGradient id="M" x1="-.125" x2="0" y1="190.409" y2="190.409" gradientUnits="userSpaceOnUse" xlink:href="#n"/><linearGradient id="N" x1="80" x2="180" y1="210.454" y2="210.454" gradientUnits="userSpaceOnUse" xlink:href="#n"/><linearGradient id="O" x1="260" x2="359.875" y1="90.182" y2="90.182" gradientUnits="userSpaceOnUse" xlink:href="#n"/><linearGradient id="P" x1="200" x2="300" y1="210.454" y2="210.454" gradientUnits="userSpaceOnUse" xlink:href="#n"/><linearGradient id="Q" x1="260" x2="359.875" y1="150.318" y2="150.318" gradientUnits="userSpaceOnUse" xlink:href="#n"/><linearGradient id="R" x1="20" x2="120" y1="90.182" y2="90.182" gradientUnits="userSpaceOnUse" xlink:href="#n"/><linearGradient id="S" x1="-.125" x2="20" y1="30.045" y2="30.045" gradientUnits="userSpaceOnUse" xlink:href="#n"/><linearGradient id="T" x1="-.125" x2="0" y1="50.091" y2="50.091" gradientUnits="userSpaceOnUse" xlink:href="#n"/><linearGradient id="U" x1="-20" x2="40" y1="10" y2="10" gradientUnits="userSpaceOnUse" xlink:href="#n"/><linearGradient id="V" x1="339.5" x2="399.5" y1="9.5" y2="9.5" gradientUnits="userSpaceOnUse" xlink:href="#n"/><linearGradient id="W" x1="120" x2="260" y1="10" y2="10" gradientUnits="userSpaceOnUse" xlink:href="#n"/><linearGradient id="X" x1="-.125" x2="359.875" y1="230.5" y2="230.5" gradientUnits="userSpaceOnUse" xlink:href="#n"/><linearGradient id="Y" x1="-.125" x2="20" y1="230.5" y2="230.5" gradientUnits="userSpaceOnUse" xlink:href="#n"/><linearGradient id="Z"><stop offset=".001" stop-color="#e6d7b7"/><stop offset=".899" stop-color="#e6d7b7"/><stop offset=".9" stop-color="#8c6239"/><stop offset="1" stop-color="#8c6239"/></linearGradient><linearGradient id="aa" x1="340" x2="360" y1="200" y2="200" gradientUnits="userSpaceOnUse" xlink:href="#Z"/><linearGradient id="ab" x1="340" x2="360" y1="60" y2="60" gradientUnits="userSpaceOnUse" xlink:href="#Z"/><linearGradient id="ac" x1="320" x2="340" y1="250" y2="250" gradientUnits="userSpaceOnUse" xlink:href="#Z"/><linearGradient id="ad" x1="320" x2="340" y1="10" y2="10" gradientUnits="userSpaceOnUse" xlink:href="#Z"/><linearGradient id="ae" x1="300" x2="320" y1="250" y2="250" gradientUnits="userSpaceOnUse" xlink:href="#Z"/><linearGradient id="af" x1="300" x2="320" y1="10" y2="10" gradientUnits="userSpaceOnUse" xlink:href="#Z"/><linearGradient id="ag" x1="280" x2="300" y1="130" y2="130" gradientUnits="userSpaceOnUse" xlink:href="#Z"/><linearGradient id="ah" x1="280" x2="300" y1="250" y2="250" gradientUnits="userSpaceOnUse" xlink:href="#Z"/><linearGradient id="ai" x1="280" x2="300" y1="10" y2="10" gradientUnits="userSpaceOnUse" xlink:href="#Z"/><linearGradient id="aj" x1="260" x2="280" y1="130" y2="130" gradientUnits="userSpaceOnUse" xlink:href="#Z"/><linearGradient id="ak" x1="260" x2="280" y1="10" y2="10" gradientUnits="userSpaceOnUse" xlink:href="#Z"/><linearGradient id="al" x1="240" x2="260" y1="130" y2="130" gradientUnits="userSpaceOnUse" xlink:href="#Z"/><linearGradient id="am" x1="220" x2="240" y1="130" y2="130" gradientUnits="userSpaceOnUse" xlink:href="#Z"/><linearGradient id="an" x1="200" x2="220" y1="180" y2="180" gradientUnits="userSpaceOnUse" xlink:href="#Z"/><linearGradient id="ao" x1="200" x2="220" y1="80" y2="80" gradientUnits="userSpaceOnUse" xlink:href="#Z"/><linearGradient id="ap" x1="180" x2="200" y1="200" y2="200" gradientUnits="userSpaceOnUse" xlink:href="#Z"/><linearGradient id="aq" x1="180" x2="200" y1="60" y2="60" gradientUnits="userSpaceOnUse" xlink:href="#Z"/><linearGradient id="ar" x1="160" x2="180" y1="180" y2="180" gradientUnits="userSpaceOnUse" xlink:href="#Z"/><linearGradient id="as" x1="160" x2="180" y1="80" y2="80" gradientUnits="userSpaceOnUse" xlink:href="#Z"/><linearGradient id="at" x1="140" x2="160" y1="130" y2="130" gradientUnits="userSpaceOnUse" xlink:href="#Z"/><linearGradient id="au" x1="120" x2="140" y1="130" y2="130" gradientUnits="userSpaceOnUse" xlink:href="#Z"/><linearGradient id="av" x1="100" x2="120" y1="130" y2="130" gradientUnits="userSpaceOnUse" xlink:href="#Z"/><linearGradient id="aw" x1="100" x2="120" y1="10" y2="10" gradientUnits="userSpaceOnUse" xlink:href="#Z"/><linearGradient id="ax" x1="80" x2="100" y1="130" y2="130" gradientUnits="userSpaceOnUse" xlink:href="#Z"/><linearGradient id="ay" x1="80" x2="100" y1="250" y2="250" gradientUnits="userSpaceOnUse" xlink:href="#Z"/><linearGradient id="az" x1="80" x2="100" y1="10" y2="10" gradientUnits="userSpaceOnUse" xlink:href="#Z"/><linearGradient id="aA" x1="60" x2="80" y1="250" y2="250" gradientUnits="userSpaceOnUse" xlink:href="#Z"/><linearGradient id="aB" x1="60" x2="80" y1="10" y2="10" gradientUnits="userSpaceOnUse" xlink:href="#Z"/><linearGradient id="aC" x1="40" x2="60" y1="250" y2="250" gradientUnits="userSpaceOnUse" xlink:href="#Z"/><linearGradient id="aD" x1="40" x2="60" y1="10" y2="10" gradientUnits="userSpaceOnUse" xlink:href="#Z"/><linearGradient id="aE" x1="20" x2="40" y1="200" y2="200" gradientUnits="userSpaceOnUse" xlink:href="#Z"/><linearGradient id="aF" x1="20" x2="40" y1="60" y2="60" gradientUnits="userSpaceOnUse" xlink:href="#Z"/><linearGradient id="aG" x1="0" x2="20" y1="180" y2="180" gradientUnits="userSpaceOnUse" xlink:href="#Z"/><linearGradient id="aH" x1="0" x2="20" y1="80" y2="80" gradientUnits="userSpaceOnUse" xlink:href="#Z"/><linearGradient id="aI"><stop offset=".001" stop-opacity=".2"/><stop offset=".5" stop-opacity="0"/><stop offset="1" stop-opacity=".2"/></linearGradient><linearGradient id="aJ" x1="350" x2="350" y1="160" y2="240" gradientUnits="userSpaceOnUse" xlink:href="#aI"/><linearGradient id="aK" x1="350" x2="350" y1="20" y2="100" gradientUnits="userSpaceOnUse" xlink:href="#aI"/><linearGradient id="aL" x1="330" x2="330" y1="180" y2="320" gradientUnits="userSpaceOnUse" xlink:href="#aI"/><linearGradient id="aM" x1="330" x2="330" y1="-60" y2="80" gradientUnits="userSpaceOnUse" xlink:href="#aI"/><linearGradient id="aN" x1="310" x2="310" y1="200" y2="300" gradientUnits="userSpaceOnUse" xlink:href="#aI"/><linearGradient id="aO" x1="310" x2="310" y1="-40" y2="60" gradientUnits="userSpaceOnUse" xlink:href="#aI"/><linearGradient id="aP" x1="290" x2="290" y1="120" y2="140" gradientUnits="userSpaceOnUse" xlink:href="#aI"/><linearGradient id="aQ" x1="290" x2="290" y1="220" y2="280" gradientUnits="userSpaceOnUse" xlink:href="#aI"/><linearGradient id="aR" x1="290" x2="290" y1="-20" y2="40" gradientUnits="userSpaceOnUse" xlink:href="#aI"/><linearGradient id="aS" x1="270" x2="270" y1="100" y2="160" gradientUnits="userSpaceOnUse" xlink:href="#aI"/><linearGradient id="aT" x1="270" x2="270" y1="0" y2="20" gradientUnits="userSpaceOnUse" xlink:href="#aI"/><linearGradient id="aU" x1="250" x2="250" y1="80" y2="180" gradientUnits="userSpaceOnUse" xlink:href="#aI"/><linearGradient id="aV" x1="230" x2="230" y1="60" y2="200" gradientUnits="userSpaceOnUse" xlink:href="#aI"/><linearGradient id="aW" x1="210" x2="210" y1="140" y2="220" gradientUnits="userSpaceOnUse" xlink:href="#aI"/><linearGradient id="aX" x1="210" x2="210" y1="40" y2="120" gradientUnits="userSpaceOnUse" xlink:href="#aI"/><linearGradient id="aY" x1="190" x2="190" y1="160" y2="240" gradientUnits="userSpaceOnUse" xlink:href="#aI"/><linearGradient id="aZ" x1="190" x2="190" y1="20" y2="100" gradientUnits="userSpaceOnUse" xlink:href="#aI"/><linearGradient id="a0" x1="170" x2="170" y1="140" y2="220" gradientUnits="userSpaceOnUse" xlink:href="#aI"/><linearGradient id="a1" x1="170" x2="170" y1="40" y2="120" gradientUnits="userSpaceOnUse" xlink:href="#aI"/><linearGradient id="a2" x1="150" x2="150" y1="60" y2="200" gradientUnits="userSpaceOnUse" xlink:href="#aI"/><linearGradient id="a3" x1="130" x2="130" y1="80" y2="180" gradientUnits="userSpaceOnUse" xlink:href="#aI"/><linearGradient id="a4" x1="110" x2="110" y1="100" y2="160" gradientUnits="userSpaceOnUse" xlink:href="#aI"/><linearGradient id="a5" x1="110" x2="110" y1="0" y2="20" gradientUnits="userSpaceOnUse" xlink:href="#aI"/><linearGradient id="a6" x1="90" x2="90" y1="120" y2="140" gradientUnits="userSpaceOnUse" xlink:href="#aI"/><linearGradient id="a7" x1="90" x2="90" y1="220" y2="280" gradientUnits="userSpaceOnUse" xlink:href="#aI"/><linearGradient id="a8" x1="90" x2="90" y1="-20" y2="40" gradientUnits="userSpaceOnUse" xlink:href="#aI"/><linearGradient id="a9" x1="70" x2="70" y1="200" y2="300" gradientUnits="userSpaceOnUse" xlink:href="#aI"/><linearGradient id="ba" x1="70" x2="70" y1="-40" y2="60" gradientUnits="userSpaceOnUse" xlink:href="#aI"/><linearGradient id="bb" x1="50" x2="50" y1="180" y2="320" gradientUnits="userSpaceOnUse" xlink:href="#aI"/><linearGradient id="bc" x1="50" x2="50" y1="-60" y2="80" gradientUnits="userSpaceOnUse" xlink:href="#aI"/><linearGradient id="bd" x1="30" x2="30" y1="160" y2="240" gradientUnits="userSpaceOnUse" xlink:href="#aI"/><linearGradient id="be" x1="30" x2="30" y1="20" y2="100" gradientUnits="userSpaceOnUse" xlink:href="#aI"/><linearGradient id="bf" x1="10" x2="10" y1="140" y2="220" gradientUnits="userSpaceOnUse" xlink:href="#aI"/><linearGradient id="bg" x1="10" x2="10" y1="40" y2="120" gradientUnits="userSpaceOnUse" xlink:href="#aI"/><path fill="url(#b)" d="m-.12 0h360v20h-360z"/><path fill="url(#c)" d="m-.12 20.05h360v20h-360z"/><path fill="url(#d)" d="m-.12 40.09h360v20h-360z"/><path fill="url(#e)" d="m-.12 60.14h360v20h-360z"/><path fill="url(#f)" d="m-.12 80.18h360v20h-360z"/><path fill="url(#g)" d="m-.12 100.23h360v20h-360z"/><path fill="url(#h)" d="m-.12 120.27h360v20h-360z"/><path fill="url(#i)" d="m-.12 140.32h360v20h-360z"/><path fill="url(#j)" d="m-.12 160.36h360v20h-360z"/><path fill="url(#k)" d="m-.12 180.41h360v20h-360z"/><path fill="url(#l)" d="m-.12 200.45h360v20h-360z"/><path fill="url(#m)" d="m-.12 220.5h360v20h-360z"/><path fill="url(#o)" d="m260 180h-20v.36h80v-.36h20v-19.64h-80z"/><path fill="url(#p)" d="m300 200h20v-19.59h-80v19.59h-20v.41h80z"/><path fill="url(#q)" d="m160 200.41v-.41h-20v-19.59h-80v19.59h20v.41z"/><path fill="url(#r)" d="m120 80.14v-.14h20v-19.86h-80v19.86h-20v.14z"/><path fill="url(#s)" d="m80 60h-20v.09h80v-.09h20v-19.91h-80z"/><path fill="url(#t)" d="m340 80.14v-.14h-20v-19.86h-80v19.86h20v.14z"/><path fill="url(#u)" d="m200 20.05v19.95h20v.05h80v-.05h-20v-19.95z"/><path fill="url(#v)" d="m359.88 100.23h-79.88v19.77h20v.23h59.88z"/><path fill="url(#w)" d="m220 120.23v-.23h-20v-19.77h-20v19.77h-20v.23z"/><path fill="url(#x)" d="m60 180.36h80v-.36h-20v-19.64h-80v19.64h20z"/><path fill="url(#y)" d="m40 160.32h80v-.32h-20v-19.68h-80v19.68h20z"/><path fill="url(#z)" d="m220 40.09v19.91h20v.09h80v-.09h-20v-19.91z"/><path fill="url(#A)" d="m180 140.27h20v-.27h20v-19.73h-60v19.73h20z"/><path fill="url(#B)" d="m100 40h-20v.05h80v-.05h20v-19.95h-80z"/><path fill="url(#C)" d="m180 100h20v.18h-20z"/><path fill="url(#D)" d="m180 140.32h20v19.68h-20z"/><path fill="url(#E)" d="m80 120h20v-19.77h-80v19.77h-20v-19.77h-.12v20h80.12z"/><path fill="url(#F)" d="m440 140v-19.73h-80.12-59.88v19.73h-20v.27h79.88.12v-.27h20v.27h80v-.27z"/><path fill="url(#G)" d="m80 140v-19.73h-80.12-59.88v19.73h-20v.27h79.88.12v-.27h20v.27h80v-.27z"/><path fill="url(#H)" d="m0 80v-19.86h-.12v20h.12z"/><path fill="url(#I)" d="m0 160v-19.68h-.12v20h.12z"/><path fill="url(#J)" d="m0 100v-19.82h-.12v20h.12z"/><path fill="url(#K)" d="m0 180v-19.64h-.12v20h.12z"/><path fill="url(#L)" d="m20 220h-20v-19.55h-.12v20h20.12z"/><path fill="url(#M)" d="m0 200v-19.59h-.12v20h.12z"/><path fill="url(#N)" d="m180 220.45v-.45h-20v-19.55h-80v19.55h20v.45z"/><path fill="url(#O)" d="m340 100v-19.82h-80v19.82h20v.18h79.88v-.18z"/><path fill="url(#P)" d="m280 220h20v-19.55h-80v19.55h-20v.45h80z"/><path fill="url(#Q)" d="m280 140.32v19.68h-20v.32h80v-.32h19.88v-19.68z"/><path fill="url(#R)" d="m100 100.18v-.18h20v-19.82h-80v19.82h-20v.18z"/><path fill="url(#S)" d="m0 40h20v-19.95h-20.12v20h.12z"/><path fill="url(#T)" d="m0 60v-19.91h-.12v20h.12z"/><path fill="url(#U)" d="m-.12 0h-19.88v20h19.88 20.12 20v-20z"/><path fill="url(#V)" d="m359.38-.5h-19.88v20h19.88 20.12 20v-20z"/><path fill="url(#W)" d="m180 20h20 60v-20h-140v20z"/><path fill="url(#X)" d="m359.88 240h-19.88-20-20-20v-19.5h-80v19.5h-20v-19.5h-80v19.5h-20-20-20-12.5v.5h332.38z"/><path fill="url(#Y)" d="m-.12 220.5h20.12v20h-20.12z"/><path fill="url(#aa)" d="m340 160v20 20 20 20h20v-20-20-20-20z"/><path fill="url(#ab)" d="m340 20v20 20 20 20h20v-20-20-20-20z"/><path fill="url(#ac)" d="m320 180v20 20 20 20 20 20 20h20v-20-20-20-20-20-20-20z"/><path fill="url(#ad)" d="m320-60v20 20 20 20 20 20 20h20v-20-20-20-20-20-20-20z"/><path fill="url(#ae)" d="m300 200v20 20 20 20 20h20v-20-20-20-20-20z"/><path fill="url(#af)" d="m300-40v20 20 20 20 20h20v-20-20-20-20-20z"/><path fill="url(#ag)" d="m280 120h20v20h-20z"/><path fill="url(#ah)" d="m280 220v20 20 20h20v-20-20-20z"/><path fill="url(#ai)" d="m280-20v20 20 20h20v-20-20-20z"/><path fill="url(#aj)" d="m260 100v20 20 20h20v-20-20-20z"/><path fill="url(#ak)" d="m260 0h20v20h-20z"/><path fill="url(#al)" d="m240 80v20 20 20 20 20h20v-20-20-20-20-20z"/><path fill="url(#am)" d="m220 60v20 20 20 20 20 20 20h20v-20-20-20-20-20-20-20z"/><path fill="url(#an)" d="m200 140v20 20 20 20h20v-20-20-20-20z"/><path fill="url(#ao)" d="m200 40v20 20 20 20h20v-20-20-20-20z"/><path fill="url(#ap)" d="m180 160v20 20 20 20h20v-20-20-20-20z"/><path fill="url(#aq)" d="m180 20v20 20 20 20h20v-20-20-20-20z"/><path fill="url(#ar)" d="m160 140v20 20 20 20h20v-20-20-20-20z"/><path fill="url(#as)" d="m160 40v20 20 20 20h20v-20-20-20-20z"/><path fill="url(#at)" d="m140 60v20 20 20 20 20 20 20h20v-20-20-20-20-20-20-20z"/><path fill="url(#au)" d="m120 80v20 20 20 20 20h20v-20-20-20-20-20z"/><path fill="url(#av)" d="m100 100v20 20 20h20v-20-20-20z"/><path fill="url(#aw)" d="m100 0h20v20h-20z"/><path fill="url(#ax)" d="m80 120h20v20h-20z"/><path fill="url(#ay)" d="m80 220v20 20 20h20v-20-20-20z"/><path fill="url(#az)" d="m80-20v20 20 20h20v-20-20-20z"/><path fill="url(#aA)" d="m60 200v20 20 20 20 20h20v-20-20-20-20-20z"/><path fill="url(#aB)" d="m60-40v20 20 20 20 20h20v-20-20-20-20-20z"/><path fill="url(#aC)" d="m40 180v20 20 20 20 20 20 20h20v-20-20-20-20-20-20-20z"/><path fill="url(#aD)" d="m40-60v20 20 20 20 20 20 20h20v-20-20-20-20-20-20-20z"/><path fill="url(#aE)" d="m20 160v20 20 20 20h20v-20-20-20-20z"/><path fill="url(#aF)" d="m20 20v20 20 20 20h20v-20-20-20-20z"/><path fill="url(#aG)" d="m0 140v20 20 20 20h20v-20-20-20-20z"/><path fill="url(#aH)" d="m0 40v20 20 20 20h20v-20-20-20-20z"/><path fill="url(#aJ)" d="m340 160v20 20 20 20h20v-20-20-20-20z"/><path fill="url(#aK)" d="m340 20v20 20 20 20h20v-20-20-20-20z"/><path fill="url(#aL)" d="m320 180v20 20 20 20 20 20 20h20v-20-20-20-20-20-20-20z"/><path fill="url(#aM)" d="m320-60v20 20 20 20 20 20 20h20v-20-20-20-20-20-20-20z"/><path fill="url(#aN)" d="m300 200v20 20 20 20 20h20v-20-20-20-20-20z"/><path fill="url(#aO)" d="m300-40v20 20 20 20 20h20v-20-20-20-20-20z"/><path fill="url(#aP)" d="m280 120h20v20h-20z"/><path fill="url(#aQ)" d="m280 220v20 20 20h20v-20-20-20z"/><path fill="url(#aR)" d="m280-20v20 20 20h20v-20-20-20z"/><path fill="url(#aS)" d="m260 100v20 20 20h20v-20-20-20z"/><path fill="url(#aT)" d="m260 0h20v20h-20z"/><path fill="url(#aU)" d="m240 80v20 20 20 20 20h20v-20-20-20-20-20z"/><path fill="url(#aV)" d="m220 60v20 20 20 20 20 20 20h20v-20-20-20-20-20-20-20z"/><path fill="url(#aW)" d="m200 140v20 20 20 20h20v-20-20-20-20z"/><path fill="url(#aX)" d="m200 40v20 20 20 20h20v-20-20-20-20z"/><path fill="url(#aY)" d="m180 160v20 20 20 20h20v-20-20-20-20z"/><path fill="url(#aZ)" d="m180 20v20 20 20 20h20v-20-20-20-20z"/><path fill="url(#a0)" d="m160 140v20 20 20 20h20v-20-20-20-20z"/><path fill="url(#a1)" d="m160 40v20 20 20 20h20v-20-20-20-20z"/><path fill="url(#a2)" d="m140 60v20 20 20 20 20 20 20h20v-20-20-20-20-20-20-20z"/><path fill="url(#a3)" d="m120 80v20 20 20 20 20h20v-20-20-20-20-20z"/><path fill="url(#a4)" d="m100 100v20 20 20h20v-20-20-20z"/><path fill="url(#a5)" d="m100 0h20v20h-20z"/><path fill="url(#a6)" d="m80 120h20v20h-20z"/><path fill="url(#a7)" d="m80 220v20 20 20h20v-20-20-20z"/><path fill="url(#a8)" d="m80-20v20 20 20h20v-20-20-20z"/><path fill="url(#a9)" d="m60 200v20 20 20 20 20h20v-20-20-20-20-20z"/><path fill="url(#ba)" d="m60-40v20 20 20 20 20h20v-20-20-20-20-20z"/><path fill="url(#bb)" d="m40 180v20 20 20 20 20 20 20h20v-20-20-20-20-20-20-20z"/><path fill="url(#bc)" d="m40-60v20 20 20 20 20 20 20h20v-20-20-20-20-20-20-20z"/><path fill="url(#bd)" d="m20 160v20 20 20 20h20v-20-20-20-20z"/><path fill="url(#be)" d="m20 20v20 20 20 20h20v-20-20-20-20z"/><path fill="url(#bf)" d="m0 140v20 20 20 20h20v-20-20-20-20z"/><path fill="url(#bg)" d="m0 40v20 20 20 20h20v-20-20-20-20z"/></svg>