<?xml version="1.0" encoding="utf-8"?>
<!-- Generator: Adobe Illustrator 25.4.1, SVG Export Plug-In . SVG Version: 6.00 Build 0)  -->
<svg version="1.1" id="Layer_1" xmlns="http://www.w3.org/2000/svg" xmlns:xlink="http://www.w3.org/1999/xlink" x="0px" y="0px"
	 viewBox="0 0 40 32" style="enable-background:new 0 0 40 32;" xml:space="preserve">
<style type="text/css">
	.st0{display:none;fill:#800080;}
	.st1{fill:#FFFFFF;}
	.st2{fill:#FFFF00;}
	.st3{fill:url(#SVGID_1_);}
	.st4{fill:url(#SVGID_00000060018802652604112540000011791784667492595852_);}
	.st5{fill:url(#SVGID_00000161613744927095238340000002841096027681572500_);}
	.st6{fill:url(#SVGID_00000054965942516999760540000017386192333346203311_);}
	.st7{fill:url(#SVGID_00000091704440552074323170000005420029725368820120_);}
	.st8{fill:url(#SVGID_00000158738687275883393460000011934108413919093380_);}
	.st9{fill:url(#SVGID_00000102525977628143258950000005848048507733486487_);}
	.st10{fill:url(#SVGID_00000168091235374070094310000009511099602871346592_);}
	.st11{fill:url(#SVGID_00000096739386441175436600000009921271429929771957_);}
	.st12{fill:url(#SVGID_00000138542971188764170670000017276830895032914818_);}
	.st13{fill:url(#SVGID_00000072259096514457220710000002783930821008363931_);}
	.st14{fill:url(#SVGID_00000070800310196483669530000011751897659428287653_);}
	.st15{fill:url(#SVGID_00000013911469366253931060000001918275328819685530_);}
	.st16{fill:url(#SVGID_00000115511864614507568910000003291431057806832280_);}
	.st17{fill:url(#SVGID_00000091726554835085387160000009171349886824934546_);}
	.st18{fill:url(#SVGID_00000068678240145008952820000008384562561763185546_);}
	.st19{fill:url(#SVGID_00000038388436525577067870000011882486337123167907_);}
	.st20{fill:url(#SVGID_00000103234703475473596410000011799322879809922196_);}
	.st21{fill:url(#SVGID_00000064336874732448749820000011556586669394965916_);}
	.st22{fill:url(#SVGID_00000057864607965186500280000012893925406586886035_);}
	.st23{fill:url(#SVGID_00000147199911718257454920000002775829009820500107_);}
	.st24{fill:url(#SVGID_00000181772190392971836860000005282670202285237644_);}
	.st25{fill:url(#SVGID_00000057118093576165901410000012174496756734349725_);}
	.st26{fill:url(#SVGID_00000001626209112436004640000015805012042216700034_);}
	.st27{fill:url(#SVGID_00000089575197805315662320000000653526178279831224_);}
	.st28{fill:url(#SVGID_00000063632019931257575890000018354360807190302848_);}
	.st29{fill:url(#SVGID_00000091721199162615911470000012311334763378277305_);}
	.st30{fill:url(#SVGID_00000107550621173603743420000014687500563042552245_);}
	.st31{fill:url(#SVGID_00000155826189064017055180000015809477790860585876_);}
	.st32{fill:url(#SVGID_00000132803643379531856570000016504573866576673179_);}
	.st33{fill:url(#SVGID_00000092420374043510027320000000676683160386988966_);}
	.st34{fill:url(#SVGID_00000165212050161596271070000015329434558599205019_);}
	.st35{fill:url(#SVGID_00000090269571299163048870000005465757094120890022_);}
	.st36{fill:url(#SVGID_00000109013756450284654790000009023948925268265860_);}
	.st37{fill:url(#SVGID_00000140008723516533941780000005866174109612422557_);}
	.st38{fill:url(#SVGID_00000132786730117992612620000009082916209171045281_);}
	.st39{display:none;}
	.st40{display:inline;fill:#800080;}
</style>
<rect class="st0" width="40" height="32"/>
<g>
	<g>
		<path class="st1" d="M0,2c0-1.1,0.9-2,2-2h1c1.1,0,2,0.9,2,2l0,0c0,1.1-0.9,2-2,2H2C0.9,4,0,3.1,0,2L0,2z"/>
	</g>
	<g>
		<path class="st1" d="M5,6c0-1.1,0.9-2,2-2h1c1.1,0,2,0.9,2,2l0,0c0,1.1-0.9,2-2,2H7C5.9,8,5,7.1,5,6L5,6z"/>
	</g>
	<g>
		<path class="st1" d="M35,6c0-1.1,0.9-2,2-2h1c1.1,0,2,0.9,2,2l0,0c0,1.1-0.9,2-2,2h-1C35.9,8,35,7.1,35,6L35,6z"/>
	</g>
	<g>
		<path class="st1" d="M10,10c0-1.1,0.9-2,2-2h1c1.1,0,2,0.9,2,2l0,0c0,1.1-0.9,2-2,2h-1C10.9,12,10,11.1,10,10L10,10z"/>
	</g>
	<g>
		<path class="st1" d="M30,10c0-1.1,0.9-2,2-2h1c1.1,0,2,0.9,2,2l0,0c0,1.1-0.9,2-2,2h-1C30.9,12,30,11.1,30,10L30,10z"/>
	</g>
	<g>
		<path class="st1" d="M15,14c0-1.1,0.9-2,2-2h1c1.1,0,2,0.9,2,2l0,0c0,1.1-0.9,2-2,2h-1C15.9,16,15,15.1,15,14L15,14z"/>
	</g>
	<g>
		<path class="st2" d="M20,14c0-1.1,0.9-2,2-2h1c1.1,0,2,0.9,2,2l0,0c0,1.1-0.9,2-2,2h-1C20.9,16,20,15.1,20,14L20,14z"/>
	</g>
	<g>
		<path class="st1" d="M25,14c0-1.1,0.9-2,2-2h1c1.1,0,2,0.9,2,2l0,0c0,1.1-0.9,2-2,2h-1C25.9,16,25,15.1,25,14L25,14z"/>
	</g>
	<g>
		<path class="st2" d="M15,18c0-1.1,0.9-2,2-2h1c1.1,0,2,0.9,2,2l0,0c0,1.1-0.9,2-2,2h-1C15.9,20,15,19.1,15,18L15,18z"/>
	</g>
	<g>
		<path class="st1" d="M20,18c0-1.1,0.9-2,2-2h1c1.1,0,2,0.9,2,2l0,0c0,1.1-0.9,2-2,2h-1C20.9,20,20,19.1,20,18L20,18z"/>
	</g>
	<g>
		<path class="st2" d="M25,18c0-1.1,0.9-2,2-2h1c1.1,0,2,0.9,2,2l0,0c0,1.1-0.9,2-2,2h-1C25.9,20,25,19.1,25,18L25,18z"/>
	</g>
	<g>
		<path class="st1" d="M15,22c0-1.1,0.9-2,2-2h1c1.1,0,2,0.9,2,2l0,0c0,1.1-0.9,2-2,2h-1C15.9,24,15,23.1,15,22L15,22z"/>
	</g>
	<g>
		<path class="st2" d="M20,22c0-1.1,0.9-2,2-2h1c1.1,0,2,0.9,2,2l0,0c0,1.1-0.9,2-2,2h-1C20.9,24,20,23.1,20,22L20,22z"/>
	</g>
	<g>
		<path class="st1" d="M25,22c0-1.1,0.9-2,2-2h1c1.1,0,2,0.9,2,2l0,0c0,1.1-0.9,2-2,2h-1C25.9,24,25,23.1,25,22L25,22z"/>
	</g>
	<g>
		<path class="st1" d="M10,26c0-1.1,0.9-2,2-2h1c1.1,0,2,0.9,2,2l0,0c0,1.1-0.9,2-2,2h-1C10.9,28,10,27.1,10,26L10,26z"/>
	</g>
	<g>
		<path class="st1" d="M30,26c0-1.1,0.9-2,2-2h1c1.1,0,2,0.9,2,2l0,0c0,1.1-0.9,2-2,2h-1C30.9,28,30,27.1,30,26L30,26z"/>
	</g>
	<g>
		<path class="st1" d="M5,30c0-1.1,0.9-2,2-2h1c1.1,0,2,0.9,2,2l0,0c0,1.1-0.9,2-2,2H7C5.9,32,5,31.1,5,30L5,30z"/>
	</g>
	<g>
		<path class="st1" d="M35,30c0-1.1,0.9-2,2-2h1c1.1,0,2,0.9,2,2l0,0c0,1.1-0.9,2-2,2h-1C35.9,32,35,31.1,35,30L35,30z"/>
	</g>
</g>
<g>
	<g>
		<linearGradient id="SVGID_1_" gradientUnits="userSpaceOnUse" x1="2.5" y1="0" x2="2.5" y2="4">
			<stop  offset="0" style="stop-color:#000000;stop-opacity:0"/>
			<stop  offset="1" style="stop-color:#000000;stop-opacity:0.3"/>
		</linearGradient>
		<path class="st3" d="M0,2c0-1.1,0.9-2,2-2h1c1.1,0,2,0.9,2,2l0,0c0,1.1-0.9,2-2,2H2C0.9,4,0,3.1,0,2L0,2z"/>
	</g>
	<g>
		
			<linearGradient id="SVGID_00000018942343958922868690000014559485729050628282_" gradientUnits="userSpaceOnUse" x1="7.5" y1="4" x2="7.5" y2="8">
			<stop  offset="0" style="stop-color:#000000;stop-opacity:0"/>
			<stop  offset="1" style="stop-color:#000000;stop-opacity:0.3"/>
		</linearGradient>
		<path style="fill:url(#SVGID_00000018942343958922868690000014559485729050628282_);" d="M5,6c0-1.1,0.9-2,2-2h1c1.1,0,2,0.9,2,2
			l0,0c0,1.1-0.9,2-2,2H7C5.9,8,5,7.1,5,6L5,6z"/>
	</g>
	<g>
		
			<linearGradient id="SVGID_00000005261176827181327690000002227771972856730281_" gradientUnits="userSpaceOnUse" x1="37.5" y1="4" x2="37.5" y2="8">
			<stop  offset="0" style="stop-color:#000000;stop-opacity:0"/>
			<stop  offset="1" style="stop-color:#000000;stop-opacity:0.3"/>
		</linearGradient>
		<path style="fill:url(#SVGID_00000005261176827181327690000002227771972856730281_);" d="M35,6c0-1.1,0.9-2,2-2h1c1.1,0,2,0.9,2,2
			l0,0c0,1.1-0.9,2-2,2h-1C35.9,8,35,7.1,35,6L35,6z"/>
	</g>
	<g>
		
			<linearGradient id="SVGID_00000058591136419061114210000015698876962113488784_" gradientUnits="userSpaceOnUse" x1="12.5" y1="8" x2="12.5" y2="12">
			<stop  offset="0" style="stop-color:#000000;stop-opacity:0"/>
			<stop  offset="1" style="stop-color:#000000;stop-opacity:0.3"/>
		</linearGradient>
		<path style="fill:url(#SVGID_00000058591136419061114210000015698876962113488784_);" d="M10,10c0-1.1,0.9-2,2-2h1
			c1.1,0,2,0.9,2,2l0,0c0,1.1-0.9,2-2,2h-1C10.9,12,10,11.1,10,10L10,10z"/>
	</g>
	<g>
		
			<linearGradient id="SVGID_00000014625701411033815710000014967251344012405902_" gradientUnits="userSpaceOnUse" x1="32.5" y1="8" x2="32.5" y2="12">
			<stop  offset="0" style="stop-color:#000000;stop-opacity:0"/>
			<stop  offset="1" style="stop-color:#000000;stop-opacity:0.3"/>
		</linearGradient>
		<path style="fill:url(#SVGID_00000014625701411033815710000014967251344012405902_);" d="M30,10c0-1.1,0.9-2,2-2h1
			c1.1,0,2,0.9,2,2l0,0c0,1.1-0.9,2-2,2h-1C30.9,12,30,11.1,30,10L30,10z"/>
	</g>
	<g>
		
			<linearGradient id="SVGID_00000016035860495761153070000010458229765051298469_" gradientUnits="userSpaceOnUse" x1="17.5" y1="12" x2="17.5" y2="16">
			<stop  offset="0" style="stop-color:#000000;stop-opacity:0"/>
			<stop  offset="1" style="stop-color:#000000;stop-opacity:0.3"/>
		</linearGradient>
		<path style="fill:url(#SVGID_00000016035860495761153070000010458229765051298469_);" d="M15,14c0-1.1,0.9-2,2-2h1
			c1.1,0,2,0.9,2,2l0,0c0,1.1-0.9,2-2,2h-1C15.9,16,15,15.1,15,14L15,14z"/>
	</g>
	<g>
		
			<linearGradient id="SVGID_00000161598656683741611520000001861364322173494683_" gradientUnits="userSpaceOnUse" x1="22.5" y1="12" x2="22.5" y2="16">
			<stop  offset="0" style="stop-color:#000000;stop-opacity:0"/>
			<stop  offset="1" style="stop-color:#000000;stop-opacity:0.3"/>
		</linearGradient>
		<path style="fill:url(#SVGID_00000161598656683741611520000001861364322173494683_);" d="M20,14c0-1.1,0.9-2,2-2h1
			c1.1,0,2,0.9,2,2l0,0c0,1.1-0.9,2-2,2h-1C20.9,16,20,15.1,20,14L20,14z"/>
	</g>
	<g>
		
			<linearGradient id="SVGID_00000098186413506576360370000011563446901980485011_" gradientUnits="userSpaceOnUse" x1="27.5" y1="12" x2="27.5" y2="16">
			<stop  offset="0" style="stop-color:#000000;stop-opacity:0"/>
			<stop  offset="1" style="stop-color:#000000;stop-opacity:0.3"/>
		</linearGradient>
		<path style="fill:url(#SVGID_00000098186413506576360370000011563446901980485011_);" d="M25,14c0-1.1,0.9-2,2-2h1
			c1.1,0,2,0.9,2,2l0,0c0,1.1-0.9,2-2,2h-1C25.9,16,25,15.1,25,14L25,14z"/>
	</g>
	<g>
		
			<linearGradient id="SVGID_00000036955644082990971490000007285853247626143106_" gradientUnits="userSpaceOnUse" x1="17.5" y1="16" x2="17.5" y2="20">
			<stop  offset="0" style="stop-color:#000000;stop-opacity:0"/>
			<stop  offset="1" style="stop-color:#000000;stop-opacity:0.3"/>
		</linearGradient>
		<path style="fill:url(#SVGID_00000036955644082990971490000007285853247626143106_);" d="M15,18c0-1.1,0.9-2,2-2h1
			c1.1,0,2,0.9,2,2l0,0c0,1.1-0.9,2-2,2h-1C15.9,20,15,19.1,15,18L15,18z"/>
	</g>
	<g>
		
			<linearGradient id="SVGID_00000029007938300920303370000008182493833210075061_" gradientUnits="userSpaceOnUse" x1="22.5" y1="16" x2="22.5" y2="20">
			<stop  offset="0" style="stop-color:#000000;stop-opacity:0"/>
			<stop  offset="1" style="stop-color:#000000;stop-opacity:0.3"/>
		</linearGradient>
		<path style="fill:url(#SVGID_00000029007938300920303370000008182493833210075061_);" d="M20,18c0-1.1,0.9-2,2-2h1
			c1.1,0,2,0.9,2,2l0,0c0,1.1-0.9,2-2,2h-1C20.9,20,20,19.1,20,18L20,18z"/>
	</g>
	<g>
		
			<linearGradient id="SVGID_00000159451003010907467900000005025617359627461259_" gradientUnits="userSpaceOnUse" x1="27.5" y1="16" x2="27.5" y2="20">
			<stop  offset="0" style="stop-color:#000000;stop-opacity:0"/>
			<stop  offset="1" style="stop-color:#000000;stop-opacity:0.3"/>
		</linearGradient>
		<path style="fill:url(#SVGID_00000159451003010907467900000005025617359627461259_);" d="M25,18c0-1.1,0.9-2,2-2h1
			c1.1,0,2,0.9,2,2l0,0c0,1.1-0.9,2-2,2h-1C25.9,20,25,19.1,25,18L25,18z"/>
	</g>
	<g>
		
			<linearGradient id="SVGID_00000099655595893294150470000011557316888252344987_" gradientUnits="userSpaceOnUse" x1="17.5" y1="20" x2="17.5" y2="24">
			<stop  offset="0" style="stop-color:#000000;stop-opacity:0"/>
			<stop  offset="1" style="stop-color:#000000;stop-opacity:0.3"/>
		</linearGradient>
		<path style="fill:url(#SVGID_00000099655595893294150470000011557316888252344987_);" d="M15,22c0-1.1,0.9-2,2-2h1
			c1.1,0,2,0.9,2,2l0,0c0,1.1-0.9,2-2,2h-1C15.9,24,15,23.1,15,22L15,22z"/>
	</g>
	<g>
		
			<linearGradient id="SVGID_00000075850366063270133090000013315056019867298495_" gradientUnits="userSpaceOnUse" x1="22.5" y1="20" x2="22.5" y2="24">
			<stop  offset="0" style="stop-color:#000000;stop-opacity:0"/>
			<stop  offset="1" style="stop-color:#000000;stop-opacity:0.3"/>
		</linearGradient>
		<path style="fill:url(#SVGID_00000075850366063270133090000013315056019867298495_);" d="M20,22c0-1.1,0.9-2,2-2h1
			c1.1,0,2,0.9,2,2l0,0c0,1.1-0.9,2-2,2h-1C20.9,24,20,23.1,20,22L20,22z"/>
	</g>
	<g>
		
			<linearGradient id="SVGID_00000039840052616140235590000004667731444713834628_" gradientUnits="userSpaceOnUse" x1="27.5" y1="20" x2="27.5" y2="24">
			<stop  offset="0" style="stop-color:#000000;stop-opacity:0"/>
			<stop  offset="1" style="stop-color:#000000;stop-opacity:0.3"/>
		</linearGradient>
		<path style="fill:url(#SVGID_00000039840052616140235590000004667731444713834628_);" d="M25,22c0-1.1,0.9-2,2-2h1
			c1.1,0,2,0.9,2,2l0,0c0,1.1-0.9,2-2,2h-1C25.9,24,25,23.1,25,22L25,22z"/>
	</g>
	<g>
		
			<linearGradient id="SVGID_00000159453086675459610750000005460400885159941292_" gradientUnits="userSpaceOnUse" x1="12.5" y1="24" x2="12.5" y2="28">
			<stop  offset="0" style="stop-color:#000000;stop-opacity:0"/>
			<stop  offset="1" style="stop-color:#000000;stop-opacity:0.3"/>
		</linearGradient>
		<path style="fill:url(#SVGID_00000159453086675459610750000005460400885159941292_);" d="M10,26c0-1.1,0.9-2,2-2h1
			c1.1,0,2,0.9,2,2l0,0c0,1.1-0.9,2-2,2h-1C10.9,28,10,27.1,10,26L10,26z"/>
	</g>
	<g>
		
			<linearGradient id="SVGID_00000176000875346862177480000004438038770773555119_" gradientUnits="userSpaceOnUse" x1="32.5" y1="24" x2="32.5" y2="28">
			<stop  offset="0" style="stop-color:#000000;stop-opacity:0"/>
			<stop  offset="1" style="stop-color:#000000;stop-opacity:0.3"/>
		</linearGradient>
		<path style="fill:url(#SVGID_00000176000875346862177480000004438038770773555119_);" d="M30,26c0-1.1,0.9-2,2-2h1
			c1.1,0,2,0.9,2,2l0,0c0,1.1-0.9,2-2,2h-1C30.9,28,30,27.1,30,26L30,26z"/>
	</g>
	<g>
		
			<linearGradient id="SVGID_00000081619311633737575100000003549025312381134476_" gradientUnits="userSpaceOnUse" x1="7.5" y1="28" x2="7.5" y2="32">
			<stop  offset="0" style="stop-color:#000000;stop-opacity:0"/>
			<stop  offset="1" style="stop-color:#000000;stop-opacity:0.3"/>
		</linearGradient>
		<path style="fill:url(#SVGID_00000081619311633737575100000003549025312381134476_);" d="M5,30c0-1.1,0.9-2,2-2h1c1.1,0,2,0.9,2,2
			l0,0c0,1.1-0.9,2-2,2H7C5.9,32,5,31.1,5,30L5,30z"/>
	</g>
	<g>
		
			<linearGradient id="SVGID_00000150085596745387861710000001879493218422741940_" gradientUnits="userSpaceOnUse" x1="37.5" y1="28" x2="37.5" y2="32">
			<stop  offset="0" style="stop-color:#000000;stop-opacity:0"/>
			<stop  offset="1" style="stop-color:#000000;stop-opacity:0.3"/>
		</linearGradient>
		<path style="fill:url(#SVGID_00000150085596745387861710000001879493218422741940_);" d="M35,30c0-1.1,0.9-2,2-2h1
			c1.1,0,2,0.9,2,2l0,0c0,1.1-0.9,2-2,2h-1C35.9,32,35,31.1,35,30L35,30z"/>
	</g>
</g>
<g>
	<g>
		
			<linearGradient id="SVGID_00000025412754220230062020000011703567085072447652_" gradientUnits="userSpaceOnUse" x1="9.094947e-13" y1="2" x2="5" y2="2">
			<stop  offset="0" style="stop-color:#000000;stop-opacity:0.3"/>
			<stop  offset="0.5" style="stop-color:#000000;stop-opacity:0"/>
			<stop  offset="1" style="stop-color:#000000;stop-opacity:0.3"/>
		</linearGradient>
		<path style="fill:url(#SVGID_00000025412754220230062020000011703567085072447652_);" d="M0,2c0-1.1,0.9-2,2-2h1c1.1,0,2,0.9,2,2
			l0,0c0,1.1-0.9,2-2,2H2C0.9,4,0,3.1,0,2L0,2z"/>
	</g>
	<g>
		
			<linearGradient id="SVGID_00000166655668190358566920000000785936762741347461_" gradientUnits="userSpaceOnUse" x1="5" y1="6" x2="10" y2="6">
			<stop  offset="0" style="stop-color:#000000;stop-opacity:0.3"/>
			<stop  offset="0.5" style="stop-color:#000000;stop-opacity:0"/>
			<stop  offset="1" style="stop-color:#000000;stop-opacity:0.3"/>
		</linearGradient>
		<path style="fill:url(#SVGID_00000166655668190358566920000000785936762741347461_);" d="M5,6c0-1.1,0.9-2,2-2h1c1.1,0,2,0.9,2,2
			l0,0c0,1.1-0.9,2-2,2H7C5.9,8,5,7.1,5,6L5,6z"/>
	</g>
	<g>
		
			<linearGradient id="SVGID_00000070083135982230497270000017781797067598714556_" gradientUnits="userSpaceOnUse" x1="35" y1="6" x2="40" y2="6">
			<stop  offset="0" style="stop-color:#000000;stop-opacity:0.3"/>
			<stop  offset="0.5" style="stop-color:#000000;stop-opacity:0"/>
			<stop  offset="1" style="stop-color:#000000;stop-opacity:0.3"/>
		</linearGradient>
		<path style="fill:url(#SVGID_00000070083135982230497270000017781797067598714556_);" d="M35,6c0-1.1,0.9-2,2-2h1c1.1,0,2,0.9,2,2
			l0,0c0,1.1-0.9,2-2,2h-1C35.9,8,35,7.1,35,6L35,6z"/>
	</g>
	<g>
		
			<linearGradient id="SVGID_00000176746206544123105500000000379845776107804590_" gradientUnits="userSpaceOnUse" x1="10" y1="10" x2="15" y2="10">
			<stop  offset="0" style="stop-color:#000000;stop-opacity:0.3"/>
			<stop  offset="0.5" style="stop-color:#000000;stop-opacity:0"/>
			<stop  offset="1" style="stop-color:#000000;stop-opacity:0.3"/>
		</linearGradient>
		<path style="fill:url(#SVGID_00000176746206544123105500000000379845776107804590_);" d="M10,10c0-1.1,0.9-2,2-2h1
			c1.1,0,2,0.9,2,2l0,0c0,1.1-0.9,2-2,2h-1C10.9,12,10,11.1,10,10L10,10z"/>
	</g>
	<g>
		
			<linearGradient id="SVGID_00000036245627034854767440000015969383784493647747_" gradientUnits="userSpaceOnUse" x1="30" y1="10" x2="35" y2="10">
			<stop  offset="0" style="stop-color:#000000;stop-opacity:0.3"/>
			<stop  offset="0.5" style="stop-color:#000000;stop-opacity:0"/>
			<stop  offset="1" style="stop-color:#000000;stop-opacity:0.3"/>
		</linearGradient>
		<path style="fill:url(#SVGID_00000036245627034854767440000015969383784493647747_);" d="M30,10c0-1.1,0.9-2,2-2h1
			c1.1,0,2,0.9,2,2l0,0c0,1.1-0.9,2-2,2h-1C30.9,12,30,11.1,30,10L30,10z"/>
	</g>
	<g>
		
			<linearGradient id="SVGID_00000124161734197417594850000008431757858060336017_" gradientUnits="userSpaceOnUse" x1="15" y1="14" x2="20" y2="14">
			<stop  offset="0" style="stop-color:#000000;stop-opacity:0.3"/>
			<stop  offset="0.5" style="stop-color:#000000;stop-opacity:0"/>
			<stop  offset="1" style="stop-color:#000000;stop-opacity:0.3"/>
		</linearGradient>
		<path style="fill:url(#SVGID_00000124161734197417594850000008431757858060336017_);" d="M15,14c0-1.1,0.9-2,2-2h1
			c1.1,0,2,0.9,2,2l0,0c0,1.1-0.9,2-2,2h-1C15.9,16,15,15.1,15,14L15,14z"/>
	</g>
	<g>
		
			<linearGradient id="SVGID_00000134210828731198785540000006309784762647143837_" gradientUnits="userSpaceOnUse" x1="20" y1="14" x2="25" y2="14">
			<stop  offset="0" style="stop-color:#000000;stop-opacity:0.3"/>
			<stop  offset="0.5" style="stop-color:#000000;stop-opacity:0"/>
			<stop  offset="1" style="stop-color:#000000;stop-opacity:0.3"/>
		</linearGradient>
		<path style="fill:url(#SVGID_00000134210828731198785540000006309784762647143837_);" d="M20,14c0-1.1,0.9-2,2-2h1
			c1.1,0,2,0.9,2,2l0,0c0,1.1-0.9,2-2,2h-1C20.9,16,20,15.1,20,14L20,14z"/>
	</g>
	<g>
		
			<linearGradient id="SVGID_00000072238642828387545770000015674637467390096556_" gradientUnits="userSpaceOnUse" x1="25" y1="14" x2="30" y2="14">
			<stop  offset="0" style="stop-color:#000000;stop-opacity:0.3"/>
			<stop  offset="0.5" style="stop-color:#000000;stop-opacity:0"/>
			<stop  offset="1" style="stop-color:#000000;stop-opacity:0.3"/>
		</linearGradient>
		<path style="fill:url(#SVGID_00000072238642828387545770000015674637467390096556_);" d="M25,14c0-1.1,0.9-2,2-2h1
			c1.1,0,2,0.9,2,2l0,0c0,1.1-0.9,2-2,2h-1C25.9,16,25,15.1,25,14L25,14z"/>
	</g>
	<g>
		
			<linearGradient id="SVGID_00000056406088827786612760000004356029413778871947_" gradientUnits="userSpaceOnUse" x1="15" y1="18" x2="20" y2="18">
			<stop  offset="0" style="stop-color:#000000;stop-opacity:0.3"/>
			<stop  offset="0.5" style="stop-color:#000000;stop-opacity:0"/>
			<stop  offset="1" style="stop-color:#000000;stop-opacity:0.3"/>
		</linearGradient>
		<path style="fill:url(#SVGID_00000056406088827786612760000004356029413778871947_);" d="M15,18c0-1.1,0.9-2,2-2h1
			c1.1,0,2,0.9,2,2l0,0c0,1.1-0.9,2-2,2h-1C15.9,20,15,19.1,15,18L15,18z"/>
	</g>
	<g>
		
			<linearGradient id="SVGID_00000115477526286960165110000011246778857995557767_" gradientUnits="userSpaceOnUse" x1="20" y1="18" x2="25" y2="18">
			<stop  offset="0" style="stop-color:#000000;stop-opacity:0.3"/>
			<stop  offset="0.5" style="stop-color:#000000;stop-opacity:0"/>
			<stop  offset="1" style="stop-color:#000000;stop-opacity:0.3"/>
		</linearGradient>
		<path style="fill:url(#SVGID_00000115477526286960165110000011246778857995557767_);" d="M20,18c0-1.1,0.9-2,2-2h1
			c1.1,0,2,0.9,2,2l0,0c0,1.1-0.9,2-2,2h-1C20.9,20,20,19.1,20,18L20,18z"/>
	</g>
	<g>
		
			<linearGradient id="SVGID_00000047054497233117304670000012931078506231937172_" gradientUnits="userSpaceOnUse" x1="25" y1="18" x2="30" y2="18">
			<stop  offset="0" style="stop-color:#000000;stop-opacity:0.3"/>
			<stop  offset="0.5" style="stop-color:#000000;stop-opacity:0"/>
			<stop  offset="1" style="stop-color:#000000;stop-opacity:0.3"/>
		</linearGradient>
		<path style="fill:url(#SVGID_00000047054497233117304670000012931078506231937172_);" d="M25,18c0-1.1,0.9-2,2-2h1
			c1.1,0,2,0.9,2,2l0,0c0,1.1-0.9,2-2,2h-1C25.9,20,25,19.1,25,18L25,18z"/>
	</g>
	<g>
		
			<linearGradient id="SVGID_00000122720661878345896680000010412811459160296886_" gradientUnits="userSpaceOnUse" x1="15" y1="22" x2="20" y2="22">
			<stop  offset="0" style="stop-color:#000000;stop-opacity:0.3"/>
			<stop  offset="0.5" style="stop-color:#000000;stop-opacity:0"/>
			<stop  offset="1" style="stop-color:#000000;stop-opacity:0.3"/>
		</linearGradient>
		<path style="fill:url(#SVGID_00000122720661878345896680000010412811459160296886_);" d="M15,22c0-1.1,0.9-2,2-2h1
			c1.1,0,2,0.9,2,2l0,0c0,1.1-0.9,2-2,2h-1C15.9,24,15,23.1,15,22L15,22z"/>
	</g>
	<g>
		
			<linearGradient id="SVGID_00000134232596540834862220000013274955409185289857_" gradientUnits="userSpaceOnUse" x1="20" y1="22" x2="25" y2="22">
			<stop  offset="0" style="stop-color:#000000;stop-opacity:0.3"/>
			<stop  offset="0.5" style="stop-color:#000000;stop-opacity:0"/>
			<stop  offset="1" style="stop-color:#000000;stop-opacity:0.3"/>
		</linearGradient>
		<path style="fill:url(#SVGID_00000134232596540834862220000013274955409185289857_);" d="M20,22c0-1.1,0.9-2,2-2h1
			c1.1,0,2,0.9,2,2l0,0c0,1.1-0.9,2-2,2h-1C20.9,24,20,23.1,20,22L20,22z"/>
	</g>
	<g>
		
			<linearGradient id="SVGID_00000165207544179571743610000016443096142539447734_" gradientUnits="userSpaceOnUse" x1="25" y1="22" x2="30" y2="22">
			<stop  offset="0" style="stop-color:#000000;stop-opacity:0.3"/>
			<stop  offset="0.5" style="stop-color:#000000;stop-opacity:0"/>
			<stop  offset="1" style="stop-color:#000000;stop-opacity:0.3"/>
		</linearGradient>
		<path style="fill:url(#SVGID_00000165207544179571743610000016443096142539447734_);" d="M25,22c0-1.1,0.9-2,2-2h1
			c1.1,0,2,0.9,2,2l0,0c0,1.1-0.9,2-2,2h-1C25.9,24,25,23.1,25,22L25,22z"/>
	</g>
	<g>
		
			<linearGradient id="SVGID_00000031920636745128638400000016815928033835748786_" gradientUnits="userSpaceOnUse" x1="10" y1="26" x2="15" y2="26">
			<stop  offset="0" style="stop-color:#000000;stop-opacity:0.3"/>
			<stop  offset="0.5" style="stop-color:#000000;stop-opacity:0"/>
			<stop  offset="1" style="stop-color:#000000;stop-opacity:0.3"/>
		</linearGradient>
		<path style="fill:url(#SVGID_00000031920636745128638400000016815928033835748786_);" d="M10,26c0-1.1,0.9-2,2-2h1
			c1.1,0,2,0.9,2,2l0,0c0,1.1-0.9,2-2,2h-1C10.9,28,10,27.1,10,26L10,26z"/>
	</g>
	<g>
		
			<linearGradient id="SVGID_00000143580027614411998420000015289208451464522156_" gradientUnits="userSpaceOnUse" x1="30" y1="26" x2="35" y2="26">
			<stop  offset="0" style="stop-color:#000000;stop-opacity:0.3"/>
			<stop  offset="0.5" style="stop-color:#000000;stop-opacity:0"/>
			<stop  offset="1" style="stop-color:#000000;stop-opacity:0.3"/>
		</linearGradient>
		<path style="fill:url(#SVGID_00000143580027614411998420000015289208451464522156_);" d="M30,26c0-1.1,0.9-2,2-2h1
			c1.1,0,2,0.9,2,2l0,0c0,1.1-0.9,2-2,2h-1C30.9,28,30,27.1,30,26L30,26z"/>
	</g>
	<g>
		
			<linearGradient id="SVGID_00000003820115888699877310000000098074860275861179_" gradientUnits="userSpaceOnUse" x1="5" y1="30" x2="10" y2="30">
			<stop  offset="0" style="stop-color:#000000;stop-opacity:0.3"/>
			<stop  offset="0.5" style="stop-color:#000000;stop-opacity:0"/>
			<stop  offset="1" style="stop-color:#000000;stop-opacity:0.3"/>
		</linearGradient>
		<path style="fill:url(#SVGID_00000003820115888699877310000000098074860275861179_);" d="M5,30c0-1.1,0.9-2,2-2h1c1.1,0,2,0.9,2,2
			l0,0c0,1.1-0.9,2-2,2H7C5.9,32,5,31.1,5,30L5,30z"/>
	</g>
	<g>
		
			<linearGradient id="SVGID_00000036971177275966542000000001828362791741959593_" gradientUnits="userSpaceOnUse" x1="35" y1="30" x2="40" y2="30">
			<stop  offset="0" style="stop-color:#000000;stop-opacity:0.3"/>
			<stop  offset="0.5" style="stop-color:#000000;stop-opacity:0"/>
			<stop  offset="1" style="stop-color:#000000;stop-opacity:0.3"/>
		</linearGradient>
		<path style="fill:url(#SVGID_00000036971177275966542000000001828362791741959593_);" d="M35,30c0-1.1,0.9-2,2-2h1
			c1.1,0,2,0.9,2,2l0,0c0,1.1-0.9,2-2,2h-1C35.9,32,35,31.1,35,30L35,30z"/>
	</g>
</g>
<g class="st39">
	<rect x="5" class="st40" width="5" height="5"/>
	<rect x="10" class="st40" width="5" height="5"/>
	<rect x="15" class="st40" width="5" height="5"/>
	<rect x="20" class="st40" width="5" height="5"/>
	<rect x="25" class="st40" width="5" height="5"/>
	<rect x="30" class="st40" width="5" height="5"/>
	<rect x="35" class="st40" width="5" height="5"/>
	<rect x="45" class="st40" width="5" height="5"/>
	<rect x="50" class="st40" width="5" height="5"/>
	<rect x="55" class="st40" width="5" height="5"/>
	<rect x="60" class="st40" width="5" height="5"/>
	<rect x="65" class="st40" width="5" height="5"/>
	<rect x="70" class="st40" width="5" height="5"/>
	<rect x="75" class="st40" width="5" height="5"/>
	<rect x="80" class="st40" width="5" height="5"/>
	<rect x="85" class="st40" width="5" height="5"/>
	<rect x="90" class="st40" width="5" height="5"/>
	<rect x="95" class="st40" width="5" height="5"/>
	<rect x="0" y="5" class="st40" width="5" height="5"/>
	<rect x="10" y="5" class="st40" width="5" height="5"/>
	<rect x="15" y="5" class="st40" width="5" height="5"/>
	<rect x="20" y="5" class="st40" width="5" height="5"/>
	<rect x="25" y="5" class="st40" width="5" height="5"/>
	<rect x="30" y="5" class="st40" width="5" height="5"/>
	<rect x="40" y="5" class="st40" width="5" height="5"/>
	<rect x="45" y="5" class="st40" width="5" height="5"/>
	<rect x="50" y="5" class="st40" width="5" height="5"/>
	<rect x="55" y="5" class="st40" width="5" height="5"/>
	<rect x="60" y="5" class="st40" width="5" height="5"/>
	<rect x="65" y="5" class="st40" width="5" height="5"/>
	<rect x="70" y="5" class="st40" width="5" height="5"/>
	<rect x="75" y="5" class="st40" width="5" height="5"/>
	<rect x="80" y="5" class="st40" width="5" height="5"/>
	<rect x="85" y="5" class="st40" width="5" height="5"/>
	<rect x="90" y="5" class="st40" width="5" height="5"/>
	<rect x="95" y="5" class="st40" width="5" height="5"/>
	<rect x="0" y="10" class="st40" width="5" height="5"/>
	<rect x="5" y="10" class="st40" width="5" height="5"/>
	<rect x="15" y="10" class="st40" width="5" height="5"/>
	<rect x="20" y="10" class="st40" width="5" height="5"/>
	<rect x="25" y="10" class="st40" width="5" height="5"/>
	<rect x="35" y="10" class="st40" width="5" height="5"/>
	<rect x="40" y="10" class="st40" width="5" height="5"/>
	<rect x="45" y="10" class="st40" width="5" height="5"/>
	<rect x="50" y="10" class="st40" width="5" height="5"/>
	<rect x="55" y="10" class="st40" width="5" height="5"/>
	<rect x="60" y="10" class="st40" width="5" height="5"/>
	<rect x="65" y="10" class="st40" width="5" height="5"/>
	<rect x="70" y="10" class="st40" width="5" height="5"/>
	<rect x="75" y="10" class="st40" width="5" height="5"/>
	<rect x="80" y="10" class="st40" width="5" height="5"/>
	<rect x="85" y="10" class="st40" width="5" height="5"/>
	<rect x="90" y="10" class="st40" width="5" height="5"/>
	<rect x="95" y="10" class="st40" width="5" height="5"/>
	<rect x="0" y="15" class="st40" width="5" height="5"/>
	<rect x="5" y="15" class="st40" width="5" height="5"/>
	<rect x="10" y="15" class="st40" width="5" height="5"/>
	<rect x="30" y="15" class="st40" width="5" height="5"/>
	<rect x="35" y="15" class="st40" width="5" height="5"/>
	<rect x="40" y="15" class="st40" width="5" height="5"/>
	<rect x="45" y="15" class="st40" width="5" height="5"/>
	<rect x="50" y="15" class="st40" width="5" height="5"/>
	<rect x="55" y="15" class="st40" width="5" height="5"/>
	<rect x="60" y="15" class="st40" width="5" height="5"/>
	<rect x="65" y="15" class="st40" width="5" height="5"/>
	<rect x="70" y="15" class="st40" width="5" height="5"/>
	<rect x="75" y="15" class="st40" width="5" height="5"/>
	<rect x="80" y="15" class="st40" width="5" height="5"/>
	<rect x="85" y="15" class="st40" width="5" height="5"/>
	<rect x="90" y="15" class="st40" width="5" height="5"/>
	<rect x="95" y="15" class="st40" width="5" height="5"/>
	<rect x="0" y="20" class="st40" width="5" height="5"/>
	<rect x="5" y="20" class="st40" width="5" height="5"/>
	<rect x="10" y="20" class="st40" width="5" height="5"/>
	<rect x="30" y="20" class="st40" width="5" height="5"/>
	<rect x="35" y="20" class="st40" width="5" height="5"/>
	<rect x="40" y="20" class="st40" width="5" height="5"/>
	<rect x="45" y="20" class="st40" width="5" height="5"/>
	<rect x="50" y="20" class="st40" width="5" height="5"/>
	<rect x="55" y="20" class="st40" width="5" height="5"/>
	<rect x="60" y="20" class="st40" width="5" height="5"/>
	<rect x="65" y="20" class="st40" width="5" height="5"/>
	<rect x="70" y="20" class="st40" width="5" height="5"/>
	<rect x="75" y="20" class="st40" width="5" height="5"/>
	<rect x="80" y="20" class="st40" width="5" height="5"/>
	<rect x="85" y="20" class="st40" width="5" height="5"/>
	<rect x="90" y="20" class="st40" width="5" height="5"/>
	<rect x="95" y="20" class="st40" width="5" height="5"/>
	<rect x="0" y="25" class="st40" width="5" height="5"/>
	<rect x="5" y="25" class="st40" width="5" height="5"/>
	<rect x="10" y="25" class="st40" width="5" height="5"/>
	<rect x="30" y="25" class="st40" width="5" height="5"/>
	<rect x="35" y="25" class="st40" width="5" height="5"/>
	<rect x="40" y="25" class="st40" width="5" height="5"/>
	<rect x="45" y="25" class="st40" width="5" height="5"/>
	<rect x="50" y="25" class="st40" width="5" height="5"/>
	<rect x="55" y="25" class="st40" width="5" height="5"/>
	<rect x="60" y="25" class="st40" width="5" height="5"/>
	<rect x="65" y="25" class="st40" width="5" height="5"/>
	<rect x="70" y="25" class="st40" width="5" height="5"/>
	<rect x="75" y="25" class="st40" width="5" height="5"/>
	<rect x="80" y="25" class="st40" width="5" height="5"/>
	<rect x="85" y="25" class="st40" width="5" height="5"/>
	<rect x="90" y="25" class="st40" width="5" height="5"/>
	<rect x="95" y="25" class="st40" width="5" height="5"/>
	<rect x="0" y="30" class="st40" width="5" height="5"/>
	<rect x="5" y="30" class="st40" width="5" height="5"/>
	<rect x="15" y="30" class="st40" width="5" height="5"/>
	<rect x="20" y="30" class="st40" width="5" height="5"/>
	<rect x="25" y="30" class="st40" width="5" height="5"/>
	<rect x="35" y="30" class="st40" width="5" height="5"/>
	<rect x="40" y="30" class="st40" width="5" height="5"/>
	<rect x="45" y="30" class="st40" width="5" height="5"/>
	<rect x="50" y="30" class="st40" width="5" height="5"/>
	<rect x="55" y="30" class="st40" width="5" height="5"/>
	<rect x="60" y="30" class="st40" width="5" height="5"/>
	<rect x="65" y="30" class="st40" width="5" height="5"/>
	<rect x="70" y="30" class="st40" width="5" height="5"/>
	<rect x="75" y="30" class="st40" width="5" height="5"/>
	<rect x="80" y="30" class="st40" width="5" height="5"/>
	<rect x="85" y="30" class="st40" width="5" height="5"/>
	<rect x="90" y="30" class="st40" width="5" height="5"/>
	<rect x="95" y="30" class="st40" width="5" height="5"/>
	<rect x="0" y="35" class="st40" width="5" height="5"/>
	<rect x="10" y="35" class="st40" width="5" height="5"/>
	<rect x="15" y="35" class="st40" width="5" height="5"/>
	<rect x="20" y="35" class="st40" width="5" height="5"/>
	<rect x="25" y="35" class="st40" width="5" height="5"/>
	<rect x="30" y="35" class="st40" width="5" height="5"/>
	<rect x="40" y="35" class="st40" width="5" height="5"/>
	<rect x="45" y="35" class="st40" width="5" height="5"/>
	<rect x="50" y="35" class="st40" width="5" height="5"/>
	<rect x="55" y="35" class="st40" width="5" height="5"/>
	<rect x="60" y="35" class="st40" width="5" height="5"/>
	<rect x="65" y="35" class="st40" width="5" height="5"/>
	<rect x="70" y="35" class="st40" width="5" height="5"/>
	<rect x="75" y="35" class="st40" width="5" height="5"/>
	<rect x="80" y="35" class="st40" width="5" height="5"/>
	<rect x="85" y="35" class="st40" width="5" height="5"/>
	<rect x="90" y="35" class="st40" width="5" height="5"/>
	<rect x="95" y="35" class="st40" width="5" height="5"/>
	<rect x="5" y="40" class="st40" width="5" height="5"/>
	<rect x="10" y="40" class="st40" width="5" height="5"/>
	<rect x="15" y="40" class="st40" width="5" height="5"/>
	<rect x="20" y="40" class="st40" width="5" height="5"/>
	<rect x="25" y="40" class="st40" width="5" height="5"/>
	<rect x="30" y="40" class="st40" width="5" height="5"/>
	<rect x="35" y="40" class="st40" width="5" height="5"/>
	<rect x="45" y="40" class="st40" width="5" height="5"/>
	<rect x="50" y="40" class="st40" width="5" height="5"/>
	<rect x="55" y="40" class="st40" width="5" height="5"/>
	<rect x="60" y="40" class="st40" width="5" height="5"/>
	<rect x="65" y="40" class="st40" width="5" height="5"/>
	<rect x="70" y="40" class="st40" width="5" height="5"/>
	<rect x="75" y="40" class="st40" width="5" height="5"/>
	<rect x="80" y="40" class="st40" width="5" height="5"/>
	<rect x="85" y="40" class="st40" width="5" height="5"/>
	<rect x="90" y="40" class="st40" width="5" height="5"/>
	<rect x="95" y="40" class="st40" width="5" height="5"/>
	<rect x="0" y="45" class="st40" width="5" height="5"/>
	<rect x="5" y="45" class="st40" width="5" height="5"/>
	<rect x="10" y="45" class="st40" width="5" height="5"/>
	<rect x="15" y="45" class="st40" width="5" height="5"/>
	<rect x="20" y="45" class="st40" width="5" height="5"/>
	<rect x="25" y="45" class="st40" width="5" height="5"/>
	<rect x="30" y="45" class="st40" width="5" height="5"/>
	<rect x="35" y="45" class="st40" width="5" height="5"/>
	<rect x="40" y="45" class="st40" width="5" height="5"/>
	<rect x="45" y="45" class="st40" width="5" height="5"/>
	<rect x="50" y="45" class="st40" width="5" height="5"/>
	<rect x="55" y="45" class="st40" width="5" height="5"/>
	<rect x="60" y="45" class="st40" width="5" height="5"/>
	<rect x="65" y="45" class="st40" width="5" height="5"/>
	<rect x="70" y="45" class="st40" width="5" height="5"/>
	<rect x="75" y="45" class="st40" width="5" height="5"/>
	<rect x="80" y="45" class="st40" width="5" height="5"/>
	<rect x="85" y="45" class="st40" width="5" height="5"/>
	<rect x="90" y="45" class="st40" width="5" height="5"/>
	<rect x="95" y="45" class="st40" width="5" height="5"/>
	<rect x="0" y="50" class="st40" width="5" height="5"/>
	<rect x="5" y="50" class="st40" width="5" height="5"/>
	<rect x="10" y="50" class="st40" width="5" height="5"/>
	<rect x="15" y="50" class="st40" width="5" height="5"/>
	<rect x="20" y="50" class="st40" width="5" height="5"/>
	<rect x="25" y="50" class="st40" width="5" height="5"/>
	<rect x="30" y="50" class="st40" width="5" height="5"/>
	<rect x="35" y="50" class="st40" width="5" height="5"/>
	<rect x="40" y="50" class="st40" width="5" height="5"/>
	<rect x="45" y="50" class="st40" width="5" height="5"/>
	<rect x="50" y="50" class="st40" width="5" height="5"/>
	<rect x="55" y="50" class="st40" width="5" height="5"/>
	<rect x="60" y="50" class="st40" width="5" height="5"/>
	<rect x="65" y="50" class="st40" width="5" height="5"/>
	<rect x="70" y="50" class="st40" width="5" height="5"/>
	<rect x="75" y="50" class="st40" width="5" height="5"/>
	<rect x="80" y="50" class="st40" width="5" height="5"/>
	<rect x="85" y="50" class="st40" width="5" height="5"/>
	<rect x="90" y="50" class="st40" width="5" height="5"/>
	<rect x="95" y="50" class="st40" width="5" height="5"/>
	<rect x="0" y="55" class="st40" width="5" height="5"/>
	<rect x="5" y="55" class="st40" width="5" height="5"/>
	<rect x="10" y="55" class="st40" width="5" height="5"/>
	<rect x="15" y="55" class="st40" width="5" height="5"/>
	<rect x="20" y="55" class="st40" width="5" height="5"/>
	<rect x="25" y="55" class="st40" width="5" height="5"/>
	<rect x="30" y="55" class="st40" width="5" height="5"/>
	<rect x="35" y="55" class="st40" width="5" height="5"/>
	<rect x="40" y="55" class="st40" width="5" height="5"/>
	<rect x="45" y="55" class="st40" width="5" height="5"/>
	<rect x="50" y="55" class="st40" width="5" height="5"/>
	<rect x="55" y="55" class="st40" width="5" height="5"/>
	<rect x="60" y="55" class="st40" width="5" height="5"/>
	<rect x="65" y="55" class="st40" width="5" height="5"/>
	<rect x="70" y="55" class="st40" width="5" height="5"/>
	<rect x="75" y="55" class="st40" width="5" height="5"/>
	<rect x="80" y="55" class="st40" width="5" height="5"/>
	<rect x="85" y="55" class="st40" width="5" height="5"/>
	<rect x="90" y="55" class="st40" width="5" height="5"/>
	<rect x="95" y="55" class="st40" width="5" height="5"/>
	<rect x="0" y="60" class="st40" width="5" height="5"/>
	<rect x="5" y="60" class="st40" width="5" height="5"/>
	<rect x="10" y="60" class="st40" width="5" height="5"/>
	<rect x="15" y="60" class="st40" width="5" height="5"/>
	<rect x="20" y="60" class="st40" width="5" height="5"/>
	<rect x="25" y="60" class="st40" width="5" height="5"/>
	<rect x="30" y="60" class="st40" width="5" height="5"/>
	<rect x="35" y="60" class="st40" width="5" height="5"/>
	<rect x="40" y="60" class="st40" width="5" height="5"/>
	<rect x="45" y="60" class="st40" width="5" height="5"/>
	<rect x="50" y="60" class="st40" width="5" height="5"/>
	<rect x="55" y="60" class="st40" width="5" height="5"/>
	<rect x="60" y="60" class="st40" width="5" height="5"/>
	<rect x="65" y="60" class="st40" width="5" height="5"/>
	<rect x="70" y="60" class="st40" width="5" height="5"/>
	<rect x="75" y="60" class="st40" width="5" height="5"/>
	<rect x="80" y="60" class="st40" width="5" height="5"/>
	<rect x="85" y="60" class="st40" width="5" height="5"/>
	<rect x="90" y="60" class="st40" width="5" height="5"/>
	<rect x="95" y="60" class="st40" width="5" height="5"/>
	<rect x="0" y="65" class="st40" width="5" height="5"/>
	<rect x="5" y="65" class="st40" width="5" height="5"/>
	<rect x="10" y="65" class="st40" width="5" height="5"/>
	<rect x="15" y="65" class="st40" width="5" height="5"/>
	<rect x="20" y="65" class="st40" width="5" height="5"/>
	<rect x="25" y="65" class="st40" width="5" height="5"/>
	<rect x="30" y="65" class="st40" width="5" height="5"/>
	<rect x="35" y="65" class="st40" width="5" height="5"/>
	<rect x="40" y="65" class="st40" width="5" height="5"/>
	<rect x="45" y="65" class="st40" width="5" height="5"/>
	<rect x="50" y="65" class="st40" width="5" height="5"/>
	<rect x="55" y="65" class="st40" width="5" height="5"/>
	<rect x="60" y="65" class="st40" width="5" height="5"/>
	<rect x="65" y="65" class="st40" width="5" height="5"/>
	<rect x="70" y="65" class="st40" width="5" height="5"/>
	<rect x="75" y="65" class="st40" width="5" height="5"/>
	<rect x="80" y="65" class="st40" width="5" height="5"/>
	<rect x="85" y="65" class="st40" width="5" height="5"/>
	<rect x="90" y="65" class="st40" width="5" height="5"/>
	<rect x="95" y="65" class="st40" width="5" height="5"/>
	<rect x="0" y="70" class="st40" width="5" height="5"/>
	<rect x="5" y="70" class="st40" width="5" height="5"/>
	<rect x="10" y="70" class="st40" width="5" height="5"/>
	<rect x="15" y="70" class="st40" width="5" height="5"/>
	<rect x="20" y="70" class="st40" width="5" height="5"/>
	<rect x="25" y="70" class="st40" width="5" height="5"/>
	<rect x="30" y="70" class="st40" width="5" height="5"/>
	<rect x="35" y="70" class="st40" width="5" height="5"/>
	<rect x="40" y="70" class="st40" width="5" height="5"/>
	<rect x="45" y="70" class="st40" width="5" height="5"/>
	<rect x="50" y="70" class="st40" width="5" height="5"/>
	<rect x="55" y="70" class="st40" width="5" height="5"/>
	<rect x="60" y="70" class="st40" width="5" height="5"/>
	<rect x="65" y="70" class="st40" width="5" height="5"/>
	<rect x="70" y="70" class="st40" width="5" height="5"/>
	<rect x="75" y="70" class="st40" width="5" height="5"/>
	<rect x="80" y="70" class="st40" width="5" height="5"/>
	<rect x="85" y="70" class="st40" width="5" height="5"/>
	<rect x="90" y="70" class="st40" width="5" height="5"/>
	<rect x="95" y="70" class="st40" width="5" height="5"/>
	<rect x="0" y="75" class="st40" width="5" height="5"/>
	<rect x="5" y="75" class="st40" width="5" height="5"/>
	<rect x="10" y="75" class="st40" width="5" height="5"/>
	<rect x="15" y="75" class="st40" width="5" height="5"/>
	<rect x="20" y="75" class="st40" width="5" height="5"/>
	<rect x="25" y="75" class="st40" width="5" height="5"/>
	<rect x="30" y="75" class="st40" width="5" height="5"/>
	<rect x="35" y="75" class="st40" width="5" height="5"/>
	<rect x="40" y="75" class="st40" width="5" height="5"/>
	<rect x="45" y="75" class="st40" width="5" height="5"/>
	<rect x="50" y="75" class="st40" width="5" height="5"/>
	<rect x="55" y="75" class="st40" width="5" height="5"/>
	<rect x="60" y="75" class="st40" width="5" height="5"/>
	<rect x="65" y="75" class="st40" width="5" height="5"/>
	<rect x="70" y="75" class="st40" width="5" height="5"/>
	<rect x="75" y="75" class="st40" width="5" height="5"/>
	<rect x="80" y="75" class="st40" width="5" height="5"/>
	<rect x="85" y="75" class="st40" width="5" height="5"/>
	<rect x="90" y="75" class="st40" width="5" height="5"/>
	<rect x="95" y="75" class="st40" width="5" height="5"/>
	<rect x="0" y="80" class="st40" width="5" height="5"/>
	<rect x="5" y="80" class="st40" width="5" height="5"/>
	<rect x="10" y="80" class="st40" width="5" height="5"/>
	<rect x="15" y="80" class="st40" width="5" height="5"/>
	<rect x="20" y="80" class="st40" width="5" height="5"/>
	<rect x="25" y="80" class="st40" width="5" height="5"/>
	<rect x="30" y="80" class="st40" width="5" height="5"/>
	<rect x="35" y="80" class="st40" width="5" height="5"/>
	<rect x="40" y="80" class="st40" width="5" height="5"/>
	<rect x="45" y="80" class="st40" width="5" height="5"/>
	<rect x="50" y="80" class="st40" width="5" height="5"/>
	<rect x="55" y="80" class="st40" width="5" height="5"/>
	<rect x="60" y="80" class="st40" width="5" height="5"/>
	<rect x="65" y="80" class="st40" width="5" height="5"/>
	<rect x="70" y="80" class="st40" width="5" height="5"/>
	<rect x="75" y="80" class="st40" width="5" height="5"/>
	<rect x="80" y="80" class="st40" width="5" height="5"/>
	<rect x="85" y="80" class="st40" width="5" height="5"/>
	<rect x="90" y="80" class="st40" width="5" height="5"/>
	<rect x="95" y="80" class="st40" width="5" height="5"/>
	<rect x="0" y="85" class="st40" width="5" height="5"/>
	<rect x="5" y="85" class="st40" width="5" height="5"/>
	<rect x="10" y="85" class="st40" width="5" height="5"/>
	<rect x="15" y="85" class="st40" width="5" height="5"/>
	<rect x="20" y="85" class="st40" width="5" height="5"/>
	<rect x="25" y="85" class="st40" width="5" height="5"/>
	<rect x="30" y="85" class="st40" width="5" height="5"/>
	<rect x="35" y="85" class="st40" width="5" height="5"/>
	<rect x="40" y="85" class="st40" width="5" height="5"/>
	<rect x="45" y="85" class="st40" width="5" height="5"/>
	<rect x="50" y="85" class="st40" width="5" height="5"/>
	<rect x="55" y="85" class="st40" width="5" height="5"/>
	<rect x="60" y="85" class="st40" width="5" height="5"/>
	<rect x="65" y="85" class="st40" width="5" height="5"/>
	<rect x="70" y="85" class="st40" width="5" height="5"/>
	<rect x="75" y="85" class="st40" width="5" height="5"/>
	<rect x="80" y="85" class="st40" width="5" height="5"/>
	<rect x="85" y="85" class="st40" width="5" height="5"/>
	<rect x="90" y="85" class="st40" width="5" height="5"/>
	<rect x="95" y="85" class="st40" width="5" height="5"/>
	<rect x="0" y="90" class="st40" width="5" height="5"/>
	<rect x="5" y="90" class="st40" width="5" height="5"/>
	<rect x="10" y="90" class="st40" width="5" height="5"/>
	<rect x="15" y="90" class="st40" width="5" height="5"/>
	<rect x="20" y="90" class="st40" width="5" height="5"/>
	<rect x="25" y="90" class="st40" width="5" height="5"/>
	<rect x="30" y="90" class="st40" width="5" height="5"/>
	<rect x="35" y="90" class="st40" width="5" height="5"/>
	<rect x="40" y="90" class="st40" width="5" height="5"/>
	<rect x="45" y="90" class="st40" width="5" height="5"/>
	<rect x="50" y="90" class="st40" width="5" height="5"/>
	<rect x="55" y="90" class="st40" width="5" height="5"/>
	<rect x="60" y="90" class="st40" width="5" height="5"/>
	<rect x="65" y="90" class="st40" width="5" height="5"/>
	<rect x="70" y="90" class="st40" width="5" height="5"/>
	<rect x="75" y="90" class="st40" width="5" height="5"/>
	<rect x="80" y="90" class="st40" width="5" height="5"/>
	<rect x="85" y="90" class="st40" width="5" height="5"/>
	<rect x="90" y="90" class="st40" width="5" height="5"/>
	<rect x="95" y="90" class="st40" width="5" height="5"/>
	<rect x="0" y="95" class="st40" width="5" height="5"/>
	<rect x="5" y="95" class="st40" width="5" height="5"/>
	<rect x="10" y="95" class="st40" width="5" height="5"/>
	<rect x="15" y="95" class="st40" width="5" height="5"/>
	<rect x="20" y="95" class="st40" width="5" height="5"/>
	<rect x="25" y="95" class="st40" width="5" height="5"/>
	<rect x="30" y="95" class="st40" width="5" height="5"/>
	<rect x="35" y="95" class="st40" width="5" height="5"/>
	<rect x="40" y="95" class="st40" width="5" height="5"/>
	<rect x="45" y="95" class="st40" width="5" height="5"/>
	<rect x="50" y="95" class="st40" width="5" height="5"/>
	<rect x="55" y="95" class="st40" width="5" height="5"/>
	<rect x="60" y="95" class="st40" width="5" height="5"/>
	<rect x="65" y="95" class="st40" width="5" height="5"/>
	<rect x="70" y="95" class="st40" width="5" height="5"/>
	<rect x="75" y="95" class="st40" width="5" height="5"/>
	<rect x="80" y="95" class="st40" width="5" height="5"/>
	<rect x="85" y="95" class="st40" width="5" height="5"/>
	<rect x="90" y="95" class="st40" width="5" height="5"/>
	<rect x="95" y="95" class="st40" width="5" height="5"/>
</g>
</svg>
