<svg enable-background="new 0 0 750 600" viewBox="0 0 750 600" xmlns="http://www.w3.org/2000/svg"><g fill="#d6b55a"><path d="m520.6 551.22h-10.59-21.16v-31.74h42.33v-10.59h-42.33-21.17v10.59h10.58v10.58h-21.17v10.58h-42.33-10.59v10.58h10.59v7.34h10.58v10.58h10.59 31.75v10.58h10.58v10.59h31.75v-10.59h42.34v-10.58h10.58v-7.33h-42.33z"/><path d="m679.36 424.23v10.58h21.17v10.59h-31.75v10.58h31.75v10.58h19.75v-10.58h10.58v-42.33h-19.75v10.58z"/><path d="m626.44 434.81v10.59h10.58v-10.59h-.66z"/><path d="m679.36 466.56v.66 9.92h9.17 1.41v-10.58z"/><path d="m626.44 455.98v10.58h10.58v-10.58h-.66z"/><path d="m319.5 551.22h-21.17-10.58-10.59-74.08v7.34h21.16v10.58h31.76v10.58h10.58 74.09v-10.58h21.17v10.58h-10.59v10.59h63.51v-10.59h-21.17v-10.58h10.58v-7.33h-84.67z"/><path d="m510.01 530.06h21.17v10.58h-21.17z"/><path d="m658.19 403.06h10.58v10.58h-10.58z"/><path d="m658.19 392.48h-31.75v10.58h10.58 21.17z"/><path d="m319.5 540.64h10.58v10.58h-10.58z"/><path d="m435.93 381.9h10.58v10.58h-10.58z"/><path d="m562.93 307.82h31.76v-10.59h10.58v-10.58h-10.58v-10.58h-10.59-21.17v21.16h-42.33v-10.58h-31.75v10.58h-10.59v-10.58h-31.75v-10.58h-21.17v-10.58h10.59v-10.59h31.75v-10.58h-42.34v10.58h-31.75v10.59h-10.58v-10.59h-10.59v-10.58h-10.58v-10.58h-10.59v10.58h-31.75v21.17h21.17v21.16h21.17v-21.16h10.58v10.58h42.34v21.16h-10.59v10.59h10.59v10.58h-10.59v-10.58h-10.58v10.58h-10.58v-10.58-10.59h-10.59v10.59h-21.17v10.58h-10.58v10.58h21.17v10.59h21.17 10.58 10.58v-10.59h42.34v10.59h21.17v-21.17h-10.59v-21.17h10.59v21.17h42.33v10.58h10.59v-10.58h31.75 10.58z"/><path d="m668.78 371.31h-10.59v-21.16h-10.58v1.32 30.43h21.17z"/><path d="m531.18 445.4h-10.58v-10.59h-21.17v10.59h10.58v10.58h21.17z"/><path d="m552.35 519.48h10.58v10.58h-10.58z"/><path d="m605.27 11.5h10.58v10.58h-10.58z"/><path d="m383.01 43.24h-31.76-10.58v10.59h42.34z"/><path d="m510.01 43.24h21.17v10.58h-21.17z"/><path d="m393.59 22.08h10.58v10.58h-10.58z"/><path d="m478.26 43.24h10.59v-.66-9.92h-10.59z"/><path d="m414.76 96.16v10.58h-10.59v10.58 21.17h21.17v-21.17h10.59v10.59h10.58v-10.59-21.16z"/><path d="m383.01 413.65h10.58v10.58h-10.58z"/><path d="m541.77 22.08h10.58v21.17h-10.58z"/><path d="m414.76 11.5v-10.59h-21.17v10.59h10.58z"/><path d="m298.33 32.66v10.58h-10.58v10.59h21.17v-21.17z"/><path d="m594.69 74.99h10.58v10.58h-10.58z"/><path d="m541.77 106.74h10.58v10.58h-10.58z"/><path d="m668.78 53.83h30.33 1.42v-10.59h-1.42-30.33z"/><path d="m700.53 64.41h9.17v10.58h-9.17z"/><path d="m234.83 32.66v21.17h10.58v-10.59h10.59v-10.58z"/><path d="m647.61 74.99v21.17h10.58 10.59v-10.58h10.58v-10.59z"/><path d="m319.5 22.08h10.58v10.58h-10.58z"/><path d="m224.24 53.83h10.58v10.58h-10.58z"/><path d="m510.01 360.73v-10.58h-31.75v10.58h10.59z"/><path d="m425.34 434.81h10.58v10.58h-10.58z"/><path d="m404.17 424.23h31.76v10.58h21.16v-10.58h-10.58v-10.58h-42.34z"/><path d="m361.84 392.48h10.58v10.58h-10.58z"/><path d="m340.67 96.16v-10.58h-21.17v-10.59h31.75v-10.58h-10.58v-10.58h-31.75v42.33h10.58v21.16h52.92v-21.16z"/><path d="m97.23 328.98h10.58v10.58h-10.58z"/><path d="m531.18 339.57h10.58v10.58h-10.58z"/><path d="m139.57 297.23h-10.58v10.59h10.58 10.59v-21.17h-10.59z"/><path d="m97.23 413.65v10.58h31.76v-10.58h10.58v-10.59h-31.75v10.59z"/><path d="m44.31 403.06h-31.75v10.59h10.59v10.58h31.75v-10.58h-10.59z"/><path d="m330.08 328.98h-21.16v-10.58h10.58v-10.58h-21.17v1.32 30.43h31.75z"/><path d="m245.41 530.06h-31.75v7.33 3.25h31.75z"/><path d="m76.07 569.14h21.17v3.25h-21.17z"/><path d="m721.7 466.56h9.17v10.58h-9.17z"/><path d="m720.28 22.08v-10.58h10.58v-10.59h-30.33v21.17z"/><path d="m541.77 371.31h10.58v-10.58h-21.17v10.58z"/><path d="m520.6 350.15h10.58v10.58h-10.58z"/><path d="m488.85 381.9h10.58v10.58h-10.58z"/><path d="m298.33 286.65h31.75v10.58h-31.75z"/><path d="m340.67 487.73v-10.59h-21.17v21.17h10.58v-10.58z"/><path d="m107.82 434.81h10.58v10.58h-10.58z"/><path d="m277.16 276.07h10.58v10.58h-10.58z"/><path d="m330.08 223.15h10.58v10.58h-10.58z"/><path d="m256 286.65h-10.59v10.58 10.59h-21.17v10.58h21.17v10.58h10.59v-10.58h10.58v-21.17h10.58v-10.58h-10.58z"/><path d="m213.66 286.65h31.75v-10.58h-52.92v10.58 10.58h10.59 10.58z"/><path d="m203.08 254.9h-10.59v.66 9.93h10.59z"/><path d="m457.09 265.49h10.58v10.58h-10.58z"/><path d="m488.85 254.9h10.58v-10.58h-10.58v.66z"/><path d="m298.33 254.9h10.59v-10.58h-10.59-10.58v10.58 10.59h10.58z"/><path d="m668.78 276.07h-42.34v10.58h21.17 21.17z"/><path d="m139.57 254.9v-10.58h-21.17v10.58h-21.17v10.59h31.76v-10.59z"/><path d="m139.57 201.99v-10.58h-31.75v10.58h-10.59v10.58h21.17v-10.58z"/><path d="m150.16 265.49h31.75v-10.59h-21.17-21.17v10.59 10.58h10.59z"/><path d="m139.57 191.41h31.75v-21.17h-21.16v-10.58h-31.76v21.16h21.17z"/><path d="m54.9 233.74h31.75v10.58h10.58v-21.17h-42.33z"/><path d="m150.16 201.99v10.58h10.58v10.58h10.58v-10.58h10.59v-10.58z"/><path d="m160.74 233.74h10.58v10.58h-10.58z"/><path d="m118.4 276.07h10.58v10.58h-10.58z"/><path d="m192.49 244.32h42.34v-21.17h10.58v-10.58h10.59v-21.16h-10.59v-10.59h-21.17v-10.58h21.17v-10.58h10.59v10.58h10.58v-10.58h10.58v-10.59h-52.92v10.59h-10.58v10.58h-10.58v10.58h10.58v21.17h-10.58v10.58 10.58h-21.17v10.59h10.58z"/><path d="m277.16 170.24h10.58v21.17h-10.58z"/><path d="m65.48 159.66h10.58v10.58h-10.58z"/><path d="m446.51 466.56h-10.58v.66 20.51h10.58z"/><path d="m0 413.65h1.98v10.58h-1.98z"/><path d="m266.58 0h10.58v.91h-10.58z"/><path d="m425.34 508.89h21.17v-10.58h-.66-20.51z"/><path d="m266.58 22.08h10.58v10.58h-10.58z"/><path d="m520.6 413.65h-10.59v.66 9.92h10.59z"/><path d="m139.57.91v10.59h10.59v21.16h31.75v-21.16h-10.59v-10.59h21.17v-.91h-31.75v.91z"/><path d="m435.93 520.14v9.92h10.58v-10.58h-10.58z"/><path d="m224.24.91h10.59v-.91h-31.75v.91z"/><path d="m425.34 477.14h-10.58v.67 9.92h10.58z"/><path d="m383.01 498.31h10.58v10.58h-10.58z"/><path d="m531.18.91h21.17v-.91h-31.75v.91z"/><path d="m308.92 477.14v-10.58h-10.59v10.58h.66z"/><path d="m689.94 22.08v-10.58h-63.5v10.58h10.58v10.58h-10.58v10.58h-21.17v10.59 21.16h10.59v-10.58h21.16v-10.58h10.59 10.58v-10.59h-10.58v-10.58h10.58v10.58h10.59v-21.16z"/><path d="m689.94 22.08h9.17v10.58h-9.17z"/><path d="m245.41 487.73h10.58v10.58h-10.58z"/><path d="m76.07 434.81h-10.59v.66 9.93h10.59z"/><path d="m372.42 498.31h10.59v-10.58h21.16v-10.59h-31.75z"/><path d="m393.59 455.98h-.66-41.68v10.58h42.34z"/><path d="m298.33 11.5h10.59v-10.59h10.58v-.91h-21.17v.91z"/><path d="m1.98 106.74h10.58v-10.58h-12.56v21.16h1.98z"/><path d="m298.33 96.16h-21.17v.66 9.92h21.17z"/><path d="m256 106.74v-10.58h-31.76v10.58h10.59z"/><path d="m245.41 74.99h-10.58v.66 9.93h10.58z"/><path d="m287.75 117.32h-.66-9.93v10.59h10.59z"/><path d="m1.98 392.48h10.58v-10.58h-12.56v21.16h1.98z"/><path d="m23.15 32.66h21.17v10.58h-21.17z"/><path d="m605.27 117.32h-21.17v.67 9.92h21.17z"/><path d="m65.48.91h10.59v-.91h-21.17v.91z"/><path d="m1.98 127.91h10.58v10.58h-10.58z"/><path d="m1.98 360.73h52.92v-10.58h-21.17v-10.58h21.17v-10.59h21.17v-10.58h21.16v-21.17h-10.58v-10.58h-10.58v10.58h-10.59v10.59h-10.58v-10.59h-10.59v10.59h-21.16v-10.59h-23.15v52.92h1.98z"/><path d="m54.9 244.32h10.58v31.75h-10.58z"/><path d="m97.23 360.73h-10.58v.66 9.92h10.58z"/><path d="m44.31 371.31h-.66-20.5v10.59h21.16z"/><path d="m171.32 138.49h10.59v-21.17h-10.59v10.59z"/><path d="m1.98 265.49h21.17v-10.59h10.58v-10.58h-21.17v-10.58h-12.56v42.33h1.98z"/><path d="m171.32 43.91v20.5h10.59v-21.17h-10.59z"/><path d="m203.08 149.07h-10.59v.66 9.93h10.59z"/><path d="m256 128.57v9.92h10.58v-10.58h-10.58z"/><path d="m372.42 149.07v10.59h10.59v-10.59h-.67z"/><path d="m709.7 360.73h-9.17v10.58h-10.59v10.59h-10.58v10.58h21.17v10.58h-21.17v10.59h30.34v-10.59h40.3v-21.16h-40.3z"/><path d="m404.17 212.57h-10.58v-10.58-10.58h-21.17v10.58h10.59v21.16h10.58v10.59h21.17v-10.59-10.58z"/><path d="m435.93 192.07v9.92h10.58v-10.58h-10.58z"/><path d="m425.34 212.57h10.58v10.58h-10.58z"/><path d="m741.45 519.48h-10.59v-10.59h10.59v-10.58h-42.34v-10.58h-9.17v21.16h-10.58v10.59h42.34v10.58h-84.68v10.58h-42.33v10.58h-21.17v7.34h10.58v10.58h-10.58v10.58h-10.59v10.59h63.51v-10.59h42.34v-10.58h21.16v10.58h-10.58v20.28h19.75v-20.28h10.59v-10.58h21.16v-10.58h-21.16v-10.59h40.3v-7.33h-8.55z"/><path d="m467.68 191.41v-10.59h-.66-9.93v10.59z"/><path d="m741.45 414.31v9.92h8.55v-10.58h-8.55z"/><path d="m457.09 159.66h-10.58v10.58h10.58 10.59v-10.58h10.58 10.59v-10.59h-31.76z"/><path d="m679.36 0h19.75v.91h-19.75z"/><path d="m372.42 117.32h10.58v10.58h-10.58z"/><path d="m741.45 286.65h-10.58v-10.58h-10.58v-10.58h-21.17v-10.59h21.17v-10.58h-10.59v-21.17h-10.58v-10.58h21.17v-10.58h21.17v-10.58h-31.76v-10.58h-10.58v10.58h-21.17v-21.17h-10.58v-10.58h-19.75v10.58h-10.58v-10.58h-10.58v10.58h-10.58v10.58h10.58v10.58h21.17v10.58h21.17v21.17h10.58v-10.58h10.58v21.17h-31.75v10.58h10.58v10.58h-10.58v10.58h31.75v10.58h10.58v10.58h21.17v10.58h-52.92v21.17h-10.58v10.58h31.75v10.58h-21.17v10.58h42.34v-10.58h21.17v10.58h10.58 7.12v-52.91h-8.55zm-72.67-95.24h-10.58v-10.58h10.58z"/><path d="m730.86 85.58h-31.75v-10.59h-9.17v10.59h-10.58v21.16h31.75v10.58h10.59v10.59h-52.92v-10.59h-42.34v10.59h10.58v10.58h21.17 19.75 12 30.34 10.58v-21.17h10.59 8.55v-21.16h-19.14z"/><path d="m393.59 180.82h21.17v10.58h-21.17z"/><path d="m340.67 127.91h-31.75-10.59v10.58h31.75 10.59z"/><path d="m720.28 244.32h21.17v21.17h-10.59v10.58h19.14v-42.33h-29.72z"/><path d="m181.91 590.31h-10.59-10.58v9.69h31.75v-9.69z"/><path d="m203.08 590.31h31.75v9.69h-31.75z"/><path d="m520.6 590.31h31.75v9.69h-31.75z"/><path d="m65.48 508.89h10.58v10.58h-10.58z"/><path d="m298.33 590.31h21.17v9.69h-21.17z"/><path d="m266.58 590.31h10.58v9.69h-10.58z"/><path d="m150.16 508.89h31.75 10.58v-10.58h-21.17-21.16z"/><path d="m562.93 43.24v21.17h-21.16v10.58h-10.59-10.58v10.59 10.58h-31.75v-10.58h-21.17v10.58h-10.59v21.16h10.59v21.17h21.17v-10.58h-10.59v-10.59h21.17v-10.58h10.58v10.58h21.17v-21.16h21.17v10.58h10.58v-10.58h10.59v-42.33h10.58v-10.59z"/><path d="m192.49 579.72h10.58v10.58h-10.58z"/><path d="m139.57 590.31v-10.59h10.59v-7.33h-21.17v10.58h-52.92v-3.25h-21.17v20.28h21.17v-9.69z"/><path d="m1.98 558.56h21.17v10.58h10.58v-10.58h42.34v-7.34h-63.51v-10.58h-12.56v7.33h1.98z"/></g><path d="m1.98 22.08h42.33v-10.58h-31.75v-10.59h31.75v-.91h-44.31v32.66h1.98z" fill="#b69238"/><path d="m457.09 22.08v10.58h10.59v-10.58h-.66z" fill="#b69238"/><path d="m44.31 32.66h21.17v10.58h-21.17z" fill="#b69238"/><path d="m541.77 64.41h21.16v-21.17h-10.58-10.58-10.59v10.59 21.16h10.59z" fill="#b69238"/><path d="m351.25 64.41h10.58v10.58h-10.58z" fill="#b69238"/><path d="m65.48 85.58h21.17v-10.59h-.66-20.51z" fill="#b69238"/><path d="m393.59 85.58v31.74h10.58v-10.58h10.59v-10.58h31.75v21.16h10.58v-21.16h10.59v-10.58h-52.92v-10.59h-52.92v10.59z" fill="#b69238"/><path d="m510.01 74.99h10.58v10.58h-10.58z" fill="#b69238"/><path d="m0 127.91h1.98v10.58h-1.98z" fill="#b69238"/><path d="m457.09 138.49h-10.58v10.58h10.58v-.66z" fill="#b69238"/><path d="m647.61 149.07v10.59h19.75 21.17v-10.59h-10.59v-10.58h-19.75v10.58z" fill="#b69238"/><path d="m488.85 149.07h21.17v10.58h-21.17z" fill="#b69238"/><path d="m467.68 159.66h10.58v10.58h-10.58z" fill="#b69238"/><path d="m435.93 170.24v10.58h21.16v-10.58h-10.58z" fill="#b69238"/><path d="m658.19 180.82h10.58v10.58h-10.58z" fill="#b69238"/><path d="m467.68 201.99h21.17v-10.58h-21.17v.66z" fill="#b69238"/><path d="m393.59 201.99h10.58v10.58h-10.58z" fill="#b69238"/><path d="m192.49 244.32v-10.58h-10.58-10.59v10.58z" fill="#b69238"/><path d="m298.33 233.74h10.58v10.58h-10.58z" fill="#b69238"/><path d="m372.42 276.07v-10.58h-10.58v21.16h10.58z" fill="#b69238"/><path d="m128.99 276.07h10.58v10.58h-10.58z" fill="#b69238"/><path d="m86.65 286.65h10.58v10.58h-10.58z" fill="#b69238"/><path d="m213.66 286.65h31.75v10.58h-31.75z" fill="#b69238"/><path d="m383.01 307.82h10.58v10.58h-10.58z" fill="#b69238"/><path d="m404.17 307.82h10.58v10.58h-10.58z" fill="#b69238"/><path d="m562.93 318.4h52.93v-10.58h-21.17-31.76z" fill="#b69238"/><path d="m637.02 339.57h31.76 21.16v-10.59h-31.75-21.17z" fill="#b69238"/><path d="m33.73 350.15h21.17v10.58h10.58v-21.16h-10.58-21.17z" fill="#b69238"/><path d="m404.17 382.56v20.5h10.59v-21.16h-10.59z" fill="#b69238"/><path d="m668.78 403.06h10.58v10.58h-10.58z" fill="#b69238"/><path d="m224.24 455.98h-21.16v.66 9.92h21.16z" fill="#b69238"/><path d="m594.69 455.98h-10.59v.66 9.92h10.59z" fill="#b69238"/><path d="m298.33 498.31v-21.17h-10.58v10.59h-31.75v10.58z" fill="#b69238"/><path d="m86.65 487.73h-10.58v.66 9.92h10.58z" fill="#b69238"/><path d="m531.18 487.73v10.58h84.68v-10.58h-.67z" fill="#b69238"/><path d="m54.9 508.89h10.58v10.58h-10.58z" fill="#b69238"/><path d="m150.16 508.89h31.75v10.58h-31.75z" fill="#b69238"/><path d="m488.85 519.48v31.74h21.16v-10.58-10.58h21.17v10.58h21.17v-10.58-10.58-10.59h-21.17v10.59z" fill="#b69238"/><path d="m562.93 519.48h42.34v10.58h-42.34z" fill="#b69238"/><path d="m277.16 540.64h10.58v10.58h-10.58z" fill="#b69238"/><path d="m298.33 540.64h21.17v10.58h-21.17z" fill="#b69238"/><path d="m404.17 551.22v-10.58h-74.09v10.58h-10.58v10.59h84.67v-3.25h10.59v-7.34z" fill="#b69238"/><path d="m520.6 561.81h42.33v-3.25h10.59v-7.34h-52.92z" fill="#b69238"/><path d="m54.9 477.14h21.17v-10.58h31.75v-10.58h-10.59v-10.58h10.58v-10.58h10.58v10.58h42.34v10.58h10.58v-10.58h84.69v-10.58h10.58v21.17h42.34v-10.59h31.75v10.58h-10.58v10.58h-10.59v10.58h21.17v10.58h-10.58v10.58 21.17h-31.75v10.58h116.42v10.58h42.34v-10.58h21.17v-10.58h-10.58v-10.58h21.17v-21.17h-21.17v-10.58h-10.58v-10.58h10.58v-10.58h10.58v10.58h31.75v-10.58-10.58h-10.58v-10.58h21.17v10.58h10.58 10.58v10.58h10.58v-10.58h42.34v-21.17h52.92v-10.58h-10.58v-10.58h-10.58v-10.58h-42.35v10.58h-21.17v-21.17h52.92v-10.58h-52.92v-10.58h42.34v-10.58h-42.34v-10.58h31.75v-10.58h-42.34v10.58h-10.58v10.58h-10.58v10.58h21.17v10.58h-10.58v10.58h10.58v10.58h-52.92-10.58v-10.58h10.58 31.75v-10.58-10.58h-10.58v-10.58h10.58v-10.58h10.58v-10.58h10.58v-10.6h-31.74v10.58h-10.58v-10.58h-42.34v21.17 21.17h10.58v-10.58h31.75v10.58h-21.17v10.58h-10.58v10.58h-31.75v10.58 21.17 10.58h10.58v10.58h-21.17v10.58h-10.58v-10.58h10.58v-10.58h-31.75v-10.58h-10.58v10.58h-10.58-63.5v-10.58h42.34v-10.58-10.58h10.58v10.58h21.17v-31.75h-21.17v-10.58h-84.67v10.58h-42.34v10.58h-21.17v10.58h42.34v10.58h-63.5v-10.58h-10.58v-10.58h31.75v-10.58h10.58v-10.58h31.75v-21.17h31.75v-30.43-1.32h21.17v10.58h-10.58v10.58h21.17v10.58h-31.75v10.58h52.92v-10.58h10.58v-10.58h-21.17v-10.58h10.58v-10.58h21.17v-10.58h-42.34-31.75v-10.58h-10.58-10.58v10.58h-10.58v21.17h-10.6v10.58 10.58h-21.17v-10.58h10.58v-10.59h-21.17v-10.58h-21.17v-10.58h-10.58v10.58h-10.58v18.52 2.65h-10.58v-21.17h10.58v-10.58h10.58v-10.58h-42.34v21.17h-10.58v10.58h-42.34v10.58h10.58v10.58 10.58h31.75v31.75h-31.75v10.58h-10.58v-10.58h-42.33v10.58h10.58v10.58h10.58v-10.58h10.58v10.58h21.17 31.75v10.58 10.58h-10.58-31.75-21.16v-10.58h-21.17v10.58h-31.75v-10.58h-10.59v-10.58h-10.58-1.98v10.58h1.98v10.58h-1.98v63.5h54.9zm455.11-62.83v-.66h10.58v10.58h-10.58zm-42.33 10.58v-.66h10.58v10.58h-10.58zm-21.17 105.17h-10.58v-9.92-.66h10.58zm-10.58-62.84v-.66h10.58v21.17h-10.58zm9.92 31.09h.66v10.58h-21.17v-10.58zm-31.09-20.5v-.66h10.58v10.58h-10.58zm-10.59-.67v10.58h-21.17v10.58h10.58 21.17v10.58h-21.17-10.58v-10.58h-10.58v-21.17h31.75zm-52.92-21.16h41.67.66v10.58h-42.34v-10.58zm-285.77-20.51v-.66h10.58v10.58h-10.58z" fill="#b69238"/><path d="m457.09 297.23h10.58v21.17h-10.58z" fill="#b69238"/><path d="m510.01 466.56h10.58v10.58h-10.58z" fill="#b69238"/><path d="m12.56 551.22h63.51v7.34h21.16v3.25 7.33 3.25h-21.16v7.33 3.25h52.92v-10.58h21.17v-13.83h10.58v-10.59h-10.58v-7.33h-10.59v-10.58h-10.58v-10.58h-31.76v10.58h10.59v10.58h18.52 2.65v10.58h-42.34v-10.58h-21.17v-10.58h-52.92v-10.58h10.59v-21.17h-23.15v42.33h12.56z" fill="#b69238"/><path d="m86.65 530.06h10.58v10.58h-10.58z" fill="#b69238"/><path d="m425.34 360.73h10.59v-10.58h-42.34v-10.58h-10.58v21.16h10.58v10.58h31.75z" fill="#b69238"/><path d="m160.74 530.06h52.92v7.33h-52.92z" fill="#b69238"/><path d="m277.16 0h21.17v.91h-21.17z" fill="#b69238"/><path d="m499.43 191.41h10.58v-10.59h42.34v-10.58h-52.92z" fill="#b69238"/><path d="m308.92.91v10.59h-10.58v10.58h21.17 10.58v10.58h10.58v10.58h10.58v-10.58h42.34v-10.58-10.58-10.59h21.17v10.59h-10.58v10.58h42.34v-10.58h10.58v-10.59h21.17v10.59h10.58v21.17h21.17v-21.17h-10.58v-10.59h21.17v-.91h-201.11v.91zm52.92 0h9.92.66v10.59h-10.58z" fill="#b69238"/><path d="m12.56 244.32h21.17v-10.58h21.17v-10.58h42.34v-10.58-10.58h-52.93v-21.17h21.17v-10.58-10.58h10.58v10.58 21.17h21.17v-10.58h21.17v-21.17h31.75v10.58h21.17v21.17h-31.75v10.58h-21.17v10.58h31.75v-10.58h31.75v10.58h21.17v-10.58h10.58v-21.17h-10.58v-10.58h10.58v-10.58h10.58v-10.58h52.92 10.58v10.58h10.58v10.58h-10.58v21.17h-10.58-10.58v-10.58h-10.57v-10.58-10.58h-10.58v10.58h-21.17v10.58h21.17v10.58h10.58v21.17h-10.58v10.58h-10.58v21.17 10.58h-10.58v10.58h31.74v21.17h10.58v-10.58h10.58 10.58v-10.58-10.61h-21.17v-10.58h-10.57v-10.58h10.58v-10.58h10.58v10.58h21.17v-21.17h10.58v-10.58h42.34v21.17h-10.58v10.58h-10.58v-10.58h-10.59v21.17h31.75v-10.58h10.58v10.58h10.58v10.58h10.58 10.58 31.75v-10.58h42.34v-10.58h21.17v9.92.66h10.58v10.58h-10.58v-9.92-.66h-21.17v10.58h-31.75v10.58h-10.58v10.58h21.17 10.58v-10.58h10.58 21.17v10.58h-10.58v10.58h10.58 31.75v10.58h42.34v-21.17h-21.17v-10.58h-10.58v-21.17h10.58v10.58h31.75v10.58h10.58v10.58h10.58v10.58h10.58v10.58h42.34v-10.58h-21.17v-10.58h42.34 21.17v-10.58h-31.75v-10.57h-74.07v-10.58h42.34v-31.75h10.58v21.17h21.17 31.75v-21.17h-10.58v10.58h-10.58v-21.17h-21.17v-10.58h-21.17v9.92.66h-10.58v-10.58h10.58v-10.58h-10.58v-10.58h-20.51-.66v-10.58h21.17v10.58h10.58v-10.58-31.75-10.58-21.17h21.17v-21.17h31.75v10.58h10.58v-10.58h9.17 1.42v-10.58h-1.42v-10.58h-30.34v-10.59h-10.58v10.58 10.58h-10.58v-10.57h-10.58v10.58h-21.17v10.58h-10.58v10.58h-10.58v-10.58h10.58v-21.16h-21.18-10.58v42.33h10.58v10.58h-10.58v-9.92-.66h-10.58v10.58h-10.58v10.58h9.92.66v10.58h-10.58v-10.58h-10.58v-10.58h10.58v-10.58h-21.17v21.17h-21.17v-10.58h-10.58v10.58h-21.17v10.58h10.58v10.58h42.34v10.58h21.17v21.17h10.58v10.58h-10.58v10.58h-10.58v10.58h-10.58v-10.58h-10.6v21.17h-21.17v10.58h-63.5-10.58-10.58v10.58h-21.17v-10.58h-10.58v-21.17h-10.58v-10.58-10.58h-63.5v-21.17h10.58v-10.58h10.58v-10.58h-31.75v-10.58-10.58h10.58v10.58h31.75 31.75v-10.58h-52.93v-21.17h-10.58v-42.33h-21.17v10.58h-21.17v-21.17h-10.58-10.58v10.58h-10.58v10.58h-10.58-21.17v-31.74h-21.17-31.75v-21.16h-10.58v9.92.66h-10.58v-10.58h10.58v-10.59h21.17v-.91h-84.69v.91h-10.59v21.17h21.17v10.58h21.17v21.17h-21.17v10.58h31.75v-10.58h10.58v21.17h31.75v21.17h10.58v21.17h10.58v-18.54-2.65h10.58v10.58h10.58v10.58h10.58v10.58h-10.58v-10.58h-21.17v21.17h-10.58-10.58v10.58h-21.17v-10.58h-63.5v-10.58h-10.57v10.58h-10.58v10.58h-52.92v10.58h-1.98v74.08h12.56zm571.54-126.33v-.66h21.17v10.58h-21.17zm-10.58 84.66v-.66h21.17v10.58h-21.17zm-64.17 62.84h.66v10.58h-10.58v-10.58zm-232.19-168.67v-.66h21.17v10.58h-21.17zm0 20.5h9.92.66v10.58h-10.58zm-31.75 21.17h-10.58v-9.92-.66h10.58zm21.17-10.58v10.58h-10.58v-9.92-.66zm-31.75-52.26v-.66h10.58v10.58h-10.58zm-10.59 31.09v-10.58h31.76v10.58h-21.17v10.58h-10.58v-10.58zm-127.01-95.24h-10.58v-9.93-.66h10.58zm63.51 42.33h-10.58v-10.59h9.92.66zm21.17 10.58h-10.58v-20.5-.66h10.58zm10.58 85.32v-.66h10.58v10.58h-10.58zm-190.51 41.68v-21.17h21.17v10.58h-10.59v10.58h-10.58z" fill="#b69238"/><path d="m224.24.91v10.59h10.59v10.58h31.75 10.58v-10.58h-21.16v-10.59h10.58v-.91h-31.75v.91z" fill="#b69238"/><path d="m605.27 22.08h10.58v10.58h-10.58z" fill="#b69238"/><path d="m531.18.91v10.59h74.09 10.59v10.58h10.58v-10.58h63.5v10.58h9.17 1.42v-21.17h-1.42-19.75v-.91h-127.01v.91z" fill="#b69238"/><path d="m700.53 43.24h19.75v10.58h-19.75z" fill="#b69238"/><path d="m372.42 96.16h10.58v21.17h-10.58z" fill="#b69238"/><path d="m689.94 22.08h-21.16v21.16h30.33v-10.58h-9.17z" fill="#b69238"/><path d="m647.61 32.66h10.58v10.58h-10.58z" fill="#b69238"/><path d="m76.07 117.32h10.58v10.58h-10.58z" fill="#b69238"/><path d="m139.57 117.32h31.75v10.58h-31.75z" fill="#b69238"/><path d="m668.78 96.16h-10.59v10.58h21.17v-21.16h-10.58z" fill="#b69238"/><path d="m689.94 276.07h10.58v10.58h-10.58z" fill="#b69238"/><path d="m33.73 106.74h31.75v10.58h-31.75z" fill="#b69238"/><path d="m12.56 96.16h21.17v10.58h-21.17z" fill="#b69238"/><path d="m160.74 254.9v-10.58-10.58h-21.17v10.58 10.58z" fill="#b69238"/><path d="m128.99 254.9h10.58v10.58h-10.58z" fill="#b69238"/><path d="m139.57 498.31v-10.58h-10.58v10.58h2.64z" fill="#b69238"/><path d="m150.16 466.56h-21.17v10.58h10.58v10.59h10.59z" fill="#b69238"/><path d="m224.24 477.14h10.58v10.58h-10.58z" fill="#b69238"/><path d="m234.83 487.73h10.58v10.58h-10.58z" fill="#b69238"/><path d="m192.49 498.31h10.58v10.58h-10.58z" fill="#b69238"/><path d="m192.49 487.73h10.59v-10.59h-31.76v21.17h21.17z" fill="#b69238"/><path d="m700.53.91h30.33v10.59h-10.58v10.58h-19.75-1.42v10.58 10.58h1.42 19.75 1.42 9.16v-10.58h19.14v-32.66h-50.89v.91z" fill="#b69238"/><path d="m699.11 53.83v10.58h1.42 9.17v10.58h31.75v-10.58h-21.17v-10.58h-19.75z" fill="#b69238"/><path d="m741.45 117.32h-10.59v21.17h19.14v-10.58h-8.55z" fill="#b69238"/><path d="m709.7 413.65h1.41 19.75v42.33h-10.58v10.58h1.42 9.16v10.58h-9.16-21.17-10.59-1.41v10.59h1.41 9.17v10.58h42.34v-10.58h8.55v-63.5h-8.55v-9.92-.66h8.55v-10.59h-40.3z" fill="#b69238"/><path d="m741.45 508.89h-10.59v10.59h10.59v21.16h8.55v-42.33h-8.55z" fill="#b69238"/><path d="m720.28 138.49h-30.34-12v10.58h10.59v10.59h-21.17v10.58h10.58v21.17h21.17v-10.59h10.59v10.59h31.75v10.58h-21.17v10.58h-21.17v10.58h10.59v21.17h10.58v-10.58h29.72v-74.08h-29.72z" fill="#b69238"/><path d="m12.56 590.31v-10.59h21.17v-10.58h-10.58v-10.58h-21.17v-10.59h-1.98v52.03h44.31v-9.69z" fill="#b69238"/><path d="m256 590.31v-10.59-10.58h-31.76v-10.58h-21.16v-7.34-3.25h10.58v-7.33-3.25h-52.92-10.58v3.25 7.33h10.58v10.59h-10.58v13.83 7.33h-10.59v10.59h-63.5v9.69h84.67v-9.69h10.58v-10.59h10.59v10.59h10.58v-10.59h10.59v10.59h31.75v9.69h31.75v-9.69z" fill="#b69238"/><path d="m689.94 579.72v-10.58h-21.16v10.58h-42.34v10.59h-63.51v-10.59h10.59v-10.58h10.58v-10.58h-10.58-10.59v3.25 7.33h-10.58v10.58h-42.34v10.59h-31.75v-10.59h-10.58v-10.58h-31.75v10.58h-10.59v-10.58-10.58h-10.58-10.59v3.25 7.33h-10.58v10.58h21.17v10.59h-63.51v-10.59h10.59v-10.58h-21.17v10.58h-74.09v10.59h10.58v9.69h21.17v-9.69h21.17v9.69h201.1v-9.69h31.75v9.69h127.01v-20.28z" fill="#b69238"/><path d="m709.7 558.56h21.16v10.58h-21.16v10.58h-10.59v20.28h50.89v-52.03h-40.3z" fill="#b69238"/></svg>