<?xml version="1.0" encoding="utf-8"?>
<!-- Generator: Adobe Illustrator 26.0.1, SVG Export Plug-In . SVG Version: 6.00 Build 0)  -->
<svg version="1.1" id="Layer_1" xmlns="http://www.w3.org/2000/svg" xmlns:xlink="http://www.w3.org/1999/xlink" x="0px" y="0px"
	 viewBox="0 0 750 600" style="enable-background:new 0 0 750 600;" xml:space="preserve">
<style type="text/css">
	.st0{fill:#808080;}
</style>
<g>
	<path class="st0" d="M520.6,551.2H510h-21.2v-31.7h42.3v-10.6h-42.3h-21.2v10.6h10.6v10.6H457v10.6h-42.3h-10.6v10.6h10.6v7.3h10.6
		v10.6h10.6h31.8v10.6h10.6v10.6H510v-10.6h42.3v-10.6h10.6v-7.3h-42.3V551.2z"/>
	<path class="st0" d="M679.4,424.2v10.6h21.2v10.6h-31.8V456h31.8v10.6h19.8V456H731v-42.3h-19.8v10.6L679.4,424.2z"/>
	<path class="st0" d="M626.4,434.8v10.6H637v-10.6h-0.7H626.4z"/>
	<path class="st0" d="M679.4,466.6v0.7v9.9h9.2h1.4v-10.6H679.4z"/>
	<path class="st0" d="M626.4,456v10.6H637V456h-0.7H626.4z"/>
	<path class="st0" d="M319.5,551.2h-21.2h-10.6h-10.6H203v7.3h21.2v10.6H256v10.6h10.6h74.1v-10.6h21.2v10.6h-10.6v10.6h63.5v-10.6
		h-21.2v-10.6h10.6v-7.3h-84.7V551.2z"/>
	<path class="st0" d="M510,530.1h21.2v10.6H510V530.1z"/>
	<path class="st0" d="M658.2,403.1h10.6v10.6h-10.6V403.1z"/>
	<path class="st0" d="M658.2,392.5h-31.8v10.6H637h21.2V392.5z"/>
	<path class="st0" d="M319.5,540.6h10.6v10.6h-10.6V540.6z"/>
	<path class="st0" d="M435.9,381.9h10.6v10.6h-10.6V381.9z"/>
	<path class="st0" d="M562.9,307.8h31.8v-10.6h10.6v-10.6h-10.6V276h-10.6h-21.2v21.2h-42.3v-10.6h-31.8v10.6h-10.6v-10.6h-31.8V276
		h-21.2v-10.6h10.6v-10.6h31.8v-10.6h-42.3v10.6h-31.8v10.6H383v-10.6h-10.6v-10.6h-10.6v-10.6h-10.6v10.6h-31.8v21.2h21.2v21.2
		h21.2v-21.2h10.6V276h42.3v21.2h-10.6v10.6h10.6v10.6h-10.6v-10.6h-10.6v10.6H383v-10.6v-10.6h-10.6v10.6h-21.2v10.6h-10.6V329
		h21.2v10.6H383h10.6h10.6V329h42.3v10.6h21.2v-21.2h-10.6v-21.2h10.6v21.2H510V329h10.6v-10.6h31.8H563L562.9,307.8z"/>
	<path class="st0" d="M668.8,371.3h-10.6v-21.2h-10.6v1.3v30.4h21.2L668.8,371.3z"/>
	<path class="st0" d="M531.2,445.4h-10.6v-10.6h-21.2v10.6H510V456h21.2V445.4z"/>
	<path class="st0" d="M552.3,519.5h10.6v10.6h-10.6V519.5z"/>
	<path class="st0" d="M605.3,11.5h10.6v10.6h-10.6V11.5z"/>
	<path class="st0" d="M383,43.2h-31.8h-10.6v10.6H383V43.2z"/>
	<path class="st0" d="M510,43.2h21.2v10.6H510V43.2z"/>
	<path class="st0" d="M393.6,22.1h10.6v10.6h-10.6V22.1z"/>
	<path class="st0" d="M478.3,43.2h10.6v-0.7v-9.9h-10.6V43.2z"/>
	<path class="st0" d="M414.8,96.2v10.6h-10.6v10.6v21.2h21.2v-21.2H436V128h10.6v-10.6V96.2H414.8z"/>
	<path class="st0" d="M383,413.6h10.6v10.6H383V413.6z"/>
	<path class="st0" d="M541.8,22.1h10.6v21.2h-10.6V22.1z"/>
	<path class="st0" d="M414.8,11.5V0.9h-21.2v10.6h10.6H414.8z"/>
	<path class="st0" d="M298.3,32.7v10.6h-10.6v10.6h21.2V32.7H298.3z"/>
	<path class="st0" d="M594.7,75h10.6v10.6h-10.6V75z"/>
	<path class="st0" d="M541.8,106.7h10.6v10.6h-10.6V106.7z"/>
	<path class="st0" d="M668.8,53.8h30.3h1.4V43.2h-1.4h-30.3V53.8z"/>
	<path class="st0" d="M700.5,64.4h9.2V75h-9.2V64.4z"/>
	<path class="st0" d="M234.8,32.7v21.2h10.6V43.2H256V32.7H234.8z"/>
	<path class="st0" d="M647.6,75v21.2h10.6h10.6V85.6h10.6V75H647.6z"/>
	<path class="st0" d="M319.5,22.1h10.6v10.6h-10.6V22.1z"/>
	<path class="st0" d="M224.2,53.8h10.6v10.6h-10.6V53.8z"/>
	<path class="st0" d="M510,360.7v-10.6h-31.8v10.6h10.6H510z"/>
	<path class="st0" d="M425.3,434.8h10.6v10.6h-10.6V434.8z"/>
	<path class="st0" d="M404.2,424.2H436v10.6h21.2v-10.6h-10.6v-10.6h-42.3L404.2,424.2z"/>
	<path class="st0" d="M361.8,392.5h10.6v10.6h-10.6V392.5z"/>
	<path class="st0" d="M340.7,96.2V85.6h-21.2V75h31.8V64.4h-10.6V53.8h-31.8v42.3h10.6v21.2h52.9V96.2H340.7z"/>
	<path class="st0" d="M97.2,329h10.6v10.6H97.2V329z"/>
	<path class="st0" d="M531.2,339.6h10.6v10.6h-10.6V339.6z"/>
	<path class="st0" d="M139.6,297.2H129v10.6h10.6h10.6v-21.2h-10.6V297.2z"/>
	<path class="st0" d="M97.2,413.6v10.6H129v-10.6h10.6V403h-31.8v10.6H97.2z"/>
	<path class="st0" d="M44.3,403.1H12.6v10.6h10.6v10.6H55v-10.6H44.3V403.1z"/>
	<path class="st0" d="M330.1,329h-21.2v-10.6h10.6v-10.6h-21.2v1.3v30.4h31.8L330.1,329z"/>
	<path class="st0" d="M245.4,530.1h-31.8v7.3v3.2h31.8V530.1z"/>
	<path class="st0" d="M76.1,569.1h21.2v3.2H76.1V569.1z"/>
	<path class="st0" d="M721.7,466.6h9.2v10.6h-9.2V466.6z"/>
	<path class="st0" d="M720.3,22.1V11.5h10.6V0.9h-30.3v21.2H720.3z"/>
	<path class="st0" d="M541.8,371.3h10.6v-10.6h-21.2v10.6H541.8z"/>
	<path class="st0" d="M520.6,350.1h10.6v10.6h-10.6V350.1z"/>
	<path class="st0" d="M488.9,381.9h10.6v10.6h-10.6V381.9z"/>
	<path class="st0" d="M298.3,286.6h31.8v10.6h-31.8V286.6z"/>
	<path class="st0" d="M340.7,487.7v-10.6h-21.2v21.2h10.6v-10.6H340.7z"/>
	<path class="st0" d="M107.8,434.8h10.6v10.6h-10.6V434.8z"/>
	<path class="st0" d="M277.2,276.1h10.6v10.6h-10.6V276.1z"/>
	<path class="st0" d="M330.1,223.1h10.6v10.6h-10.6V223.1z"/>
	<path class="st0" d="M256,286.6h-10.6v10.6v10.6h-21.2v10.6h21.2V329H256v-10.6h10.6v-21.2h10.6v-10.6h-10.6L256,286.6z"/>
	<path class="st0" d="M213.7,286.6h31.8V276h-52.9v10.6v10.6h10.6h10.6v-10.6H213.7z"/>
	<path class="st0" d="M203.1,254.9h-10.6v0.7v9.9h10.6V254.9z"/>
	<path class="st0" d="M457.1,265.5h10.6v10.6h-10.6V265.5z"/>
	<path class="st0" d="M488.9,254.9h10.6v-10.6h-10.6v0.7V254.9z"/>
	<path class="st0" d="M298.3,254.9h10.6v-10.6h-10.6h-10.6v10.6v10.6h10.6V254.9z"/>
	<path class="st0" d="M668.8,276.1h-42.3v10.6h21.2h21.2L668.8,276.1z"/>
	<path class="st0" d="M139.6,254.9v-10.6h-21.2v10.6H97.2v10.6H129v-10.6H139.6z"/>
	<path class="st0" d="M139.6,202v-10.6h-31.8V202H97.2v10.6h21.2V202H139.6z"/>
	<path class="st0" d="M150.2,265.5H182v-10.6h-21.2h-21.2v10.6v10.6h10.6L150.2,265.5L150.2,265.5z"/>
	<path class="st0" d="M139.6,191.4h31.8v-21.2h-21.2v-10.6h-31.8v21.2h21.2V191.4z"/>
	<path class="st0" d="M54.9,233.7h31.8v10.6h10.6v-21.2H54.9V233.7z"/>
	<path class="st0" d="M150.2,202v10.6h10.6v10.6h10.6v-10.6H182V202H150.2z"/>
	<path class="st0" d="M160.7,233.7h10.6v10.6h-10.6V233.7z"/>
	<path class="st0" d="M118.4,276.1H129v10.6h-10.6V276.1z"/>
	<path class="st0" d="M192.5,244.3h42.3v-21.2h10.6v-10.6H256v-21.2h-10.6v-10.6h-21.2v-10.6h21.2v-10.6H256v10.6h10.6v-10.6h10.6
		v-10.6h-52.9v10.6h-10.6v10.6h-10.6v10.6h10.6V202h-10.6v10.6v10.6h-21.2v10.6h10.6L192.5,244.3z"/>
	<path class="st0" d="M277.2,170.2h10.6v21.2h-10.6V170.2z"/>
	<path class="st0" d="M65.5,159.7h10.6v10.6H65.5V159.7z"/>
	<path class="st0" d="M446.5,466.6h-10.6v0.7v20.5h10.6V466.6z"/>
	<path class="st0" d="M0,413.6h2v10.6H0V413.6z"/>
	<path class="st0" d="M266.6,0h10.6v0.9h-10.6V0z"/>
	<path class="st0" d="M425.3,508.9h21.2v-10.6h-0.7h-20.5V508.9z"/>
	<path class="st0" d="M266.6,22.1h10.6v10.6h-10.6V22.1z"/>
	<path class="st0" d="M520.6,413.6H510v0.7v9.9h10.6V413.6z"/>
	<path class="st0" d="M139.6,0.9v10.6h10.6v21.2H182V11.5h-10.6V0.9h21.2V0h-31.8v0.9H139.6z"/>
	<path class="st0" d="M435.9,520.1v9.9h10.6v-10.6h-10.6V520.1z"/>
	<path class="st0" d="M224.2,0.9h10.6V0H203v0.9H224.2z"/>
	<path class="st0" d="M425.3,477.1h-10.6v0.7v9.9h10.6V477.1z"/>
	<path class="st0" d="M383,498.3h10.6v10.6H383V498.3z"/>
	<path class="st0" d="M531.2,0.9h21.2V0h-31.8v0.9H531.2z"/>
	<path class="st0" d="M308.9,477.1v-10.6h-10.6v10.6h0.7H308.9z"/>
	<path class="st0" d="M689.9,22.1V11.5h-63.5v10.6H637v10.6h-10.6v10.6h-21.2v10.6V75h10.6V64.4H637V53.8h10.6h10.6V43.2h-10.6V32.7
		h10.6v10.6h10.6V22.1H689.9z"/>
	<path class="st0" d="M689.9,22.1h9.2v10.6h-9.2V22.1z"/>
	<path class="st0" d="M245.4,487.7H256v10.6h-10.6V487.7z"/>
	<path class="st0" d="M76.1,434.8H65.5v0.7v9.9h10.6V434.8z"/>
	<path class="st0" d="M372.4,498.3H383v-10.6h21.2v-10.6h-31.8L372.4,498.3L372.4,498.3z"/>
	<path class="st0" d="M393.6,456h-0.7h-41.7v10.6h42.3V456H393.6z"/>
	<path class="st0" d="M298.3,11.5h10.6V0.9h10.6V0h-21.2v0.9V11.5z"/>
	<path class="st0" d="M2,106.7h10.6V96.2H0v21.2h2V106.7z"/>
	<path class="st0" d="M298.3,96.2h-21.2v0.7v9.9h21.2V96.2z"/>
	<path class="st0" d="M256,106.7V96.2h-31.8v10.6h10.6L256,106.7L256,106.7z"/>
	<path class="st0" d="M245.4,75h-10.6v0.7v9.9h10.6V75z"/>
	<path class="st0" d="M287.8,117.3h-0.7h-9.9v10.6h10.6V117.3z"/>
	<path class="st0" d="M2,392.5h10.6v-10.6H0v21.2h2V392.5z"/>
	<path class="st0" d="M23.1,32.7h21.2v10.6H23.1V32.7z"/>
	<path class="st0" d="M605.3,117.3h-21.2v0.7v9.9h21.2V117.3z"/>
	<path class="st0" d="M65.5,0.9h10.6V0H54.9v0.9H65.5z"/>
	<path class="st0" d="M2,127.9h10.6v10.6H2V127.9z"/>
	<path class="st0" d="M2,360.7h52.9v-10.6H33.7v-10.6h21.2V329h21.2v-10.6h21.2v-21.2H86.6v-10.6H76.1v10.6H65.5v10.6H54.9v-10.6
		H44.3v10.6H23.1v-10.6H0v52.9h2V360.7z"/>
	<path class="st0" d="M54.9,244.3h10.6v31.8H54.9V244.3z"/>
	<path class="st0" d="M97.2,360.7H86.7v0.7v9.9h10.6L97.2,360.7L97.2,360.7z"/>
	<path class="st0" d="M44.3,371.3h-0.7H23.2v10.6h21.2v-10.6H44.3z"/>
	<path class="st0" d="M171.3,138.5h10.6v-21.2h-10.6v10.6V138.5z"/>
	<path class="st0" d="M2,265.5h21.2v-10.6h10.6v-10.6H12.6v-10.6H0V276h2V265.5z"/>
	<path class="st0" d="M171.3,43.9v20.5h10.6V43.2h-10.6V43.9z"/>
	<path class="st0" d="M203.1,149.1h-10.6v0.7v9.9h10.6V149.1z"/>
	<path class="st0" d="M256,128.6v9.9h10.6v-10.6H256V128.6z"/>
	<path class="st0" d="M372.4,149.1v10.6H383v-10.6h-0.7H372.4z"/>
	<path class="st0" d="M709.7,360.7h-9.2v10.6h-10.6v10.6h-10.6v10.6h21.2v10.6h-21.2v10.6h30.3v-10.6H750v-21.2h-40.3V360.7z"/>
	<path class="st0" d="M404.2,212.6h-10.6V202v-10.6h-21.2V202H383v21.2h10.6v10.6h21.2v-10.6v-10.6L404.2,212.6L404.2,212.6z"/>
	<path class="st0" d="M435.9,192.1v9.9h10.6v-10.6h-10.6V192.1z"/>
	<path class="st0" d="M425.3,212.6h10.6v10.6h-10.6V212.6z"/>
	<path class="st0" d="M741.5,519.5h-10.6v-10.6h10.6v-10.6h-42.3v-10.6H690v21.2h-10.6v10.6h42.3v10.6H637v10.6h-42.3v10.6h-21.2
		v7.3h10.6v10.6h-10.6v10.6h-10.6v10.6h63.5v-10.6h42.3v-10.6h21.2v10.6h-10.6V600h19.8v-20.3h10.6v-10.6h21.2v-10.6h-21.2V548H750
		v-7.3h-8.5V519.5z"/>
	<path class="st0" d="M467.7,191.4v-10.6H467h-9.9v10.6H467.7z"/>
	<path class="st0" d="M741.5,414.3v9.9h8.5v-10.6h-8.5V414.3z"/>
	<path class="st0" d="M457.1,159.7h-10.6v10.6h10.6h10.6v-10.6h10.6h10.6v-10.6h-31.8L457.1,159.7z"/>
	<path class="st0" d="M679.4,0h19.8v0.9h-19.8V0z"/>
	<path class="st0" d="M372.4,117.3H383v10.6h-10.6V117.3z"/>
	<path class="st0" d="M741.5,286.6h-10.6V276h-10.6v-10.6h-21.2v-10.6h21.2v-10.6h-10.6V223h-10.6v-10.6h21.2V202h21.2v-10.6h-31.8
		v-10.6h-10.6v10.6h-21.2v-21.2h-10.6v-10.6h-19.8v10.6H637v-10.6h-10.6v10.6h-10.6v10.6h10.6v10.6h21.2V202h21.2v21.2h10.6v-10.6
		H690v21.2h-31.8v10.6h10.6V255h-10.6v10.6H690v10.6h10.6v10.6h21.2v10.6h-52.9v21.2h-10.6V329H690v10.6h-21.2v10.6h42.3v-10.6h21.2
		v10.6h10.6h7.1v-52.9h-8.5L741.5,286.6z M668.8,191.4h-10.6v-10.6h10.6V191.4z"/>
	<path class="st0" d="M730.9,85.6h-31.8V75h-9.2v10.6h-10.6v21.2h31.8v10.6h10.6V128h-52.9v-10.6h-42.3V128H637v10.6h21.2H678h12
		h30.3h10.6v-21.2h10.6h8.5V96.2h-19.1L730.9,85.6z"/>
	<path class="st0" d="M393.6,180.8h21.2v10.6h-21.2V180.8z"/>
	<path class="st0" d="M340.7,127.9h-31.8h-10.6v10.6h31.8h10.6V127.9z"/>
	<path class="st0" d="M720.3,244.3h21.2v21.2h-10.6v10.6H750v-42.3h-29.7V244.3z"/>
	<path class="st0" d="M181.9,590.3h-10.6h-10.6v9.7h31.8v-9.7H181.9z"/>
	<path class="st0" d="M203.1,590.3h31.8v9.7h-31.8V590.3z"/>
	<path class="st0" d="M520.6,590.3h31.8v9.7h-31.8V590.3z"/>
	<path class="st0" d="M65.5,508.9h10.6v10.6H65.5V508.9z"/>
	<path class="st0" d="M298.3,590.3h21.2v9.7h-21.2V590.3z"/>
	<path class="st0" d="M266.6,590.3h10.6v9.7h-10.6V590.3z"/>
	<path class="st0" d="M150.2,508.9H182h10.6v-10.6h-21.2h-21.2L150.2,508.9L150.2,508.9z"/>
	<path class="st0" d="M562.9,43.2v21.2h-21.2V75h-10.6h-10.6v10.6v10.6h-31.8V85.6h-21.2v10.6h-10.6v21.2h10.6v21.2h21.2V128h-10.6
		v-10.6h21.2v-10.6H510v10.6h21.2V96.2h21.2v10.6H563V96.2h10.6V53.8h10.6V43.2H562.9z"/>
	<path class="st0" d="M192.5,579.7h10.6v10.6h-10.6V579.7z"/>
	<path class="st0" d="M139.6,590.3v-10.6h10.6v-7.3H129V583H76.1v-3.2H54.9V600h21.2v-9.7H139.6z"/>
	<path class="st0" d="M2,558.6h21.2v10.6h10.6v-10.6h42.3v-7.3H12.6v-10.6H0v7.3h2V558.6z"/>
</g>
<path d="M2,22.1h42.3V11.5H12.6V0.9h31.8V0H0v32.7h2V22.1z"/>
<path d="M457.1,22.1v10.6h10.6V22.1H467H457.1z"/>
<path d="M44.3,32.7h21.2v10.6H44.3V32.7z"/>
<path d="M541.8,64.4H563V43.2h-10.6h-10.6h-10.6v10.6V75h10.6L541.8,64.4z"/>
<path d="M351.2,64.4h10.6V75h-10.6V64.4z"/>
<path d="M65.5,85.6h21.2V75H86H65.5V85.6z"/>
<path d="M393.6,85.6v31.7h10.6v-10.6h10.6V96.2h31.8v21.2h10.6V96.2h10.6V85.6h-52.9V75H362v10.6H393.6z"/>
<path d="M510,75h10.6v10.6H510V75z"/>
<path d="M0,127.9h2v10.6H0V127.9z"/>
<path d="M457.1,138.5h-10.6v10.6h10.6v-0.7V138.5z"/>
<path d="M647.6,149.1v10.6h19.8h21.2v-10.6H678v-10.6h-19.8v10.6H647.6z"/>
<path d="M488.9,149.1H510v10.6h-21.2v-10.6H488.9z"/>
<path d="M467.7,159.7h10.6v10.6h-10.6V159.7z"/>
<path d="M435.9,170.2v10.6h21.2v-10.6h-10.6H435.9z"/>
<path d="M658.2,180.8h10.6v10.6h-10.6V180.8z"/>
<path d="M467.7,202h21.2v-10.6h-21.2v0.7V202z"/>
<path d="M393.6,202h10.6v10.6h-10.6V202z"/>
<path d="M192.5,244.3v-10.6h-10.6h-10.6v10.6H192.5z"/>
<path d="M298.3,233.7h10.6v10.6h-10.6V233.7z"/>
<path d="M372.4,276.1v-10.6h-10.6v21.2h10.6V276.1z"/>
<path d="M129,276.1h10.6v10.6H129V276.1z"/>
<path d="M86.7,286.6h10.6v10.6H86.7V286.6z"/>
<path d="M213.7,286.6h31.8v10.6h-31.8V286.6z"/>
<path d="M383,307.8h10.6v10.6H383V307.8z"/>
<path d="M404.2,307.8h10.6v10.6h-10.6V307.8z"/>
<path d="M562.9,318.4h52.9v-10.6h-21.2h-31.8L562.9,318.4L562.9,318.4z"/>
<path d="M637,339.6h31.8H690V329h-31.8H637V339.6z"/>
<path d="M33.7,350.1h21.2v10.6h10.6v-21.2H54.9H33.7V350.1z"/>
<path d="M404.2,382.6v20.5h10.6v-21.2h-10.6V382.6z"/>
<path d="M668.8,403.1h10.6v10.6h-10.6V403.1z"/>
<path d="M224.2,456H203v0.7v9.9h21.2V456z"/>
<path d="M594.7,456h-10.6v0.7v9.9h10.6V456z"/>
<path d="M298.3,498.3v-21.2h-10.6v10.6H256v10.6H298.3z"/>
<path d="M86.7,487.7H76.1v0.7v9.9h10.6V487.7z"/>
<path d="M531.2,487.7v10.6h84.7v-10.6h-0.7H531.2z"/>
<path d="M54.9,508.9h10.6v10.6H54.9V508.9z"/>
<path d="M150.2,508.9H182v10.6h-31.8V508.9z"/>
<path d="M488.9,519.5v31.7H510v-10.6V530h21.2v10.6h21.2V530v-10.6v-10.6h-21.2v10.6L488.9,519.5z"/>
<path d="M562.9,519.5h42.3v10.6h-42.3V519.5z"/>
<path d="M277.2,540.6h10.6v10.6h-10.6V540.6z"/>
<path d="M298.3,540.6h21.2v10.6h-21.2V540.6z"/>
<path d="M404.2,551.2v-10.6h-74.1v10.6h-10.6v10.6h84.7v-3.2h10.6v-7.3L404.2,551.2L404.2,551.2z"/>
<path d="M520.6,561.8h42.3v-3.2h10.6v-7.3h-52.9L520.6,561.8z"/>
<path d="M54.9,477.1h21.2v-10.6h31.8V456H97.2v-10.6h10.6v-10.6h10.6v10.6h42.3V456h10.6v-10.6H256v-10.6h10.6V456h42.3v-10.6h31.8
	V456h-10.6v10.6h-10.6v10.6h21.2v10.6h-10.6v10.6v21.2h-31.8v10.6h116.4v10.6H457v-10.6h21.2v-10.6h-10.6V509h21.2v-21.2h-21.2
	v-10.6H457v-10.6h10.6V456h10.6v10.6H510V456v-10.6h-10.6v-10.6h21.2v10.6h10.6h10.6V456h10.6v-10.6h42.3v-21.2h52.9v-10.6H637V403
	h-10.6v-10.6h-42.3V403h-21.2v-21.2h52.9v-10.6h-52.9v-10.6h42.3V350h-42.3v-10.6h31.8V329h-42.3v10.6h-10.6v10.6h-10.6v10.6h21.2
	v10.6h-10.6V382h10.6v10.6h-52.9h-10.6V382h10.6h31.8v-10.6v-10.6h-10.6v-10.6h10.6v-10.6h10.6V329h10.6v-10.6h-31.7V329H510v-10.6
	h-42.3v21.2v21.2h10.6v-10.6H510v10.6h-21.2v10.6h-10.6V382h-31.8v10.6v21.2v10.6H457V435h-21.2v10.6h-10.6V435h10.6v-10.6H404
	v-10.6h-10.6v10.6H383h-63.5v-10.6h42.3v-10.6v-10.6h10.6v10.6h21.2v-31.8h-21.2v-10.6h-84.7v10.6h-42.3V382h-21.2v10.6h42.3v10.6
	H203v-10.6h-10.6V382h31.8v-10.6h10.6v-10.6h31.8v-21.2h31.8v-30.4v-1.3h21.2v10.6H309V329h21.2v10.6h-31.8v10.6h52.9v-10.6h10.6
	V329h-21.2v-10.6h10.6v-10.6h21.2v-10.6h-42.3h-31.8v-10.6h-10.6h-10.6v10.6h-10.6v21.2H256V329v10.6h-21.2V329h10.6v-10.6h-21.2
	v-10.6H203v-10.6h-10.6v10.6h-10.6v18.5v2.6h-10.6v-21.2h10.6v-10.6h10.6v-10.6h-42.3v21.2h-10.6v10.6H97.2V329h10.6v10.6v10.6h31.8
	V382h-31.8v10.6H97.2V382H54.9v10.6h10.6v10.6h10.6v-10.6h10.6v10.6h21.2h31.8v10.6v10.6H129H97.2H76.1v-10.6H54.9v10.6H23.2v-10.6
	H12.6v-10.6H2H0v10.6h2v10.6H0v63.5h54.9V477.1z M510,414.3v-0.7h10.6v10.6H510V414.3z M467.7,424.9v-0.7h10.6v10.6h-10.6V424.9z
	 M446.5,530.1h-10.6v-9.9v-0.7h10.6V530.1z M435.9,467.2v-0.7h10.6v21.2h-10.6V467.2z M445.9,498.3h0.7v10.6h-21.2v-10.6H445.9z
	 M414.8,477.8v-0.7h10.6v10.6h-10.6V477.8z M404.2,477.1v10.6H383v10.6h10.6h21.2v10.6h-21.2H383v-10.6h-10.6v-21.2H404.2
	L404.2,477.1z M351.2,456h41.7h0.7v10.6h-42.3L351.2,456L351.2,456z M65.5,435.5v-0.7h10.6v10.6H65.5V435.5z"/>
<path d="M457.1,297.2h10.6v21.2h-10.6V297.2z"/>
<path d="M510,466.6h10.6v10.6H510V466.6z"/>
<path d="M12.6,551.2h63.5v7.3h21.2v3.2v7.3v3.2H76.1v7.3v3.2H129v-10.6h21.2v-13.8h10.6V548h-10.6v-7.3h-10.6v-10.6H129v-10.6H97.2
	v10.6h10.6v10.6h18.5h2.6v10.6H86.6v-10.6H65.5v-10.6H12.6v-10.6h10.6v-21.2H0v42.3h12.6V551.2z"/>
<path d="M86.7,530.1h10.6v10.6H86.7V530.1z"/>
<path d="M425.3,360.7h10.6v-10.6h-42.3v-10.6H383v21.2h10.6v10.6h31.8v-10.6H425.3z"/>
<path d="M160.7,530.1h52.9v7.3h-52.9L160.7,530.1L160.7,530.1z"/>
<path d="M277.2,0h21.2v0.9h-21.2V0z"/>
<path d="M499.4,191.4H510v-10.6h42.3v-10.6h-52.9V191.4z"/>
<path d="M308.9,0.9v10.6h-10.6v10.6h21.2h10.6v10.6h10.6v10.6h10.6V32.7h42.3V22.1V11.5V0.9h21.2v10.6h-10.6v10.6h42.3V11.5h10.6
	V0.9h21.2v10.6h10.6v21.2H510V11.5h-10.6V0.9h21.2V0H319.5v0.9H308.9z M361.8,0.9h9.9h0.7v10.6h-10.6V0.9z"/>
<path d="M12.6,244.3h21.2v-10.6H55v-10.6h42.3v-10.6V202h-53v-21.2h21.2v-10.6v-10.6h10.6v10.6v21.2h21.2v-10.6h21.2v-21.2h31.7
	v10.6h21.2v21.2h-31.8V202h-21.2v10.6h31.8V202H182v10.6h21.2V202h10.6v-21.2h-10.6v-10.6h10.6v-10.6h10.6V149h52.9h10.6v10.6h10.6
	v10.6h-10.6v21.2h-10.6h-10.6v-10.6H256v-10.6v-10.6h-10.6v10.6h-21.2v10.6h21.2v10.6H256v21.2h-10.6v10.6h-10.6v21.2V255h-10.6
	v10.6H256v21.2h10.6v-10.6h10.6h10.6v-10.6V255h-21.2v-10.6H256v-10.6h10.6v-10.6h10.6v10.6h21.2v-21.2H309V202h42.3v21.2h-10.6
	v10.6h-10.6v-10.6h-10.6v21.2h31.8v-10.6h10.6v10.6h10.6V255H383h10.6h31.8v-10.6h42.3v-10.6h21.2v9.9v0.7h10.6V255h-10.6v-10v-0.7
	h-21.2v10.6h-31.8v10.6h-10.6v10.6h21.2h10.6v-10.6h10.6h21.2v10.6h-10.6v10.6h10.6h31.8v10.6H563v-21.2h-21.2v-10.6h-10.6v-21.2
	h10.6v10.6h31.8v10.6h10.6V276h10.6v10.6h10.6v10.6h42.3v-10.6h-21.2V276h42.3H690v-10.6h-31.8v-10.6h-74.1v-10.6h42.3v-31.8H637
	v21.2h21.2H690v-21.2h-10.6V223h-10.6v-21h-21.2v-10.6h-21.2v9.9v0.7h-10.6v-10.6h10.6v-10.6h-10.6v-10.6h-20.5h-0.7v-10.6h21.2
	v10.6h10.6v-10.6v-31.8v-10.6v-21h21.2V75h31.8v10.6H690V75h9.2h1.4V64.4h-1.4V53.8h-30.3V43.2h-10.6v10.6v10.6h-10.6V53.8H637v10.6
	h-21.2V75h-10.6v10.6h-10.6V75h10.6V53.8H584h-10.6v42.3H584v10.6h-10.6v-9.9v-0.7h-10.6v10.6h-10.6v10.6h9.9h0.7v10.6h-10.6v-10.6
	h-10.6v-10.6h10.6V96.2H531v21.2h-21v-10.6h-10.6v10.6h-21.2V128h10.6v10.6h42.3v10.6h21.2v21.2h10.6V181h-10.6v10.6h-10.6V202
	h-10.6v-10.6h-10.6v21.2h-21.2v10.6h-63.5h-10.6h-10.6v10.6h-21.2v-10.6H383V202h-10.6v-10.6v-10.6h-63.5v-21.2h10.6V149h10.6v-10.6
	h-31.8v-10.6v-10.6h10.6v10.6h31.8h31.8v-10.6h-52.9v-21H309V53.8h-21.2v10.6h-21.2V43.2H256h-10.6v10.6h-10.6v10.6h-10.6H203V32.7
	h-21.2H150V11.5h-10.6v9.9v0.7H129V11.5h10.6V0.9h21.2V0H76.1v0.9H65.5v21.2h21.2v10.6h21.2v21.2H86.6v10.6h31.8V53.8H129V75h31.8
	v21.2h10.6v21.2H182V98.8v-2.7h10.6v10.6H203v10.6h10.6v10.6H203v-10.6h-21.2v21.2h-10.6h-10.6v10.6h-21.2v-10.6H76v-10.6H65.5v10.6
	H54.9v10.6H2v10.6H0v74.1h12.6V244.3z M584.1,118v-0.7h21.2v10.6h-21.2V118z M573.5,202.7V202h21.2v10.6h-21.2V202.7z M509.3,265.5
	h0.7v10.6h-10.6v-10.6H509.3z M277.2,96.8v-0.7h21.2v10.6h-21.2V96.8z M277.2,117.3h9.9h0.7v10.6h-10.6V117.3z M245.4,138.5h-10.6
	v-9.9v-0.7h10.6V138.5z M266.6,127.9v10.6H256v-9.9v-0.7C256,127.9,266.6,127.9,266.6,127.9z M234.8,75.7V75h10.6v10.6h-10.6V75.7z
	 M224.2,106.7V96.2H256v10.6h-21.2v10.6h-10.6V106.7L224.2,106.7z M97.2,11.5H86.6V1.6V0.9h10.6V11.5z M160.7,53.8h-10.6V43.2h9.9
	h0.7L160.7,53.8L160.7,53.8z M181.9,64.4h-10.6V43.9v-0.7h10.6V64.4z M192.5,149.7V149h10.6v10.6h-10.6V149.7z M2,191.4v-21.2h21.2
	v10.6H12.6v10.6L2,191.4L2,191.4z"/>
<path d="M224.2,0.9v10.6h10.6v10.6h31.8h10.6V11.5H256V0.9h10.6V0h-31.8v0.9H224.2z"/>
<path d="M605.3,22.1h10.6v10.6h-10.6V22.1z"/>
<path d="M531.2,0.9v10.6h74.1h10.6v10.6h10.6V11.5H690v10.6h9.2h1.4V0.9h-1.4h-19.8V0h-127v0.9H531.2z"/>
<path d="M700.5,43.2h19.8v10.6h-19.8V43.2z"/>
<path d="M372.4,96.2H383v21.2h-10.6V96.2z"/>
<path d="M689.9,22.1h-21.2v21.2H699V32.7h-9.2L689.9,22.1z"/>
<path d="M647.6,32.7h10.6v10.6h-10.6V32.7z"/>
<path d="M76.1,117.3h10.6v10.6H76.1V117.3z"/>
<path d="M139.6,117.3h31.8v10.6h-31.8V117.3z"/>
<path d="M668.8,96.2h-10.6v10.6h21.2V85.6h-10.6L668.8,96.2z"/>
<path d="M689.9,276.1h10.6v10.6h-10.6V276.1z"/>
<path d="M33.7,106.7h31.7v10.6H33.7V106.7z"/>
<path d="M12.6,96.2h21.2v10.6H12.6V96.2z"/>
<path d="M160.7,254.9v-10.6v-10.6h-21.2v10.6v10.6H160.7z"/>
<path d="M129,254.9h10.6v10.6H129V254.9z"/>
<path d="M139.6,498.3v-10.6H129v10.6h2.6H139.6z"/>
<path d="M150.2,466.6H129v10.6h10.6v10.6h10.6L150.2,466.6L150.2,466.6z"/>
<path d="M224.2,477.1h10.6v10.6h-10.6V477.1z"/>
<path d="M234.8,487.7h10.6v10.6h-10.6V487.7z"/>
<path d="M192.5,498.3h10.6v10.6h-10.6V498.3z"/>
<path d="M192.5,487.7h10.6v-10.6h-31.8v21.2h21.2V487.7z"/>
<path d="M700.5,0.9h30.3v10.6h-10.6v10.6h-19.8H699v10.6v10.6h1.4h19.8h1.4h9.2V32.7H750V0h-50.9v0.9H700.5z"/>
<path d="M699.1,53.8v10.6h1.4h9.2V75h31.8V64.4h-21.2V53.8h-19.8H699.1z"/>
<path d="M741.5,117.3h-10.6v21.2H750v-10.6h-8.5V117.3z"/>
<path d="M709.7,413.6h1.4h19.8V456h-10.6v10.6h1.4h9.2v10.6h-9.2h-21.2h-10.6h-1.4v10.6h1.4h9.2v10.6h42.3v-10.6h8.5v-63.5h-8.5
	v-9.9v-0.7h8.5v-10.6h-40.3L709.7,413.6z"/>
<path d="M741.5,508.9h-10.6v10.6h10.6v21.2h8.5v-42.3h-8.5V508.9z"/>
<path d="M720.3,138.5H690h-12v10.6h10.6v10.6h-21.2v10.6H678v21.2h21.2v-10.6h10.6v10.6h31.8V202h-21.2v10.6h-21.2v10.6h10.6v21.2
	h10.6v-10.6H750v-74.1h-29.7V138.5z"/>
<path d="M12.6,590.3v-10.6h21.2v-10.6H23.1v-10.6H2V548H0v52h44.3v-9.7H12.6z"/>
<path d="M256,590.3v-10.6v-10.6h-31.8v-10.6H203v-7.3V548h10.6v-7.3v-3.2h-52.9h-10.6v3.2v7.3h10.6v10.6h-10.6v13.8v7.3h-10.6v10.6
	H76.1v9.7h84.7v-9.7h10.6v-10.6H182v10.6h10.6v-10.6h10.6v10.6H235v9.7h31.8v-9.7L256,590.3L256,590.3z"/>
<path d="M689.9,579.7v-10.6h-21.2v10.6h-42.3v10.6h-63.5v-10.6h10.6v-10.6h10.6v-10.6h-10.6h-10.6v3.2v7.3h-10.6v10.6H510v10.6
	h-31.8v-10.6h-10.6V569h-31.8v10.6h-10.6V569v-10.6h-10.6H404v3.2v7.3h-10.6v10.6h21.2v10.6h-63.5v-10.6h10.6v-10.6h-21.2v10.6
	h-74.1v10.6H277v9.7h21.2v-9.7h21.2v9.7h201.1v-9.7h31.8v9.7h127v-20.3h10.6V579.7z"/>
<path d="M709.7,558.6h21.2v10.6h-21.2v10.6h-10.6V600H750v-52h-40.3V558.6z"/>
</svg>
