<?xml version="1.0" encoding="utf-8"?>
<!-- Generator: Adobe Illustrator 25.4.1, SVG Export Plug-In . SVG Version: 6.00 Build 0)  -->
<svg version="1.1" id="Layer_1" xmlns="http://www.w3.org/2000/svg" xmlns:xlink="http://www.w3.org/1999/xlink" x="0px" y="0px"
	 viewBox="0 0 750 600" style="enable-background:new 0 0 750 600;" xml:space="preserve">
<style type="text/css">
	.st0{fill:#D6B55A;}
	.st1{fill:#B69238;}
</style>
<g>
	<polygon class="st0" points="520.6,551.22 510.01,551.22 488.85,551.22 488.85,519.48 531.18,519.48 531.18,508.89 488.85,508.89 
		467.68,508.89 467.68,519.48 478.26,519.48 478.26,530.06 457.09,530.06 457.09,540.64 414.76,540.64 404.17,540.64 404.17,551.22 
		414.76,551.22 414.76,558.56 425.34,558.56 425.34,569.14 435.93,569.14 467.68,569.14 467.68,579.72 478.26,579.72 478.26,590.31 
		510.01,590.31 510.01,579.72 552.35,579.72 552.35,569.14 562.93,569.14 562.93,561.81 520.6,561.81 	"/>
	<polygon class="st0" points="679.36,424.23 679.36,434.81 700.53,434.81 700.53,445.4 668.78,445.4 668.78,455.98 700.53,455.98 
		700.53,466.56 720.28,466.56 720.28,455.98 730.86,455.98 730.86,413.65 711.11,413.65 711.11,424.23 	"/>
	<polygon class="st0" points="626.44,434.81 626.44,445.4 637.02,445.4 637.02,434.81 636.36,434.81 	"/>
	<polygon class="st0" points="679.36,466.56 679.36,467.22 679.36,477.14 688.53,477.14 689.94,477.14 689.94,466.56 	"/>
	<polygon class="st0" points="626.44,455.98 626.44,466.56 637.02,466.56 637.02,455.98 636.36,455.98 	"/>
	<polygon class="st0" points="319.5,551.22 298.33,551.22 287.75,551.22 277.16,551.22 203.08,551.22 203.08,558.56 224.24,558.56 
		224.24,569.14 256,569.14 256,579.72 266.58,579.72 340.67,579.72 340.67,569.14 361.84,569.14 361.84,579.72 351.25,579.72 
		351.25,590.31 414.76,590.31 414.76,579.72 393.59,579.72 393.59,569.14 404.17,569.14 404.17,561.81 319.5,561.81 	"/>
	<rect x="510.01" y="530.06" class="st0" width="21.17" height="10.58"/>
	<rect x="658.19" y="403.06" class="st0" width="10.58" height="10.58"/>
	<polygon class="st0" points="658.19,392.48 626.44,392.48 626.44,403.06 637.02,403.06 658.19,403.06 	"/>
	<rect x="319.5" y="540.64" class="st0" width="10.58" height="10.58"/>
	<rect x="435.93" y="381.9" class="st0" width="10.58" height="10.58"/>
	<polygon class="st0" points="562.93,307.82 594.69,307.82 594.69,297.23 605.27,297.23 605.27,286.65 594.69,286.65 594.69,276.07 
		584.1,276.07 562.93,276.07 562.93,297.23 520.6,297.23 520.6,286.65 488.85,286.65 488.85,297.23 478.26,297.23 478.26,286.65 
		446.51,286.65 446.51,276.07 425.34,276.07 425.34,265.49 435.93,265.49 435.93,254.9 467.68,254.9 467.68,244.32 425.34,244.32 
		425.34,254.9 393.59,254.9 393.59,265.49 383.01,265.49 383.01,254.9 372.42,254.9 372.42,244.32 361.84,244.32 361.84,233.74 
		351.25,233.74 351.25,244.32 319.5,244.32 319.5,265.49 340.67,265.49 340.67,286.65 361.84,286.65 361.84,265.49 372.42,265.49 
		372.42,276.07 414.76,276.07 414.76,297.23 404.17,297.23 404.17,307.82 414.76,307.82 414.76,318.4 404.17,318.4 404.17,307.82 
		393.59,307.82 393.59,318.4 383.01,318.4 383.01,307.82 383.01,297.23 372.42,297.23 372.42,307.82 351.25,307.82 351.25,318.4 
		340.67,318.4 340.67,328.98 361.84,328.98 361.84,339.57 383.01,339.57 393.59,339.57 404.17,339.57 404.17,328.98 446.51,328.98 
		446.51,339.57 467.68,339.57 467.68,318.4 457.09,318.4 457.09,297.23 467.68,297.23 467.68,318.4 510.01,318.4 510.01,328.98 
		520.6,328.98 520.6,318.4 552.35,318.4 562.93,318.4 	"/>
	<polygon class="st0" points="668.78,371.31 658.19,371.31 658.19,350.15 647.61,350.15 647.61,351.47 647.61,381.9 668.78,381.9 	
		"/>
	<polygon class="st0" points="531.18,445.4 520.6,445.4 520.6,434.81 499.43,434.81 499.43,445.4 510.01,445.4 510.01,455.98 
		531.18,455.98 	"/>
	<rect x="552.35" y="519.48" class="st0" width="10.58" height="10.58"/>
	<rect x="605.27" y="11.5" class="st0" width="10.58" height="10.58"/>
	<polygon class="st0" points="383.01,43.24 351.25,43.24 340.67,43.24 340.67,53.83 383.01,53.83 	"/>
	<rect x="510.01" y="43.24" class="st0" width="21.17" height="10.58"/>
	<rect x="393.59" y="22.08" class="st0" width="10.58" height="10.58"/>
	<polygon class="st0" points="478.26,43.24 488.85,43.24 488.85,42.58 488.85,32.66 478.26,32.66 	"/>
	<polygon class="st0" points="414.76,96.16 414.76,106.74 404.17,106.74 404.17,117.32 404.17,138.49 425.34,138.49 425.34,117.32 
		435.93,117.32 435.93,127.91 446.51,127.91 446.51,117.32 446.51,96.16 	"/>
	<rect x="383.01" y="413.65" class="st0" width="10.58" height="10.58"/>
	<rect x="541.77" y="22.08" class="st0" width="10.58" height="21.17"/>
	<polygon class="st0" points="414.76,11.5 414.76,0.91 393.59,0.91 393.59,11.5 404.17,11.5 	"/>
	<polygon class="st0" points="298.33,32.66 298.33,43.24 287.75,43.24 287.75,53.83 308.92,53.83 308.92,32.66 	"/>
	<rect x="594.69" y="74.99" class="st0" width="10.58" height="10.58"/>
	<rect x="541.77" y="106.74" class="st0" width="10.58" height="10.58"/>
	<polygon class="st0" points="668.78,53.83 699.11,53.83 700.53,53.83 700.53,43.24 699.11,43.24 668.78,43.24 	"/>
	<rect x="700.53" y="64.41" class="st0" width="9.17" height="10.58"/>
	<polygon class="st0" points="234.83,32.66 234.83,53.83 245.41,53.83 245.41,43.24 256,43.24 256,32.66 	"/>
	<polygon class="st0" points="647.61,74.99 647.61,96.16 658.19,96.16 668.78,96.16 668.78,85.58 679.36,85.58 679.36,74.99 	"/>
	<rect x="319.5" y="22.08" class="st0" width="10.58" height="10.58"/>
	<rect x="224.24" y="53.83" class="st0" width="10.58" height="10.58"/>
	<polygon class="st0" points="510.01,360.73 510.01,350.15 478.26,350.15 478.26,360.73 488.85,360.73 	"/>
	<rect x="425.34" y="434.81" class="st0" width="10.58" height="10.58"/>
	<polygon class="st0" points="404.17,424.23 435.93,424.23 435.93,434.81 457.09,434.81 457.09,424.23 446.51,424.23 446.51,413.65 
		404.17,413.65 	"/>
	<rect x="361.84" y="392.48" class="st0" width="10.58" height="10.58"/>
	<polygon class="st0" points="340.67,96.16 340.67,85.58 319.5,85.58 319.5,74.99 351.25,74.99 351.25,64.41 340.67,64.41 
		340.67,53.83 308.92,53.83 308.92,96.16 319.5,96.16 319.5,117.32 372.42,117.32 372.42,96.16 	"/>
	<rect x="97.23" y="328.98" class="st0" width="10.58" height="10.58"/>
	<rect x="531.18" y="339.57" class="st0" width="10.58" height="10.58"/>
	<polygon class="st0" points="139.57,297.23 128.99,297.23 128.99,307.82 139.57,307.82 150.16,307.82 150.16,286.65 139.57,286.65 
			"/>
	<polygon class="st0" points="97.23,413.65 97.23,424.23 128.99,424.23 128.99,413.65 139.57,413.65 139.57,403.06 107.82,403.06 
		107.82,413.65 	"/>
	<polygon class="st0" points="44.31,403.06 12.56,403.06 12.56,413.65 23.15,413.65 23.15,424.23 54.9,424.23 54.9,413.65 
		44.31,413.65 	"/>
	<polygon class="st0" points="330.08,328.98 308.92,328.98 308.92,318.4 319.5,318.4 319.5,307.82 298.33,307.82 298.33,309.14 
		298.33,339.57 330.08,339.57 	"/>
	<polygon class="st0" points="245.41,530.06 213.66,530.06 213.66,537.39 213.66,540.64 245.41,540.64 	"/>
	<rect x="76.07" y="569.14" class="st0" width="21.17" height="3.25"/>
	<rect x="721.7" y="466.56" class="st0" width="9.17" height="10.58"/>
	<polygon class="st0" points="720.28,22.08 720.28,11.5 730.86,11.5 730.86,0.91 700.53,0.91 700.53,22.08 	"/>
	<polygon class="st0" points="541.77,371.31 552.35,371.31 552.35,360.73 531.18,360.73 531.18,371.31 	"/>
	<rect x="520.6" y="350.15" class="st0" width="10.58" height="10.58"/>
	<rect x="488.85" y="381.9" class="st0" width="10.58" height="10.58"/>
	<rect x="298.33" y="286.65" class="st0" width="31.75" height="10.58"/>
	<polygon class="st0" points="340.67,487.73 340.67,477.14 319.5,477.14 319.5,498.31 330.08,498.31 330.08,487.73 	"/>
	<rect x="107.82" y="434.81" class="st0" width="10.58" height="10.58"/>
	<rect x="277.16" y="276.07" class="st0" width="10.58" height="10.58"/>
	<rect x="330.08" y="223.15" class="st0" width="10.58" height="10.58"/>
	<polygon class="st0" points="256,286.65 245.41,286.65 245.41,297.23 245.41,307.82 224.24,307.82 224.24,318.4 245.41,318.4 
		245.41,328.98 256,328.98 256,318.4 266.58,318.4 266.58,297.23 277.16,297.23 277.16,286.65 266.58,286.65 	"/>
	<polygon class="st0" points="213.66,286.65 245.41,286.65 245.41,276.07 192.49,276.07 192.49,286.65 192.49,297.23 203.08,297.23 
		213.66,297.23 	"/>
	<polygon class="st0" points="203.08,254.9 192.49,254.9 192.49,255.56 192.49,265.49 203.08,265.49 	"/>
	<rect x="457.09" y="265.49" class="st0" width="10.58" height="10.58"/>
	<polygon class="st0" points="488.85,254.9 499.43,254.9 499.43,244.32 488.85,244.32 488.85,244.98 	"/>
	<polygon class="st0" points="298.33,254.9 308.92,254.9 308.92,244.32 298.33,244.32 287.75,244.32 287.75,254.9 287.75,265.49 
		298.33,265.49 	"/>
	<polygon class="st0" points="668.78,276.07 626.44,276.07 626.44,286.65 647.61,286.65 668.78,286.65 	"/>
	<polygon class="st0" points="139.57,254.9 139.57,244.32 118.4,244.32 118.4,254.9 97.23,254.9 97.23,265.49 128.99,265.49 
		128.99,254.9 	"/>
	<polygon class="st0" points="139.57,201.99 139.57,191.41 107.82,191.41 107.82,201.99 97.23,201.99 97.23,212.57 118.4,212.57 
		118.4,201.99 	"/>
	<polygon class="st0" points="150.16,265.49 181.91,265.49 181.91,254.9 160.74,254.9 139.57,254.9 139.57,265.49 139.57,276.07 
		150.16,276.07 	"/>
	<polygon class="st0" points="139.57,191.41 171.32,191.41 171.32,170.24 150.16,170.24 150.16,159.66 118.4,159.66 118.4,180.82 
		139.57,180.82 	"/>
	<polygon class="st0" points="54.9,233.74 86.65,233.74 86.65,244.32 97.23,244.32 97.23,223.15 54.9,223.15 	"/>
	<polygon class="st0" points="150.16,201.99 150.16,212.57 160.74,212.57 160.74,223.15 171.32,223.15 171.32,212.57 181.91,212.57 
		181.91,201.99 	"/>
	<rect x="160.74" y="233.74" class="st0" width="10.58" height="10.58"/>
	<rect x="118.4" y="276.07" class="st0" width="10.58" height="10.58"/>
	<polygon class="st0" points="192.49,244.32 234.83,244.32 234.83,223.15 245.41,223.15 245.41,212.57 256,212.57 256,191.41 
		245.41,191.41 245.41,180.82 224.24,180.82 224.24,170.24 245.41,170.24 245.41,159.66 256,159.66 256,170.24 266.58,170.24 
		266.58,159.66 277.16,159.66 277.16,149.07 224.24,149.07 224.24,159.66 213.66,159.66 213.66,170.24 203.08,170.24 203.08,180.82 
		213.66,180.82 213.66,201.99 203.08,201.99 203.08,212.57 203.08,223.15 181.91,223.15 181.91,233.74 192.49,233.74 	"/>
	<rect x="277.16" y="170.24" class="st0" width="10.58" height="21.17"/>
	<rect x="65.48" y="159.66" class="st0" width="10.58" height="10.58"/>
	<polygon class="st0" points="446.51,466.56 435.93,466.56 435.93,467.22 435.93,487.73 446.51,487.73 	"/>
	<rect y="413.65" class="st0" width="1.98" height="10.58"/>
	<rect x="266.58" class="st0" width="10.58" height="0.91"/>
	<polygon class="st0" points="425.34,508.89 446.51,508.89 446.51,498.31 445.85,498.31 425.34,498.31 	"/>
	<rect x="266.58" y="22.08" class="st0" width="10.58" height="10.58"/>
	<polygon class="st0" points="520.6,413.65 510.01,413.65 510.01,414.31 510.01,424.23 520.6,424.23 	"/>
	<polygon class="st0" points="139.57,0.91 139.57,11.5 150.16,11.5 150.16,32.66 181.91,32.66 181.91,11.5 171.32,11.5 171.32,0.91 
		192.49,0.91 192.49,0 160.74,0 160.74,0.91 	"/>
	<polygon class="st0" points="435.93,520.14 435.93,530.06 446.51,530.06 446.51,519.48 435.93,519.48 	"/>
	<polygon class="st0" points="224.24,0.91 234.83,0.91 234.83,0 203.08,0 203.08,0.91 	"/>
	<polygon class="st0" points="425.34,477.14 414.76,477.14 414.76,477.81 414.76,487.73 425.34,487.73 	"/>
	<rect x="383.01" y="498.31" class="st0" width="10.58" height="10.58"/>
	<polygon class="st0" points="531.18,0.91 552.35,0.91 552.35,0 520.6,0 520.6,0.91 	"/>
	<polygon class="st0" points="308.92,477.14 308.92,466.56 298.33,466.56 298.33,477.14 298.99,477.14 	"/>
	<polygon class="st0" points="689.94,22.08 689.94,11.5 626.44,11.5 626.44,22.08 637.02,22.08 637.02,32.66 626.44,32.66 
		626.44,43.24 605.27,43.24 605.27,53.83 605.27,74.99 615.86,74.99 615.86,64.41 637.02,64.41 637.02,53.83 647.61,53.83 
		658.19,53.83 658.19,43.24 647.61,43.24 647.61,32.66 658.19,32.66 658.19,43.24 668.78,43.24 668.78,22.08 	"/>
	<rect x="689.94" y="22.08" class="st0" width="9.17" height="10.58"/>
	<rect x="245.41" y="487.73" class="st0" width="10.58" height="10.58"/>
	<polygon class="st0" points="76.07,434.81 65.48,434.81 65.48,435.47 65.48,445.4 76.07,445.4 	"/>
	<polygon class="st0" points="372.42,498.31 383.01,498.31 383.01,487.73 404.17,487.73 404.17,477.14 372.42,477.14 	"/>
	<polygon class="st0" points="393.59,455.98 392.93,455.98 351.25,455.98 351.25,466.56 393.59,466.56 	"/>
	<polygon class="st0" points="298.33,11.5 308.92,11.5 308.92,0.91 319.5,0.91 319.5,0 298.33,0 298.33,0.91 	"/>
	<polygon class="st0" points="1.98,106.74 12.56,106.74 12.56,96.16 0,96.16 0,117.32 1.98,117.32 	"/>
	<polygon class="st0" points="298.33,96.16 277.16,96.16 277.16,96.82 277.16,106.74 298.33,106.74 	"/>
	<polygon class="st0" points="256,106.74 256,96.16 224.24,96.16 224.24,106.74 234.83,106.74 	"/>
	<polygon class="st0" points="245.41,74.99 234.83,74.99 234.83,75.65 234.83,85.58 245.41,85.58 	"/>
	<polygon class="st0" points="287.75,117.32 287.09,117.32 277.16,117.32 277.16,127.91 287.75,127.91 	"/>
	<polygon class="st0" points="1.98,392.48 12.56,392.48 12.56,381.9 0,381.9 0,403.06 1.98,403.06 	"/>
	<rect x="23.15" y="32.66" class="st0" width="21.17" height="10.58"/>
	<polygon class="st0" points="605.27,117.32 584.1,117.32 584.1,117.99 584.1,127.91 605.27,127.91 	"/>
	<polygon class="st0" points="65.48,0.91 76.07,0.91 76.07,0 54.9,0 54.9,0.91 	"/>
	<rect x="1.98" y="127.91" class="st0" width="10.58" height="10.58"/>
	<polygon class="st0" points="1.98,360.73 54.9,360.73 54.9,350.15 33.73,350.15 33.73,339.57 54.9,339.57 54.9,328.98 
		76.07,328.98 76.07,318.4 97.23,318.4 97.23,297.23 86.65,297.23 86.65,286.65 76.07,286.65 76.07,297.23 65.48,297.23 
		65.48,307.82 54.9,307.82 54.9,297.23 44.31,297.23 44.31,307.82 23.15,307.82 23.15,297.23 0,297.23 0,350.15 1.98,350.15 	"/>
	<rect x="54.9" y="244.32" class="st0" width="10.58" height="31.75"/>
	<polygon class="st0" points="97.23,360.73 86.65,360.73 86.65,361.39 86.65,371.31 97.23,371.31 	"/>
	<polygon class="st0" points="44.31,371.31 43.65,371.31 23.15,371.31 23.15,381.9 44.31,381.9 	"/>
	<polygon class="st0" points="171.32,138.49 181.91,138.49 181.91,117.32 171.32,117.32 171.32,127.91 	"/>
	<polygon class="st0" points="1.98,265.49 23.15,265.49 23.15,254.9 33.73,254.9 33.73,244.32 12.56,244.32 12.56,233.74 0,233.74 
		0,276.07 1.98,276.07 	"/>
	<polygon class="st0" points="171.32,43.91 171.32,64.41 181.91,64.41 181.91,43.24 171.32,43.24 	"/>
	<polygon class="st0" points="203.08,149.07 192.49,149.07 192.49,149.73 192.49,159.66 203.08,159.66 	"/>
	<polygon class="st0" points="256,128.57 256,138.49 266.58,138.49 266.58,127.91 256,127.91 	"/>
	<polygon class="st0" points="372.42,149.07 372.42,159.66 383.01,159.66 383.01,149.07 382.34,149.07 	"/>
	<polygon class="st0" points="709.7,360.73 700.53,360.73 700.53,371.31 689.94,371.31 689.94,381.9 679.36,381.9 679.36,392.48 
		700.53,392.48 700.53,403.06 679.36,403.06 679.36,413.65 709.7,413.65 709.7,403.06 750,403.06 750,381.9 709.7,381.9 	"/>
	<polygon class="st0" points="404.17,212.57 393.59,212.57 393.59,201.99 393.59,191.41 372.42,191.41 372.42,201.99 383.01,201.99 
		383.01,223.15 393.59,223.15 393.59,233.74 414.76,233.74 414.76,223.15 414.76,212.57 	"/>
	<polygon class="st0" points="435.93,192.07 435.93,201.99 446.51,201.99 446.51,191.41 435.93,191.41 	"/>
	<rect x="425.34" y="212.57" class="st0" width="10.58" height="10.58"/>
	<polygon class="st0" points="741.45,519.48 730.86,519.48 730.86,508.89 741.45,508.89 741.45,498.31 699.11,498.31 699.11,487.73 
		689.94,487.73 689.94,508.89 679.36,508.89 679.36,519.48 721.7,519.48 721.7,530.06 637.02,530.06 637.02,540.64 594.69,540.64 
		594.69,551.22 573.52,551.22 573.52,558.56 584.1,558.56 584.1,569.14 573.52,569.14 573.52,579.72 562.93,579.72 562.93,590.31 
		626.44,590.31 626.44,579.72 668.78,579.72 668.78,569.14 689.94,569.14 689.94,579.72 679.36,579.72 679.36,600 699.11,600 
		699.11,579.72 709.7,579.72 709.7,569.14 730.86,569.14 730.86,558.56 709.7,558.56 709.7,547.97 750,547.97 750,540.64 
		741.45,540.64 	"/>
	<polygon class="st0" points="467.68,191.41 467.68,180.82 467.02,180.82 457.09,180.82 457.09,191.41 	"/>
	<polygon class="st0" points="741.45,414.31 741.45,424.23 750,424.23 750,413.65 741.45,413.65 	"/>
	<polygon class="st0" points="457.09,159.66 446.51,159.66 446.51,170.24 457.09,170.24 467.68,170.24 467.68,159.66 478.26,159.66 
		488.85,159.66 488.85,149.07 457.09,149.07 	"/>
	<rect x="679.36" class="st0" width="19.75" height="0.91"/>
	<rect x="372.42" y="117.32" class="st0" width="10.58" height="10.58"/>
	<path class="st0" d="M741.45,286.65h-10.58v-10.58h-10.58v-10.58h-21.17V254.9h21.17v-10.58H709.7v-21.17h-10.58v-10.58h21.17
		v-10.58h21.17v-10.58H709.7v-10.58h-10.58v10.58h-21.17v-21.17h-10.58v-10.58h-19.75v10.58h-10.58v-10.58h-10.58v10.58h-10.58
		v10.58h10.58v10.58h21.17v10.58h21.17v21.17h10.58v-10.58h10.58v21.17h-31.75v10.58h10.58v10.58h-10.58v10.58h31.75v10.58h10.58
		v10.58h21.17v10.58h-52.92v21.17h-10.58v10.58h31.75v10.58h-21.17v10.58h42.34v-10.58h21.17v10.58h10.58H750v-52.91h-8.55V286.65z
		 M668.78,191.41h-10.58v-10.58h10.58V191.41z"/>
	<polygon class="st0" points="730.86,85.58 699.11,85.58 699.11,74.99 689.94,74.99 689.94,85.58 679.36,85.58 679.36,106.74 
		711.11,106.74 711.11,117.32 721.7,117.32 721.7,127.91 668.78,127.91 668.78,117.32 626.44,117.32 626.44,127.91 637.02,127.91 
		637.02,138.49 658.19,138.49 677.94,138.49 689.94,138.49 720.28,138.49 730.86,138.49 730.86,117.32 741.45,117.32 750,117.32 
		750,96.16 730.86,96.16 	"/>
	<rect x="393.59" y="180.82" class="st0" width="21.17" height="10.58"/>
	<polygon class="st0" points="340.67,127.91 308.92,127.91 298.33,127.91 298.33,138.49 330.08,138.49 340.67,138.49 	"/>
	<polygon class="st0" points="720.28,244.32 741.45,244.32 741.45,265.49 730.86,265.49 730.86,276.07 750,276.07 750,233.74 
		720.28,233.74 	"/>
	<polygon class="st0" points="181.91,590.31 171.32,590.31 160.74,590.31 160.74,600 192.49,600 192.49,590.31 	"/>
	<rect x="203.08" y="590.31" class="st0" width="31.75" height="9.69"/>
	<rect x="520.6" y="590.31" class="st0" width="31.75" height="9.69"/>
	<rect x="65.48" y="508.89" class="st0" width="10.58" height="10.58"/>
	<rect x="298.33" y="590.31" class="st0" width="21.17" height="9.69"/>
	<rect x="266.58" y="590.31" class="st0" width="10.58" height="9.69"/>
	<polygon class="st0" points="150.16,508.89 181.91,508.89 192.49,508.89 192.49,498.31 171.32,498.31 150.16,498.31 	"/>
	<polygon class="st0" points="562.93,43.24 562.93,64.41 541.77,64.41 541.77,74.99 531.18,74.99 520.6,74.99 520.6,85.58 
		520.6,96.16 488.85,96.16 488.85,85.58 467.68,85.58 467.68,96.16 457.09,96.16 457.09,117.32 467.68,117.32 467.68,138.49 
		488.85,138.49 488.85,127.91 478.26,127.91 478.26,117.32 499.43,117.32 499.43,106.74 510.01,106.74 510.01,117.32 531.18,117.32 
		531.18,96.16 552.35,96.16 552.35,106.74 562.93,106.74 562.93,96.16 573.52,96.16 573.52,53.83 584.1,53.83 584.1,43.24 	"/>
	<rect x="192.49" y="579.72" class="st0" width="10.58" height="10.58"/>
	<polygon class="st0" points="139.57,590.31 139.57,579.72 150.16,579.72 150.16,572.39 128.99,572.39 128.99,582.97 76.07,582.97 
		76.07,579.72 54.9,579.72 54.9,600 76.07,600 76.07,590.31 	"/>
	<polygon class="st0" points="1.98,558.56 23.15,558.56 23.15,569.14 33.73,569.14 33.73,558.56 76.07,558.56 76.07,551.22 
		12.56,551.22 12.56,540.64 0,540.64 0,547.97 1.98,547.97 	"/>
	<polygon class="st1" points="1.98,22.08 44.31,22.08 44.31,11.5 12.56,11.5 12.56,0.91 44.31,0.91 44.31,0 0,0 0,32.66 1.98,32.66 
			"/>
	<polygon class="st1" points="457.09,22.08 457.09,32.66 467.68,32.66 467.68,22.08 467.02,22.08 	"/>
	<rect x="44.31" y="32.66" class="st1" width="21.17" height="10.58"/>
	<polygon class="st1" points="541.77,64.41 562.93,64.41 562.93,43.24 552.35,43.24 541.77,43.24 531.18,43.24 531.18,53.83 
		531.18,74.99 541.77,74.99 	"/>
	<rect x="351.25" y="64.41" class="st1" width="10.58" height="10.58"/>
	<polygon class="st1" points="65.48,85.58 86.65,85.58 86.65,74.99 85.99,74.99 65.48,74.99 	"/>
	<polygon class="st1" points="393.59,85.58 393.59,117.32 404.17,117.32 404.17,106.74 414.76,106.74 414.76,96.16 446.51,96.16 
		446.51,117.32 457.09,117.32 457.09,96.16 467.68,96.16 467.68,85.58 414.76,85.58 414.76,74.99 361.84,74.99 361.84,85.58 	"/>
	<rect x="510.01" y="74.99" class="st1" width="10.58" height="10.58"/>
	<rect y="127.91" class="st1" width="1.98" height="10.58"/>
	<polygon class="st1" points="457.09,138.49 446.51,138.49 446.51,149.07 457.09,149.07 457.09,148.41 	"/>
	<polygon class="st1" points="647.61,149.07 647.61,159.66 667.36,159.66 688.53,159.66 688.53,149.07 677.94,149.07 677.94,138.49 
		658.19,138.49 658.19,149.07 	"/>
	<rect x="488.85" y="149.07" class="st1" width="21.17" height="10.58"/>
	<rect x="467.68" y="159.66" class="st1" width="10.58" height="10.58"/>
	<polygon class="st1" points="435.93,170.24 435.93,180.82 457.09,180.82 457.09,170.24 446.51,170.24 	"/>
	<rect x="658.19" y="180.82" class="st1" width="10.58" height="10.58"/>
	<polygon class="st1" points="467.68,201.99 488.85,201.99 488.85,191.41 467.68,191.41 467.68,192.07 	"/>
	<rect x="393.59" y="201.99" class="st1" width="10.58" height="10.58"/>
	<polygon class="st1" points="192.49,244.32 192.49,233.74 181.91,233.74 171.32,233.74 171.32,244.32 	"/>
	<rect x="298.33" y="233.74" class="st1" width="10.58" height="10.58"/>
	<polygon class="st1" points="372.42,276.07 372.42,265.49 361.84,265.49 361.84,286.65 372.42,286.65 	"/>
	<rect x="128.99" y="276.07" class="st1" width="10.58" height="10.58"/>
	<rect x="86.65" y="286.65" class="st1" width="10.58" height="10.58"/>
	<rect x="213.66" y="286.65" class="st1" width="31.75" height="10.58"/>
	<rect x="383.01" y="307.82" class="st1" width="10.58" height="10.58"/>
	<rect x="404.17" y="307.82" class="st1" width="10.58" height="10.58"/>
	<polygon class="st1" points="562.93,318.4 615.86,318.4 615.86,307.82 594.69,307.82 562.93,307.82 	"/>
	<polygon class="st1" points="637.02,339.57 668.78,339.57 689.94,339.57 689.94,328.98 658.19,328.98 637.02,328.98 	"/>
	<polygon class="st1" points="33.73,350.15 54.9,350.15 54.9,360.73 65.48,360.73 65.48,339.57 54.9,339.57 33.73,339.57 	"/>
	<polygon class="st1" points="404.17,382.56 404.17,403.06 414.76,403.06 414.76,381.9 404.17,381.9 	"/>
	<rect x="668.78" y="403.06" class="st1" width="10.58" height="10.58"/>
	<polygon class="st1" points="224.24,455.98 203.08,455.98 203.08,456.64 203.08,466.56 224.24,466.56 	"/>
	<polygon class="st1" points="594.69,455.98 584.1,455.98 584.1,456.64 584.1,466.56 594.69,466.56 	"/>
	<polygon class="st1" points="298.33,498.31 298.33,477.14 287.75,477.14 287.75,487.73 256,487.73 256,498.31 	"/>
	<polygon class="st1" points="86.65,487.73 76.07,487.73 76.07,488.39 76.07,498.31 86.65,498.31 	"/>
	<polygon class="st1" points="531.18,487.73 531.18,498.31 615.86,498.31 615.86,487.73 615.19,487.73 	"/>
	<rect x="54.9" y="508.89" class="st1" width="10.58" height="10.58"/>
	<rect x="150.16" y="508.89" class="st1" width="31.75" height="10.58"/>
	<polygon class="st1" points="488.85,519.48 488.85,551.22 510.01,551.22 510.01,540.64 510.01,530.06 531.18,530.06 531.18,540.64 
		552.35,540.64 552.35,530.06 552.35,519.48 552.35,508.89 531.18,508.89 531.18,519.48 	"/>
	<rect x="562.93" y="519.48" class="st1" width="42.34" height="10.58"/>
	<rect x="277.16" y="540.64" class="st1" width="10.58" height="10.58"/>
	<rect x="298.33" y="540.64" class="st1" width="21.17" height="10.58"/>
	<polygon class="st1" points="404.17,551.22 404.17,540.64 330.08,540.64 330.08,551.22 319.5,551.22 319.5,561.81 404.17,561.81 
		404.17,558.56 414.76,558.56 414.76,551.22 	"/>
	<polygon class="st1" points="520.6,561.81 562.93,561.81 562.93,558.56 573.52,558.56 573.52,551.22 520.6,551.22 	"/>
	<path class="st1" d="M54.9,477.14h21.17v-10.58h31.75v-10.58H97.23V445.4h10.58v-10.58h10.58v10.58h42.34v10.58h10.58V445.4H256
		v-10.58h10.58v21.17h42.34V445.4h31.75v10.58h-10.58v10.58H319.5v10.58h21.17v10.58h-10.58v10.58v21.17h-31.75v10.58h116.42v10.58
		h42.34v-10.58h21.17v-10.58h-10.58v-10.58h21.17v-21.17h-21.17v-10.58h-10.58v-10.58h10.58v-10.58h10.58v10.58h31.75v-10.58V445.4
		h-10.58v-10.58h21.17v10.58h10.58h10.58v10.58h10.58V445.4h42.34v-21.17h52.92v-10.58h-10.58v-10.58h-10.58v-10.58H584.1v10.58
		h-21.17V381.9h52.92v-10.58h-52.92v-10.58h42.34v-10.58h-42.34v-10.58h31.75v-10.58h-42.34v10.58h-10.58v10.58h-10.58v10.58h21.17
		v10.58h-10.58v10.58h10.58v10.58h-52.92h-10.58V381.9h10.58h31.75v-10.58v-10.58H520.6v-10.58h10.58v-10.58h10.58v-10.58h10.58
		V318.4H520.6v10.58h-10.58V318.4h-42.34v21.17v21.17h10.58v-10.58h31.75v10.58h-21.17v10.58h-10.58v10.58h-31.75v10.58v21.17v10.58
		h10.58v10.58h-21.17v10.58h-10.58v-10.58h10.58v-10.58h-31.75v-10.58h-10.58v10.58h-10.58h-63.5v-10.58h42.34v-10.58v-10.58h10.58
		v10.58h21.17v-31.75h-21.17v-10.58h-84.67v10.58h-42.34v10.58h-21.17v10.58h42.34v10.58h-63.5v-10.58h-10.58V381.9h31.75v-10.58
		h10.58v-10.58h31.75v-21.17h31.75v-30.43v-1.32h21.17v10.58h-10.58v10.58h21.17v10.58h-31.75v10.58h52.92v-10.58h10.58v-10.58
		h-21.17V318.4h10.58v-10.58h21.17v-10.58h-42.34h-31.75v-10.58h-10.58h-10.58v10.58h-10.58v21.17H256v10.58v10.58h-21.17v-10.58
		h10.58V318.4h-21.17v-10.58h-21.17v-10.58h-10.58v10.58h-10.58v18.52v2.65h-10.58v-21.17h10.58v-10.58h10.58v-10.58h-42.34v21.17
		h-10.58v10.58H97.23v10.58h10.58v10.58v10.58h31.75v31.75h-31.75v10.58H97.23V381.9H54.9v10.58h10.58v10.58h10.58v-10.58h10.58
		v10.58h21.17h31.75v10.58v10.58h-10.58H97.23H76.07v-10.58H54.9v10.58H23.15v-10.58H12.56v-10.58H1.98H0v10.58h1.98v10.58H0v63.5
		h54.9V477.14z M510.01,414.31v-0.66h10.58v10.58h-10.58V414.31z M467.68,424.89v-0.66h10.58v10.58h-10.58V424.89z M446.51,530.06
		h-10.58v-9.92v-0.66h10.58V530.06z M435.93,467.22v-0.66h10.58v21.17h-10.58V467.22z M445.85,498.31h0.66v10.58h-21.17v-10.58
		H445.85z M414.76,477.81v-0.66h10.58v10.58h-10.58V477.81z M404.17,477.14v10.58h-21.17v10.58h10.58h21.17v10.58h-21.17h-10.58
		v-10.58h-10.58v-21.17H404.17z M351.25,455.98h41.67h0.66v10.58h-42.34V455.98z M65.48,435.47v-0.66h10.58v10.58H65.48V435.47z"/>
	<rect x="457.09" y="297.23" class="st1" width="10.58" height="21.17"/>
	<rect x="510.01" y="466.56" class="st1" width="10.58" height="10.58"/>
	<polygon class="st1" points="12.56,551.22 76.07,551.22 76.07,558.56 97.23,558.56 97.23,561.81 97.23,569.14 97.23,572.39 
		76.07,572.39 76.07,579.72 76.07,582.97 128.99,582.97 128.99,572.39 150.16,572.39 150.16,558.56 160.74,558.56 160.74,547.97 
		150.16,547.97 150.16,540.64 139.57,540.64 139.57,530.06 128.99,530.06 128.99,519.48 97.23,519.48 97.23,530.06 107.82,530.06 
		107.82,540.64 126.34,540.64 128.99,540.64 128.99,551.22 86.65,551.22 86.65,540.64 65.48,540.64 65.48,530.06 12.56,530.06 
		12.56,519.48 23.15,519.48 23.15,498.31 0,498.31 0,540.64 12.56,540.64 	"/>
	<rect x="86.65" y="530.06" class="st1" width="10.58" height="10.58"/>
	<polygon class="st1" points="425.34,360.73 435.93,360.73 435.93,350.15 393.59,350.15 393.59,339.57 383.01,339.57 383.01,360.73 
		393.59,360.73 393.59,371.31 425.34,371.31 	"/>
	<rect x="160.74" y="530.06" class="st1" width="52.92" height="7.33"/>
	<rect x="277.16" class="st1" width="21.17" height="0.91"/>
	<polygon class="st1" points="499.43,191.41 510.01,191.41 510.01,180.82 552.35,180.82 552.35,170.24 499.43,170.24 	"/>
	<path class="st1" d="M308.92,0.91V11.5h-10.58v10.58h21.17h10.58v10.58h10.58v10.58h10.58V32.66h42.34V22.08V11.5V0.91h21.17V11.5
		h-10.58v10.58h42.34V11.5h10.58V0.91h21.17V11.5h10.58v21.17h21.17V11.5h-10.58V0.91h21.17V0H319.5v0.91H308.92z M361.84,0.91h9.92
		h0.66V11.5h-10.58V0.91z"/>
	<path class="st1" d="M12.56,244.32h21.17v-10.58H54.9v-10.58h42.34v-10.58v-10.58H44.31v-21.17h21.17v-10.58v-10.58h10.58v10.58
		v21.17h21.17v-10.58h21.17v-21.17h31.75v10.58h21.17v21.17h-31.75v10.58H118.4v10.58h31.75v-10.58h31.75v10.58h21.17v-10.58h10.58
		v-21.17h-10.58v-10.58h10.58v-10.58h10.58v-10.58h52.92h10.58v10.58h10.58v10.58h-10.58v21.17h-10.58h-10.58v-10.58H256v-10.58
		v-10.58h-10.58v10.58h-21.17v10.58h21.17v10.58H256v21.17h-10.58v10.58h-10.58v21.17v10.58h-10.58v10.58H256v21.17h10.58v-10.58
		h10.58h10.58v-10.58V254.9h-21.17v-10.58H256v-10.58h10.58v-10.58h10.58v10.58h21.17v-21.17h10.58v-10.58h42.34v21.17h-10.58v10.58
		h-10.58v-10.58H319.5v21.17h31.75v-10.58h10.58v10.58h10.58v10.58h10.58h10.58h31.75v-10.58h42.34v-10.58h21.17v9.92v0.66h10.58
		v10.58h-10.58v-9.92v-0.66h-21.17v10.58h-31.75v10.58h-10.58v10.58h21.17h10.58v-10.58h10.58h21.17v10.58h-10.58v10.58h10.58h31.75
		v10.58h42.34v-21.17h-21.17v-10.58h-10.58v-21.17h10.58v10.58h31.75v10.58h10.58v10.58h10.58v10.58h10.58v10.58h42.34v-10.58
		h-21.17v-10.58h42.34h21.17v-10.58h-31.75V254.9H584.1v-10.58h42.34v-31.75h10.58v21.17h21.17h31.75v-21.17h-10.58v10.58h-10.58
		v-21.17h-21.17v-10.58h-21.17v9.92v0.66h-10.58v-10.58h10.58v-10.58h-10.58v-10.58h-20.51h-0.66v-10.58h21.17v10.58h10.58v-10.58
		v-31.75v-10.58V96.16h21.17V74.99h31.75v10.58h10.58V74.99h9.17h1.42V64.41h-1.42V53.83h-30.34V43.24h-10.58v10.58v10.58h-10.58
		V53.83h-10.58v10.58h-21.17v10.58h-10.58v10.58h-10.58V74.99h10.58V53.83H584.1h-10.58v42.33h10.58v10.58h-10.58v-9.92v-0.66
		h-10.58v10.58h-10.58v10.58h9.92h0.66v10.58h-10.58v-10.58h-10.58v-10.58h10.58V96.16h-21.17v21.17h-21.17v-10.58h-10.58v10.58
		h-21.17v10.58h10.58v10.58h42.34v10.58h21.17v21.17h10.58v10.58h-10.58v10.58h-10.58v10.58h-10.58v-10.58H520.6v21.17h-21.17v10.58
		h-63.5h-10.58h-10.58v10.58h-21.17v-10.58h-10.58v-21.17h-10.58v-10.58v-10.58h-63.5v-21.17h10.58v-10.58h10.58v-10.58h-31.75
		v-10.58v-10.58h10.58v10.58h31.75h31.75v-10.58H319.5V96.16h-10.58V53.83h-21.17v10.58h-21.17V43.24H256h-10.58v10.58h-10.58v10.58
		h-10.58h-21.17V32.66h-21.17h-31.75V11.5h-10.58v9.92v0.66h-10.58V11.5h10.58V0.91h21.17V0H76.07v0.91H65.48v21.17h21.17v10.58
		h21.17v21.17H86.65v10.58h31.75V53.83h10.58v21.17h31.75v21.17h10.58v21.17h10.58V98.8v-2.65h10.58v10.58h10.58v10.58h10.58v10.58
		h-10.58v-10.58h-21.17v21.17h-10.58h-10.58v10.58h-21.17v-10.58h-63.5v-10.58H65.48v10.58H54.9v10.58H1.98v10.58H0v74.08h12.56
		V244.32z M584.1,117.99v-0.66h21.17v10.58H584.1V117.99z M573.52,202.65v-0.66h21.17v10.58h-21.17V202.65z M509.35,265.49h0.66
		v10.58h-10.58v-10.58H509.35z M277.16,96.82v-0.66h21.17v10.58h-21.17V96.82z M277.16,117.32h9.92h0.66v10.58h-10.58V117.32z
		 M245.41,138.49h-10.58v-9.92v-0.66h10.58V138.49z M266.58,127.91v10.58H256v-9.92v-0.66H266.58z M234.83,75.65v-0.66h10.58v10.58
		h-10.58V75.65z M224.24,106.74V96.16H256v10.58h-21.17v10.58h-10.58V106.74z M97.23,11.5H86.65V1.57V0.91h10.58V11.5z
		 M160.74,53.83h-10.58V43.24h9.92h0.66V53.83z M181.91,64.41h-10.58v-20.5v-0.66h10.58V64.41z M192.49,149.73v-0.66h10.58v10.58
		h-10.58V149.73z M1.98,191.41v-21.17h21.17v10.58H12.56v10.58H1.98z"/>
	<polygon class="st1" points="224.24,0.91 224.24,11.5 234.83,11.5 234.83,22.08 266.58,22.08 277.16,22.08 277.16,11.5 256,11.5 
		256,0.91 266.58,0.91 266.58,0 234.83,0 234.83,0.91 	"/>
	<rect x="605.27" y="22.08" class="st1" width="10.58" height="10.58"/>
	<polygon class="st1" points="531.18,0.91 531.18,11.5 605.27,11.5 615.86,11.5 615.86,22.08 626.44,22.08 626.44,11.5 689.94,11.5 
		689.94,22.08 699.11,22.08 700.53,22.08 700.53,0.91 699.11,0.91 679.36,0.91 679.36,0 552.35,0 552.35,0.91 	"/>
	<rect x="700.53" y="43.24" class="st1" width="19.75" height="10.58"/>
	<rect x="372.42" y="96.16" class="st1" width="10.58" height="21.17"/>
	<polygon class="st1" points="689.94,22.08 668.78,22.08 668.78,43.24 699.11,43.24 699.11,32.66 689.94,32.66 	"/>
	<rect x="647.61" y="32.66" class="st1" width="10.58" height="10.58"/>
	<rect x="76.07" y="117.32" class="st1" width="10.58" height="10.58"/>
	<rect x="139.57" y="117.32" class="st1" width="31.75" height="10.58"/>
	<polygon class="st1" points="668.78,96.16 658.19,96.16 658.19,106.74 679.36,106.74 679.36,85.58 668.78,85.58 	"/>
	<rect x="689.94" y="276.07" class="st1" width="10.58" height="10.58"/>
	<rect x="33.73" y="106.74" class="st1" width="31.75" height="10.58"/>
	<rect x="12.56" y="96.16" class="st1" width="21.17" height="10.58"/>
	<polygon class="st1" points="160.74,254.9 160.74,244.32 160.74,233.74 139.57,233.74 139.57,244.32 139.57,254.9 	"/>
	<rect x="128.99" y="254.9" class="st1" width="10.58" height="10.58"/>
	<polygon class="st1" points="139.57,498.31 139.57,487.73 128.99,487.73 128.99,498.31 131.63,498.31 	"/>
	<polygon class="st1" points="150.16,466.56 128.99,466.56 128.99,477.14 139.57,477.14 139.57,487.73 150.16,487.73 	"/>
	<rect x="224.24" y="477.14" class="st1" width="10.58" height="10.58"/>
	<rect x="234.83" y="487.73" class="st1" width="10.58" height="10.58"/>
	<rect x="192.49" y="498.31" class="st1" width="10.58" height="10.58"/>
	<polygon class="st1" points="192.49,487.73 203.08,487.73 203.08,477.14 171.32,477.14 171.32,498.31 192.49,498.31 	"/>
	<polygon class="st1" points="700.53,0.91 730.86,0.91 730.86,11.5 720.28,11.5 720.28,22.08 700.53,22.08 699.11,22.08 
		699.11,32.66 699.11,43.24 700.53,43.24 720.28,43.24 721.7,43.24 730.86,43.24 730.86,32.66 750,32.66 750,0 699.11,0 
		699.11,0.91 	"/>
	<polygon class="st1" points="699.11,53.83 699.11,64.41 700.53,64.41 709.7,64.41 709.7,74.99 741.45,74.99 741.45,64.41 
		720.28,64.41 720.28,53.83 700.53,53.83 	"/>
	<polygon class="st1" points="741.45,117.32 730.86,117.32 730.86,138.49 750,138.49 750,127.91 741.45,127.91 	"/>
	<polygon class="st1" points="709.7,413.65 711.11,413.65 730.86,413.65 730.86,455.98 720.28,455.98 720.28,466.56 721.7,466.56 
		730.86,466.56 730.86,477.14 721.7,477.14 700.53,477.14 689.94,477.14 688.53,477.14 688.53,487.73 689.94,487.73 699.11,487.73 
		699.11,498.31 741.45,498.31 741.45,487.73 750,487.73 750,424.23 741.45,424.23 741.45,414.31 741.45,413.65 750,413.65 
		750,403.06 709.7,403.06 	"/>
	<polygon class="st1" points="741.45,508.89 730.86,508.89 730.86,519.48 741.45,519.48 741.45,540.64 750,540.64 750,498.31 
		741.45,498.31 	"/>
	<polygon class="st1" points="720.28,138.49 689.94,138.49 677.94,138.49 677.94,149.07 688.53,149.07 688.53,159.66 667.36,159.66 
		667.36,170.24 677.94,170.24 677.94,191.41 699.11,191.41 699.11,180.82 709.7,180.82 709.7,191.41 741.45,191.41 741.45,201.99 
		720.28,201.99 720.28,212.57 699.11,212.57 699.11,223.15 709.7,223.15 709.7,244.32 720.28,244.32 720.28,233.74 750,233.74 
		750,159.66 720.28,159.66 	"/>
	<polygon class="st1" points="12.56,590.31 12.56,579.72 33.73,579.72 33.73,569.14 23.15,569.14 23.15,558.56 1.98,558.56 
		1.98,547.97 0,547.97 0,600 44.31,600 44.31,590.31 	"/>
	<polygon class="st1" points="256,590.31 256,579.72 256,569.14 224.24,569.14 224.24,558.56 203.08,558.56 203.08,551.22 
		203.08,547.97 213.66,547.97 213.66,540.64 213.66,537.39 160.74,537.39 150.16,537.39 150.16,540.64 150.16,547.97 160.74,547.97 
		160.74,558.56 150.16,558.56 150.16,572.39 150.16,579.72 139.57,579.72 139.57,590.31 76.07,590.31 76.07,600 160.74,600 
		160.74,590.31 171.32,590.31 171.32,579.72 181.91,579.72 181.91,590.31 192.49,590.31 192.49,579.72 203.08,579.72 203.08,590.31 
		234.83,590.31 234.83,600 266.58,600 266.58,590.31 	"/>
	<polygon class="st1" points="689.94,579.72 689.94,569.14 668.78,569.14 668.78,579.72 626.44,579.72 626.44,590.31 562.93,590.31 
		562.93,579.72 573.52,579.72 573.52,569.14 584.1,569.14 584.1,558.56 573.52,558.56 562.93,558.56 562.93,561.81 562.93,569.14 
		552.35,569.14 552.35,579.72 510.01,579.72 510.01,590.31 478.26,590.31 478.26,579.72 467.68,579.72 467.68,569.14 435.93,569.14 
		435.93,579.72 425.34,579.72 425.34,569.14 425.34,558.56 414.76,558.56 404.17,558.56 404.17,561.81 404.17,569.14 393.59,569.14 
		393.59,579.72 414.76,579.72 414.76,590.31 351.25,590.31 351.25,579.72 361.84,579.72 361.84,569.14 340.67,569.14 340.67,579.72 
		266.58,579.72 266.58,590.31 277.16,590.31 277.16,600 298.33,600 298.33,590.31 319.5,590.31 319.5,600 520.6,600 520.6,590.31 
		552.35,590.31 552.35,600 679.36,600 679.36,579.72 	"/>
	<polygon class="st1" points="709.7,558.56 730.86,558.56 730.86,569.14 709.7,569.14 709.7,579.72 699.11,579.72 699.11,600 
		750,600 750,547.97 709.7,547.97 	"/>
</g>
</svg>
