<svg xmlns="http://www.w3.org/2000/svg" xmlns:xlink="http://www.w3.org/1999/xlink" id="Layer_1" x="0" y="0" version="1.1" viewBox="0 0 1920 1080" xml:space="preserve" style="enable-background:new 0 0 1920 1080"><style type="text/css">.st0{display:none}.st1{display:inline}.st2{fill:url(#SVGID_1_)}.st40{display:none}.st40,.st41{fill:#00f}.st42{display:inline}.st42,.st43{fill:#f0f}</style><g class="st0"><g class="st1"><linearGradient id="SVGID_1_" x1="1664.775" x2="1985.075" y1="165.075" y2="-155.225" gradientTransform="matrix(1 0 0 1 0 980)" gradientUnits="userSpaceOnUse"><stop offset="0" style="stop-color:#f0f"/><stop offset=".5" style="stop-color:red"/><stop offset="1" style="stop-color:#ff0"/></linearGradient><polygon points="1584.7 1065 1905 1065 1905 744.7" class="st2"/><linearGradient id="SVGID_00000016787693594468904350000012174749442840438449_" x1="1744.85" x2="1905" y1="-75.15" y2="85" gradientTransform="matrix(1 0 0 1 0 980)" gradientUnits="userSpaceOnUse"><stop offset=".5" style="stop-color:#000;stop-opacity:0"/><stop offset="1" style="stop-color:#000"/></linearGradient><polygon style="fill:url(#SVGID_00000016787693594468904350000012174749442840438449_)" points="1584.7 1065 1905 1065 1905 744.7"/><linearGradient id="SVGID_00000127752649478177427670000000608610479617722798_" x1="1744.85" x2="1905" y1="-75.15" y2="85" gradientTransform="matrix(1 0 0 1 0 980)" gradientUnits="userSpaceOnUse"><stop offset="0" style="stop-color:#fff"/><stop offset=".5" style="stop-color:#fafafa;stop-opacity:0"/></linearGradient><polygon style="fill:url(#SVGID_00000127752649478177427670000000608610479617722798_)" points="1584.7 1065 1905 1065 1905 744.7"/></g><g class="st1"><linearGradient id="SVGID_00000044150098171797284950000003050024762925881767_" x1="5374.775" x2="5054.475" y1="-155.225" y2="165.075" gradientTransform="matrix(-1 0 0 1 5309.7002 980)" gradientUnits="userSpaceOnUse"><stop offset="0" style="stop-color:#0f0"/><stop offset=".5" style="stop-color:#0ff"/><stop offset="1" style="stop-color:#00f"/></linearGradient><polygon style="fill:url(#SVGID_00000044150098171797284950000003050024762925881767_)" points="15 744.7 15 1065 335.3 1065"/><linearGradient id="SVGID_00000174574128877525048490000007488378252392538015_" x1="5134.55" x2="5294.7" y1="-75.15" y2="85" gradientTransform="matrix(-1 0 0 1 5309.7002 980)" gradientUnits="userSpaceOnUse"><stop offset=".5" style="stop-color:#000;stop-opacity:0"/><stop offset="1" style="stop-color:#000"/></linearGradient><polygon style="fill:url(#SVGID_00000174574128877525048490000007488378252392538015_)" points="15 744.7 15 1065 335.3 1065"/><linearGradient id="SVGID_00000016796199837583275370000014028280958915154873_" x1="5134.55" x2="5294.7" y1="-75.15" y2="85" gradientTransform="matrix(-1 0 0 1 5309.7002 980)" gradientUnits="userSpaceOnUse"><stop offset="0" style="stop-color:#fff"/><stop offset=".5" style="stop-color:#fff;stop-opacity:0"/></linearGradient><polygon style="fill:url(#SVGID_00000016796199837583275370000014028280958915154873_)" points="15 744.7 15 1065 335.3 1065"/></g><g class="st1"><g><g><defs><polygon id="SVGID_00000124859370340904455070000013794747640298072218_" points="1411.7 643 1905 643 1905 149.7"/></defs><clipPath id="SVGID_00000182502785885035203430000017701056785506894768_"><use xlink:href="#SVGID_00000124859370340904455070000013794747640298072218_" style="overflow:visible"/></clipPath><polygon style="clip-path:url(#SVGID_00000182502785885035203430000017701056785506894768_);fill:#090709" points="1396.7 658 1920 658 1920 134.7"/></g></g><g><g><defs><polygon id="SVGID_00000074419116868159914490000003016631635640091302_" points="1411.7 643 1905 643 1905 149.7"/></defs><clipPath id="SVGID_00000123399675649640364750000003062546720539824534_"><use xlink:href="#SVGID_00000074419116868159914490000003016631635640091302_" style="overflow:visible"/></clipPath><g style="clip-path:url(#SVGID_00000123399675649640364750000003062546720539824534_);enable-background:new"><image style="overflow:visible;enable-background:new" width="2048" height="1362" transform="matrix(0.2218 0 0 0.2218 1432.3138 340.8484)" xlink:href="../../../../../Downloads/drummers.jpg"/></g></g></g><g><g><defs><polygon id="SVGID_00000041258769294795685890000015636590821901372815_" points="1411.7 643 1905 643 1905 149.7"/></defs><clipPath id="SVGID_00000106135387146260868890000005602113205913083820_"><use xlink:href="#SVGID_00000041258769294795685890000015636590821901372815_" style="overflow:visible"/></clipPath><g style="clip-path:url(#SVGID_00000106135387146260868890000005602113205913083820_);enable-background:new"><image style="overflow:visible;enable-background:new" width="2048" height="1362" transform="matrix(0.2218 0 0 0.2218 1454.3138 340.8484)" xlink:href="../../../../../Downloads/drummers.jpg"/></g></g></g><g><g><defs><polygon id="SVGID_00000011717846278578218880000017910380257434185115_" points="1411.7 643 1905 643 1905 149.7"/></defs><clipPath id="SVGID_00000139988869434042736390000007285621681151690410_"><use xlink:href="#SVGID_00000011717846278578218880000017910380257434185115_" style="overflow:visible"/></clipPath><g style="clip-path:url(#SVGID_00000139988869434042736390000007285621681151690410_);enable-background:new"><image style="overflow:visible;enable-background:new" width="2048" height="1362" transform="matrix(0.2218 0 0 0.2218 1473.3138 340.8484)" xlink:href="../../../../../Downloads/drummers.jpg"/></g></g></g><g><g><defs><polygon id="SVGID_00000095321973108600526530000013149869304173710977_" points="1411.7 643 1905 643 1905 149.7"/></defs><clipPath id="SVGID_00000127732769330844415200000011617758923541168041_"><use xlink:href="#SVGID_00000095321973108600526530000013149869304173710977_" style="overflow:visible"/></clipPath><g style="clip-path:url(#SVGID_00000127732769330844415200000011617758923541168041_);enable-background:new"><image style="overflow:visible;enable-background:new" width="2048" height="1362" transform="matrix(0.2218 0 0 0.2218 1493.3138 340.8484)" xlink:href="../../../../../Downloads/drummers.jpg"/></g></g></g><g><g><defs><polygon id="SVGID_00000050637928328668947250000005915881968970297985_" points="1411.7 643 1905 643 1905 149.7"/></defs><clipPath id="SVGID_00000144324729215552302620000016807138805214130096_"><use xlink:href="#SVGID_00000050637928328668947250000005915881968970297985_" style="overflow:visible"/></clipPath><g style="clip-path:url(#SVGID_00000144324729215552302620000016807138805214130096_);enable-background:new"><image style="overflow:visible;enable-background:new" width="2048" height="1362" transform="matrix(0.2218 0 0 0.2218 1513.3138 340.8484)" xlink:href="../../../../../Downloads/drummers.jpg"/></g></g></g></g><g class="st1"><g><g><defs><polygon id="SVGID_00000166660488026561774000000010036301522864637323_" points="1372.8 703 1010.9 1065 1521.2 1065 1883.1 703"/></defs><clipPath id="SVGID_00000098939274072522062240000014690124100782289792_"><use xlink:href="#SVGID_00000166660488026561774000000010036301522864637323_" style="overflow:visible"/></clipPath><g style="clip-path:url(#SVGID_00000098939274072522062240000014690124100782289792_)"><image style="overflow:visible;enable-background:new" width="1686" height="1125" transform="matrix(0.4635 0 0 0.4635 1096 525.4)" xlink:href="../../../../../Downloads/217158076_4148136661934558_783972346646775842_n.jpg"/></g></g></g><g><g><defs><polygon id="SVGID_00000098905051171160890320000018057502228782543778_" points="1372.8 703 1010.9 1065 1521.2 1065 1883.1 703"/></defs><clipPath id="SVGID_00000124864015052152011720000014007727293054011560_"><use xlink:href="#SVGID_00000098905051171160890320000018057502228782543778_" style="overflow:visible"/></clipPath><g style="clip-path:url(#SVGID_00000124864015052152011720000014007727293054011560_)"><image style="overflow:visible;enable-background:new" width="1686" height="1125" transform="matrix(0.4635 0 0 0.4635 1009 553.4)" xlink:href="../../../../../Downloads/217158076_4148136661934558_783972346646775842_n.jpg"/></g></g></g><g><g><defs><polygon id="SVGID_00000128468188940527251750000018288606712197665215_" points="1372.8 703 1010.9 1065 1521.2 1065 1883.1 703"/></defs><clipPath id="SVGID_00000170979596048754504910000004306973275458383788_"><use xlink:href="#SVGID_00000128468188940527251750000018288606712197665215_" style="overflow:visible"/></clipPath><g style="clip-path:url(#SVGID_00000170979596048754504910000004306973275458383788_)"><image style="overflow:visible;enable-background:new" width="1686" height="1125" transform="matrix(0.4635 0 0 0.4635 1054 553.4)" xlink:href="../../../../../Downloads/217158076_4148136661934558_783972346646775842_n.jpg"/></g></g></g></g><g class="st1"><g><g><defs><polygon id="SVGID_00000083049040309111846040000008205924213618683047_" points="8 152.7 8 652 507.3 652"/></defs><clipPath id="SVGID_00000039124365739028648690000011730058739000039559_"><use xlink:href="#SVGID_00000083049040309111846040000008205924213618683047_" style="overflow:visible"/></clipPath><rect style="clip-path:url(#SVGID_00000039124365739028648690000011730058739000039559_);fill:#060606" width="345.3" height="238.8" x="-89.5" y="170.9"/></g></g><g><g><defs><polygon id="SVGID_00000103972720959018147780000003631663335166845869_" points="8 152.7 8 652 507.3 652"/></defs><clipPath id="SVGID_00000061439654580148489370000017321913733922282129_"><use xlink:href="#SVGID_00000103972720959018147780000003631663335166845869_" style="overflow:visible"/></clipPath><g style="clip-path:url(#SVGID_00000061439654580148489370000017321913733922282129_);enable-background:new"><image style="overflow:visible;enable-background:new" width="2048" height="1365" transform="matrix(0.2924 0 0 0.2924 -35.2645 243.9248)" xlink:href="../../../../../Downloads/217495088_4149867061761518_3154778973190753992_n.jpg"/></g></g></g></g><g class="st1"><g><g><defs><polygon id="SVGID_00000086650012459703908800000016512776395230034584_" points="15 693.9 395.1 1074.1 931 1074.1 550.9 693.9"/></defs><clipPath id="SVGID_00000061461875333252591030000006106676415691668873_"><use xlink:href="#SVGID_00000086650012459703908800000016512776395230034584_" style="overflow:visible"/></clipPath><g style="clip-path:url(#SVGID_00000061461875333252591030000006106676415691668873_);enable-background:new"><image style="overflow:visible;enable-background:new" width="2048" height="1365" transform="matrix(0.424 0 0 0.424 36.9 570)" xlink:href="../../../../../Downloads/215870492_4148138638601027_4538669978666226981_n.jpg"/></g></g></g></g><g class="st1"><g><g><defs><polygon id="SVGID_00000029744740414335214420000012094317596113877126_" points="1447 12.6 473 12.6 960 499.6"/></defs><clipPath id="SVGID_00000174580228876705134170000013175543524489016457_"><use xlink:href="#SVGID_00000029744740414335214420000012094317596113877126_" style="overflow:visible"/></clipPath><polygon style="clip-path:url(#SVGID_00000174580228876705134170000013175543524489016457_);fill:#0a0a0a" points="1472.3 0 447.7 0 960 512.3"/></g></g><g><g><defs><polygon id="SVGID_00000147205807407786770990000005520400622925674660_" points="1447 12.6 473 12.6 960 499.6"/></defs><clipPath id="SVGID_00000155140812731096843410000005722930524446159255_"><use xlink:href="#SVGID_00000147205807407786770990000005520400622925674660_" style="overflow:visible"/></clipPath><g style="clip-path:url(#SVGID_00000155140812731096843410000005722930524446159255_);enable-background:new"><image style="overflow:visible;enable-background:new" width="2048" height="1365" transform="matrix(0.3945 0 0 0.3945 556 -35.2859)" xlink:href="../../../../../Downloads/215742753_4149951961753028_8134700480740419261_n.jpg"/></g></g></g></g><g class="st1"><g><g><defs><polygon id="SVGID_00000065050555578558791890000010907865571693468573_" points="593.4 675.5 937.6 1019.7 937.6 542.5 593.4 198.3"/></defs><clipPath id="SVGID_00000005249215096856443430000010944609817251613884_"><use xlink:href="#SVGID_00000065050555578558791890000010907865571693468573_" style="overflow:visible"/></clipPath><polygon style="clip-path:url(#SVGID_00000005249215096856443430000010944609817251613884_);fill:#0a0a0a" points="586 678.3 945 1037.3 945 539.7 586 180.7"/></g></g><g><g><defs><polygon id="SVGID_00000018219075094742090840000014172523733114839717_" points="593.4 675.5 937.6 1019.7 937.6 542.5 593.4 198.3"/></defs><clipPath id="SVGID_00000139282246254350857610000013371724930522913170_"><use xlink:href="#SVGID_00000018219075094742090840000014172523733114839717_" style="overflow:visible"/></clipPath><g style="clip-path:url(#SVGID_00000139282246254350857610000013371724930522913170_);enable-background:new"><image style="overflow:visible;enable-background:new" width="2048" height="1365" transform="matrix(0.4834 0 0 0.4834 236.7532 341.1389)" xlink:href="../../../../../Downloads/217742642_4147065728708318_7572607277866642674_n.jpg"/></g></g></g></g><g class="st1"><g><g><defs><polygon id="SVGID_00000092427776717618103970000006819916243736133531_" points="1326.6 198.3 982.4 542.5 982.4 1019.7 1326.6 675.5"/></defs><clipPath id="SVGID_00000061445239474233964820000002176537938213058440_"><use xlink:href="#SVGID_00000092427776717618103970000006819916243736133531_" style="overflow:visible"/></clipPath><g transform="matrix(1 0 0 1 -6.103516e-05 0)" style="clip-path:url(#SVGID_00000061445239474233964820000002176537938213058440_)"><image style="overflow:visible;enable-background:new" width="2048" height="1365" transform="matrix(0.5743 0 0 0.5743 747.6 219.1237)" xlink:href="../../../../../Downloads/215339618_4144229282325296_4248557124656967950_n.jpg"/></g></g></g><g><g><defs><polygon id="SVGID_00000173848179175602702430000005574324161037125763_" points="1326.6 198.3 982.4 542.5 982.4 1019.7 1326.6 675.5"/></defs><clipPath id="SVGID_00000051380373497779847490000001546296413375584898_"><use xlink:href="#SVGID_00000173848179175602702430000005574324161037125763_" style="overflow:visible"/></clipPath><g transform="matrix(1 0 0 1 -6.103516e-05 0)" style="clip-path:url(#SVGID_00000051380373497779847490000001546296413375584898_)"><image style="overflow:visible;enable-background:new" width="2048" height="1365" transform="matrix(0.5743 0 0 0.5743 747.6 189.1237)" xlink:href="../../../../../Downloads/215339618_4144229282325296_4248557124656967950_n.jpg"/></g></g></g><g><g><defs><polygon id="SVGID_00000097499391253535957480000001690823157279902352_" points="1326.6 198.3 982.4 542.5 982.4 1019.7 1326.6 675.5"/></defs><clipPath id="SVGID_00000116229014300252056240000015559245260781948562_"><use xlink:href="#SVGID_00000097499391253535957480000001690823157279902352_" style="overflow:visible"/></clipPath><g style="clip-path:url(#SVGID_00000116229014300252056240000015559245260781948562_)"><image style="overflow:visible;enable-background:new" width="2048" height="1365" transform="matrix(0.5743 0 0 0.5743 750.6 141.1237)" xlink:href="../../../../../Downloads/215339618_4144229282325296_4248557124656967950_n.jpg"/></g></g></g></g><linearGradient id="SVGID_00000015323144429369043340000015819903944249202879_" x1="0" x2="556" y1="-655.85" y2="-655.85" gradientTransform="matrix(1 0 0 1 0 980)" gradientUnits="userSpaceOnUse"><stop offset="0" style="stop-color:#00beff"/><stop offset="1" style="stop-color:#fff"/></linearGradient><polygon style="display:inline;fill:url(#SVGID_00000015323144429369043340000015819903944249202879_)" points="556 150.7 405.3 0 0 0 0 92.3 556 648.3"/><linearGradient id="SVGID_00000018239571699658864760000009828258506508421816_" x1="1364" x2="1920" y1="-655.85" y2="-655.85" gradientTransform="matrix(1 0 0 1 0 980)" gradientUnits="userSpaceOnUse"><stop offset="0" style="stop-color:#fff"/><stop offset="1" style="stop-color:#00beff"/></linearGradient><polygon style="display:inline;fill:url(#SVGID_00000018239571699658864760000009828258506508421816_)" points="1514.7 0 1364 150.7 1364 648.3 1920 92.3 1920 0"/></g><g class="st0"><g class="st1"><linearGradient id="SVGID_00000132086111284324787910000007828372537598159498_" x1="1744.85" x2="1744.85" y1="-250.3" y2="100" gradientTransform="matrix(1 0 0 1 0 980)" gradientUnits="userSpaceOnUse"><stop offset="0" style="stop-color:#fff"/><stop offset="1" style="stop-color:#666"/></linearGradient><path style="fill:url(#SVGID_00000132086111284324787910000007828372537598159498_)" d="M1905,765.9V1065h-299.1L1905,765.9 M1920,729.7L1569.7,1080H1920V729.7L1920,729.7z"/></g><g class="st1"><linearGradient id="SVGID_00000011009900583346089640000004485917092749265558_" x1="175.15" x2="175.15" y1="-250.3" y2="100" gradientTransform="matrix(1 0 0 1 0 980)" gradientUnits="userSpaceOnUse"><stop offset="0" style="stop-color:#fff"/><stop offset="1" style="stop-color:#666"/></linearGradient><path style="fill:url(#SVGID_00000011009900583346089640000004485917092749265558_)" d="M15,765.9L314.1,1065H15V765.9 M0,729.7 V1080h350.3L0,729.7L0,729.7z"/></g><g class="st1"><linearGradient id="SVGID_00000019648669412630523040000011301744459346313621_" x1="1658.35" x2="1658.35" y1="-845.3" y2="-322" gradientTransform="matrix(1 0 0 1 0 980)" gradientUnits="userSpaceOnUse"><stop offset="0" style="stop-color:#fff"/><stop offset="1" style="stop-color:#666"/></linearGradient><path style="fill:url(#SVGID_00000019648669412630523040000011301744459346313621_)" d="M1905,170.9V643h-472.1L1905,170.9 M1920,134.7L1396.7,658H1920V134.7L1920,134.7z"/></g><g class="st1"><linearGradient id="SVGID_00000061443356556109541680000017393659385200798356_" x1="1447" x2="1447" y1="-292" y2="100" gradientTransform="matrix(1 0 0 1 0 980)" gradientUnits="userSpaceOnUse"><stop offset="0" style="stop-color:#fff"/><stop offset="1" style="stop-color:#666"/></linearGradient><path style="fill:url(#SVGID_00000061443356556109541680000017393659385200798356_)" d="M1883.1,703l-362,362H1011l362-362 H1883.1 M1919.3,688h-552.6l-392,392h552.6L1919.3,688L1919.3,688z"/></g><g class="st1"><linearGradient id="SVGID_00000011737738271316363660000006033328831502525850_" x1="261.65" x2="261.65" y1="-845.3" y2="-322" gradientTransform="matrix(1 0 0 1 0 980)" gradientUnits="userSpaceOnUse"><stop offset="0" style="stop-color:#fff"/><stop offset="1" style="stop-color:#666"/></linearGradient><path style="fill:url(#SVGID_00000011737738271316363660000006033328831502525850_)" d="M15,170.9L487.1,643H15V170.9 M0,134.7 V658h523.3L0,134.7L0,134.7z"/></g><g class="st1"><linearGradient id="SVGID_00000063616061042378678460000010173280045241013681_" x1="473" x2="473" y1="-292" y2="100" gradientTransform="matrix(1 0 0 1 0 980)" gradientUnits="userSpaceOnUse"><stop offset="0" style="stop-color:#fff"/><stop offset="1" style="stop-color:#666"/></linearGradient><path style="fill:url(#SVGID_00000063616061042378678460000010173280045241013681_)" d="M547.1,703l362,362H398.9l-362-362H547.1 M553.3,688H0.7l392,392h552.6L553.3,688L553.3,688z"/></g><g class="st1"><linearGradient id="SVGID_00000047048228810482841030000002616452652096865943_" x1="960" x2="960" y1="-980" y2="-467.7" gradientTransform="matrix(1 0 0 1 0 980)" gradientUnits="userSpaceOnUse"><stop offset="0" style="stop-color:#fff"/><stop offset="1" style="stop-color:#666"/></linearGradient><path style="fill:url(#SVGID_00000047048228810482841030000002616452652096865943_)" d="M1436.1,15L960,491.1L483.9,15H1436.1 M1472.3,0H447.7L960,512.3L1472.3,0L1472.3,0z"/></g><g class="st1"><linearGradient id="SVGID_00000008145425015958221840000018430940880927625113_" x1="765.5" x2="765.5" y1="-799.3" y2="57.3" gradientTransform="matrix(1 0 0 1 0 980)" gradientUnits="userSpaceOnUse"><stop offset="0" style="stop-color:#fff"/><stop offset="1" style="stop-color:#666"/></linearGradient><path style="fill:url(#SVGID_00000008145425015958221840000018430940880927625113_)" d="M601,216.9l329,329V1001L601,672V216.9 M586,180.7v497.6l359,359V539.7L586,180.7L586,180.7z"/></g><g class="st1"><linearGradient id="SVGID_00000136374176255781910710000003362702903211774893_" x1="1154.5" x2="1154.5" y1="-799.3" y2="57.3" gradientTransform="matrix(1 0 0 1 0 980)" gradientUnits="userSpaceOnUse"><stop offset="0" style="stop-color:#fff"/><stop offset="1" style="stop-color:#666"/></linearGradient><path style="fill:url(#SVGID_00000136374176255781910710000003362702903211774893_)" d="M1319,216.9V672l-329,329V545.9 L1319,216.9 M1334,180.7l-359,359v497.6l359-359V180.7L1334,180.7z"/></g><g class="st1"><linearGradient id="SVGID_00000142873870723975329520000004940005462236494780_" x1="278" x2="278" y1="-980" y2="-331.7" gradientTransform="matrix(1 0 0 1 0 980)" gradientUnits="userSpaceOnUse"><stop offset="0" style="stop-color:#fff"/><stop offset="1" style="stop-color:#666"/></linearGradient><path style="fill:url(#SVGID_00000142873870723975329520000004940005462236494780_)" d="M399.1,15L541,156.9V612L15,86.1V15 H399.1 M405.3,0H0v92.3l556,556V150.7L405.3,0L405.3,0z"/></g><g class="st1"><linearGradient id="SVGID_00000092432622230956254200000003015430529926975138_" x1="1642" x2="1642" y1="-980" y2="-331.7" gradientTransform="matrix(1 0 0 1 0 980)" gradientUnits="userSpaceOnUse"><stop offset="0" style="stop-color:#fff"/><stop offset="1" style="stop-color:#666"/></linearGradient><path style="fill:url(#SVGID_00000092432622230956254200000003015430529926975138_)" d="M1905,15v71.1l-526,526V156.9L1520.9,15 H1905 M1920,0h-405.3L1364,150.7v497.6l556-556V0L1920,0z"/></g></g><polygon points="441.2 1080 1478.8 1080 960 561.2" class="st40"/><polygon points="1478.8 0 441.2 0 960 518.8" class="st40"/><polygon points="923.8 555 0 555 0 1080 398.8 1080" class="st41"/><polygon points="996.2 555 1521.2 1080 1920 1080 1920 555" class="st41"/><polygon points="398.8 0 0 0 0 525 923.8 525" class="st41"/><polygon points="1521.2 0 996.2 525 1920 525 1920 0" class="st41"/><g class="st0"><rect width="30" height="1920" x="945" y="-420" class="st42" transform="matrix(0.7071 -0.7071 0.7071 0.7071 -100.6602 836.9846)"/><rect width="30" height="1920" x="945" y="-420" class="st42" transform="matrix(0.7071 0.7071 -0.7071 0.7071 663.0152 -520.6602)"/></g><g><rect width="30" height="1920" x="385" y="-420" class="st43" transform="matrix(0.7071 -0.7071 0.7071 0.7071 -264.6804 441.0049)"/><rect width="30" height="1920" x="385" y="-420" class="st43" transform="matrix(0.7071 0.7071 -0.7071 0.7071 498.995 -124.6804)"/></g><g><rect width="30" height="1920" x="1505" y="-420" class="st43" transform="matrix(0.7071 -0.7071 0.7071 0.7071 63.3599 1232.9644)"/><rect width="30" height="1920" x="1505" y="-420" class="st43" transform="matrix(0.7071 0.7071 -0.7071 0.7071 827.0355 -916.64)"/></g></svg>