<svg xmlns="http://www.w3.org/2000/svg" xmlns:xlink="http://www.w3.org/1999/xlink" id="Layer_1" x="0" y="0" version="1.1" viewBox="0 0 1920 1080" xml:space="preserve" style="enable-background:new 0 0 1920 1080"><style type="text/css">.st0{display:none}.st1{display:inline}.st2{fill:url(#SVGID_1_)}.st40{display:inline;fill:#00f}.st41{fill:#f0f}.st42{fill:#666}.st52{display:none;fill:#f0f}</style><g class="st0"><g class="st1"><linearGradient id="SVGID_1_" x1="1664.775" x2="1985.075" y1="-1102.925" y2="-1423.225" gradientTransform="matrix(1 0 0 1 0 2248)" gradientUnits="userSpaceOnUse"><stop offset="0" style="stop-color:#f0f"/><stop offset=".5" style="stop-color:red"/><stop offset="1" style="stop-color:#ff0"/></linearGradient><polygon points="1584.7 1065 1905 1065 1905 744.7" class="st2"/><linearGradient id="SVGID_00000142161249853355354120000007864617750117574806_" x1="1744.85" x2="1905" y1="-1343.15" y2="-1183" gradientTransform="matrix(1 0 0 1 0 2248)" gradientUnits="userSpaceOnUse"><stop offset=".5" style="stop-color:#000;stop-opacity:0"/><stop offset="1" style="stop-color:#000"/></linearGradient><polygon style="fill:url(#SVGID_00000142161249853355354120000007864617750117574806_)" points="1584.7 1065 1905 1065 1905 744.7"/><linearGradient id="SVGID_00000125565573788686088870000015163645645005936294_" x1="1744.85" x2="1905" y1="-1343.15" y2="-1183" gradientTransform="matrix(1 0 0 1 0 2248)" gradientUnits="userSpaceOnUse"><stop offset="0" style="stop-color:#fff"/><stop offset=".5" style="stop-color:#fafafa;stop-opacity:0"/></linearGradient><polygon style="fill:url(#SVGID_00000125565573788686088870000015163645645005936294_)" points="1584.7 1065 1905 1065 1905 744.7"/></g><g class="st1"><linearGradient id="SVGID_00000111889132324416936580000018368744034824093885_" x1="12938.775" x2="12618.476" y1="-1423.225" y2="-1102.925" gradientTransform="matrix(-1 0 0 1 12873.7002 2248)" gradientUnits="userSpaceOnUse"><stop offset="0" style="stop-color:#0f0"/><stop offset=".5" style="stop-color:#0ff"/><stop offset="1" style="stop-color:#00f"/></linearGradient><polygon style="fill:url(#SVGID_00000111889132324416936580000018368744034824093885_)" points="15 744.7 15 1065 335.3 1065"/><linearGradient id="SVGID_00000147187702600113594530000002000770738621405840_" x1="12698.55" x2="12858.7" y1="-1343.15" y2="-1183" gradientTransform="matrix(-1 0 0 1 12873.7002 2248)" gradientUnits="userSpaceOnUse"><stop offset=".5" style="stop-color:#000;stop-opacity:0"/><stop offset="1" style="stop-color:#000"/></linearGradient><polygon style="fill:url(#SVGID_00000147187702600113594530000002000770738621405840_)" points="15 744.7 15 1065 335.3 1065"/><linearGradient id="SVGID_00000127746750734586435890000001507596933096365722_" x1="12698.55" x2="12858.7" y1="-1343.15" y2="-1183" gradientTransform="matrix(-1 0 0 1 12873.7002 2248)" gradientUnits="userSpaceOnUse"><stop offset="0" style="stop-color:#fff"/><stop offset=".5" style="stop-color:#fff;stop-opacity:0"/></linearGradient><polygon style="fill:url(#SVGID_00000127746750734586435890000001507596933096365722_)" points="15 744.7 15 1065 335.3 1065"/></g><g class="st1"><g><g><g><g><g><g><g><g><defs><polygon id="SVGID_00000122693496417825778860000002088604869083031998_" points="1411.7 643 1905 643 1905 149.7"/></defs><clipPath id="SVGID_00000109007139241777595430000015175095944749875608_"><use xlink:href="#SVGID_00000122693496417825778860000002088604869083031998_" style="overflow:visible"/></clipPath><polygon style="clip-path:url(#SVGID_00000109007139241777595430000015175095944749875608_);fill:#090709" points="1396.7 658 1920 658 1920 134.7"/></g></g></g></g></g></g></g></g><g><g><g><g><g><g><g><g><defs><polygon id="SVGID_00000128481704295983446480000012114096879149453972_" points="1411.7 643 1905 643 1905 149.7"/></defs><clipPath id="SVGID_00000000924827244689494760000007317677932287270024_"><use xlink:href="#SVGID_00000128481704295983446480000012114096879149453972_" style="overflow:visible"/></clipPath><g style="clip-path:url(#SVGID_00000000924827244689494760000007317677932287270024_);enable-background:new"><image style="overflow:visible;enable-background:new" width="2048" height="1362" transform="matrix(0.2218 0 0 0.2218 1432.3138 340.8484)" xlink:href="../../../../../Downloads/drummers.jpg"/></g></g></g></g></g></g></g></g></g><g><g><g><g><g><g><g><g><defs><polygon id="SVGID_00000117639907247778147840000011764025438579070619_" points="1411.7 643 1905 643 1905 149.7"/></defs><clipPath id="SVGID_00000064344753944812880020000008389660114220775581_"><use xlink:href="#SVGID_00000117639907247778147840000011764025438579070619_" style="overflow:visible"/></clipPath><g style="clip-path:url(#SVGID_00000064344753944812880020000008389660114220775581_);enable-background:new"><image style="overflow:visible;enable-background:new" width="2048" height="1362" transform="matrix(0.2218 0 0 0.2218 1454.3138 340.8484)" xlink:href="../../../../../Downloads/drummers.jpg"/></g></g></g></g></g></g></g></g></g><g><g><g><g><g><g><g><g><defs><polygon id="SVGID_00000099626628842284064320000012299959919856066487_" points="1411.7 643 1905 643 1905 149.7"/></defs><clipPath id="SVGID_00000130623753753714098710000017414668636561964451_"><use xlink:href="#SVGID_00000099626628842284064320000012299959919856066487_" style="overflow:visible"/></clipPath><g style="clip-path:url(#SVGID_00000130623753753714098710000017414668636561964451_);enable-background:new"><image style="overflow:visible;enable-background:new" width="2048" height="1362" transform="matrix(0.2218 0 0 0.2218 1473.3138 340.8484)" xlink:href="../../../../../Downloads/drummers.jpg"/></g></g></g></g></g></g></g></g></g><g><g><g><g><g><g><g><g><defs><polygon id="SVGID_00000103950180513191855530000000496564900811280564_" points="1411.7 643 1905 643 1905 149.7"/></defs><clipPath id="SVGID_00000127035187560642909250000010317955691581223323_"><use xlink:href="#SVGID_00000103950180513191855530000000496564900811280564_" style="overflow:visible"/></clipPath><g style="clip-path:url(#SVGID_00000127035187560642909250000010317955691581223323_);enable-background:new"><image style="overflow:visible;enable-background:new" width="2048" height="1362" transform="matrix(0.2218 0 0 0.2218 1493.3138 340.8484)" xlink:href="../../../../../Downloads/drummers.jpg"/></g></g></g></g></g></g></g></g></g><g><g><g><g><g><g><g><g><defs><polygon id="SVGID_00000081617782971179168500000000228625674006228644_" points="1411.7 643 1905 643 1905 149.7"/></defs><clipPath id="SVGID_00000106836280216030936680000016319892892214619296_"><use xlink:href="#SVGID_00000081617782971179168500000000228625674006228644_" style="overflow:visible"/></clipPath><g style="clip-path:url(#SVGID_00000106836280216030936680000016319892892214619296_);enable-background:new"><image style="overflow:visible;enable-background:new" width="2048" height="1362" transform="matrix(0.2218 0 0 0.2218 1513.3138 340.8484)" xlink:href="../../../../../Downloads/drummers.jpg"/></g></g></g></g></g></g></g></g></g></g><g class="st1"><g><g><g><g><g><g><g><g><defs><polygon id="SVGID_00000171701376921988927960000016527624489959322760_" points="1372.8 703 1010.9 1065 1521.2 1065 1883.1 703"/></defs><clipPath id="SVGID_00000099648902358903712460000002867308170811468971_"><use xlink:href="#SVGID_00000171701376921988927960000016527624489959322760_" style="overflow:visible"/></clipPath><g style="clip-path:url(#SVGID_00000099648902358903712460000002867308170811468971_)"><image style="overflow:visible;enable-background:new" width="1686" height="1125" transform="matrix(0.4635 0 0 0.4635 1096 525.4)" xlink:href="../../../../../Downloads/217158076_4148136661934558_783972346646775842_n.jpg"/></g></g></g></g></g></g></g></g></g><g><g><g><g><g><g><g><g><defs><polygon id="SVGID_00000063635229028215049460000006328718772856958342_" points="1372.8 703 1010.9 1065 1521.2 1065 1883.1 703"/></defs><clipPath id="SVGID_00000111192672119835869060000017104301156579003272_"><use xlink:href="#SVGID_00000063635229028215049460000006328718772856958342_" style="overflow:visible"/></clipPath><g style="clip-path:url(#SVGID_00000111192672119835869060000017104301156579003272_)"><image style="overflow:visible;enable-background:new" width="1686" height="1125" transform="matrix(0.4635 0 0 0.4635 1009 553.4)" xlink:href="../../../../../Downloads/217158076_4148136661934558_783972346646775842_n.jpg"/></g></g></g></g></g></g></g></g></g><g><g><g><g><g><g><g><g><defs><polygon id="SVGID_00000129897898675412387720000017802652651780217735_" points="1372.8 703 1010.9 1065 1521.2 1065 1883.1 703"/></defs><clipPath id="SVGID_00000106138867214204427910000004762682156898648484_"><use xlink:href="#SVGID_00000129897898675412387720000017802652651780217735_" style="overflow:visible"/></clipPath><g style="clip-path:url(#SVGID_00000106138867214204427910000004762682156898648484_)"><image style="overflow:visible;enable-background:new" width="1686" height="1125" transform="matrix(0.4635 0 0 0.4635 1054 553.4)" xlink:href="../../../../../Downloads/217158076_4148136661934558_783972346646775842_n.jpg"/></g></g></g></g></g></g></g></g></g></g><g class="st1"><g><g><g><g><g><g><g><g><defs><polygon id="SVGID_00000120558916555954665620000006414416001443992479_" points="8 152.7 8 652 507.3 652"/></defs><clipPath id="SVGID_00000116932600063246183310000005578036954696586138_"><use xlink:href="#SVGID_00000120558916555954665620000006414416001443992479_" style="overflow:visible"/></clipPath><rect style="clip-path:url(#SVGID_00000116932600063246183310000005578036954696586138_);fill:#060606" width="345.3" height="238.8" x="-89.5" y="170.9"/></g></g></g></g></g></g></g></g><g><g><g><g><g><g><g><g><defs><polygon id="SVGID_00000090261699945924256500000012697626889141555615_" points="8 152.7 8 652 507.3 652"/></defs><clipPath id="SVGID_00000029733738640541839230000007285747231711088271_"><use xlink:href="#SVGID_00000090261699945924256500000012697626889141555615_" style="overflow:visible"/></clipPath><g style="clip-path:url(#SVGID_00000029733738640541839230000007285747231711088271_);enable-background:new"><image style="overflow:visible;enable-background:new" width="2048" height="1365" transform="matrix(0.2924 0 0 0.2924 -35.2645 243.9248)" xlink:href="../../../../../Downloads/217495088_4149867061761518_3154778973190753992_n.jpg"/></g></g></g></g></g></g></g></g></g></g><g class="st1"><g><g><g><g><g><g><g><g><defs><polygon id="SVGID_00000096758370215572657160000005410415797572275085_" points="15 693.9 395.1 1074.1 931 1074.1 550.9 693.9"/></defs><clipPath id="SVGID_00000075874429865404373640000006294170611477064340_"><use xlink:href="#SVGID_00000096758370215572657160000005410415797572275085_" style="overflow:visible"/></clipPath><g style="clip-path:url(#SVGID_00000075874429865404373640000006294170611477064340_);enable-background:new"><image style="overflow:visible;enable-background:new" width="2048" height="1365" transform="matrix(0.424 0 0 0.424 36.9 570)" xlink:href="../../../../../Downloads/215870492_4148138638601027_4538669978666226981_n.jpg"/></g></g></g></g></g></g></g></g></g></g><g class="st1"><g><g><g><g><g><g><g><g><defs><polygon id="SVGID_00000027585257456145566020000012793337259505280438_" points="1447 12.6 473 12.6 960 499.6"/></defs><clipPath id="SVGID_00000152228479163796777370000015293548352605202050_"><use xlink:href="#SVGID_00000027585257456145566020000012793337259505280438_" style="overflow:visible"/></clipPath><polygon style="clip-path:url(#SVGID_00000152228479163796777370000015293548352605202050_);fill:#0a0a0a" points="1472.3 0 447.7 0 960 512.3"/></g></g></g></g></g></g></g></g><g><g><g><g><g><g><g><g><defs><polygon id="SVGID_00000128479249592714129400000005309450109202612651_" points="1447 12.6 473 12.6 960 499.6"/></defs><clipPath id="SVGID_00000069359255936113153190000015890786790020173241_"><use xlink:href="#SVGID_00000128479249592714129400000005309450109202612651_" style="overflow:visible"/></clipPath><g style="clip-path:url(#SVGID_00000069359255936113153190000015890786790020173241_);enable-background:new"><image style="overflow:visible;enable-background:new" width="2048" height="1365" transform="matrix(0.3945 0 0 0.3945 556 -35.2859)" xlink:href="../../../../../Downloads/215742753_4149951961753028_8134700480740419261_n.jpg"/></g></g></g></g></g></g></g></g></g></g><g class="st1"><g><g><g><g><g><g><g><g><defs><polygon id="SVGID_00000098906010307258012730000003365881630642360472_" points="593.4 675.5 937.6 1019.7 937.6 542.5 593.4 198.3"/></defs><clipPath id="SVGID_00000024697761517381518380000001472642414188497561_"><use xlink:href="#SVGID_00000098906010307258012730000003365881630642360472_" style="overflow:visible"/></clipPath><polygon style="clip-path:url(#SVGID_00000024697761517381518380000001472642414188497561_);fill:#0a0a0a" points="586 678.3 945 1037.3 945 539.7 586 180.7"/></g></g></g></g></g></g></g></g><g><g><g><g><g><g><g><g><defs><polygon id="SVGID_00000114754564419721584190000003734159517081781377_" points="593.4 675.5 937.6 1019.7 937.6 542.5 593.4 198.3"/></defs><clipPath id="SVGID_00000040558847369532561450000009346784730686668191_"><use xlink:href="#SVGID_00000114754564419721584190000003734159517081781377_" style="overflow:visible"/></clipPath><g style="clip-path:url(#SVGID_00000040558847369532561450000009346784730686668191_);enable-background:new"><image style="overflow:visible;enable-background:new" width="2048" height="1365" transform="matrix(0.4834 0 0 0.4834 236.7532 341.1389)" xlink:href="../../../../../Downloads/217742642_4147065728708318_7572607277866642674_n.jpg"/></g></g></g></g></g></g></g></g></g></g><g class="st1"><g><g><g><g><g><g><g><g><defs><polygon id="SVGID_00000138557157553920048590000016866176734134677928_" points="1326.6 198.3 982.4 542.5 982.4 1019.7 1326.6 675.5"/></defs><clipPath id="SVGID_00000066514670583890784770000000720128050014458014_"><use xlink:href="#SVGID_00000138557157553920048590000016866176734134677928_" style="overflow:visible"/></clipPath><g transform="matrix(1 0 0 1 -6.103516e-05 0)" style="clip-path:url(#SVGID_00000066514670583890784770000000720128050014458014_)"><image style="overflow:visible;enable-background:new" width="2048" height="1365" transform="matrix(0.5743 0 0 0.5743 747.6 219.1237)" xlink:href="../../../../../Downloads/215339618_4144229282325296_4248557124656967950_n.jpg"/></g></g></g></g></g></g></g></g></g><g><g><g><g><g><g><g><g><defs><polygon id="SVGID_00000112622442179609647520000009999119350835091898_" points="1326.6 198.3 982.4 542.5 982.4 1019.7 1326.6 675.5"/></defs><clipPath id="SVGID_00000129174447439357291630000000719161608791607700_"><use xlink:href="#SVGID_00000112622442179609647520000009999119350835091898_" style="overflow:visible"/></clipPath><g transform="matrix(1 0 0 1 -6.103516e-05 0)" style="clip-path:url(#SVGID_00000129174447439357291630000000719161608791607700_)"><image style="overflow:visible;enable-background:new" width="2048" height="1365" transform="matrix(0.5743 0 0 0.5743 747.6 189.1237)" xlink:href="../../../../../Downloads/215339618_4144229282325296_4248557124656967950_n.jpg"/></g></g></g></g></g></g></g></g></g><g><g><g><g><g><g><g><g><defs><polygon id="SVGID_00000044170133494578538670000016649421450986593716_" points="1326.6 198.3 982.4 542.5 982.4 1019.7 1326.6 675.5"/></defs><clipPath id="SVGID_00000094603064100963063410000013378432285452652717_"><use xlink:href="#SVGID_00000044170133494578538670000016649421450986593716_" style="overflow:visible"/></clipPath><g style="clip-path:url(#SVGID_00000094603064100963063410000013378432285452652717_)"><image style="overflow:visible;enable-background:new" width="2048" height="1365" transform="matrix(0.5743 0 0 0.5743 750.6 141.1237)" xlink:href="../../../../../Downloads/215339618_4144229282325296_4248557124656967950_n.jpg"/></g></g></g></g></g></g></g></g></g></g><linearGradient id="SVGID_00000086660749029458190340000015365561203039419566_" x1="0" x2="556" y1="-1923.85" y2="-1923.85" gradientTransform="matrix(1 0 0 1 0 2248)" gradientUnits="userSpaceOnUse"><stop offset="0" style="stop-color:#00beff"/><stop offset="1" style="stop-color:#fff"/></linearGradient><polygon style="display:inline;fill:url(#SVGID_00000086660749029458190340000015365561203039419566_)" points="556 150.7 405.3 0 0 0 0 92.3 556 648.3"/><linearGradient id="SVGID_00000095337634376082242580000017185864053764382594_" x1="1364" x2="1920" y1="-1923.85" y2="-1923.85" gradientTransform="matrix(1 0 0 1 0 2248)" gradientUnits="userSpaceOnUse"><stop offset="0" style="stop-color:#fff"/><stop offset="1" style="stop-color:#00beff"/></linearGradient><polygon style="display:inline;fill:url(#SVGID_00000095337634376082242580000017185864053764382594_)" points="1514.7 0 1364 150.7 1364 648.3 1920 92.3 1920 0"/></g><g class="st0"><g class="st1"><linearGradient id="SVGID_00000018957966450246431490000008554646937755648898_" x1="1744.85" x2="1744.85" y1="-1518.3" y2="-1168" gradientTransform="matrix(1 0 0 1 0 2248)" gradientUnits="userSpaceOnUse"><stop offset="0" style="stop-color:#fff"/><stop offset="1" style="stop-color:#666"/></linearGradient><path style="fill:url(#SVGID_00000018957966450246431490000008554646937755648898_)" d="M1905,765.9V1065h-299.1L1905,765.9 M1920,729.7L1569.7,1080H1920V729.7L1920,729.7z"/></g><g class="st1"><linearGradient id="SVGID_00000079470037912348687430000011707946704709098371_" x1="175.15" x2="175.15" y1="-1518.3" y2="-1168" gradientTransform="matrix(1 0 0 1 0 2248)" gradientUnits="userSpaceOnUse"><stop offset="0" style="stop-color:#fff"/><stop offset="1" style="stop-color:#666"/></linearGradient><path style="fill:url(#SVGID_00000079470037912348687430000011707946704709098371_)" d="M15,765.9L314.1,1065H15V765.9 M0,729.7 V1080h350.3L0,729.7L0,729.7z"/></g><g class="st1"><linearGradient id="SVGID_00000103945554054015589500000006672390130051288474_" x1="1658.35" x2="1658.35" y1="-2113.3" y2="-1590" gradientTransform="matrix(1 0 0 1 0 2248)" gradientUnits="userSpaceOnUse"><stop offset="0" style="stop-color:#fff"/><stop offset="1" style="stop-color:#666"/></linearGradient><path style="fill:url(#SVGID_00000103945554054015589500000006672390130051288474_)" d="M1905,170.9V643h-472.1L1905,170.9 M1920,134.7L1396.7,658H1920V134.7L1920,134.7z"/></g><g class="st1"><linearGradient id="SVGID_00000080180171895993692350000000022883629603435143_" x1="1447" x2="1447" y1="-1560" y2="-1168" gradientTransform="matrix(1 0 0 1 0 2248)" gradientUnits="userSpaceOnUse"><stop offset="0" style="stop-color:#fff"/><stop offset="1" style="stop-color:#666"/></linearGradient><path style="fill:url(#SVGID_00000080180171895993692350000000022883629603435143_)" d="M1883.1,703l-362,362H1011l362-362 H1883.1 M1919.3,688h-552.6l-392,392h552.6L1919.3,688L1919.3,688z"/></g><g class="st1"><linearGradient id="SVGID_00000183927672701659350730000010502890204982353847_" x1="261.65" x2="261.65" y1="-2113.3" y2="-1590" gradientTransform="matrix(1 0 0 1 0 2248)" gradientUnits="userSpaceOnUse"><stop offset="0" style="stop-color:#fff"/><stop offset="1" style="stop-color:#666"/></linearGradient><path style="fill:url(#SVGID_00000183927672701659350730000010502890204982353847_)" d="M15,170.9L487.1,643H15V170.9 M0,134.7 V658h523.3L0,134.7L0,134.7z"/></g><g class="st1"><linearGradient id="SVGID_00000057831326312267473100000014443673210217601964_" x1="473" x2="473" y1="-1560" y2="-1168" gradientTransform="matrix(1 0 0 1 0 2248)" gradientUnits="userSpaceOnUse"><stop offset="0" style="stop-color:#fff"/><stop offset="1" style="stop-color:#666"/></linearGradient><path style="fill:url(#SVGID_00000057831326312267473100000014443673210217601964_)" d="M547.1,703l362,362H398.9l-362-362H547.1 M553.3,688H0.7l392,392h552.6L553.3,688L553.3,688z"/></g><g class="st1"><linearGradient id="SVGID_00000096771333292673481490000016063086782282348471_" x1="960" x2="960" y1="-2248" y2="-1735.7" gradientTransform="matrix(1 0 0 1 0 2248)" gradientUnits="userSpaceOnUse"><stop offset="0" style="stop-color:#fff"/><stop offset="1" style="stop-color:#666"/></linearGradient><path style="fill:url(#SVGID_00000096771333292673481490000016063086782282348471_)" d="M1436.1,15L960,491.1L483.9,15H1436.1 M1472.3,0H447.7L960,512.3L1472.3,0L1472.3,0z"/></g><g class="st1"><linearGradient id="SVGID_00000168836284996254854540000002542091742729863602_" x1="765.5" x2="765.5" y1="-2067.3" y2="-1210.7" gradientTransform="matrix(1 0 0 1 0 2248)" gradientUnits="userSpaceOnUse"><stop offset="0" style="stop-color:#fff"/><stop offset="1" style="stop-color:#666"/></linearGradient><path style="fill:url(#SVGID_00000168836284996254854540000002542091742729863602_)" d="M601,216.9l329,329V1001L601,672V216.9 M586,180.7v497.6l359,359V539.7L586,180.7L586,180.7z"/></g><g class="st1"><linearGradient id="SVGID_00000096748878645201244830000009902371745676629158_" x1="1154.5" x2="1154.5" y1="-2067.3" y2="-1210.7" gradientTransform="matrix(1 0 0 1 0 2248)" gradientUnits="userSpaceOnUse"><stop offset="0" style="stop-color:#fff"/><stop offset="1" style="stop-color:#666"/></linearGradient><path style="fill:url(#SVGID_00000096748878645201244830000009902371745676629158_)" d="M1319,216.9V672l-329,329V545.9 L1319,216.9 M1334,180.7l-359,359v497.6l359-359V180.7L1334,180.7z"/></g><g class="st1"><linearGradient id="SVGID_00000070813351509961371850000016970490415938018737_" x1="278" x2="278" y1="-2248" y2="-1599.7" gradientTransform="matrix(1 0 0 1 0 2248)" gradientUnits="userSpaceOnUse"><stop offset="0" style="stop-color:#fff"/><stop offset="1" style="stop-color:#666"/></linearGradient><path style="fill:url(#SVGID_00000070813351509961371850000016970490415938018737_)" d="M399.1,15L541,156.9V612L15,86.1V15 H399.1 M405.3,0H0v92.3l556,556V150.7L405.3,0L405.3,0z"/></g><g class="st1"><linearGradient id="SVGID_00000174572693703963260350000014250747735293648528_" x1="1642" x2="1642" y1="-2248" y2="-1599.7" gradientTransform="matrix(1 0 0 1 0 2248)" gradientUnits="userSpaceOnUse"><stop offset="0" style="stop-color:#fff"/><stop offset="1" style="stop-color:#666"/></linearGradient><path style="fill:url(#SVGID_00000174572693703963260350000014250747735293648528_)" d="M1905,15v71.1l-526,526V156.9L1520.9,15 H1905 M1920,0h-405.3L1364,150.7v497.6l556-556V0L1920,0z"/></g></g><g class="st0"><polygon points="441.2 1080 1478.8 1080 960 561.2" class="st40"/><polygon points="1478.8 0 441.2 0 960 518.8" class="st40"/><polygon points="923.8 555 0 555 0 1080 398.8 1080" class="st40"/><polygon points="996.2 555 1521.2 1080 1920 1080 1920 555" class="st40"/><polygon points="398.8 0 0 0 0 525 923.8 525" class="st40"/><g class="st1"><rect width="30" height="1920" x="945" y="-420" class="st41" transform="matrix(0.7071 -0.7071 0.7071 0.7071 -100.6605 836.9777)"/><rect width="1920" height="30" x="0" y="525" class="st41" transform="matrix(0.7071 -0.7071 0.7071 0.7071 -100.6576 836.9771)"/></g><g class="st1"><rect width="30" height="1920" x="385" y="-420" class="st41" transform="matrix(0.7071 -0.7071 0.7071 0.7071 -264.6788 441.0011)"/><rect width="1920" height="30" x="-560" y="525" class="st41" transform="matrix(0.7071 -0.7071 0.7071 0.7071 -264.677 441.0014)"/></g><g class="st1"><rect width="30" height="1920" x="1505" y="-420" class="st41" transform="matrix(0.7071 -0.7071 0.7071 0.7071 63.3578 1232.9545)"/><rect width="1920" height="30" x="560" y="525" class="st41" transform="matrix(0.7071 -0.7071 0.7071 0.7071 63.3618 1232.9526)"/></g><polygon points="1521.2 0 996.2 525 1920 525 1920 0" class="st40"/></g><g><g><polygon points="1743.8 1080 1920 1080 1920 81" class="st42"/><linearGradient id="SVGID_00000045580660998635102590000011540878777364578987_" x1="1831.9" x2="1831.9" y1="1575" y2="576" gradientTransform="matrix(1 0 0 -1 0 1656)" gradientUnits="userSpaceOnUse"><stop offset="0" style="stop-color:#bff"/><stop offset=".501" style="stop-color:#ffd"/><stop offset="1" style="stop-color:#069"/></linearGradient><path style="fill:url(#SVGID_00000045580660998635102590000011540878777364578987_)" d="M1905,252.4V1065h-143.3L1905,252.4 M1920,81l-176.2,999H1920V81L1920,81z"/></g><g><polygon points="944.8 1080 754.3 0 400.5 0 590.9 1080" class="st42"/><linearGradient id="SVGID_00000116230833980623970010000005228749234509438384_" x1="672.6" x2="672.6" y1="1656" y2="576" gradientTransform="matrix(1 0 0 -1 0 1656)" gradientUnits="userSpaceOnUse"><stop offset="0" style="stop-color:#bff"/><stop offset=".501" style="stop-color:#ffd"/><stop offset="1" style="stop-color:#069"/></linearGradient><path style="fill:url(#SVGID_00000116230833980623970010000005228749234509438384_)" d="M741.7,15l185.1,1050H603.5L418.4,15 H741.7 M754.3,0H400.5l190.4,1080h353.8L754.3,0L754.3,0z"/></g><g><polygon points="784.8 0 960 993.6 1135.2 0" class="st42"/><linearGradient id="SVGID_00000183938700447874759570000005477484578102063277_" x1="960" x2="960" y1="1656" y2="662.4" gradientTransform="matrix(1 0 0 -1 0 1656)" gradientUnits="userSpaceOnUse"><stop offset="0" style="stop-color:#bff"/><stop offset=".501" style="stop-color:#ffd"/><stop offset="1" style="stop-color:#069"/></linearGradient><path style="fill:url(#SVGID_00000183938700447874759570000005477484578102063277_)" d="M1117.3,15L960,907.2L802.7,15H1117.3 M1135.2,0H784.8L960,993.6L1135.2,0L1135.2,0z"/></g><g><g><g><defs><polygon id="SVGID_00000000217449099534661700000009039321424720285861_" points="206.5 1080 560.5 1080 370 0 16.2 0"/></defs><clipPath id="SVGID_00000031167488074349831600000012791412407426741386_"><use xlink:href="#SVGID_00000000217449099534661700000009039321424720285861_" style="overflow:visible"/></clipPath><g transform="matrix(1 -3.552714e-15 3.552714e-15 1 0 0)" style="clip-path:url(#SVGID_00000031167488074349831600000012791412407426741386_);enable-background:new"><image style="overflow:visible;enable-background:new" width="8256" height="5504" transform="matrix(7.775360e-09 0.1304 -0.1304 7.775360e-09 606.8778 1.1939)" xlink:href="../../../../../Desktop/Brad's Web Pictures/DSC_7395.JPG"/></g></g></g><linearGradient id="SVGID_00000180368863285147698670000017540482001416584112_" x1="288.35" x2="288.35" y1="1656" y2="576" gradientTransform="matrix(1 0 0 -1 0 1656)" gradientUnits="userSpaceOnUse"><stop offset="0" style="stop-color:#bff"/><stop offset=".501" style="stop-color:#ffd"/><stop offset="1" style="stop-color:#069"/></linearGradient><path style="fill:url(#SVGID_00000180368863285147698670000017540482001416584112_)" d="M357.4,15l185.1,1050H219.1L34,15H357.4 M370,0H16.2l190.3,1080h354L370,0L370,0z"/></g><g><polygon points="0 81.1 0 1080 176.1 1080" class="st42"/><linearGradient id="SVGID_00000127760378430037943780000015218017828553725833_" x1="88.05" x2="88.05" y1="1574.9" y2="576" gradientTransform="matrix(1 0 0 -1 0 1656)" gradientUnits="userSpaceOnUse"><stop offset="0" style="stop-color:#bff"/><stop offset=".501" style="stop-color:#ffd"/><stop offset="1" style="stop-color:#069"/></linearGradient><path style="fill:url(#SVGID_00000127760378430037943780000015218017828553725833_)" d="M15,252.5L158.3,1065H15V252.5 M0,81.1 V1080h176.1L0,81.1L0,81.1z"/></g><g><g><g><defs><polygon id="SVGID_00000151518991707228526890000005930300877345604021_" points="1903.8 0 1550 0 1359.5 1080 1713.4 1080"/></defs><clipPath id="SVGID_00000158718113905748305390000015155080088648707773_"><use xlink:href="#SVGID_00000151518991707228526890000005930300877345604021_" style="overflow:visible"/></clipPath><g transform="matrix(1 3.552714e-15 -3.552714e-15 1 0 0)" style="clip-path:url(#SVGID_00000158718113905748305390000015155080088648707773_);enable-background:new"><image style="overflow:visible;enable-background:new" width="8256" height="5504" transform="matrix(-7.799287e-09 0.1308 0.1308 7.799287e-09 1354.7927 -8.568484e-02)" xlink:href="../../../../../Desktop/Brad's Web Pictures/DSC_7459.JPG"/></g></g></g><linearGradient id="SVGID_00000148657402212112867630000006789271945282200715_" x1="1631.7" x2="1631.7" y1="1656" y2="576" gradientTransform="matrix(1 0 0 -1 0 1656)" gradientUnits="userSpaceOnUse"><stop offset="0" style="stop-color:#bff"/><stop offset=".501" style="stop-color:#ffd"/><stop offset="1" style="stop-color:#069"/></linearGradient><path style="fill:url(#SVGID_00000148657402212112867630000006789271945282200715_)" d="M1885.9,15l-185.1,1050h-323.4L1562.6,15 H1885.9 M1903.8,0H1550l-190.4,1080h353.9L1903.8,0L1903.8,0z"/></g><g><polygon points="1519.5 0 1165.7 0 975.2 1080 1329.1 1080" class="st42"/><linearGradient id="SVGID_00000104663910759603860550000018164070996385435034_" x1="1247.35" x2="1247.35" y1="1656" y2="576" gradientTransform="matrix(1 0 0 -1 0 1656)" gradientUnits="userSpaceOnUse"><stop offset="0" style="stop-color:#bff"/><stop offset=".501" style="stop-color:#ffd"/><stop offset="1" style="stop-color:#069"/></linearGradient><path style="fill:url(#SVGID_00000104663910759603860550000018164070996385435034_)" d="M1501.6,15l-185.1,1050H993.1L1178.2,15 H1501.6 M1519.5,0h-353.9L975.2,1080h353.9L1519.5,0L1519.5,0z"/></g></g><path d="M1300.8,266c-18.6-44-45.3-83.6-79.2-117.5c-34-34-73.5-60.6-117.5-79.2c-45.6-19.3-94-29.1-144-29.1	s-98.4,9.8-144,29.1c-44,18.6-83.6,45.3-117.5,79.2c-34,34-60.6,73.5-79.2,117.5c-19.3,45.6-29.1,94-29.1,144s9.8,98.4,29.1,144	c18.6,44,45.3,83.6,79.2,117.5c34,34,73.5,60.6,117.5,79.2c45.6,19.3,94,29.1,144,29.1s98.3-9.8,144-29.1	c44-18.6,83.6-45.3,117.5-79.2c34-34,60.6-73.5,79.2-117.5c19.3-45.6,29.1-94,29.1-144S1320.1,311.6,1300.8,266z" class="st52"/><image style="overflow:visible;enable-background:new" width="1110" height="1110" transform="matrix(0.6393 0 0 0.6393 605.2152 55.1876)" xlink:href="../../../../../Downloads/MBoCI_TribalSeal_EPS three color.png"/></svg>