<?xml version="1.0" encoding="utf-8"?>
<!-- Generator: Adobe Illustrator 26.0.1, SVG Export Plug-In . SVG Version: 6.00 Build 0)  -->
<svg version="1.1" id="Layer_1" xmlns="http://www.w3.org/2000/svg" xmlns:xlink="http://www.w3.org/1999/xlink" x="0px" y="0px"
	 viewBox="0 0 1920 1080" style="enable-background:new 0 0 1920 1080;" xml:space="preserve">
<style type="text/css">
	.st0{display:none;}
	.st1{display:inline;}
	.st2{fill:url(#SVGID_1_);}
	.st3{fill:url(#SVGID_00000121968899755721575810000007420784052788189602_);}
	.st4{fill:url(#SVGID_00000152224455533681857450000009600823855896369846_);}
	.st5{fill:url(#SVGID_00000170971678856109733220000013185517509022765698_);}
	.st6{fill:url(#SVGID_00000055705286931417246360000017585881776441702056_);}
	.st7{fill:url(#SVGID_00000072258000721768700760000010626513455506937510_);}
	.st8{clip-path:url(#SVGID_00000013176968206048012810000005997094893643757198_);fill:#090709;}
	.st9{clip-path:url(#SVGID_00000169559919668570181050000002747040791093099150_);enable-background:new    ;}
	.st10{clip-path:url(#SVGID_00000165939577085570433140000002236975639460501177_);enable-background:new    ;}
	.st11{clip-path:url(#SVGID_00000117660989188796412210000007085868012481718169_);enable-background:new    ;}
	.st12{clip-path:url(#SVGID_00000060025909002662001440000002433911026527360906_);enable-background:new    ;}
	.st13{clip-path:url(#SVGID_00000023964698505282064700000004123320379153733549_);enable-background:new    ;}
	.st14{clip-path:url(#SVGID_00000029039088842467277270000012324907234958193555_);}
	.st15{clip-path:url(#SVGID_00000065076218320791486590000004421996241487333252_);}
	.st16{clip-path:url(#SVGID_00000132088642680873476880000000058386033085501328_);}
	.st17{clip-path:url(#SVGID_00000163752344394498196530000007533674269162630817_);fill:#060606;}
	.st18{clip-path:url(#SVGID_00000041293253346919256700000003617634476256263604_);enable-background:new    ;}
	.st19{clip-path:url(#SVGID_00000058564429577876527200000015098294746707809951_);enable-background:new    ;}
	.st20{clip-path:url(#SVGID_00000072238243366595212390000005333424905768338833_);fill:#0A0A0A;}
	.st21{clip-path:url(#SVGID_00000039828204394419415730000017695439127272026506_);enable-background:new    ;}
	.st22{clip-path:url(#SVGID_00000064341695254084898930000002049458068758429103_);fill:#0A0A0A;}
	.st23{clip-path:url(#SVGID_00000145051586343133891960000010201771628444401588_);enable-background:new    ;}
	.st24{clip-path:url(#SVGID_00000008130236049759374500000008373781455854922673_);}
	.st25{clip-path:url(#SVGID_00000070815141327813495290000009636726643510768542_);}
	.st26{clip-path:url(#SVGID_00000134945263181680975480000001212816954720775062_);}
	.st27{display:inline;fill:url(#SVGID_00000169559631854257064440000004064602867848916865_);}
	.st28{display:inline;fill:url(#SVGID_00000111914311676968547190000004449392816445753765_);}
	.st29{fill:url(#SVGID_00000018945964250399879800000017865197598251392699_);}
	.st30{fill:url(#SVGID_00000122713940911258030090000014541044000419616401_);}
	.st31{fill:url(#SVGID_00000116234040656644056970000008308495917620432769_);}
	.st32{fill:url(#SVGID_00000091727861492170455790000012431561376811288511_);}
	.st33{fill:url(#SVGID_00000121247133011094997620000016170460089763878053_);}
	.st34{fill:url(#SVGID_00000107584626717597189310000012752383600626652565_);}
	.st35{fill:url(#SVGID_00000134216884819732127110000008628936008105495714_);}
	.st36{fill:url(#SVGID_00000026874126229605181270000016055015579242142878_);}
	.st37{fill:url(#SVGID_00000134949493554454143960000006774202841031243198_);}
	.st38{fill:url(#SVGID_00000176734285256511790520000009108129502230864029_);}
	.st39{fill:url(#SVGID_00000055703169293023276920000014218456501681138870_);}
	.st40{display:inline;fill:#0000FF;}
	.st41{fill:#FF00FF;}
	.st42{fill:url(#SVGID_00000058587599510848984860000014180571892861710746_);}
	.st43{fill:url(#SVGID_00000070113383882152364900000006328778851031337602_);}
	.st44{fill:url(#SVGID_00000149353752838878566540000011537376743122594999_);}
	.st45{fill:url(#SVGID_00000012432126442602082360000011804212609856677250_);}
	.st46{fill:url(#SVGID_00000165942855331081160330000018048327044673317823_);}
	.st47{fill:url(#SVGID_00000143577819376663015820000009841294722734895036_);}
	.st48{fill:url(#SVGID_00000026134980191785857780000016764501906572605064_);}
</style>
<g class="st0">
	<g class="st1">
		
			<linearGradient id="SVGID_1_" gradientUnits="userSpaceOnUse" x1="1664.7749" y1="914.925" x2="1985.075" y2="1235.225" gradientTransform="matrix(1 0 0 -1 0 2060)">
			<stop  offset="0" style="stop-color:#FF00FF"/>
			<stop  offset="0.5" style="stop-color:#FF0000"/>
			<stop  offset="1" style="stop-color:#FFFF00"/>
		</linearGradient>
		<polygon class="st2" points="1584.7,1065 1905,1065 1905,744.7 		"/>
		
			<linearGradient id="SVGID_00000105418949224353202280000002451475385722447518_" gradientUnits="userSpaceOnUse" x1="1744.85" y1="1155.15" x2="1905" y2="995" gradientTransform="matrix(1 0 0 -1 0 2060)">
			<stop  offset="0.5" style="stop-color:#000000;stop-opacity:0"/>
			<stop  offset="1" style="stop-color:#000000"/>
		</linearGradient>
		<polygon style="fill:url(#SVGID_00000105418949224353202280000002451475385722447518_);" points="1584.7,1065 1905,1065 
			1905,744.7 		"/>
		
			<linearGradient id="SVGID_00000125603452402872416000000009351623112280186289_" gradientUnits="userSpaceOnUse" x1="1744.85" y1="1155.15" x2="1905" y2="995" gradientTransform="matrix(1 0 0 -1 0 2060)">
			<stop  offset="0" style="stop-color:#FFFFFF"/>
			<stop  offset="0.5" style="stop-color:#FAFAFA;stop-opacity:0"/>
		</linearGradient>
		<polygon style="fill:url(#SVGID_00000125603452402872416000000009351623112280186289_);" points="1584.7,1065 1905,1065 
			1905,744.7 		"/>
	</g>
	<g class="st1">
		
			<linearGradient id="SVGID_00000113336168920091114150000002896107876004324009_" gradientUnits="userSpaceOnUse" x1="7194.7754" y1="1235.2251" x2="6874.4751" y2="914.925" gradientTransform="matrix(-1 0 0 -1 7129.7002 2060)">
			<stop  offset="0" style="stop-color:#00FF00"/>
			<stop  offset="0.5" style="stop-color:#00FFFF"/>
			<stop  offset="1" style="stop-color:#0000FF"/>
		</linearGradient>
		<polygon style="fill:url(#SVGID_00000113336168920091114150000002896107876004324009_);" points="15,744.7 15,1065 335.3,1065 		
			"/>
		
			<linearGradient id="SVGID_00000158013651459392463390000007496928769300178863_" gradientUnits="userSpaceOnUse" x1="6954.5498" y1="1155.1501" x2="7114.7002" y2="995.0002" gradientTransform="matrix(-1 0 0 -1 7129.7002 2060)">
			<stop  offset="0.5" style="stop-color:#000000;stop-opacity:0"/>
			<stop  offset="1" style="stop-color:#000000"/>
		</linearGradient>
		<polygon style="fill:url(#SVGID_00000158013651459392463390000007496928769300178863_);" points="15,744.7 15,1065 335.3,1065 		
			"/>
		
			<linearGradient id="SVGID_00000031166095123146271940000008299404930941148036_" gradientUnits="userSpaceOnUse" x1="6954.5498" y1="1155.1501" x2="7114.7002" y2="995.0002" gradientTransform="matrix(-1 0 0 -1 7129.7002 2060)">
			<stop  offset="0" style="stop-color:#FFFFFF"/>
			<stop  offset="0.5" style="stop-color:#FFFFFF;stop-opacity:0"/>
		</linearGradient>
		<polygon style="fill:url(#SVGID_00000031166095123146271940000008299404930941148036_);" points="15,744.7 15,1065 335.3,1065 		
			"/>
	</g>
	<g class="st1">
		<g>
			<g>
				<g>
					<defs>
						<polygon id="SVGID_00000054248270938460460260000008294879797679462543_" points="1411.7,643 1905,643 1905,149.7 						"/>
					</defs>
					<clipPath id="SVGID_00000113315387333658500250000004479529159387003277_">
						<use xlink:href="#SVGID_00000054248270938460460260000008294879797679462543_"  style="overflow:visible;"/>
					</clipPath>
					<polygon style="clip-path:url(#SVGID_00000113315387333658500250000004479529159387003277_);fill:#090709;" points="
						1396.7,658 1920,658 1920,134.7 					"/>
				</g>
			</g>
		</g>
		<g>
			<g>
				<g>
					<defs>
						<polygon id="SVGID_00000160895305477112804890000000060152552355085201_" points="1411.7,643 1905,643 1905,149.7 						"/>
					</defs>
					<clipPath id="SVGID_00000140013920105271828630000013741870127712780941_">
						<use xlink:href="#SVGID_00000160895305477112804890000000060152552355085201_"  style="overflow:visible;"/>
					</clipPath>
					<g style="clip-path:url(#SVGID_00000140013920105271828630000013741870127712780941_);enable-background:new    ;">
						
							<image style="overflow:visible;enable-background:new    ;" width="2048" height="1362" xlink:href="../../../../../Downloads/drummers.jpg"  transform="matrix(0.2218 0 0 0.2218 1432.3138 340.8484)">
						</image>
					</g>
				</g>
			</g>
		</g>
		<g>
			<g>
				<g>
					<defs>
						<polygon id="SVGID_00000079480178064686052010000009038909317005733510_" points="1411.7,643 1905,643 1905,149.7 						"/>
					</defs>
					<clipPath id="SVGID_00000147908148312512909500000004839018480473151650_">
						<use xlink:href="#SVGID_00000079480178064686052010000009038909317005733510_"  style="overflow:visible;"/>
					</clipPath>
					<g style="clip-path:url(#SVGID_00000147908148312512909500000004839018480473151650_);enable-background:new    ;">
						
							<image style="overflow:visible;enable-background:new    ;" width="2048" height="1362" xlink:href="../../../../../Downloads/drummers.jpg"  transform="matrix(0.2218 0 0 0.2218 1454.3138 340.8484)">
						</image>
					</g>
				</g>
			</g>
		</g>
		<g>
			<g>
				<g>
					<defs>
						<polygon id="SVGID_00000046334158480233386690000016699856416705476249_" points="1411.7,643 1905,643 1905,149.7 						"/>
					</defs>
					<clipPath id="SVGID_00000173139729646253414750000000775901272932262305_">
						<use xlink:href="#SVGID_00000046334158480233386690000016699856416705476249_"  style="overflow:visible;"/>
					</clipPath>
					<g style="clip-path:url(#SVGID_00000173139729646253414750000000775901272932262305_);enable-background:new    ;">
						
							<image style="overflow:visible;enable-background:new    ;" width="2048" height="1362" xlink:href="../../../../../Downloads/drummers.jpg"  transform="matrix(0.2218 0 0 0.2218 1473.3138 340.8484)">
						</image>
					</g>
				</g>
			</g>
		</g>
		<g>
			<g>
				<g>
					<defs>
						<polygon id="SVGID_00000178925847186063249740000012551521620991523984_" points="1411.7,643 1905,643 1905,149.7 						"/>
					</defs>
					<clipPath id="SVGID_00000084491358321565296260000001815843832148448643_">
						<use xlink:href="#SVGID_00000178925847186063249740000012551521620991523984_"  style="overflow:visible;"/>
					</clipPath>
					<g style="clip-path:url(#SVGID_00000084491358321565296260000001815843832148448643_);enable-background:new    ;">
						
							<image style="overflow:visible;enable-background:new    ;" width="2048" height="1362" xlink:href="../../../../../Downloads/drummers.jpg"  transform="matrix(0.2218 0 0 0.2218 1493.3138 340.8484)">
						</image>
					</g>
				</g>
			</g>
		</g>
		<g>
			<g>
				<g>
					<defs>
						<polygon id="SVGID_00000076571411878742380850000012542334623027902627_" points="1411.7,643 1905,643 1905,149.7 						"/>
					</defs>
					<clipPath id="SVGID_00000121976995762219937220000018373701733517263239_">
						<use xlink:href="#SVGID_00000076571411878742380850000012542334623027902627_"  style="overflow:visible;"/>
					</clipPath>
					<g style="clip-path:url(#SVGID_00000121976995762219937220000018373701733517263239_);enable-background:new    ;">
						
							<image style="overflow:visible;enable-background:new    ;" width="2048" height="1362" xlink:href="../../../../../Downloads/drummers.jpg"  transform="matrix(0.2218 0 0 0.2218 1513.3138 340.8484)">
						</image>
					</g>
				</g>
			</g>
		</g>
	</g>
	<g class="st1">
		<g>
			<g>
				<g>
					<defs>
						<polygon id="SVGID_00000122001377548447203250000017866207629298461105_" points="1372.8,703 1010.9,1065 1521.2,1065 
							1883.1,703 						"/>
					</defs>
					<clipPath id="SVGID_00000083047372800909815210000011831659026182586032_">
						<use xlink:href="#SVGID_00000122001377548447203250000017866207629298461105_"  style="overflow:visible;"/>
					</clipPath>
					<g style="clip-path:url(#SVGID_00000083047372800909815210000011831659026182586032_);">
						
							<image style="overflow:visible;enable-background:new    ;" width="1686" height="1125" xlink:href="../../../../../Downloads/217158076_4148136661934558_783972346646775842_n.jpg"  transform="matrix(0.4635 0 0 0.4635 1096 525.4)">
						</image>
					</g>
				</g>
			</g>
		</g>
		<g>
			<g>
				<g>
					<defs>
						<polygon id="SVGID_00000060022229561122715160000013045498098900866716_" points="1372.8,703 1010.9,1065 1521.2,1065 
							1883.1,703 						"/>
					</defs>
					<clipPath id="SVGID_00000051358719139814390010000015557396790849234308_">
						<use xlink:href="#SVGID_00000060022229561122715160000013045498098900866716_"  style="overflow:visible;"/>
					</clipPath>
					<g style="clip-path:url(#SVGID_00000051358719139814390010000015557396790849234308_);">
						
							<image style="overflow:visible;enable-background:new    ;" width="1686" height="1125" xlink:href="../../../../../Downloads/217158076_4148136661934558_783972346646775842_n.jpg"  transform="matrix(0.4635 0 0 0.4635 1009 553.4)">
						</image>
					</g>
				</g>
			</g>
		</g>
		<g>
			<g>
				<g>
					<defs>
						<polygon id="SVGID_00000098900426150108143290000010174605762933256364_" points="1372.8,703 1010.9,1065 1521.2,1065 
							1883.1,703 						"/>
					</defs>
					<clipPath id="SVGID_00000178927550252954738730000008757057624700897677_">
						<use xlink:href="#SVGID_00000098900426150108143290000010174605762933256364_"  style="overflow:visible;"/>
					</clipPath>
					<g style="clip-path:url(#SVGID_00000178927550252954738730000008757057624700897677_);">
						
							<image style="overflow:visible;enable-background:new    ;" width="1686" height="1125" xlink:href="../../../../../Downloads/217158076_4148136661934558_783972346646775842_n.jpg"  transform="matrix(0.4635 0 0 0.4635 1054 553.4)">
						</image>
					</g>
				</g>
			</g>
		</g>
	</g>
	<g class="st1">
		<g>
			<g>
				<g>
					<defs>
						<polygon id="SVGID_00000006672302654556075000000016482294188102382991_" points="8,152.7 8,652 507.3,652 						"/>
					</defs>
					<clipPath id="SVGID_00000096060992251514614620000000958515610635615378_">
						<use xlink:href="#SVGID_00000006672302654556075000000016482294188102382991_"  style="overflow:visible;"/>
					</clipPath>
					
						<rect x="-89.5" y="170.9" style="clip-path:url(#SVGID_00000096060992251514614620000000958515610635615378_);fill:#060606;" width="345.3" height="238.8"/>
				</g>
			</g>
		</g>
		<g>
			<g>
				<g>
					<defs>
						<polygon id="SVGID_00000002347983557432781230000007499191394739985306_" points="8,152.7 8,652 507.3,652 						"/>
					</defs>
					<clipPath id="SVGID_00000121990686528806009290000005883481395274972803_">
						<use xlink:href="#SVGID_00000002347983557432781230000007499191394739985306_"  style="overflow:visible;"/>
					</clipPath>
					<g style="clip-path:url(#SVGID_00000121990686528806009290000005883481395274972803_);enable-background:new    ;">
						
							<image style="overflow:visible;enable-background:new    ;" width="2048" height="1365" xlink:href="../../../../../Downloads/217495088_4149867061761518_3154778973190753992_n.jpg"  transform="matrix(0.2924 0 0 0.2924 -35.2645 243.9248)">
						</image>
					</g>
				</g>
			</g>
		</g>
	</g>
	<g class="st1">
		<g>
			<g>
				<g>
					<defs>
						<polygon id="SVGID_00000043457086606023527120000009105582985491973039_" points="15,693.9 395.1,1074.1 931,1074.1 
							550.9,693.9 						"/>
					</defs>
					<clipPath id="SVGID_00000116920192721210437650000009207155136419741617_">
						<use xlink:href="#SVGID_00000043457086606023527120000009105582985491973039_"  style="overflow:visible;"/>
					</clipPath>
					<g style="clip-path:url(#SVGID_00000116920192721210437650000009207155136419741617_);enable-background:new    ;">
						
							<image style="overflow:visible;enable-background:new    ;" width="2048" height="1365" xlink:href="../../../../../Downloads/215870492_4148138638601027_4538669978666226981_n.jpg"  transform="matrix(0.424 0 0 0.424 36.9 570)">
						</image>
					</g>
				</g>
			</g>
		</g>
	</g>
	<g class="st1">
		<g>
			<g>
				<g>
					<defs>
						<polygon id="SVGID_00000103983741655216060930000000507796332868446627_" points="1447,12.6 473,12.6 960,499.6 						"/>
					</defs>
					<clipPath id="SVGID_00000168112680205180403010000015776609061762685568_">
						<use xlink:href="#SVGID_00000103983741655216060930000000507796332868446627_"  style="overflow:visible;"/>
					</clipPath>
					<polygon style="clip-path:url(#SVGID_00000168112680205180403010000015776609061762685568_);fill:#0A0A0A;" points="1472.3,0 
						447.7,0 960,512.3 					"/>
				</g>
			</g>
		</g>
		<g>
			<g>
				<g>
					<defs>
						<polygon id="SVGID_00000169555209531659093310000002348633922714615453_" points="1447,12.6 473,12.6 960,499.6 						"/>
					</defs>
					<clipPath id="SVGID_00000111167676156802523010000006467934772416110986_">
						<use xlink:href="#SVGID_00000169555209531659093310000002348633922714615453_"  style="overflow:visible;"/>
					</clipPath>
					<g style="clip-path:url(#SVGID_00000111167676156802523010000006467934772416110986_);enable-background:new    ;">
						
							<image style="overflow:visible;enable-background:new    ;" width="2048" height="1365" xlink:href="../../../../../Downloads/215742753_4149951961753028_8134700480740419261_n.jpg"  transform="matrix(0.3945 0 0 0.3945 556 -35.2859)">
						</image>
					</g>
				</g>
			</g>
		</g>
	</g>
	<g class="st1">
		<g>
			<g>
				<g>
					<defs>
						<polygon id="SVGID_00000175280153024974875110000011232450203819372957_" points="593.4,675.5 937.6,1019.7 937.6,542.5 
							593.4,198.3 						"/>
					</defs>
					<clipPath id="SVGID_00000040557517574713087260000010697283816637627034_">
						<use xlink:href="#SVGID_00000175280153024974875110000011232450203819372957_"  style="overflow:visible;"/>
					</clipPath>
					<polygon style="clip-path:url(#SVGID_00000040557517574713087260000010697283816637627034_);fill:#0A0A0A;" points="586,678.3 
						945,1037.3 945,539.7 586,180.7 					"/>
				</g>
			</g>
		</g>
		<g>
			<g>
				<g>
					<defs>
						<polygon id="SVGID_00000031180965290541233670000016065696717287572137_" points="593.4,675.5 937.6,1019.7 937.6,542.5 
							593.4,198.3 						"/>
					</defs>
					<clipPath id="SVGID_00000033347234288574545110000012302869846530321836_">
						<use xlink:href="#SVGID_00000031180965290541233670000016065696717287572137_"  style="overflow:visible;"/>
					</clipPath>
					<g style="clip-path:url(#SVGID_00000033347234288574545110000012302869846530321836_);enable-background:new    ;">
						
							<image style="overflow:visible;enable-background:new    ;" width="2048" height="1365" xlink:href="../../../../../Downloads/217742642_4147065728708318_7572607277866642674_n.jpg"  transform="matrix(0.4834 0 0 0.4834 236.7532 341.1389)">
						</image>
					</g>
				</g>
			</g>
		</g>
	</g>
	<g class="st1">
		<g>
			<g>
				<g>
					<defs>
						<polygon id="SVGID_00000114758176964076760250000008512838729122835871_" points="1326.6,198.3 982.4,542.5 982.4,1019.7 
							1326.6,675.5 						"/>
					</defs>
					<clipPath id="SVGID_00000101069812212062628020000009123276486377621927_">
						<use xlink:href="#SVGID_00000114758176964076760250000008512838729122835871_"  style="overflow:visible;"/>
					</clipPath>
					
						<g transform="matrix(1 0 0 1 -6.103516e-05 0)" style="clip-path:url(#SVGID_00000101069812212062628020000009123276486377621927_);">
						
							<image style="overflow:visible;enable-background:new    ;" width="2048" height="1365" xlink:href="../../../../../Downloads/215339618_4144229282325296_4248557124656967950_n.jpg"  transform="matrix(0.5743 0 0 0.5743 747.6 219.1237)">
						</image>
					</g>
				</g>
			</g>
		</g>
		<g>
			<g>
				<g>
					<defs>
						<polygon id="SVGID_00000172411428390736364120000018403081797946531006_" points="1326.6,198.3 982.4,542.5 982.4,1019.7 
							1326.6,675.5 						"/>
					</defs>
					<clipPath id="SVGID_00000042727082220251329520000015673999309639189659_">
						<use xlink:href="#SVGID_00000172411428390736364120000018403081797946531006_"  style="overflow:visible;"/>
					</clipPath>
					
						<g transform="matrix(1 0 0 1 -6.103516e-05 0)" style="clip-path:url(#SVGID_00000042727082220251329520000015673999309639189659_);">
						
							<image style="overflow:visible;enable-background:new    ;" width="2048" height="1365" xlink:href="../../../../../Downloads/215339618_4144229282325296_4248557124656967950_n.jpg"  transform="matrix(0.5743 0 0 0.5743 747.6 189.1237)">
						</image>
					</g>
				</g>
			</g>
		</g>
		<g>
			<g>
				<g>
					<defs>
						<polygon id="SVGID_00000145768036448273158310000009499210666639869584_" points="1326.6,198.3 982.4,542.5 982.4,1019.7 
							1326.6,675.5 						"/>
					</defs>
					<clipPath id="SVGID_00000034810721520732411930000006091894253143099824_">
						<use xlink:href="#SVGID_00000145768036448273158310000009499210666639869584_"  style="overflow:visible;"/>
					</clipPath>
					<g style="clip-path:url(#SVGID_00000034810721520732411930000006091894253143099824_);">
						
							<image style="overflow:visible;enable-background:new    ;" width="2048" height="1365" xlink:href="../../../../../Downloads/215339618_4144229282325296_4248557124656967950_n.jpg"  transform="matrix(0.5743 0 0 0.5743 750.6 141.1237)">
						</image>
					</g>
				</g>
			</g>
		</g>
	</g>
	
		<linearGradient id="SVGID_00000003106903715716334460000014915659889085231493_" gradientUnits="userSpaceOnUse" x1="0" y1="1735.85" x2="556" y2="1735.85" gradientTransform="matrix(1 0 0 -1 0 2060)">
		<stop  offset="0" style="stop-color:#00BEFF"/>
		<stop  offset="1" style="stop-color:#FFFFFF"/>
	</linearGradient>
	<polygon style="display:inline;fill:url(#SVGID_00000003106903715716334460000014915659889085231493_);" points="556,150.7 
		405.3,0 0,0 0,92.3 556,648.3 	"/>
	
		<linearGradient id="SVGID_00000032625562319900487010000014580322035026425001_" gradientUnits="userSpaceOnUse" x1="1364" y1="1735.85" x2="1920" y2="1735.85" gradientTransform="matrix(1 0 0 -1 0 2060)">
		<stop  offset="0" style="stop-color:#FFFFFF"/>
		<stop  offset="1" style="stop-color:#00BEFF"/>
	</linearGradient>
	<polygon style="display:inline;fill:url(#SVGID_00000032625562319900487010000014580322035026425001_);" points="1514.7,0 
		1364,150.7 1364,648.3 1920,92.3 1920,0 	"/>
</g>
<g class="st0">
	<g class="st1">
		
			<linearGradient id="SVGID_00000020381988404981641120000009771380975151533465_" gradientUnits="userSpaceOnUse" x1="1744.85" y1="1330.3" x2="1744.85" y2="980" gradientTransform="matrix(1 0 0 -1 0 2060)">
			<stop  offset="0" style="stop-color:#FFFFFF"/>
			<stop  offset="1" style="stop-color:#666666"/>
		</linearGradient>
		<path style="fill:url(#SVGID_00000020381988404981641120000009771380975151533465_);" d="M1905,765.9V1065h-299.1L1905,765.9
			 M1920,729.7L1569.7,1080H1920V729.7L1920,729.7z"/>
	</g>
	<g class="st1">
		
			<linearGradient id="SVGID_00000018925096667572497040000008461555103633818271_" gradientUnits="userSpaceOnUse" x1="175.15" y1="1330.3" x2="175.15" y2="980" gradientTransform="matrix(1 0 0 -1 0 2060)">
			<stop  offset="0" style="stop-color:#FFFFFF"/>
			<stop  offset="1" style="stop-color:#666666"/>
		</linearGradient>
		<path style="fill:url(#SVGID_00000018925096667572497040000008461555103633818271_);" d="M15,765.9L314.1,1065H15V765.9 M0,729.7
			V1080h350.3L0,729.7L0,729.7z"/>
	</g>
	<g class="st1">
		
			<linearGradient id="SVGID_00000029009713609923134270000007038206813027757712_" gradientUnits="userSpaceOnUse" x1="1658.35" y1="1925.3" x2="1658.35" y2="1402" gradientTransform="matrix(1 0 0 -1 0 2060)">
			<stop  offset="0" style="stop-color:#FFFFFF"/>
			<stop  offset="1" style="stop-color:#666666"/>
		</linearGradient>
		<path style="fill:url(#SVGID_00000029009713609923134270000007038206813027757712_);" d="M1905,170.9V643h-472.1L1905,170.9
			 M1920,134.7L1396.7,658H1920V134.7L1920,134.7z"/>
	</g>
	<g class="st1">
		
			<linearGradient id="SVGID_00000078045552223302526350000014917862754785585582_" gradientUnits="userSpaceOnUse" x1="1447.0001" y1="1372" x2="1447.0001" y2="980" gradientTransform="matrix(1 0 0 -1 0 2060)">
			<stop  offset="0" style="stop-color:#FFFFFF"/>
			<stop  offset="1" style="stop-color:#666666"/>
		</linearGradient>
		<path style="fill:url(#SVGID_00000078045552223302526350000014917862754785585582_);" d="M1883.1,703l-362,362H1011l362-362
			H1883.1 M1919.3,688h-552.6l-392,392h552.6L1919.3,688L1919.3,688z"/>
	</g>
	<g class="st1">
		
			<linearGradient id="SVGID_00000136401000201721683470000012000455921659156120_" gradientUnits="userSpaceOnUse" x1="261.65" y1="1925.3" x2="261.65" y2="1402" gradientTransform="matrix(1 0 0 -1 0 2060)">
			<stop  offset="0" style="stop-color:#FFFFFF"/>
			<stop  offset="1" style="stop-color:#666666"/>
		</linearGradient>
		<path style="fill:url(#SVGID_00000136401000201721683470000012000455921659156120_);" d="M15,170.9L487.1,643H15V170.9 M0,134.7
			V658h523.3L0,134.7L0,134.7z"/>
	</g>
	<g class="st1">
		
			<linearGradient id="SVGID_00000060012109631927110190000006654355255150860446_" gradientUnits="userSpaceOnUse" x1="473" y1="1372" x2="473" y2="980" gradientTransform="matrix(1 0 0 -1 0 2060)">
			<stop  offset="0" style="stop-color:#FFFFFF"/>
			<stop  offset="1" style="stop-color:#666666"/>
		</linearGradient>
		<path style="fill:url(#SVGID_00000060012109631927110190000006654355255150860446_);" d="M547.1,703l362,362H398.9l-362-362H547.1
			 M553.3,688H0.7l392,392h552.6L553.3,688L553.3,688z"/>
	</g>
	<g class="st1">
		
			<linearGradient id="SVGID_00000097488422331917538810000003210887833403317932_" gradientUnits="userSpaceOnUse" x1="960" y1="2060" x2="960" y2="1547.7" gradientTransform="matrix(1 0 0 -1 0 2060)">
			<stop  offset="0" style="stop-color:#FFFFFF"/>
			<stop  offset="1" style="stop-color:#666666"/>
		</linearGradient>
		<path style="fill:url(#SVGID_00000097488422331917538810000003210887833403317932_);" d="M1436.1,15L960,491.1L483.9,15H1436.1
			 M1472.3,0H447.7L960,512.3L1472.3,0L1472.3,0z"/>
	</g>
	<g class="st1">
		
			<linearGradient id="SVGID_00000015326027925754210590000018053891557521036674_" gradientUnits="userSpaceOnUse" x1="765.5" y1="1879.3" x2="765.5" y2="1022.7" gradientTransform="matrix(1 0 0 -1 0 2060)">
			<stop  offset="0" style="stop-color:#FFFFFF"/>
			<stop  offset="1" style="stop-color:#666666"/>
		</linearGradient>
		<path style="fill:url(#SVGID_00000015326027925754210590000018053891557521036674_);" d="M601,216.9l329,329V1001L601,672V216.9
			 M586,180.7v497.6l359,359V539.7L586,180.7L586,180.7z"/>
	</g>
	<g class="st1">
		
			<linearGradient id="SVGID_00000090271867296461794050000014383532587070472100_" gradientUnits="userSpaceOnUse" x1="1154.5" y1="1879.3" x2="1154.5" y2="1022.7" gradientTransform="matrix(1 0 0 -1 0 2060)">
			<stop  offset="0" style="stop-color:#FFFFFF"/>
			<stop  offset="1" style="stop-color:#666666"/>
		</linearGradient>
		<path style="fill:url(#SVGID_00000090271867296461794050000014383532587070472100_);" d="M1319,216.9V672l-329,329V545.9
			L1319,216.9 M1334,180.7l-359,359v497.6l359-359V180.7L1334,180.7z"/>
	</g>
	<g class="st1">
		
			<linearGradient id="SVGID_00000121960761311827754570000013361419424798252700_" gradientUnits="userSpaceOnUse" x1="278" y1="2060" x2="278" y2="1411.7" gradientTransform="matrix(1 0 0 -1 0 2060)">
			<stop  offset="0" style="stop-color:#FFFFFF"/>
			<stop  offset="1" style="stop-color:#666666"/>
		</linearGradient>
		<path style="fill:url(#SVGID_00000121960761311827754570000013361419424798252700_);" d="M399.1,15L541,156.9V612L15,86.1V15
			H399.1 M405.3,0H0v92.3l556,556V150.7L405.3,0L405.3,0z"/>
	</g>
	<g class="st1">
		
			<linearGradient id="SVGID_00000029750491063510276720000004530081464068171140_" gradientUnits="userSpaceOnUse" x1="1642" y1="2060" x2="1642" y2="1411.7" gradientTransform="matrix(1 0 0 -1 0 2060)">
			<stop  offset="0" style="stop-color:#FFFFFF"/>
			<stop  offset="1" style="stop-color:#666666"/>
		</linearGradient>
		<path style="fill:url(#SVGID_00000029750491063510276720000004530081464068171140_);" d="M1905,15v71.1l-526,526V156.9L1520.9,15
			H1905 M1920,0h-405.3L1364,150.7v497.6l556-556V0L1920,0z"/>
	</g>
</g>
<g class="st0">
	<polygon class="st40" points="441.2,1080 1478.8,1080 960,561.2 	"/>
	<polygon class="st40" points="1478.8,0 441.2,0 960,518.8 	"/>
	<polygon class="st40" points="923.8,555 0,555 0,1080 398.8,1080 	"/>
	<polygon class="st40" points="996.2,555 1521.2,1080 1920,1080 1920,555 	"/>
	<polygon class="st40" points="398.8,0 0,0 0,525 923.8,525 	"/>
	<g class="st1">
		
			<rect x="945" y="-420" transform="matrix(0.7071 -0.7071 0.7071 0.7071 -100.665 836.9784)" class="st41" width="30" height="1920"/>
		
			<rect x="0" y="525" transform="matrix(0.7071 -0.7071 0.7071 0.7071 -100.6537 836.9799)" class="st41" width="1920" height="30"/>
	</g>
	<g class="st1">
		
			<rect x="385" y="-420" transform="matrix(0.7071 -0.7071 0.7071 0.7071 -264.6815 441.0002)" class="st41" width="30" height="1920"/>
		
			<rect x="-560" y="525" transform="matrix(0.7071 -0.7071 0.7071 0.7071 -264.6755 441.0039)" class="st41" width="1920" height="30"/>
	</g>
	<g class="st1">
		
			<rect x="1505" y="-420" transform="matrix(0.7071 -0.7071 0.7071 0.7071 63.3514 1232.9565)" class="st41" width="30" height="1920"/>
		
			<rect x="560" y="525" transform="matrix(0.7071 -0.7071 0.7071 0.7071 63.3681 1232.9559)" class="st41" width="1920" height="30"/>
	</g>
	<polygon class="st40" points="1521.2,0 996.2,525 1920,525 1920,0 	"/>
</g>
<g>
	<g>
		<polygon class="st41" points="1743.8,1080 1920,1080 1920,81 		"/>
		
			<linearGradient id="SVGID_00000179646067365072308050000013436120717043831715_" gradientUnits="userSpaceOnUse" x1="1831.924" y1="80.9957" x2="1831.924" y2="1080">
			<stop  offset="0" style="stop-color:#F5AB1B"/>
			<stop  offset="0.5013" style="stop-color:#B60000"/>
			<stop  offset="1" style="stop-color:#2A347E"/>
		</linearGradient>
		<path style="fill:url(#SVGID_00000179646067365072308050000013436120717043831715_);" d="M1905,252.4V1065h-143.3L1905,252.4
			 M1920,81l-176.2,999H1920V81L1920,81z"/>
	</g>
	<g>
		<polygon class="st41" points="944.8,1080 754.3,0 400.5,0 590.9,1080 		"/>
		
			<linearGradient id="SVGID_00000160150848660184012660000008966160513406324105_" gradientUnits="userSpaceOnUse" x1="672.6259" y1="0" x2="672.6259" y2="1080">
			<stop  offset="0" style="stop-color:#F5AB1B"/>
			<stop  offset="0.5013" style="stop-color:#B60000"/>
			<stop  offset="1" style="stop-color:#2A347E"/>
		</linearGradient>
		<path style="fill:url(#SVGID_00000160150848660184012660000008966160513406324105_);" d="M741.7,15l185.1,1050H603.5L418.4,15
			H741.7 M754.3,0H400.5l190.4,1080h353.8L754.3,0L754.3,0z"/>
	</g>
	<g>
		<polygon class="st41" points="784.8,0 960,993.6 1135.2,0 		"/>
		
			<linearGradient id="SVGID_00000101806699708671916750000003235786009601916320_" gradientUnits="userSpaceOnUse" x1="959.9948" y1="0" x2="959.9948" y2="993.5892">
			<stop  offset="0" style="stop-color:#F5AB1B"/>
			<stop  offset="0.5013" style="stop-color:#B60000"/>
			<stop  offset="1" style="stop-color:#2A347E"/>
		</linearGradient>
		<path style="fill:url(#SVGID_00000101806699708671916750000003235786009601916320_);" d="M1117.3,15L960,907.2L802.7,15H1117.3
			 M1135.2,0H784.8L960,993.6L1135.2,0L1135.2,0z"/>
	</g>
	<g>
		<polygon class="st41" points="206.5,1080 560.5,1080 370,0 16.2,0 		"/>
		
			<linearGradient id="SVGID_00000129917470946695102950000004313580940487558278_" gradientUnits="userSpaceOnUse" x1="288.3111" y1="-9.094947e-13" x2="288.3111" y2="1080">
			<stop  offset="0" style="stop-color:#F5AB1B"/>
			<stop  offset="0.5013" style="stop-color:#B60000"/>
			<stop  offset="1" style="stop-color:#2A347E"/>
		</linearGradient>
		<path style="fill:url(#SVGID_00000129917470946695102950000004313580940487558278_);" d="M357.4,15l185.1,1050H219.1L34,15H357.4
			 M370,0H16.2l190.3,1080h354L370,0L370,0z"/>
	</g>
	<g>
		<polygon class="st41" points="0,81.1 0,1080 176.1,1080 		"/>
		
			<linearGradient id="SVGID_00000014617123258976525900000017013428572645076912_" gradientUnits="userSpaceOnUse" x1="88.0697" y1="81.0656" x2="88.0697" y2="1080">
			<stop  offset="0" style="stop-color:#F5AB1B"/>
			<stop  offset="0.5013" style="stop-color:#B60000"/>
			<stop  offset="1" style="stop-color:#2A347E"/>
		</linearGradient>
		<path style="fill:url(#SVGID_00000014617123258976525900000017013428572645076912_);" d="M15,252.5L158.3,1065H15V252.5 M0,81.1
			V1080h176.1L0,81.1L0,81.1z"/>
	</g>
	<g>
		<polygon class="st41" points="1903.8,0 1550,0 1359.5,1080 1713.4,1080 		"/>
		
			<linearGradient id="SVGID_00000039093001346212043310000005752299471205048481_" gradientUnits="userSpaceOnUse" x1="1631.6764" y1="0" x2="1631.6764" y2="1080">
			<stop  offset="0" style="stop-color:#F5AB1B"/>
			<stop  offset="0.5013" style="stop-color:#B60000"/>
			<stop  offset="1" style="stop-color:#2A347E"/>
		</linearGradient>
		<path style="fill:url(#SVGID_00000039093001346212043310000005752299471205048481_);" d="M1885.9,15l-185.1,1050h-323.4L1562.6,15
			H1885.9 M1903.8,0H1550l-190.4,1080h353.9L1903.8,0L1903.8,0z"/>
	</g>
	<g>
		<polygon class="st41" points="1519.5,0 1165.7,0 975.2,1080 1329.1,1080 		"/>
		
			<linearGradient id="SVGID_00000168117155802533096660000002551501944126623421_" gradientUnits="userSpaceOnUse" x1="1247.3629" y1="0" x2="1247.3629" y2="1080">
			<stop  offset="0" style="stop-color:#F5AB1B"/>
			<stop  offset="0.5013" style="stop-color:#B60000"/>
			<stop  offset="1" style="stop-color:#2A347E"/>
		</linearGradient>
		<path style="fill:url(#SVGID_00000168117155802533096660000002551501944126623421_);" d="M1501.6,15l-185.1,1050H993.1L1178.2,15
			H1501.6 M1519.5,0h-353.9L975.2,1080h353.9L1519.5,0L1519.5,0z"/>
	</g>
</g>
<image style="overflow:visible;" width="1110" height="1110" xlink:href="../../../../../Downloads/MBoCI_TribalSeal_EPS three color.png"  transform="matrix(0.6393 0 0 0.6393 605.2152 19.1876)">
</image>
</svg>
