<svg xmlns="http://www.w3.org/2000/svg" xmlns:xlink="http://www.w3.org/1999/xlink" id="Layer_1" x="0" y="0" version="1.1" viewBox="0 0 1920 1080" xml:space="preserve" style="enable-background:new 0 0 1920 1080"><style type="text/css">.st0{display:none}.st1{display:inline}.st2{fill:url(#SVGID_1_)}.st40{display:inline;fill:#00f}.st41{fill:#f0f}.st42{fill:#666}.st50{display:none;fill:#f0f}</style><g class="st0"><g class="st1"><linearGradient id="SVGID_1_" x1="1664.775" x2="1985.075" y1="2182.925" y2="2503.225" gradientTransform="matrix(1 0 0 -1 0 3328)" gradientUnits="userSpaceOnUse"><stop offset="0" style="stop-color:#f0f"/><stop offset=".5" style="stop-color:red"/><stop offset="1" style="stop-color:#ff0"/></linearGradient><polygon points="1584.7 1065 1905 1065 1905 744.7" class="st2"/><linearGradient id="SVGID_00000054247919488851007410000017305102805661747880_" x1="1744.85" x2="1905" y1="2423.15" y2="2263" gradientTransform="matrix(1 0 0 -1 0 3328)" gradientUnits="userSpaceOnUse"><stop offset=".5" style="stop-color:#000;stop-opacity:0"/><stop offset="1" style="stop-color:#000"/></linearGradient><polygon style="fill:url(#SVGID_00000054247919488851007410000017305102805661747880_)" points="1584.7 1065 1905 1065 1905 744.7"/><linearGradient id="SVGID_00000101801391743543322700000005066924988665551524_" x1="1744.85" x2="1905" y1="2423.15" y2="2263" gradientTransform="matrix(1 0 0 -1 0 3328)" gradientUnits="userSpaceOnUse"><stop offset="0" style="stop-color:#fff"/><stop offset=".5" style="stop-color:#fafafa;stop-opacity:0"/></linearGradient><polygon style="fill:url(#SVGID_00000101801391743543322700000005066924988665551524_)" points="1584.7 1065 1905 1065 1905 744.7"/></g><g class="st1"><linearGradient id="SVGID_00000109747350078799598940000001786559094856836772_" x1="12938.775" x2="12618.476" y1="2503.225" y2="2182.925" gradientTransform="matrix(-1 0 0 -1 12873.7002 3328)" gradientUnits="userSpaceOnUse"><stop offset="0" style="stop-color:#0f0"/><stop offset=".5" style="stop-color:#0ff"/><stop offset="1" style="stop-color:#00f"/></linearGradient><polygon style="fill:url(#SVGID_00000109747350078799598940000001786559094856836772_)" points="15 744.7 15 1065 335.3 1065"/><linearGradient id="SVGID_00000154395316705099809730000015343573332788144275_" x1="12698.55" x2="12858.7" y1="2423.15" y2="2263" gradientTransform="matrix(-1 0 0 -1 12873.7002 3328)" gradientUnits="userSpaceOnUse"><stop offset=".5" style="stop-color:#000;stop-opacity:0"/><stop offset="1" style="stop-color:#000"/></linearGradient><polygon style="fill:url(#SVGID_00000154395316705099809730000015343573332788144275_)" points="15 744.7 15 1065 335.3 1065"/><linearGradient id="SVGID_00000070118387148987055330000004235213006570398645_" x1="12698.55" x2="12858.7" y1="2423.15" y2="2263" gradientTransform="matrix(-1 0 0 -1 12873.7002 3328)" gradientUnits="userSpaceOnUse"><stop offset="0" style="stop-color:#fff"/><stop offset=".5" style="stop-color:#fff;stop-opacity:0"/></linearGradient><polygon style="fill:url(#SVGID_00000070118387148987055330000004235213006570398645_)" points="15 744.7 15 1065 335.3 1065"/></g><g class="st1"><g><g><g><g><g><g><g><defs><polygon id="SVGID_00000139285532401704849380000016107281656855594405_" points="1411.7 643 1905 643 1905 149.7"/></defs><clipPath id="SVGID_00000119827354308735381130000014318791296776705965_"><use xlink:href="#SVGID_00000139285532401704849380000016107281656855594405_" style="overflow:visible"/></clipPath><polygon style="clip-path:url(#SVGID_00000119827354308735381130000014318791296776705965_);fill:#090709" points="1396.7 658 1920 658 1920 134.7"/></g></g></g></g></g></g></g><g><g><g><g><g><g><g><defs><polygon id="SVGID_00000058564122209088795180000001287419545259804301_" points="1411.7 643 1905 643 1905 149.7"/></defs><clipPath id="SVGID_00000012462490118762308530000013063953215300852648_"><use xlink:href="#SVGID_00000058564122209088795180000001287419545259804301_" style="overflow:visible"/></clipPath><g style="clip-path:url(#SVGID_00000012462490118762308530000013063953215300852648_);enable-background:new"><image style="overflow:visible;enable-background:new" width="2048" height="1362" transform="matrix(0.2218 0 0 0.2218 1432.3138 340.8484)" xlink:href="../../../../../Downloads/drummers.jpg"/></g></g></g></g></g></g></g></g><g><g><g><g><g><g><g><defs><polygon id="SVGID_00000159451660944889863840000011367034492506648482_" points="1411.7 643 1905 643 1905 149.7"/></defs><clipPath id="SVGID_00000077307710666622826360000002338956855479632775_"><use xlink:href="#SVGID_00000159451660944889863840000011367034492506648482_" style="overflow:visible"/></clipPath><g style="clip-path:url(#SVGID_00000077307710666622826360000002338956855479632775_);enable-background:new"><image style="overflow:visible;enable-background:new" width="2048" height="1362" transform="matrix(0.2218 0 0 0.2218 1454.3138 340.8484)" xlink:href="../../../../../Downloads/drummers.jpg"/></g></g></g></g></g></g></g></g><g><g><g><g><g><g><g><defs><polygon id="SVGID_00000127740258593668441160000004935507168868938673_" points="1411.7 643 1905 643 1905 149.7"/></defs><clipPath id="SVGID_00000157297597253907448570000011136088641289648817_"><use xlink:href="#SVGID_00000127740258593668441160000004935507168868938673_" style="overflow:visible"/></clipPath><g style="clip-path:url(#SVGID_00000157297597253907448570000011136088641289648817_);enable-background:new"><image style="overflow:visible;enable-background:new" width="2048" height="1362" transform="matrix(0.2218 0 0 0.2218 1473.3138 340.8484)" xlink:href="../../../../../Downloads/drummers.jpg"/></g></g></g></g></g></g></g></g><g><g><g><g><g><g><g><defs><polygon id="SVGID_00000171698533412627329460000000983635443915395749_" points="1411.7 643 1905 643 1905 149.7"/></defs><clipPath id="SVGID_00000104671717495284603190000000738213647440939187_"><use xlink:href="#SVGID_00000171698533412627329460000000983635443915395749_" style="overflow:visible"/></clipPath><g style="clip-path:url(#SVGID_00000104671717495284603190000000738213647440939187_);enable-background:new"><image style="overflow:visible;enable-background:new" width="2048" height="1362" transform="matrix(0.2218 0 0 0.2218 1493.3138 340.8484)" xlink:href="../../../../../Downloads/drummers.jpg"/></g></g></g></g></g></g></g></g><g><g><g><g><g><g><g><defs><polygon id="SVGID_00000017498412192501556510000001957235814343664811_" points="1411.7 643 1905 643 1905 149.7"/></defs><clipPath id="SVGID_00000124154250082528789600000005447602264540120197_"><use xlink:href="#SVGID_00000017498412192501556510000001957235814343664811_" style="overflow:visible"/></clipPath><g style="clip-path:url(#SVGID_00000124154250082528789600000005447602264540120197_);enable-background:new"><image style="overflow:visible;enable-background:new" width="2048" height="1362" transform="matrix(0.2218 0 0 0.2218 1513.3138 340.8484)" xlink:href="../../../../../Downloads/drummers.jpg"/></g></g></g></g></g></g></g></g></g><g class="st1"><g><g><g><g><g><g><g><defs><polygon id="SVGID_00000021836797920298155600000003435383610807265458_" points="1372.8 703 1010.9 1065 1521.2 1065 1883.1 703"/></defs><clipPath id="SVGID_00000103239439486144720570000011935153041581444500_"><use xlink:href="#SVGID_00000021836797920298155600000003435383610807265458_" style="overflow:visible"/></clipPath><g style="clip-path:url(#SVGID_00000103239439486144720570000011935153041581444500_)"><image style="overflow:visible;enable-background:new" width="1686" height="1125" transform="matrix(0.4635 0 0 0.4635 1096 525.4)" xlink:href="../../../../../Downloads/217158076_4148136661934558_783972346646775842_n.jpg"/></g></g></g></g></g></g></g></g><g><g><g><g><g><g><g><defs><polygon id="SVGID_00000052099881402443405790000014529948805925205395_" points="1372.8 703 1010.9 1065 1521.2 1065 1883.1 703"/></defs><clipPath id="SVGID_00000044162108091804845840000012460393342614159253_"><use xlink:href="#SVGID_00000052099881402443405790000014529948805925205395_" style="overflow:visible"/></clipPath><g style="clip-path:url(#SVGID_00000044162108091804845840000012460393342614159253_)"><image style="overflow:visible;enable-background:new" width="1686" height="1125" transform="matrix(0.4635 0 0 0.4635 1009 553.4)" xlink:href="../../../../../Downloads/217158076_4148136661934558_783972346646775842_n.jpg"/></g></g></g></g></g></g></g></g><g><g><g><g><g><g><g><defs><polygon id="SVGID_00000026133946445119614700000000593776885557482638_" points="1372.8 703 1010.9 1065 1521.2 1065 1883.1 703"/></defs><clipPath id="SVGID_00000016065685454768713110000009300333633744048525_"><use xlink:href="#SVGID_00000026133946445119614700000000593776885557482638_" style="overflow:visible"/></clipPath><g style="clip-path:url(#SVGID_00000016065685454768713110000009300333633744048525_)"><image style="overflow:visible;enable-background:new" width="1686" height="1125" transform="matrix(0.4635 0 0 0.4635 1054 553.4)" xlink:href="../../../../../Downloads/217158076_4148136661934558_783972346646775842_n.jpg"/></g></g></g></g></g></g></g></g></g><g class="st1"><g><g><g><g><g><g><g><defs><polygon id="SVGID_00000133500431930217541460000009250607001107638451_" points="8 152.7 8 652 507.3 652"/></defs><clipPath id="SVGID_00000088127303916930304510000002733960025787047309_"><use xlink:href="#SVGID_00000133500431930217541460000009250607001107638451_" style="overflow:visible"/></clipPath><rect style="clip-path:url(#SVGID_00000088127303916930304510000002733960025787047309_);fill:#060606" width="345.3" height="238.8" x="-89.5" y="170.9"/></g></g></g></g></g></g></g><g><g><g><g><g><g><g><defs><polygon id="SVGID_00000108989155117151371510000009218145882264923532_" points="8 152.7 8 652 507.3 652"/></defs><clipPath id="SVGID_00000137096817411263300510000004252193063730277773_"><use xlink:href="#SVGID_00000108989155117151371510000009218145882264923532_" style="overflow:visible"/></clipPath><g style="clip-path:url(#SVGID_00000137096817411263300510000004252193063730277773_);enable-background:new"><image style="overflow:visible;enable-background:new" width="2048" height="1365" transform="matrix(0.2924 0 0 0.2924 -35.2645 243.9248)" xlink:href="../../../../../Downloads/217495088_4149867061761518_3154778973190753992_n.jpg"/></g></g></g></g></g></g></g></g></g><g class="st1"><g><g><g><g><g><g><g><defs><polygon id="SVGID_00000146500072095204351760000004991333071577489078_" points="15 693.9 395.1 1074.1 931 1074.1 550.9 693.9"/></defs><clipPath id="SVGID_00000119819868825132865250000005501692169445885607_"><use xlink:href="#SVGID_00000146500072095204351760000004991333071577489078_" style="overflow:visible"/></clipPath><g style="clip-path:url(#SVGID_00000119819868825132865250000005501692169445885607_);enable-background:new"><image style="overflow:visible;enable-background:new" width="2048" height="1365" transform="matrix(0.424 0 0 0.424 36.9 570)" xlink:href="../../../../../Downloads/215870492_4148138638601027_4538669978666226981_n.jpg"/></g></g></g></g></g></g></g></g></g><g class="st1"><g><g><g><g><g><g><g><defs><polygon id="SVGID_00000123405995069166165080000015197307232866821799_" points="1447 12.6 473 12.6 960 499.6"/></defs><clipPath id="SVGID_00000083057096020037645060000017109964500280367779_"><use xlink:href="#SVGID_00000123405995069166165080000015197307232866821799_" style="overflow:visible"/></clipPath><polygon style="clip-path:url(#SVGID_00000083057096020037645060000017109964500280367779_);fill:#0a0a0a" points="1472.3 0 447.7 0 960 512.3"/></g></g></g></g></g></g></g><g><g><g><g><g><g><g><defs><polygon id="SVGID_00000165924844341335958120000016051117762185326212_" points="1447 12.6 473 12.6 960 499.6"/></defs><clipPath id="SVGID_00000139286477328125392060000009791995475795743125_"><use xlink:href="#SVGID_00000165924844341335958120000016051117762185326212_" style="overflow:visible"/></clipPath><g style="clip-path:url(#SVGID_00000139286477328125392060000009791995475795743125_);enable-background:new"><image style="overflow:visible;enable-background:new" width="2048" height="1365" transform="matrix(0.3945 0 0 0.3945 556 -35.2859)" xlink:href="../../../../../Downloads/215742753_4149951961753028_8134700480740419261_n.jpg"/></g></g></g></g></g></g></g></g></g><g class="st1"><g><g><g><g><g><g><g><defs><polygon id="SVGID_00000077306743667284413140000010896608193095634093_" points="593.4 675.5 937.6 1019.7 937.6 542.5 593.4 198.3"/></defs><clipPath id="SVGID_00000076563303953729333400000012597141049143096970_"><use xlink:href="#SVGID_00000077306743667284413140000010896608193095634093_" style="overflow:visible"/></clipPath><polygon style="clip-path:url(#SVGID_00000076563303953729333400000012597141049143096970_);fill:#0a0a0a" points="586 678.3 945 1037.3 945 539.7 586 180.7"/></g></g></g></g></g></g></g><g><g><g><g><g><g><g><defs><polygon id="SVGID_00000061470917141699065680000008293702455896537749_" points="593.4 675.5 937.6 1019.7 937.6 542.5 593.4 198.3"/></defs><clipPath id="SVGID_00000060018326366508952320000003558712817216502959_"><use xlink:href="#SVGID_00000061470917141699065680000008293702455896537749_" style="overflow:visible"/></clipPath><g style="clip-path:url(#SVGID_00000060018326366508952320000003558712817216502959_);enable-background:new"><image style="overflow:visible;enable-background:new" width="2048" height="1365" transform="matrix(0.4834 0 0 0.4834 236.7532 341.1389)" xlink:href="../../../../../Downloads/217742642_4147065728708318_7572607277866642674_n.jpg"/></g></g></g></g></g></g></g></g></g><g class="st1"><g><g><g><g><g><g><g><defs><polygon id="SVGID_00000036230510712110359810000006604037359202685845_" points="1326.6 198.3 982.4 542.5 982.4 1019.7 1326.6 675.5"/></defs><clipPath id="SVGID_00000061454912737056126120000007732325472818359940_"><use xlink:href="#SVGID_00000036230510712110359810000006604037359202685845_" style="overflow:visible"/></clipPath><g transform="matrix(1 0 0 1 -6.103516e-05 0)" style="clip-path:url(#SVGID_00000061454912737056126120000007732325472818359940_)"><image style="overflow:visible;enable-background:new" width="2048" height="1365" transform="matrix(0.5743 0 0 0.5743 747.6 219.1237)" xlink:href="../../../../../Downloads/215339618_4144229282325296_4248557124656967950_n.jpg"/></g></g></g></g></g></g></g></g><g><g><g><g><g><g><g><defs><polygon id="SVGID_00000045593722420607331050000006588682574592627120_" points="1326.6 198.3 982.4 542.5 982.4 1019.7 1326.6 675.5"/></defs><clipPath id="SVGID_00000120540910347048978820000003997961388434194832_"><use xlink:href="#SVGID_00000045593722420607331050000006588682574592627120_" style="overflow:visible"/></clipPath><g transform="matrix(1 0 0 1 -6.103516e-05 0)" style="clip-path:url(#SVGID_00000120540910347048978820000003997961388434194832_)"><image style="overflow:visible;enable-background:new" width="2048" height="1365" transform="matrix(0.5743 0 0 0.5743 747.6 189.1237)" xlink:href="../../../../../Downloads/215339618_4144229282325296_4248557124656967950_n.jpg"/></g></g></g></g></g></g></g></g><g><g><g><g><g><g><g><defs><polygon id="SVGID_00000018233007754891840660000007739567975707991952_" points="1326.6 198.3 982.4 542.5 982.4 1019.7 1326.6 675.5"/></defs><clipPath id="SVGID_00000023268368136758778670000005686099678994954422_"><use xlink:href="#SVGID_00000018233007754891840660000007739567975707991952_" style="overflow:visible"/></clipPath><g style="clip-path:url(#SVGID_00000023268368136758778670000005686099678994954422_)"><image style="overflow:visible;enable-background:new" width="2048" height="1365" transform="matrix(0.5743 0 0 0.5743 750.6 141.1237)" xlink:href="../../../../../Downloads/215339618_4144229282325296_4248557124656967950_n.jpg"/></g></g></g></g></g></g></g></g></g><linearGradient id="SVGID_00000067211642971004347840000015899829862715611823_" x1="0" x2="556" y1="3003.85" y2="3003.85" gradientTransform="matrix(1 0 0 -1 0 3328)" gradientUnits="userSpaceOnUse"><stop offset="0" style="stop-color:#00beff"/><stop offset="1" style="stop-color:#fff"/></linearGradient><polygon style="display:inline;fill:url(#SVGID_00000067211642971004347840000015899829862715611823_)" points="556 150.7 405.3 0 0 0 0 92.3 556 648.3"/><linearGradient id="SVGID_00000044170950871682622850000005002483247402929797_" x1="1364" x2="1920" y1="3003.85" y2="3003.85" gradientTransform="matrix(1 0 0 -1 0 3328)" gradientUnits="userSpaceOnUse"><stop offset="0" style="stop-color:#fff"/><stop offset="1" style="stop-color:#00beff"/></linearGradient><polygon style="display:inline;fill:url(#SVGID_00000044170950871682622850000005002483247402929797_)" points="1514.7 0 1364 150.7 1364 648.3 1920 92.3 1920 0"/></g><g class="st0"><g class="st1"><linearGradient id="SVGID_00000080903082088771919370000011787040074958246584_" x1="1744.85" x2="1744.85" y1="2598.3" y2="2248" gradientTransform="matrix(1 0 0 -1 0 3328)" gradientUnits="userSpaceOnUse"><stop offset="0" style="stop-color:#fff"/><stop offset="1" style="stop-color:#666"/></linearGradient><path style="fill:url(#SVGID_00000080903082088771919370000011787040074958246584_)" d="M1905,765.9V1065h-299.1L1905,765.9 M1920,729.7L1569.7,1080H1920V729.7L1920,729.7z"/></g><g class="st1"><linearGradient id="SVGID_00000164514427326407685200000005697142545191107236_" x1="175.15" x2="175.15" y1="2598.3" y2="2248" gradientTransform="matrix(1 0 0 -1 0 3328)" gradientUnits="userSpaceOnUse"><stop offset="0" style="stop-color:#fff"/><stop offset="1" style="stop-color:#666"/></linearGradient><path style="fill:url(#SVGID_00000164514427326407685200000005697142545191107236_)" d="M15,765.9L314.1,1065H15V765.9 M0,729.7 V1080h350.3L0,729.7L0,729.7z"/></g><g class="st1"><linearGradient id="SVGID_00000161624337257993623180000005926889997619866813_" x1="1658.35" x2="1658.35" y1="3193.3" y2="2670" gradientTransform="matrix(1 0 0 -1 0 3328)" gradientUnits="userSpaceOnUse"><stop offset="0" style="stop-color:#fff"/><stop offset="1" style="stop-color:#666"/></linearGradient><path style="fill:url(#SVGID_00000161624337257993623180000005926889997619866813_)" d="M1905,170.9V643h-472.1L1905,170.9 M1920,134.7L1396.7,658H1920V134.7L1920,134.7z"/></g><g class="st1"><linearGradient id="SVGID_00000106846520797114455780000004287866034833900722_" x1="1447" x2="1447" y1="2640" y2="2248" gradientTransform="matrix(1 0 0 -1 0 3328)" gradientUnits="userSpaceOnUse"><stop offset="0" style="stop-color:#fff"/><stop offset="1" style="stop-color:#666"/></linearGradient><path style="fill:url(#SVGID_00000106846520797114455780000004287866034833900722_)" d="M1883.1,703l-362,362H1011l362-362 H1883.1 M1919.3,688h-552.6l-392,392h552.6L1919.3,688L1919.3,688z"/></g><g class="st1"><linearGradient id="SVGID_00000073718142050047183660000008462584207812035978_" x1="261.65" x2="261.65" y1="3193.3" y2="2670" gradientTransform="matrix(1 0 0 -1 0 3328)" gradientUnits="userSpaceOnUse"><stop offset="0" style="stop-color:#fff"/><stop offset="1" style="stop-color:#666"/></linearGradient><path style="fill:url(#SVGID_00000073718142050047183660000008462584207812035978_)" d="M15,170.9L487.1,643H15V170.9 M0,134.7 V658h523.3L0,134.7L0,134.7z"/></g><g class="st1"><linearGradient id="SVGID_00000101080672459733225310000015984737269221577133_" x1="473" x2="473" y1="2640" y2="2248" gradientTransform="matrix(1 0 0 -1 0 3328)" gradientUnits="userSpaceOnUse"><stop offset="0" style="stop-color:#fff"/><stop offset="1" style="stop-color:#666"/></linearGradient><path style="fill:url(#SVGID_00000101080672459733225310000015984737269221577133_)" d="M547.1,703l362,362H398.9l-362-362H547.1 M553.3,688H0.7l392,392h552.6L553.3,688L553.3,688z"/></g><g class="st1"><linearGradient id="SVGID_00000054955266752447498900000005275460902133698235_" x1="960" x2="960" y1="3328" y2="2815.7" gradientTransform="matrix(1 0 0 -1 0 3328)" gradientUnits="userSpaceOnUse"><stop offset="0" style="stop-color:#fff"/><stop offset="1" style="stop-color:#666"/></linearGradient><path style="fill:url(#SVGID_00000054955266752447498900000005275460902133698235_)" d="M1436.1,15L960,491.1L483.9,15H1436.1 M1472.3,0H447.7L960,512.3L1472.3,0L1472.3,0z"/></g><g class="st1"><linearGradient id="SVGID_00000025423088347178418680000002232501098147981199_" x1="765.5" x2="765.5" y1="3147.3" y2="2290.7" gradientTransform="matrix(1 0 0 -1 0 3328)" gradientUnits="userSpaceOnUse"><stop offset="0" style="stop-color:#fff"/><stop offset="1" style="stop-color:#666"/></linearGradient><path style="fill:url(#SVGID_00000025423088347178418680000002232501098147981199_)" d="M601,216.9l329,329V1001L601,672V216.9 M586,180.7v497.6l359,359V539.7L586,180.7L586,180.7z"/></g><g class="st1"><linearGradient id="SVGID_00000043414715471205763180000007128204163986185862_" x1="1154.5" x2="1154.5" y1="3147.3" y2="2290.7" gradientTransform="matrix(1 0 0 -1 0 3328)" gradientUnits="userSpaceOnUse"><stop offset="0" style="stop-color:#fff"/><stop offset="1" style="stop-color:#666"/></linearGradient><path style="fill:url(#SVGID_00000043414715471205763180000007128204163986185862_)" d="M1319,216.9V672l-329,329V545.9 L1319,216.9 M1334,180.7l-359,359v497.6l359-359V180.7L1334,180.7z"/></g><g class="st1"><linearGradient id="SVGID_00000103230636036273583430000006675566623280215696_" x1="278" x2="278" y1="3328" y2="2679.7" gradientTransform="matrix(1 0 0 -1 0 3328)" gradientUnits="userSpaceOnUse"><stop offset="0" style="stop-color:#fff"/><stop offset="1" style="stop-color:#666"/></linearGradient><path style="fill:url(#SVGID_00000103230636036273583430000006675566623280215696_)" d="M399.1,15L541,156.9V612L15,86.1V15 H399.1 M405.3,0H0v92.3l556,556V150.7L405.3,0L405.3,0z"/></g><g class="st1"><linearGradient id="SVGID_00000114790860248244112900000004704731966332457617_" x1="1642" x2="1642" y1="3328" y2="2679.7" gradientTransform="matrix(1 0 0 -1 0 3328)" gradientUnits="userSpaceOnUse"><stop offset="0" style="stop-color:#fff"/><stop offset="1" style="stop-color:#666"/></linearGradient><path style="fill:url(#SVGID_00000114790860248244112900000004704731966332457617_)" d="M1905,15v71.1l-526,526V156.9L1520.9,15 H1905 M1920,0h-405.3L1364,150.7v497.6l556-556V0L1920,0z"/></g></g><g class="st0"><polygon points="441.2 1080 1478.8 1080 960 561.2" class="st40"/><polygon points="1478.8 0 441.2 0 960 518.8" class="st40"/><polygon points="923.8 555 0 555 0 1080 398.8 1080" class="st40"/><polygon points="996.2 555 1521.2 1080 1920 1080 1920 555" class="st40"/><polygon points="398.8 0 0 0 0 525 923.8 525" class="st40"/><g class="st1"><rect width="30" height="1920" x="945" y="-420" class="st41" transform="matrix(0.7071 -0.7071 0.7071 0.7071 -100.6587 836.9788)"/><rect width="1920" height="30" x="0" y="525" class="st41" transform="matrix(0.7071 -0.7071 0.7071 0.7071 -100.6581 836.9749)"/></g><g class="st1"><rect width="30" height="1920" x="385" y="-420" class="st41" transform="matrix(0.7071 -0.7071 0.7071 0.7071 -264.678 441.0021)"/><rect width="1920" height="30" x="-560" y="525" class="st41" transform="matrix(0.7071 -0.7071 0.7071 0.7071 -264.6767 441.0001)"/></g><g class="st1"><rect width="30" height="1920" x="1505" y="-420" class="st41" transform="matrix(0.7071 -0.7071 0.7071 0.7071 63.3607 1232.9556)"/><rect width="1920" height="30" x="560" y="525" class="st41" transform="matrix(0.7071 -0.7071 0.7071 0.7071 63.3605 1232.9498)"/></g><polygon points="1521.2 0 996.2 525 1920 525 1920 0" class="st40"/></g><g><g><polygon points="1743.8 1080 1920 1080 1920 81" class="st42"/><linearGradient id="SVGID_00000170247770926669981150000002215939799053795765_" x1="1831.9" x2="1831.9" y1="-495" y2="504" gradientTransform="matrix(1 0 0 1 0 576)" gradientUnits="userSpaceOnUse"><stop offset="0" style="stop-color:#bff"/><stop offset=".501" style="stop-color:#ffd"/><stop offset="1" style="stop-color:#069"/></linearGradient><path style="fill:url(#SVGID_00000170247770926669981150000002215939799053795765_)" d="M1905,252.4V1065h-143.3L1905,252.4 M1920,81l-176.2,999H1920V81L1920,81z"/></g><g><polygon points="944.8 1080 754.3 0 400.5 0 590.9 1080" class="st42"/><linearGradient id="SVGID_00000062899409985362494400000004467670518268412853_" x1="672.6" x2="672.6" y1="-576" y2="504" gradientTransform="matrix(1 0 0 1 0 576)" gradientUnits="userSpaceOnUse"><stop offset="0" style="stop-color:#bff"/><stop offset=".501" style="stop-color:#ffd"/><stop offset="1" style="stop-color:#069"/></linearGradient><path style="fill:url(#SVGID_00000062899409985362494400000004467670518268412853_)" d="M741.7,15l185.1,1050H603.5L418.4,15 H741.7 M754.3,0H400.5l190.4,1080h353.8L754.3,0L754.3,0z"/></g><g><polygon points="784.8 0 960 993.6 1135.2 0" class="st42"/><linearGradient id="SVGID_00000094603642544980651830000000636106224313835428_" x1="960" x2="960" y1="-576" y2="417.6" gradientTransform="matrix(1 0 0 1 0 576)" gradientUnits="userSpaceOnUse"><stop offset="0" style="stop-color:#bff"/><stop offset=".501" style="stop-color:#ffd"/><stop offset="1" style="stop-color:#069"/></linearGradient><path style="fill:url(#SVGID_00000094603642544980651830000000636106224313835428_)" d="M1117.3,15L960,907.2L802.7,15H1117.3 M1135.2,0H784.8L960,993.6L1135.2,0L1135.2,0z"/></g><g><g><defs><polygon id="SVGID_00000180338535467958265070000004747030686440422022_" points="206.5 1080 560.5 1080 370 0 16.2 0"/></defs><clipPath id="SVGID_00000011028144026684631300000002620781150993318579_"><use xlink:href="#SVGID_00000180338535467958265070000004747030686440422022_" style="overflow:visible"/></clipPath><g transform="matrix(1 -3.552714e-15 3.552714e-15 1 0 0)" style="clip-path:url(#SVGID_00000011028144026684631300000002620781150993318579_);enable-background:new"><image style="overflow:visible" width="8256" height="5504" transform="matrix(6.220356e-09 0.1304 -0.1304 6.220356e-09 606.8778 1.1939)" xlink:href="../../../../../Desktop/Brad's Web Pictures/DSC_7395.JPG"/></g></g><linearGradient id="SVGID_00000103943971282778610550000017507168980701956000_" x1="288.35" x2="288.35" y1="-576" y2="504" gradientTransform="matrix(1 0 0 1 0 576)" gradientUnits="userSpaceOnUse"><stop offset="0" style="stop-color:#bff"/><stop offset=".501" style="stop-color:#ffd"/><stop offset="1" style="stop-color:#069"/></linearGradient><path style="fill:url(#SVGID_00000103943971282778610550000017507168980701956000_)" d="M357.4,15l185.1,1050H219.1L34,15H357.4 M370,0H16.2l190.3,1080h354L370,0L370,0z"/></g><g><polygon points="0 81.1 0 1080 176.1 1080" class="st42"/><linearGradient id="SVGID_00000005262527000647733680000001618349296838902716_" x1="88.05" x2="88.05" y1="-494.9" y2="504" gradientTransform="matrix(1 0 0 1 0 576)" gradientUnits="userSpaceOnUse"><stop offset="0" style="stop-color:#bff"/><stop offset=".501" style="stop-color:#ffd"/><stop offset="1" style="stop-color:#069"/></linearGradient><path style="fill:url(#SVGID_00000005262527000647733680000001618349296838902716_)" d="M15,252.5L158.3,1065H15V252.5 M0,81.1 V1080h176.1L0,81.1L0,81.1z"/></g><g><g><defs><polygon id="SVGID_00000034794298179165673820000013349274041943814557_" points="1903.8 0 1550 0 1359.5 1080 1713.4 1080"/></defs><clipPath id="SVGID_00000044883368740824889950000013308643687185463741_"><use xlink:href="#SVGID_00000034794298179165673820000013349274041943814557_" style="overflow:visible"/></clipPath><g transform="matrix(1 3.552714e-15 -3.552714e-15 1 0 0)" style="clip-path:url(#SVGID_00000044883368740824889950000013308643687185463741_);enable-background:new"><image style="overflow:visible" width="8256" height="5504" transform="matrix(-6.239512e-09 0.1308 0.1308 6.239512e-09 1354.7927 -8.568650e-02)" xlink:href="../../../../../Desktop/Brad's Web Pictures/DSC_7459.JPG"/></g></g><linearGradient id="SVGID_00000164480511603851082550000004471511618441216663_" x1="1631.7" x2="1631.7" y1="-576" y2="504" gradientTransform="matrix(1 0 0 1 0 576)" gradientUnits="userSpaceOnUse"><stop offset="0" style="stop-color:#bff"/><stop offset=".501" style="stop-color:#ffd"/><stop offset="1" style="stop-color:#069"/></linearGradient><path style="fill:url(#SVGID_00000164480511603851082550000004471511618441216663_)" d="M1885.9,15l-185.1,1050h-323.4L1562.6,15 H1885.9 M1903.8,0H1550l-190.4,1080h353.9L1903.8,0L1903.8,0z"/></g><g><polygon points="1519.5 0 1165.7 0 975.2 1080 1329.1 1080" class="st42"/><linearGradient id="SVGID_00000013173670421616665210000013126855288127891115_" x1="1247.35" x2="1247.35" y1="-576" y2="504" gradientTransform="matrix(1 0 0 1 0 576)" gradientUnits="userSpaceOnUse"><stop offset="0" style="stop-color:#bff"/><stop offset=".501" style="stop-color:#ffd"/><stop offset="1" style="stop-color:#069"/></linearGradient><path style="fill:url(#SVGID_00000013173670421616665210000013126855288127891115_)" d="M1501.6,15l-185.1,1050H993.1L1178.2,15 H1501.6 M1519.5,0h-353.9L975.2,1080h353.9L1519.5,0L1519.5,0z"/></g></g><path d="M1300.8,266c-18.6-44-45.3-83.6-79.2-117.5c-34-34-73.5-60.6-117.5-79.2c-45.6-19.3-94-29.1-144-29.1	s-98.4,9.8-144,29.1c-44,18.6-83.6,45.3-117.5,79.2c-34,34-60.6,73.5-79.2,117.5c-19.3,45.6-29.1,94-29.1,144s9.8,98.4,29.1,144	c18.6,44,45.3,83.6,79.2,117.5c34,34,73.5,60.6,117.5,79.2c45.6,19.3,94,29.1,144,29.1s98.3-9.8,144-29.1	c44-18.6,83.6-45.3,117.5-79.2c34-34,60.6-73.5,79.2-117.5c19.3-45.6,29.1-94,29.1-144S1320.1,311.6,1300.8,266z" class="st50"/><image style="overflow:visible;enable-background:new" width="1110" height="1110" transform="matrix(0.6393 0 0 0.6393 605.2152 55.1876)" xlink:href="../../../../../Downloads/MBoCI_TribalSeal_EPS three color.png"/></svg>