<?xml version="1.0" encoding="utf-8"?>
<!-- Generator: Adobe Illustrator 26.0.1, SVG Export Plug-In . SVG Version: 6.00 Build 0)  -->
<svg version="1.1" id="Layer_1" xmlns="http://www.w3.org/2000/svg" xmlns:xlink="http://www.w3.org/1999/xlink" x="0px" y="0px"
	 viewBox="0 0 1920 1080" style="enable-background:new 0 0 1920 1080;" xml:space="preserve">
<style type="text/css">
	.st0{fill:url(#SVGID_1_);}
	.st1{fill:url(#SVGID_00000029758984033973035220000001598929196616460934_);}
	.st2{clip-path:url(#SVGID_00000075858214443046564540000009898528113154407565_);}
	.st3{fill:#F6F6F6;}
	.st4{fill:url(#SVGID_00000001662261845167737180000015620528197352169642_);}
	.st5{clip-path:url(#SVGID_00000176013930839470136190000006599611182193900722_);}
	.st6{fill:url(#SVGID_00000129188963336858563300000004543943316771179412_);}
	.st7{fill:url(#SVGID_00000065765581363378920610000007993165530035230895_);}
	.st8{fill:url(#SVGID_00000183250889850172395130000012840833014944955786_);}
	.st9{fill:url(#SVGID_00000080890019679687098920000000527609389571476352_);}
	.st10{clip-path:url(#SVGID_00000048490797462740508010000011044729101969795516_);}
	.st11{fill:#17201F;}
	.st12{fill:url(#SVGID_00000143596146147038146450000006010452504759364237_);}
	.st13{fill:url(#SVGID_00000126308654470485487130000008806100357203652783_);}
	.st14{fill:url(#SVGID_00000018216066329771500210000000165008839999371417_);}
	.st15{fill:url(#SVGID_00000154387122435376248360000009046869890513726851_);}
	.st16{fill:url(#SVGID_00000160900710272912188490000001360463144899028152_);}
	.st17{fill:url(#SVGID_00000169527333185041985000000004915062092074264746_);}
	.st18{fill:url(#SVGID_00000156588776365119455290000015791533057412939177_);}
	.st19{fill:url(#SVGID_00000028284569314334918120000016940990638773695414_);}
	.st20{fill:url(#SVGID_00000163070034968612643080000000239412140094086807_);}
	.st21{fill:url(#SVGID_00000051352290135230874530000009835005237616620198_);}
	.st22{fill:url(#SVGID_00000076565022795096623120000003776412554411457419_);}
	.st23{fill:url(#SVGID_00000013885805969110486820000003331638660882778010_);}
	.st24{fill:#FFFFFF;}
	.st25{font-family:'BebasNeue-Regular';}
	.st26{font-size:80.6467px;}
</style>
<g>
	
		<linearGradient id="SVGID_1_" gradientUnits="userSpaceOnUse" x1="1272" y1="569.9" x2="1272" y2="1079.5" gradientTransform="matrix(1 0 0 -1 0 1080)">
		<stop  offset="6.379092e-09" style="stop-color:#800000"/>
		<stop  offset="1" style="stop-color:#333333"/>
	</linearGradient>
	<polygon class="st0" points="1117,241.6 1272,510.1 1427,241.6 1427.4,241.8 1566.7,0.5 977.3,0.5 1116.6,241.8 	"/>
	
		<linearGradient id="SVGID_00000067920326262935636450000000892138652257162149_" gradientUnits="userSpaceOnUse" x1="648" y1="569.9" x2="648" y2="1079.5" gradientTransform="matrix(1 0 0 -1 0 1080)">
		<stop  offset="6.379092e-09" style="stop-color:#800000"/>
		<stop  offset="1" style="stop-color:#333333"/>
	</linearGradient>
	<polygon style="fill:url(#SVGID_00000067920326262935636450000000892138652257162149_);" points="493,241.6 648,510.1 803,241.6 
		803.4,241.8 942.7,0.5 353.3,0.5 492.6,241.8 	"/>
	<g>
		<g>
			<g>
				<g>
					<g>
						<defs>
							<polygon id="SVGID_00000132798105661345186550000011691496682205167280_" points="1584,1041.3 1873.1,540.5 1584,39.7 
								1294.9,540.5 							"/>
						</defs>
						<clipPath id="SVGID_00000138575686264954105710000004121362848610087042_">
							<use xlink:href="#SVGID_00000132798105661345186550000011691496682205167280_"  style="overflow:visible;"/>
						</clipPath>
						<g style="clip-path:url(#SVGID_00000138575686264954105710000004121362848610087042_);">
							<rect x="1027.5" y="30.5" class="st3" width="1112.2" height="1055.5"/>
							
								<image style="overflow:visible;enable-background:new    ;" width="2000" height="1333" xlink:href="../../../../../Creative Cloud Files/Entertainment 2021/brettyoung.jpeg"  transform="matrix(0.6159 5.029754e-02 -5.029754e-02 0.6159 1005.5782 149.7324)">
							</image>
						</g>
					</g>
				</g>
			</g>
		</g>
	</g>
	
		<linearGradient id="SVGID_00000118395655705071411030000008398653791686742172_" gradientUnits="userSpaceOnUse" x1="1272" y1="-0.5" x2="1272" y2="509.1" gradientTransform="matrix(1 0 0 -1 0 1080)">
		<stop  offset="6.379092e-09" style="stop-color:#800000"/>
		<stop  offset="1" style="stop-color:#333333"/>
	</linearGradient>
	<polygon style="fill:url(#SVGID_00000118395655705071411030000008398653791686742172_);" points="1427,839.4 1272,570.9 
		1117,839.4 1116.6,839.2 977.3,1080.5 1566.7,1080.5 1427.4,839.2 	"/>
	<g>
		<g>
			<g>
				<g>
					<g>
						<defs>
							<polygon id="SVGID_00000097494235705806675330000007671806637428438959_" points="670.9,540.5 960,1041.3 1249.1,540.5 
								960,39.7 							"/>
						</defs>
						<clipPath id="SVGID_00000132771012945710606780000008393096265648789397_">
							<use xlink:href="#SVGID_00000097494235705806675330000007671806637428438959_"  style="overflow:visible;"/>
						</clipPath>
						<g transform="matrix(1 0 0 1 0 0)" style="clip-path:url(#SVGID_00000132771012945710606780000008393096265648789397_);">
							
								<image style="overflow:visible;enable-background:new    ;" width="2048" height="1365" xlink:href="../../../../../Creative Cloud Files/Entertainment 2021/zachwilliams.jpg"  transform="matrix(0.8389 0 0 0.8389 -21.0113 53)">
							</image>
						</g>
					</g>
				</g>
			</g>
		</g>
	</g>
	
		<linearGradient id="SVGID_00000056397319965222832790000005709991672889023141_" gradientUnits="userSpaceOnUse" x1="648" y1="-0.5" x2="648" y2="509.1" gradientTransform="matrix(1 0 0 -1 0 1080)">
		<stop  offset="6.379092e-09" style="stop-color:#800000"/>
		<stop  offset="1" style="stop-color:#333333"/>
	</linearGradient>
	<polygon style="fill:url(#SVGID_00000056397319965222832790000005709991672889023141_);" points="803,839.4 648,570.9 493,839.4 
		492.6,839.2 353.3,1080.5 942.7,1080.5 803.4,839.2 	"/>
	
		<linearGradient id="SVGID_00000093859993225803637370000004101173605628867459_" gradientUnits="userSpaceOnUse" x1="1760.65" y1="569.5" x2="1760.65" y2="1079.5" gradientTransform="matrix(1 0 0 -1 0 1080)">
		<stop  offset="6.379092e-09" style="stop-color:#800000"/>
		<stop  offset="1" style="stop-color:#333333"/>
	</linearGradient>
	<polygon style="fill:url(#SVGID_00000093859993225803637370000004101173605628867459_);" points="1920,468.5 1920,0.5 1601.3,0.5 
		1895.8,510.5 	"/>
	
		<linearGradient id="SVGID_00000143580424535187501470000013519578183459751824_" gradientUnits="userSpaceOnUse" x1="1760.65" y1="-0.5" x2="1760.65" y2="509.5" gradientTransform="matrix(1 0 0 -1 0 1080)">
		<stop  offset="6.379092e-09" style="stop-color:#800000"/>
		<stop  offset="1" style="stop-color:#333333"/>
	</linearGradient>
	<polygon style="fill:url(#SVGID_00000143580424535187501470000013519578183459751824_);" points="1920,612.5 1895.8,570.5 
		1601.3,1080.5 1920,1080.5 	"/>
	
		<linearGradient id="SVGID_00000183244815530269635700000009847562701019329966_" gradientUnits="userSpaceOnUse" x1="159.35" y1="-0.5" x2="159.35" y2="509.5" gradientTransform="matrix(1 0 0 -1 0 1080)">
		<stop  offset="6.379092e-09" style="stop-color:#800000"/>
		<stop  offset="1" style="stop-color:#333333"/>
	</linearGradient>
	<polygon style="fill:url(#SVGID_00000183244815530269635700000009847562701019329966_);" points="0,612.5 0,1080.5 318.7,1080.5 
		24.2,570.5 	"/>
	<g>
		<g>
			<g>
				<g>
					<g>
						<g>
							<defs>
								<polygon id="SVGID_00000036214399562933581570000001978100137211524796_" points="42.9,540.5 335.6,1047.6 628.4,540.5 
									335.6,33.4 								"/>
							</defs>
							<clipPath id="SVGID_00000134972391212449388740000012212102570128675732_">
								<use xlink:href="#SVGID_00000036214399562933581570000001978100137211524796_"  style="overflow:visible;"/>
							</clipPath>
							<g style="clip-path:url(#SVGID_00000134972391212449388740000012212102570128675732_);">
								<rect x="-120" y="59.2" class="st11" width="888.1" height="871.5"/>
								
									<image style="overflow:visible;enable-background:new    ;" width="958" height="959" xlink:href="../../../../../Creative Cloud Files/Entertainment 2021/jimmieallen.jpg"  transform="matrix(0.9318 0 0 0.9634 -110.7473 229.071)">
								</image>
							</g>
						</g>
					</g>
				</g>
			</g>
		</g>
	</g>
	
		<linearGradient id="SVGID_00000177453108909044491840000000036165920798363298_" gradientUnits="userSpaceOnUse" x1="159.35" y1="569.5" x2="159.35" y2="1079.5" gradientTransform="matrix(1 0 0 -1 0 1080)">
		<stop  offset="6.379092e-09" style="stop-color:#800000"/>
		<stop  offset="1" style="stop-color:#333333"/>
	</linearGradient>
	<polygon style="fill:url(#SVGID_00000177453108909044491840000000036165920798363298_);" points="0,468.5 24.2,510.5 318.7,0.5 
		0,0.5 	"/>
</g>
<g>
	<g>
		
			<linearGradient id="SVGID_00000133517656977779510470000014208734108301347236_" gradientUnits="userSpaceOnUse" x1="1272" y1="1079.5" x2="1272" y2="569.9" gradientTransform="matrix(1 0 0 -1 0 1080)">
			<stop  offset="0" style="stop-color:#F4E5A1"/>
			<stop  offset="0.5" style="stop-color:#CCEEEE"/>
			<stop  offset="1" style="stop-color:#D0A641"/>
		</linearGradient>
		<path style="fill:url(#SVGID_00000133517656977779510470000014208734108301347236_);" d="M1540.7,15.5l-118.8,205.8l-0.3-0.2
			l-7.5,13l-142,246l-142-246l-7.5-13l-0.3,0.2l-119-205.8H1540.7 M1566.7,0.5H977.3l139.3,241.3l0.3-0.2l155,268.5l155-268.5
			l0.3,0.2L1566.7,0.5L1566.7,0.5z"/>
	</g>
	<g>
		
			<linearGradient id="SVGID_00000084503247620709070270000016059278636247598473_" gradientUnits="userSpaceOnUse" x1="648" y1="1079.5" x2="648" y2="569.9" gradientTransform="matrix(1 0 0 -1 0 1080)">
			<stop  offset="0" style="stop-color:#F4E5A1"/>
			<stop  offset="0.5" style="stop-color:#CCEEEE"/>
			<stop  offset="1" style="stop-color:#D0A641"/>
		</linearGradient>
		<path style="fill:url(#SVGID_00000084503247620709070270000016059278636247598473_);" d="M916.7,15.5L797.9,221.3l-0.3-0.2
			l-7.5,13l-142,246l-142-246l-7.5-13l-0.3,0.2l-119-205.8H916.7 M942.7,0.5H353.3l139.3,241.3l0.3-0.2l155,268.5l155-268.5l0.3,0.2
			L942.7,0.5L942.7,0.5z"/>
	</g>
	<g>
		
			<linearGradient id="SVGID_00000016056031053098646880000006379245749985380504_" gradientUnits="userSpaceOnUse" x1="1584" y1="1049.5" x2="1584" y2="29.5" gradientTransform="matrix(1 0 0 -1 0 1080)">
			<stop  offset="0" style="stop-color:#F4E5A1"/>
			<stop  offset="0.5" style="stop-color:#CCEEEE"/>
			<stop  offset="1" style="stop-color:#D0A641"/>
		</linearGradient>
		<path style="fill:url(#SVGID_00000016056031053098646880000006379245749985380504_);" d="M1584,60.5l277.1,480l-277.1,480
			l-277.1-480L1584,60.5 M1584,30.5l-294.4,510l294.4,510l294.4-510L1584,30.5L1584,30.5z"/>
	</g>
	<g>
		
			<linearGradient id="SVGID_00000009582897856347746360000009651791274480338868_" gradientUnits="userSpaceOnUse" x1="1272.1" y1="509.1" x2="1272.1" y2="-0.5" gradientTransform="matrix(1 0 0 -1 0 1080)">
			<stop  offset="0" style="stop-color:#F4E5A1"/>
			<stop  offset="0.5" style="stop-color:#CCEEEE"/>
			<stop  offset="1" style="stop-color:#D0A641"/>
		</linearGradient>
		<path style="fill:url(#SVGID_00000009582897856347746360000009651791274480338868_);" d="M1272,600.9l142,246l7.5,13l0.3-0.2
			l118.8,205.8h-537.4L1122,859.7l0.3,0.2l7.5-13L1272,600.9 M1272,570.9l-155,268.5l-0.3-0.2l-139.3,241.3h589.4l-139.3-241.3
			l-0.3,0.2L1272,570.9L1272,570.9z"/>
	</g>
	<g>
		
			<linearGradient id="SVGID_00000173861188880410687370000014162662204564135354_" gradientUnits="userSpaceOnUse" x1="960" y1="1049.5" x2="960" y2="29.5" gradientTransform="matrix(1 0 0 -1 0 1080)">
			<stop  offset="0" style="stop-color:#F4E5A1"/>
			<stop  offset="0.5" style="stop-color:#CCEEEE"/>
			<stop  offset="1" style="stop-color:#D0A641"/>
		</linearGradient>
		<path style="fill:url(#SVGID_00000173861188880410687370000014162662204564135354_);" d="M960,60.5l277.1,480l-277.1,480
			l-277.1-480L960,60.5 M960,30.5l-294.4,510l294.4,510l294.4-510L960,30.5L960,30.5z"/>
	</g>
	<g>
		
			<linearGradient id="SVGID_00000003795094069995464270000007422385606296318650_" gradientUnits="userSpaceOnUse" x1="648.1" y1="509.1" x2="648.1" y2="-0.5" gradientTransform="matrix(1 0 0 -1 0 1080)">
			<stop  offset="0" style="stop-color:#F4E5A1"/>
			<stop  offset="0.5" style="stop-color:#CCEEEE"/>
			<stop  offset="1" style="stop-color:#D0A641"/>
		</linearGradient>
		<path style="fill:url(#SVGID_00000003795094069995464270000007422385606296318650_);" d="M648,600.9l142,246l7.5,13l0.3-0.2
			l118.8,205.8H379.3l118.8-205.8l0.3,0.2l7.5-13L648,600.9 M648,570.9L493,839.4l-0.3-0.2l-139.3,241.3h589.4L803.4,839.2l-0.3,0.2
			L648,570.9L648,570.9z"/>
	</g>
	<g>
		
			<linearGradient id="SVGID_00000179625928259313995270000017557296010167422617_" gradientUnits="userSpaceOnUse" x1="1760.65" y1="1079.5" x2="1760.65" y2="569.5" gradientTransform="matrix(1 0 0 -1 0 1080)">
			<stop  offset="0" style="stop-color:#F4E5A1"/>
			<stop  offset="0.5" style="stop-color:#CCEEEE"/>
			<stop  offset="1" style="stop-color:#D0A641"/>
		</linearGradient>
		<path style="fill:url(#SVGID_00000179625928259313995270000017557296010167422617_);" d="M1905,15.5v449l-9.2,16l-268.5-465H1905
			 M1920,0.5h-318.7l294.4,510l24.2-42L1920,0.5L1920,0.5z"/>
	</g>
	<g>
		
			<linearGradient id="SVGID_00000008867817437758052880000016027841202728879773_" gradientUnits="userSpaceOnUse" x1="1760.7001" y1="509.5" x2="1760.7001" y2="-0.5" gradientTransform="matrix(1 0 0 -1 0 1080)">
			<stop  offset="0" style="stop-color:#F4E5A1"/>
			<stop  offset="0.5" style="stop-color:#CCEEEE"/>
			<stop  offset="1" style="stop-color:#D0A641"/>
		</linearGradient>
		<path style="fill:url(#SVGID_00000008867817437758052880000016027841202728879773_);" d="M1895.8,600.5l9.2,16v449h-277.7
			L1895.8,600.5 M1895.8,570.5l-294.4,510H1920v-468L1895.8,570.5L1895.8,570.5z"/>
	</g>
	<g>
		
			<linearGradient id="SVGID_00000101796013181983008840000003247123970609756602_" gradientUnits="userSpaceOnUse" x1="159.35" y1="509.5" x2="159.35" y2="-0.5" gradientTransform="matrix(1 0 0 -1 0 1080)">
			<stop  offset="0" style="stop-color:#F4E5A1"/>
			<stop  offset="0.5" style="stop-color:#CCEEEE"/>
			<stop  offset="1" style="stop-color:#D0A641"/>
		</linearGradient>
		<path style="fill:url(#SVGID_00000101796013181983008840000003247123970609756602_);" d="M24.2,600.5l268.5,465H15v-449
			L24.2,600.5 M24.2,570.5L0,612.5v468h318.7L24.2,570.5L24.2,570.5z"/>
	</g>
	<g>
		
			<linearGradient id="SVGID_00000152230263376285785030000001151493365665126294_" gradientUnits="userSpaceOnUse" x1="336" y1="1049.5" x2="336" y2="29.5" gradientTransform="matrix(1 0 0 -1 0 1080)">
			<stop  offset="0" style="stop-color:#F4E5A1"/>
			<stop  offset="0.5" style="stop-color:#CCEEEE"/>
			<stop  offset="1" style="stop-color:#D0A641"/>
		</linearGradient>
		<path style="fill:url(#SVGID_00000152230263376285785030000001151493365665126294_);" d="M336,60.5l277.1,480l-277.1,480
			l-277.1-480L336,60.5 M336,30.5l-294.4,510l294.4,510l294.4-510L336,30.5L336,30.5z"/>
	</g>
	<g>
		
			<linearGradient id="SVGID_00000003810785517351195190000005876105822607817146_" gradientUnits="userSpaceOnUse" x1="159.35" y1="1079.5" x2="159.35" y2="569.5" gradientTransform="matrix(1 0 0 -1 0 1080)">
			<stop  offset="0" style="stop-color:#F4E5A1"/>
			<stop  offset="0.5" style="stop-color:#CCEEEE"/>
			<stop  offset="1" style="stop-color:#D0A641"/>
		</linearGradient>
		<path style="fill:url(#SVGID_00000003810785517351195190000005876105822607817146_);" d="M292.7,15.5l-268.5,465l-9.2-16v-449
			H292.7 M318.7,0.5H0v468l24.2,42L318.7,0.5L318.7,0.5z"/>
	</g>
</g>
<text transform="matrix(0.5 -0.866 0.866 0.5 69.301 386.6911)" class="st24 st25 st26">JIMMIE ALLEN</text>
<text transform="matrix(0.5 -0.866 0.866 0.5 488.7573 1005.3581)" class="st24 st25 st26">THU, JULY 07</text>
<text transform="matrix(0.5 -0.866 0.866 0.5 1110.7576 1005.3581)" class="st24 st25 st26">FRI, JULY 08</text>
<text transform="matrix(0.5 -0.866 0.866 0.5 1734.7576 1005.3581)" class="st24 st25 st26">SAT, JULY 09</text>
<text transform="matrix(0.5 -0.866 0.866 0.5 683.8615 405.5134)" class="st24 st25 st26">ZACH WILLIAMS</text>
<text transform="matrix(0.5 -0.866 0.866 0.5 1319.4089 384.7712)" class="st24 st25 st26">BRETT YOUNG</text>
</svg>
