<?xml version="1.0" encoding="utf-8"?>
<!-- Generator: Adobe Illustrator 26.0.0, SVG Export Plug-In . SVG Version: 6.00 Build 0)  -->
<svg version="1.1" id="Layer_1" xmlns="http://www.w3.org/2000/svg" xmlns:xlink="http://www.w3.org/1999/xlink" x="0px" y="0px"
	 viewBox="0 0 1920 1080" style="enable-background:new 0 0 1920 1080;" xml:space="preserve">
<style type="text/css">
	.st0{fill:url(#SVGID_1_);}
	.st1{fill:url(#SVGID_00000101801447662684496790000002887743649103550596_);}
	.st2{fill:#999999;}
	.st3{fill:url(#SVGID_00000150811764428731201910000007321876127782159276_);}
	.st4{fill:url(#SVGID_00000065038476976485822500000009837783202279745667_);}
	.st5{fill:url(#SVGID_00000052098797106087076030000000011019124144979104_);}
	.st6{fill:url(#SVGID_00000051373971537268895070000012130187657097077653_);}
	.st7{fill:url(#SVGID_00000095340862493779504480000006053002193950292409_);}
	.st8{clip-path:url(#SVGID_00000106132303957939501570000006470524456497532289_);}
	.st9{fill:#17201F;}
	.st10{fill:url(#SVGID_00000005945958160518938490000012232067557494722955_);}
	.st11{fill:url(#SVGID_00000034798499625203448820000006852946785514411966_);}
	.st12{fill:url(#SVGID_00000039847531746930425810000016877220362601465015_);}
	.st13{fill:url(#SVGID_00000173148330011506131120000009111522251848964759_);}
	.st14{fill:url(#SVGID_00000171705375441821969950000001045505189854891170_);}
	.st15{fill:url(#SVGID_00000134220311369266072750000016181282339333213842_);}
	.st16{fill:url(#SVGID_00000018917325749966293410000001555603461536130448_);}
	.st17{fill:url(#SVGID_00000157987878402090981890000000961139035425358269_);}
	.st18{fill:url(#SVGID_00000154385313189550740860000008154925632834741133_);}
	.st19{fill:url(#SVGID_00000153703161129299646960000013315532933842886544_);}
	.st20{fill:url(#SVGID_00000051361599300022648310000018146795212564893607_);}
	.st21{fill:url(#SVGID_00000150786951406920382600000012449094420930093189_);}
	.st22{fill:#FFFFFF;}
	.st23{font-family:'BebasNeue-Regular';}
	.st24{font-size:80.6467px;}
</style>
<g>
	<linearGradient id="SVGID_1_" gradientUnits="userSpaceOnUse" x1="1272" y1="510.1002" x2="1272" y2="0.5">
		<stop  offset="0" style="stop-color:#F4E5A1"/>
		<stop  offset="1" style="stop-color:#D0A641"/>
	</linearGradient>
	<polygon class="st0" points="1117,241.6 1272,510.1 1427,241.6 1427.4,241.8 1566.7,0.5 977.3,0.5 1116.6,241.8 	"/>
	
		<linearGradient id="SVGID_00000005949155467015951780000007731038437248948616_" gradientUnits="userSpaceOnUse" x1="648" y1="510.1002" x2="648" y2="0.5">
		<stop  offset="0" style="stop-color:#F4E5A1"/>
		<stop  offset="1" style="stop-color:#D0A641"/>
	</linearGradient>
	<polygon style="fill:url(#SVGID_00000005949155467015951780000007731038437248948616_);" points="493,241.6 648,510.1 803,241.6 
		803.4,241.8 942.7,0.5 353.3,0.5 492.6,241.8 	"/>
	<polygon class="st2" points="1584,1050.5 1878.4,540.5 1584,30.5 1289.6,540.5 	"/>
	
		<linearGradient id="SVGID_00000093156286407541391940000010750713256878933132_" gradientUnits="userSpaceOnUse" x1="1272" y1="1080.5" x2="1272" y2="570.8998">
		<stop  offset="0" style="stop-color:#F4E5A1"/>
		<stop  offset="1" style="stop-color:#D0A641"/>
	</linearGradient>
	<polygon style="fill:url(#SVGID_00000093156286407541391940000010750713256878933132_);" points="1427,839.4 1272,570.9 
		1117,839.4 1116.6,839.2 977.3,1080.5 1566.7,1080.5 1427.4,839.2 	"/>
	<polygon class="st2" points="665.6,540.5 960,1050.5 1254.4,540.5 960,30.5 	"/>
	
		<linearGradient id="SVGID_00000049196790631515852690000003437583237857842322_" gradientUnits="userSpaceOnUse" x1="648" y1="1080.5" x2="648" y2="570.8998">
		<stop  offset="0" style="stop-color:#F4E5A1"/>
		<stop  offset="1" style="stop-color:#D0A641"/>
	</linearGradient>
	<polygon style="fill:url(#SVGID_00000049196790631515852690000003437583237857842322_);" points="803,839.4 648,570.9 493,839.4 
		492.6,839.2 353.3,1080.5 942.7,1080.5 803.4,839.2 	"/>
	
		<linearGradient id="SVGID_00000173859223200709250400000010259218663726902661_" gradientUnits="userSpaceOnUse" x1="1760.6603" y1="510.5001" x2="1760.6603" y2="0.5">
		<stop  offset="0" style="stop-color:#F4E5A1"/>
		<stop  offset="1" style="stop-color:#D0A641"/>
	</linearGradient>
	<polygon style="fill:url(#SVGID_00000173859223200709250400000010259218663726902661_);" points="1920,468.5 1920,0.5 1601.3,0.5 
		1895.8,510.5 	"/>
	
		<linearGradient id="SVGID_00000164479137452074766130000010257814412916786835_" gradientUnits="userSpaceOnUse" x1="1760.6603" y1="1080.5" x2="1760.6603" y2="570.4999">
		<stop  offset="0" style="stop-color:#F4E5A1"/>
		<stop  offset="1" style="stop-color:#D0A641"/>
	</linearGradient>
	<polygon style="fill:url(#SVGID_00000164479137452074766130000010257814412916786835_);" points="1920,612.5 1895.8,570.5 
		1601.3,1080.5 1920,1080.5 	"/>
	
		<linearGradient id="SVGID_00000104675570123319597600000012680650117211634589_" gradientUnits="userSpaceOnUse" x1="159.3397" y1="1080.5" x2="159.3397" y2="570.4999">
		<stop  offset="0" style="stop-color:#F4E5A1"/>
		<stop  offset="1" style="stop-color:#D0A641"/>
	</linearGradient>
	<polygon style="fill:url(#SVGID_00000104675570123319597600000012680650117211634589_);" points="0,612.5 0,1080.5 318.7,1080.5 
		24.2,570.5 	"/>
	<g>
		<defs>
			<polygon id="SVGID_00000064331666492114357090000007852070789248426682_" points="41.6,540.5 336,1050.5 630.4,540.5 336,30.5 
							"/>
		</defs>
		<clipPath id="SVGID_00000182514685682012714310000010642737604181505186_">
			<use xlink:href="#SVGID_00000064331666492114357090000007852070789248426682_"  style="overflow:visible;"/>
		</clipPath>
		<g style="clip-path:url(#SVGID_00000182514685682012714310000010642737604181505186_);">
			<rect x="-111" y="44.2" class="st9" width="870" height="825.7"/>
			
				<image style="overflow:visible;" width="958" height="959" xlink:href="jimmieallen.jpg"  transform="matrix(0.8728 0 0 0.8728 -82.0636 185)">
			</image>
		</g>
	</g>
	
		<linearGradient id="SVGID_00000163759656661797754700000003991442230809575351_" gradientUnits="userSpaceOnUse" x1="159.3397" y1="510.5001" x2="159.3397" y2="0.5">
		<stop  offset="0" style="stop-color:#F4E5A1"/>
		<stop  offset="1" style="stop-color:#D0A641"/>
	</linearGradient>
	<polygon style="fill:url(#SVGID_00000163759656661797754700000003991442230809575351_);" points="0,468.5 24.2,510.5 318.7,0.5 
		0,0.5 	"/>
</g>
<g>
	<g>
		
			<linearGradient id="SVGID_00000067225017151285360240000014324481556980561555_" gradientUnits="userSpaceOnUse" x1="1272" y1="0.5" x2="1272" y2="510.1002">
			<stop  offset="0" style="stop-color:#F4E5A1"/>
			<stop  offset="1" style="stop-color:#D0A641"/>
		</linearGradient>
		<path style="fill:url(#SVGID_00000067225017151285360240000014324481556980561555_);" d="M1540.7,15.5l-118.8,205.8l-0.3-0.2
			l-7.5,13l-142,246l-142-246l-7.5-13l-0.3,0.2L1003.3,15.5H1540.7 M1566.7,0.5H977.3l139.3,241.3l0.3-0.2l155,268.5l155-268.5
			l0.3,0.2L1566.7,0.5L1566.7,0.5z"/>
	</g>
	<g>
		
			<linearGradient id="SVGID_00000153685537448952057420000003817231779143823031_" gradientUnits="userSpaceOnUse" x1="648" y1="0.5" x2="648" y2="510.1002">
			<stop  offset="0" style="stop-color:#F4E5A1"/>
			<stop  offset="1" style="stop-color:#D0A641"/>
		</linearGradient>
		<path style="fill:url(#SVGID_00000153685537448952057420000003817231779143823031_);" d="M916.7,15.5L797.9,221.3l-0.3-0.2
			l-7.5,13l-142,246l-142-246l-7.5-13l-0.3,0.2L379.3,15.5H916.7 M942.7,0.5H353.3l139.3,241.3l0.3-0.2l155,268.5l155-268.5l0.3,0.2
			L942.7,0.5L942.7,0.5z"/>
	</g>
	<g>
		
			<linearGradient id="SVGID_00000050655441601908025250000000199674817299768729_" gradientUnits="userSpaceOnUse" x1="1584" y1="30.5" x2="1584" y2="1050.5">
			<stop  offset="0" style="stop-color:#F4E5A1"/>
			<stop  offset="1" style="stop-color:#D0A641"/>
		</linearGradient>
		<path style="fill:url(#SVGID_00000050655441601908025250000000199674817299768729_);" d="M1584,60.5l277.1,480l-277.1,480
			l-277.1-480L1584,60.5 M1584,30.5l-294.4,510l294.4,510l294.4-510L1584,30.5L1584,30.5z"/>
	</g>
	<g>
		
			<linearGradient id="SVGID_00000020386610675767834000000014865171331070771084_" gradientUnits="userSpaceOnUse" x1="1272" y1="570.8998" x2="1272" y2="1080.5">
			<stop  offset="0" style="stop-color:#F4E5A1"/>
			<stop  offset="1" style="stop-color:#D0A641"/>
		</linearGradient>
		<path style="fill:url(#SVGID_00000020386610675767834000000014865171331070771084_);" d="M1272,600.9l142,246l7.5,13l0.3-0.2
			l118.8,205.8h-537.4l118.8-205.8l0.3,0.2l7.5-13L1272,600.9 M1272,570.9l-155,268.5l-0.3-0.2l-139.3,241.3h589.4l-139.3-241.3
			l-0.3,0.2L1272,570.9L1272,570.9z"/>
	</g>
	<g>
		
			<linearGradient id="SVGID_00000014605875189192444630000015742015699578086069_" gradientUnits="userSpaceOnUse" x1="960" y1="30.5" x2="960" y2="1050.5">
			<stop  offset="0" style="stop-color:#F4E5A1"/>
			<stop  offset="1" style="stop-color:#D0A641"/>
		</linearGradient>
		<path style="fill:url(#SVGID_00000014605875189192444630000015742015699578086069_);" d="M960,60.5l277.1,480l-277.1,480
			l-277.1-480L960,60.5 M960,30.5l-294.4,510l294.4,510l294.4-510L960,30.5L960,30.5z"/>
	</g>
	<g>
		
			<linearGradient id="SVGID_00000163775523896816932610000006066018277556486313_" gradientUnits="userSpaceOnUse" x1="648" y1="570.8998" x2="648" y2="1080.5">
			<stop  offset="0" style="stop-color:#F4E5A1"/>
			<stop  offset="1" style="stop-color:#D0A641"/>
		</linearGradient>
		<path style="fill:url(#SVGID_00000163775523896816932610000006066018277556486313_);" d="M648,600.9l142,246l7.5,13l0.3-0.2
			l118.8,205.8H379.3l118.8-205.8l0.3,0.2l7.5-13L648,600.9 M648,570.9L493,839.4l-0.3-0.2l-139.3,241.3h589.4L803.4,839.2l-0.3,0.2
			L648,570.9L648,570.9z"/>
	</g>
	<g>
		
			<linearGradient id="SVGID_00000160888477470689006830000003949358530629193860_" gradientUnits="userSpaceOnUse" x1="1760.6603" y1="0.5001" x2="1760.6603" y2="510.5001">
			<stop  offset="0" style="stop-color:#F4E5A1"/>
			<stop  offset="1" style="stop-color:#D0A641"/>
		</linearGradient>
		<path style="fill:url(#SVGID_00000160888477470689006830000003949358530629193860_);" d="M1905,15.5v449l-9.2,16l-268.5-465H1905
			 M1920,0.5h-318.7l294.4,510l24.2-42V0.5L1920,0.5z"/>
	</g>
	<g>
		
			<linearGradient id="SVGID_00000068654759883154633410000007998181434693224381_" gradientUnits="userSpaceOnUse" x1="1760.6603" y1="570.4999" x2="1760.6603" y2="1080.5">
			<stop  offset="0" style="stop-color:#F4E5A1"/>
			<stop  offset="1" style="stop-color:#D0A641"/>
		</linearGradient>
		<path style="fill:url(#SVGID_00000068654759883154633410000007998181434693224381_);" d="M1895.8,600.5l9.2,16v449h-277.7
			L1895.8,600.5 M1895.8,570.5l-294.4,510H1920v-468L1895.8,570.5L1895.8,570.5z"/>
	</g>
	<g>
		
			<linearGradient id="SVGID_00000085943288567599922700000014126013384148590978_" gradientUnits="userSpaceOnUse" x1="159.3397" y1="570.4999" x2="159.3397" y2="1080.5">
			<stop  offset="0" style="stop-color:#F4E5A1"/>
			<stop  offset="1" style="stop-color:#D0A641"/>
		</linearGradient>
		<path style="fill:url(#SVGID_00000085943288567599922700000014126013384148590978_);" d="M24.2,600.5l268.5,465H15v-449
			L24.2,600.5 M24.2,570.5L0,612.5v468h318.7L24.2,570.5L24.2,570.5z"/>
	</g>
	<g>
		
			<linearGradient id="SVGID_00000114061275193579714580000008774707816247133883_" gradientUnits="userSpaceOnUse" x1="336" y1="30.5" x2="336" y2="1050.5">
			<stop  offset="0" style="stop-color:#F4E5A1"/>
			<stop  offset="1" style="stop-color:#D0A641"/>
		</linearGradient>
		<path style="fill:url(#SVGID_00000114061275193579714580000008774707816247133883_);" d="M336,60.5l277.1,480l-277.1,480
			l-277.1-480L336,60.5 M336,30.5l-294.4,510l294.4,510l294.4-510L336,30.5L336,30.5z"/>
	</g>
	<g>
		
			<linearGradient id="SVGID_00000145760031594026691890000013783284230532995260_" gradientUnits="userSpaceOnUse" x1="159.3397" y1="0.5001" x2="159.3397" y2="510.5001">
			<stop  offset="0" style="stop-color:#F4E5A1"/>
			<stop  offset="1" style="stop-color:#D0A641"/>
		</linearGradient>
		<path style="fill:url(#SVGID_00000145760031594026691890000013783284230532995260_);" d="M292.7,15.5l-268.5,465l-9.2-16v-449
			H292.7 M318.7,0.5H0v468l24.2,42L318.7,0.5L318.7,0.5z"/>
	</g>
</g>
<text transform="matrix(0.5 -0.866 0.866 0.5 69.3008 386.6916)" class="st22 st23 st24">JIMMIE ALLEN</text>
<text transform="matrix(0.5 -0.866 0.866 0.5 488.7574 1005.3582)" class="st22 st23 st24">THU, JULY 07</text>
<text transform="matrix(0.5 -0.866 0.866 0.5 1110.7574 1005.3582)" class="st22 st23 st24">FRI, JULY 08</text>
<text transform="matrix(0.5 -0.866 0.866 0.5 1734.7574 1005.3582)" class="st22 st23 st24">SAT, JULY 09</text>
<text transform="matrix(0.5 -0.866 0.866 0.5 683.8615 405.514)" class="st22 st23 st24">ZACH WILLIAMS</text>
<text transform="matrix(0.5 -0.866 0.866 0.5 1319.4089 384.7719)" class="st22 st23 st24">BRETT YOUNG</text>
</svg>
