<?xml version="1.0" encoding="utf-8"?>
<!-- Generator: Adobe Illustrator 26.0.0, SVG Export Plug-In . SVG Version: 6.00 Build 0)  -->
<svg version="1.1" id="Layer_1" xmlns="http://www.w3.org/2000/svg" xmlns:xlink="http://www.w3.org/1999/xlink" x="0px" y="0px"
	 viewBox="0 0 1920 1080" style="enable-background:new 0 0 1920 1080;" xml:space="preserve">
<style type="text/css">
	.st0{fill:url(#SVGID_1_);}
	.st1{fill:url(#SVGID_00000046332585438128223280000016445051419239682704_);}
	.st2{clip-path:url(#SVGID_00000048494302617461487290000008970228443148143505_);}
	.st3{fill:#F6F6F6;}
	.st4{fill:url(#SVGID_00000005988807112725272270000004940086000624114075_);}
	.st5{clip-path:url(#SVGID_00000043431355034516907750000010906350561694640302_);}
	.st6{fill:url(#SVGID_00000039818467262503535420000017592790111870182282_);}
	.st7{fill:url(#SVGID_00000147212589838113155730000003052777032367553674_);}
	.st8{fill:url(#SVGID_00000103948279351299827260000007125881765842924178_);}
	.st9{fill:url(#SVGID_00000110434926490950326290000000555923103804834225_);}
	.st10{clip-path:url(#SVGID_00000079461045278134432270000015263159099235623841_);}
	.st11{fill:#17201F;}
	.st12{fill:url(#SVGID_00000104705525811580523960000003085311487795574693_);}
	.st13{fill:url(#SVGID_00000016065851500175767270000000194595242200184751_);}
	.st14{fill:url(#SVGID_00000151510121347692534410000003467603510402013084_);}
	.st15{fill:url(#SVGID_00000052803468701745473380000005200182688014187150_);}
	.st16{fill:url(#SVGID_00000093136462224059329630000011824500546871281328_);}
	.st17{fill:url(#SVGID_00000173136746697809055630000016381713527066233781_);}
	.st18{fill:url(#SVGID_00000159468900889360664050000007301325906923209602_);}
	.st19{fill:url(#SVGID_00000054238396092477966400000001542466565764937908_);}
	.st20{fill:url(#SVGID_00000025402667636894805270000012143655578863196562_);}
	.st21{fill:url(#SVGID_00000011019907833038414440000017226757970755835065_);}
	.st22{fill:url(#SVGID_00000034780967055043269000000011488570371400379780_);}
	.st23{fill:url(#SVGID_00000125564192509560996840000000870750537056186506_);}
	.st24{fill:#FFFFFF;}
	.st25{font-family:'BebasNeue-Regular';}
	.st26{font-size:80.6467px;}
</style>
<g>
	<linearGradient id="SVGID_1_" gradientUnits="userSpaceOnUse" x1="1272" y1="510.1" x2="1272" y2="0.5">
		<stop  offset="6.379092e-09" style="stop-color:#800000"/>
		<stop  offset="1" style="stop-color:#333333"/>
	</linearGradient>
	<polygon class="st0" points="1117,241.6 1272,510.1 1427,241.6 1427.4,241.8 1566.7,0.5 977.3,0.5 1116.6,241.8 	"/>
	
		<linearGradient id="SVGID_00000069362208464713907170000009240905099237578881_" gradientUnits="userSpaceOnUse" x1="648" y1="510.1" x2="648" y2="0.5">
		<stop  offset="6.379092e-09" style="stop-color:#800000"/>
		<stop  offset="1" style="stop-color:#333333"/>
	</linearGradient>
	<polygon style="fill:url(#SVGID_00000069362208464713907170000009240905099237578881_);" points="493,241.6 648,510.1 803,241.6 
		803.4,241.8 942.7,0.5 353.3,0.5 492.6,241.8 	"/>
	<g>
		<g>
			<defs>
				<polygon id="SVGID_00000164515566471134529120000012538111805248410552_" points="1584,1041.3 1873.1,540.5 1584,39.7 
					1294.9,540.5 				"/>
			</defs>
			<clipPath id="SVGID_00000130617211759403768390000014827508489761568416_">
				<use xlink:href="#SVGID_00000164515566471134529120000012538111805248410552_"  style="overflow:visible;"/>
			</clipPath>
			<g style="clip-path:url(#SVGID_00000130617211759403768390000014827508489761568416_);">
				<rect x="1027.5" y="30.5" class="st3" width="1112.2" height="1055.5"/>
				
					<image style="overflow:visible;enable-background:new    ;" width="2000" height="1333" xlink:href="../../../../../Creative Cloud Files/Entertainment 2021/brettyoung.jpeg"  transform="matrix(0.6159 5.029754e-02 -5.029754e-02 0.6159 1005.5782 149.7324)">
				</image>
			</g>
		</g>
	</g>
	
		<linearGradient id="SVGID_00000063605609126862963680000012209082266335791771_" gradientUnits="userSpaceOnUse" x1="1272" y1="1080.5" x2="1272" y2="570.9">
		<stop  offset="6.379092e-09" style="stop-color:#800000"/>
		<stop  offset="1" style="stop-color:#333333"/>
	</linearGradient>
	<polygon style="fill:url(#SVGID_00000063605609126862963680000012209082266335791771_);" points="1427,839.4 1272,570.9 
		1117,839.4 1116.6,839.2 977.3,1080.5 1566.7,1080.5 1427.4,839.2 	"/>
	<g>
		<g>
			<defs>
				<polygon id="SVGID_00000153677579360692751700000005177671259308598431_" points="670.9,540.5 960,1041.3 1249.1,540.5 
					960,39.7 				"/>
			</defs>
			<clipPath id="SVGID_00000017480227511955011050000000422776392469573532_">
				<use xlink:href="#SVGID_00000153677579360692751700000005177671259308598431_"  style="overflow:visible;"/>
			</clipPath>
			<g transform="matrix(1 0 0 1 0 0)" style="clip-path:url(#SVGID_00000017480227511955011050000000422776392469573532_);">
				
					<image style="overflow:visible;enable-background:new    ;" width="2048" height="1365" xlink:href="../../../../../Creative Cloud Files/Entertainment 2021/zachwilliams.jpg"  transform="matrix(0.8389 0 0 0.8389 -21.0113 53)">
				</image>
			</g>
		</g>
	</g>
	
		<linearGradient id="SVGID_00000152980416047046520140000013316187033573912750_" gradientUnits="userSpaceOnUse" x1="648" y1="1080.5" x2="648" y2="570.9">
		<stop  offset="6.379092e-09" style="stop-color:#800000"/>
		<stop  offset="1" style="stop-color:#333333"/>
	</linearGradient>
	<polygon style="fill:url(#SVGID_00000152980416047046520140000013316187033573912750_);" points="803,839.4 648,570.9 493,839.4 
		492.6,839.2 353.3,1080.5 942.7,1080.5 803.4,839.2 	"/>
	
		<linearGradient id="SVGID_00000090279010812538593170000014191337895184499647_" gradientUnits="userSpaceOnUse" x1="1760.65" y1="510.5" x2="1760.65" y2="0.5">
		<stop  offset="6.379092e-09" style="stop-color:#800000"/>
		<stop  offset="1" style="stop-color:#333333"/>
	</linearGradient>
	<polygon style="fill:url(#SVGID_00000090279010812538593170000014191337895184499647_);" points="1920,468.5 1920,0.5 1601.3,0.5 
		1895.8,510.5 	"/>
	
		<linearGradient id="SVGID_00000137847100951799199530000012647767961001301926_" gradientUnits="userSpaceOnUse" x1="1760.65" y1="1080.5" x2="1760.65" y2="570.5">
		<stop  offset="6.379092e-09" style="stop-color:#800000"/>
		<stop  offset="1" style="stop-color:#333333"/>
	</linearGradient>
	<polygon style="fill:url(#SVGID_00000137847100951799199530000012647767961001301926_);" points="1920,612.5 1895.8,570.5 
		1601.3,1080.5 1920,1080.5 	"/>
	
		<linearGradient id="SVGID_00000072243363871038294680000007366019267220309421_" gradientUnits="userSpaceOnUse" x1="159.35" y1="1080.5" x2="159.35" y2="570.5">
		<stop  offset="6.379092e-09" style="stop-color:#800000"/>
		<stop  offset="1" style="stop-color:#333333"/>
	</linearGradient>
	<polygon style="fill:url(#SVGID_00000072243363871038294680000007366019267220309421_);" points="0,612.5 0,1080.5 318.7,1080.5 
		24.2,570.5 	"/>
	<g>
		<g>
			<g>
				<defs>
					<polygon id="SVGID_00000167361115787006633040000008626244266088625027_" points="42.9,540.5 335.6,1047.6 628.4,540.5 
						335.6,33.4 					"/>
				</defs>
				<clipPath id="SVGID_00000013904191890786726160000010245003215435494069_">
					<use xlink:href="#SVGID_00000167361115787006633040000008626244266088625027_"  style="overflow:visible;"/>
				</clipPath>
				<g style="clip-path:url(#SVGID_00000013904191890786726160000010245003215435494069_);">
					<rect x="-120" y="59.2" class="st11" width="888.1" height="871.5"/>
					
						<image style="overflow:visible;enable-background:new    ;" width="958" height="959" xlink:href="../../../../../Creative Cloud Files/Entertainment 2021/jimmieallen.jpg"  transform="matrix(0.9318 0 0 0.9634 -110.7473 229.071)">
					</image>
				</g>
			</g>
		</g>
	</g>
	
		<linearGradient id="SVGID_00000177453084625502814760000007453844141398885004_" gradientUnits="userSpaceOnUse" x1="159.35" y1="510.5" x2="159.35" y2="0.5">
		<stop  offset="6.379092e-09" style="stop-color:#800000"/>
		<stop  offset="1" style="stop-color:#333333"/>
	</linearGradient>
	<polygon style="fill:url(#SVGID_00000177453084625502814760000007453844141398885004_);" points="0,468.5 24.2,510.5 318.7,0.5 
		0,0.5 	"/>
</g>
<g>
	<g>
		
			<linearGradient id="SVGID_00000042738032978492614880000015326570619249625764_" gradientUnits="userSpaceOnUse" x1="1272" y1="0.5" x2="1272" y2="510.1">
			<stop  offset="0" style="stop-color:#F4E5A1"/>
			<stop  offset="1" style="stop-color:#D0A641"/>
		</linearGradient>
		<path style="fill:url(#SVGID_00000042738032978492614880000015326570619249625764_);" d="M1540.7,15.5l-118.8,205.8l-0.3-0.2
			l-7.5,13l-142,246l-142-246l-7.5-13l-0.3,0.2l-119-205.8H1540.7 M1566.7,0.5H977.3l139.3,241.3l0.3-0.2l155,268.5l155-268.5
			l0.3,0.2L1566.7,0.5L1566.7,0.5z"/>
	</g>
	<g>
		
			<linearGradient id="SVGID_00000147216783950048467850000005811112670744858006_" gradientUnits="userSpaceOnUse" x1="648" y1="0.5" x2="648" y2="510.1">
			<stop  offset="0" style="stop-color:#F4E5A1"/>
			<stop  offset="1" style="stop-color:#D0A641"/>
		</linearGradient>
		<path style="fill:url(#SVGID_00000147216783950048467850000005811112670744858006_);" d="M916.7,15.5L797.9,221.3l-0.3-0.2
			l-7.5,13l-142,246l-142-246l-7.5-13l-0.3,0.2l-119-205.8H916.7 M942.7,0.5H353.3l139.3,241.3l0.3-0.2l155,268.5l155-268.5l0.3,0.2
			L942.7,0.5L942.7,0.5z"/>
	</g>
	<g>
		
			<linearGradient id="SVGID_00000101805678427681647840000005232592951775814291_" gradientUnits="userSpaceOnUse" x1="1584" y1="30.5" x2="1584" y2="1050.5">
			<stop  offset="0" style="stop-color:#F4E5A1"/>
			<stop  offset="1" style="stop-color:#D0A641"/>
		</linearGradient>
		<path style="fill:url(#SVGID_00000101805678427681647840000005232592951775814291_);" d="M1584,60.5l277.1,480l-277.1,480
			l-277.1-480L1584,60.5 M1584,30.5l-294.4,510l294.4,510l294.4-510L1584,30.5L1584,30.5z"/>
	</g>
	<g>
		
			<linearGradient id="SVGID_00000163033875557012634160000013813054358538189699_" gradientUnits="userSpaceOnUse" x1="1272.1" y1="570.9" x2="1272.1" y2="1080.5">
			<stop  offset="0" style="stop-color:#F4E5A1"/>
			<stop  offset="1" style="stop-color:#D0A641"/>
		</linearGradient>
		<path style="fill:url(#SVGID_00000163033875557012634160000013813054358538189699_);" d="M1272,600.9l142,246l7.5,13l0.3-0.2
			l118.8,205.8h-537.4L1122,859.7l0.3,0.2l7.5-13L1272,600.9 M1272,570.9l-155,268.5l-0.3-0.2l-139.3,241.3h589.4l-139.3-241.3
			l-0.3,0.2L1272,570.9L1272,570.9z"/>
	</g>
	<g>
		
			<linearGradient id="SVGID_00000101814098687928920370000009588028913459240124_" gradientUnits="userSpaceOnUse" x1="960" y1="30.5" x2="960" y2="1050.5">
			<stop  offset="0" style="stop-color:#F4E5A1"/>
			<stop  offset="1" style="stop-color:#D0A641"/>
		</linearGradient>
		<path style="fill:url(#SVGID_00000101814098687928920370000009588028913459240124_);" d="M960,60.5l277.1,480l-277.1,480
			l-277.1-480L960,60.5 M960,30.5l-294.4,510l294.4,510l294.4-510L960,30.5L960,30.5z"/>
	</g>
	<g>
		
			<linearGradient id="SVGID_00000116922071011653607180000010800590073639344799_" gradientUnits="userSpaceOnUse" x1="648.1" y1="570.9" x2="648.1" y2="1080.5">
			<stop  offset="0" style="stop-color:#F4E5A1"/>
			<stop  offset="1" style="stop-color:#D0A641"/>
		</linearGradient>
		<path style="fill:url(#SVGID_00000116922071011653607180000010800590073639344799_);" d="M648,600.9l142,246l7.5,13l0.3-0.2
			l118.8,205.8H379.3l118.8-205.8l0.3,0.2l7.5-13L648,600.9 M648,570.9L493,839.4l-0.3-0.2l-139.3,241.3h589.4L803.4,839.2l-0.3,0.2
			L648,570.9L648,570.9z"/>
	</g>
	<g>
		
			<linearGradient id="SVGID_00000069361472392801592480000012467890779689124525_" gradientUnits="userSpaceOnUse" x1="1760.65" y1="0.5" x2="1760.65" y2="510.5">
			<stop  offset="0" style="stop-color:#F4E5A1"/>
			<stop  offset="1" style="stop-color:#D0A641"/>
		</linearGradient>
		<path style="fill:url(#SVGID_00000069361472392801592480000012467890779689124525_);" d="M1905,15.5v449l-9.2,16l-268.5-465H1905
			 M1920,0.5h-318.7l294.4,510l24.2-42L1920,0.5L1920,0.5z"/>
	</g>
	<g>
		
			<linearGradient id="SVGID_00000064344348135167930160000011346040013404616100_" gradientUnits="userSpaceOnUse" x1="1760.7" y1="570.5" x2="1760.7" y2="1080.5">
			<stop  offset="0" style="stop-color:#F4E5A1"/>
			<stop  offset="1" style="stop-color:#D0A641"/>
		</linearGradient>
		<path style="fill:url(#SVGID_00000064344348135167930160000011346040013404616100_);" d="M1895.8,600.5l9.2,16v449h-277.7
			L1895.8,600.5 M1895.8,570.5l-294.4,510H1920v-468L1895.8,570.5L1895.8,570.5z"/>
	</g>
	<g>
		
			<linearGradient id="SVGID_00000076589263398778613320000006817637088288454079_" gradientUnits="userSpaceOnUse" x1="159.35" y1="570.5" x2="159.35" y2="1080.5">
			<stop  offset="0" style="stop-color:#F4E5A1"/>
			<stop  offset="1" style="stop-color:#D0A641"/>
		</linearGradient>
		<path style="fill:url(#SVGID_00000076589263398778613320000006817637088288454079_);" d="M24.2,600.5l268.5,465H15v-449
			L24.2,600.5 M24.2,570.5L0,612.5v468h318.7L24.2,570.5L24.2,570.5z"/>
	</g>
	<g>
		
			<linearGradient id="SVGID_00000093156027338560463750000001755675880337161864_" gradientUnits="userSpaceOnUse" x1="336" y1="30.5" x2="336" y2="1050.5">
			<stop  offset="0" style="stop-color:#F4E5A1"/>
			<stop  offset="1" style="stop-color:#D0A641"/>
		</linearGradient>
		<path style="fill:url(#SVGID_00000093156027338560463750000001755675880337161864_);" d="M336,60.5l277.1,480l-277.1,480
			l-277.1-480L336,60.5 M336,30.5l-294.4,510l294.4,510l294.4-510L336,30.5L336,30.5z"/>
	</g>
	<g>
		
			<linearGradient id="SVGID_00000119838693227710807940000008851841949029840520_" gradientUnits="userSpaceOnUse" x1="159.35" y1="0.5" x2="159.35" y2="510.5">
			<stop  offset="0" style="stop-color:#F4E5A1"/>
			<stop  offset="1" style="stop-color:#D0A641"/>
		</linearGradient>
		<path style="fill:url(#SVGID_00000119838693227710807940000008851841949029840520_);" d="M292.7,15.5l-268.5,465l-9.2-16v-449
			H292.7 M318.7,0.5H0v468l24.2,42L318.7,0.5L318.7,0.5z"/>
	</g>
</g>
<text transform="matrix(0.5 -0.866 0.866 0.5 69.3009 386.6915)" class="st24 st25 st26">JIMMIE ALLEN</text>
<text transform="matrix(0.5 -0.866 0.866 0.5 488.7574 1005.3585)" class="st24 st25 st26">THU, JULY 07</text>
<text transform="matrix(0.5 -0.866 0.866 0.5 1110.7574 1005.3585)" class="st24 st25 st26">FRI, JULY 08</text>
<text transform="matrix(0.5 -0.866 0.866 0.5 1734.7574 1005.3585)" class="st24 st25 st26">SAT, JULY 09</text>
<text transform="matrix(0.5 -0.866 0.866 0.5 683.8615 405.5138)" class="st24 st25 st26">ZACH WILLIAMS</text>
<text transform="matrix(0.5 -0.866 0.866 0.5 1319.4091 384.7716)" class="st24 st25 st26">BRETT YOUNG</text>
</svg>
