<?xml version="1.0" encoding="utf-8"?>
<!-- Generator: Adobe Illustrator 26.0.0, SVG Export Plug-In . SVG Version: 6.00 Build 0)  -->
<svg version="1.1" id="Layer_1" xmlns="http://www.w3.org/2000/svg" xmlns:xlink="http://www.w3.org/1999/xlink" x="0px" y="0px"
	 viewBox="0 0 1920 1080" style="enable-background:new 0 0 1920 1080;" xml:space="preserve">
<style type="text/css">
	.st0{fill:url(#SVGID_1_);}
	.st1{fill:url(#SVGID_00000065067443233149081130000003247978510058821023_);}
	.st2{clip-path:url(#SVGID_00000127025497818203810840000001080815141422991287_);}
	.st3{fill:#F6F6F6;}
	.st4{fill:url(#SVGID_00000133519301158616319530000015092536940526810034_);}
	.st5{clip-path:url(#SVGID_00000041274320642751097350000012870589678197348514_);}
	.st6{fill:url(#SVGID_00000065776928900731992370000008270725083841378465_);}
	.st7{fill:url(#SVGID_00000065074450802338668720000010842181393314177675_);}
	.st8{fill:url(#SVGID_00000064334900848948230300000008130194324110357154_);}
	.st9{fill:url(#SVGID_00000100377040037401820730000002101575813468647861_);}
	.st10{clip-path:url(#SVGID_00000052094227060857657460000008681382494513879216_);}
	.st11{fill:#17201F;}
	.st12{fill:url(#SVGID_00000048487172971798670290000005948349374303662776_);}
	.st13{fill:url(#SVGID_00000118355874623264333330000008282548753726696353_);}
	.st14{fill:url(#SVGID_00000075133260740279495880000001513804021437671587_);}
	.st15{fill:url(#SVGID_00000016065656578509000600000000513963323883065524_);}
	.st16{fill:url(#SVGID_00000161595040456719640800000003812649987053291452_);}
	.st17{fill:url(#SVGID_00000028310432294070917160000003428290326206424207_);}
	.st18{fill:url(#SVGID_00000029759019285008332150000013884628905925434293_);}
	.st19{fill:url(#SVGID_00000114075337385384243090000017235834569962504834_);}
	.st20{fill:url(#SVGID_00000141444729431028668170000005892062185415388573_);}
	.st21{fill:url(#SVGID_00000104680271701863990490000007831043392261694870_);}
	.st22{fill:url(#SVGID_00000150801388159776880190000015769360402637605546_);}
	.st23{fill:url(#SVGID_00000146480404771127884670000011670566504550206129_);}
	.st24{fill:#FFFFFF;}
	.st25{font-family:'BebasNeue-Regular';}
	.st26{font-size:80.6467px;}
</style>
<g>
	<linearGradient id="SVGID_1_" gradientUnits="userSpaceOnUse" x1="1272" y1="510.1" x2="1272" y2="0.5">
		<stop  offset="6.379092e-09" style="stop-color:#800000"/>
		<stop  offset="1" style="stop-color:#333333"/>
	</linearGradient>
	<polygon class="st0" points="1117,241.6 1272,510.1 1427,241.6 1427.4,241.8 1566.7,0.5 977.3,0.5 1116.6,241.8 	"/>
	
		<linearGradient id="SVGID_00000166635303851866287040000000516053810977881743_" gradientUnits="userSpaceOnUse" x1="648" y1="510.1" x2="648" y2="0.5">
		<stop  offset="6.379092e-09" style="stop-color:#800000"/>
		<stop  offset="1" style="stop-color:#333333"/>
	</linearGradient>
	<polygon style="fill:url(#SVGID_00000166635303851866287040000000516053810977881743_);" points="493,241.6 648,510.1 803,241.6 
		803.4,241.8 942.7,0.5 353.3,0.5 492.6,241.8 	"/>
	<g>
		<g>
			<defs>
				<polygon id="SVGID_00000009583650959543984830000010471466165039370638_" points="1584,1041.3 1873.1,540.5 1584,39.7 
					1294.9,540.5 				"/>
			</defs>
			<clipPath id="SVGID_00000031191987077251491590000017966647959722549132_">
				<use xlink:href="#SVGID_00000009583650959543984830000010471466165039370638_"  style="overflow:visible;"/>
			</clipPath>
			<g style="clip-path:url(#SVGID_00000031191987077251491590000017966647959722549132_);">
				<rect x="1027.5" y="30.5" class="st3" width="1112.2" height="1055.5"/>
				
					<image style="overflow:visible;enable-background:new    ;" width="2000" height="1333" xlink:href="../../../../../Creative Cloud Files/Entertainment 2021/brettyoung.jpeg"  transform="matrix(0.6159 5.029754e-02 -5.029754e-02 0.6159 1005.5782 149.7324)">
				</image>
			</g>
		</g>
	</g>
	
		<linearGradient id="SVGID_00000080164507273816494640000008091303693183105718_" gradientUnits="userSpaceOnUse" x1="1272" y1="1080.5" x2="1272" y2="570.9">
		<stop  offset="6.379092e-09" style="stop-color:#800000"/>
		<stop  offset="1" style="stop-color:#333333"/>
	</linearGradient>
	<polygon style="fill:url(#SVGID_00000080164507273816494640000008091303693183105718_);" points="1427,839.4 1272,570.9 
		1117,839.4 1116.6,839.2 977.3,1080.5 1566.7,1080.5 1427.4,839.2 	"/>
	<g>
		<g>
			<defs>
				<polygon id="SVGID_00000013908961996355952320000010131540332998640277_" points="670.9,540.5 960,1041.3 1249.1,540.5 
					960,39.7 				"/>
			</defs>
			<clipPath id="SVGID_00000119828446489073141060000011704288258155276468_">
				<use xlink:href="#SVGID_00000013908961996355952320000010131540332998640277_"  style="overflow:visible;"/>
			</clipPath>
			<g transform="matrix(1 0 0 1 0 0)" style="clip-path:url(#SVGID_00000119828446489073141060000011704288258155276468_);">
				
					<image style="overflow:visible;enable-background:new    ;" width="2048" height="1365" xlink:href="../../../../../Creative Cloud Files/Entertainment 2021/zachwilliams.jpg"  transform="matrix(0.8389 0 0 0.8389 -21.0113 53)">
				</image>
			</g>
		</g>
	</g>
	
		<linearGradient id="SVGID_00000041292395973905090330000011376218199982223497_" gradientUnits="userSpaceOnUse" x1="648" y1="1080.5" x2="648" y2="570.9">
		<stop  offset="6.379092e-09" style="stop-color:#800000"/>
		<stop  offset="1" style="stop-color:#333333"/>
	</linearGradient>
	<polygon style="fill:url(#SVGID_00000041292395973905090330000011376218199982223497_);" points="803,839.4 648,570.9 493,839.4 
		492.6,839.2 353.3,1080.5 942.7,1080.5 803.4,839.2 	"/>
	
		<linearGradient id="SVGID_00000103961318681950401560000015556874977796687769_" gradientUnits="userSpaceOnUse" x1="1760.65" y1="510.5" x2="1760.65" y2="0.5">
		<stop  offset="6.379092e-09" style="stop-color:#800000"/>
		<stop  offset="1" style="stop-color:#333333"/>
	</linearGradient>
	<polygon style="fill:url(#SVGID_00000103961318681950401560000015556874977796687769_);" points="1920,468.5 1920,0.5 1601.3,0.5 
		1895.8,510.5 	"/>
	
		<linearGradient id="SVGID_00000052826476264652899090000000557017414800932784_" gradientUnits="userSpaceOnUse" x1="1760.65" y1="1080.5" x2="1760.65" y2="570.5">
		<stop  offset="6.379092e-09" style="stop-color:#800000"/>
		<stop  offset="1" style="stop-color:#333333"/>
	</linearGradient>
	<polygon style="fill:url(#SVGID_00000052826476264652899090000000557017414800932784_);" points="1920,612.5 1895.8,570.5 
		1601.3,1080.5 1920,1080.5 	"/>
	
		<linearGradient id="SVGID_00000110448162605813810360000016185797210636097206_" gradientUnits="userSpaceOnUse" x1="159.35" y1="1080.5" x2="159.35" y2="570.5">
		<stop  offset="6.379092e-09" style="stop-color:#800000"/>
		<stop  offset="1" style="stop-color:#333333"/>
	</linearGradient>
	<polygon style="fill:url(#SVGID_00000110448162605813810360000016185797210636097206_);" points="0,612.5 0,1080.5 318.7,1080.5 
		24.2,570.5 	"/>
	<g>
		<g>
			<g>
				<defs>
					<polygon id="SVGID_00000033327498113224980100000002840223654905264045_" points="42.9,540.5 335.6,1047.6 628.4,540.5 
						335.6,33.4 					"/>
				</defs>
				<clipPath id="SVGID_00000054234375566411109120000015116611255019972030_">
					<use xlink:href="#SVGID_00000033327498113224980100000002840223654905264045_"  style="overflow:visible;"/>
				</clipPath>
				<g style="clip-path:url(#SVGID_00000054234375566411109120000015116611255019972030_);">
					<rect x="-120" y="59.2" class="st11" width="888.1" height="871.5"/>
					
						<image style="overflow:visible;enable-background:new    ;" width="958" height="959" xlink:href="../../../../../Creative Cloud Files/Entertainment 2021/jimmieallen.jpg"  transform="matrix(0.9318 0 0 0.9634 -110.7473 229.071)">
					</image>
				</g>
			</g>
		</g>
	</g>
	
		<linearGradient id="SVGID_00000182493328623582917560000010957487040848907413_" gradientUnits="userSpaceOnUse" x1="159.35" y1="510.5" x2="159.35" y2="0.5">
		<stop  offset="6.379092e-09" style="stop-color:#800000"/>
		<stop  offset="1" style="stop-color:#333333"/>
	</linearGradient>
	<polygon style="fill:url(#SVGID_00000182493328623582917560000010957487040848907413_);" points="0,468.5 24.2,510.5 318.7,0.5 
		0,0.5 	"/>
</g>
<g>
	<g>
		
			<linearGradient id="SVGID_00000176738412389475658460000012961985968207082658_" gradientUnits="userSpaceOnUse" x1="1272" y1="0.5" x2="1272" y2="510.1">
			<stop  offset="0" style="stop-color:#F4E5A1"/>
			<stop  offset="1" style="stop-color:#D0A641"/>
		</linearGradient>
		<path style="fill:url(#SVGID_00000176738412389475658460000012961985968207082658_);" d="M1540.7,15.5l-118.8,205.8l-0.3-0.2
			l-7.5,13l-142,246l-142-246l-7.5-13l-0.3,0.2l-119-205.8H1540.7 M1566.7,0.5H977.3l139.3,241.3l0.3-0.2l155,268.5l155-268.5
			l0.3,0.2L1566.7,0.5L1566.7,0.5z"/>
	</g>
	<g>
		
			<linearGradient id="SVGID_00000018940239660342763480000010335345008983352975_" gradientUnits="userSpaceOnUse" x1="648" y1="0.5" x2="648" y2="510.1">
			<stop  offset="0" style="stop-color:#F4E5A1"/>
			<stop  offset="1" style="stop-color:#D0A641"/>
		</linearGradient>
		<path style="fill:url(#SVGID_00000018940239660342763480000010335345008983352975_);" d="M916.7,15.5L797.9,221.3l-0.3-0.2
			l-7.5,13l-142,246l-142-246l-7.5-13l-0.3,0.2l-119-205.8H916.7 M942.7,0.5H353.3l139.3,241.3l0.3-0.2l155,268.5l155-268.5l0.3,0.2
			L942.7,0.5L942.7,0.5z"/>
	</g>
	<g>
		
			<linearGradient id="SVGID_00000088848658225235256080000018225774569382486441_" gradientUnits="userSpaceOnUse" x1="1584" y1="30.5" x2="1584" y2="1050.5">
			<stop  offset="0" style="stop-color:#F4E5A1"/>
			<stop  offset="1" style="stop-color:#D0A641"/>
		</linearGradient>
		<path style="fill:url(#SVGID_00000088848658225235256080000018225774569382486441_);" d="M1584,60.5l277.1,480l-277.1,480
			l-277.1-480L1584,60.5 M1584,30.5l-294.4,510l294.4,510l294.4-510L1584,30.5L1584,30.5z"/>
	</g>
	<g>
		
			<linearGradient id="SVGID_00000075876093461208087520000017912773991576604597_" gradientUnits="userSpaceOnUse" x1="1272.1" y1="570.9" x2="1272.1" y2="1080.5">
			<stop  offset="0" style="stop-color:#F4E5A1"/>
			<stop  offset="1" style="stop-color:#D0A641"/>
		</linearGradient>
		<path style="fill:url(#SVGID_00000075876093461208087520000017912773991576604597_);" d="M1272,600.9l142,246l7.5,13l0.3-0.2
			l118.8,205.8h-537.4L1122,859.7l0.3,0.2l7.5-13L1272,600.9 M1272,570.9l-155,268.5l-0.3-0.2l-139.3,241.3h589.4l-139.3-241.3
			l-0.3,0.2L1272,570.9L1272,570.9z"/>
	</g>
	<g>
		
			<linearGradient id="SVGID_00000035496408980232393850000009790710776904435372_" gradientUnits="userSpaceOnUse" x1="960" y1="30.5" x2="960" y2="1050.5">
			<stop  offset="0" style="stop-color:#F4E5A1"/>
			<stop  offset="1" style="stop-color:#D0A641"/>
		</linearGradient>
		<path style="fill:url(#SVGID_00000035496408980232393850000009790710776904435372_);" d="M960,60.5l277.1,480l-277.1,480
			l-277.1-480L960,60.5 M960,30.5l-294.4,510l294.4,510l294.4-510L960,30.5L960,30.5z"/>
	</g>
	<g>
		
			<linearGradient id="SVGID_00000107581502347819243620000004153695556048769165_" gradientUnits="userSpaceOnUse" x1="648.1" y1="570.9" x2="648.1" y2="1080.5">
			<stop  offset="0" style="stop-color:#F4E5A1"/>
			<stop  offset="1" style="stop-color:#D0A641"/>
		</linearGradient>
		<path style="fill:url(#SVGID_00000107581502347819243620000004153695556048769165_);" d="M648,600.9l142,246l7.5,13l0.3-0.2
			l118.8,205.8H379.3l118.8-205.8l0.3,0.2l7.5-13L648,600.9 M648,570.9L493,839.4l-0.3-0.2l-139.3,241.3h589.4L803.4,839.2l-0.3,0.2
			L648,570.9L648,570.9z"/>
	</g>
	<g>
		
			<linearGradient id="SVGID_00000024683986623673420560000015480677218804115334_" gradientUnits="userSpaceOnUse" x1="1760.65" y1="0.5" x2="1760.65" y2="510.5">
			<stop  offset="0" style="stop-color:#F4E5A1"/>
			<stop  offset="1" style="stop-color:#D0A641"/>
		</linearGradient>
		<path style="fill:url(#SVGID_00000024683986623673420560000015480677218804115334_);" d="M1905,15.5v449l-9.2,16l-268.5-465H1905
			 M1920,0.5h-318.7l294.4,510l24.2-42L1920,0.5L1920,0.5z"/>
	</g>
	<g>
		
			<linearGradient id="SVGID_00000164509643550029179990000010237006263555861153_" gradientUnits="userSpaceOnUse" x1="1760.7" y1="570.5" x2="1760.7" y2="1080.5">
			<stop  offset="0" style="stop-color:#F4E5A1"/>
			<stop  offset="1" style="stop-color:#D0A641"/>
		</linearGradient>
		<path style="fill:url(#SVGID_00000164509643550029179990000010237006263555861153_);" d="M1895.8,600.5l9.2,16v449h-277.7
			L1895.8,600.5 M1895.8,570.5l-294.4,510H1920v-468L1895.8,570.5L1895.8,570.5z"/>
	</g>
	<g>
		
			<linearGradient id="SVGID_00000128452561888628353990000000958541462315944339_" gradientUnits="userSpaceOnUse" x1="159.35" y1="570.5" x2="159.35" y2="1080.5">
			<stop  offset="0" style="stop-color:#F4E5A1"/>
			<stop  offset="1" style="stop-color:#D0A641"/>
		</linearGradient>
		<path style="fill:url(#SVGID_00000128452561888628353990000000958541462315944339_);" d="M24.2,600.5l268.5,465H15v-449
			L24.2,600.5 M24.2,570.5L0,612.5v468h318.7L24.2,570.5L24.2,570.5z"/>
	</g>
	<g>
		
			<linearGradient id="SVGID_00000037683483149046356980000014477467262934334095_" gradientUnits="userSpaceOnUse" x1="336" y1="30.5" x2="336" y2="1050.5">
			<stop  offset="0" style="stop-color:#F4E5A1"/>
			<stop  offset="1" style="stop-color:#D0A641"/>
		</linearGradient>
		<path style="fill:url(#SVGID_00000037683483149046356980000014477467262934334095_);" d="M336,60.5l277.1,480l-277.1,480
			l-277.1-480L336,60.5 M336,30.5l-294.4,510l294.4,510l294.4-510L336,30.5L336,30.5z"/>
	</g>
	<g>
		
			<linearGradient id="SVGID_00000096747743067021267000000008261310616000822435_" gradientUnits="userSpaceOnUse" x1="159.35" y1="0.5" x2="159.35" y2="510.5">
			<stop  offset="0" style="stop-color:#F4E5A1"/>
			<stop  offset="1" style="stop-color:#D0A641"/>
		</linearGradient>
		<path style="fill:url(#SVGID_00000096747743067021267000000008261310616000822435_);" d="M292.7,15.5l-268.5,465l-9.2-16v-449
			H292.7 M318.7,0.5H0v468l24.2,42L318.7,0.5L318.7,0.5z"/>
	</g>
</g>
<text transform="matrix(0.5 -0.866 0.866 0.5 69.3009 386.6915)" class="st24 st25 st26">JIMMIE ALLEN</text>
<text transform="matrix(0.5 -0.866 0.866 0.5 488.7574 1005.3585)" class="st24 st25 st26">THU, JULY 07</text>
<text transform="matrix(0.5 -0.866 0.866 0.5 1110.7574 1005.3585)" class="st24 st25 st26">FRI, JULY 08</text>
<text transform="matrix(0.5 -0.866 0.866 0.5 1734.7574 1005.3585)" class="st24 st25 st26">SAT, JULY 09</text>
<text transform="matrix(0.5 -0.866 0.866 0.5 683.8615 405.5138)" class="st24 st25 st26">ZACH WILLIAMS</text>
<text transform="matrix(0.5 -0.866 0.866 0.5 1319.4091 384.7716)" class="st24 st25 st26">BRETT YOUNG</text>
</svg>
