<?xml version="1.0" encoding="utf-8"?>
<!-- Generator: Adobe Illustrator 26.0.0, SVG Export Plug-In . SVG Version: 6.00 Build 0)  -->
<svg version="1.1" id="Layer_1" xmlns="http://www.w3.org/2000/svg" xmlns:xlink="http://www.w3.org/1999/xlink" x="0px" y="0px"
	 viewBox="0 0 1920 1080" style="enable-background:new 0 0 1920 1080;" xml:space="preserve">
<style type="text/css">
	.st0{fill:url(#SVGID_1_);}
	.st1{fill:url(#SVGID_00000023976159953470191830000000149559730085194173_);}
	.st2{clip-path:url(#SVGID_00000020366536147469571880000011558583251147563924_);}
	.st3{fill:#F6F6F6;}
	.st4{fill:url(#SVGID_00000121256970615395447720000011640500012872272289_);}
	.st5{clip-path:url(#SVGID_00000106867327198118229800000015164211982729025466_);}
	.st6{fill:url(#SVGID_00000176044062368280155430000007033805379313810057_);}
	.st7{fill:url(#SVGID_00000153694675166349180370000011483072205195837113_);}
	.st8{fill:url(#SVGID_00000139271151886765354980000001687073819800249277_);}
	.st9{fill:url(#SVGID_00000010312375720576984040000010101359000795527061_);}
	.st10{clip-path:url(#SVGID_00000130624820706282552740000014913122919283107492_);}
	.st11{fill:#17201F;}
	.st12{fill:url(#SVGID_00000178900314646247747290000008742641304185717427_);}
	.st13{fill:url(#SVGID_00000081626808160535591830000003159619193038003597_);}
	.st14{fill:url(#SVGID_00000167385380564693985270000010936112637158957452_);}
	.st15{fill:url(#SVGID_00000044856700881076122740000009192253037834823580_);}
	.st16{fill:url(#SVGID_00000047756811920302162280000000937099209944871096_);}
	.st17{fill:url(#SVGID_00000129924270047902884220000001437712668768318349_);}
	.st18{fill:url(#SVGID_00000163776128895417147720000007040356567054623912_);}
	.st19{fill:url(#SVGID_00000103239394330261012620000000320234845388101017_);}
	.st20{fill:url(#SVGID_00000176728706159504581170000012465397635906398127_);}
	.st21{fill:url(#SVGID_00000031200413281806214400000004568937942253332870_);}
	.st22{fill:url(#SVGID_00000022536273762361292980000012592403782574542993_);}
	.st23{fill:url(#SVGID_00000074429473440208085940000004048387942762931886_);}
	.st24{fill:#FFFFFF;}
	.st25{font-family:'BebasNeue-Regular';}
	.st26{font-size:80.6467px;}
</style>
<g>
	<linearGradient id="SVGID_1_" gradientUnits="userSpaceOnUse" x1="1272" y1="510.1" x2="1272" y2="0.5">
		<stop  offset="6.379092e-09" style="stop-color:#800000"/>
		<stop  offset="1" style="stop-color:#333333"/>
	</linearGradient>
	<polygon class="st0" points="1117,241.6 1272,510.1 1427,241.6 1427.4,241.8 1566.7,0.5 977.3,0.5 1116.6,241.8 	"/>
	
		<linearGradient id="SVGID_00000083069095311139508680000014467878069606066865_" gradientUnits="userSpaceOnUse" x1="648" y1="510.1" x2="648" y2="0.5">
		<stop  offset="6.379092e-09" style="stop-color:#800000"/>
		<stop  offset="1" style="stop-color:#333333"/>
	</linearGradient>
	<polygon style="fill:url(#SVGID_00000083069095311139508680000014467878069606066865_);" points="493,241.6 648,510.1 803,241.6 
		803.4,241.8 942.7,0.5 353.3,0.5 492.6,241.8 	"/>
	<g>
		<g>
			<defs>
				<polygon id="SVGID_00000099648793338365995090000011376997132760053661_" points="1584,1041.3 1873.1,540.5 1584,39.7 
					1294.9,540.5 				"/>
			</defs>
			<clipPath id="SVGID_00000058549436476774072180000016450108916853930131_">
				<use xlink:href="#SVGID_00000099648793338365995090000011376997132760053661_"  style="overflow:visible;"/>
			</clipPath>
			<g style="clip-path:url(#SVGID_00000058549436476774072180000016450108916853930131_);">
				<rect x="1027.5" y="30.5" class="st3" width="1112.2" height="1055.5"/>
				
					<image style="overflow:visible;enable-background:new    ;" width="2000" height="1333" xlink:href="../../../../../Creative Cloud Files/Entertainment 2021/brettyoung.jpeg"  transform="matrix(0.6159 5.029754e-02 -5.029754e-02 0.6159 1005.5782 149.7324)">
				</image>
			</g>
		</g>
	</g>
	
		<linearGradient id="SVGID_00000049905378525172259130000014866596230450067089_" gradientUnits="userSpaceOnUse" x1="1272" y1="1080.5" x2="1272" y2="570.9">
		<stop  offset="6.379092e-09" style="stop-color:#800000"/>
		<stop  offset="1" style="stop-color:#333333"/>
	</linearGradient>
	<polygon style="fill:url(#SVGID_00000049905378525172259130000014866596230450067089_);" points="1427,839.4 1272,570.9 
		1117,839.4 1116.6,839.2 977.3,1080.5 1566.7,1080.5 1427.4,839.2 	"/>
	<g>
		<g>
			<defs>
				<polygon id="SVGID_00000085958282353080442810000017845135629862928304_" points="670.9,540.5 960,1041.3 1249.1,540.5 
					960,39.7 				"/>
			</defs>
			<clipPath id="SVGID_00000125571171695104167590000004481030076768326794_">
				<use xlink:href="#SVGID_00000085958282353080442810000017845135629862928304_"  style="overflow:visible;"/>
			</clipPath>
			<g transform="matrix(1 0 0 1 0 0)" style="clip-path:url(#SVGID_00000125571171695104167590000004481030076768326794_);">
				
					<image style="overflow:visible;enable-background:new    ;" width="2048" height="1365" xlink:href="../../../../../Creative Cloud Files/Entertainment 2021/zachwilliams.jpg"  transform="matrix(0.8389 0 0 0.8389 -21.0113 53)">
				</image>
			</g>
		</g>
	</g>
	
		<linearGradient id="SVGID_00000076599832754957388890000002951115009587073207_" gradientUnits="userSpaceOnUse" x1="648" y1="1080.5" x2="648" y2="570.9">
		<stop  offset="6.379092e-09" style="stop-color:#800000"/>
		<stop  offset="1" style="stop-color:#333333"/>
	</linearGradient>
	<polygon style="fill:url(#SVGID_00000076599832754957388890000002951115009587073207_);" points="803,839.4 648,570.9 493,839.4 
		492.6,839.2 353.3,1080.5 942.7,1080.5 803.4,839.2 	"/>
	
		<linearGradient id="SVGID_00000056423119729369058720000007679165488180432286_" gradientUnits="userSpaceOnUse" x1="1760.65" y1="510.5" x2="1760.65" y2="0.5">
		<stop  offset="6.379092e-09" style="stop-color:#800000"/>
		<stop  offset="1" style="stop-color:#333333"/>
	</linearGradient>
	<polygon style="fill:url(#SVGID_00000056423119729369058720000007679165488180432286_);" points="1920,468.5 1920,0.5 1601.3,0.5 
		1895.8,510.5 	"/>
	
		<linearGradient id="SVGID_00000126292975008834526920000016969129493143900041_" gradientUnits="userSpaceOnUse" x1="1760.65" y1="1080.5" x2="1760.65" y2="570.5">
		<stop  offset="6.379092e-09" style="stop-color:#800000"/>
		<stop  offset="1" style="stop-color:#333333"/>
	</linearGradient>
	<polygon style="fill:url(#SVGID_00000126292975008834526920000016969129493143900041_);" points="1920,612.5 1895.8,570.5 
		1601.3,1080.5 1920,1080.5 	"/>
	
		<linearGradient id="SVGID_00000173140738748897998720000013285409145493078923_" gradientUnits="userSpaceOnUse" x1="159.35" y1="1080.5" x2="159.35" y2="570.5">
		<stop  offset="6.379092e-09" style="stop-color:#800000"/>
		<stop  offset="1" style="stop-color:#333333"/>
	</linearGradient>
	<polygon style="fill:url(#SVGID_00000173140738748897998720000013285409145493078923_);" points="0,612.5 0,1080.5 318.7,1080.5 
		24.2,570.5 	"/>
	<g>
		<g>
			<g>
				<defs>
					<polygon id="SVGID_00000020374844823891019170000006331687913163379613_" points="42.9,540.5 335.6,1047.6 628.4,540.5 
						335.6,33.4 					"/>
				</defs>
				<clipPath id="SVGID_00000074417190689966333990000008812616045550821780_">
					<use xlink:href="#SVGID_00000020374844823891019170000006331687913163379613_"  style="overflow:visible;"/>
				</clipPath>
				<g style="clip-path:url(#SVGID_00000074417190689966333990000008812616045550821780_);">
					<rect x="-120" y="59.2" class="st11" width="888.1" height="871.5"/>
					
						<image style="overflow:visible;enable-background:new    ;" width="958" height="959" xlink:href="../../../../../Creative Cloud Files/Entertainment 2021/jimmieallen.jpg"  transform="matrix(0.9318 0 0 0.9634 -110.7473 229.071)">
					</image>
				</g>
			</g>
		</g>
	</g>
	
		<linearGradient id="SVGID_00000083777490530758957820000000771796757697764247_" gradientUnits="userSpaceOnUse" x1="159.35" y1="510.5" x2="159.35" y2="0.5">
		<stop  offset="6.379092e-09" style="stop-color:#800000"/>
		<stop  offset="1" style="stop-color:#333333"/>
	</linearGradient>
	<polygon style="fill:url(#SVGID_00000083777490530758957820000000771796757697764247_);" points="0,468.5 24.2,510.5 318.7,0.5 
		0,0.5 	"/>
</g>
<g>
	<g>
		
			<linearGradient id="SVGID_00000129886253555666529190000004030156254640260226_" gradientUnits="userSpaceOnUse" x1="1272" y1="0.5" x2="1272" y2="510.1">
			<stop  offset="0" style="stop-color:#F4E5A1"/>
			<stop  offset="1" style="stop-color:#D0A641"/>
		</linearGradient>
		<path style="fill:url(#SVGID_00000129886253555666529190000004030156254640260226_);" d="M1540.7,15.5l-118.8,205.8l-0.3-0.2
			l-7.5,13l-142,246l-142-246l-7.5-13l-0.3,0.2l-119-205.8H1540.7 M1566.7,0.5H977.3l139.3,241.3l0.3-0.2l155,268.5l155-268.5
			l0.3,0.2L1566.7,0.5L1566.7,0.5z"/>
	</g>
	<g>
		
			<linearGradient id="SVGID_00000114765421647031547370000001777640577955884433_" gradientUnits="userSpaceOnUse" x1="648" y1="0.5" x2="648" y2="510.1">
			<stop  offset="0" style="stop-color:#F4E5A1"/>
			<stop  offset="1" style="stop-color:#D0A641"/>
		</linearGradient>
		<path style="fill:url(#SVGID_00000114765421647031547370000001777640577955884433_);" d="M916.7,15.5L797.9,221.3l-0.3-0.2
			l-7.5,13l-142,246l-142-246l-7.5-13l-0.3,0.2l-119-205.8H916.7 M942.7,0.5H353.3l139.3,241.3l0.3-0.2l155,268.5l155-268.5l0.3,0.2
			L942.7,0.5L942.7,0.5z"/>
	</g>
	<g>
		
			<linearGradient id="SVGID_00000181058558646489968420000016959061245885930148_" gradientUnits="userSpaceOnUse" x1="1584" y1="30.5" x2="1584" y2="1050.5">
			<stop  offset="0" style="stop-color:#F4E5A1"/>
			<stop  offset="1" style="stop-color:#D0A641"/>
		</linearGradient>
		<path style="fill:url(#SVGID_00000181058558646489968420000016959061245885930148_);" d="M1584,60.5l277.1,480l-277.1,480
			l-277.1-480L1584,60.5 M1584,30.5l-294.4,510l294.4,510l294.4-510L1584,30.5L1584,30.5z"/>
	</g>
	<g>
		
			<linearGradient id="SVGID_00000081622570139578821660000017776849591130521491_" gradientUnits="userSpaceOnUse" x1="1272.1" y1="570.9" x2="1272.1" y2="1080.5">
			<stop  offset="0" style="stop-color:#F4E5A1"/>
			<stop  offset="1" style="stop-color:#D0A641"/>
		</linearGradient>
		<path style="fill:url(#SVGID_00000081622570139578821660000017776849591130521491_);" d="M1272,600.9l142,246l7.5,13l0.3-0.2
			l118.8,205.8h-537.4L1122,859.7l0.3,0.2l7.5-13L1272,600.9 M1272,570.9l-155,268.5l-0.3-0.2l-139.3,241.3h589.4l-139.3-241.3
			l-0.3,0.2L1272,570.9L1272,570.9z"/>
	</g>
	<g>
		
			<linearGradient id="SVGID_00000113339642223886854200000001406858916981084607_" gradientUnits="userSpaceOnUse" x1="960" y1="30.5" x2="960" y2="1050.5">
			<stop  offset="0" style="stop-color:#F4E5A1"/>
			<stop  offset="1" style="stop-color:#D0A641"/>
		</linearGradient>
		<path style="fill:url(#SVGID_00000113339642223886854200000001406858916981084607_);" d="M960,60.5l277.1,480l-277.1,480
			l-277.1-480L960,60.5 M960,30.5l-294.4,510l294.4,510l294.4-510L960,30.5L960,30.5z"/>
	</g>
	<g>
		
			<linearGradient id="SVGID_00000108273014324387025750000006829432034336336295_" gradientUnits="userSpaceOnUse" x1="648.1" y1="570.9" x2="648.1" y2="1080.5">
			<stop  offset="0" style="stop-color:#F4E5A1"/>
			<stop  offset="1" style="stop-color:#D0A641"/>
		</linearGradient>
		<path style="fill:url(#SVGID_00000108273014324387025750000006829432034336336295_);" d="M648,600.9l142,246l7.5,13l0.3-0.2
			l118.8,205.8H379.3l118.8-205.8l0.3,0.2l7.5-13L648,600.9 M648,570.9L493,839.4l-0.3-0.2l-139.3,241.3h589.4L803.4,839.2l-0.3,0.2
			L648,570.9L648,570.9z"/>
	</g>
	<g>
		
			<linearGradient id="SVGID_00000117661235683200582390000017169991019873167755_" gradientUnits="userSpaceOnUse" x1="1760.65" y1="0.5" x2="1760.65" y2="510.5">
			<stop  offset="0" style="stop-color:#F4E5A1"/>
			<stop  offset="1" style="stop-color:#D0A641"/>
		</linearGradient>
		<path style="fill:url(#SVGID_00000117661235683200582390000017169991019873167755_);" d="M1905,15.5v449l-9.2,16l-268.5-465H1905
			 M1920,0.5h-318.7l294.4,510l24.2-42L1920,0.5L1920,0.5z"/>
	</g>
	<g>
		
			<linearGradient id="SVGID_00000050654352471460119400000004066253919216544930_" gradientUnits="userSpaceOnUse" x1="1760.7" y1="570.5" x2="1760.7" y2="1080.5">
			<stop  offset="0" style="stop-color:#F4E5A1"/>
			<stop  offset="1" style="stop-color:#D0A641"/>
		</linearGradient>
		<path style="fill:url(#SVGID_00000050654352471460119400000004066253919216544930_);" d="M1895.8,600.5l9.2,16v449h-277.7
			L1895.8,600.5 M1895.8,570.5l-294.4,510H1920v-468L1895.8,570.5L1895.8,570.5z"/>
	</g>
	<g>
		
			<linearGradient id="SVGID_00000072257026663597275260000013051628578345023905_" gradientUnits="userSpaceOnUse" x1="159.35" y1="570.5" x2="159.35" y2="1080.5">
			<stop  offset="0" style="stop-color:#F4E5A1"/>
			<stop  offset="1" style="stop-color:#D0A641"/>
		</linearGradient>
		<path style="fill:url(#SVGID_00000072257026663597275260000013051628578345023905_);" d="M24.2,600.5l268.5,465H15v-449
			L24.2,600.5 M24.2,570.5L0,612.5v468h318.7L24.2,570.5L24.2,570.5z"/>
	</g>
	<g>
		
			<linearGradient id="SVGID_00000009553493665433379630000002961096228438331062_" gradientUnits="userSpaceOnUse" x1="336" y1="30.5" x2="336" y2="1050.5">
			<stop  offset="0" style="stop-color:#F4E5A1"/>
			<stop  offset="1" style="stop-color:#D0A641"/>
		</linearGradient>
		<path style="fill:url(#SVGID_00000009553493665433379630000002961096228438331062_);" d="M336,60.5l277.1,480l-277.1,480
			l-277.1-480L336,60.5 M336,30.5l-294.4,510l294.4,510l294.4-510L336,30.5L336,30.5z"/>
	</g>
	<g>
		
			<linearGradient id="SVGID_00000080903779755343652920000002105921435637313203_" gradientUnits="userSpaceOnUse" x1="159.35" y1="0.5" x2="159.35" y2="510.5">
			<stop  offset="0" style="stop-color:#F4E5A1"/>
			<stop  offset="1" style="stop-color:#D0A641"/>
		</linearGradient>
		<path style="fill:url(#SVGID_00000080903779755343652920000002105921435637313203_);" d="M292.7,15.5l-268.5,465l-9.2-16v-449
			H292.7 M318.7,0.5H0v468l24.2,42L318.7,0.5L318.7,0.5z"/>
	</g>
</g>
<text transform="matrix(0.5 -0.866 0.866 0.5 69.3009 386.6915)" class="st24 st25 st26">JIMMIE ALLEN</text>
<text transform="matrix(0.5 -0.866 0.866 0.5 488.7574 1005.3585)" class="st24 st25 st26">THU, JULY 07</text>
<text transform="matrix(0.5 -0.866 0.866 0.5 1110.7574 1005.3585)" class="st24 st25 st26">FRI, JULY 08</text>
<text transform="matrix(0.5 -0.866 0.866 0.5 1734.7574 1005.3585)" class="st24 st25 st26">SAT, JULY 09</text>
<text transform="matrix(0.5 -0.866 0.866 0.5 683.8615 405.5138)" class="st24 st25 st26">ZACH WILLIAMS</text>
<text transform="matrix(0.5 -0.866 0.866 0.5 1319.4091 384.7716)" class="st24 st25 st26">BRETT YOUNG</text>
</svg>
