<?xml version="1.0" encoding="utf-8"?>
<!-- Generator: Adobe Illustrator 26.0.0, SVG Export Plug-In . SVG Version: 6.00 Build 0)  -->
<svg version="1.1" id="Layer_1" xmlns="http://www.w3.org/2000/svg" xmlns:xlink="http://www.w3.org/1999/xlink" x="0px" y="0px"
	 viewBox="0 0 1920 1080" style="enable-background:new 0 0 1920 1080;" xml:space="preserve">
<style type="text/css">
	.st0{fill:url(#SVGID_1_);}
	.st1{fill:url(#SVGID_00000080188802018308131960000003320511653476636058_);}
	.st2{fill:#999999;}
	.st3{fill:url(#SVGID_00000178925648652802813810000015387232713738765480_);}
	.st4{fill:url(#SVGID_00000058584358047886424180000008223036972780076731_);}
	.st5{fill:url(#SVGID_00000024714475656040408610000012525823501305232824_);}
	.st6{fill:url(#SVGID_00000100365099060629493810000009066069571575878313_);}
	.st7{fill:url(#SVGID_00000170271488319464473060000008045752433861910193_);}
	.st8{fill:url(#SVGID_00000024698420609592517510000000897293378901272998_);}
	.st9{fill:url(#SVGID_00000133512311284278062000000018308009856308250812_);}
	.st10{fill:url(#SVGID_00000091011386220726462510000006660723210370683823_);}
	.st11{fill:url(#SVGID_00000031191908399099210880000003722336848187849118_);}
	.st12{fill:url(#SVGID_00000124882842641653110080000014643551634610212523_);}
	.st13{fill:url(#SVGID_00000061448476879932148190000012708542016162232982_);}
	.st14{fill:url(#SVGID_00000152969304752324152290000015250912258574659230_);}
	.st15{fill:url(#SVGID_00000132773641644518726910000017902641960091656068_);}
	.st16{fill:url(#SVGID_00000015314633363142760170000000982986091998665124_);}
	.st17{fill:url(#SVGID_00000075879863251287099070000012414066753866019513_);}
	.st18{fill:url(#SVGID_00000142134011314301865890000015441178272937506750_);}
	.st19{fill:url(#SVGID_00000063635653554875294130000004480148545804419512_);}
</style>
<g>
	<linearGradient id="SVGID_1_" gradientUnits="userSpaceOnUse" x1="1272" y1="510.1002" x2="1272" y2="0.5">
		<stop  offset="0" style="stop-color:#F4E5A1"/>
		<stop  offset="1" style="stop-color:#D0A641"/>
	</linearGradient>
	<polygon class="st0" points="1117,241.6 1272,510.1 1427,241.6 1427.4,241.8 1566.7,0.5 977.3,0.5 1116.6,241.8 	"/>
	
		<linearGradient id="SVGID_00000052788580802314567070000017480910645907518102_" gradientUnits="userSpaceOnUse" x1="648" y1="510.1002" x2="648" y2="0.5">
		<stop  offset="0" style="stop-color:#F4E5A1"/>
		<stop  offset="1" style="stop-color:#D0A641"/>
	</linearGradient>
	<polygon style="fill:url(#SVGID_00000052788580802314567070000017480910645907518102_);" points="493,241.6 648,510.1 803,241.6 
		803.4,241.8 942.7,0.5 353.3,0.5 492.6,241.8 	"/>
	<polygon class="st2" points="1584,1050.5 1878.4,540.5 1584,30.5 1289.6,540.5 	"/>
	
		<linearGradient id="SVGID_00000124143240104056678540000003620792717127921817_" gradientUnits="userSpaceOnUse" x1="1272" y1="1080.5" x2="1272" y2="570.8998">
		<stop  offset="0" style="stop-color:#F4E5A1"/>
		<stop  offset="1" style="stop-color:#D0A641"/>
	</linearGradient>
	<polygon style="fill:url(#SVGID_00000124143240104056678540000003620792717127921817_);" points="1427,839.4 1272,570.9 
		1117,839.4 1116.6,839.2 977.3,1080.5 1566.7,1080.5 1427.4,839.2 	"/>
	<polygon class="st2" points="665.6,540.5 960,1050.5 1254.4,540.5 960,30.5 	"/>
	
		<linearGradient id="SVGID_00000088112531222371838810000012772998408001207475_" gradientUnits="userSpaceOnUse" x1="648" y1="1080.5" x2="648" y2="570.8998">
		<stop  offset="0" style="stop-color:#F4E5A1"/>
		<stop  offset="1" style="stop-color:#D0A641"/>
	</linearGradient>
	<polygon style="fill:url(#SVGID_00000088112531222371838810000012772998408001207475_);" points="803,839.4 648,570.9 493,839.4 
		492.6,839.2 353.3,1080.5 942.7,1080.5 803.4,839.2 	"/>
	
		<linearGradient id="SVGID_00000018229574616848251330000000280038838324425125_" gradientUnits="userSpaceOnUse" x1="1760.6603" y1="510.5001" x2="1760.6603" y2="0.5">
		<stop  offset="0" style="stop-color:#F4E5A1"/>
		<stop  offset="1" style="stop-color:#D0A641"/>
	</linearGradient>
	<polygon style="fill:url(#SVGID_00000018229574616848251330000000280038838324425125_);" points="1920,468.5 1920,0.5 1601.3,0.5 
		1895.8,510.5 	"/>
	
		<linearGradient id="SVGID_00000018233302148650391100000018340481198350675883_" gradientUnits="userSpaceOnUse" x1="1760.6603" y1="1080.5" x2="1760.6603" y2="570.4999">
		<stop  offset="0" style="stop-color:#F4E5A1"/>
		<stop  offset="1" style="stop-color:#D0A641"/>
	</linearGradient>
	<polygon style="fill:url(#SVGID_00000018233302148650391100000018340481198350675883_);" points="1920,612.5 1895.8,570.5 
		1601.3,1080.5 1920,1080.5 	"/>
	
		<linearGradient id="SVGID_00000035496579033635973700000015326544314413116807_" gradientUnits="userSpaceOnUse" x1="159.3397" y1="1080.5" x2="159.3397" y2="570.4999">
		<stop  offset="0" style="stop-color:#F4E5A1"/>
		<stop  offset="1" style="stop-color:#D0A641"/>
	</linearGradient>
	<polygon style="fill:url(#SVGID_00000035496579033635973700000015326544314413116807_);" points="0,612.5 0,1080.5 318.7,1080.5 
		24.2,570.5 	"/>
	<polygon class="st2" points="41.6,540.5 336,1050.5 630.4,540.5 336,30.5 	"/>
	
		<linearGradient id="SVGID_00000178187522631506627100000011316786926587620270_" gradientUnits="userSpaceOnUse" x1="159.3397" y1="510.5001" x2="159.3397" y2="0.5">
		<stop  offset="0" style="stop-color:#F4E5A1"/>
		<stop  offset="1" style="stop-color:#D0A641"/>
	</linearGradient>
	<polygon style="fill:url(#SVGID_00000178187522631506627100000011316786926587620270_);" points="0,468.5 24.2,510.5 318.7,0.5 
		0,0.5 	"/>
</g>
<g>
	<g>
		
			<linearGradient id="SVGID_00000177442129864765162430000002146637793308486293_" gradientUnits="userSpaceOnUse" x1="1272" y1="0.5" x2="1272" y2="510.1002">
			<stop  offset="0" style="stop-color:#F4E5A1"/>
			<stop  offset="1" style="stop-color:#D0A641"/>
		</linearGradient>
		<path style="fill:url(#SVGID_00000177442129864765162430000002146637793308486293_);" d="M1540.7,15.5l-118.8,205.8l-0.3-0.2
			l-7.5,13l-142,246l-142-246l-7.5-13l-0.3,0.2L1003.3,15.5H1540.7 M1566.7,0.5H977.3l139.3,241.3l0.3-0.2l155,268.5l155-268.5
			l0.3,0.2L1566.7,0.5L1566.7,0.5z"/>
	</g>
	<g>
		
			<linearGradient id="SVGID_00000118370049852570577240000013546436897383113893_" gradientUnits="userSpaceOnUse" x1="648" y1="0.5" x2="648" y2="510.1002">
			<stop  offset="0" style="stop-color:#F4E5A1"/>
			<stop  offset="1" style="stop-color:#D0A641"/>
		</linearGradient>
		<path style="fill:url(#SVGID_00000118370049852570577240000013546436897383113893_);" d="M916.7,15.5L797.9,221.3l-0.3-0.2
			l-7.5,13l-142,246l-142-246l-7.5-13l-0.3,0.2L379.3,15.5H916.7 M942.7,0.5H353.3l139.3,241.3l0.3-0.2l155,268.5l155-268.5l0.3,0.2
			L942.7,0.5L942.7,0.5z"/>
	</g>
	<g>
		
			<linearGradient id="SVGID_00000148659163609497871190000010229147335917913512_" gradientUnits="userSpaceOnUse" x1="1584" y1="30.5" x2="1584" y2="1050.5">
			<stop  offset="0" style="stop-color:#F4E5A1"/>
			<stop  offset="1" style="stop-color:#D0A641"/>
		</linearGradient>
		<path style="fill:url(#SVGID_00000148659163609497871190000010229147335917913512_);" d="M1584,60.5l277.1,480l-277.1,480
			l-277.1-480L1584,60.5 M1584,30.5l-294.4,510l294.4,510l294.4-510L1584,30.5L1584,30.5z"/>
	</g>
	<g>
		
			<linearGradient id="SVGID_00000129163834897117739390000016119758754459563447_" gradientUnits="userSpaceOnUse" x1="1272" y1="570.8998" x2="1272" y2="1080.5">
			<stop  offset="0" style="stop-color:#F4E5A1"/>
			<stop  offset="1" style="stop-color:#D0A641"/>
		</linearGradient>
		<path style="fill:url(#SVGID_00000129163834897117739390000016119758754459563447_);" d="M1272,600.9l142,246l7.5,13l0.3-0.2
			l118.8,205.8h-537.4l118.8-205.8l0.3,0.2l7.5-13L1272,600.9 M1272,570.9l-155,268.5l-0.3-0.2l-139.3,241.3h589.4l-139.3-241.3
			l-0.3,0.2L1272,570.9L1272,570.9z"/>
	</g>
	<g>
		
			<linearGradient id="SVGID_00000111877879380825667040000013689973243530442896_" gradientUnits="userSpaceOnUse" x1="960" y1="30.5" x2="960" y2="1050.5">
			<stop  offset="0" style="stop-color:#F4E5A1"/>
			<stop  offset="1" style="stop-color:#D0A641"/>
		</linearGradient>
		<path style="fill:url(#SVGID_00000111877879380825667040000013689973243530442896_);" d="M960,60.5l277.1,480l-277.1,480
			l-277.1-480L960,60.5 M960,30.5l-294.4,510l294.4,510l294.4-510L960,30.5L960,30.5z"/>
	</g>
	<g>
		
			<linearGradient id="SVGID_00000172440236659943297380000017770599763984202923_" gradientUnits="userSpaceOnUse" x1="648" y1="570.8998" x2="648" y2="1080.5">
			<stop  offset="0" style="stop-color:#F4E5A1"/>
			<stop  offset="1" style="stop-color:#D0A641"/>
		</linearGradient>
		<path style="fill:url(#SVGID_00000172440236659943297380000017770599763984202923_);" d="M648,600.9l142,246l7.5,13l0.3-0.2
			l118.8,205.8H379.3l118.8-205.8l0.3,0.2l7.5-13L648,600.9 M648,570.9L493,839.4l-0.3-0.2l-139.3,241.3h589.4L803.4,839.2l-0.3,0.2
			L648,570.9L648,570.9z"/>
	</g>
	<g>
		
			<linearGradient id="SVGID_00000129899971602691242170000003344405437397579965_" gradientUnits="userSpaceOnUse" x1="1760.6603" y1="0.5001" x2="1760.6603" y2="510.5001">
			<stop  offset="0" style="stop-color:#F4E5A1"/>
			<stop  offset="1" style="stop-color:#D0A641"/>
		</linearGradient>
		<path style="fill:url(#SVGID_00000129899971602691242170000003344405437397579965_);" d="M1905,15.5v449l-9.2,16l-268.5-465H1905
			 M1920,0.5h-318.7l294.4,510l24.2-42V0.5L1920,0.5z"/>
	</g>
	<g>
		
			<linearGradient id="SVGID_00000167372308101506434900000018229626200093010836_" gradientUnits="userSpaceOnUse" x1="1760.6603" y1="570.4999" x2="1760.6603" y2="1080.5">
			<stop  offset="0" style="stop-color:#F4E5A1"/>
			<stop  offset="1" style="stop-color:#D0A641"/>
		</linearGradient>
		<path style="fill:url(#SVGID_00000167372308101506434900000018229626200093010836_);" d="M1895.8,600.5l9.2,16v449h-277.7
			L1895.8,600.5 M1895.8,570.5l-294.4,510H1920v-468L1895.8,570.5L1895.8,570.5z"/>
	</g>
	<g>
		
			<linearGradient id="SVGID_00000018215644962663415060000013259975704346536086_" gradientUnits="userSpaceOnUse" x1="159.3397" y1="570.4999" x2="159.3397" y2="1080.5">
			<stop  offset="0" style="stop-color:#F4E5A1"/>
			<stop  offset="1" style="stop-color:#D0A641"/>
		</linearGradient>
		<path style="fill:url(#SVGID_00000018215644962663415060000013259975704346536086_);" d="M24.2,600.5l268.5,465H15v-449
			L24.2,600.5 M24.2,570.5L0,612.5v468h318.7L24.2,570.5L24.2,570.5z"/>
	</g>
	<g>
		
			<linearGradient id="SVGID_00000150798804928800739440000008817728862671655304_" gradientUnits="userSpaceOnUse" x1="336" y1="30.5" x2="336" y2="1050.5">
			<stop  offset="0" style="stop-color:#F4E5A1"/>
			<stop  offset="1" style="stop-color:#D0A641"/>
		</linearGradient>
		<path style="fill:url(#SVGID_00000150798804928800739440000008817728862671655304_);" d="M336,60.5l277.1,480l-277.1,480
			l-277.1-480L336,60.5 M336,30.5l-294.4,510l294.4,510l294.4-510L336,30.5L336,30.5z"/>
	</g>
	<g>
		
			<linearGradient id="SVGID_00000173156272598006838990000011751554587787787661_" gradientUnits="userSpaceOnUse" x1="159.3397" y1="0.5001" x2="159.3397" y2="510.5001">
			<stop  offset="0" style="stop-color:#F4E5A1"/>
			<stop  offset="1" style="stop-color:#D0A641"/>
		</linearGradient>
		<path style="fill:url(#SVGID_00000173156272598006838990000011751554587787787661_);" d="M292.7,15.5l-268.5,465l-9.2-16v-449
			H292.7 M318.7,0.5H0v468l24.2,42L318.7,0.5L318.7,0.5z"/>
	</g>
</g>
</svg>
