<?xml version="1.0" encoding="utf-8"?>
<!-- Generator: Adobe Illustrator 26.0.1, SVG Export Plug-In . SVG Version: 6.00 Build 0)  -->
<svg version="1.1" id="Layer_1" xmlns="http://www.w3.org/2000/svg" xmlns:xlink="http://www.w3.org/1999/xlink" x="0px" y="0px"
	 viewBox="0 0 1920 1080" style="enable-background:new 0 0 1920 1080;" xml:space="preserve">
<style type="text/css">
	.st0{fill:url(#SVGID_1_);}
	.st1{fill:url(#SVGID_00000023240543515326078300000013682651837116216762_);}
	.st2{clip-path:url(#SVGID_00000007414740143878520050000015908990954281354390_);}
	.st3{fill:#F6F6F6;}
	.st4{fill:url(#SVGID_00000072242801547034737060000003417548194592505239_);}
	.st5{clip-path:url(#SVGID_00000023979557800057292160000016118994697668168091_);}
	.st6{fill:url(#SVGID_00000018934157170263298020000001867748845063148184_);}
	.st7{fill:url(#SVGID_00000122689806817526703180000007957573940457744820_);}
	.st8{fill:url(#SVGID_00000076601111065306728090000010898153343582035384_);}
	.st9{fill:url(#SVGID_00000063617468185518143240000011280997281499730060_);}
	.st10{clip-path:url(#SVGID_00000125588036600450889800000016999084821641942945_);}
	.st11{fill:#17201F;}
	.st12{fill:url(#SVGID_00000008868575433707921560000004692027732250584485_);}
	.st13{fill:url(#SVGID_00000155116124182271717580000016785162349604110240_);}
	.st14{fill:url(#SVGID_00000108304989434857911960000005216296273377716886_);}
	.st15{fill:url(#SVGID_00000098914470420078124620000004836952671871513779_);}
	.st16{fill:url(#SVGID_00000121243343720311234000000008461527368236358822_);}
	.st17{fill:url(#SVGID_00000134936619816867118180000003416766613214655625_);}
	.st18{fill:url(#SVGID_00000080203706214654745330000008659682212249118370_);}
	.st19{fill:url(#SVGID_00000127026503553585755800000006985155920150612633_);}
	.st20{fill:url(#SVGID_00000036957911601016310510000005622524924055612822_);}
	.st21{fill:url(#SVGID_00000145027736975820911900000018014431442720765323_);}
	.st22{fill:url(#SVGID_00000070815350596679796180000013531532640281950872_);}
	.st23{fill:url(#SVGID_00000136371897377744451870000001587672087887916975_);}
	.st24{fill:#FFFFFF;}
	.st25{font-family:'BebasNeue-Regular';}
	.st26{font-size:80.6467px;}
</style>
<g>
	<linearGradient id="SVGID_1_" gradientUnits="userSpaceOnUse" x1="1272" y1="510.1" x2="1272" y2="0.5">
		<stop  offset="6.379092e-09" style="stop-color:#800000"/>
		<stop  offset="1" style="stop-color:#333333"/>
	</linearGradient>
	<polygon class="st0" points="1117,241.6 1272,510.1 1427,241.6 1427.4,241.8 1566.7,0.5 977.3,0.5 1116.6,241.8 	"/>
	
		<linearGradient id="SVGID_00000162327951601918793730000013436805870598414759_" gradientUnits="userSpaceOnUse" x1="648" y1="510.1" x2="648" y2="0.5">
		<stop  offset="6.379092e-09" style="stop-color:#800000"/>
		<stop  offset="1" style="stop-color:#333333"/>
	</linearGradient>
	<polygon style="fill:url(#SVGID_00000162327951601918793730000013436805870598414759_);" points="493,241.6 648,510.1 803,241.6 
		803.4,241.8 942.7,0.5 353.3,0.5 492.6,241.8 	"/>
	<g>
		<g>
			<g>
				<g>
					<defs>
						<polygon id="SVGID_00000014594436379247251200000011024533251478504860_" points="1584,1041.3 1873.1,540.5 1584,39.7 
							1294.9,540.5 						"/>
					</defs>
					<clipPath id="SVGID_00000021080468550288135470000007938673310831174066_">
						<use xlink:href="#SVGID_00000014594436379247251200000011024533251478504860_"  style="overflow:visible;"/>
					</clipPath>
					<g style="clip-path:url(#SVGID_00000021080468550288135470000007938673310831174066_);">
						<rect x="1027.5" y="30.5" class="st3" width="1112.2" height="1055.5"/>
						
							<image style="overflow:visible;enable-background:new    ;" width="2000" height="1333" xlink:href="../../../../../Creative Cloud Files/Entertainment 2021/brettyoung.jpeg"  transform="matrix(0.6159 5.029754e-02 -5.029754e-02 0.6159 1005.5782 149.7324)">
						</image>
					</g>
				</g>
			</g>
		</g>
	</g>
	
		<linearGradient id="SVGID_00000181781783752138492500000005763383311737485971_" gradientUnits="userSpaceOnUse" x1="1272" y1="1080.5" x2="1272" y2="570.9">
		<stop  offset="6.379092e-09" style="stop-color:#800000"/>
		<stop  offset="1" style="stop-color:#333333"/>
	</linearGradient>
	<polygon style="fill:url(#SVGID_00000181781783752138492500000005763383311737485971_);" points="1427,839.4 1272,570.9 
		1117,839.4 1116.6,839.2 977.3,1080.5 1566.7,1080.5 1427.4,839.2 	"/>
	<g>
		<g>
			<g>
				<g>
					<defs>
						<polygon id="SVGID_00000039131283040961221930000006973588635102516376_" points="670.9,540.5 960,1041.3 1249.1,540.5 
							960,39.7 						"/>
					</defs>
					<clipPath id="SVGID_00000155865744061381600500000007121393990782064302_">
						<use xlink:href="#SVGID_00000039131283040961221930000006973588635102516376_"  style="overflow:visible;"/>
					</clipPath>
					<g transform="matrix(1 0 0 1 0 0)" style="clip-path:url(#SVGID_00000155865744061381600500000007121393990782064302_);">
						
							<image style="overflow:visible;enable-background:new    ;" width="2048" height="1365" xlink:href="../../../../../Creative Cloud Files/Entertainment 2021/zachwilliams.jpg"  transform="matrix(0.8389 0 0 0.8389 -21.0113 53)">
						</image>
					</g>
				</g>
			</g>
		</g>
	</g>
	
		<linearGradient id="SVGID_00000147941023069975913760000001189358753679927948_" gradientUnits="userSpaceOnUse" x1="648" y1="1080.5" x2="648" y2="570.9">
		<stop  offset="6.379092e-09" style="stop-color:#800000"/>
		<stop  offset="1" style="stop-color:#333333"/>
	</linearGradient>
	<polygon style="fill:url(#SVGID_00000147941023069975913760000001189358753679927948_);" points="803,839.4 648,570.9 493,839.4 
		492.6,839.2 353.3,1080.5 942.7,1080.5 803.4,839.2 	"/>
	
		<linearGradient id="SVGID_00000117660231789678027620000002075063645108486301_" gradientUnits="userSpaceOnUse" x1="1760.65" y1="510.5" x2="1760.65" y2="0.5">
		<stop  offset="6.379092e-09" style="stop-color:#800000"/>
		<stop  offset="1" style="stop-color:#333333"/>
	</linearGradient>
	<polygon style="fill:url(#SVGID_00000117660231789678027620000002075063645108486301_);" points="1920,468.5 1920,0.5 1601.3,0.5 
		1895.8,510.5 	"/>
	
		<linearGradient id="SVGID_00000043431901570699484610000000477035699705979552_" gradientUnits="userSpaceOnUse" x1="1760.65" y1="1080.5" x2="1760.65" y2="570.5">
		<stop  offset="6.379092e-09" style="stop-color:#800000"/>
		<stop  offset="1" style="stop-color:#333333"/>
	</linearGradient>
	<polygon style="fill:url(#SVGID_00000043431901570699484610000000477035699705979552_);" points="1920,612.5 1895.8,570.5 
		1601.3,1080.5 1920,1080.5 	"/>
	
		<linearGradient id="SVGID_00000179648447954405310070000010712888825844906904_" gradientUnits="userSpaceOnUse" x1="159.35" y1="1080.5" x2="159.35" y2="570.5">
		<stop  offset="6.379092e-09" style="stop-color:#800000"/>
		<stop  offset="1" style="stop-color:#333333"/>
	</linearGradient>
	<polygon style="fill:url(#SVGID_00000179648447954405310070000010712888825844906904_);" points="0,612.5 0,1080.5 318.7,1080.5 
		24.2,570.5 	"/>
	<g>
		<g>
			<g>
				<g>
					<g>
						<defs>
							<polygon id="SVGID_00000030488438100161530730000013311930850872579508_" points="42.9,540.5 335.6,1047.6 628.4,540.5 
								335.6,33.4 							"/>
						</defs>
						<clipPath id="SVGID_00000095331159537500369040000000024194954700700862_">
							<use xlink:href="#SVGID_00000030488438100161530730000013311930850872579508_"  style="overflow:visible;"/>
						</clipPath>
						<g style="clip-path:url(#SVGID_00000095331159537500369040000000024194954700700862_);">
							<rect x="-120" y="59.2" class="st11" width="888.1" height="871.5"/>
							
								<image style="overflow:visible;enable-background:new    ;" width="958" height="959" xlink:href="../../../../../Creative Cloud Files/Entertainment 2021/jimmieallen.jpg"  transform="matrix(0.9318 0 0 0.9634 -110.7473 229.071)">
							</image>
						</g>
					</g>
				</g>
			</g>
		</g>
	</g>
	
		<linearGradient id="SVGID_00000089548917061319557460000017878780822200681885_" gradientUnits="userSpaceOnUse" x1="159.35" y1="510.5" x2="159.35" y2="0.5">
		<stop  offset="6.379092e-09" style="stop-color:#800000"/>
		<stop  offset="1" style="stop-color:#333333"/>
	</linearGradient>
	<polygon style="fill:url(#SVGID_00000089548917061319557460000017878780822200681885_);" points="0,468.5 24.2,510.5 318.7,0.5 
		0,0.5 	"/>
</g>
<g>
	<g>
		
			<linearGradient id="SVGID_00000068652885854624794260000017409074116337317557_" gradientUnits="userSpaceOnUse" x1="1272" y1="0.5" x2="1272" y2="510.1">
			<stop  offset="0" style="stop-color:#F4E5A1"/>
			<stop  offset="1" style="stop-color:#D0A641"/>
		</linearGradient>
		<path style="fill:url(#SVGID_00000068652885854624794260000017409074116337317557_);" d="M1540.7,15.5l-118.8,205.8l-0.3-0.2
			l-7.5,13l-142,246l-142-246l-7.5-13l-0.3,0.2l-119-205.8H1540.7 M1566.7,0.5H977.3l139.3,241.3l0.3-0.2l155,268.5l155-268.5
			l0.3,0.2L1566.7,0.5L1566.7,0.5z"/>
	</g>
	<g>
		
			<linearGradient id="SVGID_00000054978652614810262650000016671231538376477332_" gradientUnits="userSpaceOnUse" x1="648" y1="0.5" x2="648" y2="510.1">
			<stop  offset="0" style="stop-color:#F4E5A1"/>
			<stop  offset="1" style="stop-color:#D0A641"/>
		</linearGradient>
		<path style="fill:url(#SVGID_00000054978652614810262650000016671231538376477332_);" d="M916.7,15.5L797.9,221.3l-0.3-0.2
			l-7.5,13l-142,246l-142-246l-7.5-13l-0.3,0.2l-119-205.8H916.7 M942.7,0.5H353.3l139.3,241.3l0.3-0.2l155,268.5l155-268.5l0.3,0.2
			L942.7,0.5L942.7,0.5z"/>
	</g>
	<g>
		
			<linearGradient id="SVGID_00000008850135203187585750000004147155761749618584_" gradientUnits="userSpaceOnUse" x1="1584" y1="30.5" x2="1584" y2="1050.5">
			<stop  offset="0" style="stop-color:#F4E5A1"/>
			<stop  offset="1" style="stop-color:#D0A641"/>
		</linearGradient>
		<path style="fill:url(#SVGID_00000008850135203187585750000004147155761749618584_);" d="M1584,60.5l277.1,480l-277.1,480
			l-277.1-480L1584,60.5 M1584,30.5l-294.4,510l294.4,510l294.4-510L1584,30.5L1584,30.5z"/>
	</g>
	<g>
		
			<linearGradient id="SVGID_00000137116070061430179600000006359940552998631825_" gradientUnits="userSpaceOnUse" x1="1272.1" y1="570.9" x2="1272.1" y2="1080.5">
			<stop  offset="0" style="stop-color:#F4E5A1"/>
			<stop  offset="1" style="stop-color:#D0A641"/>
		</linearGradient>
		<path style="fill:url(#SVGID_00000137116070061430179600000006359940552998631825_);" d="M1272,600.9l142,246l7.5,13l0.3-0.2
			l118.8,205.8h-537.4L1122,859.7l0.3,0.2l7.5-13L1272,600.9 M1272,570.9l-155,268.5l-0.3-0.2l-139.3,241.3h589.4l-139.3-241.3
			l-0.3,0.2L1272,570.9L1272,570.9z"/>
	</g>
	<g>
		
			<linearGradient id="SVGID_00000176726701576808906570000011942120443330559386_" gradientUnits="userSpaceOnUse" x1="960" y1="30.5" x2="960" y2="1050.5">
			<stop  offset="0" style="stop-color:#F4E5A1"/>
			<stop  offset="1" style="stop-color:#D0A641"/>
		</linearGradient>
		<path style="fill:url(#SVGID_00000176726701576808906570000011942120443330559386_);" d="M960,60.5l277.1,480l-277.1,480
			l-277.1-480L960,60.5 M960,30.5l-294.4,510l294.4,510l294.4-510L960,30.5L960,30.5z"/>
	</g>
	<g>
		
			<linearGradient id="SVGID_00000170238565214445623950000015899659519197893258_" gradientUnits="userSpaceOnUse" x1="648.1" y1="570.9" x2="648.1" y2="1080.5">
			<stop  offset="0" style="stop-color:#F4E5A1"/>
			<stop  offset="1" style="stop-color:#D0A641"/>
		</linearGradient>
		<path style="fill:url(#SVGID_00000170238565214445623950000015899659519197893258_);" d="M648,600.9l142,246l7.5,13l0.3-0.2
			l118.8,205.8H379.3l118.8-205.8l0.3,0.2l7.5-13L648,600.9 M648,570.9L493,839.4l-0.3-0.2l-139.3,241.3h589.4L803.4,839.2l-0.3,0.2
			L648,570.9L648,570.9z"/>
	</g>
	<g>
		
			<linearGradient id="SVGID_00000128460074537774959720000017689923318233417089_" gradientUnits="userSpaceOnUse" x1="1760.65" y1="0.5" x2="1760.65" y2="510.5">
			<stop  offset="0" style="stop-color:#F4E5A1"/>
			<stop  offset="1" style="stop-color:#D0A641"/>
		</linearGradient>
		<path style="fill:url(#SVGID_00000128460074537774959720000017689923318233417089_);" d="M1905,15.5v449l-9.2,16l-268.5-465H1905
			 M1920,0.5h-318.7l294.4,510l24.2-42L1920,0.5L1920,0.5z"/>
	</g>
	<g>
		
			<linearGradient id="SVGID_00000142136991233384335440000015714823938117111937_" gradientUnits="userSpaceOnUse" x1="1760.7" y1="570.5" x2="1760.7" y2="1080.5">
			<stop  offset="0" style="stop-color:#F4E5A1"/>
			<stop  offset="1" style="stop-color:#D0A641"/>
		</linearGradient>
		<path style="fill:url(#SVGID_00000142136991233384335440000015714823938117111937_);" d="M1895.8,600.5l9.2,16v449h-277.7
			L1895.8,600.5 M1895.8,570.5l-294.4,510H1920v-468L1895.8,570.5L1895.8,570.5z"/>
	</g>
	<g>
		
			<linearGradient id="SVGID_00000114779221109205053790000003246953731593946270_" gradientUnits="userSpaceOnUse" x1="159.35" y1="570.5" x2="159.35" y2="1080.5">
			<stop  offset="0" style="stop-color:#F4E5A1"/>
			<stop  offset="1" style="stop-color:#D0A641"/>
		</linearGradient>
		<path style="fill:url(#SVGID_00000114779221109205053790000003246953731593946270_);" d="M24.2,600.5l268.5,465H15v-449
			L24.2,600.5 M24.2,570.5L0,612.5v468h318.7L24.2,570.5L24.2,570.5z"/>
	</g>
	<g>
		
			<linearGradient id="SVGID_00000047753939318008643110000006929398863182791816_" gradientUnits="userSpaceOnUse" x1="336" y1="30.5" x2="336" y2="1050.5">
			<stop  offset="0" style="stop-color:#F4E5A1"/>
			<stop  offset="1" style="stop-color:#D0A641"/>
		</linearGradient>
		<path style="fill:url(#SVGID_00000047753939318008643110000006929398863182791816_);" d="M336,60.5l277.1,480l-277.1,480
			l-277.1-480L336,60.5 M336,30.5l-294.4,510l294.4,510l294.4-510L336,30.5L336,30.5z"/>
	</g>
	<g>
		
			<linearGradient id="SVGID_00000087389900900398199540000000872562115228144018_" gradientUnits="userSpaceOnUse" x1="159.35" y1="0.5" x2="159.35" y2="510.5">
			<stop  offset="0" style="stop-color:#F4E5A1"/>
			<stop  offset="1" style="stop-color:#D0A641"/>
		</linearGradient>
		<path style="fill:url(#SVGID_00000087389900900398199540000000872562115228144018_);" d="M292.7,15.5l-268.5,465l-9.2-16v-449
			H292.7 M318.7,0.5H0v468l24.2,42L318.7,0.5L318.7,0.5z"/>
	</g>
</g>
<text transform="matrix(0.5 -0.866 0.866 0.5 69.3009 386.6915)" class="st24 st25 st26">JIMMIE ALLEN</text>
<text transform="matrix(0.5 -0.866 0.866 0.5 488.7574 1005.3585)" class="st24 st25 st26">THU, JULY 07</text>
<text transform="matrix(0.5 -0.866 0.866 0.5 1110.7574 1005.3585)" class="st24 st25 st26">FRI, JULY 08</text>
<text transform="matrix(0.5 -0.866 0.866 0.5 1734.7574 1005.3585)" class="st24 st25 st26">SAT, JULY 09</text>
<text transform="matrix(0.5 -0.866 0.866 0.5 683.8615 405.5138)" class="st24 st25 st26">ZACH WILLIAMS</text>
<text transform="matrix(0.5 -0.866 0.866 0.5 1319.4091 384.7716)" class="st24 st25 st26">BRETT YOUNG</text>
</svg>
