<?xml version="1.0" encoding="utf-8"?>
<!-- Generator: Adobe Illustrator 26.0.1, SVG Export Plug-In . SVG Version: 6.00 Build 0)  -->
<svg version="1.1" id="Layer_1" xmlns="http://www.w3.org/2000/svg" xmlns:xlink="http://www.w3.org/1999/xlink" x="0px" y="0px"
	 viewBox="0 0 1920 1080" style="enable-background:new 0 0 1920 1080;" xml:space="preserve">
<style type="text/css">
	.st0{clip-path:url(#SVGID_00000120522082266151332520000015158187783488999318_);fill:#1A1C1E;}
	
		.st1{clip-path:url(#SVGID_00000067946568560590722580000009127884017517884600_);fill:url(#SVGID_00000111178745539471970770000014141639143152393131_);}
	.st2{display:none;}
	.st3{fill:url(#SVGID_00000088829833764047560630000006324302113358042804_);}
	.st4{display:none;fill:#F15A24;}
	.st5{fill:url(#SVGID_00000027594468191718963460000003063201881386703258_);}
	.st6{fill:url(#SVGID_00000026841463503420806580000004510945590766438317_);}
	.st7{fill:url(#SVGID_00000175289694679822778550000006481533220884535223_);}
	.st8{fill:url(#SVGID_00000035505838571418253470000016405935064947095437_);}
	.st9{fill:url(#SVGID_00000155828169945855200460000014282240674715192993_);}
	.st10{fill:url(#SVGID_00000091727087966507302230000007635271702015817107_);}
	.st11{fill:#0000FF;}
	.st12{fill:url(#SVGID_00000070094277548746572360000013290180298173127833_);}
	.st13{fill:url(#SVGID_00000103266182321929023190000012133603292289268391_);}
	.st14{fill:url(#SVGID_00000106115140088482673200000008663049315321078183_);}
	.st15{fill:url(#SVGID_00000086694067733147441400000013413564740400090289_);}
	.st16{fill:url(#SVGID_00000133494248934756627850000012068856123835349156_);}
	.st17{fill:url(#SVGID_00000141437111455492467460000016031667676074528929_);}
	.st18{fill:url(#SVGID_00000121262100238219009840000014937753516306741656_);}
	.st19{fill:url(#SVGID_00000002378230427004543770000009180273938140931740_);}
	.st20{fill:url(#SVGID_00000152233316149435483480000016559010629053584308_);}
	.st21{fill:url(#SVGID_00000075133789475365500770000010837120366013865367_);}
	.st22{fill:url(#SVGID_00000124138726695281209860000010742153239598460550_);}
	.st23{fill:url(#SVGID_00000109728346720799941770000012772435131393345921_);}
	.st24{fill:url(#SVGID_00000161623761539476389530000013504300567459182471_);}
	.st25{fill:url(#SVGID_00000087393903763958307610000001040563614563783839_);}
	.st26{display:inline;fill:url(#SVGID_00000167358567186998025550000003270864354704820647_);}
	.st27{display:inline;fill:url(#SVGID_00000085217069941599309590000000047193860457041841_);}
	.st28{display:inline;fill:url(#SVGID_00000024683029629593123130000015413484118123531433_);}
	.st29{fill:url(#SVGID_00000102530751380681735610000007234790628935098038_);}
	.st30{fill:url(#SVGID_00000045618086802637874400000004401345085334111657_);}
	.st31{fill:url(#SVGID_00000136406674114983018530000006670258246522981818_);}
	.st32{fill:url(#SVGID_00000131346843070864869260000006295942168317156996_);}
	.st33{display:inline;}
	.st34{font-family:'FrizQuadrataStd-Bold';}
	.st35{font-size:54px;}
	.st36{display:inline;fill:#999999;}
	.st37{fill:#FFFFFF;}
	.st38{display:none;fill:#D90AFF;}
</style>
<g>
	<g>
		<defs>
			<path id="SVGID_1_" d="M1127.3,10.1c50.7,25.5,96.1,61.9,135.1,108.2c38.6,45.9,68.9,99.3,90,158.6c7.3,20.6,13.4,41.6,18.3,63
				H1920V0h-814.5C1112.8,3.1,1120.1,6.5,1127.3,10.1z"/>
		</defs>
		<clipPath id="SVGID_00000039846123365163099120000007454526529601778086_">
			<use xlink:href="#SVGID_1_"  style="overflow:visible;"/>
		</clipPath>
		
			<g transform="matrix(1 0 0 1 0 -7.629395e-06)" style="clip-path:url(#SVGID_00000039846123365163099120000007454526529601778086_);">
			
				<image style="overflow:visible;" width="2100" height="1500" xlink:href="../../../../../Creative Cloud Files/Untitled-1.png"  transform="matrix(0.3762 0 0 0.3762 1118 -122.1429)">
			</image>
		</g>
	</g>
	<g>
		<defs>
			<path id="SVGID_00000137134015287163403310000007474160164270080660_" d="M567.7,277c21.1-59.4,51.4-112.7,90-158.6
				C696.6,72.1,742,35.6,792.7,10.1c7.2-3.6,14.5-7,21.8-10.1H0v340h549.4C554.3,318.6,560.4,297.6,567.7,277z"/>
		</defs>
		<clipPath id="SVGID_00000005982583767417243300000007313985662274300342_">
			<use xlink:href="#SVGID_00000137134015287163403310000007474160164270080660_"  style="overflow:visible;"/>
		</clipPath>
		<path style="clip-path:url(#SVGID_00000005982583767417243300000007313985662274300342_);fill:#1A1C1E;" d="M567.7,277
			c21.1-59.4,51.4-112.7,90-158.6C696.6,72.1,742,35.6,792.7,10.1c7.2-3.6,14.5-7,21.8-10.1H0v340h549.4
			C554.3,318.6,560.4,297.6,567.7,277z"/>
		<g style="clip-path:url(#SVGID_00000005982583767417243300000007313985662274300342_);">
			
				<image style="overflow:visible;" width="960" height="640" xlink:href="../../../../../Downloads/214214245_4141323565949201_2880696736542877045_n.jpg"  transform="matrix(0.5953 0 0 0.5953 22 -21)">
			</image>
		</g>
	</g>
	<g>
		<defs>
			<path id="SVGID_00000137818099636289757690000006330532574139764356_" d="M1385.1,680.2c35.2,1.4,69.1,11.6,99,29.8H1920V370
				h-543.4c5.6,32.7,8.5,66.1,8.5,100V680.2z"/>
		</defs>
		<clipPath id="SVGID_00000163784497546417738920000009870863096934460801_">
			<use xlink:href="#SVGID_00000137818099636289757690000006330532574139764356_"  style="overflow:visible;"/>
		</clipPath>
		
			<g transform="matrix(1 0 0 1 1.220703e-04 0)" style="clip-path:url(#SVGID_00000163784497546417738920000009870863096934460801_);">
			
				<image style="overflow:visible;" width="8256" height="5504" xlink:href="../../../../../Creative Cloud Files/71 Edition CIF Contestant photos/Studio pix/Contestant 7 Shemah Ladania Crosby/DSC_8687.JPG"  transform="matrix(7.558139e-02 0 0 7.558139e-02 1323.6899 340)">
			</image>
		</g>
	</g>
	<g>
		<defs>
			<path id="SVGID_00000162331433251281497040000005435468999282674075_" d="M534.9,680.2V470c0-33.9,2.8-67.3,8.5-100H0v340h435.9
				C465.8,691.7,499.7,681.5,534.9,680.2z"/>
		</defs>
		<clipPath id="SVGID_00000118363497147900619530000000479205963899246508_">
			<use xlink:href="#SVGID_00000162331433251281497040000005435468999282674075_"  style="overflow:visible;"/>
		</clipPath>
		<g style="clip-path:url(#SVGID_00000118363497147900619530000000479205963899246508_);">
			
				<image style="overflow:visible;" width="8256" height="5504" xlink:href="../../../../../Creative Cloud Files/71 Edition CIF Contestant photos/Outside Pix/Contestant 7 Shemah Ladania Crosby/DSC_9047.JPG"  transform="matrix(6.334787e-02 0 0 6.334787e-02 10 364.9011)">
			</image>
		</g>
	</g>
	<g>
		<defs>
			<path id="SVGID_00000122718205957506731370000006023934138046568105_" d="M650.1,710h127.6c19.9-24.5,44.7-45,72.4-59.7
				C883.8,632.4,921.7,623,960,623s76.2,9.4,109.8,27.3c27.8,14.8,52.6,35.2,72.4,59.7h127.6c26-15.9,55-25.6,85.2-28.8V470
				c0-259.6-176.9-470-395.1-470S564.9,210.4,564.9,470v211.2C595.1,684.4,624.1,694.1,650.1,710z"/>
		</defs>
		<clipPath id="SVGID_00000078765452528259206230000005726406152663956894_">
			<use xlink:href="#SVGID_00000122718205957506731370000006023934138046568105_"  style="overflow:visible;"/>
		</clipPath>
		<g style="clip-path:url(#SVGID_00000078765452528259206230000005726406152663956894_);">
			
				<image style="overflow:visible;" width="1500" height="2250" xlink:href="../../../../../Desktop/princess.jpg"  transform="matrix(0.5105 0 0 0.5105 577.1215 -72)">
			</image>
		</g>
		
			<linearGradient id="SVGID_00000125564848247549379420000003354972217310627996_" gradientUnits="userSpaceOnUse" x1="1003.5" y1="9.094947e-13" x2="1003.5" y2="710">
			<stop  offset="0.4756" style="stop-color:#9E005D;stop-opacity:0"/>
			<stop  offset="1" style="stop-color:#1B1464"/>
		</linearGradient>
		
			<rect x="500" y="0" style="clip-path:url(#SVGID_00000078765452528259206230000005726406152663956894_);fill:url(#SVGID_00000125564848247549379420000003354972217310627996_);" width="1007" height="710"/>
	</g>
	<path class="st2" d="M1475.3,740c-28.1-18.9-61.9-30-98.3-30s-70.2,11.1-98.3,30h-151.3c-37-52.6-98.2-87-167.4-87
		s-130.4,34.4-167.4,87H641.3c-28.1-18.9-61.9-30-98.3-30s-70.2,11.1-98.3,30H0v340h1920V740H1475.3z"/>
	<g>
		
			<linearGradient id="SVGID_00000074442521909556100870000005061806346933304194_" gradientUnits="userSpaceOnUse" x1="960" y1="740" x2="960" y2="1080">
			<stop  offset="0" style="stop-color:#FFFFFF"/>
			<stop  offset="0.2157" style="stop-color:#CCCCCC"/>
			<stop  offset="0.3196" style="stop-color:#FFFFFF"/>
			<stop  offset="0.4895" style="stop-color:#B3B3B3"/>
			<stop  offset="0.5611" style="stop-color:#FFFFFF"/>
			<stop  offset="1" style="stop-color:#999999"/>
		</linearGradient>
		<rect y="740" style="fill:url(#SVGID_00000074442521909556100870000005061806346933304194_);" width="1920" height="340"/>
		<path class="st4" d="M1094,723.5c-35.8-35.8-83.4-55.5-134-55.5s-98.2,19.7-134,55.5c-35.8,35.8-55.5,83.4-55.5,134
			s19.7,98.2,55.5,134c35.8,35.8,83.4,55.5,134,55.5s98.2-19.7,134-55.5c35.8-35.8,55.5-83.4,55.5-134S1129.8,759.3,1094,723.5z"/>
		<path class="st4" d="M1490.8,772.2C1460.4,741.7,1420,725,1377,725s-83.4,16.7-113.8,47.2C1232.7,802.6,1216,843,1216,886
			s16.7,83.4,47.2,113.8c30.4,30.4,70.8,47.2,113.8,47.2s83.4-16.7,113.8-47.2c30.4-30.4,47.2-70.8,47.2-113.8
			S1521.3,802.6,1490.8,772.2z"/>
		<path class="st4" d="M656.8,772.2C626.4,741.7,586,725,543,725s-83.4,16.7-113.8,47.2C398.7,802.6,382,843,382,886
			s16.7,83.4,47.2,113.8c30.4,30.4,70.8,47.2,113.8,47.2s83.4-16.7,113.8-47.2C687.3,969.4,704,929,704,886S687.3,802.6,656.8,772.2
			z"/>
		<g>
			<g>
				
					<linearGradient id="SVGID_00000092445091256253374060000013206299902060296320_" gradientUnits="userSpaceOnUse" x1="826.0293" y1="991.6916" x2="1094.1381" y2="723.5827">
					<stop  offset="0" style="stop-color:#FFFFFF"/>
					<stop  offset="0.5" style="stop-color:#999999"/>
					<stop  offset="1" style="stop-color:#FFFFFF"/>
				</linearGradient>
				<path style="fill:url(#SVGID_00000092445091256253374060000013206299902060296320_);" d="M1143.1,906.7
					c13.1-48.9,6.4-100-18.9-143.8c-25.3-43.8-66.2-75.2-115.1-88.3c-48.9-13.1-100-6.4-143.8,18.9c-43.8,25.3-75.2,66.2-88.3,115.1
					c-13.1,48.9-6.4,100,18.9,143.8c25.3,43.8,66.2,75.2,115.1,88.3c48.9,13.1,100,6.4,143.8-18.9
					C1098.7,996.4,1130,955.6,1143.1,906.7z"/>
				
					<linearGradient id="SVGID_00000079444942988280609830000014933434656126785213_" gradientUnits="userSpaceOnUse" x1="826.0292" y1="991.6916" x2="1094.1381" y2="723.5827">
					<stop  offset="0" style="stop-color:#0000FF"/>
					<stop  offset="0.5" style="stop-color:#1B1464"/>
					<stop  offset="1" style="stop-color:#0000FF"/>
				</linearGradient>
				<path style="fill:url(#SVGID_00000079444942988280609830000014933434656126785213_);" d="M959.8,678.1c15.7,0,31.4,2.1,46.8,6.2
					c46.3,12.4,85,42.1,109,83.6c24,41.5,30.3,89.9,17.9,136.2c-12.4,46.3-42.1,85-83.6,109c-27.3,15.8-58.3,24.1-89.4,24.1
					c-15.7,0-31.4-2.1-46.8-6.2c-46.3-12.4-85-42.1-109-83.6c-24-41.5-30.3-89.9-17.9-136.2c12.4-46.3,42.1-85,83.6-109
					C897.7,686.4,928.6,678.1,959.8,678.1 M959.8,668.1c-32.8,0-65.2,8.6-94.4,25.5c-43.8,25.3-75.2,66.2-88.3,115.1
					c-13.1,48.9-6.4,100,18.9,143.8c25.3,43.8,66.2,75.2,115.1,88.3c16.3,4.4,32.9,6.5,49.4,6.5c32.8,0,65.2-8.6,94.4-25.5
					c43.8-25.3,75.2-66.2,88.3-115.1c13.1-48.9,6.4-100-18.9-143.8c-25.3-43.8-66.2-75.2-115.1-88.3
					C992.8,670.2,976.2,668.1,959.8,668.1L959.8,668.1z"/>
			</g>
			<g>
				
					<linearGradient id="SVGID_00000173864401135990088380000003630191478414972292_" gradientUnits="userSpaceOnUse" x1="802.1627" y1="857.6371" x2="1118.0048" y2="857.6371">
					<stop  offset="0" style="stop-color:#FFFF00"/>
					<stop  offset="0.5" style="stop-color:#FBB03B"/>
					<stop  offset="1" style="stop-color:#FFFF00"/>
				</linearGradient>
				<polygon style="fill:url(#SVGID_00000173864401135990088380000003630191478414972292_);" points="1028.5,818.2 1118,857.6 
					1028.5,897.1 1039,994.4 960.1,936.6 881.1,994.4 891.7,897.1 802.2,857.6 891.7,818.2 881.1,720.9 960.1,778.7 1039,720.9 				
					"/>
				
					<linearGradient id="SVGID_00000134956244302287434170000004273106828021104011_" gradientUnits="userSpaceOnUse" x1="852.2216" y1="965.4993" x2="1067.9458" y2="749.775">
					<stop  offset="0" style="stop-color:#FF0000"/>
					<stop  offset="0.5" style="stop-color:#9E005D"/>
					<stop  offset="1" style="stop-color:#FF0000"/>
				</linearGradient>
				<path style="fill:url(#SVGID_00000134956244302287434170000004273106828021104011_);" d="M899.7,753.1l51.5,37.7l8.9,6.5
					l8.9-6.5l51.5-37.7l-6.9,63.5l-1.2,10.9l10,4.4l58.4,25.8l-58.4,25.8l-10,4.4l1.2,10.9l6.9,63.5l-51.5-37.7l-8.9-6.5l-8.9,6.5
					l-51.5,37.7l6.9-63.5l1.2-10.9l-10-4.4l-58.4-25.8l58.4-25.8l10-4.4l-1.2-10.9L899.7,753.1 M881.1,720.9l10.6,97.3l-89.5,39.5
					l89.5,39.5l-10.6,97.3l79-57.8l79,57.8l-10.6-97.3l89.5-39.5l-89.5-39.5l10.6-97.3l-79,57.8L881.1,720.9L881.1,720.9z"/>
			</g>
			<g>
				
					<linearGradient id="SVGID_00000172436202241857259650000007030393213835920316_" gradientUnits="userSpaceOnUse" x1="904.7057" y1="913.0151" x2="1015.4617" y2="802.2592">
					<stop  offset="0" style="stop-color:#FFFFFF"/>
					<stop  offset="0.5" style="stop-color:#999999"/>
					<stop  offset="1" style="stop-color:#FFFFFF"/>
				</linearGradient>
				<polygon style="fill:url(#SVGID_00000172436202241857259650000007030393213835920316_);" points="995.2,837.4 1041.2,857.6 
					995.2,877.9 1000.6,927.9 960.1,898.2 919.5,927.9 925,877.9 879,857.6 925,837.4 919.5,787.4 960.1,817.1 1000.6,787.4 				"/>
				
					<linearGradient id="SVGID_00000081648877781056820900000005499093128276703634_" gradientUnits="userSpaceOnUse" x1="904.7057" y1="913.0151" x2="1015.4616" y2="802.2592">
					<stop  offset="0" style="stop-color:#0000FF"/>
					<stop  offset="0.5" style="stop-color:#1B1464"/>
					<stop  offset="1" style="stop-color:#0000FF"/>
				</linearGradient>
				<path style="fill:url(#SVGID_00000081648877781056820900000005499093128276703634_);" d="M982,819.6l-1.8,16.1l-1.2,10.9l10,4.4
					l14.8,6.5l-14.8,6.5l-10,4.4l1.2,10.9l1.8,16.1l-13.1-9.6l-8.9-6.5l-8.9,6.5l-13.1,9.6l1.8-16.1l1.2-10.9l-10-4.4l-14.8-6.5
					l14.8-6.5l10-4.4l-1.2-10.9l-1.8-16.1l13.1,9.6l8.9,6.5l8.9-6.5L982,819.6 M1000.6,787.4l-40.5,29.7l-40.5-29.7l5.4,49.9
					l-46,20.3l46,20.3l-5.4,49.9l40.5-29.7l40.5,29.7l-5.4-49.9l46-20.3l-46-20.3L1000.6,787.4L1000.6,787.4z"/>
			</g>
			<g>
				<circle class="st11" cx="1090.5" cy="782.4" r="9"/>
			</g>
			<g>
				<circle class="st11" cx="1090.5" cy="932.9" r="9"/>
			</g>
			<g>
				<circle class="st11" cx="960.1" cy="1008.2" r="9"/>
			</g>
			<g>
				<circle class="st11" cx="829.7" cy="932.9" r="9"/>
			</g>
			<g>
				<circle class="st11" cx="829.7" cy="782.4" r="9"/>
			</g>
			<g>
				<circle class="st11" cx="960.1" cy="707.1" r="9"/>
			</g>
		</g>
		<g>
			<g>
				
					<linearGradient id="SVGID_00000010271179982320622020000000441401418506225047_" gradientUnits="userSpaceOnUse" x1="1263.2592" y1="999.8524" x2="1490.9082" y2="772.2032">
					<stop  offset="0" style="stop-color:#FFFFFF"/>
					<stop  offset="0.5" style="stop-color:#999999"/>
					<stop  offset="1" style="stop-color:#FFFFFF"/>
				</linearGradient>
				<path style="fill:url(#SVGID_00000010271179982320622020000000441401418506225047_);" d="M1532.5,927.7
					c11.1-41.5,5.4-84.9-16.1-122.1c-21.5-37.2-56.2-63.8-97.7-75c-41.5-11.1-84.9-5.4-122.1,16.1c-37.2,21.5-63.8,56.2-75,97.7
					c-11.1,41.5-5.4,84.9,16.1,122.1c21.5,37.2,56.2,63.8,97.7,75c41.5,11.1,84.9,5.4,122.1-16.1
					C1494.8,1003.9,1521.4,969.2,1532.5,927.7z"/>
				
					<linearGradient id="SVGID_00000071520102136763483320000010781405708616703109_" gradientUnits="userSpaceOnUse" x1="1263.2592" y1="999.8524" x2="1490.9082" y2="772.2032">
					<stop  offset="0" style="stop-color:#0000FF"/>
					<stop  offset="0.5" style="stop-color:#1B1464"/>
					<stop  offset="1" style="stop-color:#0000FF"/>
				</linearGradient>
				<path style="fill:url(#SVGID_00000071520102136763483320000010781405708616703109_);" d="M1376.8,735.1
					c13.2,0,26.4,1.8,39.3,5.2c38.9,10.4,71.5,35.4,91.6,70.3c20.2,34.9,25.5,75.6,15.1,114.5c-10.4,38.9-35.4,71.5-70.3,91.6
					c-23,13.3-49,20.3-75.2,20.3c-13.2,0-26.4-1.8-39.3-5.2c-38.9-10.4-71.5-35.4-91.6-70.3c-20.2-34.9-25.5-75.6-15.1-114.5
					c10.4-38.9,35.4-71.5,70.3-91.6C1324.6,742.1,1350.6,735.1,1376.8,735.1 M1376.8,725.1c-27.9,0-55.4,7.3-80.2,21.6
					c-37.2,21.5-63.8,56.2-75,97.7c-11.1,41.5-5.4,84.9,16.1,122.1c21.5,37.2,56.2,63.8,97.7,75c13.9,3.7,27.9,5.6,41.9,5.6
					c27.9,0,55.4-7.3,80.2-21.6c37.2-21.5,63.8-56.2,75-97.7c11.1-41.5,5.4-84.9-16.1-122.1c-21.5-37.2-56.2-63.8-97.7-75
					C1404.9,726.9,1390.8,725.1,1376.8,725.1L1376.8,725.1z"/>
			</g>
			<g>
				
					<linearGradient id="SVGID_00000060710936855920399790000003261536843763913645_" gradientUnits="userSpaceOnUse" x1="1242.9941" y1="886.0278" x2="1511.1732" y2="886.0278">
					<stop  offset="0" style="stop-color:#FFFF00"/>
					<stop  offset="0.5" style="stop-color:#FBB03B"/>
					<stop  offset="1" style="stop-color:#FFFF00"/>
				</linearGradient>
				<polygon style="fill:url(#SVGID_00000060710936855920399790000003261536843763913645_);" points="1435.1,852.5 1511.2,886 
					1435.1,919.6 1444.1,1002.2 1377.1,953.1 1310,1002.2 1319,919.6 1243,886 1319,852.5 1310,769.9 1377.1,819 1444.1,769.9 				
					"/>
				
					<linearGradient id="SVGID_00000143616406743891207000000014495834012223429009_" gradientUnits="userSpaceOnUse" x1="1285.4988" y1="977.6127" x2="1468.6686" y2="794.4429">
					<stop  offset="0" style="stop-color:#FF0000"/>
					<stop  offset="0.5" style="stop-color:#9E005D"/>
					<stop  offset="1" style="stop-color:#FF0000"/>
				</linearGradient>
				<path style="fill:url(#SVGID_00000143616406743891207000000014495834012223429009_);" d="M1328.6,802.1l39.6,29l8.9,6.5l8.9-6.5
					l39.6-29l-5.3,48.8l-1.2,10.9l10,4.4L1474,886l-44.9,19.8l-10,4.4l1.2,10.9l5.3,48.8l-39.6-29l-8.9-6.5l-8.9,6.5l-39.6,29
					l5.3-48.8l1.2-10.9l-10-4.4l-44.9-19.8l44.9-19.8l10-4.4l-1.2-10.9L1328.6,802.1 M1310,769.9l9,82.6l-76,33.5l76,33.5l-9,82.6
					l67-49.1l67,49.1l-9-82.6l76-33.5l-76-33.5l9-82.6l-67,49.1L1310,769.9L1310,769.9z"/>
			</g>
			<g>
				
					<linearGradient id="SVGID_00000090276849021736892210000010428323560266816174_" gradientUnits="userSpaceOnUse" x1="1330.0627" y1="933.0488" x2="1424.1047" y2="839.0068">
					<stop  offset="0" style="stop-color:#FFFFFF"/>
					<stop  offset="0.5" style="stop-color:#999999"/>
					<stop  offset="1" style="stop-color:#FFFFFF"/>
				</linearGradient>
				<polygon style="fill:url(#SVGID_00000090276849021736892210000010428323560266816174_);" points="1406.9,868.8 1445.9,886 
					1406.9,903.2 1411.5,945.6 1377.1,920.4 1342.7,945.6 1347.3,903.2 1308.2,886 1347.3,868.8 1342.7,826.4 1377.1,851.6 
					1411.5,826.4 				"/>
				
					<linearGradient id="SVGID_00000099656740295328798760000004702307993502401921_" gradientUnits="userSpaceOnUse" x1="1330.0626" y1="933.0488" x2="1424.1047" y2="839.0068">
					<stop  offset="0" style="stop-color:#0000FF"/>
					<stop  offset="0.5" style="stop-color:#1B1464"/>
					<stop  offset="1" style="stop-color:#0000FF"/>
				</linearGradient>
				<path style="fill:url(#SVGID_00000099656740295328798760000004702307993502401921_);" d="M1361.3,858.6l7,5.1l8.9,6.5l8.9-6.5
					l7-5.1l-0.9,8.6l-1.2,10.9l10,4.4l7.9,3.5l-7.9,3.5l-10,4.4l1.2,10.9l0.9,8.6l-7-5.1l-8.9-6.5l-8.9,6.5l-7,5.1l0.9-8.6l1.2-10.9
					l-10-4.4l-7.9-3.5l7.9-3.5l10-4.4l-1.2-10.9L1361.3,858.6 M1342.7,826.4l4.6,42.4l-39,17.2l39,17.2l-4.6,42.4l34.4-25.2
					l34.4,25.2l-4.6-42.4l39-17.2l-39-17.2l4.6-42.4l-34.4,25.2L1342.7,826.4L1342.7,826.4z"/>
			</g>
			<g>
				<circle class="st11" cx="1487.8" cy="822.1" r="7.6"/>
			</g>
			<g>
				<circle class="st11" cx="1487.8" cy="949.9" r="7.6"/>
			</g>
			<g>
				<circle class="st11" cx="1377.1" cy="1013.9" r="7.6"/>
			</g>
			<g>
				<circle class="st11" cx="1266.4" cy="949.9" r="7.6"/>
			</g>
			<g>
				<circle class="st11" cx="1266.4" cy="822.1" r="7.6"/>
			</g>
			<g>
				<circle class="st11" cx="1377.1" cy="758.2" r="7.6"/>
			</g>
		</g>
		<g>
			<g>
				
					<linearGradient id="SVGID_00000005964783428727188620000008195923348620988826_" gradientUnits="userSpaceOnUse" x1="429.2591" y1="999.8524" x2="656.9083" y2="772.2032">
					<stop  offset="0" style="stop-color:#FFFFFF"/>
					<stop  offset="0.5" style="stop-color:#999999"/>
					<stop  offset="1" style="stop-color:#FFFFFF"/>
				</linearGradient>
				<path style="fill:url(#SVGID_00000005964783428727188620000008195923348620988826_);" d="M698.5,927.7
					c11.1-41.5,5.4-84.9-16.1-122.1c-21.5-37.2-56.2-63.8-97.7-75c-41.5-11.1-84.9-5.4-122.1,16.1s-63.8,56.2-75,97.7
					c-11.1,41.5-5.4,84.9,16.1,122.1c21.5,37.2,56.2,63.8,97.7,75c41.5,11.1,84.9,5.4,122.1-16.1
					C660.8,1003.9,687.4,969.2,698.5,927.7z"/>
				
					<linearGradient id="SVGID_00000052090778469401520920000006628182291763863966_" gradientUnits="userSpaceOnUse" x1="429.2591" y1="999.8524" x2="656.9083" y2="772.2032">
					<stop  offset="0" style="stop-color:#0000FF"/>
					<stop  offset="0.5" style="stop-color:#1B1464"/>
					<stop  offset="1" style="stop-color:#0000FF"/>
				</linearGradient>
				<path style="fill:url(#SVGID_00000052090778469401520920000006628182291763863966_);" d="M542.8,735.1c13.2,0,26.4,1.8,39.3,5.2
					c38.9,10.4,71.5,35.4,91.6,70.3c20.2,34.9,25.5,75.6,15.1,114.5c-10.4,38.9-35.4,71.5-70.3,91.6c-23,13.3-49,20.3-75.2,20.3
					c-13.2,0-26.4-1.8-39.3-5.2c-38.9-10.4-71.5-35.4-91.6-70.3c-20.2-34.9-25.5-75.6-15.1-114.5c10.4-38.9,35.4-71.5,70.3-91.6
					C490.6,742.1,516.6,735.1,542.8,735.1 M542.8,725.1c-27.9,0-55.4,7.3-80.2,21.6c-37.2,21.5-63.8,56.2-75,97.7
					c-11.1,41.5-5.4,84.9,16.1,122.1c21.5,37.2,56.2,63.8,97.7,75c13.9,3.7,27.9,5.6,41.9,5.6c27.9,0,55.4-7.3,80.2-21.6
					c37.2-21.5,63.8-56.2,75-97.7c11.1-41.5,5.4-84.9-16.1-122.1c-21.5-37.2-56.2-63.8-97.7-75C570.9,726.9,556.8,725.1,542.8,725.1
					L542.8,725.1z"/>
			</g>
			<g>
				
					<linearGradient id="SVGID_00000072278811211432286630000014321506666034358413_" gradientUnits="userSpaceOnUse" x1="408.9942" y1="886.0278" x2="677.1732" y2="886.0278">
					<stop  offset="0" style="stop-color:#FFFF00"/>
					<stop  offset="0.5" style="stop-color:#FBB03B"/>
					<stop  offset="1" style="stop-color:#FFFF00"/>
				</linearGradient>
				<polygon style="fill:url(#SVGID_00000072278811211432286630000014321506666034358413_);" points="601.1,852.5 677.2,886 
					601.1,919.6 610.1,1002.2 543.1,953.1 476,1002.2 485,919.6 409,886 485,852.5 476,769.9 543.1,819 610.1,769.9 				"/>
				
					<linearGradient id="SVGID_00000067924109116916615010000011019046122847733659_" gradientUnits="userSpaceOnUse" x1="451.4988" y1="977.6127" x2="634.6686" y2="794.4429">
					<stop  offset="0" style="stop-color:#FF0000"/>
					<stop  offset="0.5" style="stop-color:#9E005D"/>
					<stop  offset="1" style="stop-color:#FF0000"/>
				</linearGradient>
				<path style="fill:url(#SVGID_00000067924109116916615010000011019046122847733659_);" d="M494.6,802.1l39.6,29l8.9,6.5l8.9-6.5
					l39.6-29l-5.3,48.8l-1.2,10.9l10,4.4L640,886l-44.9,19.8l-10,4.4l1.2,10.9l5.3,48.8l-39.6-29l-8.9-6.5l-8.9,6.5l-39.6,29
					l5.3-48.8l1.2-10.9l-10-4.4L446.2,886l44.9-19.8l10-4.4l-1.2-10.9L494.6,802.1 M476,769.9l9,82.6L409,886l76,33.5l-9,82.6
					l67-49.1l67,49.1l-9-82.6l76-33.5l-76-33.5l9-82.6l-67,49.1L476,769.9L476,769.9z"/>
			</g>
			<g>
				
					<linearGradient id="SVGID_00000048486871729716831590000003147559240442979973_" gradientUnits="userSpaceOnUse" x1="496.0627" y1="933.0488" x2="590.1047" y2="839.0068">
					<stop  offset="0" style="stop-color:#FFFFFF"/>
					<stop  offset="0.5" style="stop-color:#999999"/>
					<stop  offset="1" style="stop-color:#FFFFFF"/>
				</linearGradient>
				<polygon style="fill:url(#SVGID_00000048486871729716831590000003147559240442979973_);" points="572.9,868.8 611.9,886 
					572.9,903.2 577.5,945.6 543.1,920.4 508.7,945.6 513.3,903.2 474.2,886 513.3,868.8 508.7,826.4 543.1,851.6 577.5,826.4 				
					"/>
				
					<linearGradient id="SVGID_00000162351103339608542580000014963368344261617845_" gradientUnits="userSpaceOnUse" x1="496.0627" y1="933.0488" x2="590.1047" y2="839.0068">
					<stop  offset="0" style="stop-color:#0000FF"/>
					<stop  offset="0.5" style="stop-color:#1B1464"/>
					<stop  offset="1" style="stop-color:#0000FF"/>
				</linearGradient>
				<path style="fill:url(#SVGID_00000162351103339608542580000014963368344261617845_);" d="M527.3,858.6l7,5.1l8.9,6.5l8.9-6.5
					l7-5.1l-0.9,8.6l-1.2,10.9l10,4.4l7.9,3.5l-7.9,3.5l-10,4.4l1.2,10.9l0.9,8.6l-7-5.1l-8.9-6.5l-8.9,6.5l-7,5.1l0.9-8.6l1.2-10.9
					l-10-4.4l-7.9-3.5l7.9-3.5l10-4.4l-1.2-10.9L527.3,858.6 M508.7,826.4l4.6,42.4l-39,17.2l39,17.2l-4.6,42.4l34.4-25.2l34.4,25.2
					l-4.6-42.4l39-17.2l-39-17.2l4.6-42.4l-34.4,25.2L508.7,826.4L508.7,826.4z"/>
			</g>
			<g>
				<circle class="st11" cx="653.8" cy="822.1" r="7.6"/>
			</g>
			<g>
				<circle class="st11" cx="653.8" cy="949.9" r="7.6"/>
			</g>
			<g>
				<circle class="st11" cx="543.1" cy="1013.9" r="7.6"/>
			</g>
			<g>
				<circle class="st11" cx="432.4" cy="949.9" r="7.6"/>
			</g>
			<g>
				<circle class="st11" cx="432.4" cy="822.1" r="7.6"/>
			</g>
			<g>
				<circle class="st11" cx="543.1" cy="758.2" r="7.6"/>
			</g>
		</g>
	</g>
</g>
<g>
	<g>
		
			<linearGradient id="SVGID_00000171701379720322394200000011413674239530193284_" gradientUnits="userSpaceOnUse" x1="1512.7368" y1="0" x2="1512.7368" y2="340">
			<stop  offset="0" style="stop-color:#FFC8FF"/>
			<stop  offset="1" style="stop-color:#9B649B"/>
		</linearGradient>
		<path style="fill:url(#SVGID_00000171701379720322394200000011413674239530193284_);" d="M1905,15v310h-522.5
			c-4.5-18-9.9-35.7-16-53c-21.7-61-52.9-116-92.6-163.3c-31.7-37.7-67.7-69.1-107.2-93.7H1905 M1920,0h-814.5
			c7.3,3.1,14.6,6.5,21.8,10.1c50.7,25.5,96.1,61.9,135.1,108.2c38.6,45.9,68.9,99.3,90,158.6c7.3,20.6,13.4,41.6,18.3,63H1920V0
			L1920,0z"/>
	</g>
	<g>
		
			<linearGradient id="SVGID_00000009557348145376253120000008381943805545778102_" gradientUnits="userSpaceOnUse" x1="407.2632" y1="-9.094947e-13" x2="407.2632" y2="340">
			<stop  offset="0" style="stop-color:#FFC8FF"/>
			<stop  offset="1" style="stop-color:#9B649B"/>
		</linearGradient>
		<path style="fill:url(#SVGID_00000009557348145376253120000008381943805545778102_);" d="M753.4,15c-39.5,24.6-75.5,56-107.2,93.7
			C606.4,156,575.3,210.9,553.6,272c-6.1,17.3-11.5,35.1-16,53H15V15H753.4 M814.5,0H0v340h549.4c4.9-21.4,11-42.4,18.3-63
			c21.1-59.4,51.4-112.7,90-158.6C696.6,72.1,742,35.6,792.7,10.1C799.9,6.5,807.2,3.1,814.5,0L814.5,0z"/>
	</g>
	<g class="st2">
		
			<linearGradient id="SVGID_00000041262177266253527970000016406654779801164427_" gradientUnits="userSpaceOnUse" x1="1648.3104" y1="370" x2="1648.3104" y2="710">
			<stop  offset="0" style="stop-color:#FFC8FF"/>
			<stop  offset="1" style="stop-color:#9B649B"/>
		</linearGradient>
		<path style="display:inline;fill:url(#SVGID_00000041262177266253527970000016406654779801164427_);" d="M1905,385v310h-504.9V470
			c0-28.6-2-57.1-5.9-85H1905 M1920,370h-543.4c5.6,32.7,8.5,66.1,8.5,100v240H1920V370L1920,370z"/>
	</g>
	<g class="st2">
		
			<linearGradient id="SVGID_00000003063670760625917850000016348320610788552067_" gradientUnits="userSpaceOnUse" x1="271.6895" y1="370" x2="271.6895" y2="710">
			<stop  offset="0" style="stop-color:#FFC8FF"/>
			<stop  offset="1" style="stop-color:#9B649B"/>
		</linearGradient>
		<path style="display:inline;fill:url(#SVGID_00000003063670760625917850000016348320610788552067_);" d="M525.8,385
			c-3.9,27.9-5.9,56.4-5.9,85v225H15V385H525.8 M543.4,370H0v340h534.9V470C534.9,436.1,537.7,402.7,543.4,370L543.4,370z"/>
	</g>
	<g class="st2">
		
			<linearGradient id="SVGID_00000065068396539013666050000008362851497305384070_" gradientUnits="userSpaceOnUse" x1="960" y1="0" x2="960" y2="1080">
			<stop  offset="0" style="stop-color:#FFC8FF"/>
			<stop  offset="1" style="stop-color:#9B649B"/>
		</linearGradient>
		<path style="display:inline;fill:url(#SVGID_00000065068396539013666050000008362851497305384070_);" d="M960,15
			c51,0,100.4,11.9,147,35.3c45.2,22.8,85.9,55.4,120.8,97c35.1,41.8,62.7,90.5,82,144.8c20,56.3,30.2,116.2,30.2,177.9v270v15h15
			H1905v310h-549.9H564.9H15V755h549.9h15v-15V470c0-61.7,10.2-121.6,30.2-177.9c19.3-54.3,46.9-103,82-144.8
			c35-41.6,75.6-74.2,120.8-97C859.6,26.9,909,15,960,15 M960,0C741.8,0,564.9,210.4,564.9,470v270H0v340h564.9h790.2H1920V740
			h-564.9V470C1355.1,210.4,1178.2,0,960,0L960,0z"/>
	</g>
	<g>
		
			<linearGradient id="SVGID_00000146476882774502606650000000986540768193177513_" gradientUnits="userSpaceOnUse" x1="1648.3104" y1="370" x2="1648.3104" y2="710">
			<stop  offset="0" style="stop-color:#FFC8FF"/>
			<stop  offset="1" style="stop-color:#9B649B"/>
		</linearGradient>
		<path style="fill:url(#SVGID_00000146476882774502606650000000986540768193177513_);" d="M1905,385v310h-416.8
			c-26.9-15.7-57.1-25.5-88.1-28.8V470c0-28.6-2-57.1-5.9-85H1905 M1920,370h-543.4c5.6,32.7,8.5,66.1,8.5,100v210.2
			c35.2,1.4,69.1,11.6,99,29.8H1920V370L1920,370z"/>
	</g>
	<g>
		
			<linearGradient id="SVGID_00000152243868132474692200000014301626451221316239_" gradientUnits="userSpaceOnUse" x1="960" y1="0" x2="960" y2="710">
			<stop  offset="0" style="stop-color:#FFC8FF"/>
			<stop  offset="1" style="stop-color:#9B649B"/>
		</linearGradient>
		<path style="fill:url(#SVGID_00000152243868132474692200000014301626451221316239_);" d="M960,15c51,0,100.4,11.9,147,35.3
			c45.2,22.8,85.9,55.4,120.8,97c35.1,41.8,62.7,90.5,82,144.8c20,56.3,30.2,116.2,30.2,177.9v198.1c-26.3,4.4-51.2,13.4-74.3,26.9
			h-116.5c-20.3-23.5-45.2-43.5-72.4-58c-35.8-19-76.2-29-116.9-29s-81.1,10-116.9,29c-27.2,14.5-52.1,34.4-72.4,58H654.2
			c-23.1-13.5-48-22.5-74.3-26.9V470c0-61.7,10.2-121.6,30.2-177.9c19.3-54.3,46.9-103,82-144.8c35-41.6,75.6-74.2,120.8-97
			C859.6,26.9,909,15,960,15 M960,0C741.8,0,564.9,210.4,564.9,470v211.2c30.2,3.2,59.2,13,85.2,28.8h127.6
			c19.9-24.5,44.7-45,72.4-59.7C883.8,632.4,921.7,623,960,623s76.2,9.4,109.8,27.3c27.8,14.8,52.6,35.2,72.4,59.7h127.6
			c26-15.9,55-25.6,85.2-28.8V470C1355.1,210.4,1178.2,0,960,0L960,0z"/>
	</g>
	<g>
		
			<linearGradient id="SVGID_00000058562418116564565070000010119980333982373556_" gradientUnits="userSpaceOnUse" x1="960" y1="653" x2="960" y2="1080">
			<stop  offset="0" style="stop-color:#FFC8FF"/>
			<stop  offset="1" style="stop-color:#9B649B"/>
		</linearGradient>
		<path style="fill:url(#SVGID_00000058562418116564565070000010119980333982373556_);" d="M960,668c30.9,0,61.6,7.6,88.7,22
			c26.3,14,49.2,34.2,66.4,58.6l4.5,6.4h7.8h151.3h4.6l3.8-2.6c26.6-17.9,57.7-27.4,89.9-27.4s63.3,9.5,89.9,27.4l3.8,2.6h4.6H1905
			v310H15V755h429.7h4.6l3.8-2.6c26.6-17.9,57.7-27.4,89.9-27.4s63.3,9.5,89.9,27.4l3.8,2.6h4.6h151.3h7.8l4.5-6.4
			C822,724.2,845,704,871.3,690C898.4,675.6,929.1,668,960,668 M960,653c-69.2,0-130.4,34.4-167.4,87H641.3
			c-28.1-18.9-61.9-30-98.3-30s-70.2,11.1-98.3,30H0v340h1920V740h-444.7c-28.1-18.9-61.9-30-98.3-30s-70.2,11.1-98.3,30h-151.3
			C1090.4,687.4,1029.2,653,960,653L960,653z"/>
	</g>
	<g>
		
			<linearGradient id="SVGID_00000090256234246650342890000000386524393670197417_" gradientUnits="userSpaceOnUse" x1="271.6895" y1="370" x2="271.6895" y2="710">
			<stop  offset="0" style="stop-color:#FFC8FF"/>
			<stop  offset="1" style="stop-color:#9B649B"/>
		</linearGradient>
		<path style="fill:url(#SVGID_00000090256234246650342890000000386524393670197417_);" d="M525.8,385c-3.9,27.9-5.9,56.4-5.9,85
			v196.2c-31.1,3.3-61.2,13.1-88.1,28.8H15V385H525.8 M543.4,370H0v340h435.9c29.9-18.3,63.8-28.5,99-29.8V470
			C534.9,436.1,537.7,402.7,543.4,370L543.4,370z"/>
	</g>
</g>
<g>
	<text transform="matrix(1 0 0 1 827.1609 482.9043)" class="st2"><tspan x="0" y="0" class="st33 st34 st35">2021-2022</tspan><tspan x="-225.7" y="56.4" class="st33 st34 st35">CHOCTAW INDIAN PRINCESS</tspan><tspan x="-207.4" y="112.8" class="st33 st34 st35">SHEMAH LADANIA CROSBY</tspan></text>
	<text transform="matrix(1 0 0 1 826.1609 478.9043)" class="st2"><tspan x="0" y="0" class="st36 st34 st35">2021-2022</tspan><tspan x="-225.7" y="56.4" class="st36 st34 st35">CHOCTAW INDIAN PRINCESS</tspan><tspan x="-207.4" y="112.8" class="st36 st34 st35">SHEMAH LADANIA CROSBY</tspan></text>
	<text transform="matrix(1 0 0 1 827.1609 479.9043)"><tspan x="0" y="0" class="st37 st34 st35">2021-2022</tspan><tspan x="-225.7" y="56.4" class="st37 st34 st35">CHOCTAW INDIAN PRINCESS</tspan><tspan x="-207.4" y="112.8" class="st37 st34 st35">SHEMAH LADANIA CROSBY</tspan></text>
</g>
<path class="st38" d="M1920,710h-435.9c-32.2-19.7-69.1-30-107.1-30s-74.9,10.3-107.1,30h-127.6c-19.9-24.5-44.7-45-72.4-59.7
	C1036.2,632.4,998.3,623,960,623s-76.2,9.4-109.8,27.3c-27.8,14.8-52.6,35.2-72.4,59.7H650.1c-32.2-19.7-69.1-30-107.1-30
	s-74.9,10.3-107.1,30H0h-30v30v340v30H0h1920h30v-30V740v-30H1920z"/>
</svg>
