<?xml version="1.0" encoding="utf-8"?>
<!-- Generator: Adobe Illustrator 26.0.1, SVG Export Plug-In . SVG Version: 6.00 Build 0)  -->
<svg version="1.1" id="Layer_1" xmlns="http://www.w3.org/2000/svg" xmlns:xlink="http://www.w3.org/1999/xlink" x="0px" y="0px"
	 viewBox="0 0 1920 1080" style="enable-background:new 0 0 1920 1080;" xml:space="preserve">
<style type="text/css">
	.st0{clip-path:url(#SVGID_00000161596025113358295400000013431022646581225644_);}
	.st1{clip-path:url(#SVGID_00000041273257733210447710000004673490338027477433_);fill:#1A1C1E;}
	.st2{clip-path:url(#SVGID_00000119080253560785624280000001210698213078781359_);}
	.st3{clip-path:url(#SVGID_00000148657744167873544520000002003669353099617944_);}
	.st4{clip-path:url(#SVGID_00000124846421678715480870000008393679211799648432_);}
	.st5{clip-path:url(#SVGID_00000058583158849487666780000012984340462213931409_);}
	
		.st6{clip-path:url(#SVGID_00000094577894335776246330000000534249615524931757_);fill:url(#SVGID_00000106134202708523688610000002307951255024625555_);}
	.st7{display:none;}
	.st8{fill:url(#SVGID_00000010311123898714642460000006457761837660432830_);}
	.st9{display:none;fill:#F15A24;}
	.st10{display:inline;}
	.st11{fill:url(#SVGID_00000114032763927048892770000003518904340731477941_);}
	.st12{fill:url(#SVGID_00000163042826432146638630000017540933231918164135_);}
	.st13{fill:url(#SVGID_00000168810827708468369410000008704164535060447896_);}
	.st14{fill:url(#SVGID_00000027605089158522080510000001596001567041195686_);}
	.st15{fill:url(#SVGID_00000022523318455581242470000008035006521325951891_);}
	.st16{fill:url(#SVGID_00000104665292968813750060000007838726016613837501_);}
	.st17{fill:#0000FF;}
	.st18{fill:url(#SVGID_00000107582680226023427270000009726693167140930731_);}
	.st19{fill:url(#SVGID_00000165192587895406136380000007398511332956373899_);}
	.st20{fill:url(#SVGID_00000176745570149307115920000009565021842688398506_);}
	.st21{fill:url(#SVGID_00000077288412768864920150000011719701800522567834_);}
	.st22{fill:url(#SVGID_00000078031940705978804570000016647824518762781875_);}
	.st23{fill:url(#SVGID_00000132788422500933634780000008714095633773961639_);}
	.st24{fill:url(#SVGID_00000019676933626512669110000014076831067646088086_);}
	.st25{fill:url(#SVGID_00000018922517738494049000000007600992518061453737_);}
	.st26{fill:url(#SVGID_00000005230302521451651120000001173657346954577801_);}
	.st27{fill:url(#SVGID_00000072265855036250115610000018034339340040069516_);}
	.st28{fill:url(#SVGID_00000075133328494419509530000017516700785713670332_);}
	.st29{fill:url(#SVGID_00000084497465203942856550000017621967602778726069_);}
	.st30{fill:#FFFFFF;}
	.st31{fill:url(#SVGID_00000036229710219859915660000011929504912927826571_);}
	.st32{fill:url(#SVGID_00000182520375554361057140000002396158321804969662_);}
	.st33{fill:url(#SVGID_00000069359918472669930520000012080090216765918651_);}
	.st34{fill:url(#SVGID_00000067203779432616831680000005866591347995625128_);}
	.st35{fill:url(#SVGID_00000078724407060262537250000008316853633561553293_);}
	.st36{fill:url(#SVGID_00000142891672340061678940000017312700559184478599_);}
	.st37{fill:url(#SVGID_00000021817621962301034020000001755830618828675735_);}
	.st38{fill:url(#SVGID_00000082345473601310471540000007252272272993756594_);}
	.st39{fill:url(#SVGID_00000150072951367646179270000002003848263828355998_);}
	.st40{fill:url(#SVGID_00000109725248302517971250000017816365634596862644_);}
	.st41{fill:url(#SVGID_00000109001362959326781310000005884083554156110722_);}
	.st42{fill:url(#SVGID_00000110472818904398280110000001670638261013517730_);}
	.st43{fill:url(#SVGID_00000103988030561403213140000010967751490639778232_);}
	.st44{fill:url(#SVGID_00000139973607598654513470000017151893196166583690_);}
	.st45{fill:url(#SVGID_00000026155324369608337150000000363627002501917321_);}
	.st46{fill:url(#SVGID_00000134935671703555330740000004743710390053014155_);}
	.st47{fill:url(#SVGID_00000013874096511703282530000007459471082555097787_);}
	.st48{fill:url(#SVGID_00000056413880468968070740000003764072279730521500_);}
	.st49{fill:url(#SVGID_00000016794421769071815030000013775836849357461694_);}
	.st50{fill:url(#SVGID_00000047766856272417203800000000070981965493323199_);}
	.st51{fill:url(#SVGID_00000013174847577684974090000009823616191982423214_);}
	.st52{fill:url(#SVGID_00000022525817055488045070000009850832476701137049_);}
	.st53{fill:url(#SVGID_00000152967439656865470070000001436210232258646943_);}
	.st54{fill:url(#SVGID_00000043458277497917063890000007071259898547889566_);}
	.st55{font-family:'FrizQuadrataStd-Bold';}
	.st56{font-size:54px;}
	.st57{fill:#999999;}
	.st58{display:none;fill:#D90AFF;}
</style>
<g>
	<g>
		<g>
			<g>
				<defs>
					<path id="SVGID_1_" d="M1127.3,10.1c50.7,25.5,96.1,61.9,135.1,108.2c38.6,45.9,68.9,99.3,90,158.6c7.3,20.6,13.4,41.6,18.3,63
						H1920V0h-814.5C1112.8,3.1,1120.1,6.5,1127.3,10.1z"/>
				</defs>
				<clipPath id="SVGID_00000016755004662502419320000011774681053705622924_">
					<use xlink:href="#SVGID_1_"  style="overflow:visible;"/>
				</clipPath>
				
					<g transform="matrix(1 0 0 1 0 -7.629395e-06)" style="clip-path:url(#SVGID_00000016755004662502419320000011774681053705622924_);">
					
						<image style="overflow:visible;enable-background:new    ;" width="2100" height="1500" xlink:href="../../../../../Creative Cloud Files/Untitled-1.png"  transform="matrix(0.3762 0 0 0.3762 1118 -122.1429)">
					</image>
				</g>
			</g>
		</g>
	</g>
	<g>
		<g>
			<g>
				<defs>
					<path id="SVGID_00000013161305652855416830000002695095826719220401_" d="M567.7,277c21.1-59.4,51.4-112.7,90-158.6
						c38.9-46.3,84.3-82.8,135-108.3c7.2-3.6,14.5-7,21.8-10.1H0v340h549.4C554.3,318.6,560.4,297.6,567.7,277z"/>
				</defs>
				<clipPath id="SVGID_00000114761800268773699220000011239194035284206976_">
					<use xlink:href="#SVGID_00000013161305652855416830000002695095826719220401_"  style="overflow:visible;"/>
				</clipPath>
				<path style="clip-path:url(#SVGID_00000114761800268773699220000011239194035284206976_);fill:#1A1C1E;" d="M567.7,277
					c21.1-59.4,51.4-112.7,90-158.6c38.9-46.3,84.3-82.8,135-108.3c7.2-3.6,14.5-7,21.8-10.1H0v340h549.4
					C554.3,318.6,560.4,297.6,567.7,277z"/>
			</g>
		</g>
		<g>
			<g>
				<defs>
					<path id="SVGID_00000153698727012390222670000011182799292754109842_" d="M567.7,277c21.1-59.4,51.4-112.7,90-158.6
						c38.9-46.3,84.3-82.8,135-108.3c7.2-3.6,14.5-7,21.8-10.1H0v340h549.4C554.3,318.6,560.4,297.6,567.7,277z"/>
				</defs>
				<clipPath id="SVGID_00000019636374475092513680000001094639727763377341_">
					<use xlink:href="#SVGID_00000153698727012390222670000011182799292754109842_"  style="overflow:visible;"/>
				</clipPath>
				<g style="clip-path:url(#SVGID_00000019636374475092513680000001094639727763377341_);">
					
						<image style="overflow:visible;enable-background:new    ;" width="960" height="640" xlink:href="../../../../../Downloads/214214245_4141323565949201_2880696736542877045_n.jpg"  transform="matrix(0.5953 0 0 0.5953 22 -21)">
					</image>
				</g>
			</g>
		</g>
	</g>
	<g>
		<g>
			<g>
				<defs>
					<path id="SVGID_00000129203167893473437890000014566219486806885033_" d="M1385.1,680.2c35.2,1.4,69.1,11.6,99,29.8H1920V370
						h-543.4c5.6,32.7,8.5,66.1,8.5,100V680.2z"/>
				</defs>
				<clipPath id="SVGID_00000082357026767719769720000006287366177811264159_">
					<use xlink:href="#SVGID_00000129203167893473437890000014566219486806885033_"  style="overflow:visible;"/>
				</clipPath>
				
					<g transform="matrix(1 0 0 1 1.220703e-04 0)" style="clip-path:url(#SVGID_00000082357026767719769720000006287366177811264159_);">
					
						<image style="overflow:visible;enable-background:new    ;" width="8256" height="5504" xlink:href="../../../../../Creative Cloud Files/71 Edition CIF Contestant photos/Studio pix/Contestant 7 Shemah Ladania Crosby/DSC_8687.JPG"  transform="matrix(7.558139e-02 0 0 7.558139e-02 1323.6899 340)">
					</image>
				</g>
			</g>
		</g>
	</g>
	<g>
		<g>
			<g>
				<defs>
					<path id="SVGID_00000061460002334234593000000017722521237213972912_" d="M534.9,680.2V470c0-33.9,2.8-67.3,8.5-100H0v340
						h435.9C465.8,691.7,499.7,681.5,534.9,680.2z"/>
				</defs>
				<clipPath id="SVGID_00000019666664687790099250000006721339490159476123_">
					<use xlink:href="#SVGID_00000061460002334234593000000017722521237213972912_"  style="overflow:visible;"/>
				</clipPath>
				<g style="clip-path:url(#SVGID_00000019666664687790099250000006721339490159476123_);">
					
						<image style="overflow:visible;enable-background:new    ;" width="8256" height="5504" xlink:href="../../../../../Creative Cloud Files/71 Edition CIF Contestant photos/Outside Pix/Contestant 7 Shemah Ladania Crosby/DSC_9047.JPG"  transform="matrix(6.334787e-02 0 0 6.334787e-02 10 364.9011)">
					</image>
				</g>
			</g>
		</g>
	</g>
	<g>
		<g>
			<g>
				<defs>
					<path id="SVGID_00000134959712722167021800000007609146453428534669_" d="M650.1,710h127.6c19.9-24.5,44.7-45,72.4-59.7
						C883.8,632.4,921.7,623,960,623s76.2,9.4,109.8,27.3c27.8,14.8,52.6,35.2,72.4,59.7h127.6c26-15.9,55-25.6,85.2-28.8V470
						c0-259.6-176.9-470-395.1-470s-395,210.4-395,470v211.2C595.1,684.4,624.1,694.1,650.1,710z"/>
				</defs>
				<clipPath id="SVGID_00000049187836526258540340000012944261005492231554_">
					<use xlink:href="#SVGID_00000134959712722167021800000007609146453428534669_"  style="overflow:visible;"/>
				</clipPath>
				<g style="clip-path:url(#SVGID_00000049187836526258540340000012944261005492231554_);">
					
						<image style="overflow:visible;enable-background:new    ;" width="1500" height="2250" xlink:href="../../../../../Desktop/princess.jpg"  transform="matrix(0.5105 0 0 0.5105 577.1215 -72)">
					</image>
				</g>
			</g>
		</g>
		<g>
			<g>
				<defs>
					<path id="SVGID_00000049908169803328058440000016820919069726820512_" d="M650.1,710h127.6c19.9-24.5,44.7-45,72.4-59.7
						C883.8,632.4,921.7,623,960,623s76.2,9.4,109.8,27.3c27.8,14.8,52.6,35.2,72.4,59.7h127.6c26-15.9,55-25.6,85.2-28.8V470
						c0-259.6-176.9-470-395.1-470s-395,210.4-395,470v211.2C595.1,684.4,624.1,694.1,650.1,710z"/>
				</defs>
				<clipPath id="SVGID_00000147202226035861794360000013604900990943215234_">
					<use xlink:href="#SVGID_00000049908169803328058440000016820919069726820512_"  style="overflow:visible;"/>
				</clipPath>
				
					<linearGradient id="SVGID_00000121248877412185183170000013074733782949664689_" gradientUnits="userSpaceOnUse" x1="1003.5" y1="0" x2="1003.5" y2="710">
					<stop  offset="0.4756" style="stop-color:#9E005D;stop-opacity:0"/>
					<stop  offset="1" style="stop-color:#1B1464"/>
				</linearGradient>
				
					<rect x="500" style="clip-path:url(#SVGID_00000147202226035861794360000013604900990943215234_);fill:url(#SVGID_00000121248877412185183170000013074733782949664689_);" width="1007" height="710"/>
			</g>
		</g>
	</g>
	<path class="st7" d="M1475.3,740c-28.1-18.9-61.9-30-98.3-30s-70.2,11.1-98.3,30h-151.3c-37-52.6-98.2-87-167.4-87
		s-130.4,34.4-167.4,87H641.3c-28.1-18.9-61.9-30-98.3-30s-70.2,11.1-98.3,30H0v340h1920V740H1475.3z"/>
	<g>
		
			<linearGradient id="SVGID_00000127742449502790603430000017727210996604590225_" gradientUnits="userSpaceOnUse" x1="960" y1="740" x2="960" y2="1080">
			<stop  offset="0.4389" style="stop-color:#FFFFFF"/>
			<stop  offset="0.5105" style="stop-color:#B3B3B3"/>
			<stop  offset="0.6804" style="stop-color:#FFFFFF"/>
			<stop  offset="0.7843" style="stop-color:#CCCCCC"/>
			<stop  offset="1" style="stop-color:#FFFFFF"/>
		</linearGradient>
		<rect y="740" style="fill:url(#SVGID_00000127742449502790603430000017727210996604590225_);" width="1920" height="340"/>
		<path class="st9" d="M1094,723.5c-35.8-35.8-83.4-55.5-134-55.5s-98.2,19.7-134,55.5s-55.5,83.4-55.5,134s19.7,98.2,55.5,134
			c35.8,35.8,83.4,55.5,134,55.5s98.2-19.7,134-55.5c35.8-35.8,55.5-83.4,55.5-134S1129.8,759.3,1094,723.5z"/>
		<path class="st9" d="M1490.8,772.2C1460.4,741.7,1420,725,1377,725s-83.4,16.7-113.8,47.2C1232.7,802.6,1216,843,1216,886
			s16.7,83.4,47.2,113.8c30.4,30.4,70.8,47.2,113.8,47.2s83.4-16.7,113.8-47.2c30.4-30.4,47.2-70.8,47.2-113.8
			S1521.3,802.6,1490.8,772.2z"/>
		<path class="st9" d="M656.8,772.2C626.4,741.7,586,725,543,725s-83.4,16.7-113.8,47.2C398.7,802.6,382,843,382,886
			s16.7,83.4,47.2,113.8c30.4,30.4,70.8,47.2,113.8,47.2s83.4-16.7,113.8-47.2C687.3,969.4,704,929,704,886S687.3,802.6,656.8,772.2
			z"/>
		<g class="st7">
			<g class="st10">
				
					<linearGradient id="SVGID_00000074399606828660727150000017738737780379105159_" gradientUnits="userSpaceOnUse" x1="960.05" y1="668.0555" x2="960.05" y2="1047.2445">
					<stop  offset="0" style="stop-color:#9E9E9E"/>
					<stop  offset="1" style="stop-color:#FFFFFF"/>
				</linearGradient>
				<path style="fill:url(#SVGID_00000074399606828660727150000017738737780379105159_);" d="M1143.1,906.7
					c13.1-48.9,6.4-100-18.9-143.8s-66.2-75.2-115.1-88.3s-100-6.4-143.8,18.9c-43.8,25.3-75.2,66.2-88.3,115.1
					c-13.1,48.9-6.4,100,18.9,143.8c25.3,43.8,66.2,75.2,115.1,88.3c48.9,13.1,100,6.4,143.8-18.9
					C1098.7,996.4,1130,955.6,1143.1,906.7z"/>
				
					<linearGradient id="SVGID_00000083048390542373157030000007981534739598279836_" gradientUnits="userSpaceOnUse" x1="826.0602" y1="991.7898" x2="1094.2399" y2="723.6101">
					<stop  offset="0" style="stop-color:#0000FF"/>
					<stop  offset="0.5" style="stop-color:#1B1464"/>
					<stop  offset="1" style="stop-color:#0000FF"/>
				</linearGradient>
				<path style="fill:url(#SVGID_00000083048390542373157030000007981534739598279836_);" d="M959.8,678.1c15.7,0,31.4,2.1,46.8,6.2
					c46.3,12.4,85,42.1,109,83.6s30.3,89.9,17.9,136.2s-42.1,85-83.6,109c-27.3,15.8-58.3,24.1-89.4,24.1c-15.7,0-31.4-2.1-46.8-6.2
					c-46.3-12.4-85-42.1-109-83.6s-30.3-89.9-17.9-136.2c12.4-46.3,42.1-85,83.6-109C897.7,686.4,928.6,678.1,959.8,678.1
					 M959.8,668.1c-32.8,0-65.2,8.6-94.4,25.5c-43.8,25.3-75.2,66.2-88.3,115.1c-13.1,48.9-6.4,100,18.9,143.8
					c25.3,43.8,66.2,75.2,115.1,88.3c16.3,4.4,32.9,6.5,49.4,6.5c32.8,0,65.2-8.6,94.4-25.5c43.8-25.3,75.2-66.2,88.3-115.1
					c13.1-48.9,6.4-100-18.9-143.8s-66.2-75.2-115.1-88.3C992.8,670.2,976.2,668.1,959.8,668.1L959.8,668.1z"/>
			</g>
			<g class="st10">
				
					<linearGradient id="SVGID_00000030487813725516699130000001718384754617875076_" gradientUnits="userSpaceOnUse" x1="960.1" y1="720.9" x2="960.1" y2="994.4">
					<stop  offset="0" style="stop-color:#FBB03B"/>
					<stop  offset="1" style="stop-color:#FFFF00"/>
				</linearGradient>
				<polygon style="fill:url(#SVGID_00000030487813725516699130000001718384754617875076_);" points="1028.5,818.2 1118,857.6 
					1028.5,897.1 1039,994.4 960.1,936.6 881.1,994.4 891.7,897.1 802.2,857.6 891.7,818.2 881.1,720.9 960.1,778.7 1039,720.9 				
					"/>
				
					<linearGradient id="SVGID_00000133512812653053963320000015847445388659263128_" gradientUnits="userSpaceOnUse" x1="960.1" y1="994.5" x2="960.1" y2="720.9">
					<stop  offset="0" style="stop-color:#9E005D"/>
					<stop  offset="1" style="stop-color:#FF0000"/>
				</linearGradient>
				<path style="fill:url(#SVGID_00000133512812653053963320000015847445388659263128_);" d="M899.7,753.1l51.5,37.7l8.9,6.5
					l8.9-6.5l51.5-37.7l-6.9,63.5l-1.2,10.9l10,4.4l58.4,25.8l-58.4,25.8l-10,4.4l1.2,10.9l6.9,63.5L969,924.6l-8.9-6.5l-8.9,6.5
					l-51.5,37.7l6.9-63.5l1.2-10.9l-10-4.4l-58.4-25.8l58.4-25.8l10-4.4l-1.2-10.9L899.7,753.1 M881.1,720.9l10.6,97.3l-89.5,39.5
					l89.5,39.5l-10.6,97.3l79-57.8l79,57.8l-10.6-97.3l89.5-39.5l-89.5-39.5l10.6-97.3l-79,57.8L881.1,720.9L881.1,720.9z"/>
			</g>
			<g class="st10">
				
					<linearGradient id="SVGID_00000060738590204557476120000009634705540007468698_" gradientUnits="userSpaceOnUse" x1="960.1" y1="787.4" x2="960.1" y2="927.9">
					<stop  offset="0" style="stop-color:#999999"/>
					<stop  offset="1" style="stop-color:#FFFFFF"/>
				</linearGradient>
				<polygon style="fill:url(#SVGID_00000060738590204557476120000009634705540007468698_);" points="995.2,837.4 1041.2,857.6 
					995.2,877.9 1000.6,927.9 960.1,898.2 919.5,927.9 925,877.9 879,857.6 925,837.4 919.5,787.4 960.1,817.1 1000.6,787.4 				"/>
				
					<linearGradient id="SVGID_00000106112676512259915030000017199511699917227392_" gradientUnits="userSpaceOnUse" x1="960.1" y1="927.8" x2="960.1" y2="787.4">
					<stop  offset="0" style="stop-color:#1B1464"/>
					<stop  offset="1" style="stop-color:#0000FF"/>
				</linearGradient>
				<path style="fill:url(#SVGID_00000106112676512259915030000017199511699917227392_);" d="M982,819.6l-1.8,16.1l-1.2,10.9l10,4.4
					l14.8,6.5L989,864l-10,4.4l1.2,10.9l1.8,16.1l-13.1-9.6l-8.9-6.5l-8.9,6.5l-13.1,9.6l1.8-16.1l1.2-10.9l-10-4.4l-14.8-6.5
					L931,851l10-4.4l-1.2-10.9l-1.8-16.1l13.1,9.6l8.9,6.5l8.9-6.5L982,819.6 M1000.6,787.4l-40.5,29.7l-40.5-29.7l5.4,49.9
					l-46,20.3l46,20.3l-5.4,49.9l40.5-29.7l40.5,29.7l-5.4-49.9l46-20.3l-46-20.3L1000.6,787.4L1000.6,787.4z"/>
			</g>
			<g class="st10">
				<circle class="st17" cx="1090.5" cy="782.4" r="9"/>
			</g>
			<g class="st10">
				<circle class="st17" cx="1090.5" cy="932.9" r="9"/>
			</g>
			<g class="st10">
				<circle class="st17" cx="960.1" cy="1008.2" r="9"/>
			</g>
			<g class="st10">
				<circle class="st17" cx="829.7" cy="932.9" r="9"/>
			</g>
			<g class="st10">
				<circle class="st17" cx="829.7" cy="782.4" r="9"/>
			</g>
			<g class="st10">
				<circle class="st17" cx="960.1" cy="707.1" r="9"/>
			</g>
		</g>
		<g class="st7">
			<g class="st10">
				
					<linearGradient id="SVGID_00000150801765168731856240000012076501724817231777_" gradientUnits="userSpaceOnUse" x1="1377.05" y1="725.063" x2="1377.05" y2="1047.037">
					<stop  offset="0" style="stop-color:#9E9E9E"/>
					<stop  offset="1" style="stop-color:#FFFFFF"/>
				</linearGradient>
				<path style="fill:url(#SVGID_00000150801765168731856240000012076501724817231777_);" d="M1532.5,927.7
					c11.1-41.5,5.4-84.9-16.1-122.1c-21.5-37.2-56.2-63.8-97.7-75c-41.5-11.1-84.9-5.4-122.1,16.1s-63.8,56.2-75,97.7
					c-11.1,41.5-5.4,84.9,16.1,122.1c21.5,37.2,56.2,63.8,97.7,75c41.5,11.1,84.9,5.4,122.1-16.1
					C1494.8,1003.9,1521.4,969.2,1532.5,927.7z"/>
				
					<linearGradient id="SVGID_00000036931620348601064720000004538439739002547340_" gradientUnits="userSpaceOnUse" x1="1263.2622" y1="999.888" x2="1490.8379" y2="772.312">
					<stop  offset="0" style="stop-color:#0000FF"/>
					<stop  offset="0.5" style="stop-color:#1B1464"/>
					<stop  offset="1" style="stop-color:#0000FF"/>
				</linearGradient>
				<path style="fill:url(#SVGID_00000036931620348601064720000004538439739002547340_);" d="M1376.8,735.1
					c13.2,0,26.4,1.8,39.3,5.2c38.9,10.4,71.5,35.4,91.6,70.3c20.2,34.9,25.5,75.6,15.1,114.5s-35.4,71.5-70.3,91.6
					c-23,13.3-49,20.3-75.2,20.3c-13.2,0-26.4-1.8-39.3-5.2c-38.9-10.4-71.5-35.4-91.6-70.3c-20.2-34.9-25.5-75.6-15.1-114.5
					s35.4-71.5,70.3-91.6C1324.6,742.1,1350.6,735.1,1376.8,735.1 M1376.8,725.1c-27.9,0-55.4,7.3-80.2,21.6
					c-37.2,21.5-63.8,56.2-75,97.7c-11.1,41.5-5.4,84.9,16.1,122.1c21.5,37.2,56.2,63.8,97.7,75c13.9,3.7,27.9,5.6,41.9,5.6
					c27.9,0,55.4-7.3,80.2-21.6c37.2-21.5,63.8-56.2,75-97.7c11.1-41.5,5.4-84.9-16.1-122.1c-21.5-37.2-56.2-63.8-97.7-75
					C1404.9,726.9,1390.8,725.1,1376.8,725.1L1376.8,725.1z"/>
			</g>
			<g class="st10">
				
					<linearGradient id="SVGID_00000158727623783890975430000000284723338994051259_" gradientUnits="userSpaceOnUse" x1="1377.1" y1="769.9" x2="1377.1" y2="1002.2">
					<stop  offset="0" style="stop-color:#FBB03B"/>
					<stop  offset="1" style="stop-color:#FFFF00"/>
				</linearGradient>
				<polygon style="fill:url(#SVGID_00000158727623783890975430000000284723338994051259_);" points="1435.1,852.5 1511.2,886 
					1435.1,919.6 1444.1,1002.2 1377.1,953.1 1310,1002.2 1319,919.6 1243,886 1319,852.5 1310,769.9 1377.1,819 1444.1,769.9 				
					"/>
				
					<linearGradient id="SVGID_00000153703365927464158000000007480753443794624672_" gradientUnits="userSpaceOnUse" x1="1377" y1="1002.1" x2="1377" y2="769.9">
					<stop  offset="0" style="stop-color:#9E005D"/>
					<stop  offset="1" style="stop-color:#FF0000"/>
				</linearGradient>
				<path style="fill:url(#SVGID_00000153703365927464158000000007480753443794624672_);" d="M1328.6,802.1l39.6,29l8.9,6.5l8.9-6.5
					l39.6-29l-5.3,48.8l-1.2,10.9l10,4.4L1474,886l-44.9,19.8l-10,4.4l1.2,10.9l5.3,48.8l-39.6-29l-8.9-6.5l-8.9,6.5l-39.6,29
					l5.3-48.8l1.2-10.9l-10-4.4l-44.9-19.8l44.9-19.8l10-4.4l-1.2-10.9L1328.6,802.1 M1310,769.9l9,82.6l-76,33.5l76,33.5l-9,82.6
					l67-49.1l67,49.1l-9-82.6l76-33.5l-76-33.5l9-82.6l-67,49.1L1310,769.9L1310,769.9z"/>
			</g>
			<g class="st10">
				
					<linearGradient id="SVGID_00000044173618684080945370000007677340844934277308_" gradientUnits="userSpaceOnUse" x1="1377.05" y1="826.4" x2="1377.05" y2="945.6">
					<stop  offset="0" style="stop-color:#999999"/>
					<stop  offset="1" style="stop-color:#FFFFFF"/>
				</linearGradient>
				<polygon style="fill:url(#SVGID_00000044173618684080945370000007677340844934277308_);" points="1406.9,868.8 1445.9,886 
					1406.9,903.2 1411.5,945.6 1377.1,920.4 1342.7,945.6 1347.3,903.2 1308.2,886 1347.3,868.8 1342.7,826.4 1377.1,851.6 
					1411.5,826.4 				"/>
				
					<linearGradient id="SVGID_00000070112503874341148440000004564898754315848635_" gradientUnits="userSpaceOnUse" x1="1377.1" y1="945.6001" x2="1377.1" y2="826.4">
					<stop  offset="0" style="stop-color:#1B1464"/>
					<stop  offset="1" style="stop-color:#0000FF"/>
				</linearGradient>
				<path style="fill:url(#SVGID_00000070112503874341148440000004564898754315848635_);" d="M1361.3,858.6l7,5.1l8.9,6.5l8.9-6.5
					l7-5.1l-0.9,8.6l-1.2,10.9l10,4.4l7.9,3.5l-7.9,3.5l-10,4.4l1.2,10.9l0.9,8.6l-7-5.1l-8.9-6.5l-8.9,6.5l-7,5.1l0.9-8.6l1.2-10.9
					l-10-4.4l-7.9-3.5l7.9-3.5l10-4.4l-1.2-10.9L1361.3,858.6 M1342.7,826.4l4.6,42.4l-39,17.2l39,17.2l-4.6,42.4l34.4-25.2
					l34.4,25.2l-4.6-42.4l39-17.2l-39-17.2l4.6-42.4l-34.4,25.2L1342.7,826.4L1342.7,826.4z"/>
			</g>
			<g class="st10">
				<circle class="st17" cx="1487.8" cy="822.1" r="7.6"/>
			</g>
			<g class="st10">
				<circle class="st17" cx="1487.8" cy="949.9" r="7.6"/>
			</g>
			<g class="st10">
				<circle class="st17" cx="1377.1" cy="1013.9" r="7.6"/>
			</g>
			<g class="st10">
				<circle class="st17" cx="1266.4" cy="949.9" r="7.6"/>
			</g>
			<g class="st10">
				<circle class="st17" cx="1266.4" cy="822.1" r="7.6"/>
			</g>
			<g class="st10">
				<circle class="st17" cx="1377.1" cy="758.2" r="7.6"/>
			</g>
		</g>
		<g class="st7">
			<g class="st10">
				
					<linearGradient id="SVGID_00000000193359466611066650000014300041312363043472_" gradientUnits="userSpaceOnUse" x1="429.2538" y1="999.8797" x2="656.8796" y2="772.2537">
					<stop  offset="0" style="stop-color:#FA7FFF;stop-opacity:0"/>
					<stop  offset="0.5" style="stop-color:#FA7FFF;stop-opacity:0.5"/>
					<stop  offset="1" style="stop-color:#FA7FFF;stop-opacity:0"/>
				</linearGradient>
				<path style="fill:url(#SVGID_00000000193359466611066650000014300041312363043472_);" d="M698.5,927.7
					c11.1-41.5,5.4-84.9-16.1-122.1c-21.5-37.2-56.2-63.8-97.7-75c-41.5-11.1-84.9-5.4-122.1,16.1s-63.8,56.2-75,97.7
					c-11.1,41.5-5.4,84.9,16.1,122.1c21.5,37.2,56.2,63.8,97.7,75c41.5,11.1,84.9,5.4,122.1-16.1
					C660.8,1003.9,687.4,969.2,698.5,927.7z"/>
				
					<linearGradient id="SVGID_00000071517363021596918150000013749879785456342669_" gradientUnits="userSpaceOnUse" x1="429.262" y1="999.8879" x2="656.838" y2="772.312">
					<stop  offset="0" style="stop-color:#0000FF"/>
					<stop  offset="0.5" style="stop-color:#1B1464"/>
					<stop  offset="1" style="stop-color:#0000FF"/>
				</linearGradient>
				<path style="fill:url(#SVGID_00000071517363021596918150000013749879785456342669_);" d="M542.8,735.1c13.2,0,26.4,1.8,39.3,5.2
					c38.9,10.4,71.5,35.4,91.6,70.3c20.2,34.9,25.5,75.6,15.1,114.5s-35.4,71.5-70.3,91.6c-23,13.3-49,20.3-75.2,20.3
					c-13.2,0-26.4-1.8-39.3-5.2c-38.9-10.4-71.5-35.4-91.6-70.3c-20.2-34.9-25.5-75.6-15.1-114.5s35.4-71.5,70.3-91.6
					C490.6,742.1,516.6,735.1,542.8,735.1 M542.8,725.1c-27.9,0-55.4,7.3-80.2,21.6c-37.2,21.5-63.8,56.2-75,97.7
					c-11.1,41.5-5.4,84.9,16.1,122.1c21.5,37.2,56.2,63.8,97.7,75c13.9,3.7,27.9,5.6,41.9,5.6c27.9,0,55.4-7.3,80.2-21.6
					c37.2-21.5,63.8-56.2,75-97.7c11.1-41.5,5.4-84.9-16.1-122.1c-21.5-37.2-56.2-63.8-97.7-75C570.9,726.9,556.8,725.1,542.8,725.1
					L542.8,725.1z"/>
			</g>
			<g class="st10">
				
					<linearGradient id="SVGID_00000165211349651637607880000008629267087072082867_" gradientUnits="userSpaceOnUse" x1="543.1" y1="769.9" x2="543.1" y2="1002.2">
					<stop  offset="0" style="stop-color:#FBB03B"/>
					<stop  offset="1" style="stop-color:#FFFF00"/>
				</linearGradient>
				<polygon style="fill:url(#SVGID_00000165211349651637607880000008629267087072082867_);" points="601.1,852.5 677.2,886 
					601.1,919.6 610.1,1002.2 543.1,953.1 476,1002.2 485,919.6 409,886 485,852.5 476,769.9 543.1,819 610.1,769.9 				"/>
				
					<linearGradient id="SVGID_00000015355865748932153190000012539898270356211096_" gradientUnits="userSpaceOnUse" x1="543" y1="1002.1" x2="543" y2="769.9">
					<stop  offset="0" style="stop-color:#9E005D"/>
					<stop  offset="1" style="stop-color:#FF0000"/>
				</linearGradient>
				<path style="fill:url(#SVGID_00000015355865748932153190000012539898270356211096_);" d="M494.6,802.1l39.6,29l8.9,6.5l8.9-6.5
					l39.6-29l-5.3,48.8l-1.2,10.9l10,4.4L640,886l-44.9,19.8l-10,4.4l1.2,10.9l5.3,48.8l-39.6-29l-8.9-6.5l-8.9,6.5l-39.6,29
					l5.3-48.8l1.2-10.9l-10-4.4L446.2,886l44.9-19.8l10-4.4l-1.2-10.9L494.6,802.1 M476,769.9l9,82.6L409,886l76,33.5l-9,82.6
					l67-49.1l67,49.1l-9-82.6l76-33.5l-76-33.5l9-82.6L543,819L476,769.9L476,769.9z"/>
			</g>
			<g class="st10">
				
					<linearGradient id="SVGID_00000171692492633607496850000014356178953891481223_" gradientUnits="userSpaceOnUse" x1="543.05" y1="826.4" x2="543.05" y2="945.6">
					<stop  offset="0" style="stop-color:#999999"/>
					<stop  offset="1" style="stop-color:#FFFFFF"/>
				</linearGradient>
				<polygon style="fill:url(#SVGID_00000171692492633607496850000014356178953891481223_);" points="572.9,868.8 611.9,886 
					572.9,903.2 577.5,945.6 543.1,920.4 508.7,945.6 513.3,903.2 474.2,886 513.3,868.8 508.7,826.4 543.1,851.6 577.5,826.4 				
					"/>
				
					<linearGradient id="SVGID_00000008834553735645577750000015618416673308689574_" gradientUnits="userSpaceOnUse" x1="543.1" y1="945.6001" x2="543.1" y2="826.4">
					<stop  offset="0" style="stop-color:#1B1464"/>
					<stop  offset="1" style="stop-color:#0000FF"/>
				</linearGradient>
				<path style="fill:url(#SVGID_00000008834553735645577750000015618416673308689574_);" d="M558.9,858.6l-0.9,8.6l-1.2,10.9
					l10,4.4l7.9,3.5l-7.9,3.5l-10,4.4l1.2,10.9l0.9,8.6l-7-5.1l-8.9-6.5l-8.9,6.5l-7,5.1l0.9-8.6l1.2-10.9l-10-4.4l-7.9-3.5l7.9-3.5
					l10-4.4l-1.2-10.9l-0.9-8.6l7,5.1l8.9,6.5l8.9-6.5L558.9,858.6 M508.7,826.4l4.6,42.4l-39,17.2l39,17.2l-4.6,42.4l34.4-25.2
					l34.4,25.2l-4.6-42.4l39-17.2l-39-17.2l4.6-42.4l-34.4,25.2L508.7,826.4L508.7,826.4z"/>
			</g>
			<g class="st10">
				<circle class="st17" cx="653.8" cy="822.1" r="7.6"/>
			</g>
			<g class="st10">
				<circle class="st17" cx="653.8" cy="949.9" r="7.6"/>
			</g>
			<g class="st10">
				<circle class="st17" cx="543.1" cy="1013.9" r="7.6"/>
			</g>
			<g class="st10">
				<circle class="st17" cx="432.4" cy="949.9" r="7.6"/>
			</g>
			<g class="st10">
				<circle class="st17" cx="432.4" cy="822.1" r="7.6"/>
			</g>
			<g class="st10">
				<circle class="st17" cx="543.1" cy="758.2" r="7.6"/>
			</g>
		</g>
		<g>
			<g>
				<path class="st30" d="M698.5,927.7c11.1-41.5,5.4-84.9-16.1-122.1c-21.5-37.2-56.2-63.8-97.7-75c-41.5-11.1-84.9-5.4-122.1,16.1
					s-63.8,56.2-75,97.7c-11.1,41.5-5.4,84.9,16.1,122.1c21.5,37.2,56.2,63.8,97.7,75c41.5,11.1,84.9,5.4,122.1-16.1
					C660.8,1003.9,687.4,969.2,698.5,927.7z"/>
				
					<linearGradient id="SVGID_00000141427605571813188460000002847315628511028923_" gradientUnits="userSpaceOnUse" x1="429.2538" y1="999.8797" x2="656.8796" y2="772.2537">
					<stop  offset="0" style="stop-color:#FA7FFF;stop-opacity:0"/>
					<stop  offset="0.5" style="stop-color:#FA7FFF;stop-opacity:0.5"/>
					<stop  offset="1" style="stop-color:#FA7FFF;stop-opacity:0"/>
				</linearGradient>
				<path style="fill:url(#SVGID_00000141427605571813188460000002847315628511028923_);" d="M698.5,927.7
					c11.1-41.5,5.4-84.9-16.1-122.1c-21.5-37.2-56.2-63.8-97.7-75c-41.5-11.1-84.9-5.4-122.1,16.1s-63.8,56.2-75,97.7
					c-11.1,41.5-5.4,84.9,16.1,122.1c21.5,37.2,56.2,63.8,97.7,75c41.5,11.1,84.9,5.4,122.1-16.1
					C660.8,1003.9,687.4,969.2,698.5,927.7z"/>
				
					<linearGradient id="SVGID_00000176042068494748424410000005382463038493729172_" gradientUnits="userSpaceOnUse" x1="429.262" y1="999.8879" x2="656.838" y2="772.312">
					<stop  offset="0" style="stop-color:#0000FF"/>
					<stop  offset="0.5" style="stop-color:#1B1464"/>
					<stop  offset="1" style="stop-color:#0000FF"/>
				</linearGradient>
				<path style="fill:url(#SVGID_00000176042068494748424410000005382463038493729172_);" d="M542.8,735.1c13.2,0,26.4,1.8,39.3,5.2
					c38.9,10.4,71.5,35.4,91.6,70.3c20.2,34.9,25.5,75.6,15.1,114.5s-35.4,71.5-70.3,91.6c-23,13.3-49,20.3-75.2,20.3
					c-13.2,0-26.4-1.8-39.3-5.2c-38.9-10.4-71.5-35.4-91.6-70.3c-20.2-34.9-25.5-75.6-15.1-114.5s35.4-71.5,70.3-91.6
					C490.6,742.1,516.6,735.1,542.8,735.1 M542.8,725.1c-27.9,0-55.4,7.3-80.2,21.6c-37.2,21.5-63.8,56.2-75,97.7
					c-11.1,41.5-5.4,84.9,16.1,122.1c21.5,37.2,56.2,63.8,97.7,75c13.9,3.7,27.9,5.6,41.9,5.6c27.9,0,55.4-7.3,80.2-21.6
					c37.2-21.5,63.8-56.2,75-97.7c11.1-41.5,5.4-84.9-16.1-122.1c-21.5-37.2-56.2-63.8-97.7-75C570.9,726.9,556.8,725.1,542.8,725.1
					L542.8,725.1z"/>
			</g>
			<g>
				
					<linearGradient id="SVGID_00000078036649237740953480000001071916976899690674_" gradientUnits="userSpaceOnUse" x1="543.1" y1="769.9" x2="543.1" y2="1002.2">
					<stop  offset="0" style="stop-color:#FBB03B"/>
					<stop  offset="1" style="stop-color:#FFFF00"/>
				</linearGradient>
				<polygon style="fill:url(#SVGID_00000078036649237740953480000001071916976899690674_);" points="601.1,852.5 677.2,886 
					601.1,919.6 610.1,1002.2 543.1,953.1 476,1002.2 485,919.6 409,886 485,852.5 476,769.9 543.1,819 610.1,769.9 				"/>
				
					<linearGradient id="SVGID_00000170245754221025062790000014275154297539665316_" gradientUnits="userSpaceOnUse" x1="543" y1="1002.1" x2="543" y2="769.9">
					<stop  offset="0" style="stop-color:#9E005D"/>
					<stop  offset="1" style="stop-color:#FF0000"/>
				</linearGradient>
				<path style="fill:url(#SVGID_00000170245754221025062790000014275154297539665316_);" d="M494.6,802.1l39.6,29l8.9,6.5l8.9-6.5
					l39.6-29l-5.3,48.8l-1.2,10.9l10,4.4L640,886l-44.9,19.8l-10,4.4l1.2,10.9l5.3,48.8l-39.6-29l-8.9-6.5l-8.9,6.5l-39.6,29
					l5.3-48.8l1.2-10.9l-10-4.4L446.2,886l44.9-19.8l10-4.4l-1.2-10.9L494.6,802.1 M476,769.9l9,82.6L409,886l76,33.5l-9,82.6
					l67-49.1l67,49.1l-9-82.6l76-33.5l-76-33.5l9-82.6L543,819L476,769.9L476,769.9z"/>
			</g>
			<g>
				
					<linearGradient id="SVGID_00000013174427087068821580000000558785499904855994_" gradientUnits="userSpaceOnUse" x1="543.05" y1="826.4" x2="543.05" y2="945.6">
					<stop  offset="0" style="stop-color:#999999"/>
					<stop  offset="1" style="stop-color:#FFFFFF"/>
				</linearGradient>
				<polygon style="fill:url(#SVGID_00000013174427087068821580000000558785499904855994_);" points="572.9,868.8 611.9,886 
					572.9,903.2 577.5,945.6 543.1,920.4 508.7,945.6 513.3,903.2 474.2,886 513.3,868.8 508.7,826.4 543.1,851.6 577.5,826.4 				
					"/>
				
					<linearGradient id="SVGID_00000003824056552845458230000013283372718022182563_" gradientUnits="userSpaceOnUse" x1="543.1" y1="945.6001" x2="543.1" y2="826.4">
					<stop  offset="0" style="stop-color:#1B1464"/>
					<stop  offset="1" style="stop-color:#0000FF"/>
				</linearGradient>
				<path style="fill:url(#SVGID_00000003824056552845458230000013283372718022182563_);" d="M558.9,858.6l-0.9,8.6l-1.2,10.9
					l10,4.4l7.9,3.5l-7.9,3.5l-10,4.4l1.2,10.9l0.9,8.6l-7-5.1l-8.9-6.5l-8.9,6.5l-7,5.1l0.9-8.6l1.2-10.9l-10-4.4l-7.9-3.5l7.9-3.5
					l10-4.4l-1.2-10.9l-0.9-8.6l7,5.1l8.9,6.5l8.9-6.5L558.9,858.6 M508.7,826.4l4.6,42.4l-39,17.2l39,17.2l-4.6,42.4l34.4-25.2
					l34.4,25.2l-4.6-42.4l39-17.2l-39-17.2l4.6-42.4l-34.4,25.2L508.7,826.4L508.7,826.4z"/>
			</g>
			<g>
				<circle class="st17" cx="653.8" cy="822.1" r="7.6"/>
			</g>
			<g>
				<circle class="st17" cx="653.8" cy="949.9" r="7.6"/>
			</g>
			<g>
				<circle class="st17" cx="543.1" cy="1013.9" r="7.6"/>
			</g>
			<g>
				<circle class="st17" cx="432.4" cy="949.9" r="7.6"/>
			</g>
			<g>
				<circle class="st17" cx="432.4" cy="822.1" r="7.6"/>
			</g>
			<g>
				<circle class="st17" cx="543.1" cy="758.2" r="7.6"/>
			</g>
		</g>
		<g>
			<g>
				<path class="st30" d="M1532.7,927.7c11.1-41.5,5.4-84.9-16.1-122.1c-21.5-37.2-56.2-63.8-97.7-75
					c-41.5-11.1-84.9-5.4-122.1,16.1c-37.2,21.5-63.8,56.2-75,97.7c-11.1,41.5-5.4,84.9,16.1,122.1c21.5,37.2,56.2,63.8,97.7,75
					c41.5,11.1,84.9,5.4,122.1-16.1C1495,1003.9,1521.6,969.2,1532.7,927.7z"/>
				
					<linearGradient id="SVGID_00000065797180258115079480000014087743544620478890_" gradientUnits="userSpaceOnUse" x1="1263.4038" y1="999.8797" x2="1491.0297" y2="772.2537">
					<stop  offset="0" style="stop-color:#FA7FFF;stop-opacity:0"/>
					<stop  offset="0.5" style="stop-color:#FA7FFF;stop-opacity:0.5"/>
					<stop  offset="1" style="stop-color:#FA7FFF;stop-opacity:0"/>
				</linearGradient>
				<path style="fill:url(#SVGID_00000065797180258115079480000014087743544620478890_);" d="M1532.7,927.7
					c11.1-41.5,5.4-84.9-16.1-122.1c-21.5-37.2-56.2-63.8-97.7-75c-41.5-11.1-84.9-5.4-122.1,16.1c-37.2,21.5-63.8,56.2-75,97.7
					c-11.1,41.5-5.4,84.9,16.1,122.1c21.5,37.2,56.2,63.8,97.7,75c41.5,11.1,84.9,5.4,122.1-16.1
					C1495,1003.9,1521.6,969.2,1532.7,927.7z"/>
				
					<linearGradient id="SVGID_00000086674691413397160550000005867003041831552168_" gradientUnits="userSpaceOnUse" x1="1263.4121" y1="999.8879" x2="1490.988" y2="772.312">
					<stop  offset="0" style="stop-color:#0000FF"/>
					<stop  offset="0.5" style="stop-color:#1B1464"/>
					<stop  offset="1" style="stop-color:#0000FF"/>
				</linearGradient>
				<path style="fill:url(#SVGID_00000086674691413397160550000005867003041831552168_);" d="M1377,735.1c13.2,0,26.4,1.8,39.3,5.2
					c38.9,10.4,71.5,35.4,91.6,70.3c20.2,34.9,25.5,75.6,15.1,114.5s-35.4,71.5-70.3,91.6c-23,13.3-49,20.3-75.2,20.3
					c-13.2,0-26.4-1.8-39.3-5.2c-38.9-10.4-71.5-35.4-91.6-70.3c-20.2-34.9-25.5-75.6-15.1-114.5c10.4-38.9,35.4-71.5,70.3-91.6
					C1324.8,742.1,1350.8,735.1,1377,735.1 M1377,725.1c-27.9,0-55.4,7.3-80.2,21.6c-37.2,21.5-63.8,56.2-75,97.7
					c-11.1,41.5-5.4,84.9,16.1,122.1c21.5,37.2,56.2,63.8,97.7,75c13.9,3.7,27.9,5.6,41.9,5.6c27.9,0,55.4-7.3,80.2-21.6
					c37.2-21.5,63.8-56.2,75-97.7c11.1-41.5,5.4-84.9-16.1-122.1c-21.5-37.2-56.2-63.8-97.7-75C1405.1,726.9,1391,725.1,1377,725.1
					L1377,725.1z"/>
			</g>
			<g>
				
					<linearGradient id="SVGID_00000152964492470639831730000005170613979722846365_" gradientUnits="userSpaceOnUse" x1="1377.2501" y1="769.9" x2="1377.2501" y2="1002.2">
					<stop  offset="0" style="stop-color:#FBB03B"/>
					<stop  offset="1" style="stop-color:#FFFF00"/>
				</linearGradient>
				<polygon style="fill:url(#SVGID_00000152964492470639831730000005170613979722846365_);" points="1435.3,852.5 1511.4,886 
					1435.3,919.6 1444.3,1002.2 1377.3,953.1 1310.2,1002.2 1319.2,919.6 1243.2,886 1319.2,852.5 1310.2,769.9 1377.3,819 
					1444.3,769.9 				"/>
				
					<linearGradient id="SVGID_00000083064565543743922320000015774427499126103737_" gradientUnits="userSpaceOnUse" x1="1377.1501" y1="1002.1" x2="1377.1501" y2="769.9">
					<stop  offset="0" style="stop-color:#9E005D"/>
					<stop  offset="1" style="stop-color:#FF0000"/>
				</linearGradient>
				<path style="fill:url(#SVGID_00000083064565543743922320000015774427499126103737_);" d="M1328.8,802.1l39.6,29l8.9,6.5l8.9-6.5
					l39.6-29l-5.3,48.8l-1.2,10.9l10,4.4l44.9,19.8l-44.9,19.8l-10,4.4l1.2,10.9l5.3,48.8l-39.6-29l-8.9-6.5l-8.9,6.5l-39.6,29
					l5.3-48.8l1.2-10.9l-10-4.4l-44.9-19.8l44.9-19.8l10-4.4l-1.2-10.9L1328.8,802.1 M1310.2,769.9l9,82.6l-76,33.5l76,33.5l-9,82.6
					l67-49.1l67,49.1l-9-82.6l76-33.5l-76-33.5l9-82.6l-67,49.1L1310.2,769.9L1310.2,769.9z"/>
			</g>
			<g>
				
					<linearGradient id="SVGID_00000121980321625146319180000011524021451715502737_" gradientUnits="userSpaceOnUse" x1="1377.2001" y1="826.4" x2="1377.2001" y2="945.6">
					<stop  offset="0" style="stop-color:#999999"/>
					<stop  offset="1" style="stop-color:#FFFFFF"/>
				</linearGradient>
				<polygon style="fill:url(#SVGID_00000121980321625146319180000011524021451715502737_);" points="1407.1,868.8 1446.1,886 
					1407.1,903.2 1411.7,945.6 1377.3,920.4 1342.9,945.6 1347.5,903.2 1308.4,886 1347.5,868.8 1342.9,826.4 1377.3,851.6 
					1411.7,826.4 				"/>
				
					<linearGradient id="SVGID_00000134969367845901643260000010671471603839355837_" gradientUnits="userSpaceOnUse" x1="1377.2501" y1="945.6001" x2="1377.2501" y2="826.4">
					<stop  offset="0" style="stop-color:#1B1464"/>
					<stop  offset="1" style="stop-color:#0000FF"/>
				</linearGradient>
				<path style="fill:url(#SVGID_00000134969367845901643260000010671471603839355837_);" d="M1393.1,858.6l-0.9,8.6l-1.2,10.9
					l10,4.4l7.9,3.5l-7.9,3.5l-10,4.4l1.2,10.9l0.9,8.6l-7-5.1l-8.9-6.5l-8.9,6.5l-7,5.1l0.9-8.6l1.2-10.9l-10-4.4l-7.9-3.5l7.9-3.5
					l10-4.4l-1.2-10.9l-0.9-8.6l7,5.1l8.9,6.5l8.9-6.5L1393.1,858.6 M1342.9,826.4l4.6,42.4l-39,17.2l39,17.2l-4.6,42.4l34.4-25.2
					l34.4,25.2l-4.6-42.4l39-17.2l-39-17.2l4.6-42.4l-34.4,25.2L1342.9,826.4L1342.9,826.4z"/>
			</g>
			<g>
				<circle class="st17" cx="1488" cy="822.1" r="7.6"/>
			</g>
			<g>
				<circle class="st17" cx="1488" cy="949.9" r="7.6"/>
			</g>
			<g>
				<circle class="st17" cx="1377.3" cy="1013.9" r="7.6"/>
			</g>
			<g>
				<circle class="st17" cx="1266.6" cy="949.9" r="7.6"/>
			</g>
			<g>
				<circle class="st17" cx="1266.6" cy="822.1" r="7.6"/>
			</g>
			<g>
				<circle class="st17" cx="1377.3" cy="758.2" r="7.6"/>
			</g>
		</g>
		<g>
			<g>
				<path class="st30" d="M1142.9,906.6c13.1-48.8,6.4-99.9-18.9-143.7c-25.3-43.8-66.1-75.1-115-88.3
					c-48.8-13.1-99.9-6.4-143.7,18.9s-75.1,66.1-88.3,115c-13.1,48.8-6.4,99.9,18.9,143.7c25.3,43.8,66.1,75.1,115,88.3
					c48.8,13.1,99.9,6.4,143.7-18.9C1098.5,996.3,1129.8,955.4,1142.9,906.6z"/>
				
					<linearGradient id="SVGID_00000077309234819424361950000004067633206769887920_" gradientUnits="userSpaceOnUse" x1="826.0251" y1="991.5272" x2="1093.9142" y2="723.6379">
					<stop  offset="0" style="stop-color:#FA7FFF;stop-opacity:0"/>
					<stop  offset="0.5" style="stop-color:#FA7FFF;stop-opacity:0.5"/>
					<stop  offset="1" style="stop-color:#FA7FFF;stop-opacity:0"/>
				</linearGradient>
				<path style="fill:url(#SVGID_00000077309234819424361950000004067633206769887920_);" d="M1142.9,906.6
					c13.1-48.8,6.4-99.9-18.9-143.7c-25.3-43.8-66.1-75.1-115-88.3c-48.8-13.1-99.9-6.4-143.7,18.9s-75.1,66.1-88.3,115
					c-13.1,48.8-6.4,99.9,18.9,143.7c25.3,43.8,66.1,75.1,115,88.3c48.8,13.1,99.9,6.4,143.7-18.9
					C1098.5,996.3,1129.8,955.4,1142.9,906.6z"/>
				
					<linearGradient id="SVGID_00000135667195254685899530000010998283334698579123_" gradientUnits="userSpaceOnUse" x1="826.0349" y1="991.5369" x2="1093.8652" y2="723.7065">
					<stop  offset="0" style="stop-color:#0000FF"/>
					<stop  offset="0.5" style="stop-color:#1B1464"/>
					<stop  offset="1" style="stop-color:#0000FF"/>
				</linearGradient>
				<path style="fill:url(#SVGID_00000135667195254685899530000010998283334698579123_);" d="M959.7,679.9c15.5,0,31.1,2.1,46.3,6.1
					c45.8,12.2,84.1,41.7,107.8,82.7c23.8,41.1,30,89,17.8,134.8c-12.2,45.8-41.7,84.1-82.7,107.8c-27.1,15.7-57.7,23.9-88.5,23.9
					c-15.5,0-31.1-2.1-46.3-6.1c-45.8-12.2-84.1-41.7-107.8-82.7c-23.8-41.1-30-89-17.8-134.8c12.2-45.8,41.7-84.1,82.7-107.8
					C898.2,688.2,928.8,679.9,959.7,679.9 M959.7,668.1c-32.8,0-65.2,8.6-94.4,25.4c-43.8,25.3-75.1,66.1-88.3,115
					c-13.1,48.8-6.4,99.9,18.9,143.7c25.3,43.8,66.1,75.1,115,88.3c16.4,4.4,32.8,6.6,49.3,6.6c32.8,0,65.2-8.6,94.4-25.4
					c43.8-25.3,75.1-66.1,88.3-115c13.1-48.8,6.4-99.9-18.9-143.7c-25.3-43.8-66.1-75.1-115-88.3
					C992.7,670.3,976.1,668.1,959.7,668.1L959.7,668.1z"/>
			</g>
			<g>
				
					<linearGradient id="SVGID_00000181778951941995977460000000600746600891166345_" gradientUnits="userSpaceOnUse" x1="960.0089" y1="720.8679" x2="960.0089" y2="994.2579">
					<stop  offset="0" style="stop-color:#FBB03B"/>
					<stop  offset="1" style="stop-color:#FFFF00"/>
				</linearGradient>
				<polygon style="fill:url(#SVGID_00000181778951941995977460000000600746600891166345_);" points="1028.3,818.1 1117.8,857.5 
					1028.3,897 1038.9,994.3 960,936.5 881,994.3 891.6,897 802.2,857.5 891.6,818.1 881,720.9 960,778.7 1038.9,720.9 				"/>
				
					<linearGradient id="SVGID_00000023259363026543309230000008423339210663642752_" gradientUnits="userSpaceOnUse" x1="959.8912" y1="994.1402" x2="959.8912" y2="720.8679">
					<stop  offset="0" style="stop-color:#9E005D"/>
					<stop  offset="1" style="stop-color:#FF0000"/>
				</linearGradient>
				<path style="fill:url(#SVGID_00000023259363026543309230000008423339210663642752_);" d="M902.9,758.8l46.6,34.1l10.5,7.6
					l10.5-7.6l46.6-34.1l-6.2,57.4l-1.4,12.8l11.8,5.2l52.8,23.3l-52.8,23.3l-11.8,5.2l1.4,12.8l6.2,57.4l-46.6-34.1l-10.5-7.6
					l-10.5,7.6l-46.6,34.1l6.2-57.4l1.4-12.8l-11.8-5.2L846,857.5l52.8-23.3l11.8-5.2l-1.4-12.8L902.9,758.8 M881,720.9l10.6,97.2
					l-89.4,39.4l89.4,39.4L881,994.1l78.9-57.8l78.9,57.8l-10.6-97.2l89.4-39.4l-89.4-39.4l10.6-97.2l-78.9,57.8L881,720.9
					L881,720.9z"/>
			</g>
			<g>
				
					<linearGradient id="SVGID_00000137833958225558001850000014214624862017931962_" gradientUnits="userSpaceOnUse" x1="959.9501" y1="787.3619" x2="959.9501" y2="927.6463">
					<stop  offset="0" style="stop-color:#999999"/>
					<stop  offset="1" style="stop-color:#FFFFFF"/>
				</linearGradient>
				<polygon style="fill:url(#SVGID_00000137833958225558001850000014214624862017931962_);" points="995.1,837.3 1041,857.5 
					995.1,877.7 1000.5,927.6 960,898 919.5,927.6 924.9,877.7 878.9,857.5 924.9,837.3 919.5,787.4 960,817 1000.5,787.4 				"/>
				
					<linearGradient id="SVGID_00000043451928020075058190000003509681507850275204_" gradientUnits="userSpaceOnUse" x1="960.0089" y1="927.6464" x2="960.0089" y2="787.3619">
					<stop  offset="0" style="stop-color:#1B1464"/>
					<stop  offset="1" style="stop-color:#0000FF"/>
				</linearGradient>
				<path style="fill:url(#SVGID_00000043451928020075058190000003509681507850275204_);" d="M978.6,825.3l-1.1,10.1l-1.4,12.8
					l11.8,5.2l9.3,4.1l-9.3,4.1l-11.8,5.2l1.4,12.8l1.1,10.1l-8.2-6l-10.5-7.6l-10.5,7.6l-8.2,6l1.1-10.1l1.4-12.8l-11.8-5.2
					l-9.3-4.1l9.3-4.1l11.8-5.2l-1.4-12.8l-1.1-10.1l8.2,6l10.5,7.6l10.5-7.6L978.6,825.3 M919.5,787.4l5.4,49.9L879,857.5
					l45.9,20.2l-5.4,49.9L960,898l40.5,29.7l-5.4-49.9l45.9-20.2l-45.9-20.2l5.4-49.9L960,817L919.5,787.4L919.5,787.4z"/>
			</g>
			<g>
				<circle class="st17" cx="1090.3" cy="782.3" r="8.9"/>
			</g>
			<g>
				<circle class="st17" cx="1090.3" cy="932.7" r="8.9"/>
			</g>
			<g>
				<circle class="st17" cx="960" cy="1008" r="8.9"/>
			</g>
			<g>
				<circle class="st17" cx="829.7" cy="932.7" r="8.9"/>
			</g>
			<g>
				<circle class="st17" cx="829.7" cy="782.3" r="8.9"/>
			</g>
			<g>
				<circle class="st17" cx="960" cy="707.1" r="8.9"/>
			</g>
		</g>
	</g>
</g>
<g>
	
		<linearGradient id="SVGID_00000090279956155504097470000007215236314004540315_" gradientUnits="userSpaceOnUse" x1="1512.75" y1="0" x2="1512.75" y2="339.9">
		<stop  offset="0" style="stop-color:#FFC8FF"/>
		<stop  offset="1" style="stop-color:#9B649B"/>
	</linearGradient>
	<path style="fill:url(#SVGID_00000090279956155504097470000007215236314004540315_);" d="M1905,15v310h-522.5
		c-4.5-18-9.9-35.7-16-53c-21.7-61-52.9-116-92.6-163.3c-31.7-37.7-67.7-69.1-107.2-93.7H1905 M1920,0h-814.5
		c7.3,3.1,14.6,6.5,21.8,10.1c50.7,25.5,96.1,61.9,135.1,108.2c38.6,45.9,68.9,99.3,90,158.6c7.3,20.6,13.4,41.6,18.3,63H1920V0
		L1920,0z"/>
	
		<linearGradient id="SVGID_00000151510938497048461090000015236915010519042490_" gradientUnits="userSpaceOnUse" x1="407.25" y1="-9.094947e-13" x2="407.25" y2="340">
		<stop  offset="0" style="stop-color:#FFC8FF"/>
		<stop  offset="1" style="stop-color:#9B649B"/>
	</linearGradient>
	<path style="fill:url(#SVGID_00000151510938497048461090000015236915010519042490_);" d="M753.4,15c-39.5,24.6-75.5,56-107.2,93.7
		C606.4,156,575.3,210.9,553.6,272c-6.1,17.3-11.5,35.1-16,53H15V15H753.4 M814.5,0H0v340h549.4c4.9-21.4,11-42.4,18.3-63
		c21.1-59.4,51.4-112.7,90-158.6c38.9-46.3,84.3-82.8,135-108.3C799.9,6.5,807.2,3.1,814.5,0L814.5,0z"/>
	
		<linearGradient id="SVGID_00000165198576848772573750000006072368559755067796_" gradientUnits="userSpaceOnUse" x1="1648.3" y1="370" x2="1648.3" y2="710">
		<stop  offset="0" style="stop-color:#FFC8FF"/>
		<stop  offset="1" style="stop-color:#9B649B"/>
	</linearGradient>
	<path style="fill:url(#SVGID_00000165198576848772573750000006072368559755067796_);" d="M1905,385v310h-416.8
		c-26.9-15.7-57.1-25.5-88.1-28.8V470c0-28.6-2-57.1-5.9-85H1905 M1920,370h-543.4c5.6,32.7,8.5,66.1,8.5,100v210.2
		c35.2,1.4,69.1,11.6,99,29.8H1920V370L1920,370z"/>
	
		<linearGradient id="SVGID_00000179644225188176559940000014686601769708456119_" gradientUnits="userSpaceOnUse" x1="959.95" y1="0" x2="959.95" y2="710">
		<stop  offset="0" style="stop-color:#FFC8FF"/>
		<stop  offset="1" style="stop-color:#9B649B"/>
	</linearGradient>
	<path style="fill:url(#SVGID_00000179644225188176559940000014686601769708456119_);" d="M960,15c51,0,100.4,11.9,147,35.3
		c45.2,22.8,85.9,55.4,120.8,97c35.1,41.8,62.7,90.5,82,144.8c20,56.3,30.2,116.2,30.2,177.9v198.1c-26.3,4.4-51.2,13.4-74.3,26.9
		h-116.5c-20.3-23.5-45.2-43.5-72.4-58c-35.8-19-76.2-29-116.9-29s-81.1,10-116.9,29c-27.2,14.5-52.1,34.4-72.4,58H654.2
		c-23.1-13.5-48-22.5-74.3-26.9V470c0-61.7,10.2-121.6,30.2-177.9c19.3-54.3,46.9-103,82-144.8c35-41.6,75.6-74.2,120.8-97
		C859.6,26.9,909,15,960,15 M960,0C741.8,0,564.9,210.4,564.9,470v211.2c30.2,3.2,59.2,13,85.2,28.8h127.6
		c19.9-24.5,44.7-45,72.4-59.7C883.8,632.4,921.7,623,960,623s76.2,9.4,109.8,27.3c27.8,14.8,52.6,35.2,72.4,59.7h127.6
		c26-15.9,55-25.6,85.2-28.8V470C1355.1,210.4,1178.2,0,960,0L960,0z"/>
	
		<linearGradient id="SVGID_00000067950721684300604520000003618051667309675171_" gradientUnits="userSpaceOnUse" x1="960" y1="653" x2="960" y2="1080">
		<stop  offset="0" style="stop-color:#FFC8FF"/>
		<stop  offset="1" style="stop-color:#9B649B"/>
	</linearGradient>
	<path style="fill:url(#SVGID_00000067950721684300604520000003618051667309675171_);" d="M960,668c30.9,0,61.6,7.6,88.7,22
		c26.3,14,49.2,34.2,66.4,58.6l4.5,6.4h7.8h151.3h4.6l3.8-2.6c26.6-17.9,57.7-27.4,89.9-27.4s63.3,9.5,89.9,27.4l3.8,2.6h4.6H1905
		v310H15V755h429.7h4.6l3.8-2.6c26.6-17.9,57.7-27.4,89.9-27.4s63.3,9.5,89.9,27.4l3.8,2.6h4.6h151.3h7.8l4.5-6.4
		C822,724.2,845,704,871.3,690C898.4,675.6,929.1,668,960,668 M960,653c-69.2,0-130.4,34.4-167.4,87H641.3
		c-28.1-18.9-61.9-30-98.3-30s-70.2,11.1-98.3,30H0v340h1920V740h-444.7c-28.1-18.9-61.9-30-98.3-30s-70.2,11.1-98.3,30h-151.3
		C1090.4,687.4,1029.2,653,960,653L960,653z"/>
	
		<linearGradient id="SVGID_00000039829441827631676070000017359157823537372573_" gradientUnits="userSpaceOnUse" x1="271.7" y1="370" x2="271.7" y2="710">
		<stop  offset="0" style="stop-color:#FFC8FF"/>
		<stop  offset="1" style="stop-color:#9B649B"/>
	</linearGradient>
	<path style="fill:url(#SVGID_00000039829441827631676070000017359157823537372573_);" d="M525.8,385c-3.9,27.9-5.9,56.4-5.9,85
		v196.2c-31.1,3.3-61.2,13.1-88.1,28.8H15V385H525.8 M543.4,370H0v340h435.9c29.9-18.3,63.8-28.5,99-29.8V470
		C534.9,436.1,537.7,402.7,543.4,370L543.4,370z"/>
</g>
<g>
	<text transform="matrix(1 0 0 1 827.1609 482.9043)" class="st55 st56">2021-2022</text>
	<text transform="matrix(1 0 0 1 601.4609 539.3043)" class="st55 st56">CHOCTAW INDIAN PRINCESS</text>
	<text transform="matrix(1 0 0 1 619.7609 595.7043)" class="st55 st56">SHEMAH LADANIA CROSBY</text>
	<text transform="matrix(1 0 0 1 826.1609 478.9043)" class="st57 st55 st56">2021-2022</text>
	<text transform="matrix(1 0 0 1 600.4609 535.3043)" class="st57 st55 st56">CHOCTAW INDIAN PRINCESS</text>
	<text transform="matrix(1 0 0 1 618.7609 591.7043)" class="st57 st55 st56">SHEMAH LADANIA CROSBY</text>
	<text transform="matrix(1 0 0 1 827.1609 479.9043)" class="st30 st55 st56">2021-2022</text>
	<text transform="matrix(1 0 0 1 601.4609 536.3043)" class="st30 st55 st56">CHOCTAW INDIAN PRINCESS</text>
	<text transform="matrix(1 0 0 1 619.7609 592.7043)" class="st30 st55 st56">SHEMAH LADANIA CROSBY</text>
</g>
<path class="st58" d="M1920,710h-435.9c-32.2-19.7-69.1-30-107.1-30s-74.9,10.3-107.1,30h-127.6c-19.9-24.5-44.7-45-72.4-59.7
	C1036.2,632.4,998.3,623,960,623s-76.2,9.4-109.8,27.3c-27.8,14.8-52.6,35.2-72.4,59.7H650.1c-32.2-19.7-69.1-30-107.1-30
	s-74.9,10.3-107.1,30H0h-30v30v340v30H0h1920h30v-30V740v-30H1920z"/>
</svg>
