<svg enable-background="new 0 0 1920 1080" viewBox="0 0 1920 1080" xmlns="http://www.w3.org/2000/svg" xmlns:xlink="http://www.w3.org/1999/xlink"><clipPath id="a"><path d="m1127.3 10.1c50.7 25.5 96.1 61.9 135.1 108.2 38.6 45.9 68.9 99.3 90 158.6 7.3 20.6 13.4 41.6 18.3 63h549.3v-339.9h-814.5c7.3 3.1 14.6 6.5 21.8 10.1z"/></clipPath><clipPath id="b"><path d="m567.7 277c21.1-59.4 51.4-112.7 90-158.6 38.9-46.3 84.3-82.8 135-108.3 7.2-3.6 14.5-7 21.8-10.1h-814.5v340h549.4c4.9-21.4 11-42.4 18.3-63z"/></clipPath><clipPath id="c"><path d="m1385.1 680.2c35.2 1.4 69.1 11.6 99 29.8h435.9v-340h-543.4c5.6 32.7 8.5 66.1 8.5 100z"/></clipPath><clipPath id="d"><path d="m534.9 680.2v-210.2c0-33.9 2.8-67.3 8.5-100h-543.4v340h435.9c29.9-18.3 63.8-28.5 99-29.8z"/></clipPath><clipPath id="e"><path d="m650.1 710h127.6c19.9-24.5 44.7-45 72.4-59.7 33.7-17.9 71.6-27.3 109.9-27.3s76.2 9.4 109.8 27.3c27.8 14.8 52.6 35.2 72.4 59.7h127.6c26-15.9 55-25.6 85.2-28.8v-211.2c0-259.6-176.9-470-395.1-470s-395 210.4-395 470v211.2c30.2 3.2 59.2 12.9 85.2 28.8z"/></clipPath><linearGradient id="f" gradientUnits="userSpaceOnUse" x1="1003.5" x2="1003.5" y1="0" y2="710"><stop offset=".4756" stop-color="#9e005d" stop-opacity="0"/><stop offset="1" stop-color="#1b1464"/></linearGradient><linearGradient id="g" gradientUnits="userSpaceOnUse" x1="960" x2="960" y1="740" y2="1080"><stop offset="0" stop-color="#fff"/><stop offset=".2157" stop-color="#ccc"/><stop offset=".3196" stop-color="#fff"/><stop offset=".4895" stop-color="#b3b3b3"/><stop offset=".5611" stop-color="#fff"/><stop offset="1" stop-color="#999"/></linearGradient><linearGradient id="h"><stop offset="0" stop-color="#fff"/><stop offset=".5" stop-color="#999"/><stop offset="1" stop-color="#fff"/></linearGradient><linearGradient id="i" gradientUnits="userSpaceOnUse" x1="826.0293" x2="1094.1381" xlink:href="#h" y1="991.6916" y2="723.5827"/><linearGradient id="j"><stop offset="0" stop-color="#00f"/><stop offset=".5" stop-color="#1b1464"/><stop offset="1" stop-color="#00f"/></linearGradient><linearGradient id="k" gradientUnits="userSpaceOnUse" x1="826.0292" x2="1094.1381" xlink:href="#j" y1="991.6916" y2="723.5827"/><linearGradient id="l"><stop offset="0" stop-color="#ff0"/><stop offset=".5" stop-color="#fbb03b"/><stop offset="1" stop-color="#ff0"/></linearGradient><linearGradient id="m" gradientUnits="userSpaceOnUse" x1="802.1627" x2="1118.0048" xlink:href="#l" y1="857.6371" y2="857.6371"/><linearGradient id="n"><stop offset="0" stop-color="#f00"/><stop offset=".5" stop-color="#9e005d"/><stop offset="1" stop-color="#f00"/></linearGradient><linearGradient id="o" gradientUnits="userSpaceOnUse" x1="852.2216" x2="1067.9458" xlink:href="#n" y1="965.4993" y2="749.775"/><linearGradient id="p" gradientUnits="userSpaceOnUse" x1="904.7057" x2="1015.4617" xlink:href="#h" y1="913.0151" y2="802.2592"/><linearGradient id="q" gradientUnits="userSpaceOnUse" x1="904.7057" x2="1015.4616" xlink:href="#j" y1="913.0151" y2="802.2592"/><linearGradient id="r" gradientUnits="userSpaceOnUse" x1="1263.2592" x2="1490.9082" xlink:href="#h" y1="999.8524" y2="772.2032"/><linearGradient id="s" gradientUnits="userSpaceOnUse" x1="1263.2592" x2="1490.9082" xlink:href="#j" y1="999.8524" y2="772.2032"/><linearGradient id="t" gradientUnits="userSpaceOnUse" x1="1242.9941" x2="1511.1732" xlink:href="#l" y1="886.0278" y2="886.0278"/><linearGradient id="u" gradientUnits="userSpaceOnUse" x1="1285.4988" x2="1468.6686" xlink:href="#n" y1="977.6127" y2="794.4429"/><linearGradient id="v" gradientUnits="userSpaceOnUse" x1="1330.0627" x2="1424.1047" xlink:href="#h" y1="933.0488" y2="839.0068"/><linearGradient id="w" gradientUnits="userSpaceOnUse" x1="1330.0626" x2="1424.1047" xlink:href="#j" y1="933.0488" y2="839.0068"/><linearGradient id="x" gradientUnits="userSpaceOnUse" x1="429.2591" x2="656.9083" xlink:href="#h" y1="999.8524" y2="772.2032"/><linearGradient id="y" gradientUnits="userSpaceOnUse" x1="429.2591" x2="656.9083" xlink:href="#j" y1="999.8524" y2="772.2032"/><linearGradient id="z" gradientUnits="userSpaceOnUse" x1="408.9942" x2="677.1732" xlink:href="#l" y1="886.0278" y2="886.0278"/><linearGradient id="A" gradientUnits="userSpaceOnUse" x1="451.4988" x2="634.6686" xlink:href="#n" y1="977.6127" y2="794.4429"/><linearGradient id="B" gradientUnits="userSpaceOnUse" x1="496.0627" x2="590.1047" xlink:href="#h" y1="933.0488" y2="839.0068"/><linearGradient id="C" gradientUnits="userSpaceOnUse" x1="496.0627" x2="590.1047" xlink:href="#j" y1="933.0488" y2="839.0068"/><linearGradient id="D"><stop offset="0" stop-color="#f4e5a1"/><stop offset="1" stop-color="#d0a641"/></linearGradient><linearGradient id="E" gradientUnits="userSpaceOnUse" x1="1512.7368" x2="1512.7368" xlink:href="#D" y1="0" y2="340"/><linearGradient id="F" gradientUnits="userSpaceOnUse" x1="407.2632" x2="407.2632" xlink:href="#D" y1="0" y2="340"/><linearGradient id="G" gradientUnits="userSpaceOnUse" x1="1648.3104" x2="1648.3104" xlink:href="#D" y1="370" y2="710"/><linearGradient id="H" gradientUnits="userSpaceOnUse" x1="271.6895" x2="271.6895" xlink:href="#D" y1="370" y2="710"/><linearGradient id="I" gradientUnits="userSpaceOnUse" x1="960" x2="960" xlink:href="#D" y1="0" y2="710"/><linearGradient id="J" gradientUnits="userSpaceOnUse" x1="960" x2="960" xlink:href="#D" y1="653" y2="1080"/><g clip-path="url(#a)" transform="translate(0 -.000008)"><image height="1500" overflow="visible" transform="matrix(.3762 0 0 .3762 1118 -122.1429)" width="2100" xlink:href="../../../../../Creative Cloud Files/Untitled-1.png"/></g><path clip-path="url(#b)" d="m567.7 277c21.1-59.4 51.4-112.7 90-158.6 38.9-46.3 84.3-82.8 135-108.3 7.2-3.6 14.5-7 21.8-10.1h-814.5v340h549.4c4.9-21.4 11-42.4 18.3-63z" fill="#1a1c1e"/><g clip-path="url(#b)"><image height="640" overflow="visible" transform="matrix(.5953 0 0 .5953 22 -21)" width="960" xlink:href="../../../../../Downloads/214214245_4141323565949201_2880696736542877045_n.jpg"/></g><g clip-path="url(#c)" transform="translate(.000122)"><image height="5504" overflow="visible" transform="matrix(.07558139 0 0 .07558139 1323.6899 340)" width="8256" xlink:href="../../../../../Creative Cloud Files/71 Edition CIF Contestant photos/Studio pix/Contestant 7 Shemah Ladania Crosby/DSC_8687.JPG"/></g><g clip-path="url(#d)"><image height="5504" overflow="visible" transform="matrix(.06334787 0 0 .06334787 10 364.9011)" width="8256" xlink:href="../../../../../Creative Cloud Files/71 Edition CIF Contestant photos/Outside Pix/Contestant 7 Shemah Ladania Crosby/DSC_9047.JPG"/></g><g clip-path="url(#e)"><image height="2250" overflow="visible" transform="matrix(.5105 0 0 .5105 577.1215 -72)" width="1500" xlink:href="../../../../../Desktop/princess.jpg"/></g><path clip-path="url(#e)" d="m500 0h1007v710h-1007z" fill="url(#f)"/><path d="m0 740h1920v340h-1920z" fill="url(#g)"/><path d="m1143.1 906.7c13.1-48.9 6.4-100-18.9-143.8s-66.2-75.2-115.1-88.3-100-6.4-143.8 18.9-75.2 66.2-88.3 115.1-6.4 100 18.9 143.8 66.2 75.2 115.1 88.3 100 6.4 143.8-18.9c43.9-25.4 75.2-66.2 88.3-115.1z" fill="url(#i)"/><path d="m959.8 678.1c15.7 0 31.4 2.1 46.8 6.2 46.3 12.4 85 42.1 109 83.6s30.3 89.9 17.9 136.2-42.1 85-83.6 109c-27.3 15.8-58.3 24.1-89.4 24.1-15.7 0-31.4-2.1-46.8-6.2-46.3-12.4-85-42.1-109-83.6s-30.3-89.9-17.9-136.2 42.1-85 83.6-109c27.3-15.8 58.2-24.1 89.4-24.1m0-10c-32.8 0-65.2 8.6-94.4 25.5-43.8 25.3-75.2 66.2-88.3 115.1s-6.4 100 18.9 143.8 66.2 75.2 115.1 88.3c16.3 4.4 32.9 6.5 49.4 6.5 32.8 0 65.2-8.6 94.4-25.5 43.8-25.3 75.2-66.2 88.3-115.1s6.4-100-18.9-143.8-66.2-75.2-115.1-88.3c-16.4-4.4-33-6.5-49.4-6.5z" fill="url(#k)"/><path d="m1028.5 818.2 89.5 39.4-89.5 39.5 10.5 97.3-78.9-57.8-79 57.8 10.6-97.3-89.5-39.5 89.5-39.4-10.6-97.3 79 57.8 78.9-57.8z" fill="url(#m)"/><path d="m899.7 753.1 51.5 37.7 8.9 6.5 8.9-6.5 51.5-37.7-6.9 63.5-1.2 10.9 10 4.4 58.4 25.8-58.4 25.8-10 4.4 1.2 10.9 6.9 63.5-51.5-37.7-8.9-6.5-8.9 6.5-51.5 37.7 6.9-63.5 1.2-10.9-10-4.4-58.4-25.8 58.4-25.8 10-4.4-1.2-10.9zm-18.6-32.2 10.6 97.3-89.5 39.5 89.5 39.5-10.6 97.3 79-57.8 79 57.8-10.6-97.3 89.5-39.5-89.5-39.5 10.6-97.3-79 57.8z" fill="url(#o)"/><path d="m995.2 837.4 46 20.2-46 20.3 5.4 50-40.5-29.7-40.6 29.7 5.5-50-46-20.3 46-20.2-5.5-50 40.6 29.7 40.5-29.7z" fill="url(#p)"/><path d="m982 819.6-1.8 16.1-1.2 10.9 10 4.4 14.8 6.5-14.8 6.5-10 4.4 1.2 10.9 1.8 16.1-13.1-9.6-8.9-6.5-8.9 6.5-13.1 9.6 1.8-16.1 1.2-10.9-10-4.4-14.8-6.5 14.8-6.5 10-4.4-1.2-10.9-1.8-16.1 13.1 9.6 8.9 6.5 8.9-6.5zm18.6-32.2-40.5 29.7-40.5-29.7 5.4 49.9-46 20.3 46 20.3-5.4 49.9 40.5-29.7 40.5 29.7-5.4-49.9 46-20.3-46-20.3z" fill="url(#q)"/><g fill="#00f"><circle cx="1090.5" cy="782.4" r="9"/><circle cx="1090.5" cy="932.9" r="9"/><circle cx="960.1" cy="1008.2" r="9"/><circle cx="829.7" cy="932.9" r="9"/><circle cx="829.7" cy="782.4" r="9"/><circle cx="960.1" cy="707.1" r="9"/></g><path d="m1532.5 927.7c11.1-41.5 5.4-84.9-16.1-122.1s-56.2-63.8-97.7-75c-41.5-11.1-84.9-5.4-122.1 16.1s-63.8 56.2-75 97.7c-11.1 41.5-5.4 84.9 16.1 122.1s56.2 63.8 97.7 75c41.5 11.1 84.9 5.4 122.1-16.1 37.3-21.5 63.9-56.2 75-97.7z" fill="url(#r)"/><path d="m1376.8 735.1c13.2 0 26.4 1.8 39.3 5.2 38.9 10.4 71.5 35.4 91.6 70.3 20.2 34.9 25.5 75.6 15.1 114.5s-35.4 71.5-70.3 91.6c-23 13.3-49 20.3-75.2 20.3-13.2 0-26.4-1.8-39.3-5.2-38.9-10.4-71.5-35.4-91.6-70.3-20.2-34.9-25.5-75.6-15.1-114.5s35.4-71.5 70.3-91.6c23-13.3 49-20.3 75.2-20.3m0-10c-27.9 0-55.4 7.3-80.2 21.6-37.2 21.5-63.8 56.2-75 97.7-11.1 41.5-5.4 84.9 16.1 122.1s56.2 63.8 97.7 75c13.9 3.7 27.9 5.6 41.9 5.6 27.9 0 55.4-7.3 80.2-21.6 37.2-21.5 63.8-56.2 75-97.7 11.1-41.5 5.4-84.9-16.1-122.1s-56.2-63.8-97.7-75c-13.8-3.8-27.9-5.6-41.9-5.6z" fill="url(#s)"/><path d="m1435.1 852.5 76.1 33.5-76.1 33.6 9 82.6-67-49.1-67.1 49.1 9-82.6-76-33.6 76-33.5-9-82.6 67.1 49.1 67-49.1z" fill="url(#t)"/><path d="m1328.6 802.1 39.6 29 8.9 6.5 8.9-6.5 39.6-29-5.3 48.8-1.2 10.9 10 4.4 44.9 19.8-44.9 19.8-10 4.4 1.2 10.9 5.3 48.8-39.6-29-8.9-6.5-8.9 6.5-39.6 29 5.3-48.8 1.2-10.9-10-4.4-44.9-19.8 44.9-19.8 10-4.4-1.2-10.9zm-18.6-32.2 9 82.6-76 33.5 76 33.5-9 82.6 67-49.1 67 49.1-9-82.6 76-33.5-76-33.5 9-82.6-67 49.1z" fill="url(#u)"/><path d="m1406.9 868.8 39 17.2-39 17.2 4.6 42.4-34.4-25.2-34.4 25.2 4.6-42.4-39.1-17.2 39.1-17.2-4.6-42.4 34.4 25.2 34.4-25.2z" fill="url(#v)"/><path d="m1361.3 858.6 7 5.1 8.9 6.5 8.9-6.5 7-5.1-.9 8.6-1.2 10.9 10 4.4 7.9 3.5-7.9 3.5-10 4.4 1.2 10.9.9 8.6-7-5.1-8.9-6.5-8.9 6.5-7 5.1.9-8.6 1.2-10.9-10-4.4-7.9-3.5 7.9-3.5 10-4.4-1.2-10.9zm-18.6-32.2 4.6 42.4-39 17.2 39 17.2-4.6 42.4 34.4-25.2 34.4 25.2-4.6-42.4 39-17.2-39-17.2 4.6-42.4-34.4 25.2z" fill="url(#w)"/><circle cx="1487.8" cy="822.1" fill="#00f" r="7.6"/><circle cx="1487.8" cy="949.9" fill="#00f" r="7.6"/><circle cx="1377.1" cy="1013.9" fill="#00f" r="7.6"/><circle cx="1266.4" cy="949.9" fill="#00f" r="7.6"/><circle cx="1266.4" cy="822.1" fill="#00f" r="7.6"/><circle cx="1377.1" cy="758.2" fill="#00f" r="7.6"/><path d="m698.5 927.7c11.1-41.5 5.4-84.9-16.1-122.1s-56.2-63.8-97.7-75c-41.5-11.1-84.9-5.4-122.1 16.1s-63.8 56.2-75 97.7c-11.1 41.5-5.4 84.9 16.1 122.1s56.2 63.8 97.7 75c41.5 11.1 84.9 5.4 122.1-16.1 37.3-21.5 63.9-56.2 75-97.7z" fill="url(#x)"/><path d="m542.8 735.1c13.2 0 26.4 1.8 39.3 5.2 38.9 10.4 71.5 35.4 91.6 70.3 20.2 34.9 25.5 75.6 15.1 114.5s-35.4 71.5-70.3 91.6c-23 13.3-49 20.3-75.2 20.3-13.2 0-26.4-1.8-39.3-5.2-38.9-10.4-71.5-35.4-91.6-70.3-20.2-34.9-25.5-75.6-15.1-114.5s35.4-71.5 70.3-91.6c23-13.3 49-20.3 75.2-20.3m0-10c-27.9 0-55.4 7.3-80.2 21.6-37.2 21.5-63.8 56.2-75 97.7-11.1 41.5-5.4 84.9 16.1 122.1s56.2 63.8 97.7 75c13.9 3.7 27.9 5.6 41.9 5.6 27.9 0 55.4-7.3 80.2-21.6 37.2-21.5 63.8-56.2 75-97.7 11.1-41.5 5.4-84.9-16.1-122.1s-56.2-63.8-97.7-75c-13.8-3.8-27.9-5.6-41.9-5.6z" fill="url(#y)"/><path d="m601.1 852.5 76.1 33.5-76.1 33.6 9 82.6-67-49.1-67.1 49.1 9-82.6-76-33.6 76-33.5-9-82.6 67.1 49.1 67-49.1z" fill="url(#z)"/><path d="m494.6 802.1 39.6 29 8.9 6.5 8.9-6.5 39.6-29-5.3 48.8-1.2 10.9 10 4.4 44.9 19.8-44.9 19.8-10 4.4 1.2 10.9 5.3 48.8-39.6-29-8.9-6.5-8.9 6.5-39.6 29 5.3-48.8 1.2-10.9-10-4.4-44.9-19.8 44.9-19.8 10-4.4-1.2-10.9zm-18.6-32.2 9 82.6-76 33.5 76 33.5-9 82.6 67-49.1 67 49.1-9-82.6 76-33.5-76-33.5 9-82.6-67 49.1z" fill="url(#A)"/><path d="m572.9 868.8 39 17.2-39 17.2 4.6 42.4-34.4-25.2-34.4 25.2 4.6-42.4-39.1-17.2 39.1-17.2-4.6-42.4 34.4 25.2 34.4-25.2z" fill="url(#B)"/><path d="m527.3 858.6 7 5.1 8.9 6.5 8.9-6.5 7-5.1-.9 8.6-1.2 10.9 10 4.4 7.9 3.5-7.9 3.5-10 4.4 1.2 10.9.9 8.6-7-5.1-8.9-6.5-8.9 6.5-7 5.1.9-8.6 1.2-10.9-10-4.4-7.9-3.5 7.9-3.5 10-4.4-1.2-10.9zm-18.6-32.2 4.6 42.4-39 17.2 39 17.2-4.6 42.4 34.4-25.2 34.4 25.2-4.6-42.4 39-17.2-39-17.2 4.6-42.4-34.4 25.2z" fill="url(#C)"/><circle cx="653.8" cy="822.1" fill="#00f" r="7.6"/><circle cx="653.8" cy="949.9" fill="#00f" r="7.6"/><circle cx="543.1" cy="1013.9" fill="#00f" r="7.6"/><circle cx="432.4" cy="949.9" fill="#00f" r="7.6"/><circle cx="432.4" cy="822.1" fill="#00f" r="7.6"/><circle cx="543.1" cy="758.2" fill="#00f" r="7.6"/><path d="m1905 15v310h-522.5c-4.5-18-9.9-35.7-16-53-21.7-61-52.9-116-92.6-163.3-31.7-37.7-67.7-69.1-107.2-93.7h738.3m15-15h-814.5c7.3 3.1 14.6 6.5 21.8 10.1 50.7 25.5 96.1 61.9 135.1 108.2 38.6 45.9 68.9 99.3 90 158.6 7.3 20.6 13.4 41.6 18.3 63h549.3z" fill="url(#E)"/><path d="m753.4 15c-39.5 24.6-75.5 56-107.2 93.7-39.8 47.3-70.9 102.2-92.6 163.3-6.1 17.3-11.5 35.1-16 53h-522.6v-310zm61.1-15h-814.5v340h549.4c4.9-21.4 11-42.4 18.3-63 21.1-59.4 51.4-112.7 90-158.6 38.9-46.3 84.3-82.8 135-108.3 7.2-3.6 14.5-7 21.8-10.1z" fill="url(#F)"/><path d="m1905 385v310h-416.8c-26.9-15.7-57.1-25.5-88.1-28.8v-196.2c0-28.6-2-57.1-5.9-85zm15-15h-543.4c5.6 32.7 8.5 66.1 8.5 100v210.2c35.2 1.4 69.1 11.6 99 29.8h435.9z" fill="url(#G)"/><path d="m960 15c51 0 100.4 11.9 147 35.3 45.2 22.8 85.9 55.4 120.8 97 35.1 41.8 62.7 90.5 82 144.8 20 56.3 30.2 116.2 30.2 177.9v198.1c-26.3 4.4-51.2 13.4-74.3 26.9h-116.5c-20.3-23.5-45.2-43.5-72.4-58-35.8-19-76.2-29-116.9-29s-81.1 10-116.9 29c-27.2 14.5-52.1 34.4-72.4 58h-116.4c-23.1-13.5-48-22.5-74.3-26.9v-198.1c0-61.7 10.2-121.6 30.2-177.9 19.3-54.3 46.9-103 82-144.8 35-41.6 75.6-74.2 120.8-97 46.7-23.4 96.1-35.3 147.1-35.3m0-15c-218.2 0-395.1 210.4-395.1 470v211.2c30.2 3.2 59.2 13 85.2 28.8h127.6c19.9-24.5 44.7-45 72.4-59.7 33.7-17.9 71.6-27.3 109.9-27.3s76.2 9.4 109.8 27.3c27.8 14.8 52.6 35.2 72.4 59.7h127.6c26-15.9 55-25.6 85.2-28.8v-211.2c.1-259.6-176.8-470-395-470z" fill="url(#I)"/><path d="m960 668c30.9 0 61.6 7.6 88.7 22 26.3 14 49.2 34.2 66.4 58.6l4.5 6.4h7.8 151.3 4.6l3.8-2.6c26.6-17.9 57.7-27.4 89.9-27.4s63.3 9.5 89.9 27.4l3.8 2.6h4.6 429.7v310h-1890v-310h429.7 4.6l3.8-2.6c26.6-17.9 57.7-27.4 89.9-27.4s63.3 9.5 89.9 27.4l3.8 2.6h4.6 151.3 7.8l4.5-6.4c17.1-24.4 40.1-44.6 66.4-58.6 27.1-14.4 57.8-22 88.7-22m0-15c-69.2 0-130.4 34.4-167.4 87h-151.3c-28.1-18.9-61.9-30-98.3-30s-70.2 11.1-98.3 30h-444.7v340h1920v-340h-444.7c-28.1-18.9-61.9-30-98.3-30s-70.2 11.1-98.3 30h-151.3c-37-52.6-98.2-87-167.4-87z" fill="url(#J)"/><path d="m525.8 385c-3.9 27.9-5.9 56.4-5.9 85v196.2c-31.1 3.3-61.2 13.1-88.1 28.8h-416.8v-310zm17.6-15h-543.4v340h435.9c29.9-18.3 63.8-28.5 99-29.8v-210.2c0-33.9 2.8-67.3 8.5-100z" fill="url(#H)"/><text transform="translate(827.1609 479.9043)"><tspan fill="#fff" font-family="'FrizQuadrataStd-Bold'" font-size="54" x="0" y="0">2021-2022</tspan><tspan fill="#fff" font-family="'FrizQuadrataStd-Bold'" font-size="54" x="-225.7" y="56.4">CHOCTAW INDIAN PRINCESS</tspan><tspan fill="#fff" font-family="'FrizQuadrataStd-Bold'" font-size="54" x="-207.4" y="112.8">SHEMAH LADANIA CROSBY</tspan></text></svg>