<?xml version="1.0" encoding="utf-8"?>
<!-- Generator: Adobe Illustrator 26.0.1, SVG Export Plug-In . SVG Version: 6.00 Build 0)  -->
<svg version="1.1" id="Layer_1" xmlns="http://www.w3.org/2000/svg" xmlns:xlink="http://www.w3.org/1999/xlink" x="0px" y="0px"
	 viewBox="0 0 1920 1080" style="enable-background:new 0 0 1920 1080;" xml:space="preserve">
<style type="text/css">
	.st0{clip-path:url(#SVGID_00000022552146641521593270000011752810351433998269_);fill:#1A1C1E;}
	
		.st1{clip-path:url(#SVGID_00000113332581914251352450000015014087235713827257_);fill:url(#SVGID_00000054228996691073282640000015123813835980089769_);}
	.st2{fill:url(#SVGID_00000017518778379899000410000010714849091034629296_);}
	.st3{fill:url(#SVGID_00000064349804471339472510000011965079168571659694_);}
	.st4{display:none;}
	.st5{display:inline;fill:url(#SVGID_00000174601775530579883360000010031271905021396915_);}
	.st6{display:inline;fill:url(#SVGID_00000164479539026041852000000012982220745181402554_);}
	.st7{display:inline;fill:url(#SVGID_00000142886244763807646080000015272977538987315074_);}
	.st8{fill:url(#SVGID_00000067226368963920693070000007298617459082240649_);}
	.st9{fill:url(#SVGID_00000160880558403733673970000003803979114819545772_);}
	.st10{fill:url(#SVGID_00000063628744155434253100000009806387355899040692_);}
	.st11{fill:url(#SVGID_00000048484262108595945920000005280916642577911694_);}
	.st12{display:inline;}
	.st13{font-family:'FrizQuadrataStd-Bold';}
	.st14{font-size:54px;}
	.st15{display:inline;fill:#999999;}
	.st16{fill:#FFFFFF;}
	.st17{display:none;fill:#D90AFF;}
	.st18{display:none;fill:#FF00FF;}
	.st19{fill:#F15A24;}
</style>
<g>
	<g>
		<defs>
			<path id="SVGID_1_" d="M1127.3,10.1c50.7,25.5,96.1,61.9,135.1,108.2c38.6,45.9,68.9,99.3,90,158.6c7.3,20.6,13.4,41.6,18.3,63
				H1920V0h-814.5C1112.8,3.1,1120.1,6.5,1127.3,10.1z"/>
		</defs>
		<clipPath id="SVGID_00000035511561386419492970000015453021813337838981_">
			<use xlink:href="#SVGID_1_"  style="overflow:visible;"/>
		</clipPath>
		
			<g transform="matrix(1 0 0 1 0 -7.629395e-06)" style="clip-path:url(#SVGID_00000035511561386419492970000015453021813337838981_);">
			
				<image style="overflow:visible;" width="2100" height="1500" xlink:href="../../../../../Creative Cloud Files/Untitled-1.png"  transform="matrix(0.3762 0 0 0.3762 1118 -122.1429)">
			</image>
		</g>
	</g>
	<g>
		<defs>
			<path id="SVGID_00000160911518419687529710000002789154708884559016_" d="M567.7,277c21.1-59.4,51.4-112.7,90-158.6
				C696.6,72.1,742,35.6,792.7,10.1c7.2-3.6,14.5-7,21.8-10.1H0v340h549.4C554.3,318.6,560.4,297.6,567.7,277z"/>
		</defs>
		<clipPath id="SVGID_00000132084570379771756600000004569232786192320431_">
			<use xlink:href="#SVGID_00000160911518419687529710000002789154708884559016_"  style="overflow:visible;"/>
		</clipPath>
		<path style="clip-path:url(#SVGID_00000132084570379771756600000004569232786192320431_);fill:#1A1C1E;" d="M567.7,277
			c21.1-59.4,51.4-112.7,90-158.6C696.6,72.1,742,35.6,792.7,10.1c7.2-3.6,14.5-7,21.8-10.1H0v340h549.4
			C554.3,318.6,560.4,297.6,567.7,277z"/>
		<g style="clip-path:url(#SVGID_00000132084570379771756600000004569232786192320431_);">
			
				<image style="overflow:visible;" width="960" height="640" xlink:href="../../../../../Downloads/214214245_4141323565949201_2880696736542877045_n.jpg"  transform="matrix(0.5953 0 0 0.5953 22 -21)">
			</image>
		</g>
	</g>
	<g>
		<defs>
			<path id="SVGID_00000135686976779179041050000000331678809663390084_" d="M1385.1,680.2c35.2,1.4,69.1,11.6,99,29.8H1920V370
				h-543.4c5.6,32.7,8.5,66.1,8.5,100V680.2z"/>
		</defs>
		<clipPath id="SVGID_00000101062085374417221270000000840822695388067243_">
			<use xlink:href="#SVGID_00000135686976779179041050000000331678809663390084_"  style="overflow:visible;"/>
		</clipPath>
		
			<g transform="matrix(1 0 0 1 1.220703e-04 0)" style="clip-path:url(#SVGID_00000101062085374417221270000000840822695388067243_);">
			
				<image style="overflow:visible;" width="8256" height="5504" xlink:href="../../../../../Creative Cloud Files/71 Edition CIF Contestant photos/Studio pix/Contestant 7 Shemah Ladania Crosby/DSC_8687.JPG"  transform="matrix(7.558139e-02 0 0 7.558139e-02 1323.6899 340)">
			</image>
		</g>
	</g>
	<g>
		<defs>
			<path id="SVGID_00000173865903943827927290000011835222497184611726_" d="M534.9,680.2V470c0-33.9,2.8-67.3,8.5-100H0v340h435.9
				C465.8,691.7,499.7,681.5,534.9,680.2z"/>
		</defs>
		<clipPath id="SVGID_00000126314103950546803540000011416770960776460420_">
			<use xlink:href="#SVGID_00000173865903943827927290000011835222497184611726_"  style="overflow:visible;"/>
		</clipPath>
		<g style="clip-path:url(#SVGID_00000126314103950546803540000011416770960776460420_);">
			
				<image style="overflow:visible;" width="8256" height="5504" xlink:href="../../../../../Creative Cloud Files/71 Edition CIF Contestant photos/Outside Pix/Contestant 7 Shemah Ladania Crosby/DSC_9047.JPG"  transform="matrix(6.334787e-02 0 0 6.334787e-02 10 364.9011)">
			</image>
		</g>
	</g>
	<g>
		<defs>
			<path id="SVGID_00000012469180377737102940000015579810213022810506_" d="M650.1,710h127.6c19.9-24.5,44.7-45,72.4-59.7
				C883.8,632.4,921.7,623,960,623s76.2,9.4,109.8,27.3c27.8,14.8,52.6,35.2,72.4,59.7h127.6c26-15.9,55-25.6,85.2-28.8V470
				c0-259.6-176.9-470-395.1-470S564.9,210.4,564.9,470v211.2C595.1,684.4,624.1,694.1,650.1,710z"/>
		</defs>
		<clipPath id="SVGID_00000116931130160180924510000006887563013770721715_">
			<use xlink:href="#SVGID_00000012469180377737102940000015579810213022810506_"  style="overflow:visible;"/>
		</clipPath>
		<g style="clip-path:url(#SVGID_00000116931130160180924510000006887563013770721715_);">
			
				<image style="overflow:visible;" width="1500" height="2250" xlink:href="../../../../../Desktop/princess.jpg"  transform="matrix(0.5105 0 0 0.5105 577.1215 -72)">
			</image>
		</g>
		
			<linearGradient id="SVGID_00000127732086655980689810000010266347344206872709_" gradientUnits="userSpaceOnUse" x1="1003.5" y1="9.094947e-13" x2="1003.5" y2="710">
			<stop  offset="0.4756" style="stop-color:#9E005D;stop-opacity:0"/>
			<stop  offset="1" style="stop-color:#1B1464"/>
		</linearGradient>
		
			<rect x="500" y="0" style="clip-path:url(#SVGID_00000116931130160180924510000006887563013770721715_);fill:url(#SVGID_00000127732086655980689810000010266347344206872709_);" width="1007" height="710"/>
	</g>
	<path d="M1475.3,740c-28.1-18.9-61.9-30-98.3-30s-70.2,11.1-98.3,30h-151.3c-37-52.6-98.2-87-167.4-87s-130.4,34.4-167.4,87H641.3
		c-28.1-18.9-61.9-30-98.3-30s-70.2,11.1-98.3,30H0v340h1920V740H1475.3z"/>
</g>
<g>
	<g>
		
			<linearGradient id="SVGID_00000001662427627977487780000000079401190912362175_" gradientUnits="userSpaceOnUse" x1="1512.7368" y1="0" x2="1512.7368" y2="340">
			<stop  offset="0" style="stop-color:#F4E5A1"/>
			<stop  offset="1" style="stop-color:#D0A641"/>
		</linearGradient>
		<path style="fill:url(#SVGID_00000001662427627977487780000000079401190912362175_);" d="M1905,15v310h-522.5
			c-4.5-18-9.9-35.7-16-53c-21.7-61-52.9-116-92.6-163.3c-31.7-37.7-67.7-69.1-107.2-93.7H1905 M1920,0h-814.5
			c7.3,3.1,14.6,6.5,21.8,10.1c50.7,25.5,96.1,61.9,135.1,108.2c38.6,45.9,68.9,99.3,90,158.6c7.3,20.6,13.4,41.6,18.3,63H1920V0
			L1920,0z"/>
	</g>
	<g>
		
			<linearGradient id="SVGID_00000097479026609414668060000001941356671176309644_" gradientUnits="userSpaceOnUse" x1="407.2632" y1="-9.094947e-13" x2="407.2632" y2="340">
			<stop  offset="0" style="stop-color:#F4E5A1"/>
			<stop  offset="1" style="stop-color:#D0A641"/>
		</linearGradient>
		<path style="fill:url(#SVGID_00000097479026609414668060000001941356671176309644_);" d="M753.4,15c-39.5,24.6-75.5,56-107.2,93.7
			C606.4,156,575.3,210.9,553.6,272c-6.1,17.3-11.5,35.1-16,53H15V15H753.4 M814.5,0H0v340h549.4c4.9-21.4,11-42.4,18.3-63
			c21.1-59.4,51.4-112.7,90-158.6C696.6,72.1,742,35.6,792.7,10.1C799.9,6.5,807.2,3.1,814.5,0L814.5,0z"/>
	</g>
	<g class="st4">
		
			<linearGradient id="SVGID_00000075848801362302552470000001529375333018709645_" gradientUnits="userSpaceOnUse" x1="1648.3104" y1="370" x2="1648.3104" y2="710">
			<stop  offset="0" style="stop-color:#F4E5A1"/>
			<stop  offset="1" style="stop-color:#D0A641"/>
		</linearGradient>
		<path style="display:inline;fill:url(#SVGID_00000075848801362302552470000001529375333018709645_);" d="M1905,385v310h-504.9V470
			c0-28.6-2-57.1-5.9-85H1905 M1920,370h-543.4c5.6,32.7,8.5,66.1,8.5,100v240H1920V370L1920,370z"/>
	</g>
	<g class="st4">
		
			<linearGradient id="SVGID_00000086670785074203031140000015450152610354791598_" gradientUnits="userSpaceOnUse" x1="271.6895" y1="370" x2="271.6895" y2="710">
			<stop  offset="0" style="stop-color:#F4E5A1"/>
			<stop  offset="1" style="stop-color:#D0A641"/>
		</linearGradient>
		<path style="display:inline;fill:url(#SVGID_00000086670785074203031140000015450152610354791598_);" d="M525.8,385
			c-3.9,27.9-5.9,56.4-5.9,85v225H15V385H525.8 M543.4,370H0v340h534.9V470C534.9,436.1,537.7,402.7,543.4,370L543.4,370z"/>
	</g>
	<g class="st4">
		
			<linearGradient id="SVGID_00000157281821022777200220000017056863993662376096_" gradientUnits="userSpaceOnUse" x1="960" y1="0" x2="960" y2="1080">
			<stop  offset="0" style="stop-color:#F4E5A1"/>
			<stop  offset="1" style="stop-color:#D0A641"/>
		</linearGradient>
		<path style="display:inline;fill:url(#SVGID_00000157281821022777200220000017056863993662376096_);" d="M960,15
			c51,0,100.4,11.9,147,35.3c45.2,22.8,85.9,55.4,120.8,97c35.1,41.8,62.7,90.5,82,144.8c20,56.3,30.2,116.2,30.2,177.9v270v15h15
			H1905v310h-549.9H564.9H15V755h549.9h15v-15V470c0-61.7,10.2-121.6,30.2-177.9c19.3-54.3,46.9-103,82-144.8
			c35-41.6,75.6-74.2,120.8-97C859.6,26.9,909,15,960,15 M960,0C741.8,0,564.9,210.4,564.9,470v270H0v340h564.9h790.2H1920V740
			h-564.9V470C1355.1,210.4,1178.2,0,960,0L960,0z"/>
	</g>
	<g>
		
			<linearGradient id="SVGID_00000080193606427616762270000007017125228945330077_" gradientUnits="userSpaceOnUse" x1="1648.3104" y1="370" x2="1648.3104" y2="710">
			<stop  offset="0" style="stop-color:#F4E5A1"/>
			<stop  offset="1" style="stop-color:#D0A641"/>
		</linearGradient>
		<path style="fill:url(#SVGID_00000080193606427616762270000007017125228945330077_);" d="M1905,385v310h-416.8
			c-26.9-15.7-57.1-25.5-88.1-28.8V470c0-28.6-2-57.1-5.9-85H1905 M1920,370h-543.4c5.6,32.7,8.5,66.1,8.5,100v210.2
			c35.2,1.4,69.1,11.6,99,29.8H1920V370L1920,370z"/>
	</g>
	<g>
		
			<linearGradient id="SVGID_00000119838644534610191350000009736406253163567502_" gradientUnits="userSpaceOnUse" x1="960" y1="0" x2="960" y2="710">
			<stop  offset="0" style="stop-color:#F4E5A1"/>
			<stop  offset="1" style="stop-color:#D0A641"/>
		</linearGradient>
		<path style="fill:url(#SVGID_00000119838644534610191350000009736406253163567502_);" d="M960,15c51,0,100.4,11.9,147,35.3
			c45.2,22.8,85.9,55.4,120.8,97c35.1,41.8,62.7,90.5,82,144.8c20,56.3,30.2,116.2,30.2,177.9v198.1c-26.3,4.4-51.2,13.4-74.3,26.9
			h-116.5c-20.3-23.5-45.2-43.5-72.4-58c-35.8-19-76.2-29-116.9-29s-81.1,10-116.9,29c-27.2,14.5-52.1,34.4-72.4,58H654.2
			c-23.1-13.5-48-22.5-74.3-26.9V470c0-61.7,10.2-121.6,30.2-177.9c19.3-54.3,46.9-103,82-144.8c35-41.6,75.6-74.2,120.8-97
			C859.6,26.9,909,15,960,15 M960,0C741.8,0,564.9,210.4,564.9,470v211.2c30.2,3.2,59.2,13,85.2,28.8h127.6
			c19.9-24.5,44.7-45,72.4-59.7C883.8,632.4,921.7,623,960,623s76.2,9.4,109.8,27.3c27.8,14.8,52.6,35.2,72.4,59.7h127.6
			c26-15.9,55-25.6,85.2-28.8V470C1355.1,210.4,1178.2,0,960,0L960,0z"/>
	</g>
	<g>
		
			<linearGradient id="SVGID_00000171713774975831315720000005170601880963455881_" gradientUnits="userSpaceOnUse" x1="960" y1="653" x2="960" y2="1080">
			<stop  offset="0" style="stop-color:#F4E5A1"/>
			<stop  offset="1" style="stop-color:#D0A641"/>
		</linearGradient>
		<path style="fill:url(#SVGID_00000171713774975831315720000005170601880963455881_);" d="M960,668c30.9,0,61.6,7.6,88.7,22
			c26.3,14,49.2,34.2,66.4,58.6l4.5,6.4h7.8h151.3h4.6l3.8-2.6c26.6-17.9,57.7-27.4,89.9-27.4s63.3,9.5,89.9,27.4l3.8,2.6h4.6H1905
			v310H15V755h429.7h4.6l3.8-2.6c26.6-17.9,57.7-27.4,89.9-27.4s63.3,9.5,89.9,27.4l3.8,2.6h4.6h151.3h7.8l4.5-6.4
			C822,724.2,845,704,871.3,690C898.4,675.6,929.1,668,960,668 M960,653c-69.2,0-130.4,34.4-167.4,87H641.3
			c-28.1-18.9-61.9-30-98.3-30s-70.2,11.1-98.3,30H0v340h1920V740h-444.7c-28.1-18.9-61.9-30-98.3-30s-70.2,11.1-98.3,30h-151.3
			C1090.4,687.4,1029.2,653,960,653L960,653z"/>
	</g>
	<g>
		
			<linearGradient id="SVGID_00000087410569496589710980000005553695169508852645_" gradientUnits="userSpaceOnUse" x1="271.6895" y1="370" x2="271.6895" y2="710">
			<stop  offset="0" style="stop-color:#F4E5A1"/>
			<stop  offset="1" style="stop-color:#D0A641"/>
		</linearGradient>
		<path style="fill:url(#SVGID_00000087410569496589710980000005553695169508852645_);" d="M525.8,385c-3.9,27.9-5.9,56.4-5.9,85
			v196.2c-31.1,3.3-61.2,13.1-88.1,28.8H15V385H525.8 M543.4,370H0v340h435.9c29.9-18.3,63.8-28.5,99-29.8V470
			C534.9,436.1,537.7,402.7,543.4,370L543.4,370z"/>
	</g>
</g>
<g>
	<text transform="matrix(1 0 0 1 827.1609 482.9043)" class="st4"><tspan x="0" y="0" class="st12 st13 st14">2021-2022</tspan><tspan x="-225.7" y="56.4" class="st12 st13 st14">CHOCTAW INDIAN PRINCESS</tspan><tspan x="-207.4" y="112.8" class="st12 st13 st14">SHEMAH LADANIA CROSBY</tspan></text>
	<text transform="matrix(1 0 0 1 826.1609 478.9043)" class="st4"><tspan x="0" y="0" class="st15 st13 st14">2021-2022</tspan><tspan x="-225.7" y="56.4" class="st15 st13 st14">CHOCTAW INDIAN PRINCESS</tspan><tspan x="-207.4" y="112.8" class="st15 st13 st14">SHEMAH LADANIA CROSBY</tspan></text>
	<text transform="matrix(1 0 0 1 827.1609 479.9043)"><tspan x="0" y="0" class="st16 st13 st14">2021-2022</tspan><tspan x="-225.7" y="56.4" class="st16 st13 st14">CHOCTAW INDIAN PRINCESS</tspan><tspan x="-207.4" y="112.8" class="st16 st13 st14">SHEMAH LADANIA CROSBY</tspan></text>
</g>
<path class="st17" d="M1920,710h-435.9c-32.2-19.7-69.1-30-107.1-30s-74.9,10.3-107.1,30h-127.6c-19.9-24.5-44.7-45-72.4-59.7
	C1036.2,632.4,998.3,623,960,623s-76.2,9.4-109.8,27.3c-27.8,14.8-52.6,35.2-72.4,59.7H650.1c-32.2-19.7-69.1-30-107.1-30
	s-74.9,10.3-107.1,30H0h-30v30v340v30H0h1920h30v-30V740v-30H1920z"/>
<g>
	<rect y="740" class="st18" width="1920" height="340"/>
	<path class="st19" d="M1094,723.5c-35.8-35.8-83.4-55.5-134-55.5s-98.2,19.7-134,55.5c-35.8,35.8-55.5,83.4-55.5,134
		s19.7,98.2,55.5,134c35.8,35.8,83.4,55.5,134,55.5s98.2-19.7,134-55.5c35.8-35.8,55.5-83.4,55.5-134S1129.8,759.3,1094,723.5z"/>
	<path class="st19" d="M1490.8,772.2C1460.4,741.7,1420,725,1377,725s-83.4,16.7-113.8,47.2C1232.7,802.6,1216,843,1216,886
		s16.7,83.4,47.2,113.8c30.4,30.4,70.8,47.2,113.8,47.2s83.4-16.7,113.8-47.2c30.4-30.4,47.2-70.8,47.2-113.8
		S1521.3,802.6,1490.8,772.2z"/>
	<path class="st19" d="M656.8,772.2C626.4,741.7,586,725,543,725s-83.4,16.7-113.8,47.2C398.7,802.6,382,843,382,886
		s16.7,83.4,47.2,113.8c30.4,30.4,70.8,47.2,113.8,47.2s83.4-16.7,113.8-47.2C687.3,969.4,704,929,704,886S687.3,802.6,656.8,772.2z
		"/>
</g>
</svg>
