<svg xmlns="http://www.w3.org/2000/svg" xmlns:xlink="http://www.w3.org/1999/xlink" id="Layer_1" x="0" y="0" version="1.1" viewBox="0 0 1920 1080" xml:space="preserve" style="enable-background:new 0 0 1920 1080"><style type="text/css">.st10,.st7{display:none}.st10{fill:#f15a24}.st11{display:inline}.st18{fill:#00f}.st31{fill:#fff}.st56{font-family:&apos;FrizQuadrataStd-Bold&apos;}.st57{font-size:54px}.st58{fill:#999}.st59{display:none;fill:#d90aff}</style><g><g><g><g><g><g><g><g><g><g><g><defs><path id="SVGID_1_" d="M1127.3,10.1c50.7,25.5,96.1,61.9,135.1,108.2c38.6,45.9,68.9,99.3,90,158.6 c7.3,20.6,13.4,41.6,18.3,63H1920V0h-814.5C1112.8,3.1,1120.1,6.5,1127.3,10.1z"/></defs><clipPath id="SVGID_00000176001899739441245060000005326013978717255341_"><use xlink:href="#SVGID_1_" style="overflow:visible"/></clipPath><g transform="matrix(1 0 0 1 0 -7.629395e-06)" style="clip-path:url(#SVGID_00000176001899739441245060000005326013978717255341_)"><image style="overflow:visible;enable-background:new" width="2100" height="1500" transform="matrix(0.3762 0 0 0.3762 1118 -122.1429)" xlink:href="../../../../../Creative Cloud Files/Untitled-1.png"/></g></g></g></g></g></g></g></g></g></g></g><g><g><g><g><g><g><g><g><g><g><defs><path id="SVGID_00000028301730221600447220000001784765738696138399_" d="M567.7,277c21.1-59.4,51.4-112.7,90-158.6 c38.9-46.3,84.3-82.8,135-108.3c7.2-3.6,14.5-7,21.8-10.1H0v340h549.4C554.3,318.6,560.4,297.6,567.7,277z"/></defs><clipPath id="SVGID_00000122699343443193498050000004484767974660838280_"><use xlink:href="#SVGID_00000028301730221600447220000001784765738696138399_" style="overflow:visible"/></clipPath><path style="clip-path:url(#SVGID_00000122699343443193498050000004484767974660838280_);fill:#1a1c1e" d="M567.7,277 c21.1-59.4,51.4-112.7,90-158.6c38.9-46.3,84.3-82.8,135-108.3c7.2-3.6,14.5-7,21.8-10.1H0v340h549.4 C554.3,318.6,560.4,297.6,567.7,277z"/></g></g></g></g></g></g></g></g></g><g><defs><path id="SVGID_00000128442697980020039410000003935452326057135524_" d="M567.7,277c21.1-59.4,51.4-112.7,90-158.6 c38.9-46.3,84.3-82.8,135-108.3c7.2-3.6,14.5-7,21.8-10.1H0v340h549.4C554.3,318.6,560.4,297.6,567.7,277z"/></defs><clipPath id="SVGID_00000116914803240147222800000000780124168155431588_"><use xlink:href="#SVGID_00000128442697980020039410000003935452326057135524_" style="overflow:visible"/></clipPath><g style="clip-path:url(#SVGID_00000116914803240147222800000000780124168155431588_)"><image style="overflow:visible;enable-background:new" width="960" height="640" transform="matrix(0.5953 0 0 0.5953 22 -21)" xlink:href="../../../../../Downloads/214214245_4141323565949201_2880696736542877045_n.jpg"/></g></g></g><g><g><defs><path id="SVGID_00000080884716563130647180000014312708925322591923_" d="M1385.1,680.2c35.2,1.4,69.1,11.6,99,29.8H1920V370 h-543.4c5.6,32.7,8.5,66.1,8.5,100V680.2z"/></defs><clipPath id="SVGID_00000029025483453504035020000011526267538407985558_"><use xlink:href="#SVGID_00000080884716563130647180000014312708925322591923_" style="overflow:visible"/></clipPath><g transform="matrix(1 0 0 1 1.220703e-04 0)" style="clip-path:url(#SVGID_00000029025483453504035020000011526267538407985558_)"><image style="overflow:visible;enable-background:new" width="8256" height="5504" transform="matrix(7.558139e-02 0 0 7.558139e-02 1323.6899 340)" xlink:href="../../../../../Creative Cloud Files/71 Edition CIF Contestant photos/Studio pix/Contestant 7 Shemah Ladania Crosby/DSC_8687.JPG"/></g></g></g><g><g><g><g><g><g><g><g><g><g><defs><path id="SVGID_00000109005409978819115840000002396883831487038602_" d="M534.9,680.2V470c0-33.9,2.8-67.3,8.5-100H0 v340h435.9C465.8,691.7,499.7,681.5,534.9,680.2z"/></defs><clipPath id="SVGID_00000094593475585957587130000016845319087086173852_"><use xlink:href="#SVGID_00000109005409978819115840000002396883831487038602_" style="overflow:visible"/></clipPath><g style="clip-path:url(#SVGID_00000094593475585957587130000016845319087086173852_)"><image style="overflow:visible;enable-background:new" width="8256" height="5504" transform="matrix(6.334787e-02 0 0 6.334787e-02 10 364.9011)" xlink:href="../../../../../Creative Cloud Files/71 Edition CIF Contestant photos/Outside Pix/Contestant 7 Shemah Ladania Crosby/DSC_9047.JPG"/></g></g></g></g></g></g></g></g></g></g></g><g><g><g><g><g><g><g><g><g><g><defs><path id="SVGID_00000105420120658246082510000008540626474238876847_" d="M650.1,710h127.6c19.9-24.5,44.7-45,72.4-59.7 C883.8,632.4,921.7,623,960,623s76.2,9.4,109.8,27.3c27.8,14.8,52.6,35.2,72.4,59.7h127.6c26-15.9,55-25.6,85.2-28.8 V470c0-259.6-176.9-470-395.1-470s-395,210.4-395,470v211.2C595.1,684.4,624.1,694.1,650.1,710z"/></defs><clipPath id="SVGID_00000075150891131163981120000011003614778534463375_"><use xlink:href="#SVGID_00000105420120658246082510000008540626474238876847_" style="overflow:visible"/></clipPath><g style="clip-path:url(#SVGID_00000075150891131163981120000011003614778534463375_)"><image style="overflow:visible;enable-background:new" width="1500" height="2250" transform="matrix(0.5105 0 0 0.5105 577.1215 -72)" xlink:href="../../../../../Desktop/princess.jpg"/></g></g></g></g></g></g></g></g></g></g><g><defs><path id="SVGID_00000084527588974217104490000006039603280322853016_" d="M650.1,710h127.6c19.9-24.5,44.7-45,72.4-59.7 C883.8,632.4,921.7,623,960,623s76.2,9.4,109.8,27.3c27.8,14.8,52.6,35.2,72.4,59.7h127.6c26-15.9,55-25.6,85.2-28.8V470 c0-259.6-176.9-470-395.1-470s-395,210.4-395,470v211.2C595.1,684.4,624.1,694.1,650.1,710z"/></defs><clipPath id="SVGID_00000014626295868231595090000015284925849368079009_"><use xlink:href="#SVGID_00000084527588974217104490000006039603280322853016_" style="overflow:visible"/></clipPath><linearGradient id="SVGID_00000116212382344773257910000010306149691678921896_" x1="1003.5" x2="1003.5" y1="2060" y2="1350" gradientTransform="matrix(1 0 0 -1 0 2060)" gradientUnits="userSpaceOnUse"><stop offset=".476" style="stop-color:#9e005d;stop-opacity:0"/><stop offset="1" style="stop-color:#1b1464"/></linearGradient><rect style="clip-path:url(#SVGID_00000014626295868231595090000015284925849368079009_);fill:url(#SVGID_00000116212382344773257910000010306149691678921896_)" width="1007" height="710" x="500"/></g></g><path d="M1475.3,740c-28.1-18.9-61.9-30-98.3-30s-70.2,11.1-98.3,30h-151.3c-37-52.6-98.2-87-167.4-87 s-130.4,34.4-167.4,87H641.3c-28.1-18.9-61.9-30-98.3-30s-70.2,11.1-98.3,30H0v340h1920V740H1475.3z" class="st7"/><g><linearGradient id="SVGID_00000034084754108908668540000004190486692581202071_" x1="960" x2="960" y1="1320" y2="980" gradientTransform="matrix(1 0 0 -1 0 2060)" gradientUnits="userSpaceOnUse"><stop offset=".439" style="stop-color:#fff"/><stop offset=".51" style="stop-color:#b3b3b3"/><stop offset=".68" style="stop-color:#fff"/><stop offset=".784" style="stop-color:#ccc"/><stop offset="1" style="stop-color:#fff"/></linearGradient><rect style="fill:url(#SVGID_00000034084754108908668540000004190486692581202071_)" width="1920" height="340" y="740"/><linearGradient id="SVGID_00000111888765479853571660000010791143853808896411_" x1="960" x2="960" y1="1320" y2="980" gradientTransform="matrix(1 0 0 -1 0 2060)" gradientUnits="userSpaceOnUse"><stop offset="0" style="stop-color:#fcf"/><stop offset=".25" style="stop-color:#ffd"/><stop offset=".5" style="stop-color:#969"/><stop offset=".75" style="stop-color:#ffd"/><stop offset="1" style="stop-color:#fcf"/></linearGradient><rect style="opacity:.5;fill:url(#SVGID_00000111888765479853571660000010791143853808896411_);enable-background:new" width="1920" height="340" y="740"/><path d="M1094,723.5c-35.8-35.8-83.4-55.5-134-55.5s-98.2,19.7-134,55.5s-55.5,83.4-55.5,134s19.7,98.2,55.5,134 c35.8,35.8,83.4,55.5,134,55.5s98.2-19.7,134-55.5c35.8-35.8,55.5-83.4,55.5-134S1129.8,759.3,1094,723.5z" class="st10"/><path d="M1490.8,772.2C1460.4,741.7,1420,725,1377,725s-83.4,16.7-113.8,47.2C1232.7,802.6,1216,843,1216,886 s16.7,83.4,47.2,113.8c30.4,30.4,70.8,47.2,113.8,47.2s83.4-16.7,113.8-47.2c30.4-30.4,47.2-70.8,47.2-113.8 S1521.3,802.6,1490.8,772.2z" class="st10"/><path d="M656.8,772.2C626.4,741.7,586,725,543,725s-83.4,16.7-113.8,47.2C398.7,802.6,382,843,382,886 s16.7,83.4,47.2,113.8c30.4,30.4,70.8,47.2,113.8,47.2s83.4-16.7,113.8-47.2C687.3,969.4,704,929,704,886S687.3,802.6,656.8,772.2 z" class="st10"/><g class="st7"><g class="st11"><linearGradient id="SVGID_00000078030718635382447350000012494276240526706350_" x1="960.05" x2="960.05" y1="1391.945" y2="1012.755" gradientTransform="matrix(1 0 0 -1 0 2060)" gradientUnits="userSpaceOnUse"><stop offset="0" style="stop-color:#9e9e9e"/><stop offset="1" style="stop-color:#fff"/></linearGradient><path style="fill:url(#SVGID_00000078030718635382447350000012494276240526706350_)" d="M1143.1,906.7 c13.1-48.9,6.4-100-18.9-143.8s-66.2-75.2-115.1-88.3s-100-6.4-143.8,18.9c-43.8,25.3-75.2,66.2-88.3,115.1 c-13.1,48.9-6.4,100,18.9,143.8c25.3,43.8,66.2,75.2,115.1,88.3c48.9,13.1,100,6.4,143.8-18.9 C1098.7,996.4,1130,955.6,1143.1,906.7z"/><linearGradient id="SVGID_00000136400834740366073580000007431395883427338373_" x1="826.06" x2="1094.24" y1="1068.21" y2="1336.39" gradientTransform="matrix(1 0 0 -1 0 2060)" gradientUnits="userSpaceOnUse"><stop offset="0" style="stop-color:#00f"/><stop offset=".5" style="stop-color:#1b1464"/><stop offset="1" style="stop-color:#00f"/></linearGradient><path style="fill:url(#SVGID_00000136400834740366073580000007431395883427338373_)" d="M959.8,678.1c15.7,0,31.4,2.1,46.8,6.2 c46.3,12.4,85,42.1,109,83.6s30.3,89.9,17.9,136.2s-42.1,85-83.6,109c-27.3,15.8-58.3,24.1-89.4,24.1c-15.7,0-31.4-2.1-46.8-6.2 c-46.3-12.4-85-42.1-109-83.6s-30.3-89.9-17.9-136.2c12.4-46.3,42.1-85,83.6-109C897.7,686.4,928.6,678.1,959.8,678.1 M959.8,668.1c-32.8,0-65.2,8.6-94.4,25.5c-43.8,25.3-75.2,66.2-88.3,115.1c-13.1,48.9-6.4,100,18.9,143.8 c25.3,43.8,66.2,75.2,115.1,88.3c16.3,4.4,32.9,6.5,49.4,6.5c32.8,0,65.2-8.6,94.4-25.5c43.8-25.3,75.2-66.2,88.3-115.1 c13.1-48.9,6.4-100-18.9-143.8s-66.2-75.2-115.1-88.3C992.8,670.2,976.2,668.1,959.8,668.1L959.8,668.1z"/></g><g class="st11"><linearGradient id="SVGID_00000079481739828271667650000011333549448005259958_" x1="960.1" x2="960.1" y1="1339.1" y2="1065.6" gradientTransform="matrix(1 0 0 -1 0 2060)" gradientUnits="userSpaceOnUse"><stop offset="0" style="stop-color:#fbb03b"/><stop offset="1" style="stop-color:#ff0"/></linearGradient><polygon style="fill:url(#SVGID_00000079481739828271667650000011333549448005259958_)" points="1028.5 818.2 1118 857.6 1028.5 897.1 1039 994.4 960.1 936.6 881.1 994.4 891.7 897.1 802.2 857.6 891.7 818.2 881.1 720.9 960.1 778.7 1039 720.9"/><linearGradient id="SVGID_00000010993967155545940280000002554859713399717018_" x1="960.1" x2="960.1" y1="1065.5" y2="1339.1" gradientTransform="matrix(1 0 0 -1 0 2060)" gradientUnits="userSpaceOnUse"><stop offset="0" style="stop-color:#9e005d"/><stop offset="1" style="stop-color:red"/></linearGradient><path style="fill:url(#SVGID_00000010993967155545940280000002554859713399717018_)" d="M899.7,753.1l51.5,37.7l8.9,6.5 l8.9-6.5l51.5-37.7l-6.9,63.5l-1.2,10.9l10,4.4l58.4,25.8l-58.4,25.8l-10,4.4l1.2,10.9l6.9,63.5L969,924.6l-8.9-6.5l-8.9,6.5 l-51.5,37.7l6.9-63.5l1.2-10.9l-10-4.4l-58.4-25.8l58.4-25.8l10-4.4l-1.2-10.9L899.7,753.1 M881.1,720.9l10.6,97.3l-89.5,39.5 l89.5,39.5l-10.6,97.3l79-57.8l79,57.8l-10.6-97.3l89.5-39.5l-89.5-39.5l10.6-97.3l-79,57.8L881.1,720.9L881.1,720.9z"/></g><g class="st11"><linearGradient id="SVGID_00000170960381348313643890000018094895758527590558_" x1="960.1" x2="960.1" y1="1272.6" y2="1132.1" gradientTransform="matrix(1 0 0 -1 0 2060)" gradientUnits="userSpaceOnUse"><stop offset="0" style="stop-color:#999"/><stop offset="1" style="stop-color:#fff"/></linearGradient><polygon style="fill:url(#SVGID_00000170960381348313643890000018094895758527590558_)" points="995.2 837.4 1041.2 857.6 995.2 877.9 1000.6 927.9 960.1 898.2 919.5 927.9 925 877.9 879 857.6 925 837.4 919.5 787.4 960.1 817.1 1000.6 787.4"/><linearGradient id="SVGID_00000175280513789470223870000017212908953502338222_" x1="960.1" x2="960.1" y1="1132.2" y2="1272.6" gradientTransform="matrix(1 0 0 -1 0 2060)" gradientUnits="userSpaceOnUse"><stop offset="0" style="stop-color:#1b1464"/><stop offset="1" style="stop-color:#00f"/></linearGradient><path style="fill:url(#SVGID_00000175280513789470223870000017212908953502338222_)" d="M982,819.6l-1.8,16.1l-1.2,10.9l10,4.4 l14.8,6.5L989,864l-10,4.4l1.2,10.9l1.8,16.1l-13.1-9.6l-8.9-6.5l-8.9,6.5l-13.1,9.6l1.8-16.1l1.2-10.9l-10-4.4l-14.8-6.5 L931,851l10-4.4l-1.2-10.9l-1.8-16.1l13.1,9.6l8.9,6.5l8.9-6.5L982,819.6 M1000.6,787.4l-40.5,29.7l-40.5-29.7l5.4,49.9 l-46,20.3l46,20.3l-5.4,49.9l40.5-29.7l40.5,29.7l-5.4-49.9l46-20.3l-46-20.3L1000.6,787.4L1000.6,787.4z"/></g><g class="st11"><circle cx="1090.5" cy="782.4" r="9" class="st18"/></g><g class="st11"><circle cx="1090.5" cy="932.9" r="9" class="st18"/></g><g class="st11"><circle cx="960.1" cy="1008.2" r="9" class="st18"/></g><g class="st11"><circle cx="829.7" cy="932.9" r="9" class="st18"/></g><g class="st11"><circle cx="829.7" cy="782.4" r="9" class="st18"/></g><g class="st11"><circle cx="960.1" cy="707.1" r="9" class="st18"/></g></g><g class="st7"><g class="st11"><linearGradient id="SVGID_00000055684346339971013790000015675889677465948827_" x1="1377.05" x2="1377.05" y1="1334.937" y2="1012.963" gradientTransform="matrix(1 0 0 -1 0 2060)" gradientUnits="userSpaceOnUse"><stop offset="0" style="stop-color:#9e9e9e"/><stop offset="1" style="stop-color:#fff"/></linearGradient><path style="fill:url(#SVGID_00000055684346339971013790000015675889677465948827_)" d="M1532.5,927.7 c11.1-41.5,5.4-84.9-16.1-122.1c-21.5-37.2-56.2-63.8-97.7-75c-41.5-11.1-84.9-5.4-122.1,16.1s-63.8,56.2-75,97.7 c-11.1,41.5-5.4,84.9,16.1,122.1c21.5,37.2,56.2,63.8,97.7,75c41.5,11.1,84.9,5.4,122.1-16.1 C1494.8,1003.9,1521.4,969.2,1532.5,927.7z"/><linearGradient id="SVGID_00000046334168052593952500000002350753208187131800_" x1="1263.262" x2="1490.838" y1="1060.112" y2="1287.688" gradientTransform="matrix(1 0 0 -1 0 2060)" gradientUnits="userSpaceOnUse"><stop offset="0" style="stop-color:#00f"/><stop offset=".5" style="stop-color:#1b1464"/><stop offset="1" style="stop-color:#00f"/></linearGradient><path style="fill:url(#SVGID_00000046334168052593952500000002350753208187131800_)" d="M1376.8,735.1 c13.2,0,26.4,1.8,39.3,5.2c38.9,10.4,71.5,35.4,91.6,70.3c20.2,34.9,25.5,75.6,15.1,114.5s-35.4,71.5-70.3,91.6 c-23,13.3-49,20.3-75.2,20.3c-13.2,0-26.4-1.8-39.3-5.2c-38.9-10.4-71.5-35.4-91.6-70.3c-20.2-34.9-25.5-75.6-15.1-114.5 s35.4-71.5,70.3-91.6C1324.6,742.1,1350.6,735.1,1376.8,735.1 M1376.8,725.1c-27.9,0-55.4,7.3-80.2,21.6 c-37.2,21.5-63.8,56.2-75,97.7c-11.1,41.5-5.4,84.9,16.1,122.1c21.5,37.2,56.2,63.8,97.7,75c13.9,3.7,27.9,5.6,41.9,5.6 c27.9,0,55.4-7.3,80.2-21.6c37.2-21.5,63.8-56.2,75-97.7c11.1-41.5,5.4-84.9-16.1-122.1c-21.5-37.2-56.2-63.8-97.7-75 C1404.9,726.9,1390.8,725.1,1376.8,725.1L1376.8,725.1z"/></g><g class="st11"><linearGradient id="SVGID_00000021813849059569383930000000847900386974301094_" x1="1377.1" x2="1377.1" y1="1290.1" y2="1057.8" gradientTransform="matrix(1 0 0 -1 0 2060)" gradientUnits="userSpaceOnUse"><stop offset="0" style="stop-color:#fbb03b"/><stop offset="1" style="stop-color:#ff0"/></linearGradient><polygon style="fill:url(#SVGID_00000021813849059569383930000000847900386974301094_)" points="1435.1 852.5 1511.2 886 1435.1 919.6 1444.1 1002.2 1377.1 953.1 1310 1002.2 1319 919.6 1243 886 1319 852.5 1310 769.9 1377.1 819 1444.1 769.9"/><linearGradient id="SVGID_00000167377373452688963310000000170248239221555842_" x1="1377" x2="1377" y1="1057.9" y2="1290.1" gradientTransform="matrix(1 0 0 -1 0 2060)" gradientUnits="userSpaceOnUse"><stop offset="0" style="stop-color:#9e005d"/><stop offset="1" style="stop-color:red"/></linearGradient><path style="fill:url(#SVGID_00000167377373452688963310000000170248239221555842_)" d="M1328.6,802.1l39.6,29l8.9,6.5l8.9-6.5 l39.6-29l-5.3,48.8l-1.2,10.9l10,4.4L1474,886l-44.9,19.8l-10,4.4l1.2,10.9l5.3,48.8l-39.6-29l-8.9-6.5l-8.9,6.5l-39.6,29 l5.3-48.8l1.2-10.9l-10-4.4l-44.9-19.8l44.9-19.8l10-4.4l-1.2-10.9L1328.6,802.1 M1310,769.9l9,82.6l-76,33.5l76,33.5l-9,82.6 l67-49.1l67,49.1l-9-82.6l76-33.5l-76-33.5l9-82.6l-67,49.1L1310,769.9L1310,769.9z"/></g><g class="st11"><linearGradient id="SVGID_00000039100085826132250220000002713316546085088434_" x1="1377.05" x2="1377.05" y1="1233.6" y2="1114.4" gradientTransform="matrix(1 0 0 -1 0 2060)" gradientUnits="userSpaceOnUse"><stop offset="0" style="stop-color:#999"/><stop offset="1" style="stop-color:#fff"/></linearGradient><polygon style="fill:url(#SVGID_00000039100085826132250220000002713316546085088434_)" points="1406.9 868.8 1445.9 886 1406.9 903.2 1411.5 945.6 1377.1 920.4 1342.7 945.6 1347.3 903.2 1308.2 886 1347.3 868.8 1342.7 826.4 1377.1 851.6 1411.5 826.4"/><linearGradient id="SVGID_00000030484346343144318340000012951235459646966961_" x1="1377.1" x2="1377.1" y1="1114.4" y2="1233.6" gradientTransform="matrix(1 0 0 -1 0 2060)" gradientUnits="userSpaceOnUse"><stop offset="0" style="stop-color:#1b1464"/><stop offset="1" style="stop-color:#00f"/></linearGradient><path style="fill:url(#SVGID_00000030484346343144318340000012951235459646966961_)" d="M1361.3,858.6l7,5.1l8.9,6.5l8.9-6.5 l7-5.1l-0.9,8.6l-1.2,10.9l10,4.4l7.9,3.5l-7.9,3.5l-10,4.4l1.2,10.9l0.9,8.6l-7-5.1l-8.9-6.5l-8.9,6.5l-7,5.1l0.9-8.6l1.2-10.9 l-10-4.4l-7.9-3.5l7.9-3.5l10-4.4l-1.2-10.9L1361.3,858.6 M1342.7,826.4l4.6,42.4l-39,17.2l39,17.2l-4.6,42.4l34.4-25.2 l34.4,25.2l-4.6-42.4l39-17.2l-39-17.2l4.6-42.4l-34.4,25.2L1342.7,826.4L1342.7,826.4z"/></g><g class="st11"><circle cx="1487.8" cy="822.1" r="7.6" class="st18"/></g><g class="st11"><circle cx="1487.8" cy="949.9" r="7.6" class="st18"/></g><g class="st11"><circle cx="1377.1" cy="1013.9" r="7.6" class="st18"/></g><g class="st11"><circle cx="1266.4" cy="949.9" r="7.6" class="st18"/></g><g class="st11"><circle cx="1266.4" cy="822.1" r="7.6" class="st18"/></g><g class="st11"><circle cx="1377.1" cy="758.2" r="7.6" class="st18"/></g></g><g class="st7"><g class="st11"><linearGradient id="SVGID_00000176741393032849315000000006365682408884296602_" x1="429.254" x2="656.88" y1="1060.12" y2="1287.746" gradientTransform="matrix(1 0 0 -1 0 2060)" gradientUnits="userSpaceOnUse"><stop offset="0" style="stop-color:#fa7fff;stop-opacity:0"/><stop offset=".5" style="stop-color:#fa7fff;stop-opacity:.5"/><stop offset="1" style="stop-color:#fa7fff;stop-opacity:0"/></linearGradient><path style="fill:url(#SVGID_00000176741393032849315000000006365682408884296602_)" d="M698.5,927.7 c11.1-41.5,5.4-84.9-16.1-122.1c-21.5-37.2-56.2-63.8-97.7-75c-41.5-11.1-84.9-5.4-122.1,16.1s-63.8,56.2-75,97.7 c-11.1,41.5-5.4,84.9,16.1,122.1c21.5,37.2,56.2,63.8,97.7,75c41.5,11.1,84.9,5.4,122.1-16.1 C660.8,1003.9,687.4,969.2,698.5,927.7z"/><linearGradient id="SVGID_00000080169873929811786250000012815896566281049758_" x1="429.262" x2="656.838" y1="1060.112" y2="1287.688" gradientTransform="matrix(1 0 0 -1 0 2060)" gradientUnits="userSpaceOnUse"><stop offset="0" style="stop-color:#00f"/><stop offset=".5" style="stop-color:#1b1464"/><stop offset="1" style="stop-color:#00f"/></linearGradient><path style="fill:url(#SVGID_00000080169873929811786250000012815896566281049758_)" d="M542.8,735.1c13.2,0,26.4,1.8,39.3,5.2 c38.9,10.4,71.5,35.4,91.6,70.3c20.2,34.9,25.5,75.6,15.1,114.5s-35.4,71.5-70.3,91.6c-23,13.3-49,20.3-75.2,20.3 c-13.2,0-26.4-1.8-39.3-5.2c-38.9-10.4-71.5-35.4-91.6-70.3c-20.2-34.9-25.5-75.6-15.1-114.5s35.4-71.5,70.3-91.6 C490.6,742.1,516.6,735.1,542.8,735.1 M542.8,725.1c-27.9,0-55.4,7.3-80.2,21.6c-37.2,21.5-63.8,56.2-75,97.7 c-11.1,41.5-5.4,84.9,16.1,122.1c21.5,37.2,56.2,63.8,97.7,75c13.9,3.7,27.9,5.6,41.9,5.6c27.9,0,55.4-7.3,80.2-21.6 c37.2-21.5,63.8-56.2,75-97.7c11.1-41.5,5.4-84.9-16.1-122.1c-21.5-37.2-56.2-63.8-97.7-75C570.9,726.9,556.8,725.1,542.8,725.1 L542.8,725.1z"/></g><g class="st11"><linearGradient id="SVGID_00000113320597551057119960000002333172646958113427_" x1="543.1" x2="543.1" y1="1290.1" y2="1057.8" gradientTransform="matrix(1 0 0 -1 0 2060)" gradientUnits="userSpaceOnUse"><stop offset="0" style="stop-color:#fbb03b"/><stop offset="1" style="stop-color:#ff0"/></linearGradient><polygon style="fill:url(#SVGID_00000113320597551057119960000002333172646958113427_)" points="601.1 852.5 677.2 886 601.1 919.6 610.1 1002.2 543.1 953.1 476 1002.2 485 919.6 409 886 485 852.5 476 769.9 543.1 819 610.1 769.9"/><linearGradient id="SVGID_00000166651439784656363020000000954542975552389789_" x1="543" x2="543" y1="1057.9" y2="1290.1" gradientTransform="matrix(1 0 0 -1 0 2060)" gradientUnits="userSpaceOnUse"><stop offset="0" style="stop-color:#9e005d"/><stop offset="1" style="stop-color:red"/></linearGradient><path style="fill:url(#SVGID_00000166651439784656363020000000954542975552389789_)" d="M494.6,802.1l39.6,29l8.9,6.5l8.9-6.5 l39.6-29l-5.3,48.8l-1.2,10.9l10,4.4L640,886l-44.9,19.8l-10,4.4l1.2,10.9l5.3,48.8l-39.6-29l-8.9-6.5l-8.9,6.5l-39.6,29 l5.3-48.8l1.2-10.9l-10-4.4L446.2,886l44.9-19.8l10-4.4l-1.2-10.9L494.6,802.1 M476,769.9l9,82.6L409,886l76,33.5l-9,82.6 l67-49.1l67,49.1l-9-82.6l76-33.5l-76-33.5l9-82.6L543,819L476,769.9L476,769.9z"/></g><g class="st11"><linearGradient id="SVGID_00000029726556873030785030000012711135634079569293_" x1="543.05" x2="543.05" y1="1233.6" y2="1114.4" gradientTransform="matrix(1 0 0 -1 0 2060)" gradientUnits="userSpaceOnUse"><stop offset="0" style="stop-color:#999"/><stop offset="1" style="stop-color:#fff"/></linearGradient><polygon style="fill:url(#SVGID_00000029726556873030785030000012711135634079569293_)" points="572.9 868.8 611.9 886 572.9 903.2 577.5 945.6 543.1 920.4 508.7 945.6 513.3 903.2 474.2 886 513.3 868.8 508.7 826.4 543.1 851.6 577.5 826.4"/><linearGradient id="SVGID_00000147194116189316545290000017869072824367494821_" x1="543.1" x2="543.1" y1="1114.4" y2="1233.6" gradientTransform="matrix(1 0 0 -1 0 2060)" gradientUnits="userSpaceOnUse"><stop offset="0" style="stop-color:#1b1464"/><stop offset="1" style="stop-color:#00f"/></linearGradient><path style="fill:url(#SVGID_00000147194116189316545290000017869072824367494821_)" d="M558.9,858.6l-0.9,8.6l-1.2,10.9 l10,4.4l7.9,3.5l-7.9,3.5l-10,4.4l1.2,10.9l0.9,8.6l-7-5.1l-8.9-6.5l-8.9,6.5l-7,5.1l0.9-8.6l1.2-10.9l-10-4.4l-7.9-3.5l7.9-3.5 l10-4.4l-1.2-10.9l-0.9-8.6l7,5.1l8.9,6.5l8.9-6.5L558.9,858.6 M508.7,826.4l4.6,42.4l-39,17.2l39,17.2l-4.6,42.4l34.4-25.2 l34.4,25.2l-4.6-42.4l39-17.2l-39-17.2l4.6-42.4l-34.4,25.2L508.7,826.4L508.7,826.4z"/></g><g class="st11"><circle cx="653.8" cy="822.1" r="7.6" class="st18"/></g><g class="st11"><circle cx="653.8" cy="949.9" r="7.6" class="st18"/></g><g class="st11"><circle cx="543.1" cy="1013.9" r="7.6" class="st18"/></g><g class="st11"><circle cx="432.4" cy="949.9" r="7.6" class="st18"/></g><g class="st11"><circle cx="432.4" cy="822.1" r="7.6" class="st18"/></g><g class="st11"><circle cx="543.1" cy="758.2" r="7.6" class="st18"/></g></g><g><g><path d="M698.5,927.7c11.1-41.5,5.4-84.9-16.1-122.1c-21.5-37.2-56.2-63.8-97.7-75c-41.5-11.1-84.9-5.4-122.1,16.1 s-63.8,56.2-75,97.7c-11.1,41.5-5.4,84.9,16.1,122.1c21.5,37.2,56.2,63.8,97.7,75c41.5,11.1,84.9,5.4,122.1-16.1 C660.8,1003.9,687.4,969.2,698.5,927.7z" class="st31"/><linearGradient id="SVGID_00000039816014578370606290000015778706005340225982_" x1="429.254" x2="656.88" y1="1060.12" y2="1287.746" gradientTransform="matrix(1 0 0 -1 0 2060)" gradientUnits="userSpaceOnUse"><stop offset="0" style="stop-color:#fff"/><stop offset=".5" style="stop-color:#da9"/><stop offset="1" style="stop-color:#fff"/></linearGradient><path style="opacity:.5;fill:url(#SVGID_00000039816014578370606290000015778706005340225982_);enable-background:new" d="M698.5,927.7c11.1-41.5,5.4-84.9-16.1-122.1c-21.5-37.2-56.2-63.8-97.7-75c-41.5-11.1-84.9-5.4-122.1,16.1s-63.8,56.2-75,97.7 c-11.1,41.5-5.4,84.9,16.1,122.1c21.5,37.2,56.2,63.8,97.7,75c41.5,11.1,84.9,5.4,122.1-16.1 C660.8,1003.9,687.4,969.2,698.5,927.7z"/><linearGradient id="SVGID_00000101793357436457182450000016009077358168323743_" x1="429.262" x2="656.838" y1="1060.112" y2="1287.688" gradientTransform="matrix(1 0 0 -1 0 2060)" gradientUnits="userSpaceOnUse"><stop offset="0" style="stop-color:#00f"/><stop offset=".5" style="stop-color:#1b1464"/><stop offset="1" style="stop-color:#00f"/></linearGradient><path style="fill:url(#SVGID_00000101793357436457182450000016009077358168323743_)" d="M542.8,735.1c13.2,0,26.4,1.8,39.3,5.2 c38.9,10.4,71.5,35.4,91.6,70.3c20.2,34.9,25.5,75.6,15.1,114.5s-35.4,71.5-70.3,91.6c-23,13.3-49,20.3-75.2,20.3 c-13.2,0-26.4-1.8-39.3-5.2c-38.9-10.4-71.5-35.4-91.6-70.3c-20.2-34.9-25.5-75.6-15.1-114.5s35.4-71.5,70.3-91.6 C490.6,742.1,516.6,735.1,542.8,735.1 M542.8,725.1c-27.9,0-55.4,7.3-80.2,21.6c-37.2,21.5-63.8,56.2-75,97.7 c-11.1,41.5-5.4,84.9,16.1,122.1c21.5,37.2,56.2,63.8,97.7,75c13.9,3.7,27.9,5.6,41.9,5.6c27.9,0,55.4-7.3,80.2-21.6 c37.2-21.5,63.8-56.2,75-97.7c11.1-41.5,5.4-84.9-16.1-122.1c-21.5-37.2-56.2-63.8-97.7-75C570.9,726.9,556.8,725.1,542.8,725.1 L542.8,725.1z"/></g><g><linearGradient id="SVGID_00000075862917866183140400000009171503608506937240_" x1="543.1" x2="543.1" y1="1290.1" y2="1057.8" gradientTransform="matrix(1 0 0 -1 0 2060)" gradientUnits="userSpaceOnUse"><stop offset="0" style="stop-color:#fbb03b"/><stop offset="1" style="stop-color:#ff0"/></linearGradient><polygon style="fill:url(#SVGID_00000075862917866183140400000009171503608506937240_)" points="601.1 852.5 677.2 886 601.1 919.6 610.1 1002.2 543.1 953.1 476 1002.2 485 919.6 409 886 485 852.5 476 769.9 543.1 819 610.1 769.9"/><linearGradient id="SVGID_00000121240251191609851020000018180848333246051253_" x1="543" x2="543" y1="1057.9" y2="1290.1" gradientTransform="matrix(1 0 0 -1 0 2060)" gradientUnits="userSpaceOnUse"><stop offset="0" style="stop-color:#9e005d"/><stop offset="1" style="stop-color:red"/></linearGradient><path style="fill:url(#SVGID_00000121240251191609851020000018180848333246051253_)" d="M494.6,802.1l39.6,29l8.9,6.5l8.9-6.5 l39.6-29l-5.3,48.8l-1.2,10.9l10,4.4L640,886l-44.9,19.8l-10,4.4l1.2,10.9l5.3,48.8l-39.6-29l-8.9-6.5l-8.9,6.5l-39.6,29 l5.3-48.8l1.2-10.9l-10-4.4L446.2,886l44.9-19.8l10-4.4l-1.2-10.9L494.6,802.1 M476,769.9l9,82.6L409,886l76,33.5l-9,82.6 l67-49.1l67,49.1l-9-82.6l76-33.5l-76-33.5l9-82.6L543,819L476,769.9L476,769.9z"/></g><g><linearGradient id="SVGID_00000183230583556229497770000005017792134386169247_" x1="543.05" x2="543.05" y1="1233.6" y2="1114.4" gradientTransform="matrix(1 0 0 -1 0 2060)" gradientUnits="userSpaceOnUse"><stop offset="0" style="stop-color:#999"/><stop offset="1" style="stop-color:#fff"/></linearGradient><polygon style="fill:url(#SVGID_00000183230583556229497770000005017792134386169247_)" points="572.9 868.8 611.9 886 572.9 903.2 577.5 945.6 543.1 920.4 508.7 945.6 513.3 903.2 474.2 886 513.3 868.8 508.7 826.4 543.1 851.6 577.5 826.4"/><linearGradient id="SVGID_00000148648701762884885740000002512496419943859873_" x1="543.1" x2="543.1" y1="1114.4" y2="1233.6" gradientTransform="matrix(1 0 0 -1 0 2060)" gradientUnits="userSpaceOnUse"><stop offset="0" style="stop-color:#1b1464"/><stop offset="1" style="stop-color:#00f"/></linearGradient><path style="fill:url(#SVGID_00000148648701762884885740000002512496419943859873_)" d="M558.9,858.6l-0.9,8.6l-1.2,10.9 l10,4.4l7.9,3.5l-7.9,3.5l-10,4.4l1.2,10.9l0.9,8.6l-7-5.1l-8.9-6.5l-8.9,6.5l-7,5.1l0.9-8.6l1.2-10.9l-10-4.4l-7.9-3.5l7.9-3.5 l10-4.4l-1.2-10.9l-0.9-8.6l7,5.1l8.9,6.5l8.9-6.5L558.9,858.6 M508.7,826.4l4.6,42.4l-39,17.2l39,17.2l-4.6,42.4l34.4-25.2 l34.4,25.2l-4.6-42.4l39-17.2l-39-17.2l4.6-42.4l-34.4,25.2L508.7,826.4L508.7,826.4z"/></g><g><circle cx="653.8" cy="822.1" r="7.6" class="st18"/></g><g><circle cx="653.8" cy="949.9" r="7.6" class="st18"/></g><g><circle cx="543.1" cy="1013.9" r="7.6" class="st18"/></g><g><circle cx="432.4" cy="949.9" r="7.6" class="st18"/></g><g><circle cx="432.4" cy="822.1" r="7.6" class="st18"/></g><g><circle cx="543.1" cy="758.2" r="7.6" class="st18"/></g></g><g><g><path d="M1532.7,927.7c11.1-41.5,5.4-84.9-16.1-122.1c-21.5-37.2-56.2-63.8-97.7-75 c-41.5-11.1-84.9-5.4-122.1,16.1s-63.8,56.2-75,97.7c-11.1,41.5-5.4,84.9,16.1,122.1c21.5,37.2,56.2,63.8,97.7,75 c41.5,11.1,84.9,5.4,122.1-16.1C1495,1003.9,1521.6,969.2,1532.7,927.7z" class="st31"/><linearGradient id="SVGID_00000062158963836112409340000017216271336751370145_" x1="1263.454" x2="1491.08" y1="1060.12" y2="1287.746" gradientTransform="matrix(1 0 0 -1 0 2060)" gradientUnits="userSpaceOnUse"><stop offset="0" style="stop-color:#fff"/><stop offset=".5" style="stop-color:#da9"/><stop offset="1" style="stop-color:#fff"/></linearGradient><path style="opacity:.5;fill:url(#SVGID_00000062158963836112409340000017216271336751370145_);enable-background:new" d="M1532.7,927.7c11.1-41.5,5.4-84.9-16.1-122.1c-21.5-37.2-56.2-63.8-97.7-75c-41.5-11.1-84.9-5.4-122.1,16.1s-63.8,56.2-75,97.7 c-11.1,41.5-5.4,84.9,16.1,122.1c21.5,37.2,56.2,63.8,97.7,75c41.5,11.1,84.9,5.4,122.1-16.1 C1495,1003.9,1521.6,969.2,1532.7,927.7z"/><linearGradient id="SVGID_00000083783748979695727360000009293798549982385061_" x1="1263.462" x2="1491.038" y1="1060.112" y2="1287.688" gradientTransform="matrix(1 0 0 -1 0 2060)" gradientUnits="userSpaceOnUse"><stop offset="0" style="stop-color:#00f"/><stop offset=".5" style="stop-color:#1b1464"/><stop offset="1" style="stop-color:#00f"/></linearGradient><path style="fill:url(#SVGID_00000083783748979695727360000009293798549982385061_)" d="M1377,735.1c13.2,0,26.4,1.8,39.3,5.2 c38.9,10.4,71.5,35.4,91.6,70.3c20.2,34.9,25.5,75.6,15.1,114.5s-35.4,71.5-70.3,91.6c-23,13.3-49,20.3-75.2,20.3 c-13.2,0-26.4-1.8-39.3-5.2c-38.9-10.4-71.5-35.4-91.6-70.3c-20.2-34.9-25.5-75.6-15.1-114.5s35.4-71.5,70.3-91.6 C1324.8,742.1,1350.8,735.1,1377,735.1 M1377,725.1c-27.9,0-55.4,7.3-80.2,21.6c-37.2,21.5-63.8,56.2-75,97.7 c-11.1,41.5-5.4,84.9,16.1,122.1c21.5,37.2,56.2,63.8,97.7,75c13.9,3.7,27.9,5.6,41.9,5.6c27.9,0,55.4-7.3,80.2-21.6 c37.2-21.5,63.8-56.2,75-97.7c11.1-41.5,5.4-84.9-16.1-122.1c-21.5-37.2-56.2-63.8-97.7-75C1405.1,726.9,1391,725.1,1377,725.1 L1377,725.1z"/></g><g><linearGradient id="SVGID_00000104675483631247983930000005644268493461001891_" x1="1377.3" x2="1377.3" y1="1290.1" y2="1057.8" gradientTransform="matrix(1 0 0 -1 0 2060)" gradientUnits="userSpaceOnUse"><stop offset="0" style="stop-color:#fbb03b"/><stop offset="1" style="stop-color:#ff0"/></linearGradient><polygon style="fill:url(#SVGID_00000104675483631247983930000005644268493461001891_)" points="1435.3 852.5 1511.4 886 1435.3 919.6 1444.3 1002.2 1377.3 953.1 1310.2 1002.2 1319.2 919.6 1243.2 886 1319.2 852.5 1310.2 769.9 1377.3 819 1444.3 769.9"/><linearGradient id="SVGID_00000038413203309189085590000003308317002013590442_" x1="1377.2" x2="1377.2" y1="1057.9" y2="1290.1" gradientTransform="matrix(1 0 0 -1 0 2060)" gradientUnits="userSpaceOnUse"><stop offset="0" style="stop-color:#9e005d"/><stop offset="1" style="stop-color:red"/></linearGradient><path style="fill:url(#SVGID_00000038413203309189085590000003308317002013590442_)" d="M1328.8,802.1l39.6,29l8.9,6.5l8.9-6.5 l39.6-29l-5.3,48.8l-1.2,10.9l10,4.4l44.9,19.8l-44.9,19.8l-10,4.4l1.2,10.9l5.3,48.8l-39.6-29l-8.9-6.5l-8.9,6.5l-39.6,29 l5.3-48.8l1.2-10.9l-10-4.4l-44.9-19.8l44.9-19.8l10-4.4l-1.2-10.9L1328.8,802.1 M1310.2,769.9l9,82.6l-76,33.5l76,33.5l-9,82.6 l67-49.1l67,49.1l-9-82.6l76-33.5l-76-33.5l9-82.6l-67,49.1L1310.2,769.9L1310.2,769.9z"/></g><g><linearGradient id="SVGID_00000065776947667405493800000011882245220821798058_" x1="1377.25" x2="1377.25" y1="1233.6" y2="1114.4" gradientTransform="matrix(1 0 0 -1 0 2060)" gradientUnits="userSpaceOnUse"><stop offset="0" style="stop-color:#999"/><stop offset="1" style="stop-color:#fff"/></linearGradient><polygon style="fill:url(#SVGID_00000065776947667405493800000011882245220821798058_)" points="1407.1 868.8 1446.1 886 1407.1 903.2 1411.7 945.6 1377.3 920.4 1342.9 945.6 1347.5 903.2 1308.4 886 1347.5 868.8 1342.9 826.4 1377.3 851.6 1411.7 826.4"/><linearGradient id="SVGID_00000082364671941752272930000011737448287811407005_" x1="1377.3" x2="1377.3" y1="1114.4" y2="1233.6" gradientTransform="matrix(1 0 0 -1 0 2060)" gradientUnits="userSpaceOnUse"><stop offset="0" style="stop-color:#1b1464"/><stop offset="1" style="stop-color:#00f"/></linearGradient><path style="fill:url(#SVGID_00000082364671941752272930000011737448287811407005_)" d="M1393.1,858.6l-0.9,8.6l-1.2,10.9 l10,4.4l7.9,3.5l-7.9,3.5l-10,4.4l1.2,10.9l0.9,8.6l-7-5.1l-8.9-6.5l-8.9,6.5l-7,5.1l0.9-8.6l1.2-10.9l-10-4.4l-7.9-3.5l7.9-3.5 l10-4.4l-1.2-10.9l-0.9-8.6l7,5.1l8.9,6.5l8.9-6.5L1393.1,858.6 M1342.9,826.4l4.6,42.4l-39,17.2l39,17.2l-4.6,42.4l34.4-25.2 l34.4,25.2l-4.6-42.4l39-17.2l-39-17.2l4.6-42.4l-34.4,25.2L1342.9,826.4L1342.9,826.4z"/></g><g><circle cx="1488" cy="822.1" r="7.6" class="st18"/></g><g><circle cx="1488" cy="949.9" r="7.6" class="st18"/></g><g><circle cx="1377.3" cy="1013.9" r="7.6" class="st18"/></g><g><circle cx="1266.6" cy="949.9" r="7.6" class="st18"/></g><g><circle cx="1266.6" cy="822.1" r="7.6" class="st18"/></g><g><circle cx="1377.3" cy="758.2" r="7.6" class="st18"/></g></g><g><g><path d="M1142.9,906.6c13.1-48.8,6.4-99.9-18.9-143.7s-66.1-75.1-115-88.3c-48.8-13.1-99.9-6.4-143.7,18.9 s-75.1,66.1-88.3,115c-13.1,48.8-6.4,99.9,18.9,143.7c25.3,43.8,66.1,75.1,115,88.3c48.8,13.1,99.9,6.4,143.7-18.9 C1098.5,996.3,1129.8,955.4,1142.9,906.6z" class="st31"/><linearGradient id="SVGID_00000129186862138445222180000003783952165773968014_" x1="825.994" x2="1093.928" y1="1068.472" y2="1336.406" gradientTransform="matrix(1 0 0 -1 0 2060)" gradientUnits="userSpaceOnUse"><stop offset="0" style="stop-color:#fff"/><stop offset=".5" style="stop-color:#da9"/><stop offset="1" style="stop-color:#fff"/></linearGradient><path style="opacity:.5;fill:url(#SVGID_00000129186862138445222180000003783952165773968014_);enable-background:new" d="M1142.9,906.6c13.1-48.8,6.4-99.9-18.9-143.7s-66.1-75.1-115-88.3c-48.8-13.1-99.9-6.4-143.7,18.9s-75.1,66.1-88.3,115 c-13.1,48.8-6.4,99.9,18.9,143.7c25.3,43.8,66.1,75.1,115,88.3c48.8,13.1,99.9,6.4,143.7-18.9 C1098.5,996.3,1129.8,955.4,1142.9,906.6z"/><linearGradient id="SVGID_00000010998048406290975600000018094635395096132759_" x1="826.008" x2="1093.892" y1="1068.458" y2="1336.342" gradientTransform="matrix(1 0 0 -1 0 2060)" gradientUnits="userSpaceOnUse"><stop offset="0" style="stop-color:#00f"/><stop offset=".5" style="stop-color:#1b1464"/><stop offset="1" style="stop-color:#00f"/></linearGradient><path style="fill:url(#SVGID_00000010998048406290975600000018094635395096132759_)" d="M959.7,679.9c15.5,0,31.1,2.1,46.3,6.1 c45.8,12.2,84.1,41.7,107.8,82.7c23.8,41.1,30,89,17.8,134.8s-41.7,84.1-82.7,107.8c-27.1,15.7-57.7,23.9-88.5,23.9 c-15.5,0-31.1-2.1-46.3-6.1c-45.8-12.2-84.1-41.7-107.8-82.7c-23.8-41.1-30-89-17.8-134.8s41.7-84.1,82.7-107.8 C898.2,688.2,928.8,679.9,959.7,679.9 M959.7,668.1c-32.8,0-65.2,8.6-94.4,25.4c-43.8,25.3-75.1,66.1-88.3,115 c-13.1,48.8-6.4,99.9,18.9,143.7c25.3,43.8,66.1,75.1,115,88.3c16.4,4.4,32.8,6.6,49.3,6.6c32.8,0,65.2-8.6,94.4-25.4 c43.8-25.3,75.1-66.1,88.3-115c13.1-48.8,6.4-99.9-18.9-143.7s-66.1-75.1-115-88.3C992.7,670.3,976.1,668.1,959.7,668.1 L959.7,668.1z"/></g><g><linearGradient id="SVGID_00000116227671160857155430000016322268790377951679_" x1="960" x2="960" y1="1339.1" y2="1065.7" gradientTransform="matrix(1 0 0 -1 0 2060)" gradientUnits="userSpaceOnUse"><stop offset="0" style="stop-color:#fbb03b"/><stop offset="1" style="stop-color:#ff0"/></linearGradient><polygon style="fill:url(#SVGID_00000116227671160857155430000016322268790377951679_)" points="1028.3 818.1 1117.8 857.5 1028.3 897 1038.9 994.3 960 936.5 881 994.3 891.6 897 802.2 857.5 891.6 818.1 881 720.9 960 778.7 1038.9 720.9"/><linearGradient id="SVGID_00000078741171946078864500000011025351166466870156_" x1="959.9" x2="959.9" y1="1065.9" y2="1339.1" gradientTransform="matrix(1 0 0 -1 0 2060)" gradientUnits="userSpaceOnUse"><stop offset="0" style="stop-color:#9e005d"/><stop offset="1" style="stop-color:red"/></linearGradient><path style="fill:url(#SVGID_00000078741171946078864500000011025351166466870156_)" d="M902.9,758.8l46.6,34.1l10.5,7.6 l10.5-7.6l46.6-34.1l-6.2,57.4l-1.4,12.8l11.8,5.2l52.8,23.3l-52.8,23.3l-11.8,5.2l1.4,12.8l6.2,57.4l-46.6-34.1l-10.5-7.6 l-10.5,7.6l-46.6,34.1l6.2-57.4l1.4-12.8l-11.8-5.2L846,857.5l52.8-23.3l11.8-5.2l-1.4-12.8L902.9,758.8 M881,720.9l10.6,97.2 l-89.4,39.4l89.4,39.4L881,994.1l78.9-57.8l78.9,57.8l-10.6-97.2l89.4-39.4l-89.4-39.4l10.6-97.2l-78.9,57.8L881,720.9 L881,720.9z"/></g><g><linearGradient id="SVGID_00000029758556649256730290000003597160080762666628_" x1="959.95" x2="959.95" y1="1272.6" y2="1132.4" gradientTransform="matrix(1 0 0 -1 0 2060)" gradientUnits="userSpaceOnUse"><stop offset="0" style="stop-color:#999"/><stop offset="1" style="stop-color:#fff"/></linearGradient><polygon style="fill:url(#SVGID_00000029758556649256730290000003597160080762666628_)" points="995.1 837.3 1041 857.5 995.1 877.7 1000.5 927.6 960 898 919.5 927.6 924.9 877.7 878.9 857.5 924.9 837.3 919.5 787.4 960 817 1000.5 787.4"/><linearGradient id="SVGID_00000116927269338893212980000005747329740661728912_" x1="960" x2="960" y1="1132.3" y2="1272.6" gradientTransform="matrix(1 0 0 -1 0 2060)" gradientUnits="userSpaceOnUse"><stop offset="0" style="stop-color:#1b1464"/><stop offset="1" style="stop-color:#00f"/></linearGradient><path style="fill:url(#SVGID_00000116927269338893212980000005747329740661728912_)" d="M978.6,825.3l-1.1,10.1l-1.4,12.8 l11.8,5.2l9.3,4.1l-9.3,4.1l-11.8,5.2l1.4,12.8l1.1,10.1l-8.2-6l-10.5-7.6l-10.5,7.6l-8.2,6l1.1-10.1l1.4-12.8l-11.8-5.2 l-9.3-4.1l9.3-4.1l11.8-5.2l-1.4-12.8l-1.1-10.1l8.2,6l10.5,7.6l10.5-7.6L978.6,825.3 M919.5,787.4l5.4,49.9L879,857.5 l45.9,20.2l-5.4,49.9L960,898l40.5,29.7l-5.4-49.9l45.9-20.2l-45.9-20.2l5.4-49.9L960,817L919.5,787.4L919.5,787.4z"/></g><g><circle cx="1090.3" cy="782.3" r="8.9" class="st18"/></g><g><circle cx="1090.3" cy="932.7" r="8.9" class="st18"/></g><g><circle cx="960" cy="1008" r="8.9" class="st18"/></g><g><circle cx="829.7" cy="932.7" r="8.9" class="st18"/></g><g><circle cx="829.7" cy="782.3" r="8.9" class="st18"/></g><g><circle cx="960" cy="707.1" r="8.9" class="st18"/></g></g></g></g><g><linearGradient id="SVGID_00000176730275403467991690000005019001883671553213_" x1="1512.75" x2="1512.75" y1="2060" y2="1720.1" gradientTransform="matrix(1 0 0 -1 0 2060)" gradientUnits="userSpaceOnUse"><stop offset="0" style="stop-color:#fcc"/><stop offset=".5" style="stop-color:#ffd"/><stop offset="1" style="stop-color:#969"/></linearGradient><path style="fill:url(#SVGID_00000176730275403467991690000005019001883671553213_)" d="M1905,15v310h-522.5 c-4.5-18-9.9-35.7-16-53c-21.7-61-52.9-116-92.6-163.3c-31.7-37.7-67.7-69.1-107.2-93.7H1905 M1920,0h-814.5 c7.3,3.1,14.6,6.5,21.8,10.1c50.7,25.5,96.1,61.9,135.1,108.2c38.6,45.9,68.9,99.3,90,158.6c7.3,20.6,13.4,41.6,18.3,63H1920V0 L1920,0z"/><linearGradient id="SVGID_00000097500936434864514470000003263170949831753395_" x1="407.25" x2="407.25" y1="2060" y2="1720" gradientTransform="matrix(1 0 0 -1 0 2060)" gradientUnits="userSpaceOnUse"><stop offset="0" style="stop-color:#fcc"/><stop offset=".5" style="stop-color:#ffd"/><stop offset="1" style="stop-color:#969"/></linearGradient><path style="fill:url(#SVGID_00000097500936434864514470000003263170949831753395_)" d="M753.4,15c-39.5,24.6-75.5,56-107.2,93.7 C606.4,156,575.3,210.9,553.6,272c-6.1,17.3-11.5,35.1-16,53H15V15H753.4 M814.5,0H0v340h549.4c4.9-21.4,11-42.4,18.3-63 c21.1-59.4,51.4-112.7,90-158.6c38.9-46.3,84.3-82.8,135-108.3C799.9,6.5,807.2,3.1,814.5,0L814.5,0z"/><linearGradient id="SVGID_00000163034961970701203530000013734005146690339733_" x1="1648.3" x2="1648.3" y1="1690" y2="1350" gradientTransform="matrix(1 0 0 -1 0 2060)" gradientUnits="userSpaceOnUse"><stop offset="0" style="stop-color:#fcc"/><stop offset=".5" style="stop-color:#ffd"/><stop offset="1" style="stop-color:#969"/></linearGradient><path style="fill:url(#SVGID_00000163034961970701203530000013734005146690339733_)" d="M1905,385v310h-416.8 c-26.9-15.7-57.1-25.5-88.1-28.8V470c0-28.6-2-57.1-5.9-85H1905 M1920,370h-543.4c5.6,32.7,8.5,66.1,8.5,100v210.2 c35.2,1.4,69.1,11.6,99,29.8H1920V370L1920,370z"/><linearGradient id="SVGID_00000012464156956340261910000007225968193724872362_" x1="959.95" x2="959.95" y1="2060" y2="1350" gradientTransform="matrix(1 0 0 -1 0 2060)" gradientUnits="userSpaceOnUse"><stop offset="0" style="stop-color:#fcc"/><stop offset=".5" style="stop-color:#ffd"/><stop offset="1" style="stop-color:#969"/></linearGradient><path style="fill:url(#SVGID_00000012464156956340261910000007225968193724872362_)" d="M960,15c51,0,100.4,11.9,147,35.3 c45.2,22.8,85.9,55.4,120.8,97c35.1,41.8,62.7,90.5,82,144.8c20,56.3,30.2,116.2,30.2,177.9v198.1c-26.3,4.4-51.2,13.4-74.3,26.9 h-116.5c-20.3-23.5-45.2-43.5-72.4-58c-35.8-19-76.2-29-116.9-29s-81.1,10-116.9,29c-27.2,14.5-52.1,34.4-72.4,58H654.2 c-23.1-13.5-48-22.5-74.3-26.9V470c0-61.7,10.2-121.6,30.2-177.9c19.3-54.3,46.9-103,82-144.8c35-41.6,75.6-74.2,120.8-97 C859.6,26.9,909,15,960,15 M960,0C741.8,0,564.9,210.4,564.9,470v211.2c30.2,3.2,59.2,13,85.2,28.8h127.6 c19.9-24.5,44.7-45,72.4-59.7C883.8,632.4,921.7,623,960,623s76.2,9.4,109.8,27.3c27.8,14.8,52.6,35.2,72.4,59.7h127.6 c26-15.9,55-25.6,85.2-28.8V470C1355.1,210.4,1178.2,0,960,0L960,0z"/><linearGradient id="SVGID_00000006682743380801351610000009211500989470090943_" x1="960" x2="960" y1="1407" y2="980" gradientTransform="matrix(1 0 0 -1 0 2060)" gradientUnits="userSpaceOnUse"><stop offset="0" style="stop-color:#fcc"/><stop offset=".5" style="stop-color:#ffd"/><stop offset="1" style="stop-color:#969"/></linearGradient><path style="fill:url(#SVGID_00000006682743380801351610000009211500989470090943_)" d="M960,668c30.9,0,61.6,7.6,88.7,22 c26.3,14,49.2,34.2,66.4,58.6l4.5,6.4h7.8h151.3h4.6l3.8-2.6c26.6-17.9,57.7-27.4,89.9-27.4s63.3,9.5,89.9,27.4l3.8,2.6h4.6H1905 v310H15V755h429.7h4.6l3.8-2.6c26.6-17.9,57.7-27.4,89.9-27.4s63.3,9.5,89.9,27.4l3.8,2.6h4.6h151.3h7.8l4.5-6.4 C822,724.2,845,704,871.3,690C898.4,675.6,929.1,668,960,668 M960,653c-69.2,0-130.4,34.4-167.4,87H641.3 c-28.1-18.9-61.9-30-98.3-30s-70.2,11.1-98.3,30H0v340h1920V740h-444.7c-28.1-18.9-61.9-30-98.3-30s-70.2,11.1-98.3,30h-151.3 C1090.4,687.4,1029.2,653,960,653L960,653z"/><linearGradient id="SVGID_00000000194629259366356590000001810890686736181181_" x1="271.7" x2="271.7" y1="1690" y2="1350" gradientTransform="matrix(1 0 0 -1 0 2060)" gradientUnits="userSpaceOnUse"><stop offset="0" style="stop-color:#fcc"/><stop offset=".5" style="stop-color:#ffd"/><stop offset="1" style="stop-color:#969"/></linearGradient><path style="fill:url(#SVGID_00000000194629259366356590000001810890686736181181_)" d="M525.8,385c-3.9,27.9-5.9,56.4-5.9,85 v196.2c-31.1,3.3-61.2,13.1-88.1,28.8H15V385H525.8 M543.4,370H0v340h435.9c29.9-18.3,63.8-28.5,99-29.8V470 C534.9,436.1,537.7,402.7,543.4,370L543.4,370z"/></g><g><text class="st56 st57" transform="matrix(1 0 0 1 827.1609 482.9043)">2021-2022</text><text class="st56 st57" transform="matrix(1 0 0 1 601.4609 539.3043)">CHOCTAW INDIAN PRINCESS</text><text class="st56 st57" transform="matrix(1 0 0 1 619.7609 595.7043)">SHEMAH LADANIA CROSBY</text><text class="st58 st56 st57" transform="matrix(1 0 0 1 826.1609 478.9043)">2021-2022</text><text class="st58 st56 st57" transform="matrix(1 0 0 1 600.4609 535.3043)">CHOCTAW INDIAN PRINCESS</text><text class="st58 st56 st57" transform="matrix(1 0 0 1 618.7609 591.7043)">SHEMAH LADANIA CROSBY</text><text class="st31 st56 st57" transform="matrix(1 0 0 1 827.1609 479.9043)">2021-2022</text><text class="st31 st56 st57" transform="matrix(1 0 0 1 601.4609 536.3043)">CHOCTAW INDIAN PRINCESS</text><text class="st31 st56 st57" transform="matrix(1 0 0 1 619.7609 592.7043)">SHEMAH LADANIA CROSBY</text></g><path d="M1920,710h-435.9c-32.2-19.7-69.1-30-107.1-30s-74.9,10.3-107.1,30h-127.6c-19.9-24.5-44.7-45-72.4-59.7	C1036.2,632.4,998.3,623,960,623s-76.2,9.4-109.8,27.3c-27.8,14.8-52.6,35.2-72.4,59.7H650.1c-32.2-19.7-69.1-30-107.1-30	s-74.9,10.3-107.1,30H0h-30v30v340v30H0h1920h30v-30V740v-30H1920z" class="st59"/></svg>