<?xml version="1.0" encoding="utf-8"?>
<!-- Generator: Adobe Illustrator 26.0.0, SVG Export Plug-In . SVG Version: 6.00 Build 0)  -->
<svg version="1.1" id="Layer_1" xmlns="http://www.w3.org/2000/svg" xmlns:xlink="http://www.w3.org/1999/xlink" x="0px" y="0px"
	 viewBox="0 0 1920 1080" style="enable-background:new 0 0 1920 1080;" xml:space="preserve">
<style type="text/css">
	.st0{fill:#999999;}
	.st1{fill:url(#SVGID_1_);}
	.st2{fill:url(#SVGID_00000135692763717477288350000014571186384395079592_);}
	.st3{fill:url(#SVGID_00000165202727481799618990000014161364204598558085_);}
	.st4{fill:url(#SVGID_00000055674181326676446200000014275884514483294141_);}
	.st5{fill:url(#SVGID_00000096753516399530256960000017900227606375452805_);}
	.st6{fill:url(#SVGID_00000052790686695003983950000002277356336112445857_);}
	.st7{fill:url(#SVGID_00000025420736230697385260000016202940473025816471_);}
	.st8{fill:url(#SVGID_00000048495055033552586010000009306178481913435818_);}
	.st9{fill:url(#SVGID_00000125568338007901562200000000726228766667107003_);}
	.st10{fill:url(#SVGID_00000043458728026476161300000009068378497851054513_);}
	.st11{fill:url(#SVGID_00000111872883108398340830000005371153661901124761_);}
</style>
<g>
	<polygon class="st0" points="1569.7,1080 1920,1080 1920,729.7 	"/>
	<polygon class="st0" points="0,729.7 0,1080 350.3,1080 	"/>
	<polygon class="st0" points="1396.7,658 1920,658 1920,134.7 	"/>
	<polygon class="st0" points="1366.7,688 974.7,1080 1527.3,1080 1919.3,688 	"/>
	<polygon class="st0" points="0,134.7 0,658 523.3,658 	"/>
	<polygon class="st0" points="0.7,688 392.7,1080 945.3,1080 553.3,688 	"/>
	<polygon class="st0" points="1472.3,0 447.7,0 960,512.3 	"/>
	<polygon class="st0" points="586,678.3 945,1037.3 945,539.7 586,180.7 	"/>
	<polygon class="st0" points="1334,180.7 975,539.7 975,1037.3 1334,678.3 	"/>
	<polygon class="st0" points="556,150.7 405.3,0 0,0 0,92.3 556,648.3 	"/>
	<polygon class="st0" points="1514.7,0 1364,150.7 1364,648.3 1920,92.3 1920,0 	"/>
</g>
<g>
	<g>
		<linearGradient id="SVGID_1_" gradientUnits="userSpaceOnUse" x1="1744.8567" y1="729.7133" x2="1744.8567" y2="1080">
			<stop  offset="0" style="stop-color:#FFFFFF"/>
			<stop  offset="1" style="stop-color:#000000"/>
		</linearGradient>
		<path class="st1" d="M1905,765.9V1065h-299.1L1905,765.9 M1920,729.7L1569.7,1080H1920V729.7L1920,729.7z"/>
	</g>
	<g>
		
			<linearGradient id="SVGID_00000103975754495842987270000009589966352755839408_" gradientUnits="userSpaceOnUse" x1="175.1434" y1="729.7133" x2="175.1434" y2="1080">
			<stop  offset="0" style="stop-color:#FFFFFF"/>
			<stop  offset="1" style="stop-color:#000000"/>
		</linearGradient>
		<path style="fill:url(#SVGID_00000103975754495842987270000009589966352755839408_);" d="M15,765.9L314.1,1065H15V765.9 M0,729.7
			V1080h350.3L0,729.7L0,729.7z"/>
	</g>
	<g>
		
			<linearGradient id="SVGID_00000019662571590124566620000009108350011744676491_" gradientUnits="userSpaceOnUse" x1="1658.3566" y1="134.7132" x2="1658.3566" y2="658">
			<stop  offset="0" style="stop-color:#FFFFFF"/>
			<stop  offset="1" style="stop-color:#000000"/>
		</linearGradient>
		<path style="fill:url(#SVGID_00000019662571590124566620000009108350011744676491_);" d="M1905,170.9V643h-472.1L1905,170.9
			 M1920,134.7L1396.7,658H1920V134.7L1920,134.7z"/>
	</g>
	<g>
		
			<linearGradient id="SVGID_00000000902130197953219870000007009148216943541694_" gradientUnits="userSpaceOnUse" x1="1447" y1="688" x2="1447" y2="1080">
			<stop  offset="0" style="stop-color:#FFFFFF"/>
			<stop  offset="1" style="stop-color:#000000"/>
		</linearGradient>
		<path style="fill:url(#SVGID_00000000902130197953219870000007009148216943541694_);" d="M1883.1,703l-362,362h-510.1l362-362
			H1883.1 M1919.3,688h-552.6l-392,392h552.6L1919.3,688L1919.3,688z"/>
	</g>
	<g>
		
			<linearGradient id="SVGID_00000114760269615880490610000015746946094043663516_" gradientUnits="userSpaceOnUse" x1="261.6434" y1="134.7132" x2="261.6434" y2="658">
			<stop  offset="0" style="stop-color:#FFFFFF"/>
			<stop  offset="1" style="stop-color:#000000"/>
		</linearGradient>
		<path style="fill:url(#SVGID_00000114760269615880490610000015746946094043663516_);" d="M15,170.9L487.1,643H15V170.9 M0,134.7
			V658h523.3L0,134.7L0,134.7z"/>
	</g>
	<g>
		
			<linearGradient id="SVGID_00000003797556707837759060000017247984848039047083_" gradientUnits="userSpaceOnUse" x1="473.0001" y1="688" x2="473.0001" y2="1080">
			<stop  offset="0" style="stop-color:#FFFFFF"/>
			<stop  offset="1" style="stop-color:#000000"/>
		</linearGradient>
		<path style="fill:url(#SVGID_00000003797556707837759060000017247984848039047083_);" d="M547.1,703l362,362H398.9l-362-362H547.1
			 M553.3,688H0.7l392,392h552.6L553.3,688L553.3,688z"/>
	</g>
	<g>
		
			<linearGradient id="SVGID_00000150071771352605650280000003894821565361980345_" gradientUnits="userSpaceOnUse" x1="960" y1="3.824870e-05" x2="960" y2="512.2867">
			<stop  offset="0" style="stop-color:#FFFFFF"/>
			<stop  offset="1" style="stop-color:#000000"/>
		</linearGradient>
		<path style="fill:url(#SVGID_00000150071771352605650280000003894821565361980345_);" d="M1436.1,15L960,491.1L483.9,15H1436.1
			 M1472.3,0H447.7L960,512.3L1472.3,0L1472.3,0z"/>
	</g>
	<g>
		
			<linearGradient id="SVGID_00000124152478137958066770000004190029693024708226_" gradientUnits="userSpaceOnUse" x1="765.5" y1="180.7132" x2="765.5" y2="1037.2867">
			<stop  offset="0" style="stop-color:#FFFFFF"/>
			<stop  offset="1" style="stop-color:#000000"/>
		</linearGradient>
		<path style="fill:url(#SVGID_00000124152478137958066770000004190029693024708226_);" d="M601,216.9l329,329v455.1l-329-329V216.9
			 M586,180.7v497.6l359,359V539.7L586,180.7L586,180.7z"/>
	</g>
	<g>
		
			<linearGradient id="SVGID_00000065045791031438080980000005049969275037757831_" gradientUnits="userSpaceOnUse" x1="1154.5" y1="180.7133" x2="1154.5" y2="1037.2867">
			<stop  offset="0" style="stop-color:#FFFFFF"/>
			<stop  offset="1" style="stop-color:#000000"/>
		</linearGradient>
		<path style="fill:url(#SVGID_00000065045791031438080980000005049969275037757831_);" d="M1319,216.9v455.1l-329,329V545.9
			L1319,216.9 M1334,180.7l-359,359v497.6l359-359V180.7L1334,180.7z"/>
	</g>
	<g>
		
			<linearGradient id="SVGID_00000106110200467791997520000011180792415717063308_" gradientUnits="userSpaceOnUse" x1="278" y1="-4.018268e-05" x2="278" y2="648.2868">
			<stop  offset="0" style="stop-color:#FFFFFF"/>
			<stop  offset="1" style="stop-color:#000000"/>
		</linearGradient>
		<path style="fill:url(#SVGID_00000106110200467791997520000011180792415717063308_);" d="M399.1,15L541,156.9v455.1L15,86.1V15
			H399.1 M405.3,0H0v92.3l556,556V150.7L405.3,0L405.3,0z"/>
	</g>
	<g>
		
			<linearGradient id="SVGID_00000160184735908725074200000000678279660448814755_" gradientUnits="userSpaceOnUse" x1="1642" y1="-4.018268e-05" x2="1642" y2="648.2868">
			<stop  offset="0" style="stop-color:#FFFFFF"/>
			<stop  offset="1" style="stop-color:#000000"/>
		</linearGradient>
		<path style="fill:url(#SVGID_00000160184735908725074200000000678279660448814755_);" d="M1905,15v71.1l-526,526V156.9L1520.9,15
			H1905 M1920,0h-405.3L1364,150.7v497.6l556-556V0L1920,0z"/>
	</g>
</g>
</svg>
