<?xml version="1.0" encoding="utf-8"?>
<!-- Generator: Adobe Illustrator 26.0.0, SVG Export Plug-In . SVG Version: 6.00 Build 0)  -->
<svg version="1.1" id="Layer_1" xmlns="http://www.w3.org/2000/svg" xmlns:xlink="http://www.w3.org/1999/xlink" x="0px" y="0px"
	 viewBox="0 0 1920 1080" style="enable-background:new 0 0 1920 1080;" xml:space="preserve">
<style type="text/css">
	.st0{fill:#999999;}
</style>
<polygon class="st0" points="1569.7,1080 1920,1080 1920,729.7 "/>
<polygon class="st0" points="0,729.7 0,1080 350.3,1080 "/>
<polygon class="st0" points="1396.7,658 1920,658 1920,134.7 "/>
<polygon class="st0" points="1366.7,688 974.7,1080 1527.3,1080 1919.3,688 "/>
<polygon class="st0" points="0,134.7 0,658 523.3,658 "/>
<polygon class="st0" points="0.7,688 392.7,1080 945.3,1080 553.3,688 "/>
<polygon class="st0" points="1472.3,0 447.7,0 960,512.3 "/>
<polygon class="st0" points="586,678.3 945,1037.3 945,539.7 586,180.7 "/>
<polygon class="st0" points="1334,180.7 975,539.7 975,1037.3 1334,678.3 "/>
<polygon class="st0" points="556,150.7 405.3,0 0,0 0,92.3 556,648.3 "/>
<polygon class="st0" points="1514.7,0 1364,150.7 1364,648.3 1920,92.3 1920,0 "/>
</svg>
