<svg xmlns="http://www.w3.org/2000/svg" xmlns:xlink="http://www.w3.org/1999/xlink" id="Layer_1" x="0" y="0" version="1.1" viewBox="0 0 1920 1080" xml:space="preserve" style="enable-background:new 0 0 1920 1080"><style type="text/css">.st0{fill:url(#SVGID_1_)}</style><g><g><linearGradient id="SVGID_1_" x1="1664.775" x2="1985.075" y1="1894.925" y2="2215.225" gradientTransform="matrix(1 0 0 -1 0 3040)" gradientUnits="userSpaceOnUse"><stop offset="0" style="stop-color:#f0f"/><stop offset=".5" style="stop-color:red"/><stop offset="1" style="stop-color:#ff0"/></linearGradient><polygon points="1584.7 1065 1905 1065 1905 744.7" class="st0"/><linearGradient id="SVGID_00000060019867480658797750000001239683079946049459_" x1="1744.85" x2="1905" y1="2135.15" y2="1975" gradientTransform="matrix(1 0 0 -1 0 3040)" gradientUnits="userSpaceOnUse"><stop offset=".5" style="stop-color:#000;stop-opacity:0"/><stop offset="1" style="stop-color:#000"/></linearGradient><polygon style="fill:url(#SVGID_00000060019867480658797750000001239683079946049459_)" points="1584.7 1065 1905 1065 1905 744.7"/><linearGradient id="SVGID_00000140712899149245135190000015206621689594448560_" x1="1744.85" x2="1905" y1="2135.15" y2="1975" gradientTransform="matrix(1 0 0 -1 0 3040)" gradientUnits="userSpaceOnUse"><stop offset="0" style="stop-color:#fff"/><stop offset=".5" style="stop-color:#fafafa;stop-opacity:0"/></linearGradient><polygon style="fill:url(#SVGID_00000140712899149245135190000015206621689594448560_)" points="1584.7 1065 1905 1065 1905 744.7"/></g><g><linearGradient id="SVGID_00000099662900649673032090000011930624466084981429_" x1="10834.775" x2="10514.476" y1="2215.225" y2="1894.925" gradientTransform="matrix(-1 0 0 -1 10769.7002 3040)" gradientUnits="userSpaceOnUse"><stop offset="0" style="stop-color:#0f0"/><stop offset=".5" style="stop-color:#0ff"/><stop offset="1" style="stop-color:#00f"/></linearGradient><polygon style="fill:url(#SVGID_00000099662900649673032090000011930624466084981429_)" points="15 744.7 15 1065 335.3 1065"/><linearGradient id="SVGID_00000138555410438359213290000010762214257795446427_" x1="10594.55" x2="10754.7" y1="2135.15" y2="1975" gradientTransform="matrix(-1 0 0 -1 10769.7002 3040)" gradientUnits="userSpaceOnUse"><stop offset=".5" style="stop-color:#000;stop-opacity:0"/><stop offset="1" style="stop-color:#000"/></linearGradient><polygon style="fill:url(#SVGID_00000138555410438359213290000010762214257795446427_)" points="15 744.7 15 1065 335.3 1065"/><linearGradient id="SVGID_00000158005159252003561550000013265576677868780174_" x1="10594.55" x2="10754.7" y1="2135.15" y2="1975" gradientTransform="matrix(-1 0 0 -1 10769.7002 3040)" gradientUnits="userSpaceOnUse"><stop offset="0" style="stop-color:#fff"/><stop offset=".5" style="stop-color:#fff;stop-opacity:0"/></linearGradient><polygon style="fill:url(#SVGID_00000158005159252003561550000013265576677868780174_)" points="15 744.7 15 1065 335.3 1065"/></g><g><g><g><g><g><g><defs><polygon id="SVGID_00000167393430224462625590000012315853331240234132_" points="1411.7 643 1905 643 1905 149.7"/></defs><clipPath id="SVGID_00000016770543142097674150000016453357459870565284_"><use xlink:href="#SVGID_00000167393430224462625590000012315853331240234132_" style="overflow:visible"/></clipPath><polygon style="clip-path:url(#SVGID_00000016770543142097674150000016453357459870565284_);fill:#090709" points="1396.7 658 1920 658 1920 134.7"/></g></g></g></g></g><g><g><g><g><g><defs><polygon id="SVGID_00000112631886984896103550000007622901289327951271_" points="1411.7 643 1905 643 1905 149.7"/></defs><clipPath id="SVGID_00000009553650721522349380000013903809539912568247_"><use xlink:href="#SVGID_00000112631886984896103550000007622901289327951271_" style="overflow:visible"/></clipPath><g style="clip-path:url(#SVGID_00000009553650721522349380000013903809539912568247_);enable-background:new"><image style="overflow:visible;enable-background:new" width="2048" height="1362" transform="matrix(0.2218 0 0 0.2218 1432.3138 340.8484)" xlink:href="../../../../../Downloads/drummers.jpg"/></g></g></g></g></g></g><g><g><g><g><g><defs><polygon id="SVGID_00000123410923053338755380000017942448421245864864_" points="1411.7 643 1905 643 1905 149.7"/></defs><clipPath id="SVGID_00000026162711456658645130000008156764245839929745_"><use xlink:href="#SVGID_00000123410923053338755380000017942448421245864864_" style="overflow:visible"/></clipPath><g style="clip-path:url(#SVGID_00000026162711456658645130000008156764245839929745_);enable-background:new"><image style="overflow:visible;enable-background:new" width="2048" height="1362" transform="matrix(0.2218 0 0 0.2218 1454.3138 340.8484)" xlink:href="../../../../../Downloads/drummers.jpg"/></g></g></g></g></g></g><g><g><g><g><g><defs><polygon id="SVGID_00000069357041882758461810000008254473622212794045_" points="1411.7 643 1905 643 1905 149.7"/></defs><clipPath id="SVGID_00000157995779587656950480000013510179455175313291_"><use xlink:href="#SVGID_00000069357041882758461810000008254473622212794045_" style="overflow:visible"/></clipPath><g style="clip-path:url(#SVGID_00000157995779587656950480000013510179455175313291_);enable-background:new"><image style="overflow:visible;enable-background:new" width="2048" height="1362" transform="matrix(0.2218 0 0 0.2218 1473.3138 340.8484)" xlink:href="../../../../../Downloads/drummers.jpg"/></g></g></g></g></g></g><g><g><g><g><g><defs><polygon id="SVGID_00000124852829417450932860000004745019165195777664_" points="1411.7 643 1905 643 1905 149.7"/></defs><clipPath id="SVGID_00000062156649278670588940000011471357941708423572_"><use xlink:href="#SVGID_00000124852829417450932860000004745019165195777664_" style="overflow:visible"/></clipPath><g style="clip-path:url(#SVGID_00000062156649278670588940000011471357941708423572_);enable-background:new"><image style="overflow:visible;enable-background:new" width="2048" height="1362" transform="matrix(0.2218 0 0 0.2218 1493.3138 340.8484)" xlink:href="../../../../../Downloads/drummers.jpg"/></g></g></g></g></g></g><g><g><g><g><g><defs><polygon id="SVGID_00000060749757749637663180000005119807384315631766_" points="1411.7 643 1905 643 1905 149.7"/></defs><clipPath id="SVGID_00000041996828903719459800000012741922309874277277_"><use xlink:href="#SVGID_00000060749757749637663180000005119807384315631766_" style="overflow:visible"/></clipPath><g style="clip-path:url(#SVGID_00000041996828903719459800000012741922309874277277_);enable-background:new"><image style="overflow:visible;enable-background:new" width="2048" height="1362" transform="matrix(0.2218 0 0 0.2218 1513.3138 340.8484)" xlink:href="../../../../../Downloads/drummers.jpg"/></g></g></g></g></g></g></g><g><g><g><g><g><g><defs><polygon id="SVGID_00000028311965153879317370000013923375842636100027_" points="1372.8 703 1010.9 1065 1521.2 1065 1883.1 703"/></defs><clipPath id="SVGID_00000163765616007371316130000002358923436785774256_"><use xlink:href="#SVGID_00000028311965153879317370000013923375842636100027_" style="overflow:visible"/></clipPath><g style="clip-path:url(#SVGID_00000163765616007371316130000002358923436785774256_)"><image style="overflow:visible;enable-background:new" width="1686" height="1125" transform="matrix(0.4635 0 0 0.4635 1096 525.4)" xlink:href="../../../../../Downloads/217158076_4148136661934558_783972346646775842_n.jpg"/></g></g></g></g></g></g><g><g><g><g><g><defs><polygon id="SVGID_00000111874946931911132810000000902535869040822945_" points="1372.8 703 1010.9 1065 1521.2 1065 1883.1 703"/></defs><clipPath id="SVGID_00000087409039018612997940000012502970384847618945_"><use xlink:href="#SVGID_00000111874946931911132810000000902535869040822945_" style="overflow:visible"/></clipPath><g style="clip-path:url(#SVGID_00000087409039018612997940000012502970384847618945_)"><image style="overflow:visible;enable-background:new" width="1686" height="1125" transform="matrix(0.4635 0 0 0.4635 1009 553.4)" xlink:href="../../../../../Downloads/217158076_4148136661934558_783972346646775842_n.jpg"/></g></g></g></g></g></g><g><g><g><g><g><defs><polygon id="SVGID_00000167354459776054432260000007702849220351783591_" points="1372.8 703 1010.9 1065 1521.2 1065 1883.1 703"/></defs><clipPath id="SVGID_00000015351922706378994950000012268529201124842671_"><use xlink:href="#SVGID_00000167354459776054432260000007702849220351783591_" style="overflow:visible"/></clipPath><g style="clip-path:url(#SVGID_00000015351922706378994950000012268529201124842671_)"><image style="overflow:visible;enable-background:new" width="1686" height="1125" transform="matrix(0.4635 0 0 0.4635 1054 553.4)" xlink:href="../../../../../Downloads/217158076_4148136661934558_783972346646775842_n.jpg"/></g></g></g></g></g></g></g><g><g><g><g><g><g><defs><polygon id="SVGID_00000150786813648580816640000013870318033686342785_" points="8 152.7 8 652 507.3 652"/></defs><clipPath id="SVGID_00000027566265670044651640000005222099304334537380_"><use xlink:href="#SVGID_00000150786813648580816640000013870318033686342785_" style="overflow:visible"/></clipPath><rect style="clip-path:url(#SVGID_00000027566265670044651640000005222099304334537380_);fill:#060606" width="345.3" height="238.8" x="-89.5" y="170.9"/></g></g></g></g></g><g><g><g><g><g><defs><polygon id="SVGID_00000172407794060175437970000002036364966649996443_" points="8 152.7 8 652 507.3 652"/></defs><clipPath id="SVGID_00000047756875076298735870000007272643477421287100_"><use xlink:href="#SVGID_00000172407794060175437970000002036364966649996443_" style="overflow:visible"/></clipPath><g style="clip-path:url(#SVGID_00000047756875076298735870000007272643477421287100_);enable-background:new"><image style="overflow:visible;enable-background:new" width="2048" height="1365" transform="matrix(0.2924 0 0 0.2924 -35.2645 243.9248)" xlink:href="../../../../../Downloads/217495088_4149867061761518_3154778973190753992_n.jpg"/></g></g></g></g></g></g></g><g><g><g><g><g><g><defs><polygon id="SVGID_00000084503733186187667950000006802385770468626093_" points="15 693.9 395.1 1074.1 931 1074.1 550.9 693.9"/></defs><clipPath id="SVGID_00000063632523522448049780000011287885022058452135_"><use xlink:href="#SVGID_00000084503733186187667950000006802385770468626093_" style="overflow:visible"/></clipPath><g style="clip-path:url(#SVGID_00000063632523522448049780000011287885022058452135_);enable-background:new"><image style="overflow:visible;enable-background:new" width="2048" height="1365" transform="matrix(0.424 0 0 0.424 36.9 570)" xlink:href="../../../../../Downloads/215870492_4148138638601027_4538669978666226981_n.jpg"/></g></g></g></g></g></g></g><g><g><g><g><g><g><defs><polygon id="SVGID_00000069398980108309795680000003072283769555966891_" points="1447 12.6 473 12.6 960 499.6"/></defs><clipPath id="SVGID_00000083083518696231809830000007574723519323352232_"><use xlink:href="#SVGID_00000069398980108309795680000003072283769555966891_" style="overflow:visible"/></clipPath><polygon style="clip-path:url(#SVGID_00000083083518696231809830000007574723519323352232_);fill:#0a0a0a" points="1472.3 0 447.7 0 960 512.3"/></g></g></g></g></g><g><g><g><g><g><defs><polygon id="SVGID_00000052784634065744441080000003010854609029738922_" points="1447 12.6 473 12.6 960 499.6"/></defs><clipPath id="SVGID_00000129918965723645175060000015122189923044621755_"><use xlink:href="#SVGID_00000052784634065744441080000003010854609029738922_" style="overflow:visible"/></clipPath><g style="clip-path:url(#SVGID_00000129918965723645175060000015122189923044621755_);enable-background:new"><image style="overflow:visible;enable-background:new" width="2048" height="1365" transform="matrix(0.3945 0 0 0.3945 556 -35.2859)" xlink:href="../../../../../Downloads/215742753_4149951961753028_8134700480740419261_n.jpg"/></g></g></g></g></g></g></g><g><g><g><g><g><g><defs><polygon id="SVGID_00000067958528922407966150000018173263711189635465_" points="593.4 675.5 937.6 1019.7 937.6 542.5 593.4 198.3"/></defs><clipPath id="SVGID_00000072967636251681343730000015811390334446508691_"><use xlink:href="#SVGID_00000067958528922407966150000018173263711189635465_" style="overflow:visible"/></clipPath><polygon style="clip-path:url(#SVGID_00000072967636251681343730000015811390334446508691_);fill:#0a0a0a" points="586 678.3 945 1037.3 945 539.7 586 180.7"/></g></g></g></g></g><g><g><g><g><g><defs><polygon id="SVGID_00000108992827574001436180000002694193044983599803_" points="593.4 675.5 937.6 1019.7 937.6 542.5 593.4 198.3"/></defs><clipPath id="SVGID_00000093893270321061356020000015509768675762176168_"><use xlink:href="#SVGID_00000108992827574001436180000002694193044983599803_" style="overflow:visible"/></clipPath><g style="clip-path:url(#SVGID_00000093893270321061356020000015509768675762176168_);enable-background:new"><image style="overflow:visible;enable-background:new" width="2048" height="1365" transform="matrix(0.4834 0 0 0.4834 236.7532 341.1389)" xlink:href="../../../../../Downloads/217742642_4147065728708318_7572607277866642674_n.jpg"/></g></g></g></g></g></g></g><g><g><g><g><g><g><defs><polygon id="SVGID_00000034784618770613149350000014065826582699694006_" points="1326.6 198.3 982.4 542.5 982.4 1019.7 1326.6 675.5"/></defs><clipPath id="SVGID_00000132809896979562290670000018389280673355575717_"><use xlink:href="#SVGID_00000034784618770613149350000014065826582699694006_" style="overflow:visible"/></clipPath><g transform="matrix(1 0 0 1 -6.103516e-05 0)" style="clip-path:url(#SVGID_00000132809896979562290670000018389280673355575717_)"><image style="overflow:visible;enable-background:new" width="2048" height="1365" transform="matrix(0.5743 0 0 0.5743 747.6 219.1237)" xlink:href="../../../../../Downloads/215339618_4144229282325296_4248557124656967950_n.jpg"/></g></g></g></g></g></g><g><g><g><g><g><defs><polygon id="SVGID_00000032631197515089891010000004318059917595026078_" points="1326.6 198.3 982.4 542.5 982.4 1019.7 1326.6 675.5"/></defs><clipPath id="SVGID_00000077308369693844269410000001883957854676888983_"><use xlink:href="#SVGID_00000032631197515089891010000004318059917595026078_" style="overflow:visible"/></clipPath><g transform="matrix(1 0 0 1 -6.103516e-05 0)" style="clip-path:url(#SVGID_00000077308369693844269410000001883957854676888983_)"><image style="overflow:visible;enable-background:new" width="2048" height="1365" transform="matrix(0.5743 0 0 0.5743 747.6 189.1237)" xlink:href="../../../../../Downloads/215339618_4144229282325296_4248557124656967950_n.jpg"/></g></g></g></g></g></g><g><g><g><g><g><defs><polygon id="SVGID_00000091715722064566891680000017454721243225023679_" points="1326.6 198.3 982.4 542.5 982.4 1019.7 1326.6 675.5"/></defs><clipPath id="SVGID_00000085947154126706615580000018286439102374207875_"><use xlink:href="#SVGID_00000091715722064566891680000017454721243225023679_" style="overflow:visible"/></clipPath><g style="clip-path:url(#SVGID_00000085947154126706615580000018286439102374207875_)"><image style="overflow:visible;enable-background:new" width="2048" height="1365" transform="matrix(0.5743 0 0 0.5743 750.6 141.1237)" xlink:href="../../../../../Downloads/215339618_4144229282325296_4248557124656967950_n.jpg"/></g></g></g></g></g></g></g><linearGradient id="SVGID_00000127038788642272374270000011942271030172400795_" x1="0" x2="556" y1="2715.85" y2="2715.85" gradientTransform="matrix(1 0 0 -1 0 3040)" gradientUnits="userSpaceOnUse"><stop offset="0" style="stop-color:#00beff"/><stop offset="1" style="stop-color:#fff"/></linearGradient><polygon style="fill:url(#SVGID_00000127038788642272374270000011942271030172400795_)" points="556 150.7 405.3 0 0 0 0 92.3 556 648.3"/><linearGradient id="SVGID_00000114064779591217492420000008516765427550759088_" x1="1364" x2="1920" y1="2715.85" y2="2715.85" gradientTransform="matrix(1 0 0 -1 0 3040)" gradientUnits="userSpaceOnUse"><stop offset="0" style="stop-color:#fff"/><stop offset="1" style="stop-color:#00beff"/></linearGradient><polygon style="fill:url(#SVGID_00000114064779591217492420000008516765427550759088_)" points="1514.7 0 1364 150.7 1364 648.3 1920 92.3 1920 0"/></g><g><g><linearGradient id="SVGID_00000064336915197378342040000014653373237141242499_" x1="1744.85" x2="1744.85" y1="2310.3" y2="1960" gradientTransform="matrix(1 0 0 -1 0 3040)" gradientUnits="userSpaceOnUse"><stop offset="0" style="stop-color:#efe"/><stop offset=".5" style="stop-color:#fff"/><stop offset="1" style="stop-color:#779"/></linearGradient><path style="fill:url(#SVGID_00000064336915197378342040000014653373237141242499_)" d="M1905,765.9V1065h-299.1L1905,765.9 M1920,729.7L1569.7,1080H1920V729.7L1920,729.7z"/></g><g><linearGradient id="SVGID_00000114795676879563195090000013018190008789054113_" x1="175.15" x2="175.15" y1="2310.3" y2="1960" gradientTransform="matrix(1 0 0 -1 0 3040)" gradientUnits="userSpaceOnUse"><stop offset="0" style="stop-color:#efe"/><stop offset=".5" style="stop-color:#fff"/><stop offset="1" style="stop-color:#779"/></linearGradient><path style="fill:url(#SVGID_00000114795676879563195090000013018190008789054113_)" d="M15,765.9L314.1,1065H15V765.9 M0,729.7 V1080h350.3L0,729.7L0,729.7z"/></g><g><linearGradient id="SVGID_00000070827797355527574990000018143467163146352288_" x1="1658.35" x2="1658.35" y1="2905.3" y2="2382" gradientTransform="matrix(1 0 0 -1 0 3040)" gradientUnits="userSpaceOnUse"><stop offset="0" style="stop-color:#efe"/><stop offset=".5" style="stop-color:#fff"/><stop offset="1" style="stop-color:#779"/></linearGradient><path style="fill:url(#SVGID_00000070827797355527574990000018143467163146352288_)" d="M1905,170.9V643h-472.1L1905,170.9 M1920,134.7L1396.7,658H1920V134.7L1920,134.7z"/></g><g><linearGradient id="SVGID_00000133516256407779222400000015671927956259636661_" x1="1447" x2="1447" y1="2352" y2="1960" gradientTransform="matrix(1 0 0 -1 0 3040)" gradientUnits="userSpaceOnUse"><stop offset="0" style="stop-color:#efe"/><stop offset=".5" style="stop-color:#fff"/><stop offset="1" style="stop-color:#779"/></linearGradient><path style="fill:url(#SVGID_00000133516256407779222400000015671927956259636661_)" d="M1883.1,703l-362,362H1011l362-362 H1883.1 M1919.3,688h-552.6l-392,392h552.6L1919.3,688L1919.3,688z"/></g><g><linearGradient id="SVGID_00000085962970693267176770000003485392739713555876_" x1="261.65" x2="261.65" y1="2905.3" y2="2382" gradientTransform="matrix(1 0 0 -1 0 3040)" gradientUnits="userSpaceOnUse"><stop offset="0" style="stop-color:#efe"/><stop offset=".5" style="stop-color:#fff"/><stop offset="1" style="stop-color:#779"/></linearGradient><path style="fill:url(#SVGID_00000085962970693267176770000003485392739713555876_)" d="M15,170.9L487.1,643H15V170.9 M0,134.7 V658h523.3L0,134.7L0,134.7z"/></g><g><linearGradient id="SVGID_00000038394028324685521810000012360690799627768732_" x1="473" x2="473" y1="2352" y2="1960" gradientTransform="matrix(1 0 0 -1 0 3040)" gradientUnits="userSpaceOnUse"><stop offset="0" style="stop-color:#efe"/><stop offset=".5" style="stop-color:#fff"/><stop offset="1" style="stop-color:#779"/></linearGradient><path style="fill:url(#SVGID_00000038394028324685521810000012360690799627768732_)" d="M547.1,703l362,362H398.9l-362-362H547.1 M553.3,688H0.7l392,392h552.6L553.3,688L553.3,688z"/></g><g><linearGradient id="SVGID_00000093869191714795775690000012841492428300913302_" x1="960" x2="960" y1="3040" y2="2527.7" gradientTransform="matrix(1 0 0 -1 0 3040)" gradientUnits="userSpaceOnUse"><stop offset="0" style="stop-color:#efe"/><stop offset=".5" style="stop-color:#fff"/><stop offset="1" style="stop-color:#779"/></linearGradient><path style="fill:url(#SVGID_00000093869191714795775690000012841492428300913302_)" d="M1436.1,15L960,491.1L483.9,15H1436.1 M1472.3,0H447.7L960,512.3L1472.3,0L1472.3,0z"/></g><g><linearGradient id="SVGID_00000073705179608559993970000012269450565834878869_" x1="765.5" x2="765.5" y1="2859.3" y2="2002.7" gradientTransform="matrix(1 0 0 -1 0 3040)" gradientUnits="userSpaceOnUse"><stop offset="0" style="stop-color:#efe"/><stop offset=".5" style="stop-color:#fff"/><stop offset="1" style="stop-color:#779"/></linearGradient><path style="fill:url(#SVGID_00000073705179608559993970000012269450565834878869_)" d="M601,216.9l329,329V1001L601,672V216.9 M586,180.7v497.6l359,359V539.7L586,180.7L586,180.7z"/></g><g><linearGradient id="SVGID_00000153695854338526499770000003924711055653468555_" x1="1154.5" x2="1154.5" y1="2859.3" y2="2002.7" gradientTransform="matrix(1 0 0 -1 0 3040)" gradientUnits="userSpaceOnUse"><stop offset="0" style="stop-color:#efe"/><stop offset=".5" style="stop-color:#fff"/><stop offset="1" style="stop-color:#779"/></linearGradient><path style="fill:url(#SVGID_00000153695854338526499770000003924711055653468555_)" d="M1319,216.9V672l-329,329V545.9 L1319,216.9 M1334,180.7l-359,359v497.6l359-359V180.7L1334,180.7z"/></g><g><linearGradient id="SVGID_00000103953968282128431870000016220302792247222172_" x1="278" x2="278" y1="3040" y2="2391.7" gradientTransform="matrix(1 0 0 -1 0 3040)" gradientUnits="userSpaceOnUse"><stop offset="0" style="stop-color:#efe"/><stop offset=".5" style="stop-color:#fff"/><stop offset="1" style="stop-color:#779"/></linearGradient><path style="fill:url(#SVGID_00000103953968282128431870000016220302792247222172_)" d="M399.1,15L541,156.9V612L15,86.1V15 H399.1 M405.3,0H0v92.3l556,556V150.7L405.3,0L405.3,0z"/></g><g><linearGradient id="SVGID_00000018930608197088505950000009491062732968177550_" x1="1642" x2="1642" y1="3040" y2="2391.7" gradientTransform="matrix(1 0 0 -1 0 3040)" gradientUnits="userSpaceOnUse"><stop offset="0" style="stop-color:#efe"/><stop offset=".5" style="stop-color:#fff"/><stop offset="1" style="stop-color:#779"/></linearGradient><path style="fill:url(#SVGID_00000018930608197088505950000009491062732968177550_)" d="M1905,15v71.1l-526,526V156.9L1520.9,15 H1905 M1920,0h-405.3L1364,150.7v497.6l556-556V0L1920,0z"/></g></g></svg>