<svg enable-background="new 0 0 360 240" viewBox="0 0 360 240" xmlns="http://www.w3.org/2000/svg" xmlns:xlink="http://www.w3.org/1999/xlink"><linearGradient id="a"><stop offset=".005742825" stop-opacity="0"/><stop offset=".7676" stop-opacity="0"/><stop offset=".899" stop-opacity="0"/><stop offset=".8999" stop-opacity=".3412"/><stop offset=".9" stop-opacity=".4"/><stop offset="1" stop-opacity=".4"/></linearGradient><linearGradient id="b" gradientUnits="userSpaceOnUse" x1="179.875" x2="179.875" xlink:href="#a" y1="0" y2="20"/><linearGradient id="c" gradientUnits="userSpaceOnUse" x1="179.875" x2="179.875" xlink:href="#a" y1="20.0455" y2="40.0455"/><linearGradient id="d" gradientUnits="userSpaceOnUse" x1="179.875" x2="179.875" xlink:href="#a" y1="40.0909" y2="60.0909"/><linearGradient id="e" gradientUnits="userSpaceOnUse" x1="179.875" x2="179.875" xlink:href="#a" y1="60.1364" y2="80.1364"/><linearGradient id="f" gradientUnits="userSpaceOnUse" x1="179.875" x2="179.875" xlink:href="#a" y1="80.1818" y2="100.1818"/><linearGradient id="g" gradientUnits="userSpaceOnUse" x1="179.875" x2="179.875" xlink:href="#a" y1="100.2273" y2="120.2273"/><linearGradient id="h" gradientUnits="userSpaceOnUse" x1="179.875" x2="179.875" xlink:href="#a" y1="120.2727" y2="140.2727"/><linearGradient id="i" gradientUnits="userSpaceOnUse" x1="179.875" x2="179.875" xlink:href="#a" y1="140.3182" y2="160.3182"/><linearGradient id="j" gradientUnits="userSpaceOnUse" x1="179.875" x2="179.875" xlink:href="#a" y1="160.3636" y2="180.3636"/><linearGradient id="k" gradientUnits="userSpaceOnUse" x1="179.875" x2="179.875" xlink:href="#a" y1="180.4091" y2="200.4091"/><linearGradient id="l" gradientUnits="userSpaceOnUse" x1="179.875" x2="179.875" xlink:href="#a" y1="200.4545" y2="220.4545"/><linearGradient id="m" gradientUnits="userSpaceOnUse" x1="179.875" x2="179.875" xlink:href="#a" y1="220.5" y2="240.5"/><linearGradient id="n"><stop offset=".00114832" stop-opacity=".4"/><stop offset=".5" stop-opacity="0"/><stop offset="1" stop-opacity=".4"/></linearGradient><linearGradient id="o" gradientUnits="userSpaceOnUse" x1="240" x2="340" xlink:href="#n" y1="170.3636" y2="170.3636"/><linearGradient id="p" gradientUnits="userSpaceOnUse" x1="220" x2="320" xlink:href="#n" y1="190.4091" y2="190.4091"/><linearGradient id="q" gradientUnits="userSpaceOnUse" x1="60" x2="160" xlink:href="#n" y1="190.4091" y2="190.4091"/><linearGradient id="r" gradientUnits="userSpaceOnUse" x1="40" x2="140" xlink:href="#n" y1="70.1364" y2="70.1364"/><linearGradient id="s" gradientUnits="userSpaceOnUse" x1="60" x2="160" xlink:href="#n" y1="50.0909" y2="50.0909"/><linearGradient id="t" gradientUnits="userSpaceOnUse" x1="240" x2="340" xlink:href="#n" y1="70.1364" y2="70.1364"/><linearGradient id="u" gradientUnits="userSpaceOnUse" x1="200" x2="300" xlink:href="#n" y1="30.0454" y2="30.0454"/><linearGradient id="v" gradientUnits="userSpaceOnUse" x1="280" x2="359.875" xlink:href="#n" y1="110.2272" y2="110.2272"/><linearGradient id="w" gradientUnits="userSpaceOnUse" x1="160" x2="220" xlink:href="#n" y1="110.2272" y2="110.2272"/><linearGradient id="x" gradientUnits="userSpaceOnUse" x1="40" x2="140" xlink:href="#n" y1="170.3636" y2="170.3636"/><linearGradient id="y" gradientUnits="userSpaceOnUse" x1="20" x2="120" xlink:href="#n" y1="150.3182" y2="150.3182"/><linearGradient id="z" gradientUnits="userSpaceOnUse" x1="220" x2="320" xlink:href="#n" y1="50.0909" y2="50.0909"/><linearGradient id="A" gradientUnits="userSpaceOnUse" x1="160" x2="220" xlink:href="#n" y1="130.2727" y2="130.2727"/><linearGradient id="B" gradientUnits="userSpaceOnUse" x1="80" x2="180" xlink:href="#n" y1="30.0454" y2="30.0454"/><linearGradient id="C" gradientUnits="userSpaceOnUse" x1="180" x2="200" xlink:href="#n" y1="100.0909" y2="100.0909"/><linearGradient id="D" gradientUnits="userSpaceOnUse" x1="180" x2="200" xlink:href="#n" y1="150.1591" y2="150.1591"/><linearGradient id="E" gradientUnits="userSpaceOnUse" x1="-.125" x2="100" xlink:href="#n" y1="110.2272" y2="110.2272"/><linearGradient id="F" gradientUnits="userSpaceOnUse" x1="280" x2="460" xlink:href="#n" y1="130.2727" y2="130.2727"/><linearGradient id="G" gradientUnits="userSpaceOnUse" x1="-80" x2="100" xlink:href="#n" y1="130.2727" y2="130.2727"/><linearGradient id="H" gradientUnits="userSpaceOnUse" x1="-.125" x2="0" xlink:href="#n" y1="70.1364" y2="70.1364"/><linearGradient id="I" gradientUnits="userSpaceOnUse" x1="-.125" x2="0" xlink:href="#n" y1="150.3182" y2="150.3182"/><linearGradient id="J" gradientUnits="userSpaceOnUse" x1="-.125" x2="0" xlink:href="#n" y1="90.1818" y2="90.1818"/><linearGradient id="K" gradientUnits="userSpaceOnUse" x1="-.125" x2="0" xlink:href="#n" y1="170.3636" y2="170.3636"/><linearGradient id="L" gradientUnits="userSpaceOnUse" x1="-.125" x2="20" xlink:href="#n" y1="210.4545" y2="210.4545"/><linearGradient id="M" gradientUnits="userSpaceOnUse" x1="-.125" x2="0" xlink:href="#n" y1="190.4091" y2="190.4091"/><linearGradient id="N" gradientUnits="userSpaceOnUse" x1="80" x2="180" xlink:href="#n" y1="210.4545" y2="210.4545"/><linearGradient id="O" gradientUnits="userSpaceOnUse" x1="260" x2="359.875" xlink:href="#n" y1="90.1818" y2="90.1818"/><linearGradient id="P" gradientUnits="userSpaceOnUse" x1="200" x2="300" xlink:href="#n" y1="210.4545" y2="210.4545"/><linearGradient id="Q" gradientUnits="userSpaceOnUse" x1="260" x2="359.875" xlink:href="#n" y1="150.3182" y2="150.3182"/><linearGradient id="R" gradientUnits="userSpaceOnUse" x1="20" x2="120" xlink:href="#n" y1="90.1818" y2="90.1818"/><linearGradient id="S" gradientUnits="userSpaceOnUse" x1="-.125" x2="20" xlink:href="#n" y1="30.0454" y2="30.0454"/><linearGradient id="T" gradientUnits="userSpaceOnUse" x1="-.125" x2="0" xlink:href="#n" y1="50.0909" y2="50.0909"/><linearGradient id="U" gradientUnits="userSpaceOnUse" x1="-20" x2="40" xlink:href="#n" y1="10" y2="10"/><linearGradient id="V" gradientUnits="userSpaceOnUse" x1="339.5" x2="399.5" xlink:href="#n" y1="9.5" y2="9.5"/><linearGradient id="W" gradientUnits="userSpaceOnUse" x1="120" x2="260" xlink:href="#n" y1="10" y2="10"/><linearGradient id="X" gradientUnits="userSpaceOnUse" x1="-.125" x2="359.875" xlink:href="#n" y1="230.5" y2="230.5"/><linearGradient id="Y" gradientUnits="userSpaceOnUse" x1="-.125" x2="20" xlink:href="#n" y1="230.5" y2="230.5"/><linearGradient id="Z"><stop offset=".00114832" stop-color="#e6d7b7"/><stop offset=".899" stop-color="#e6d7b7"/><stop offset=".9" stop-color="#8c6239"/><stop offset="1" stop-color="#8c6239"/></linearGradient><linearGradient id="aa" gradientUnits="userSpaceOnUse" x1="340" x2="360" xlink:href="#Z" y1="200" y2="200"/><linearGradient id="ab" gradientUnits="userSpaceOnUse" x1="340" x2="360" xlink:href="#Z" y1="60" y2="60"/><linearGradient id="ac" gradientUnits="userSpaceOnUse" x1="320" x2="340" xlink:href="#Z" y1="250" y2="250"/><linearGradient id="ad" gradientUnits="userSpaceOnUse" x1="320" x2="340" xlink:href="#Z" y1="10" y2="10"/><linearGradient id="ae" gradientUnits="userSpaceOnUse" x1="300" x2="320" xlink:href="#Z" y1="250" y2="250"/><linearGradient id="af" gradientUnits="userSpaceOnUse" x1="300" x2="320" xlink:href="#Z" y1="10" y2="10"/><linearGradient id="ag" gradientUnits="userSpaceOnUse" x1="280" x2="300" xlink:href="#Z" y1="130" y2="130"/><linearGradient id="ah" gradientUnits="userSpaceOnUse" x1="280" x2="300" xlink:href="#Z" y1="250" y2="250"/><linearGradient id="ai" gradientUnits="userSpaceOnUse" x1="280" x2="300" xlink:href="#Z" y1="10" y2="10"/><linearGradient id="aj" gradientUnits="userSpaceOnUse" x1="260" x2="280" xlink:href="#Z" y1="130" y2="130"/><linearGradient id="ak" gradientUnits="userSpaceOnUse" x1="260" x2="280" xlink:href="#Z" y1="10" y2="10"/><linearGradient id="al" gradientUnits="userSpaceOnUse" x1="240" x2="260" xlink:href="#Z" y1="130" y2="130"/><linearGradient id="am" gradientUnits="userSpaceOnUse" x1="220" x2="240" xlink:href="#Z" y1="130" y2="130"/><linearGradient id="an" gradientUnits="userSpaceOnUse" x1="200" x2="220" xlink:href="#Z" y1="180" y2="180"/><linearGradient id="ao" gradientUnits="userSpaceOnUse" x1="200" x2="220" xlink:href="#Z" y1="80" y2="80"/><linearGradient id="ap" gradientUnits="userSpaceOnUse" x1="180" x2="200" xlink:href="#Z" y1="200" y2="200"/><linearGradient id="aq" gradientUnits="userSpaceOnUse" x1="180" x2="200" xlink:href="#Z" y1="60" y2="60"/><linearGradient id="ar" gradientUnits="userSpaceOnUse" x1="160" x2="180" xlink:href="#Z" y1="180" y2="180"/><linearGradient id="as" gradientUnits="userSpaceOnUse" x1="160" x2="180" xlink:href="#Z" y1="80" y2="80"/><linearGradient id="at" gradientUnits="userSpaceOnUse" x1="140" x2="160" xlink:href="#Z" y1="130" y2="130"/><linearGradient id="au" gradientUnits="userSpaceOnUse" x1="120" x2="140" xlink:href="#Z" y1="130" y2="130"/><linearGradient id="av" gradientUnits="userSpaceOnUse" x1="100" x2="120" xlink:href="#Z" y1="130" y2="130"/><linearGradient id="aw" gradientUnits="userSpaceOnUse" x1="100" x2="120" xlink:href="#Z" y1="10" y2="10"/><linearGradient id="ax" gradientUnits="userSpaceOnUse" x1="80" x2="100" xlink:href="#Z" y1="130" y2="130"/><linearGradient id="ay" gradientUnits="userSpaceOnUse" x1="80" x2="100" xlink:href="#Z" y1="250" y2="250"/><linearGradient id="az" gradientUnits="userSpaceOnUse" x1="80" x2="100" xlink:href="#Z" y1="10" y2="10"/><linearGradient id="aA" gradientUnits="userSpaceOnUse" x1="60" x2="80" xlink:href="#Z" y1="250" y2="250"/><linearGradient id="aB" gradientUnits="userSpaceOnUse" x1="60" x2="80" xlink:href="#Z" y1="10" y2="10"/><linearGradient id="aC" gradientUnits="userSpaceOnUse" x1="40" x2="60" xlink:href="#Z" y1="250" y2="250"/><linearGradient id="aD" gradientUnits="userSpaceOnUse" x1="40" x2="60" xlink:href="#Z" y1="10" y2="10"/><linearGradient id="aE" gradientUnits="userSpaceOnUse" x1="20" x2="40" xlink:href="#Z" y1="200" y2="200"/><linearGradient id="aF" gradientUnits="userSpaceOnUse" x1="20" x2="40" xlink:href="#Z" y1="60" y2="60"/><linearGradient id="aG" gradientUnits="userSpaceOnUse" x1="0" x2="20" xlink:href="#Z" y1="180" y2="180"/><linearGradient id="aH" gradientUnits="userSpaceOnUse" x1="0" x2="20" xlink:href="#Z" y1="80" y2="80"/><linearGradient id="aI"><stop offset=".00114832" stop-opacity=".2"/><stop offset=".5" stop-opacity="0"/><stop offset="1" stop-opacity=".2"/></linearGradient><linearGradient id="aJ" gradientUnits="userSpaceOnUse" x1="350" x2="350" xlink:href="#aI" y1="160" y2="240"/><linearGradient id="aK" gradientUnits="userSpaceOnUse" x1="350" x2="350" xlink:href="#aI" y1="20" y2="100"/><linearGradient id="aL" gradientUnits="userSpaceOnUse" x1="330" x2="330" xlink:href="#aI" y1="180" y2="320"/><linearGradient id="aM" gradientUnits="userSpaceOnUse" x1="330" x2="330" xlink:href="#aI" y1="-60" y2="80"/><linearGradient id="aN" gradientUnits="userSpaceOnUse" x1="310" x2="310" xlink:href="#aI" y1="200" y2="300"/><linearGradient id="aO" gradientUnits="userSpaceOnUse" x1="310" x2="310" xlink:href="#aI" y1="-40" y2="60"/><linearGradient id="aP" gradientUnits="userSpaceOnUse" x1="290" x2="290" xlink:href="#aI" y1="120" y2="140"/><linearGradient id="aQ" gradientUnits="userSpaceOnUse" x1="290" x2="290" xlink:href="#aI" y1="220" y2="280"/><linearGradient id="aR" gradientUnits="userSpaceOnUse" x1="290" x2="290" xlink:href="#aI" y1="-20" y2="40"/><linearGradient id="aS" gradientUnits="userSpaceOnUse" x1="270" x2="270" xlink:href="#aI" y1="100" y2="160"/><linearGradient id="aT" gradientUnits="userSpaceOnUse" x1="270" x2="270" xlink:href="#aI" y1="0" y2="20"/><linearGradient id="aU" gradientUnits="userSpaceOnUse" x1="250" x2="250" xlink:href="#aI" y1="80" y2="180"/><linearGradient id="aV" gradientUnits="userSpaceOnUse" x1="230" x2="230" xlink:href="#aI" y1="60" y2="200"/><linearGradient id="aW" gradientUnits="userSpaceOnUse" x1="210" x2="210" xlink:href="#aI" y1="140" y2="220"/><linearGradient id="aX" gradientUnits="userSpaceOnUse" x1="210" x2="210" xlink:href="#aI" y1="40" y2="120"/><linearGradient id="aY" gradientUnits="userSpaceOnUse" x1="190" x2="190" xlink:href="#aI" y1="160" y2="240"/><linearGradient id="aZ" gradientUnits="userSpaceOnUse" x1="190" x2="190" xlink:href="#aI" y1="20" y2="100"/><linearGradient id="a0" gradientUnits="userSpaceOnUse" x1="170" x2="170" xlink:href="#aI" y1="140" y2="220"/><linearGradient id="a1" gradientUnits="userSpaceOnUse" x1="170" x2="170" xlink:href="#aI" y1="40" y2="120"/><linearGradient id="a2" gradientUnits="userSpaceOnUse" x1="150" x2="150" xlink:href="#aI" y1="60" y2="200"/><linearGradient id="a3" gradientUnits="userSpaceOnUse" x1="130" x2="130" xlink:href="#aI" y1="80" y2="180"/><linearGradient id="a4" gradientUnits="userSpaceOnUse" x1="110" x2="110" xlink:href="#aI" y1="100" y2="160"/><linearGradient id="a5" gradientUnits="userSpaceOnUse" x1="110" x2="110" xlink:href="#aI" y1="0" y2="20"/><linearGradient id="a6" gradientUnits="userSpaceOnUse" x1="90" x2="90" xlink:href="#aI" y1="120" y2="140"/><linearGradient id="a7" gradientUnits="userSpaceOnUse" x1="90" x2="90" xlink:href="#aI" y1="220" y2="280"/><linearGradient id="a8" gradientUnits="userSpaceOnUse" x1="90" x2="90" xlink:href="#aI" y1="-20" y2="40"/><linearGradient id="a9" gradientUnits="userSpaceOnUse" x1="70" x2="70" xlink:href="#aI" y1="200" y2="300"/><linearGradient id="ba" gradientUnits="userSpaceOnUse" x1="70" x2="70" xlink:href="#aI" y1="-40" y2="60"/><linearGradient id="bb" gradientUnits="userSpaceOnUse" x1="50" x2="50" xlink:href="#aI" y1="180" y2="320"/><linearGradient id="bc" gradientUnits="userSpaceOnUse" x1="50" x2="50" xlink:href="#aI" y1="-60" y2="80"/><linearGradient id="bd" gradientUnits="userSpaceOnUse" x1="30" x2="30" xlink:href="#aI" y1="160" y2="240"/><linearGradient id="be" gradientUnits="userSpaceOnUse" x1="30" x2="30" xlink:href="#aI" y1="20" y2="100"/><linearGradient id="bf" gradientUnits="userSpaceOnUse" x1="10" x2="10" xlink:href="#aI" y1="140" y2="220"/><linearGradient id="bg" gradientUnits="userSpaceOnUse" x1="10" x2="10" xlink:href="#aI" y1="40" y2="120"/><path d="m-.12 0h360v20h-360z" fill="url(#b)"/><path d="m-.12 20.05h360v20h-360z" fill="url(#c)"/><path d="m-.12 40.09h360v20h-360z" fill="url(#d)"/><path d="m-.12 60.14h360v20h-360z" fill="url(#e)"/><path d="m-.12 80.18h360v20h-360z" fill="url(#f)"/><path d="m-.12 100.23h360v20h-360z" fill="url(#g)"/><path d="m-.12 120.27h360v20h-360z" fill="url(#h)"/><path d="m-.12 140.32h360v20h-360z" fill="url(#i)"/><path d="m-.12 160.36h360v20h-360z" fill="url(#j)"/><path d="m-.12 180.41h360v20h-360z" fill="url(#k)"/><path d="m-.12 200.45h360v20h-360z" fill="url(#l)"/><path d="m-.12 220.5h360v20h-360z" fill="url(#m)"/><path d="m260 180h-20v.36h80v-.36h20v-19.64h-80z" fill="url(#o)"/><path d="m300 200h20v-19.59h-80v19.59h-20v.41h80z" fill="url(#p)"/><path d="m160 200.41v-.41h-20v-19.59h-80v19.59h20v.41z" fill="url(#q)"/><path d="m120 80.14v-.14h20v-19.86h-80v19.86h-20v.14z" fill="url(#r)"/><path d="m80 60h-20v.09h80v-.09h20v-19.91h-80z" fill="url(#s)"/><path d="m340 80.14v-.14h-20v-19.86h-80v19.86h20v.14z" fill="url(#t)"/><path d="m200 20.05v19.95h20v.05h80v-.05h-20v-19.95z" fill="url(#u)"/><path d="m359.88 100.23h-79.88v19.77h20v.23h59.88z" fill="url(#v)"/><path d="m220 120.23v-.23h-20v-19.77h-20v19.77h-20v.23z" fill="url(#w)"/><path d="m60 180.36h80v-.36h-20v-19.64h-80v19.64h20z" fill="url(#x)"/><path d="m40 160.32h80v-.32h-20v-19.68h-80v19.68h20z" fill="url(#y)"/><path d="m220 40.09v19.91h20v.09h80v-.09h-20v-19.91z" fill="url(#z)"/><path d="m180 140.27h20v-.27h20v-19.73h-60v19.73h20z" fill="url(#A)"/><path d="m100 40h-20v.05h80v-.05h20v-19.95h-80z" fill="url(#B)"/><path d="m180 100h20v.18h-20z" fill="url(#C)"/><path d="m180 140.32h20v19.68h-20z" fill="url(#D)"/><path d="m80 120h20v-19.77h-80v19.77h-20v-19.77h-.12v20h80.12z" fill="url(#E)"/><path d="m440 140v-19.73h-80.12-59.88v19.73h-20v.27h79.88.12v-.27h20v.27h80v-.27z" fill="url(#F)"/><path d="m80 140v-19.73h-80.12-59.88v19.73h-20v.27h79.88.12v-.27h20v.27h80v-.27z" fill="url(#G)"/><path d="m0 80v-19.86h-.12v20h.12z" fill="url(#H)"/><path d="m0 160v-19.68h-.12v20h.12z" fill="url(#I)"/><path d="m0 100v-19.82h-.12v20h.12z" fill="url(#J)"/><path d="m0 180v-19.64h-.12v20h.12z" fill="url(#K)"/><path d="m20 220h-20v-19.55h-.12v20h20.12z" fill="url(#L)"/><path d="m0 200v-19.59h-.12v20h.12z" fill="url(#M)"/><path d="m180 220.45v-.45h-20v-19.55h-80v19.55h20v.45z" fill="url(#N)"/><path d="m340 100v-19.82h-80v19.82h20v.18h79.88v-.18z" fill="url(#O)"/><path d="m280 220h20v-19.55h-80v19.55h-20v.45h80z" fill="url(#P)"/><path d="m280 140.32v19.68h-20v.32h80v-.32h19.88v-19.68z" fill="url(#Q)"/><path d="m100 100.18v-.18h20v-19.82h-80v19.82h-20v.18z" fill="url(#R)"/><path d="m0 40h20v-19.95h-20.12v20h.12z" fill="url(#S)"/><path d="m0 60v-19.91h-.12v20h.12z" fill="url(#T)"/><path d="m-.12 0h-19.88v20h19.88 20.12 20v-20z" fill="url(#U)"/><path d="m359.38-.5h-19.88v20h19.88 20.12 20v-20z" fill="url(#V)"/><path d="m180 20h20 60v-20h-140v20z" fill="url(#W)"/><path d="m359.88 240h-19.88-20-20-20v-19.5h-80v19.5h-20v-19.5h-80v19.5h-20-20-20-12.5v.5h332.38z" fill="url(#X)"/><path d="m-.12 220.5h20.12v20h-20.12z" fill="url(#Y)"/><path d="m340 160v20 20 20 20h20v-20-20-20-20z" fill="url(#aa)"/><path d="m340 20v20 20 20 20h20v-20-20-20-20z" fill="url(#ab)"/><path d="m320 180v20 20 20 20 20 20 20h20v-20-20-20-20-20-20-20z" fill="url(#ac)"/><path d="m320-60v20 20 20 20 20 20 20h20v-20-20-20-20-20-20-20z" fill="url(#ad)"/><path d="m300 200v20 20 20 20 20h20v-20-20-20-20-20z" fill="url(#ae)"/><path d="m300-40v20 20 20 20 20h20v-20-20-20-20-20z" fill="url(#af)"/><path d="m280 120h20v20h-20z" fill="url(#ag)"/><path d="m280 220v20 20 20h20v-20-20-20z" fill="url(#ah)"/><path d="m280-20v20 20 20h20v-20-20-20z" fill="url(#ai)"/><path d="m260 100v20 20 20h20v-20-20-20z" fill="url(#aj)"/><path d="m260 0h20v20h-20z" fill="url(#ak)"/><path d="m240 80v20 20 20 20 20h20v-20-20-20-20-20z" fill="url(#al)"/><path d="m220 60v20 20 20 20 20 20 20h20v-20-20-20-20-20-20-20z" fill="url(#am)"/><path d="m200 140v20 20 20 20h20v-20-20-20-20z" fill="url(#an)"/><path d="m200 40v20 20 20 20h20v-20-20-20-20z" fill="url(#ao)"/><path d="m180 160v20 20 20 20h20v-20-20-20-20z" fill="url(#ap)"/><path d="m180 20v20 20 20 20h20v-20-20-20-20z" fill="url(#aq)"/><path d="m160 140v20 20 20 20h20v-20-20-20-20z" fill="url(#ar)"/><path d="m160 40v20 20 20 20h20v-20-20-20-20z" fill="url(#as)"/><path d="m140 60v20 20 20 20 20 20 20h20v-20-20-20-20-20-20-20z" fill="url(#at)"/><path d="m120 80v20 20 20 20 20h20v-20-20-20-20-20z" fill="url(#au)"/><path d="m100 100v20 20 20h20v-20-20-20z" fill="url(#av)"/><path d="m100 0h20v20h-20z" fill="url(#aw)"/><path d="m80 120h20v20h-20z" fill="url(#ax)"/><path d="m80 220v20 20 20h20v-20-20-20z" fill="url(#ay)"/><path d="m80-20v20 20 20h20v-20-20-20z" fill="url(#az)"/><path d="m60 200v20 20 20 20 20h20v-20-20-20-20-20z" fill="url(#aA)"/><path d="m60-40v20 20 20 20 20h20v-20-20-20-20-20z" fill="url(#aB)"/><path d="m40 180v20 20 20 20 20 20 20h20v-20-20-20-20-20-20-20z" fill="url(#aC)"/><path d="m40-60v20 20 20 20 20 20 20h20v-20-20-20-20-20-20-20z" fill="url(#aD)"/><path d="m20 160v20 20 20 20h20v-20-20-20-20z" fill="url(#aE)"/><path d="m20 20v20 20 20 20h20v-20-20-20-20z" fill="url(#aF)"/><path d="m0 140v20 20 20 20h20v-20-20-20-20z" fill="url(#aG)"/><path d="m0 40v20 20 20 20h20v-20-20-20-20z" fill="url(#aH)"/><path d="m340 160v20 20 20 20h20v-20-20-20-20z" fill="url(#aJ)"/><path d="m340 20v20 20 20 20h20v-20-20-20-20z" fill="url(#aK)"/><path d="m320 180v20 20 20 20 20 20 20h20v-20-20-20-20-20-20-20z" fill="url(#aL)"/><path d="m320-60v20 20 20 20 20 20 20h20v-20-20-20-20-20-20-20z" fill="url(#aM)"/><path d="m300 200v20 20 20 20 20h20v-20-20-20-20-20z" fill="url(#aN)"/><path d="m300-40v20 20 20 20 20h20v-20-20-20-20-20z" fill="url(#aO)"/><path d="m280 120h20v20h-20z" fill="url(#aP)"/><path d="m280 220v20 20 20h20v-20-20-20z" fill="url(#aQ)"/><path d="m280-20v20 20 20h20v-20-20-20z" fill="url(#aR)"/><path d="m260 100v20 20 20h20v-20-20-20z" fill="url(#aS)"/><path d="m260 0h20v20h-20z" fill="url(#aT)"/><path d="m240 80v20 20 20 20 20h20v-20-20-20-20-20z" fill="url(#aU)"/><path d="m220 60v20 20 20 20 20 20 20h20v-20-20-20-20-20-20-20z" fill="url(#aV)"/><path d="m200 140v20 20 20 20h20v-20-20-20-20z" fill="url(#aW)"/><path d="m200 40v20 20 20 20h20v-20-20-20-20z" fill="url(#aX)"/><path d="m180 160v20 20 20 20h20v-20-20-20-20z" fill="url(#aY)"/><path d="m180 20v20 20 20 20h20v-20-20-20-20z" fill="url(#aZ)"/><path d="m160 140v20 20 20 20h20v-20-20-20-20z" fill="url(#a0)"/><path d="m160 40v20 20 20 20h20v-20-20-20-20z" fill="url(#a1)"/><path d="m140 60v20 20 20 20 20 20 20h20v-20-20-20-20-20-20-20z" fill="url(#a2)"/><path d="m120 80v20 20 20 20 20h20v-20-20-20-20-20z" fill="url(#a3)"/><path d="m100 100v20 20 20h20v-20-20-20z" fill="url(#a4)"/><path d="m100 0h20v20h-20z" fill="url(#a5)"/><path d="m80 120h20v20h-20z" fill="url(#a6)"/><path d="m80 220v20 20 20h20v-20-20-20z" fill="url(#a7)"/><path d="m80-20v20 20 20h20v-20-20-20z" fill="url(#a8)"/><path d="m60 200v20 20 20 20 20h20v-20-20-20-20-20z" fill="url(#a9)"/><path d="m60-40v20 20 20 20 20h20v-20-20-20-20-20z" fill="url(#ba)"/><path d="m40 180v20 20 20 20 20 20 20h20v-20-20-20-20-20-20-20z" fill="url(#bb)"/><path d="m40-60v20 20 20 20 20 20 20h20v-20-20-20-20-20-20-20z" fill="url(#bc)"/><path d="m20 160v20 20 20 20h20v-20-20-20-20z" fill="url(#bd)"/><path d="m20 20v20 20 20 20h20v-20-20-20-20z" fill="url(#be)"/><path d="m0 140v20 20 20 20h20v-20-20-20-20z" fill="url(#bf)"/><path d="m0 40v20 20 20 20h20v-20-20-20-20z" fill="url(#bg)"/></svg>