<?xml version="1.0" encoding="utf-8"?>
<!-- Generator: Adobe Illustrator 25.4.1, SVG Export Plug-In . SVG Version: 6.00 Build 0)  -->
<svg version="1.1" id="Layer_1" xmlns="http://www.w3.org/2000/svg" xmlns:xlink="http://www.w3.org/1999/xlink" x="0px" y="0px"
	 viewBox="0 0 1041.24 652.97" style="enable-background:new 0 0 1041.24 652.97;" xml:space="preserve">
<style type="text/css">
	.st0{fill:#595959;}
</style>
<g>
	<path class="st0" d="M260,316.51c-66.55,0-129.16-15.8-176.28-44.5c-23.03-14.02-41.14-30.38-53.81-48.62
		C16.7,204.37,10,184.14,10,163.25s6.7-41.11,19.91-60.13c12.67-18.24,30.77-34.6,53.81-48.62C130.84,25.8,193.45,10,260,10
		c66.55,0,129.16,15.8,176.28,44.5c23.03,14.02,41.14,30.38,53.81,48.62C503.3,122.14,510,142.37,510,163.25s-6.7,41.11-19.91,60.13
		c-12.67,18.24-30.77,34.6-53.81,48.62C389.16,300.7,326.55,316.51,260,316.51z M260,15.28c-134.94,0-244.72,66.38-244.72,147.98
		S125.06,311.23,260,311.23c134.94,0,244.72-66.38,244.72-147.98S394.94,15.28,260,15.28z"/>
	<g>
		<g>
			<polygon class="st0" points="230.35,99.82 219.66,93.65 230.35,87.47 241.05,81.3 241.05,93.65 241.05,105.99 			"/>
			<polygon class="st0" points="251.46,112.05 240.77,105.87 251.46,99.7 262.15,93.52 262.15,105.87 262.15,118.22 			"/>
			<polygon class="st0" points="272.57,124.27 261.87,118.1 272.57,111.92 283.26,105.75 283.26,118.1 283.26,130.45 			"/>
			<polygon class="st0" points="293.68,136.5 282.98,130.32 293.68,124.15 304.37,117.97 304.37,130.32 304.37,142.67 			"/>
			<polygon class="st0" points="314.78,148.72 304.09,142.55 314.78,136.37 325.48,130.2 325.48,142.55 325.48,154.9 			"/>
		</g>
		<path class="st0" d="M400.27,103.45c-30.34,0-55.47,22.7-59.3,52.01l4.99,2.88c2.49-27.77,25.89-49.62,54.31-49.62
			c30.07,0,54.53,24.46,54.53,54.53s-24.46,54.53-54.53,54.53c-6.34,0-12.42-1.09-18.08-3.09l-17.3-9.99l-14.36-8.29L169.77,92.06
			h-10.55l202.64,116.99l18.11,10.46c5.2,1.88,10.73,3.06,16.49,3.42c1.26,0.08,2.53,0.13,3.82,0.13
			c32.98,0,59.81-26.83,59.81-59.81C460.07,130.28,433.25,103.45,400.27,103.45z"/>
		<path class="st0" d="M400.27,123.24c-22.07,0-40.02,17.95-40.02,40.02c0,1.15,0.05,2.29,0.15,3.42l5.8,3.35
			c-0.43-2.19-0.67-4.45-0.67-6.77c0-19.16,15.58-34.74,34.74-34.74s34.74,15.58,34.74,34.74s-15.58,34.74-34.74,34.74
			c-4.19,0-8.2-0.75-11.92-2.12l-10.27-5.93l-12.87-7.43L208.52,92.06h-10.55l177.1,102.25l11.01,6.36
			c4.41,1.68,9.19,2.61,14.19,2.61c0.29,0,0.58,0,0.86-0.01c21.67-0.46,39.16-18.23,39.16-40.01
			C440.29,141.19,422.33,123.24,400.27,123.24z"/>
		<circle class="st0" cx="400.27" cy="163.25" r="8.36"/>
		<g>
			<path class="st0" d="M449.15,121.63l0.81,0.66l2.03-12.18l2.03-12.18l-11.56,4.34l-11.56,4.34l0.77,0.63
				C438.31,110.97,444.23,115.86,449.15,121.63z"/>
			<path class="st0" d="M452.8,126.34c4.34,6.16,7.62,13.12,9.58,20.61l0.4,0.87l7.1-10.11l7.1-10.11l-12.3-1.09l-12.3-1.09
				L452.8,126.34z"/>
			<path class="st0" d="M484.85,163.25l-10.69-6.17l-10.69-6.17v0.97c0.66,3.69,1.01,7.5,1.01,11.38c0,3.88-0.34,7.69-1.01,11.38
				v0.97l10.69-6.17L484.85,163.25z"/>
			<path class="st0" d="M400.27,99.05c0.28,0,0.55,0.01,0.83,0.01l1.04-0.17l-7.84-9.54l-7.84-9.54l-4.35,11.56l-4.35,11.56
				l0.94-0.16C385.45,100.36,392.71,99.05,400.27,99.05z"/>
			<path class="st0" d="M463.09,177.38l-0.39,0.89c-1.81,7.54-4.94,14.56-9.14,20.8l-0.4,0.91l12.27-1.35l12.27-1.35l-7.31-9.95
				L463.09,177.38z"/>
			<path class="st0" d="M428.31,105.49l0.93,0.26l-3.05-11.96l-3.05-11.96l-8.83,8.63l-8.83,8.63l0.99,0.28
				C414.22,100.09,421.6,102.22,428.31,105.49z"/>
			<path class="st0" d="M354.32,118.14l0.87-0.6c5.39-5.32,11.72-9.69,18.71-12.85l0.78-0.53l-11.14-5.32l-11.14-5.32l0.96,12.31
				L354.32,118.14z"/>
		</g>
	</g>
	<g>
		<g>
			<polygon class="st0" points="289.65,227.21 300.34,233.39 289.65,239.56 278.96,245.74 278.96,233.39 278.96,221.04 			"/>
			<polygon class="st0" points="268.54,214.99 279.24,221.16 268.54,227.34 257.85,233.51 257.85,221.16 257.85,208.81 			"/>
			<polygon class="st0" points="247.43,202.76 258.13,208.94 247.43,215.11 236.74,221.28 236.74,208.94 236.74,196.59 			"/>
			<polygon class="st0" points="226.33,190.54 237.02,196.71 226.33,202.88 215.63,209.06 215.63,196.71 215.63,184.36 			"/>
			<polygon class="st0" points="205.22,178.31 215.91,184.49 205.22,190.66 194.52,196.83 194.52,184.49 194.52,172.14 			"/>
		</g>
		<path class="st0" d="M119.73,223.59c30.34,0,55.47-22.7,59.3-52.01l-4.99-2.88c-2.49,27.77-25.89,49.62-54.31,49.62
			c-30.07,0-54.53-24.46-54.53-54.53s24.46-54.53,54.53-54.53c6.34,0,12.42,1.09,18.08,3.09l17.3,9.99l14.36,8.29l180.76,104.36
			h10.55L158.15,117.98l-18.11-10.46c-5.2-1.88-10.73-3.06-16.49-3.42c-1.26-0.08-2.53-0.13-3.82-0.13
			c-32.98,0-59.81,26.83-59.81,59.81C59.93,196.76,86.76,223.59,119.73,223.59z"/>
		<path class="st0" d="M119.73,203.8c22.07,0,40.02-17.95,40.02-40.02c0-1.15-0.05-2.29-0.15-3.42l-5.8-3.35
			c0.43,2.19,0.67,4.45,0.67,6.77c0,19.16-15.58,34.74-34.74,34.74s-34.74-15.58-34.74-34.74s15.58-34.74,34.74-34.74
			c4.19,0,8.2,0.75,11.92,2.12l10.27,5.93l12.87,7.43l156.68,90.46h10.55l-177.1-102.25l-11.01-6.36
			c-4.41-1.68-9.19-2.61-14.19-2.61c-0.29,0-0.58,0-0.86,0.01C97.2,124.23,79.72,142,79.72,163.78
			C79.72,185.85,97.67,203.8,119.73,203.8z"/>
		<circle class="st0" cx="119.73" cy="163.78" r="8.36"/>
		<g>
			<path class="st0" d="M70.85,205.4l-0.81-0.66l-2.03,12.18l-2.03,12.18l11.56-4.34l11.56-4.34l-0.77-0.63
				C81.7,216.06,75.77,211.17,70.85,205.4z"/>
			<path class="st0" d="M67.2,200.69c-4.34-6.16-7.62-13.12-9.58-20.61l-0.4-0.87l-7.1,10.11l-7.1,10.11l12.3,1.09l12.3,1.09
				L67.2,200.69z"/>
			<path class="st0" d="M35.15,163.78l10.69,6.17l10.69,6.17v-0.97c-0.66-3.69-1.01-7.5-1.01-11.38c0-3.88,0.34-7.69,1.01-11.38
				v-0.97l-10.69,6.17L35.15,163.78z"/>
			<path class="st0" d="M119.73,227.98c-0.28,0-0.55-0.01-0.83-0.01l-1.04,0.17l7.84,9.54l7.84,9.54l4.35-11.56l4.35-11.56
				l-0.94,0.16C134.55,226.67,127.29,227.98,119.73,227.98z"/>
			<path class="st0" d="M56.91,149.65l0.39-0.89c1.81-7.54,4.94-14.56,9.14-20.8l0.4-0.91l-12.27,1.35l-12.27,1.35l7.31,9.95
				L56.91,149.65z"/>
			<path class="st0" d="M91.69,221.55l-0.93-0.26l3.05,11.96l3.05,11.96l8.83-8.63l8.83-8.63l-0.99-0.28
				C105.78,226.94,98.41,224.81,91.69,221.55z"/>
			<path class="st0" d="M165.68,208.89l-0.87,0.6c-5.39,5.32-11.72,9.69-18.71,12.85l-0.78,0.53l11.14,5.32l11.14,5.32l-0.96-12.31
				L165.68,208.89z"/>
		</g>
	</g>
</g>
<g>
	<path class="st0" d="M780.62,642.97c-66.55,0-129.16-15.8-176.28-44.5c-23.03-14.02-41.14-30.38-53.81-48.62
		c-13.21-19.02-19.91-39.25-19.91-60.13s6.7-41.11,19.91-60.13c12.67-18.24,30.77-34.6,53.81-48.62
		c47.13-28.7,109.73-44.5,176.28-44.5c66.55,0,129.16,15.8,176.28,44.5c23.03,14.02,41.14,30.38,53.81,48.62
		c13.21,19.02,19.91,39.25,19.91,60.13s-6.7,41.11-19.91,60.13c-12.67,18.24-30.77,34.6-53.81,48.62
		C909.77,627.16,847.17,642.97,780.62,642.97z M780.62,341.73c-134.94,0-244.72,66.38-244.72,147.98s109.78,147.98,244.72,147.98
		c134.94,0,244.72-66.38,244.72-147.98S915.56,341.73,780.62,341.73z"/>
	<g>
		<g>
			<polygon class="st0" points="750.97,426.28 740.28,420.1 750.97,413.93 761.66,407.76 761.66,420.1 761.66,432.45 			"/>
			<polygon class="st0" points="772.08,438.5 761.39,432.33 772.08,426.15 782.77,419.98 782.77,432.33 782.77,444.68 			"/>
			<polygon class="st0" points="793.19,450.73 782.49,444.55 793.19,438.38 803.88,432.21 803.88,444.55 803.88,456.9 			"/>
			<polygon class="st0" points="814.3,462.95 803.6,456.78 814.3,450.61 824.99,444.43 824.99,456.78 824.99,469.13 			"/>
			<polygon class="st0" points="835.4,475.18 824.71,469.01 835.4,462.83 846.1,456.66 846.1,469.01 846.1,481.35 			"/>
		</g>
		<path class="st0" d="M920.89,429.9c-30.34,0-55.47,22.7-59.3,52.01l4.99,2.88c2.49-27.77,25.89-49.62,54.31-49.62
			c30.07,0,54.53,24.46,54.53,54.53c0,30.07-24.46,54.53-54.53,54.53c-6.34,0-12.42-1.09-18.08-3.09l-17.3-9.99l-14.36-8.29
			L690.39,418.52h-10.55l202.64,116.99l18.11,10.46c5.2,1.88,10.73,3.06,16.49,3.42c1.26,0.08,2.53,0.13,3.82,0.13
			c32.98,0,59.81-26.83,59.81-59.81C980.69,456.73,953.86,429.9,920.89,429.9z"/>
		<path class="st0" d="M920.89,449.69c-22.07,0-40.02,17.95-40.02,40.02c0,1.15,0.05,2.29,0.15,3.42l5.8,3.35
			c-0.43-2.19-0.67-4.45-0.67-6.77c0-19.16,15.58-34.74,34.74-34.74c19.16,0,34.74,15.58,34.74,34.74s-15.58,34.74-34.74,34.74
			c-4.19,0-8.2-0.75-11.92-2.12l-10.27-5.93l-12.87-7.43l-156.68-90.46h-10.55l177.1,102.25l11.01,6.36
			c4.41,1.68,9.19,2.61,14.19,2.61c0.29,0,0.58,0,0.86-0.01c21.67-0.46,39.16-18.23,39.16-40.01
			C960.9,467.65,942.95,449.69,920.89,449.69z"/>
		<circle class="st0" cx="920.89" cy="489.71" r="8.36"/>
		<g>
			<path class="st0" d="M969.77,448.09l0.81,0.66l2.03-12.18l2.03-12.18l-11.56,4.34l-11.56,4.34l0.77,0.63
				C958.92,437.43,964.85,442.32,969.77,448.09z"/>
			<path class="st0" d="M973.42,452.8c4.34,6.16,7.62,13.12,9.58,20.61l0.4,0.87l7.1-10.11l7.1-10.11l-12.3-1.09l-12.3-1.09
				L973.42,452.8z"/>
			<path class="st0" d="M1005.47,489.71l-10.69-6.17l-10.69-6.17v0.97c0.66,3.69,1.01,7.5,1.01,11.38c0,3.88-0.34,7.69-1.01,11.38
				v0.97l10.69-6.17L1005.47,489.71z"/>
			<path class="st0" d="M920.89,425.51c0.28,0,0.55,0.01,0.83,0.01l1.04-0.17l-7.84-9.54l-7.84-9.54l-4.35,11.56l-4.35,11.56
				l0.94-0.16C906.07,426.82,913.33,425.51,920.89,425.51z"/>
			<path class="st0" d="M983.71,503.84l-0.39,0.89c-1.81,7.54-4.94,14.56-9.14,20.8l-0.4,0.91l12.27-1.35l12.27-1.35l-7.31-9.95
				L983.71,503.84z"/>
			<path class="st0" d="M948.93,431.94l0.93,0.26l-3.05-11.96l-3.05-11.96l-8.83,8.63l-8.83,8.63l0.99,0.28
				C934.84,426.55,942.21,428.68,948.93,431.94z"/>
			<path class="st0" d="M874.94,444.6l0.87-0.6c5.39-5.32,11.72-9.69,18.71-12.85l0.78-0.53l-11.14-5.32l-11.14-5.32l0.96,12.31
				L874.94,444.6z"/>
		</g>
	</g>
	<g>
		<g>
			<polygon class="st0" points="810.27,553.67 820.96,559.84 810.27,566.02 799.58,572.19 799.58,559.84 799.58,547.5 			"/>
			<polygon class="st0" points="789.16,541.44 799.85,547.62 789.16,553.79 778.47,559.97 778.47,547.62 778.47,535.27 			"/>
			<polygon class="st0" points="768.05,529.22 778.75,535.39 768.05,541.57 757.36,547.74 757.36,535.39 757.36,523.05 			"/>
			<polygon class="st0" points="746.94,516.99 757.64,523.17 746.94,529.34 736.25,535.52 736.25,523.17 736.25,510.82 			"/>
			<polygon class="st0" points="725.84,504.77 736.53,510.94 725.84,517.12 715.14,523.29 715.14,510.94 715.14,498.59 			"/>
		</g>
		<path class="st0" d="M640.35,550.04c30.34,0,55.47-22.7,59.3-52.01l-4.99-2.88c-2.49,27.77-25.89,49.62-54.31,49.62
			c-30.07,0-54.53-24.46-54.53-54.53c0-30.07,24.46-54.53,54.53-54.53c6.34,0,12.42,1.09,18.08,3.09l17.3,9.99l14.36,8.29
			l180.76,104.36h10.55L678.77,444.44l-18.11-10.46c-5.2-1.88-10.73-3.06-16.49-3.42c-1.26-0.08-2.53-0.13-3.82-0.13
			c-32.98,0-59.81,26.83-59.81,59.81C580.55,523.21,607.38,550.04,640.35,550.04z"/>
		<path class="st0" d="M640.35,530.25c22.07,0,40.02-17.95,40.02-40.02c0-1.15-0.05-2.29-0.15-3.42l-5.8-3.35
			c0.43,2.19,0.67,4.45,0.67,6.77c0,19.16-15.58,34.74-34.74,34.74c-19.16,0-34.74-15.58-34.74-34.74s15.58-34.74,34.74-34.74
			c4.19,0,8.2,0.75,11.92,2.12l10.27,5.93l12.87,7.43l156.68,90.46h10.55l-177.1-102.25l-11.01-6.36
			c-4.41-1.68-9.19-2.61-14.19-2.61c-0.29,0-0.58,0-0.86,0.01c-21.67,0.46-39.16,18.23-39.16,40.01
			C600.34,512.3,618.29,530.25,640.35,530.25z"/>
		<circle class="st0" cx="640.35" cy="490.24" r="8.36"/>
		<g>
			<path class="st0" d="M591.47,531.86l-0.81-0.66l-2.03,12.18l-2.03,12.18l11.56-4.34l11.56-4.34l-0.77-0.63
				C602.32,542.52,596.39,537.63,591.47,531.86z"/>
			<path class="st0" d="M587.82,527.15c-4.34-6.16-7.62-13.12-9.58-20.61l-0.4-0.87l-7.1,10.11l-7.1,10.11l12.3,1.09l12.3,1.09
				L587.82,527.15z"/>
			<path class="st0" d="M555.77,490.24l10.69,6.17l10.69,6.17v-0.97c-0.66-3.69-1.01-7.5-1.01-11.38c0-3.88,0.34-7.69,1.01-11.38
				v-0.97l-10.69,6.17L555.77,490.24z"/>
			<path class="st0" d="M640.35,554.44c-0.28,0-0.55-0.01-0.83-0.01l-1.04,0.17l7.84,9.54l7.84,9.54l4.35-11.56l4.35-11.56
				l-0.94,0.16C655.17,553.13,647.91,554.44,640.35,554.44z"/>
			<path class="st0" d="M577.53,476.11l0.39-0.89c1.81-7.54,4.94-14.56,9.14-20.8l0.4-0.91l-12.27,1.35l-12.27,1.35l7.31,9.95
				L577.53,476.11z"/>
			<path class="st0" d="M612.31,548.01l-0.93-0.26l3.05,11.96l3.05,11.96l8.83-8.63l8.83-8.63l-0.99-0.28
				C626.4,553.4,619.03,551.27,612.31,548.01z"/>
			<path class="st0" d="M686.3,535.35l-0.87,0.6c-5.39,5.32-11.72,9.69-18.71,12.85l-0.78,0.53l11.14,5.32l11.14,5.32l-0.96-12.31
				L686.3,535.35z"/>
		</g>
	</g>
</g>
</svg>
