<?xml version="1.0" encoding="utf-8"?>
<!-- Generator: Adobe Illustrator 25.4.1, SVG Export Plug-In . SVG Version: 6.00 Build 0)  -->
<svg version="1.1" id="Layer_1" xmlns="http://www.w3.org/2000/svg" xmlns:xlink="http://www.w3.org/1999/xlink" x="0px" y="0px"
	 viewBox="0 0 70 70" style="enable-background:new 0 0 70 70;" xml:space="preserve">
<style type="text/css">
	.st0{opacity:0.1;fill:#FFFFFF;}
	.st1{opacity:0.2;fill:#FFFFFF;}
</style>
<g>
	<polygon class="st0" points="24.9,45 14.9,35 24.9,25 15,25 5,35 15,45 	"/>
	<polygon class="st0" points="35,14.9 45,24.9 45,15 35,5 25,15 25,24.9 	"/>
	<polygon class="st0" points="35,55.1 25,45.1 25,55 35,65 45,55 45,45.1 	"/>
	<polygon class="st0" points="45.1,25 55.1,35 45.1,45 55,45 65,35 55,25 	"/>
	<polygon class="st1" points="25,55 25,45 15,45 5,55 15,55 15,65 	"/>
	<polygon class="st1" points="45,45 45,55 55,65 55,55 65,55 55,45 	"/>
	<polygon class="st1" points="45,15 45,25 55,25 65,15 55,15 55,5 	"/>
	<polygon class="st1" points="25,25 25,15 15,5 15,15 5,15 15,25 	"/>
</g>
</svg>
