<?xml version="1.0" encoding="utf-8"?>
<!-- Generator: Adobe Illustrator 25.4.1, SVG Export Plug-In . SVG Version: 6.00 Build 0)  -->
<svg version="1.1" id="Layer_1" xmlns="http://www.w3.org/2000/svg" xmlns:xlink="http://www.w3.org/1999/xlink" x="0px" y="0px"
	 viewBox="0 0 319.28 317.06" style="enable-background:new 0 0 319.28 317.06;" xml:space="preserve">
<style type="text/css">
	.st0{opacity:0.1;fill:#FFFFFF;}
</style>
<polygon class="st0" points="229,11.19 233,14.06 230.13,10.06 233,6.06 229,8.93 225,6.06 227.87,10.06 225,14.06 "/>
<polygon class="st0" points="249,30.91 252,33.06 249.85,30.06 252,27.06 249,29.21 246,27.06 248.15,30.06 246,33.06 "/>
<polygon class="st0" points="189,11.48 194,15.06 190.41,10.06 194,5.06 189,8.65 184,5.06 187.59,10.06 184,15.06 "/>
<polygon class="st0" points="209,31.19 213,34.06 210.13,30.06 213,26.06 209,28.93 205,26.06 207.87,30.06 205,34.06 "/>
<polygon class="st0" points="228.5,48.71 225.5,46.56 227.65,49.56 225.5,52.56 228.5,50.41 231.5,52.56 229.35,49.56 231.5,46.56 
	"/>
<polygon class="st0" points="69,11.19 73,14.06 70.13,10.06 73,6.06 69,8.93 65,6.06 67.87,10.06 65,14.06 "/>
<polygon class="st0" points="89,30.91 92,33.06 89.85,30.06 92,27.06 89,29.21 86,27.06 88.15,30.06 86,33.06 "/>
<polygon class="st0" points="29,11.48 34,15.06 30.41,10.06 34,5.06 29,8.65 24,5.06 27.59,10.06 24,15.06 "/>
<polygon class="st0" points="49,31.19 53,34.06 50.13,30.06 53,26.06 49,28.93 45,26.06 47.87,30.06 45,34.06 "/>
<polygon class="st0" points="68.5,48.71 65.5,46.56 67.65,49.56 65.5,52.56 68.5,50.41 71.5,52.56 69.35,49.56 71.5,46.56 "/>
<polygon class="st0" points="109,11.76 115,16.06 110.7,10.06 115,4.06 109,8.36 103,4.06 107.3,10.06 103,16.06 "/>
<polygon class="st0" points="269,11.76 275,16.06 270.7,10.06 275,4.06 269,8.36 263,4.06 267.3,10.06 263,16.06 "/>
<polygon class="st0" points="169,112.61 178,119.06 171.55,110.06 178,101.06 169,107.52 160,101.06 166.45,110.06 160,119.06 "/>
<polygon class="st0" points="149,132.32 157,138.06 151.26,130.06 157,122.06 149,127.8 141,122.06 146.74,130.06 141,138.06 "/>
<polygon class="st0" points="129,152.04 136,157.06 130.98,150.06 136,143.06 129,148.08 122,143.06 127.02,150.06 122,157.06 "/>
<polygon class="st0" points="189,131.76 195,136.06 190.7,130.06 195,124.06 189,128.36 183,124.06 187.3,130.06 183,136.06 "/>
<polygon class="st0" points="209,151.48 214,155.06 210.41,150.06 214,145.06 209,148.65 204,145.06 207.59,150.06 204,155.06 "/>
<polygon class="st0" points="229,171.19 233,174.06 230.13,170.06 233,166.06 229,168.93 225,166.06 227.87,170.06 225,174.06 "/>
<polygon class="st0" points="249,189.21 246,187.06 248.15,190.06 246,193.06 249,190.91 252,193.06 249.85,190.06 252,187.06 "/>
<polygon class="st0" points="169,148.36 163,144.06 167.3,150.06 163,156.06 169,151.76 175,156.06 170.7,150.06 175,144.06 "/>
<polygon class="st0" points="189,168.65 184,165.06 187.59,170.06 184,175.06 189,171.48 194,175.06 190.41,170.06 194,165.06 "/>
<polygon class="st0" points="209,188.93 205,186.06 207.87,190.06 205,194.06 209,191.19 213,194.06 210.13,190.06 213,186.06 "/>
<polygon class="st0" points="228.5,208.71 225.5,206.56 227.65,209.56 225.5,212.56 228.5,210.41 231.5,212.56 229.35,209.56 
	231.5,206.56 "/>
<polygon class="st0" points="189,87.23 179,80.06 186.17,90.06 179,100.06 189,92.89 199,100.06 191.83,90.06 199,80.06 "/>
<polygon class="st0" points="209,107.52 200,101.06 206.45,110.06 200,119.06 209,112.61 218,119.06 211.55,110.06 218,101.06 "/>
<polygon class="st0" points="229,127.8 221,122.06 226.74,130.06 221,138.06 229,132.32 237,138.06 231.26,130.06 237,122.06 "/>
<polygon class="st0" points="249,152.04 256,157.06 250.98,150.06 256,143.06 249,148.08 242,143.06 247.02,150.06 242,157.06 "/>
<polygon class="st0" points="9,112.61 18,119.06 11.55,110.06 18,101.06 9,107.52 0,101.06 6.45,110.06 0,119.06 "/>
<polygon class="st0" points="29,131.76 35,136.06 30.7,130.06 35,124.06 29,128.36 23,124.06 27.3,130.06 23,136.06 "/>
<polygon class="st0" points="49,151.48 54,155.06 50.41,150.06 54,145.06 49,148.65 44,145.06 47.59,150.06 44,155.06 "/>
<polygon class="st0" points="69,171.19 73,174.06 70.13,170.06 73,166.06 69,168.93 65,166.06 67.87,170.06 65,174.06 "/>
<polygon class="st0" points="89,189.21 86,187.06 88.15,190.06 86,193.06 89,190.91 92,193.06 89.85,190.06 92,187.06 "/>
<polygon class="st0" points="9,148.36 3,144.06 7.3,150.06 3,156.06 9,151.76 15,156.06 10.7,150.06 15,144.06 "/>
<polygon class="st0" points="29,168.65 24,165.06 27.59,170.06 24,175.06 29,171.48 34,175.06 30.41,170.06 34,165.06 "/>
<polygon class="st0" points="49,188.93 45,186.06 47.87,190.06 45,194.06 49,191.19 53,194.06 50.13,190.06 53,186.06 "/>
<polygon class="st0" points="68.5,208.71 65.5,206.56 67.65,209.56 65.5,212.56 68.5,210.41 71.5,212.56 69.35,209.56 71.5,206.56 
	"/>
<polygon class="st0" points="29,87.23 19,80.06 26.17,90.06 19,100.06 29,92.89 39,100.06 31.83,90.06 39,80.06 "/>
<polygon class="st0" points="49,107.52 40,101.06 46.45,110.06 40,119.06 49,112.61 58,119.06 51.55,110.06 58,101.06 "/>
<polygon class="st0" points="69,127.8 61,122.06 66.74,130.06 61,138.06 69,132.32 77,138.06 71.26,130.06 77,122.06 "/>
<polygon class="st0" points="89,152.04 96,157.06 90.98,150.06 96,143.06 89,148.08 82,143.06 87.02,150.06 82,157.06 "/>
<polygon class="st0" points="109,171.76 115,176.06 110.7,170.06 115,164.06 109,168.36 103,164.06 107.3,170.06 103,176.06 "/>
<polygon class="st0" points="309,132.32 317,138.06 311.26,130.06 317,122.06 309,127.8 301,122.06 306.74,130.06 301,138.06 "/>
<polygon class="st0" points="289,152.04 296,157.06 290.98,150.06 296,143.06 289,148.08 282,143.06 287.02,150.06 282,157.06 "/>
<polygon class="st0" points="269,171.76 275,176.06 270.7,170.06 275,164.06 269,168.36 263,164.06 267.3,170.06 263,176.06 "/>
<polygon class="st0" points="169,267.52 160,261.06 166.45,270.06 160,279.06 169,272.61 178,279.06 171.55,270.06 178,261.06 "/>
<polygon class="st0" points="149,287.8 141,282.06 146.74,290.06 141,298.06 149,292.32 157,298.06 151.26,290.06 157,282.06 "/>
<polygon class="st0" points="129,308.08 122,303.06 127.02,310.06 122,317.06 129,312.04 136,317.06 130.98,310.06 136,303.06 "/>
<polygon class="st0" points="189,288.36 183,284.06 187.3,290.06 183,296.06 189,291.76 195,296.06 190.7,290.06 195,284.06 "/>
<polygon class="st0" points="209,308.65 204,305.06 207.59,310.06 204,315.06 209,311.48 214,315.06 210.41,310.06 214,305.06 "/>
<polygon class="st0" points="169,308.36 163,304.06 167.3,310.06 163,316.06 169,311.76 175,316.06 170.7,310.06 175,304.06 "/>
<polygon class="st0" points="189,247.23 179,240.06 186.17,250.06 179,260.06 189,252.89 199,260.06 191.83,250.06 199,240.06 "/>
<polygon class="st0" points="209,267.52 200,261.06 206.45,270.06 200,279.06 209,272.61 218,279.06 211.55,270.06 218,261.06 "/>
<polygon class="st0" points="229,287.8 221,282.06 226.74,290.06 221,298.06 229,292.32 237,298.06 231.26,290.06 237,282.06 "/>
<polygon class="st0" points="249,308.08 242,303.06 247.02,310.06 242,317.06 249,312.04 256,317.06 250.98,310.06 256,303.06 "/>
<polygon class="st0" points="9,267.52 0,261.06 6.45,270.06 0,279.06 9,272.61 18,279.06 11.55,270.06 18,261.06 "/>
<polygon class="st0" points="29,288.36 23,284.06 27.3,290.06 23,296.06 29,291.76 35,296.06 30.7,290.06 35,284.06 "/>
<polygon class="st0" points="49,308.65 44,305.06 47.59,310.06 44,315.06 49,311.48 54,315.06 50.41,310.06 54,305.06 "/>
<polygon class="st0" points="9,308.36 3,304.06 7.3,310.06 3,316.06 9,311.76 15,316.06 10.7,310.06 15,304.06 "/>
<polygon class="st0" points="29,247.23 19,240.06 26.17,250.06 19,260.06 29,252.89 39,260.06 31.83,250.06 39,240.06 "/>
<polygon class="st0" points="49,267.52 40,261.06 46.45,270.06 40,279.06 49,272.61 58,279.06 51.55,270.06 58,261.06 "/>
<polygon class="st0" points="69,287.8 61,282.06 66.74,290.06 61,298.06 69,292.32 77,298.06 71.26,290.06 77,282.06 "/>
<polygon class="st0" points="89,308.08 82,303.06 87.02,310.06 82,317.06 89,312.04 96,317.06 90.98,310.06 96,303.06 "/>
<polygon class="st0" points="309,287.8 301,282.06 306.74,290.06 301,298.06 309,292.32 317,298.06 311.26,290.06 317,282.06 "/>
<polygon class="st0" points="289,308.08 282,303.06 287.02,310.06 282,317.06 289,312.04 296,317.06 290.98,310.06 296,303.06 "/>
<polygon class="st0" points="169.28,27.45 160.28,21 166.74,30 160.28,39 169.28,32.55 178.28,39 171.83,30 178.28,21 "/>
<polygon class="st0" points="189.28,52.26 197.28,58 191.55,50 197.28,42 189.28,47.74 181.28,42 187.02,50 181.28,58 "/>
<polygon class="st0" points="209.28,71.98 216.28,77 211.26,70 216.28,63 209.28,68.02 202.28,63 207.3,70 202.28,77 "/>
<polygon class="st0" points="149.28,51.7 155.28,56 150.98,50 155.28,44 149.28,48.3 143.28,44 147.59,50 143.28,56 "/>
<polygon class="st0" points="129.28,71.41 134.28,75 130.7,70 134.28,65 129.28,68.59 124.28,65 127.87,70 124.28,75 "/>
<polygon class="st0" points="109.28,91.13 113.28,94 110.41,90 113.28,86 109.28,88.87 105.28,86 108.15,90 105.28,94 "/>
<polygon class="st0" points="89.28,110.85 92.28,113 90.13,110 92.28,107 89.28,109.15 86.28,107 88.43,110 86.28,113 "/>
<polygon class="st0" points="169.28,71.7 175.28,76 170.98,70 175.28,64 169.28,68.3 163.28,64 167.59,70 163.28,76 "/>
<polygon class="st0" points="149.28,88.59 144.28,85 147.87,90 144.28,95 149.28,91.41 154.28,95 150.7,90 154.28,85 "/>
<polygon class="st0" points="129.28,108.87 125.28,106 128.15,110 125.28,114 129.28,111.13 133.28,114 130.41,110 133.28,106 "/>
<polygon class="st0" points="109.78,128.65 106.78,126.5 108.93,129.5 106.78,132.5 109.78,130.35 112.78,132.5 110.63,129.5 
	112.78,126.5 "/>
<polygon class="st0" points="149.28,7.17 139.28,0 146.45,10 139.28,20 149.28,12.83 159.28,20 152.11,10 159.28,0 "/>
<polygon class="st0" points="129.28,27.45 120.28,21 126.74,30 120.28,39 129.28,32.55 138.28,39 131.83,30 138.28,21 "/>
<polygon class="st0" points="109.28,47.74 101.28,42 107.02,50 101.28,58 109.28,52.26 117.28,58 111.55,50 117.28,42 "/>
<polygon class="st0" points="89.28,68.02 82.28,63 87.3,70 82.28,77 89.28,71.98 96.28,77 91.26,70 96.28,63 "/>
<polygon class="st0" points="9.28,27.45 0.28,21 6.74,30 0.28,39 9.28,32.55 18.28,39 11.83,30 18.28,21 "/>
<polygon class="st0" points="29.28,52.26 37.28,58 31.55,50 37.28,42 29.28,47.74 21.28,42 27.02,50 21.28,58 "/>
<polygon class="st0" points="49.28,71.98 56.28,77 51.26,70 56.28,63 49.28,68.02 42.28,63 47.3,70 42.28,77 "/>
<polygon class="st0" points="69.28,91.7 75.28,96 70.98,90 75.28,84 69.28,88.3 63.28,84 67.59,90 63.28,96 "/>
<polygon class="st0" points="9.28,71.7 15.28,76 10.98,70 15.28,64 9.28,68.3 3.28,64 7.59,70 3.28,76 "/>
<polygon class="st0" points="309.28,51.7 315.28,56 310.98,50 315.28,44 309.28,48.3 303.28,44 307.59,50 303.28,56 "/>
<polygon class="st0" points="289.28,71.41 294.28,75 290.7,70 294.28,65 289.28,68.59 284.28,65 287.87,70 284.28,75 "/>
<polygon class="st0" points="269.28,91.13 273.28,94 270.41,90 273.28,86 269.28,88.87 265.28,86 268.15,90 265.28,94 "/>
<polygon class="st0" points="249.28,110.85 252.28,113 250.13,110 252.28,107 249.28,109.15 246.28,107 248.43,110 246.28,113 "/>
<polygon class="st0" points="309.28,88.59 304.28,85 307.87,90 304.28,95 309.28,91.41 314.28,95 310.7,90 314.28,85 "/>
<polygon class="st0" points="289.28,108.87 285.28,106 288.15,110 285.28,114 289.28,111.13 293.28,114 290.41,110 293.28,106 "/>
<polygon class="st0" points="269.78,128.65 266.78,126.5 268.93,129.5 266.78,132.5 269.78,130.35 272.78,132.5 270.63,129.5 
	272.78,126.5 "/>
<polygon class="st0" points="319.28,0 309.28,7.17 299.28,0 306.45,10 299.28,20 309.28,12.83 319.28,20 312.11,10 "/>
<polygon class="st0" points="289.28,27.45 280.28,21 286.74,30 280.28,39 289.28,32.55 298.28,39 291.83,30 298.28,21 "/>
<polygon class="st0" points="269.28,47.74 261.28,42 267.02,50 261.28,58 269.28,52.26 277.28,58 271.55,50 277.28,42 "/>
<polygon class="st0" points="249.28,68.02 242.28,63 247.3,70 242.28,77 249.28,71.98 256.28,77 251.26,70 256.28,63 "/>
<polygon class="st0" points="229.28,91.7 235.28,96 230.98,90 235.28,84 229.28,88.3 223.28,84 227.59,90 223.28,96 "/>
<polygon class="st0" points="169.28,187.45 160.28,181 166.74,190 160.28,199 169.28,192.55 178.28,199 171.83,190 178.28,181 "/>
<polygon class="st0" points="189.28,212.26 197.28,218 191.55,210 197.28,202 189.28,207.74 181.28,202 187.02,210 181.28,218 "/>
<polygon class="st0" points="209.28,231.98 216.28,237 211.26,230 216.28,223 209.28,228.02 202.28,223 207.3,230 202.28,237 "/>
<polygon class="st0" points="149.28,211.7 155.28,216 150.98,210 155.28,204 149.28,208.3 143.28,204 147.59,210 143.28,216 "/>
<polygon class="st0" points="129.28,231.41 134.28,235 130.7,230 134.28,225 129.28,228.59 124.28,225 127.87,230 124.28,235 "/>
<polygon class="st0" points="109.28,248.87 105.28,246 108.15,250 105.28,254 109.28,251.13 113.28,254 110.41,250 113.28,246 "/>
<polygon class="st0" points="89.28,270.85 92.28,273 90.13,270 92.28,267 89.28,269.15 86.28,267 88.43,270 86.28,273 "/>
<polygon class="st0" points="169.28,231.7 175.28,236 170.98,230 175.28,224 169.28,228.3 163.28,224 167.59,230 163.28,236 "/>
<polygon class="st0" points="149.28,248.59 144.28,245 147.87,250 144.28,255 149.28,251.41 154.28,255 150.7,250 154.28,245 "/>
<polygon class="st0" points="129.28,268.87 125.28,266 128.15,270 125.28,274 129.28,271.13 133.28,274 130.41,270 133.28,266 "/>
<polygon class="st0" points="109.78,288.65 106.78,286.5 108.93,289.5 106.78,292.5 109.78,290.35 112.78,292.5 110.63,289.5 
	112.78,286.5 "/>
<polygon class="st0" points="149.28,167.17 139.28,160 146.45,170 139.28,180 149.28,172.83 159.28,180 152.11,170 159.28,160 "/>
<polygon class="st0" points="129.28,187.45 120.28,181 126.74,190 120.28,199 129.28,192.55 138.28,199 131.83,190 138.28,181 "/>
<polygon class="st0" points="109.28,207.74 101.28,202 107.02,210 101.28,218 109.28,212.26 117.28,218 111.55,210 117.28,202 "/>
<polygon class="st0" points="89.28,228.02 82.28,223 87.3,230 82.28,237 89.28,231.98 96.28,237 91.26,230 96.28,223 "/>
<polygon class="st0" points="9.28,187.45 0.28,181 6.74,190 0.28,199 9.28,192.55 18.28,199 11.83,190 18.28,181 "/>
<polygon class="st0" points="29.28,212.26 37.28,218 31.55,210 37.28,202 29.28,207.74 21.28,202 27.02,210 21.28,218 "/>
<polygon class="st0" points="49.28,231.98 56.28,237 51.26,230 56.28,223 49.28,228.02 42.28,223 47.3,230 42.28,237 "/>
<polygon class="st0" points="69.28,251.7 75.28,256 70.98,250 75.28,244 69.28,248.3 63.28,244 67.59,250 63.28,256 "/>
<polygon class="st0" points="9.28,231.7 15.28,236 10.98,230 15.28,224 9.28,228.3 3.28,224 7.59,230 3.28,236 "/>
<polygon class="st0" points="309.28,211.7 315.28,216 310.98,210 315.28,204 309.28,208.3 303.28,204 307.59,210 303.28,216 "/>
<polygon class="st0" points="289.28,231.41 294.28,235 290.7,230 294.28,225 289.28,228.59 284.28,225 287.87,230 284.28,235 "/>
<polygon class="st0" points="269.28,248.87 265.28,246 268.15,250 265.28,254 269.28,251.13 273.28,254 270.41,250 273.28,246 "/>
<polygon class="st0" points="249.28,270.85 252.28,273 250.13,270 252.28,267 249.28,269.15 246.28,267 248.43,270 246.28,273 "/>
<polygon class="st0" points="309.28,248.59 304.28,245 307.87,250 304.28,255 309.28,251.41 314.28,255 310.7,250 314.28,245 "/>
<polygon class="st0" points="289.28,268.87 285.28,266 288.15,270 285.28,274 289.28,271.13 293.28,274 290.41,270 293.28,266 "/>
<polygon class="st0" points="269.78,288.65 266.78,286.5 268.93,289.5 266.78,292.5 269.78,290.35 272.78,292.5 270.63,289.5 
	272.78,286.5 "/>
<polygon class="st0" points="309.28,167.17 299.28,160 306.45,170 299.28,180 309.28,172.83 319.28,180 312.11,170 319.28,160 "/>
<polygon class="st0" points="289.28,187.45 280.28,181 286.74,190 280.28,199 289.28,192.55 298.28,199 291.83,190 298.28,181 "/>
<polygon class="st0" points="269.28,207.74 261.28,202 267.02,210 261.28,218 269.28,212.26 277.28,218 271.55,210 277.28,202 "/>
<polygon class="st0" points="249.28,228.02 242.28,223 247.3,230 242.28,237 249.28,231.98 256.28,237 251.26,230 256.28,223 "/>
<polygon class="st0" points="229.28,251.7 235.28,256 230.98,250 235.28,244 229.28,248.3 223.28,244 227.59,250 223.28,256 "/>
</svg>
