<svg xmlns="http://www.w3.org/2000/svg" xmlns:xlink="http://www.w3.org/1999/xlink" viewBox="0 0 371.43 371.43"><defs><style>.cls-1{fill:#37353c;}.cls-2{fill:#92864f;}.cls-3{fill:#231f20;}.cls-4{fill:url(#linear-gradient);}.cls-5{fill:url(#linear-gradient-2);}.cls-6{fill:url(#New_Gradient_Swatch_copy_2);}.cls-7{fill:url(#New_Gradient_Swatch_copy_2-2);}.cls-8{fill:url(#New_Gradient_Swatch_copy_2-3);}.cls-9{fill:url(#New_Gradient_Swatch_copy_2-4);}.cls-10{fill:url(#New_Gradient_Swatch_copy_2-5);}.cls-11{fill:url(#New_Gradient_Swatch_copy_2-6);}.cls-12{fill:url(#New_Gradient_Swatch_copy_2-7);}.cls-13{fill:none;stroke:#625b32;stroke-miterlimit:10;}</style><linearGradient id="linear-gradient" x1="2241.9" y1="2549.57" x2="2448.82" y2="2342.64" gradientTransform="translate(-2353.25 2623.93) rotate(-90)" gradientUnits="userSpaceOnUse"><stop offset="0" stop-color="#c09d30"/><stop offset="0.35" stop-color="#d0a641"/><stop offset="0.5" stop-color="#fffac4"/><stop offset="0.65" stop-color="#d0a641"/><stop offset="1" stop-color="#c09d30"/></linearGradient><linearGradient id="linear-gradient-2" x1="2427.61" y1="2735.29" x2="2634.54" y2="2528.36" xlink:href="#linear-gradient"/><linearGradient id="New_Gradient_Swatch_copy_2" x1="85.77" y1="142.08" x2="85.77" y2="229.35" gradientUnits="userSpaceOnUse"><stop offset="0.18" stop-color="#fffac4"/><stop offset="0.21" stop-color="#f9efb4"/><stop offset="0.25" stop-color="#eed893"/><stop offset="0.76" stop-color="#d6b55a"/><stop offset="0.84" stop-color="#d0a641"/><stop offset="0.95" stop-color="#b69238"/></linearGradient><linearGradient id="New_Gradient_Swatch_copy_2-2" x1="122.17" y1="153.71" x2="122.17" y2="229.35" xlink:href="#New_Gradient_Swatch_copy_2"/><linearGradient id="New_Gradient_Swatch_copy_2-3" x1="154.59" y1="153.71" x2="154.59" y2="229.35" xlink:href="#New_Gradient_Swatch_copy_2"/><linearGradient id="New_Gradient_Swatch_copy_2-4" x1="184.79" y1="153.71" x2="184.79" y2="229.35" xlink:href="#New_Gradient_Swatch_copy_2"/><linearGradient id="New_Gradient_Swatch_copy_2-5" x1="217.76" y1="153.71" x2="217.76" y2="229.35" xlink:href="#New_Gradient_Swatch_copy_2"/><linearGradient id="New_Gradient_Swatch_copy_2-6" x1="252.5" y1="153.71" x2="252.5" y2="229.35" xlink:href="#New_Gradient_Swatch_copy_2"/><linearGradient id="New_Gradient_Swatch_copy_2-7" x1="286.94" y1="153.71" x2="286.94" y2="229.35" xlink:href="#New_Gradient_Swatch_copy_2"/></defs><g id="Pageant"><rect class="cls-1" width="371.43" height="371.43"/><g id="Pageant-2" data-name="Pageant"><polygon class="cls-1" points="0 164.5 0 0 164.5 0 371.43 206.93 371.43 371.43 206.93 371.43 0 164.5"/><polygon class="cls-2" points="35.72 35.72 252.15 119.28 335.71 335.71 119.28 252.15 35.72 35.72"/><polygon class="cls-3" points="0 214 157.43 371.43 214 371.43 0 157.43 0 214"/><polygon class="cls-3" points="371.43 157.43 214.59 0.59 157.43 0 371.43 214 371.43 157.43"/><polygon class="cls-4" points="0 206.93 164.5 371.43 206.93 371.43 0 164.5 0 206.93"/><polygon class="cls-5" points="371.43 164.5 206.93 0 164.5 0 371.43 206.93 371.43 164.5"/></g><path class="cls-3" d="M72.57,150.46a4.3,4.3,0,0,0-1-3.26L68,143.83c-.23-.35-.82-.7-.82-1.05a.68.68,0,0,1,.7-.7H85.48c9.08,0,15.36,4.77,15.36,22.58,0,15-4.89,24.08-15.36,24.08h-4V221c0,1.39.11,2.56,1,3.26l4.31,3.37c.35.35.81.7.81,1.05a.67.67,0,0,1-.7.7H67.91a.68.68,0,0,1-.7-.7c0-.35.59-.58.82-1.05l3.49-3.37a4.3,4.3,0,0,0,1-3.26Zm9,32.46H84.9c4.89,0,6.4-5.35,6.4-18.26s-1.51-16.76-6.4-16.76H81.53Z"/><path class="cls-3" d="M123.5,212.5c-.1-.5-.4-.9-.91-.9h-7.46c-.3,0-.5.3-.61.7L113,223.4a2.26,2.26,0,0,0,.51,1.81l2.21,2.32c.41.5,1,.91,1,1.21a.61.61,0,0,1-.7.61h-11.6a.59.59,0,0,1-.61-.61c0-.3.41-.71.71-1l2.82-2.82a4.15,4.15,0,0,0,.81-2.52l9.18-67.77c.1-.5.3-.91.8-.91h3.74c.5,0,.8.51.9,1.11l9.58,67.67a4.18,4.18,0,0,0,1.11,2.72l2.93,2.62c.3.31.6.61.6.91a.61.61,0,0,1-.7.61H121.79c-.51,0-.71-.31-.71-.61s.4-.6.71-.91l2.72-2.72a2.45,2.45,0,0,0,.5-2Zm-1.41-6.25c.3,0,.5-.3.4-.7L119,180.84h-.2l-3.33,24.81c-.1.4.1.6.3.6Z"/><path class="cls-3" d="M156.07,197.18A2.66,2.66,0,0,0,155,195l-2.82-2.42a1.23,1.23,0,0,1-.51-1c0-.4.31-.61.81-.61h14.93c.4,0,.7.21.7.61s-.2.6-.5,1L164.64,195a2.49,2.49,0,0,0-1,2.22v31.66a.48.48,0,0,1-.5.51,1.56,1.56,0,0,1-1-.41l-3-2.72a1.47,1.47,0,0,0-1-.4,1.64,1.64,0,0,0-1,.4c-2.12,1.92-4.13,3.13-6.35,3.13-12.61,0-13.11-23-13.11-39.84,0-12.4.5-35.8,12.9-35.8a9.75,9.75,0,0,1,6.36,2.32,3.12,3.12,0,0,0,1.51.61,5.89,5.89,0,0,0,2.52-1.62c.91-.8,1.51-1.31,2-1.31s.7.71.7,1.72v24.2c0,.4-.2.71-.5.71s-.71-.41-.91-1c-2.12-7.57-6.45-20.57-10.89-20.57-4.23,0-5.44,9.58-5.44,30.85,0,29,1.21,34.69,4.84,34.69,3.12,0,5.34-3.83,5.34-13.41Z"/><path class="cls-3" d="M181.68,188.3h2.22a1.09,1.09,0,0,0,1.11-.7l3.53-7.06c.2-.41.3-.61.61-.61s.4.2.4.61v21.38c0,.3-.1.5-.4.5s-.51-.3-.71-.71L185,194.35a1.09,1.09,0,0,0-1.11-.7h-2.22V224.3h5.75a2.64,2.64,0,0,0,2.72-1.81l5.45-19.36a.73.73,0,0,1,.71-.61.56.56,0,0,1,.5.61v25.31a.83.83,0,0,1-.81.91H169.88a.58.58,0,0,1-.6-.61c0-.3.5-.5.7-.91l3-2.92a3.68,3.68,0,0,0,.91-2.83V161a3.67,3.67,0,0,0-.91-2.82l-3-2.92c-.2-.31-.7-.61-.7-.91a.58.58,0,0,1,.6-.61H196a.89.89,0,0,1,.81.91v25.11c0,.4-.2.61-.5.61a.86.86,0,0,1-.81-.71l-5.45-19a2.5,2.5,0,0,0-2.62-1.91h-5.75Z"/><path class="cls-3" d="M219.09,212.5c-.1-.5-.4-.9-.9-.9h-7.47c-.3,0-.5.3-.6.7l-1.51,11.1a2.3,2.3,0,0,0,.5,1.81l2.22,2.32c.4.5,1,.91,1,1.21s-.2.61-.71.61H200a.58.58,0,0,1-.6-.61c0-.3.4-.71.7-1l2.83-2.82a4.28,4.28,0,0,0,.81-2.52l9.17-67.77c.1-.5.3-.91.81-.91h3.73c.5,0,.81.51.91,1.11L228,222.49a4.13,4.13,0,0,0,1.11,2.72l2.92,2.62c.3.31.61.61.61.91a.62.62,0,0,1-.71.61H217.38a.62.62,0,0,1-.71-.61c0-.3.41-.6.71-.91l2.72-2.72a2.41,2.41,0,0,0,.51-2Zm-1.41-6.25c.3,0,.51-.3.4-.7l-3.52-24.71h-.21L211,205.65c-.11.4.1.6.3.6Z"/><path class="cls-3" d="M238.15,161a4.28,4.28,0,0,0-.91-2.82l-2.52-2.92c-.2-.31-.7-.61-.7-1a.57.57,0,0,1,.6-.51h12.1c.71,0,1,.71,1.21,1.72l9.28,43.36h.2V161a3.44,3.44,0,0,0-.91-2.72l-2.82-3c-.2-.31-.7-.61-.7-1a.57.57,0,0,1,.6-.51h13.31a.57.57,0,0,1,.61.51c0,.4-.41.7-.71,1l-2.52,2.92a4.28,4.28,0,0,0-.91,2.82v67.27c0,.7-.3,1.11-1,1.11h-4.23c-.91,0-1.72-1-2-2.53l-11.8-55h-.2v50.22a3.5,3.5,0,0,0,1,2.73l2.72,3c.3.31.71.61.71,1a.57.57,0,0,1-.61.51H234.62a.57.57,0,0,1-.6-.51c0-.4.5-.7.7-1l2.52-2.92a4.29,4.29,0,0,0,.91-2.83Z"/><path class="cls-3" d="M281.31,158.55h-3.73c-.61,0-.91.51-1.11,1.11l-5.24,20.07a.79.79,0,0,1-.81.61c-.4,0-.51-.21-.51-.71V154.12a.47.47,0,0,1,.51-.41H300a.46.46,0,0,1,.5.41v25.51c0,.5-.1.71-.5.71a.77.77,0,0,1-.81-.61l-5.25-20.07c-.2-.6-.5-1.11-1.1-1.11h-3.74v63.53a3.65,3.65,0,0,0,.81,2.83l3,2.92c.3.31.7.61.7.91a.53.53,0,0,1-.6.61H277.38a.54.54,0,0,1-.61-.61c0-.3.41-.6.71-.91l3-2.92a3.65,3.65,0,0,0,.81-2.83Z"/><path class="cls-6" d="M74.31,150.46a4.26,4.26,0,0,0-1-3.26l-3.49-3.37c-.23-.35-.81-.7-.81-1.05a.67.67,0,0,1,.7-.7H87.23c9.07,0,15.36,4.77,15.36,22.58,0,15-4.89,24.08-15.36,24.08h-4V221c0,1.39.12,2.56,1,3.26l4.3,3.37c.35.35.82.7.82,1.05a.68.68,0,0,1-.7.7H69.66a.67.67,0,0,1-.7-.7c0-.35.58-.58.81-1.05l3.49-3.37a4.26,4.26,0,0,0,1-3.26Zm9,32.46h3.37c4.89,0,6.4-5.35,6.4-18.26s-1.51-16.76-6.4-16.76H83.27Z"/><path class="cls-7" d="M125.25,212.5c-.11-.5-.41-.9-.91-.9h-7.47c-.3,0-.5.3-.6.7l-1.51,11.1a2.3,2.3,0,0,0,.5,1.81l2.22,2.32c.4.5,1,.91,1,1.21s-.2.61-.71.61H106.19a.59.59,0,0,1-.61-.61c0-.3.4-.71.71-1l2.82-2.82a4.21,4.21,0,0,0,.81-2.52l9.17-67.77c.1-.5.31-.91.81-.91h3.73c.51,0,.81.51.91,1.11l9.58,67.67a4.13,4.13,0,0,0,1.11,2.72l2.92,2.62c.31.31.61.61.61.91s-.2.61-.71.61H123.53a.62.62,0,0,1-.71-.61c0-.3.41-.6.71-.91l2.72-2.72a2.41,2.41,0,0,0,.51-2Zm-1.42-6.25c.31,0,.51-.3.41-.7l-3.53-24.71h-.2l-3.33,24.81c-.1.4.1.6.3.6Z"/><path class="cls-8" d="M157.82,197.18a2.69,2.69,0,0,0-1.11-2.22l-2.83-2.42a1.25,1.25,0,0,1-.5-1c0-.4.3-.61.81-.61h14.92c.4,0,.71.21.71.61s-.21.6-.51,1L166.39,195a2.47,2.47,0,0,0-1,2.22v31.66a.48.48,0,0,1-.5.51,1.54,1.54,0,0,1-1-.41l-3-2.72a1.44,1.44,0,0,0-1-.4,1.66,1.66,0,0,0-1,.4c-2.11,1.92-4.13,3.13-6.35,3.13-12.6,0-13.11-23-13.11-39.84,0-12.4.51-35.8,12.91-35.8a9.72,9.72,0,0,1,6.35,2.32,3.15,3.15,0,0,0,1.52.61,5.89,5.89,0,0,0,2.52-1.62c.9-.8,1.51-1.31,2-1.31s.71.71.71,1.72v24.2c0,.4-.2.71-.5.71s-.71-.41-.91-1c-2.12-7.57-6.46-20.57-10.89-20.57-4.24,0-5.45,9.58-5.45,30.85,0,29,1.21,34.69,4.84,34.69,3.13,0,5.35-3.83,5.35-13.41Z"/><path class="cls-9" d="M183.43,188.3h2.22a1.1,1.1,0,0,0,1.11-.7l3.52-7.06c.21-.41.31-.61.61-.61s.4.2.4.61v21.38c0,.3-.1.5-.4.5s-.5-.3-.71-.71l-3.42-7.36a1.1,1.1,0,0,0-1.11-.7h-2.22V224.3h5.75a2.64,2.64,0,0,0,2.72-1.81l5.44-19.36a.74.74,0,0,1,.71-.61.56.56,0,0,1,.5.61v25.31a.83.83,0,0,1-.8.91H171.63a.59.59,0,0,1-.61-.61c0-.3.51-.5.71-.91l3-2.92a3.72,3.72,0,0,0,.9-2.83V161a3.71,3.71,0,0,0-.9-2.82l-3-2.92c-.2-.31-.71-.61-.71-.91a.59.59,0,0,1,.61-.61h26.12a.89.89,0,0,1,.8.91v25.11c0,.4-.2.61-.5.61a.87.87,0,0,1-.81-.71l-5.44-19a2.5,2.5,0,0,0-2.62-1.91h-5.75Z"/><path class="cls-10" d="M220.84,212.5c-.1-.5-.4-.9-.91-.9h-7.46c-.3,0-.51.3-.61.7l-1.51,11.1a2.26,2.26,0,0,0,.51,1.81l2.21,2.32c.41.5,1,.91,1,1.21a.61.61,0,0,1-.7.61h-11.6a.59.59,0,0,1-.61-.61c0-.3.41-.71.71-1l2.82-2.82a4.15,4.15,0,0,0,.81-2.52l9.18-67.77c.1-.5.3-.91.8-.91h3.74c.5,0,.8.51.9,1.11l9.58,67.67a4.18,4.18,0,0,0,1.11,2.72l2.93,2.62c.3.31.6.61.6.91a.61.61,0,0,1-.7.61H219.12a.61.61,0,0,1-.7-.61c0-.3.4-.6.7-.91l2.73-2.72a2.45,2.45,0,0,0,.5-2Zm-1.41-6.25c.3,0,.5-.3.4-.7l-3.53-24.71h-.2l-3.33,24.81c-.1.4.1.6.3.6Z"/><path class="cls-11" d="M239.9,161a4.34,4.34,0,0,0-.91-2.82l-2.52-2.92c-.2-.31-.71-.61-.71-1a.57.57,0,0,1,.61-.51h12.1c.7,0,1,.71,1.21,1.72L259,198.79h.2V161a3.44,3.44,0,0,0-.91-2.72l-2.82-3c-.21-.31-.71-.61-.71-1a.57.57,0,0,1,.61-.51h13.31a.57.57,0,0,1,.6.51c0,.4-.4.7-.7,1L266,158.15a4.33,4.33,0,0,0-.9,2.82v67.27c0,.7-.3,1.11-1,1.11h-4.24c-.9,0-1.71-1-2-2.53l-11.8-55h-.2v50.22a3.53,3.53,0,0,0,1,2.73l2.73,3c.3.31.7.61.7,1a.57.57,0,0,1-.6.51H236.37a.57.57,0,0,1-.61-.51c0-.4.51-.7.71-1l2.52-2.92a4.35,4.35,0,0,0,.91-2.83Z"/><path class="cls-12" d="M283.05,158.55h-3.73c-.6,0-.9.51-1.11,1.11L273,179.73a.77.77,0,0,1-.81.61c-.4,0-.5-.21-.5-.71V154.12a.46.46,0,0,1,.5-.41h29.55a.46.46,0,0,1,.5.41v25.51c0,.5-.1.71-.5.71a.78.78,0,0,1-.81-.61l-5.24-20.07c-.2-.6-.5-1.11-1.11-1.11h-3.73v63.53a3.65,3.65,0,0,0,.81,2.83l3,2.92c.3.31.71.61.71.91a.54.54,0,0,1-.61.61H279.12a.53.53,0,0,1-.6-.61c0-.3.4-.6.7-.91l3-2.92a3.68,3.68,0,0,0,.8-2.83Z"/><path class="cls-13" d="M74.31,150.46a4.26,4.26,0,0,0-1-3.26l-3.49-3.37c-.23-.35-.81-.7-.81-1.05a.67.67,0,0,1,.7-.7H87.23c9.07,0,15.36,4.77,15.36,22.58,0,15-4.89,24.08-15.36,24.08h-4V221c0,1.39.12,2.56,1,3.26l4.3,3.37c.35.35.82.7.82,1.05a.68.68,0,0,1-.7.7H69.66a.67.67,0,0,1-.7-.7c0-.35.58-.58.81-1.05l3.49-3.37a4.26,4.26,0,0,0,1-3.26Zm9,32.46h3.37c4.89,0,6.4-5.35,6.4-18.26s-1.51-16.76-6.4-16.76H83.27Z"/><path class="cls-13" d="M125.25,212.5c-.11-.5-.41-.9-.91-.9h-7.47c-.3,0-.5.3-.6.7l-1.51,11.1a2.3,2.3,0,0,0,.5,1.81l2.22,2.32c.4.5,1,.91,1,1.21s-.2.61-.71.61H106.19a.59.59,0,0,1-.61-.61c0-.3.4-.71.71-1l2.82-2.82a4.21,4.21,0,0,0,.81-2.52l9.17-67.77c.1-.5.31-.91.81-.91h3.73c.51,0,.81.51.91,1.11l9.58,67.67a4.13,4.13,0,0,0,1.11,2.72l2.92,2.62c.31.31.61.61.61.91s-.2.61-.71.61H123.53a.62.62,0,0,1-.71-.61c0-.3.41-.6.71-.91l2.72-2.72a2.41,2.41,0,0,0,.51-2Zm-1.42-6.25c.31,0,.51-.3.41-.7l-3.53-24.71h-.2l-3.33,24.81c-.1.4.1.6.3.6Z"/><path class="cls-13" d="M157.82,197.18a2.69,2.69,0,0,0-1.11-2.22l-2.83-2.42a1.25,1.25,0,0,1-.5-1c0-.4.3-.61.81-.61h14.92c.4,0,.71.21.71.61s-.21.6-.51,1L166.39,195a2.47,2.47,0,0,0-1,2.22v31.66a.48.48,0,0,1-.5.51,1.54,1.54,0,0,1-1-.41l-3-2.72a1.44,1.44,0,0,0-1-.4,1.66,1.66,0,0,0-1,.4c-2.11,1.92-4.13,3.13-6.35,3.13-12.6,0-13.11-23-13.11-39.84,0-12.4.51-35.8,12.91-35.8a9.72,9.72,0,0,1,6.35,2.32,3.15,3.15,0,0,0,1.52.61,5.89,5.89,0,0,0,2.52-1.62c.9-.8,1.51-1.31,2-1.31s.71.71.71,1.72v24.2c0,.4-.2.71-.5.71s-.71-.41-.91-1c-2.12-7.57-6.46-20.57-10.89-20.57-4.24,0-5.45,9.58-5.45,30.85,0,29,1.21,34.69,4.84,34.69,3.13,0,5.35-3.83,5.35-13.41Z"/><path class="cls-13" d="M183.43,188.3h2.22a1.1,1.1,0,0,0,1.11-.7l3.52-7.06c.21-.41.31-.61.61-.61s.4.2.4.61v21.38c0,.3-.1.5-.4.5s-.5-.3-.71-.71l-3.42-7.36a1.1,1.1,0,0,0-1.11-.7h-2.22V224.3h5.75a2.64,2.64,0,0,0,2.72-1.81l5.44-19.36a.74.74,0,0,1,.71-.61.56.56,0,0,1,.5.61v25.31a.83.83,0,0,1-.8.91H171.63a.59.59,0,0,1-.61-.61c0-.3.51-.5.71-.91l3-2.92a3.72,3.72,0,0,0,.9-2.83V161a3.71,3.71,0,0,0-.9-2.82l-3-2.92c-.2-.31-.71-.61-.71-.91a.59.59,0,0,1,.61-.61h26.12a.89.89,0,0,1,.8.91v25.11c0,.4-.2.61-.5.61a.87.87,0,0,1-.81-.71l-5.44-19a2.5,2.5,0,0,0-2.62-1.91h-5.75Z"/><path class="cls-13" d="M220.84,212.5c-.1-.5-.4-.9-.91-.9h-7.46c-.3,0-.51.3-.61.7l-1.51,11.1a2.26,2.26,0,0,0,.51,1.81l2.21,2.32c.41.5,1,.91,1,1.21a.61.61,0,0,1-.7.61h-11.6a.59.59,0,0,1-.61-.61c0-.3.41-.71.71-1l2.82-2.82a4.15,4.15,0,0,0,.81-2.52l9.18-67.77c.1-.5.3-.91.8-.91h3.74c.5,0,.8.51.9,1.11l9.58,67.67a4.18,4.18,0,0,0,1.11,2.72l2.93,2.62c.3.31.6.61.6.91a.61.61,0,0,1-.7.61H219.12a.61.61,0,0,1-.7-.61c0-.3.4-.6.7-.91l2.73-2.72a2.45,2.45,0,0,0,.5-2Zm-1.41-6.25c.3,0,.5-.3.4-.7l-3.53-24.71h-.2l-3.33,24.81c-.1.4.1.6.3.6Z"/><path class="cls-13" d="M239.9,161a4.34,4.34,0,0,0-.91-2.82l-2.52-2.92c-.2-.31-.71-.61-.71-1a.57.57,0,0,1,.61-.51h12.1c.7,0,1,.71,1.21,1.72L259,198.79h.2V161a3.44,3.44,0,0,0-.91-2.72l-2.82-3c-.21-.31-.71-.61-.71-1a.57.57,0,0,1,.61-.51h13.31a.57.57,0,0,1,.6.51c0,.4-.4.7-.7,1L266,158.15a4.33,4.33,0,0,0-.9,2.82v67.27c0,.7-.3,1.11-1,1.11h-4.24c-.9,0-1.71-1-2-2.53l-11.8-55h-.2v50.22a3.53,3.53,0,0,0,1,2.73l2.73,3c.3.31.7.61.7,1a.57.57,0,0,1-.6.51H236.37a.57.57,0,0,1-.61-.51c0-.4.51-.7.71-1l2.52-2.92a4.35,4.35,0,0,0,.91-2.83Z"/><path class="cls-13" d="M283.05,158.55h-3.73c-.6,0-.9.51-1.11,1.11L273,179.73a.77.77,0,0,1-.81.61c-.4,0-.5-.21-.5-.71V154.12a.46.46,0,0,1,.5-.41h29.55a.46.46,0,0,1,.5.41v25.51c0,.5-.1.71-.5.71a.78.78,0,0,1-.81-.61l-5.24-20.07c-.2-.6-.5-1.11-1.11-1.11h-3.73v63.53a3.65,3.65,0,0,0,.81,2.83l3,2.92c.3.31.71.61.71.91a.54.54,0,0,1-.61.61H279.12a.53.53,0,0,1-.6-.61c0-.3.4-.6.7-.91l3-2.92a3.68,3.68,0,0,0,.8-2.83Z"/></g></svg>