<?xml version="1.0" encoding="utf-8"?>
<!-- Generator: Adobe Illustrator 25.4.1, SVG Export Plug-In . SVG Version: 6.00 Build 0)  -->
<svg version="1.1" id="Layer_1" xmlns="http://www.w3.org/2000/svg" xmlns:xlink="http://www.w3.org/1999/xlink" x="0px" y="0px"
	 viewBox="0 0 1080 1080" style="enable-background:new 0 0 1080 1080;" xml:space="preserve">
<style type="text/css">
	.st0{opacity:0.08;clip-path:url(#SVGID_00000042002410509156370320000009725456692426557884_);}
	.st1{fill:#FFFFFF;}
</style>
<g>
	<defs>
		<rect id="SVGID_1_" width="1080" height="1080"/>
	</defs>
	<clipPath id="SVGID_00000010271696924066477320000008649357695277957549_">
		<use xlink:href="#SVGID_1_"  style="overflow:visible;"/>
	</clipPath>
	<g style="opacity:0.08;clip-path:url(#SVGID_00000010271696924066477320000008649357695277957549_);">
		<g>
			<g>
				
					<rect x="411.44" y="-116.79" transform="matrix(0.7071 -0.7071 0.7071 0.7071 -329.3454 496.23)" class="st1" width="45.79" height="1524.92"/>
			</g>
			<g>
				
					<rect x="622.78" y="-328.13" transform="matrix(0.7071 -0.7071 0.7071 0.7071 -118.0053 583.77)" class="st1" width="45.79" height="1524.92"/>
			</g>
			<polygon class="st1" points="360.14,360.14 90.34,270.2 0.41,0.41 270.2,90.34 			"/>
			<polygon class="st1" points="719.86,719.86 450.07,629.93 360.14,360.14 629.93,450.07 			"/>
			<polygon class="st1" points="1079.59,1079.59 809.8,989.66 719.86,719.86 989.66,809.8 			"/>
		</g>
		<g>
			
				<rect x="950.94" y="-656.29" transform="matrix(0.7071 -0.7071 0.7071 0.7071 210.1546 719.6982)" class="st1" width="45.79" height="1524.92"/>
		</g>
		<g>
			
				<rect x="82.78" y="211.87" transform="matrix(0.7071 -0.7071 0.7071 0.7071 -658.0052 360.0947)" class="st1" width="45.79" height="1524.92"/>
		</g>
	</g>
</g>
</svg>
